<?xml version="1.0" encoding="utf-8"?>
<!-- Generator: Adobe Illustrator 19.0.0, SVG Export Plug-In . SVG Version: 6.00 Build 0)  -->
<svg version="1.1" id="Layer_1" xmlns="http://www.w3.org/2000/svg" xmlns:xlink="http://www.w3.org/1999/xlink" x="0px" y="0px"
	 viewBox="0 0 1980 780" style="enable-background:new 0 0 1980 780;" xml:space="preserve">
<style type="text/css">
	.st0{clip-path:url(#XMLID_340_);fill:#F4F4F4;}
	.st1{clip-path:url(#XMLID_340_);}
	.st2{fill:#50A6B1;}
	.st3{fill:#E1E1E1;}
	.st4{fill:#AFBA49;}
	.st5{fill:#F7728F;}
	.st6{fill:#FAFAFA;}
	.st7{fill:#1A2E35;}
	.st8{fill:#FFFFFF;}
	.st9{fill:#375A64;}
	.st10{fill:#FF4F5B;}
	.st11{fill:#F1B844;}
	.st12{fill:#D94D65;}
	.st13{fill:#CD7250;}
	.st14{fill:#AE4F32;}
	.st15{fill:none;stroke:#44555B;stroke-miterlimit:10;}
	.st16{fill:#C0D159;}
</style>
<g id="XMLID_208_">
	<defs>
		<rect id="XMLID_2_" y="1.5" width="1980" height="780"/>
	</defs>
	<clipPath id="XMLID_340_">
		<use xlink:href="#XMLID_2_"  style="overflow:visible;"/>
	</clipPath>
	<rect id="XMLID_97_" class="st0" width="1980" height="780"/>
	<g id="XMLID_210_" class="st1">
		<g id="XMLID_3_">
			<path id="XMLID_4_" class="st2" d="M1560.3,311.5v65.4c0,11.4,9.6,21,21.4,21h234.4c11.8,0,21.4-9.6,21.4-21.4v-55.2l29.2-30.7
				l-285-0.9C1569.9,289.6,1560.3,299.2,1560.3,311.5z"/>
			<g id="XMLID_5_">
				<polygon id="XMLID_244_" class="st3" points="1803,329.2 1590.2,328.2 1590.3,321.7 1803,322.7 				"/>
			</g>
			<g id="XMLID_6_">
				<polygon id="XMLID_242_" class="st3" points="1803,350.7 1590.2,349.8 1590.3,343.2 1803,344.2 				"/>
			</g>
			<g id="XMLID_7_">
				<polygon id="XMLID_240_" class="st3" points="1803,371.7 1718.8,371.3 1718.8,364.8 1803,365.2 				"/>
			</g>
		</g>
		<g id="XMLID_8_">
			<g id="XMLID_9_">
				<g id="XMLID_10_">
					<g id="XMLID_11_">
						<path id="XMLID_237_" class="st4" d="M1160.7,644.7c32.8-22.9,40.2-65.4,38.9-103.6c-0.2-6.4,0.5-13.1-2.5-18.7
							c-3-5.6-10.1-9.4-15.8-6.7c-4.7,2.2-6.8,7.7-9.5,12.3c-3.5,6.1-8.8,11.1-15,14.3c-4.1,2.1-9.1,3.4-13.1,1.2
							c-5.5-3-6.2-10.6-6.1-17c0.1-11.8,0.1-23.6,0.2-35.5c0-6.3,0.1-12.8-1.9-18.8c-2-6-6.3-11.6-12.4-13.3c-6-1.7-13.5,1.8-14.8,8
							c-0.5,2.6,0,5.3-0.2,7.9c-0.2,2.6-1.4,5.5-3.9,6.3c-2.5,0.7-5.1-1.1-7-2.9c-6.5-6.4-11-14.7-15.1-22.9s-8.2-16.6-14.1-23.6
							c-5.9-7-14.2-12.5-23.2-13c-9.1-0.5-18.8,5.1-21.1,14c-2.3,8.9,2.9,18,8.6,25.3c8.4,10.7,18.4,20.2,29.5,28.1
							c2,1.4,4.2,3,4.9,5.3c1.4,4.2-2.6,8.4-6.8,9.8c-4.7,1.6-9.9,1.1-14.8,1.7c-4.9,0.6-10.3,2.8-12.2,7.4
							c-2.6,6.5,2.8,13.3,8.2,17.7c10.7,8.9,22.9,16,35.9,20.7c4.7,1.7,9.6,3.2,13.3,6.5c3.8,3.3,6,9,3.8,13.4
							c-2.3,4.5-8.1,5.9-13,5c-4.9-0.9-9.3-3.6-13.9-5.3c-8.7-3.3-20-2.7-25.6,4.8c-3.7,5-4,11.8-2.1,17.8c1.9,5.9,5.6,11,9.6,15.7
							c14,16.4,31.9,29.6,52.1,36.6C1121.9,650.2,1140.6,652.1,1160.7,644.7"/>
					</g>
				</g>
			</g>
			<g id="XMLID_12_">
				<g id="XMLID_13_">
					<g id="XMLID_14_">
						<g id="XMLID_15_">
							<path id="XMLID_233_" class="st3" d="M1161.2,673.1c-1.4-15.1-4.7-33-10.4-52.3c-5.6-19.3-13.5-39.9-22.6-61.2
								c-2.3-5.3-4.5-10.6-6.7-15.7c-2.2-5.2-4.4-10.3-6.9-15.2c-4.9-9.8-10.3-18.8-15.8-27.2c-5.4-8.4-10.9-16.2-16.1-23.4
								c-5.2-7.2-10.1-13.9-14.9-19.7c-9.5-11.8-18.3-20.3-24.6-26c-3.1-2.8-5.6-4.9-7.3-6.4c-0.8-0.7-1.5-1.2-2-1.6
								c-0.4-0.4-0.7-0.5-0.7-0.5c0,0,0.2,0.2,0.6,0.6c0.5,0.4,1.1,1,1.9,1.7c1.7,1.5,4.1,3.6,7.2,6.5c6.2,5.7,14.8,14.4,24.2,26.2
								c4.7,5.9,9.6,12.5,14.8,19.8c5.1,7.3,10.6,15,15.9,23.4c5.4,8.4,10.8,17.4,15.7,27.1c2.4,4.8,4.6,9.9,6.9,15.1
								c2.2,5.2,4.5,10.4,6.7,15.7c9,21.3,16.9,41.8,22.6,61c5.7,19.2,9.1,37,10.6,52.1"/>
						</g>
					</g>
				</g>
			</g>
			<g id="XMLID_16_">
				<g id="XMLID_17_">
					<g id="XMLID_18_">
						<g id="XMLID_19_">
							<path id="XMLID_228_" class="st3" d="M1114.3,528.6c0.1,0,0.3-1,0.6-2.7c0.3-1.8,0.7-4.3,1.2-7.5c0.9-6.3,1.8-15.1,2.8-24.7
								c1-9.7,2.1-18.4,3.1-24.7c0.5-3.1,0.9-5.7,1.2-7.4c0.3-1.8,0.4-2.7,0.4-2.8c-0.1,0-0.4,0.9-0.8,2.7c-0.4,1.7-1,4.3-1.6,7.4
								c-1.2,6.3-2.4,15-3.4,24.7c-1,9.5-1.8,18.2-2.5,24.8c-0.3,3-0.6,5.5-0.8,7.5C1114.3,527.6,1114.3,528.6,1114.3,528.6z"/>
						</g>
					</g>
				</g>
			</g>
			<g id="XMLID_20_">
				<g id="XMLID_21_">
					<g id="XMLID_22_">
						<g id="XMLID_23_">
							<path id="XMLID_223_" class="st3" d="M1032.8,513.4c0,0.1,1.2,0.2,3.3,0.4c2.1,0.2,5.1,0.4,8.9,0.9c7.5,0.8,17.8,2.3,29,4.4
								c11.3,2.1,21.4,4.5,28.7,6.4c3.6,0.9,6.6,1.8,8.6,2.3c2,0.6,3.2,0.9,3.2,0.8c0-0.1-1.1-0.5-3-1.2c-2-0.7-4.9-1.7-8.5-2.7
								c-7.2-2.1-17.4-4.7-28.7-6.8c-11.3-2.1-21.6-3.5-29.2-4.1c-3.8-0.3-6.8-0.5-8.9-0.5C1033.9,513.3,1032.8,513.3,1032.8,513.4z
								"/>
						</g>
					</g>
				</g>
			</g>
			<g id="XMLID_24_">
				<g id="XMLID_25_">
					<g id="XMLID_26_">
						<g id="XMLID_27_">
							<path id="XMLID_218_" class="st3" d="M1149.9,619.3c0,0,0.2-0.3,0.6-1c0.4-0.8,0.8-1.8,1.4-3c1.2-2.6,2.8-6.3,4.8-11
								c3.9-9.3,9-22.4,14.3-36.9c5.4-14.5,10.3-27.6,14-37c1.8-4.6,3.3-8.3,4.5-11.1c0.5-1.2,0.9-2.2,1.2-3
								c0.3-0.7,0.4-1.1,0.3-1.1c0,0-0.2,0.3-0.6,1c-0.4,0.8-0.8,1.8-1.4,2.9c-1.2,2.6-2.8,6.3-4.8,11c-3.9,9.3-9,22.4-14.3,36.9
								c-5.4,14.5-10.3,27.6-14,37c-1.8,4.6-3.3,8.3-4.5,11.1c-0.5,1.2-0.9,2.2-1.2,3C1149.9,618.9,1149.8,619.3,1149.9,619.3z"/>
						</g>
					</g>
				</g>
			</g>
			<g id="XMLID_28_">
				<g id="XMLID_29_">
					<g id="XMLID_30_">
						<g id="XMLID_31_">
							<path id="XMLID_213_" class="st3" d="M1041.5,584.3c0,0,0.4,0.2,1.1,0.4c0.8,0.3,1.9,0.6,3.1,1.1c2.9,0.9,6.8,2.2,11.6,3.8
								c9.8,3.2,23.3,7.7,38.2,12.8c14.9,5,28.4,9.5,38.3,12.4c4.9,1.5,8.9,2.7,11.7,3.4c1.3,0.3,2.3,0.6,3.2,0.8
								c0.7,0.2,1.1,0.3,1.1,0.2c0,0-0.4-0.2-1.1-0.4c-0.8-0.3-1.9-0.6-3.1-1.1c-2.9-0.9-6.8-2.2-11.6-3.8
								c-9.8-3.2-23.3-7.7-38.2-12.8c-14.9-5-28.4-9.5-38.3-12.4c-4.9-1.5-8.9-2.7-11.7-3.4c-1.3-0.3-2.3-0.6-3.2-0.8
								C1041.9,584.4,1041.5,584.3,1041.5,584.3z"/>
						</g>
					</g>
				</g>
			</g>
		</g>
		<g id="XMLID_32_">
			<path id="XMLID_33_" class="st5" d="M1236.4,243.9v50.7c0,9.2-7.4,16.6-16.6,16.6h-181.6c-9.2,0-16.6-7.4-16.6-16.6v-42.8
				L998.9,228l220.8-0.7C1228.9,227.2,1236.4,234.7,1236.4,243.9z"/>
			<g id="XMLID_34_">
				<polygon id="XMLID_206_" class="st6" points="1048.3,258 1213.1,257.2 1213.1,252.1 1048.3,252.9 				"/>
			</g>
			<g id="XMLID_35_">
				<polygon id="XMLID_204_" class="st6" points="1048.3,274.6 1213.1,273.9 1213.1,268.8 1048.3,269.6 				"/>
			</g>
			<g id="XMLID_36_">
				<polygon id="XMLID_202_" class="st6" points="1048.3,290.9 1113.5,290.5 1113.5,285.5 1048.3,285.8 				"/>
			</g>
		</g>
		<g id="XMLID_37_">
			<path id="XMLID_38_" class="st7" d="M1848.2,702.9c0,0.2-191.3,0.4-427.2,0.4c-236,0-427.2-0.2-427.2-0.4
				c0-0.2,191.2-0.4,427.2-0.4C1656.9,702.5,1848.2,702.7,1848.2,702.9z"/>
		</g>
		<g id="XMLID_39_">
			<g id="XMLID_40_">
				<g id="XMLID_41_">
					<g id="XMLID_42_">
						<path id="XMLID_315_" class="st7" d="M1696.5,331.8v359.6c0,6.4-5.2,11.5-11.5,11.5h-526c-6.4,0-11.5-5.2-11.5-11.5V331.8
							c0-6.4,5.2-11.5,11.5-11.5h526C1691.3,320.2,1696.5,325.4,1696.5,331.8z"/>
					</g>
					<g id="XMLID_43_">
						<rect id="XMLID_313_" x="1184.9" y="332.3" class="st8" width="458.6" height="358.5"/>
					</g>
					<g id="XMLID_44_">
						<circle id="XMLID_311_" class="st9" cx="1668.9" cy="511.5" r="14.7"/>
					</g>
					<g id="XMLID_45_">
						<path id="XMLID_309_" class="st9" d="M1169.2,455.1V568c0,0.7-0.5,1.2-1.2,1.2h-3.6c-0.7,0-1.2-0.5-1.2-1.2V455.1
							c0-0.7,0.5-1.2,1.2-1.2h3.6C1168.7,453.9,1169.2,454.5,1169.2,455.1z"/>
					</g>
				</g>
			</g>
			<g id="XMLID_46_">
				<circle id="XMLID_305_" class="st10" cx="1284.1" cy="522.3" r="37.1"/>
				<circle id="XMLID_304_" class="st11" cx="1284.1" cy="522.3" r="37.1"/>
				<g id="XMLID_47_">
					
						<ellipse id="XMLID_303_" transform="matrix(-8.221515e-002 -0.9966 0.9966 -8.221515e-002 861.2255 1826.417)" class="st7" cx="1271.6" cy="516.7" rx="3.7" ry="2.6"/>
				</g>
				<g id="XMLID_48_">
					
						<ellipse id="XMLID_301_" transform="matrix(4.095137e-002 -0.9992 0.9992 4.095137e-002 725.9241 1788.6464)" class="st7" cx="1294.7" cy="516.2" rx="3.7" ry="2.6"/>
				</g>
				<g id="XMLID_49_">
					<ellipse id="XMLID_50_" class="st7" cx="1283.5" cy="529.7" rx="15.4" ry="0.8"/>
				</g>
				<g id="XMLID_51_">
					<path id="XMLID_52_" class="st7" d="M1274.1,508.7c-0.1,0.4-1.8,0.4-3.9,0.8c-2.1,0.3-3.7,0.9-4,0.5c-0.2-0.4,1.3-1.7,3.7-2
						C1272.4,507.6,1274.2,508.3,1274.1,508.7z"/>
				</g>
				<g id="XMLID_53_">
					<path id="XMLID_54_" class="st7" d="M1301.5,510.5c-0.3,0.4-1.9-0.5-3.9-1.1c-2-0.6-3.8-0.8-3.9-1.3c-0.1-0.4,2-0.9,4.3-0.2
						C1300.4,508.6,1301.8,510.2,1301.5,510.5z"/>
				</g>
			</g>
			<g id="XMLID_55_">
				<circle id="XMLID_292_" class="st10" cx="1552.3" cy="519.2" r="38.4"/>
				<circle id="XMLID_291_" class="st11" cx="1552.3" cy="519.2" r="38.4"/>
				<g id="XMLID_56_">
					
						<ellipse id="XMLID_290_" transform="matrix(-8.223242e-002 -0.9966 0.9966 -8.223242e-002 1154.2933 2089.7253)" class="st7" cx="1539.3" cy="513.4" rx="3.8" ry="2.6"/>
				</g>
				<g id="XMLID_57_">
					
						<ellipse id="XMLID_288_" transform="matrix(4.094621e-002 -0.9992 0.9992 4.094621e-002 986.8287 2053.863)" class="st7" cx="1563.3" cy="512.9" rx="3.8" ry="2.6"/>
				</g>
				<g id="XMLID_58_">
					<path id="XMLID_59_" class="st7" d="M1567.6,526.9c-0.2,0.2-1.8-0.9-4.5-2.3c-2.7-1.4-6.8-2.9-11.4-2.8
						c-4.6,0.1-8.7,1.7-11.5,3c-2.8,1.4-4.4,2.4-4.6,2.2c-0.1-0.1,1.3-1.5,4.1-3.2c2.7-1.6,6.9-3.5,12-3.6c5-0.1,9.3,1.7,12,3.4
						C1566.4,525.3,1567.7,526.7,1567.6,526.9z"/>
				</g>
				<g id="XMLID_60_">
					<path id="XMLID_61_" class="st7" d="M1542,505.2c0.1,0.2-0.1,0.6-0.8,1.2c-0.6,0.6-1.7,1.2-3,1.4c-1.3,0.2-2.6,0-3.3-0.4
						c-0.8-0.4-1.1-0.8-1.1-1c0.2-0.4,2,0.2,4.1-0.2C1540,505.8,1541.7,504.8,1542,505.2z"/>
				</g>
				<g id="XMLID_62_">
					<path id="XMLID_63_" class="st7" d="M1570.4,507c0.1,0.2-0.4,0.6-1.2,0.8c-0.8,0.3-2.1,0.3-3.5-0.1c-1.3-0.5-2.3-1.2-2.8-1.9
						c-0.6-0.7-0.8-1.2-0.6-1.3c0.3-0.3,1.9,1,4,1.7C1568.3,507,1570.2,506.6,1570.4,507z"/>
				</g>
			</g>
			<g id="XMLID_64_">
				<g id="XMLID_65_">
					<polygon id="XMLID_279_" class="st11" points="1478.7,625.8 1487.6,621.4 1496.3,626.3 1494.8,616.4 1502.1,609.7 1492.3,608 
						1488.1,599 1483.5,607.8 1473.7,609 1480.6,616.1 					"/>
				</g>
				<g id="XMLID_66_">
					<polygon id="XMLID_277_" class="st11" points="1442.4,625.8 1451.3,621.4 1460,626.3 1458.5,616.4 1465.8,609.7 1456,608 
						1451.8,599 1447.2,607.8 1437.4,609 1444.3,616.1 					"/>
				</g>
				<g id="XMLID_67_">
					<polygon id="XMLID_275_" class="st11" points="1406.1,625.8 1415,621.4 1423.7,626.3 1422.2,616.4 1429.5,609.7 1419.7,608 
						1415.5,599 1410.9,607.8 1401.1,609 1408,616.1 					"/>
				</g>
				<g id="XMLID_68_">
					<polygon id="XMLID_273_" class="st11" points="1369.8,625.8 1378.7,621.4 1387.4,626.3 1385.9,616.4 1393.2,609.7 1383.4,608 
						1379.2,599 1374.6,607.8 1364.8,609 1371.7,616.1 					"/>
				</g>
				<g id="XMLID_69_">
					<polygon id="XMLID_271_" class="st11" points="1333.5,625.8 1342.4,621.4 1351.1,626.3 1349.6,616.4 1356.9,609.7 1347.1,608 
						1342.9,599 1338.3,607.8 1328.5,609 1335.4,616.1 					"/>
				</g>
			</g>
			<g id="XMLID_70_">
				<path id="XMLID_71_" class="st7" d="M1502.5,407.4c0,0.2-39.8,0.4-88.9,0.4c-49.1,0-88.9-0.2-88.9-0.4s39.8-0.4,88.9-0.4
					C1462.7,407,1502.5,407.2,1502.5,407.4z"/>
			</g>
			<g id="XMLID_72_">
				<path id="XMLID_73_" class="st7" d="M1458.8,396.7c0,0.2-19.7,0.4-43.9,0.4c-24.3,0-43.9-0.2-43.9-0.4c0-0.2,19.7-0.4,43.9-0.4
					C1439.1,396.3,1458.8,396.5,1458.8,396.7z"/>
			</g>
			<g id="XMLID_74_">
				<g id="XMLID_75_">
					<g id="XMLID_76_">
						<circle id="XMLID_264_" class="st11" cx="1421.2" cy="510.4" r="50.6"/>
						<g id="XMLID_77_">
							
								<ellipse id="XMLID_263_" transform="matrix(-8.222429e-002 -0.9966 0.9966 -8.222429e-002 1018.6119 1943.3696)" class="st7" cx="1404.1" cy="502.7" rx="5" ry="3.5"/>
						</g>
						<g id="XMLID_78_">
							
								<ellipse id="XMLID_261_" transform="matrix(4.094790e-002 -0.9992 0.9992 4.094790e-002 875.2839 1915.9255)" class="st7" cx="1435.7" cy="502" rx="5" ry="3.5"/>
						</g>
						<g id="XMLID_79_">
							<path id="XMLID_80_" class="st7" d="M1441.4,513.6c0.1,0.1-0.3,0.6-1.1,1.5c-0.8,0.9-2.1,2.1-3.8,3.4
								c-1.8,1.2-3.9,2.7-6.7,3.7c-2.7,1-5.9,1.6-9.3,1.5c-3.4-0.1-6.5-1-9.1-2.1c-2.7-1-4.9-2.4-6.7-3.5c-3.6-2.4-5.5-4.3-5.4-4.4
								c0.2-0.2,2.3,1.3,6,3.4c1.9,1,4.1,2.2,6.7,3.1c2.6,0.9,5.5,1.8,8.7,1.9c3.1,0.2,6.1-0.4,8.7-1.2c2.6-0.8,4.7-2.1,6.5-3.2
								c1.7-1.2,3.1-2.2,4-3C1440.8,513.9,1441.3,513.5,1441.4,513.6z"/>
						</g>
						<g id="XMLID_81_">
							<path id="XMLID_82_" class="st7" d="M1406,486.3c-0.1,0.4-2.5,0.3-5.4,0.8c-2.9,0.4-5.1,1.3-5.4,0.9c-0.2-0.4,1.9-2,5.1-2.5
								C1403.6,485,1406.1,485.9,1406,486.3z"/>
						</g>
						<g id="XMLID_83_">
							<path id="XMLID_84_" class="st7" d="M1446.7,488.6c-0.3,0.4-2.4-0.9-5.3-1.8c-2.9-0.9-5.3-1-5.4-1.5c-0.1-0.4,2.7-1,5.8,0
								C1445.1,486.3,1447,488.3,1446.7,488.6z"/>
						</g>
					</g>
					<g id="XMLID_85_">
						<path id="XMLID_86_" class="st7" d="M1400.1,510c0.2,0,0.5,0.5,0.6,1.4c0.1,0.9-0.3,2.3-1.1,3.5c-0.9,1.2-2,1.9-2.9,2.2
							c-0.9,0.3-1.5,0.1-1.6-0.1c-0.1-0.4,1.9-1.1,3.2-3C1399.7,512.1,1399.7,510,1400.1,510z"/>
					</g>
					<g id="XMLID_87_">
						<path id="XMLID_88_" class="st7" d="M1445.7,514.6c0,0.2-0.4,0.5-1.2,0.6c-0.8,0.1-1.9-0.2-2.9-0.9c-1-0.7-1.5-1.7-1.7-2.5
							c-0.2-0.8,0-1.3,0.2-1.3c0.4,0,0.9,1.5,2.4,2.5C1444,514.1,1445.6,514.2,1445.7,514.6z"/>
					</g>
				</g>
				<g id="XMLID_89_">
					<path id="XMLID_90_" class="st11" d="M1483,510c0,0,0-0.3-0.1-1c0-0.7-0.1-1.7-0.2-3c0-0.7-0.1-1.4-0.1-2.2
						c-0.1-0.8-0.3-1.7-0.4-2.6c-0.2-0.9-0.3-2-0.5-3.1c-0.1-1.1-0.5-2.2-0.8-3.4c-1.1-4.9-3.4-10.6-7-16.7
						c-3.6-6.1-8.8-12.4-15.9-17.8c-0.9-0.7-1.8-1.3-2.7-2c-1-0.6-2-1.2-2.9-1.8c-1-0.6-2-1.3-3.1-1.8c-1.1-0.5-2.2-1-3.2-1.6
						c-0.5-0.3-1.1-0.5-1.7-0.8c-0.6-0.2-1.2-0.4-1.7-0.6c-1.2-0.4-2.3-0.9-3.5-1.3c-1.2-0.4-2.4-0.6-3.7-1
						c-1.3-0.3-2.5-0.7-3.8-0.9c-2.6-0.4-5.2-0.9-7.9-0.9c-1.3,0-2.7-0.2-4.1-0.2c-1.4,0.1-2.7,0.1-4.1,0.2c-0.7,0-1.4,0-2.1,0.1
						l-2.1,0.3c-1.4,0.2-2.8,0.4-4.2,0.7c-2.8,0.8-5.6,1.3-8.3,2.4c-2.8,0.9-5.4,2.3-8.1,3.6c-1.3,0.7-2.6,1.5-3.9,2.3
						c-0.6,0.4-1.3,0.8-1.9,1.2l-1.8,1.4c-2.5,1.7-4.8,3.9-7.1,6c-1.1,1.2-2.1,2.3-3.2,3.5l-0.8,0.9l-0.7,0.9l-1.4,1.9l-1.4,1.9
						l-1.3,2.1l-1.3,2.1l-0.6,1l-0.5,1.1c-0.7,1.5-1.4,2.9-2.1,4.4c-0.6,1.5-1.1,3.1-1.7,4.6c-2,6.3-3.1,12.9-3.2,19.7
						c0.1,6.8,1.2,13.4,3.2,19.7c0.6,1.5,1.1,3.1,1.7,4.6c0.7,1.5,1.4,2.9,2.1,4.4l0.5,1.1l0.6,1l1.3,2.1l1.3,2.1l1.4,1.9l1.4,1.9
						l0.7,1l0.8,0.9c1.1,1.2,2.1,2.3,3.2,3.5c2.3,2.1,4.5,4.3,7.1,6l1.8,1.4c0.6,0.5,1.3,0.8,1.9,1.2c1.3,0.8,2.6,1.6,3.9,2.3
						c2.7,1.3,5.3,2.7,8.1,3.6c2.7,1.1,5.6,1.7,8.3,2.4c1.4,0.3,2.8,0.5,4.2,0.7l2.1,0.3c0.7,0.1,1.4,0.1,2.1,0.1
						c1.4,0.1,2.8,0.1,4.1,0.2c1.4,0,2.7-0.1,4.1-0.2c2.7,0,5.3-0.5,7.9-0.9c1.3-0.1,2.5-0.6,3.8-0.9c1.2-0.3,2.5-0.6,3.7-1
						c1.2-0.4,2.4-0.9,3.5-1.3c0.6-0.2,1.2-0.4,1.7-0.6c0.6-0.3,1.1-0.5,1.7-0.8c1.1-0.5,2.2-1,3.2-1.6c1.1-0.5,2-1.2,3.1-1.8
						c1-0.6,2-1.2,2.9-1.8c0.9-0.7,1.8-1.4,2.7-2c7.1-5.4,12.3-11.7,15.9-17.8c3.6-6.1,5.9-11.8,7-16.7c0.3-1.2,0.7-2.3,0.8-3.4
						c0.2-1.1,0.3-2.1,0.5-3.1c0.1-0.9,0.3-1.8,0.4-2.6c0-0.8,0.1-1.5,0.1-2.2c0.1-1.3,0.1-2.3,0.2-3C1483,510.3,1483,510,1483,510
						s0,0.3,0,1c0,0.7-0.1,1.7-0.1,3c0,0.7-0.1,1.4-0.1,2.2c-0.1,0.8-0.2,1.7-0.4,2.6c-0.1,1-0.3,2-0.5,3.1
						c-0.1,1.1-0.5,2.2-0.8,3.4c-1.1,4.9-3.3,10.7-6.9,16.8c-3.6,6.1-8.8,12.5-16,18c-0.9,0.7-1.8,1.4-2.7,2c-1,0.6-2,1.2-3,1.8
						c-1,0.6-2,1.3-3.1,1.8c-1.1,0.5-2.2,1.1-3.3,1.6c-0.6,0.3-1.1,0.5-1.7,0.8c-0.6,0.2-1.2,0.4-1.7,0.6c-1.2,0.4-2.4,0.9-3.6,1.3
						c-1.2,0.4-2.5,0.7-3.7,1c-1.3,0.3-2.5,0.7-3.8,0.9c-2.6,0.4-5.3,0.9-8,0.9c-1.4,0.1-2.7,0.2-4.1,0.2c-1.4-0.1-2.8-0.1-4.2-0.2
						c-0.7,0-1.4,0-2.1-0.1l-2.1-0.3c-1.4-0.2-2.8-0.4-4.3-0.7c-2.8-0.8-5.7-1.3-8.4-2.5c-2.8-0.9-5.5-2.3-8.3-3.6
						c-1.3-0.7-2.6-1.6-3.9-2.3c-0.6-0.4-1.3-0.8-2-1.2l-1.9-1.4c-2.6-1.8-4.8-4-7.2-6.1c-1.1-1.2-2.1-2.4-3.2-3.5l-0.8-0.9l-0.7-1
						l-1.4-1.9l-1.5-1.9l-1.3-2.1l-1.3-2.1l-0.6-1.1l-0.5-1.1c-0.7-1.5-1.4-3-2.1-4.5c-0.6-1.6-1.1-3.1-1.7-4.7
						c-2.1-6.3-3.2-13.1-3.3-20c0.1-6.9,1.2-13.6,3.3-20c0.6-1.6,1.1-3.1,1.7-4.7c0.7-1.5,1.4-3,2.1-4.5l0.5-1.1l0.6-1.1l1.3-2.1
						l1.3-2.1l1.5-1.9l1.4-1.9l0.7-1l0.8-0.9c1.1-1.2,2.2-2.4,3.2-3.5c2.4-2.1,4.6-4.3,7.2-6.1l1.9-1.4c0.6-0.5,1.3-0.8,2-1.2
						c1.3-0.8,2.6-1.6,3.9-2.3c2.7-1.3,5.4-2.7,8.2-3.6c2.8-1.1,5.6-1.7,8.4-2.5c1.4-0.3,2.8-0.5,4.3-0.7l2.1-0.3
						c0.7-0.1,1.4-0.1,2.1-0.1c1.4-0.1,2.8-0.1,4.2-0.2c1.4,0,2.8,0.1,4.1,0.2c2.7,0,5.4,0.6,8,0.9c1.3,0.1,2.6,0.6,3.8,0.9
						c1.2,0.3,2.5,0.6,3.7,1c1.2,0.4,2.4,0.9,3.6,1.3c0.6,0.2,1.2,0.4,1.7,0.6c0.6,0.3,1.1,0.5,1.7,0.8c1.1,0.5,2.2,1.1,3.3,1.6
						c1.1,0.5,2.1,1.2,3.1,1.8c1,0.6,2,1.2,3,1.8c0.9,0.7,1.8,1.4,2.7,2c7.1,5.4,12.4,11.9,16,18c3.6,6.1,5.8,11.9,6.9,16.8
						c0.3,1.2,0.7,2.3,0.8,3.5c0.2,1.1,0.3,2.1,0.5,3.1c0.1,1,0.3,1.8,0.4,2.6c0,0.8,0.1,1.5,0.1,2.2c0,1.3,0.1,2.3,0.1,3
						C1483,509.6,1483,510,1483,510z"/>
				</g>
			</g>
			<rect id="XMLID_91_" x="1184.9" y="332.3" class="st3" width="458.6" height="22.9"/>
			<circle id="XMLID_92_" class="st8" cx="1196.6" cy="343.1" r="3.1"/>
			<circle id="XMLID_93_" class="st8" cx="1206.9" cy="343.1" r="3.1"/>
			<circle id="XMLID_94_" class="st8" cx="1217.2" cy="343.1" r="3.1"/>
			<g id="XMLID_95_">
				<path id="XMLID_96_" class="st3" d="M1593,425.4c0,0.2-79.6,0.4-177.7,0.4c-98.2,0-177.7-0.2-177.7-0.4s79.6-0.4,177.7-0.4
					C1513.4,425,1593,425.2,1593,425.4z"/>
			</g>
			<g id="XMLID_98_">
				<path id="XMLID_99_" class="st3" d="M1593,434.2c0,0.2-79.6,0.4-177.7,0.4c-98.2,0-177.7-0.2-177.7-0.4s79.6-0.4,177.7-0.4
					C1513.4,433.8,1593,434,1593,434.2z"/>
			</g>
		</g>
		<g id="XMLID_100_">
			<g id="XMLID_101_">
				<g id="XMLID_102_">
					<g id="XMLID_103_">
						<path id="XMLID_178_" class="st12" d="M1359.7,322.6c0,0-3.1-7.1-3.7-8.7c-1.6-4.3-11.9-32.8-9.4-37.1
							c11.4-20,20.2-34.2,42.6-34.2l39.6-0.3c0,0,37.5-7.6,64,77.7L1359.7,322.6z"/>
						<path id="XMLID_104_" class="st12" d="M1276.1,329.8l51.9-11.2l61-32.1l0.2-43.8c-9.2-2.5-26.7,3.8-58.2,19.9l-46.8,24.2
							C1268.2,295.1,1264.2,316.2,1276.1,329.8L1276.1,329.8z"/>
					</g>
					<g id="XMLID_105_">
						<g id="XMLID_106_">
							<g id="XMLID_107_">
								<path id="XMLID_379_" class="st13" d="M1392.9,414.5c-0.7-2.5-0.2-4,3.3-2.8c7.9,2.7,15,1.8,16.7,0.3
									c1.7-1.5,0.1-4.5-2.4-4.2c-2.1,0.2-5.7-0.5-8.3-1.2c-2.2-0.5-4.3-1.4-6.2-2.6c-1.7-1.1-3.1-2-4.3-2.9c0,0-7.3-5.3-9.6-9.5
									l-25,10.7l4,12.5c0,0,1.3,7.4,8.5,9.7c7.2,2.3,18.5,1.5,18.5,1.5c2.1-1.4,10.1,10.3,12.6,14.4c2.4,4.1,5.3,4.6,6.3,2.1
									c0.6-1.7-6.5-14.5-9-18.5C1396.6,421.7,1393.8,417.5,1392.9,414.5"/>
							</g>
							<g id="XMLID_108_">
								<path id="XMLID_109_" class="st14" d="M1376,426c0,0.1-0.6,0.1-1.5-0.4c-0.8-0.4-1.9-1.3-2.6-2.6c-0.7-1.3-0.9-2.6-0.8-3.6
									c0.1-0.9,0.4-1.5,0.5-1.4c0.2,0-0.3,2.3,1,4.6C1373.8,425,1376,425.8,1376,426z"/>
							</g>
							<g id="XMLID_110_">
								<path id="XMLID_111_" class="st14" d="M1383.9,426.3c0,0.1-0.6,0-1.4-0.4c-0.8-0.4-1.8-1.3-2.4-2.5
									c-0.7-1.2-0.8-2.5-0.8-3.4c0.1-0.9,0.3-1.4,0.4-1.4c0.2,0-0.2,2.2,1,4.4C1381.9,425.2,1384,426.1,1383.9,426.3z"/>
							</g>
						</g>
						<g id="XMLID_112_">
							<path id="XMLID_372_" class="st12" d="M1274.7,328.1c0,0,79.5,91.4,79.4,89.8c-0.1-1.5,35.6-28.2,35.6-28.2l-77.9-92.8
								L1274.7,328.1z"/>
							<g id="XMLID_113_">
								<path id="XMLID_114_" class="st7" d="M1322.9,310.1c0,0,0.2,0.2,0.6,0.5c0.4,0.4,0.9,1,1.5,1.7c1.3,1.5,3.1,3.6,5.3,6.2
									c4.5,5.2,10.6,12.5,17.4,20.5c6.8,8.1,12.8,15.4,17.2,20.7c2.1,2.6,3.9,4.7,5.2,6.3c0.5,0.7,1,1.3,1.4,1.7
									c0.3,0.4,0.5,0.6,0.4,0.6s-0.2-0.2-0.6-0.5c-0.4-0.4-0.9-1-1.5-1.7c-1.3-1.5-3.1-3.6-5.3-6.2c-4.5-5.2-10.6-12.5-17.4-20.5
									c-6.8-8.1-12.8-15.4-17.2-20.7c-2.1-2.6-3.9-4.7-5.2-6.3c-0.5-0.7-1-1.3-1.4-1.7C1323,310.4,1322.9,310.2,1322.9,310.1z"/>
							</g>
						</g>
					</g>
					<g id="XMLID_115_">
						<path id="XMLID_116_" class="st7" d="M1463.5,320.7c-0.2,0,0.9-2.2,1-5.9c0-1.8-0.2-4-1-6.3c-0.8-2.3-2.2-4.5-4.2-6.5
							c-1.9-2-4-3.8-5.7-5.6c-1.7-1.8-2.9-3.8-3.6-5.6c-0.7-1.8-0.8-3.4-0.6-4.4c0.1-1.1,0.4-1.6,0.4-1.6c0.2,0-0.7,2.4,0.8,5.8
							c0.7,1.7,1.9,3.5,3.6,5.3c1.7,1.8,3.7,3.5,5.7,5.6c2,2,3.5,4.5,4.3,6.8c0.8,2.4,1,4.7,0.9,6.5c-0.1,1.9-0.5,3.4-0.8,4.4
							C1463.8,320.2,1463.5,320.7,1463.5,320.7z"/>
					</g>
					<g id="XMLID_117_">
						<path id="XMLID_118_" class="st7" d="M1356.3,250.4c0,0,0.4-0.2,1.2-0.5c0.8-0.3,1.9-0.8,3.4-1.3c1.5-0.5,3.4-0.9,5.7-1.2
							c2.3-0.2,4.9-0.2,7.7,0.7c2.8,0.8,5.5,2.5,7.8,5c2.3,2.5,3.9,5.9,4.7,9.6c0.8,3.7,1.2,7.7,0.8,11.8c-0.5,4.1-1.8,8.3-4.4,11.9
							c-2.6,3.6-6,6.3-9.5,8.4c-3.5,2.2-7,4-10.3,5.7c-6.6,3.5-12.6,6.6-17.7,9.3c-5,2.6-9,4.7-11.9,6.2c-1.4,0.7-2.5,1.2-3.3,1.6
							c-0.7,0.4-1.1,0.6-1.2,0.5c0,0,0.4-0.3,1.1-0.7c0.8-0.4,1.9-1,3.2-1.8c2.9-1.5,6.9-3.7,11.8-6.4c5-2.7,11-5.9,17.6-9.4
							c3.3-1.8,6.8-3.6,10.2-5.8c3.4-2.2,6.8-4.8,9.3-8.2c2.5-3.5,3.8-7.6,4.3-11.5c0.5-4,0.1-7.9-0.7-11.6
							c-0.8-3.6-2.3-6.9-4.5-9.3c-2.2-2.4-4.9-4.1-7.5-5c-2.7-0.9-5.2-1-7.5-0.8c-2.2,0.2-4.1,0.6-5.6,1c-1.5,0.4-2.7,0.8-3.5,1.1
							C1356.7,250.3,1356.3,250.4,1356.3,250.4z"/>
					</g>
					<g id="XMLID_119_">
						<path id="XMLID_120_" class="st7" d="M1331.6,318.5c-0.3,0.1-0.9-5.2-4.4-10.6c-3.4-5.4-8-8.2-7.9-8.4c0-0.1,1.2,0.5,2.9,1.8
							c1.7,1.3,3.8,3.4,5.6,6.1c1.8,2.7,2.8,5.5,3.3,7.6C1331.7,317.2,1331.7,318.5,1331.6,318.5z"/>
					</g>
					<g id="XMLID_121_">
						<path id="XMLID_122_" class="st6" d="M1448.5,308.6c0,0-0.6,0.2-1.7,0.5c-1.1,0.2-2.8,0.4-5,0.2c-2.2-0.2-4.8-0.9-7.5-2.5
							c-2.7-1.6-5.3-4.2-7-7.8c-1.6-3.6-2.3-8.1-1-12.6c0.7-2.2,2-4.4,4.2-5.8c1.1-0.7,2.5-1,3.8-0.8c1.3,0.2,2.5,1.1,3.3,2.2
							c3,4.4,3.5,10.4,1.8,15.8c-0.9,2.7-2.4,5.3-4.5,7.4c-2.1,2.1-4.8,3.6-7.7,4.4c-5.8,1.6-12.3,0.2-16.5-3.8
							c-4.2-4-5.8-9.9-5-15.1c0.4-2.6,1.5-5,3-7c0.8-1,1.8-1.8,3-2.3c1.2-0.5,2.5-0.4,3.6,0c2.2,1,3.6,3.2,3.9,5.4
							c0.3,2.2-0.4,4.3-1.2,6.1c-1.7,3.5-4,6.3-6.3,8.4c-2.3,2.1-4.5,3.6-6.5,4.6c-1.9,1-3.5,1.6-4.6,1.9c-0.5,0.2-1,0.3-1.3,0.3
							c-0.3,0.1-0.4,0.1-0.4,0.1c0,0,0.1-0.1,0.4-0.2c0.3-0.1,0.7-0.2,1.2-0.4c1.1-0.4,2.6-1,4.5-2.1c1.9-1,4.1-2.5,6.3-4.6
							c2.2-2.1,4.4-4.9,6.1-8.3c0.8-1.7,1.4-3.7,1.1-5.8c-0.2-2-1.5-4-3.5-4.9c-1-0.4-2.1-0.4-3.1,0c-1,0.4-1.9,1.2-2.7,2.1
							c-1.4,1.9-2.5,4.2-2.8,6.6c-0.8,4.9,0.8,10.6,4.8,14.4c4,3.8,10.2,5.1,15.8,3.6c2.8-0.7,5.4-2.2,7.4-4.2c2-2,3.4-4.5,4.3-7
							c0.8-2.6,1.2-5.3,0.9-8c-0.1-1.3-0.4-2.6-0.8-3.8c-0.4-1.2-0.9-2.4-1.7-3.4c-0.7-1-1.7-1.7-2.9-1.9c-1.1-0.2-2.3,0.1-3.3,0.7
							c-2,1.2-3.3,3.3-3.9,5.4c-1.3,4.3-0.7,8.7,0.8,12.2c1.5,3.5,4.1,6.1,6.7,7.7c2.6,1.6,5.2,2.3,7.3,2.5
							C1446.1,309.4,1448.5,308.4,1448.5,308.6z"/>
					</g>
					<g id="XMLID_123_">
						<g id="XMLID_124_">
							<path id="XMLID_125_" class="st14" d="M1454.4,219.6c-1.7-2-2.9-4.5-3.5-7c-0.2-0.8-0.4-1.7-0.1-2.6c0.3-0.8,1-1.6,1.9-1.5
								c0.9,0.1,1.5,0.9,2,1.7c1.4,2.2,2.7,4.5,3.7,6.9c0.3,0.7,0.5,1.4,0.4,2.1c0,0.7-0.4,1.5-1,1.8c-0.7,0.4-1.6,0.2-2.2-0.3
								c-0.6-0.5-1.1-1.1-1.5-1.8"/>
							<path id="XMLID_126_" class="st14" d="M1458.3,218c-1.3-2.7-2.6-5.5-3.9-8.2c-0.4-0.8-0.8-1.7-0.8-2.6c0-0.9,0.4-1.9,1.3-2.2
								c0.7-0.3,1.6,0,2.2,0.6c0.6,0.5,1,1.2,1.3,1.9c0.6,1.2,1.2,2.4,1.9,3.6c0.5,1,1,2,1.2,3.1c0.2,1.1,0.1,2.3-0.6,3.1
								s-2,1.3-2.9,0.7"/>
							<path id="XMLID_127_" class="st13" d="M1440.8,243.4c0,0-5.5-7.1-5.9-10.8c-0.5-3.7,4.1-10.3,13.9-11.8
								c5.3-0.8,8.3-2.3,10.1-3.5c1.2-0.9,1.7-2.4,1.1-3.8c-1.3-3.1-3.6-8.9-3.4-9.7c0.5-2,1.8-2,5.2,3c3.4,5,7.3,10,6.5,12.3
								c-0.8,2.3-12.7,9.4-12.7,9.4l3.3,5.3L1440.8,243.4z"/>
						</g>
						<path id="XMLID_128_" class="st12" d="M1473.3,316.1l-37.6-73.7l24.2-13.6l50.9,80.7c0,0,2.7,5.2,6.4,11.2h-42.7"/>
					</g>
				</g>
				<g id="XMLID_129_">
					<path id="XMLID_130_" class="st7" d="M1459.5,228.8c0,0-0.1,0.1-0.4,0.3c-0.3,0.2-0.8,0.5-1.3,0.8c-1.2,0.7-2.8,1.6-4.9,2.8
						c-4.3,2.4-10.3,5.9-17.5,10l0.1-0.4c3.7,7.5,8.4,16.1,13.2,25.5c7.1,13.9,13.3,26.6,17.6,35.8c2.2,4.6,3.9,8.4,5.1,11
						c0.5,1.3,1,2.3,1.3,3c0.3,0.7,0.4,1.1,0.4,1.1c0,0-0.2-0.3-0.6-1c-0.4-0.7-0.9-1.7-1.5-3c-1.3-2.6-3.1-6.3-5.3-10.9
						c-4.5-9.2-10.7-21.8-17.8-35.7c-4.8-9.4-9.5-18-13.1-25.5l-0.1-0.3l0.3-0.2c7.2-4,13.3-7.3,17.6-9.7c2.1-1.1,3.7-2,5-2.7
						c0.5-0.3,1-0.5,1.3-0.7C1459.3,228.9,1459.5,228.8,1459.5,228.8z"/>
				</g>
				<g id="XMLID_131_">
					<path id="XMLID_132_" class="st7" d="M1359.7,322.6c-0.2,0.1-2.3-3.5-4-8.3c-1.8-4.8-2.4-8.9-2.2-9c0.2-0.1,1.3,3.9,3,8.7
						C1358.2,318.8,1360,322.5,1359.7,322.6z"/>
				</g>
			</g>
			<g id="XMLID_133_">
				<path id="XMLID_134_" class="st7" d="M1442.6,214c5.9,2.3,13.3,0.3,17.2-4.7c3.9-5,4.1-12.6,0.4-17.8
					c8.5-2.1,13.8-11.9,12.1-20.5c-1.7-8.6-9.4-15.3-18-17.2c-3.3-0.7-6.7-0.8-9.9,0.3c-3.2,1-6.1,3.3-7.4,6.4"/>
				<g id="XMLID_135_">
					<path id="XMLID_136_" class="st10" d="M1441.4,194.8c0,0.1-1.1,0.3-2.9,1.2c-1.8,0.9-4.2,2.8-5.7,6.1c-0.7,1.6-1.2,3.6-1.1,5.7
						c0.1,2.1,0.7,4.3,2,6.3c0.6,1,1.4,1.9,2.4,2.7c0.9,0.8,2,1.5,3.2,2c2.3,1,5.1,1.3,7.7,0.7c2.6-0.6,5-2.1,6.6-4
						c0.8-1,1.5-2,2-3.2c0.5-1.1,0.8-2.3,1-3.5c0.3-2.3-0.1-4.6-0.9-6.5c-0.8-1.9-2.1-3.5-3.4-4.6c-2.8-2.3-5.8-3-7.8-3
						C1442.5,194.6,1441.4,194.9,1441.4,194.8c0,0,0.3-0.1,0.8-0.2c0.5-0.1,1.3-0.2,2.4-0.2c2,0,5.2,0.5,8.1,2.9
						c1.4,1.2,2.8,2.8,3.7,4.8c0.9,2,1.4,4.4,1,6.9c-0.1,1.2-0.5,2.5-1,3.7c-0.5,1.2-1.2,2.3-2.1,3.4c-1.7,2.1-4.3,3.6-7.1,4.3
						c-2.8,0.6-5.7,0.3-8.2-0.8c-1.2-0.5-2.4-1.3-3.4-2.1c-1-0.8-1.8-1.8-2.5-2.9c-1.4-2.1-2-4.5-2.1-6.6c-0.1-2.2,0.4-4.2,1.2-5.9
						c1.6-3.4,4.2-5.3,6-6.2c0.9-0.4,1.7-0.7,2.2-0.8C1441.1,194.8,1441.4,194.8,1441.4,194.8z"/>
				</g>
				<path id="XMLID_137_" class="st7" d="M1447.8,171.4c6.1-0.3,11.8-5,13.3-11c1.5-6-1.2-12.7-6.4-16c2.5-7.1,0-15.7-5.9-20.3
					s-14.9-5-21.1-0.9c-4.8-8.4-15.1-13.4-24.7-11.8c-9.6,1.5-17.8,9.4-19.7,18.9c-8.6-3.6-19.3-1.3-25.7,5.5
					c-6.4,6.8-8.1,17.6-4.1,26c-9.4,0.8-17.2,10.1-16.4,19.4s10,17.2,19.4,16.4c-1.9,6.2,0.5,13.5,5.7,17.4c5.2,3.9,12.9,4,18.3,0.4
					c3.4,5.6,10.2,8.9,16.7,8.1c6.5-0.7,12.4-5.5,14.5-11.7"/>
				<g id="XMLID_138_">
					<g id="XMLID_139_">
						<g id="XMLID_140_">
							<path id="XMLID_343_" class="st13" d="M1430,241c0.3-7.2,0.7-13.8,0.7-13.8s16.1-2,16.8-18.5c0.7-16.5-0.9-54.4-0.9-54.4
								l-29.7-14.3l-32,25.7l5,75.6c0.7,10.9,10,19.2,20.9,18.7l0,0C1421.2,259.7,1429.5,251.3,1430,241z"/>
						</g>
						<g id="XMLID_141_">
							<g id="XMLID_142_">
								<g id="XMLID_143_">
									<path id="XMLID_341_" class="st7" d="M1445.8,182.5c-0.3,0.3-1.8-1-4-1.1c-2.2-0.1-3.9,1-4.1,0.7c-0.1-0.1,0.2-0.6,0.9-1.2
										c0.7-0.5,1.9-1,3.3-0.9c1.4,0.1,2.5,0.7,3.2,1.2C1445.7,181.9,1445.9,182.4,1445.8,182.5z"/>
								</g>
							</g>
						</g>
						<g id="XMLID_144_">
							<g id="XMLID_145_">
								<g id="XMLID_146_">
									<path id="XMLID_337_" class="st7" d="M1421.3,182.5c-0.3,0.3-1.8-1-4-1.1c-2.2-0.1-3.9,1-4.1,0.7c-0.1-0.1,0.1-0.6,0.9-1.2
										c0.7-0.5,1.9-1,3.3-0.9c1.4,0.1,2.5,0.7,3.2,1.2C1421.2,181.9,1421.4,182.4,1421.3,182.5z"/>
								</g>
							</g>
						</g>
						<g id="XMLID_147_">
							<g id="XMLID_148_">
								<path id="XMLID_333_" class="st7" d="M1429.6,199.1c0-0.1,1.4-0.3,3.6-0.5c0.6,0,1.1-0.1,1.2-0.5c0.1-0.4-0.1-1.1-0.3-1.8
									c-0.5-1.5-1-3-1.6-4.7c-2.2-6.6-3.8-12.1-3.6-12.2c0.2-0.1,2.2,5.2,4.5,11.9c0.5,1.6,1,3.2,1.5,4.7c0.2,0.7,0.6,1.5,0.3,2.4
									c-0.2,0.4-0.6,0.8-0.9,0.8c-0.4,0.1-0.7,0.1-1,0.1C1431,199.3,1429.6,199.3,1429.6,199.1z"/>
							</g>
						</g>
						<g id="XMLID_149_">
							<path id="XMLID_330_" class="st14" d="M1430.7,227.2c0,0-10.8,0.3-21.4-7c0,0,5,12,21.1,11L1430.7,227.2z"/>
						</g>
					</g>
				</g>
				<path id="XMLID_150_" class="st7" d="M1407.7,141c-5.3,7.3-5.1,18,0.3,25.2c2.4,3.2,6,5.7,10,5.6c4-0.1,7.8-3.9,6.9-7.8
					c-1.5,4.8,2.6,10.6,7.7,10.7s9.4-5.5,8-10.4c0.4,1.8,0.8,3.6,1.8,5.1c1,1.5,2.8,2.6,4.5,2.4c2.5-0.3,3.9-3,4.5-5.4
					c1.7-7.3-1-15.3-6.3-20.5c-5.4-5.2-13.1-7.7-20.6-7.2c-7.5,0.5-14.6,3.9-20.2,8.8"/>
				<path id="XMLID_151_" class="st7" d="M1409.8,146.8c1.9,4.7,3.4,9.7,3.3,14.8c-0.1,5.1-1.7,10.3-5.3,13.9
					c-3.6,3.6-9.3,5.2-14,3.4c1.1,4.4,0.7,9.5-2,13.1c-2.8,3.7-8.2,5.4-12.2,3.2c-3.6-2-5.2-6.4-5.7-10.5c-1.2-10,2.3-20.4,9.3-27.6
					c7-7.2,17.3-11,27.3-10"/>
				<g id="XMLID_152_">
					<g id="XMLID_153_">
						<path id="XMLID_154_" class="st13" d="M1389.5,186c-2.2-1.4-5.2-0.2-6.9,1.7c-2.7,3-3.2,7.8-1.1,11.3
							c2.1,3.5,6.6,5.3,10.5,4.2"/>
						<g id="XMLID_155_">
							<path id="XMLID_156_" class="st14" d="M1389,198.3c0,0.1-0.7,0.2-1.9-0.1c-1.1-0.3-2.7-1.2-3.4-3c-0.3-0.9-0.3-1.9,0.1-2.6
								c0.3-0.8,0.9-1.3,1.4-1.6c1-0.7,1.8-0.6,1.8-0.6c0,0.1-0.7,0.3-1.5,1c-0.8,0.7-1.6,2.1-1.1,3.6c0.5,1.5,1.9,2.3,2.8,2.8
								C1388.3,198.1,1389,198.2,1389,198.3z"/>
						</g>
					</g>
				</g>
				<g id="XMLID_157_">
					<path id="XMLID_158_" class="st7" d="M1422.6,175.7c-0.2,0.6-2.6,0.4-5.5,0.5c-2.9,0.1-5.3,0.5-5.5-0.1
						c-0.3-0.6,2.1-2.1,5.4-2.2C1420.4,173.7,1422.9,175.1,1422.6,175.7z"/>
				</g>
				<g id="XMLID_159_">
					<path id="XMLID_160_" class="st15" d="M1416.2,174.5"/>
				</g>
				<g id="XMLID_161_">
					<path id="XMLID_162_" class="st7" d="M1445.7,175.2c-0.3,0.2-0.7,0.1-1.3-0.1c-0.6-0.1-1.1-0.2-2-0.1c-0.9,0.1-1.8,0.2-2.5,0.2
						c-0.7,0-1.2-0.2-1.3-0.5c-0.1-0.3,0.2-0.7,0.8-1.1c0.6-0.4,1.5-0.8,2.8-1c1.3-0.2,2.7,0.4,3.2,1.1
						C1445.9,174.4,1445.9,175,1445.7,175.2z"/>
				</g>
				<path id="XMLID_163_" class="st14" d="M1425.7,203.4c1.2-0.7,2.8-1.1,4.2-0.6c1.4,0.5,2.4,2,2.1,3.4c-0.2,0.8-0.7,1.4-1.3,1.9
					c-1,0.7-2.2,1.1-3.4,0.8c-1.2-0.3-2.2-1.2-2.6-2.3c-0.3-1.2,0.2-2.6,1.3-3.1"/>
				<g id="XMLID_164_">
					<path id="XMLID_165_" class="st7" d="M1433.8,205.1c0,0.1-0.5,0.5-1.6,0.7c-1,0.2-2.6,0.2-4.2-0.4c-1.6-0.6-2.7-1.8-3.2-2.7
						c-0.6-0.9-0.7-1.6-0.6-1.6c0.1,0,0.4,0.5,1.1,1.3c0.6,0.8,1.7,1.7,3.1,2.3c1.4,0.6,2.8,0.7,3.8,0.6
						C1433.2,205.2,1433.8,205,1433.8,205.1z"/>
				</g>
				<g id="XMLID_166_">
					<path id="XMLID_167_" class="st10" d="M1400.4,213c-0.1,0,0-1.1-0.6-3.1c-0.5-1.9-1.8-4.7-4.7-6.9c-1.4-1.1-3.2-2-5.3-2.3
						c-2.1-0.3-4.4-0.3-6.6,0.6c-1.1,0.4-2.2,1-3.2,1.7c-1,0.7-1.9,1.6-2.6,2.7c-1.5,2-2.4,4.7-2.4,7.4c0,2.7,0.9,5.3,2.4,7.4
						c0.7,1,1.6,1.9,2.6,2.7c1,0.7,2,1.3,3.2,1.7c2.2,0.8,4.5,0.9,6.6,0.6c2.1-0.4,3.9-1.3,5.3-2.3c2.9-2.2,4.2-5,4.7-6.9
						C1400.4,214.1,1400.3,213,1400.4,213c0,0,0,0.3,0,0.8c0,0.5-0.1,1.3-0.3,2.4c-0.4,2-1.7,4.9-4.7,7.3c-1.5,1.1-3.3,2.1-5.5,2.5
						c-2.2,0.4-4.6,0.3-6.9-0.5c-1.2-0.4-2.3-1-3.4-1.8c-1.1-0.8-2-1.7-2.8-2.8c-1.6-2.2-2.6-5-2.6-7.8c0-2.9,1-5.7,2.6-7.8
						c0.8-1.1,1.8-2,2.8-2.8c1-0.8,2.2-1.4,3.4-1.8c2.3-0.9,4.8-0.9,6.9-0.5c2.2,0.4,4,1.4,5.5,2.5c3,2.3,4.2,5.3,4.7,7.3
						c0.2,1,0.3,1.8,0.3,2.4C1400.4,212.7,1400.4,213,1400.4,213z"/>
				</g>
				<g id="XMLID_168_">
					<path id="XMLID_169_" class="st9" d="M1445.7,139.3c0,0,0.1,0,0.4,0.1c0.3,0.1,0.6,0.3,1,0.7c0.8,0.7,1.7,2.3,1.3,4.3
						c-0.3,2.1-2.4,4-5.1,4.5c-2.8,0.6-5.9-0.5-8.7-2.1l-3.1-1.8l3.4,1.1c1.2,0.4,2,1.4,2.3,2.6c0.3,1.2,0.2,2.5-0.5,3.5
						c-0.7,1.1-1.8,1.8-3,2.1c-1.2,0.3-2.5,0.3-3.8-0.1c-3-0.9-5-3.4-6.5-5.6l-2.1-3.1l2.7,2.6c1.6,1.5,1.9,3.8,1.5,5.6
						c-0.4,1.9-1.7,3.4-3.3,4.2c-3.2,1.5-6.6,0.6-8.4-1c-2-1.6-2.8-3.5-3.2-4.8c-0.2-0.6-0.3-1.2-0.4-1.5c0-0.3-0.1-0.5,0-0.5
						c0.1,0,0.2,0.7,0.6,1.9c0.5,1.2,1.4,3,3.2,4.5c1.8,1.5,5,2.2,7.8,0.8c1.4-0.7,2.5-2.1,2.9-3.7c0.4-1.7,0-3.6-1.3-4.9l0.6-0.5
						c1.5,2.1,3.4,4.4,6,5.2c2.2,0.7,4.8,0.1,5.9-1.7c1.1-1.7,0.4-4.5-1.4-5.1l0.3-0.7c2.7,1.6,5.7,2.6,8.2,2.1
						c2.5-0.4,4.5-2.2,4.8-4c0.4-1.8-0.4-3.4-1.1-4.1C1446.3,139.4,1445.7,139.3,1445.7,139.3z"/>
				</g>
				<g id="XMLID_170_">
					<path id="XMLID_171_" class="st9" d="M1406.2,165.7c0,0-0.1,0.1-0.2,0.3c-0.1,0.2-0.4,0.4-0.7,0.7c-0.6,0.6-1.7,1.4-3.3,2
						c-1.6,0.6-3.7,0.8-6,0.1c-2.2-0.7-4.6-2.4-5.9-5.1l0.6-0.1c-0.5,3.4-3.3,6.9-7.4,7.9c-4,0.9-8.9-1.2-10.8-5.4
						c-1.7-3.8-0.6-8.3,2.1-10.8l0.5,0.6c-1.8,1.5-4.1,2.2-6.2,2.3c-2.2,0-4.2-0.6-5.9-1.6c-1.6-1-2.9-2.5-3.5-4.1
						c-0.6-1.6-0.8-3.2-0.7-4.6c0.2-2.9,1.4-4.9,2.4-6c1-1.1,1.8-1.5,1.8-1.5c0,0.1-0.7,0.5-1.6,1.7c-0.9,1.2-2,3.2-2.2,5.9
						c-0.1,1.3,0.1,2.9,0.8,4.3c0.6,1.5,1.8,2.8,3.3,3.8c1.5,0.9,3.5,1.5,5.5,1.4c2,0,4.1-0.7,5.8-2.1l0.5,0.6
						c-2.4,2.3-3.4,6.5-1.9,10c1.7,3.9,6.2,5.9,9.9,5c3.7-0.8,6.4-4.1,6.9-7.2l0.2-1l0.4,1c1.2,2.5,3.4,4.2,5.5,4.9
						c2.1,0.7,4.2,0.5,5.7,0c1.6-0.5,2.6-1.2,3.3-1.8C1405.9,166.1,1406.2,165.7,1406.2,165.7z"/>
				</g>
				<g id="XMLID_172_">
					<path id="XMLID_173_" class="st9" d="M1376.8,192.1c0,0-0.4,0.4-1.3,0.8c-0.9,0.4-2.3,0.8-4.1,0.6c-1.8-0.1-4-0.9-5.7-2.8
						c-1.7-1.8-2.7-4.6-2.2-7.6l0.7,0.3c-1.4,1.8-3.3,3.5-5.6,4.5c-1.7,0.8-3.6,1.2-5.4,1.2c-1.8-0.1-3.5-0.6-5-1.4
						c-3-1.6-4.6-4.5-4.7-7c-0.2-2.5,0.7-4.5,1.5-5.6c0.4-0.5,0.8-0.9,1.1-1.1c0.3-0.2,0.5-0.3,0.5-0.3c0.1,0.1-0.6,0.5-1.3,1.6
						c-0.7,1.1-1.5,3-1.2,5.3c0.2,2.3,1.7,5,4.5,6.4c2.7,1.5,6.4,1.7,9.7,0.1c2.2-1,4-2.6,5.3-4.3l1-1.2l-0.3,1.5
						c-0.5,2.7,0.5,5.3,2,7c1.5,1.8,3.5,2.5,5.2,2.7c1.7,0.2,3.1-0.1,4-0.4C1376.3,192.3,1376.8,192.1,1376.8,192.1z"/>
				</g>
				<g id="XMLID_174_">
					<path id="XMLID_175_" class="st9" d="M1460.8,160c0.1,0,0.4,1,0.3,2.7c-0.1,1.7-0.8,4.1-2.7,6.1c-1.9,1.9-4.3,2.8-6,3
						c-1.7,0.2-2.8-0.1-2.8-0.2c0-0.1,1.1,0,2.7-0.3c1.6-0.3,3.8-1.2,5.5-3c1.7-1.8,2.5-4,2.7-5.6
						C1460.8,161.1,1460.6,160,1460.8,160z"/>
				</g>
				<g id="XMLID_176_">
					<path id="XMLID_177_" class="st9" d="M1469.8,175.5c0,0,0.2,0.4,0.4,1.1c0.1,0.8,0.2,1.9-0.3,3.3c-0.5,1.3-1.6,2.9-3.6,3.3
						c-0.9,0.2-2,0.1-3-0.3c-1-0.4-1.9-1.2-2.4-2.3l0.7-0.3c0.1,0.5,0.2,1,0.2,1.5c-0.1,2.5-1.7,4.5-3.7,5.3c-1,0.4-2.1,0.4-2.9,0.1
						c-0.9-0.3-1.6-0.7-2.2-1.2c-1.2-1-1.7-2.3-1.8-3.1c-0.1-0.9,0-1.3,0-1.3c0.1,0,0,0.5,0.3,1.2c0.2,0.8,0.7,1.9,1.9,2.7
						c1.1,0.9,2.8,1.5,4.6,0.9c1.7-0.7,3.1-2.5,3.2-4.6c0-0.4-0.1-0.8-0.2-1.2l0.7-0.3c0.7,1.8,2.9,2.5,4.5,2.1
						c1.7-0.3,2.7-1.6,3.2-2.8c0.5-1.2,0.5-2.3,0.5-3C1469.9,175.9,1469.8,175.5,1469.8,175.5z"/>
				</g>
				<g id="XMLID_179_">
					<path id="XMLID_180_" class="st7" d="M1424.6,197.6c0.1,0,0.2,0.3,0,0.8c-0.1,0.5-0.5,1.2-1.1,1.7c-0.6,0.5-1.3,0.7-1.8,0.8
						c-0.5,0-0.8-0.1-0.8-0.2c0-0.2,1.1-0.3,2.2-1.2C1424.1,198.6,1424.4,197.5,1424.6,197.6z"/>
				</g>
			</g>
		</g>
		<g id="XMLID_181_">
			<g id="XMLID_195_">
				<path id="XMLID_196_" class="st10" d="M1778,622.8c-3.7,5.3-10.9,3.5-14.2,0.3c-3.3-3.2-4.7-7.9-6-12.4
					c-2.9-10.2-5.9-20.9-3.7-31.3c0.7-3.1,1.8-6.2,4-8.5c2.2-2.3,5.5-3.7,8.6-2.9c3.6,1,5.9,4.5,7.5,7.9c4.8,9.9,7.3,20.9,7.4,32
					C1781.5,613.1,1780.9,618.5,1778,622.8"/>
			</g>
			<g id="XMLID_182_">
				<path id="XMLID_183_" class="st4" d="M1778,622.8c-3.7,5.3-10.9,3.5-14.2,0.3c-3.3-3.2-4.7-7.9-6-12.4
					c-2.9-10.2-5.9-20.9-3.7-31.3c0.7-3.1,1.8-6.2,4-8.5c2.2-2.3,5.5-3.7,8.6-2.9c3.6,1,5.9,4.5,7.5,7.9c4.8,9.9,7.3,20.9,7.4,32
					C1781.5,613.1,1780.9,618.5,1778,622.8"/>
			</g>
			<g id="XMLID_184_">
				<path id="XMLID_185_" class="st16" d="M1764.1,649.5c-6.1-3.1-13.2-3.5-19.9-2.4c-3.6,0.6-7.4,1.7-9.8,4.4
					c-2.5,2.7-2.9,7.5-0.1,9.8c1.7,1.4,4,1.6,6.2,1.6c5.3-0.1,11.1-1,15.3,2.2c2.4,1.8,4,4.8,6.9,5.7c2.8,0.9,6-0.8,7.5-3.3
					c1.5-2.5,1.5-5.7,0.8-8.5C1770.9,658.9,1770.2,652.7,1764.1,649.5z"/>
			</g>
			<g id="XMLID_186_">
				<path id="XMLID_187_" class="st16" d="M1788.2,630.4c-4-4.8-4.8-11.7-3-17.7c1.8-6,5.8-11.1,10.5-15.2
					c5.5-4.9,11.9-8.7,18.8-11.1c2.7-1,5.6-1.7,8.4-1.4c2.9,0.3,5.7,1.7,7.1,4.3c2,3.8,0.1,8.3-2,12.1c-3.6,6.6-7.7,12.9-12.3,18.8
					c-3.7,4.8-7.9,9.5-13.6,11.6c-5.6,2.2-11.5,1.9-14.5-2"/>
			</g>
			<g id="XMLID_188_">
				<g id="XMLID_189_">
					<path id="XMLID_190_" class="st7" d="M1778.2,702.5c-0.1,0-0.2-0.9-0.3-2.4c-0.2-1.7-0.4-3.9-0.6-6.6c-0.3-2.8-0.7-6-1.5-9.6
						c-0.8-3.6-2-7.4-3.5-11.3c-1.6-3.9-3.5-7.4-5.8-10.3c-2.2-2.8-4.9-4.9-7.3-6.1c-2.5-1.2-4.7-1.7-6.2-1.9
						c-1.5-0.2-2.4-0.3-2.4-0.3c0-0.1,0.9-0.1,2.4,0c1.6,0.1,3.8,0.5,6.4,1.7c2.6,1.1,5.4,3.2,7.7,6.1c2.4,2.9,4.4,6.5,6,10.5
						c1.6,4,2.7,7.9,3.5,11.5c0.7,3.6,1.1,7,1.3,9.7c0.2,2.8,0.3,5,0.3,6.6C1778.3,701.6,1778.3,702.5,1778.2,702.5z"/>
				</g>
			</g>
			<g id="XMLID_191_">
				<g id="XMLID_192_">
					<path id="XMLID_193_" class="st7" d="M1777.8,697.5c0,0-0.1-0.4-0.1-1.1c0-0.8,0-1.9,0-3.2c0-2.8,0-6.8-0.1-11.7
						c-0.2-9.9-1.1-23.5-2.7-38.5c-1.7-15-3.9-28.5-5.9-38.2c-0.5-2.4-0.9-4.6-1.4-6.5c-0.4-1.9-0.8-3.6-1.1-4.9
						c-0.3-1.3-0.5-2.3-0.7-3.1c-0.2-0.7-0.2-1.1-0.2-1.1c0,0,0.2,0.4,0.4,1c0.2,0.8,0.5,1.8,0.9,3.1c0.4,1.3,0.8,3,1.3,4.9
						c0.5,1.9,1,4.1,1.5,6.5c2.2,9.7,4.5,23.2,6.2,38.2c1.6,15,2.4,28.7,2.5,38.6c0.1,5,0,9-0.2,11.7c-0.1,1.3-0.1,2.3-0.2,3.2
						C1777.9,697.1,1777.8,697.5,1777.8,697.5z"/>
				</g>
			</g>
			<g id="XMLID_194_">
				<g id="XMLID_197_">
					<path id="XMLID_198_" class="st7" d="M1777.7,671.1c-0.1,0-0.1-1.2,0-3.3c0.1-2.1,0.4-5.2,1-9c0.6-3.8,1.5-8.3,2.9-13.1
						c1.3-4.9,3.2-10.2,5.5-15.6c4.6-10.8,10.8-19.7,16.1-25.1c1.3-1.5,2.7-2.5,3.8-3.5c0.6-0.5,1.1-1,1.6-1.4c0.5-0.4,1-0.7,1.5-1
						c1.8-1.2,2.8-1.9,2.8-1.8c0.2,0.2-4,2.6-9.2,8.2c-5.2,5.5-11.2,14.3-15.7,25c-2.3,5.3-4.2,10.6-5.5,15.4
						c-1.4,4.8-2.4,9.3-3.1,13c-0.7,3.7-1.1,6.8-1.3,8.9C1777.9,669.9,1777.8,671.1,1777.7,671.1z"/>
				</g>
			</g>
		</g>
		<g id="XMLID_199_">
			<g id="XMLID_201_">
				<g id="XMLID_203_">
					<path id="XMLID_400_" class="st7" d="M1257,75.4c0,0-0.3,0.1-1,0.1c-0.7,0.1-1.7,0.1-3,0.3c-1.3,0-3,0.3-4.9,0.7
						c-0.9,0.2-2,0.3-3.1,0.6c-1.1,0.3-2.2,0.6-3.4,1c-4.8,1.6-10.5,4-16.3,8.3c-5.7,4.2-11.5,10.3-15.9,18.1c-2.3,3.9-4,8.3-5.5,13
						c-1.2,4.7-2.3,9.8-2.3,15.1c-0.2,2.6,0.1,5.3,0.2,8c0.1,1.4,0.4,2.7,0.6,4.1c0.2,1.4,0.4,2.8,0.8,4.1c1.2,5.5,3.5,10.9,6.4,16
						c5.8,10.3,15.5,19.2,27.3,24.3c5.9,2.5,12.5,3.9,19.1,4.1c6.7,0.3,13.4-0.8,19.9-3.1l1.9-0.7l0.3-0.1l0.2,0.1
						c9.6,4.7,19,9.4,28.2,13.9l-0.8,0.7c-3.1-9.2-6.1-18.2-9-26.8l-0.1-0.3l0.2-0.2c7-7.1,11.8-15.8,14.4-24.6
						c2.6-8.9,3-17.8,1.8-26.1c-1.2-8.2-3.9-15.7-7.6-22c-3.7-6.3-8.2-11.4-12.8-15.3c-4.7-3.9-9.5-6.6-13.9-8.6
						c-4.4-1.8-8.4-2.9-11.7-3.5c-1.6-0.3-3.1-0.5-4.4-0.7c-1.3-0.1-2.3-0.1-3.2-0.2c-0.8-0.1-1.5-0.1-2-0.1
						C1257.2,75.5,1257,75.5,1257,75.4c0,0,0.2,0,0.7,0c0.5,0,1.1,0,2,0c0.9,0,2,0.1,3.2,0.1c1.3,0.2,2.8,0.4,4.4,0.6
						c3.3,0.5,7.3,1.6,11.8,3.4c4.4,2,9.3,4.6,14.1,8.6c4.7,4,9.3,9.1,13.1,15.5c3.8,6.3,6.6,13.9,7.8,22.3
						c1.2,8.3,0.9,17.5-1.8,26.5c-2.6,9-7.5,17.8-14.6,25.1l0.1-0.6c2.9,8.6,5.9,17.6,9,26.8l0.5,1.4l-1.3-0.6
						c-9.1-4.5-18.6-9.1-28.2-13.9l0.5,0l-2,0.8c-6.6,2.3-13.5,3.5-20.3,3.2c-6.8-0.2-13.5-1.6-19.5-4.2
						c-12.1-5.2-21.9-14.3-27.8-24.8c-2.9-5.3-5.3-10.8-6.5-16.4c-0.4-1.4-0.6-2.8-0.8-4.2c-0.2-1.4-0.5-2.8-0.6-4.2
						c-0.1-2.8-0.4-5.5-0.2-8.2c0-5.4,1.1-10.5,2.4-15.3c1.5-4.7,3.3-9.2,5.7-13.1c4.5-7.9,10.4-14,16.3-18.2
						c5.9-4.3,11.7-6.7,16.5-8.2c1.2-0.3,2.4-0.7,3.5-0.9c1.1-0.3,2.1-0.4,3.1-0.6c1.9-0.3,3.6-0.6,4.9-0.6c1.3-0.1,2.3-0.1,3-0.1
						C1256.6,75.4,1257,75.4,1257,75.4z"/>
				</g>
			</g>
			<g id="XMLID_200_">
				<g id="XMLID_205_">
					<path id="XMLID_397_" class="st2" d="M1270.3,127.2l-4.1,0l-9.1-12.4l-0.1-8.2c0,0-6.3-0.3-5.5,10.4c0.9,10.7,0,8,0,8
						s-13.5,0.2-14.6,1.4c-0.8,0.9-1,14.2-1.1,21.5c0,3.7,2.3,7,5.7,7.9c0.5,0.1,1,0.2,1.5,0.2c3.4,0,20.5-3,20.5-3l7.1-0.1
						L1270.3,127.2z"/>
				</g>
				<g id="XMLID_207_">
					<polygon id="XMLID_395_" class="st2" points="1282,124.8 1279.8,152.9 1272.7,153 1272.4,125.4 					"/>
				</g>
			</g>
		</g>
	</g>
</g>
<rect id="XMLID_1_" x="497" y="415" class="st5" width="435" height="76"/>
<g id="XMLID_211_">
	<path id="XMLID_212_" d="M130.2,376.8c0-1.8-0.6-3.1-1.9-4.1c-1.2-1-3.4-2-6.5-3c-3.1-1-5.7-2.1-7.7-3c-6.4-3.2-9.7-7.5-9.7-13.1
		c0-2.8,0.8-5.2,2.4-7.3c1.6-2.1,3.9-3.7,6.8-4.9c2.9-1.2,6.2-1.8,9.9-1.8c3.6,0,6.8,0.6,9.6,1.9c2.8,1.3,5,3.1,6.6,5.5
		s2.4,5.1,2.4,8.1h-12c0-2-0.6-3.6-1.9-4.7c-1.2-1.1-2.9-1.7-5-1.7c-2.1,0-3.8,0.5-5.1,1.4c-1.2,0.9-1.9,2.1-1.9,3.6
		c0,1.3,0.7,2.4,2.1,3.5c1.4,1,3.8,2.1,7.2,3.2c3.4,1.1,6.3,2.3,8.5,3.6c5.4,3.1,8.1,7.4,8.1,12.8c0,4.4-1.6,7.8-4.9,10.3
		c-3.3,2.5-7.8,3.7-13.5,3.7c-4,0-7.7-0.7-11-2.2c-3.3-1.4-5.7-3.4-7.4-5.9c-1.7-2.5-2.5-5.4-2.5-8.7h12c0,2.7,0.7,4.6,2.1,5.9
		c1.4,1.3,3.6,1.9,6.7,1.9c2,0,3.5-0.4,4.7-1.3C129.6,379.5,130.2,378.3,130.2,376.8z"/>
	<path id="XMLID_215_" d="M165.7,390.7c-5.7,0-10.3-1.7-13.8-5.1c-3.5-3.4-5.3-7.8-5.3-13.2v-1c0-3.8,0.7-7.1,2.1-10
		c1.4-2.9,3.4-5.1,6.1-6.7c2.7-1.6,5.9-2.4,9.6-2.4c5.2,0,9.3,1.6,12.3,4.8c3,3.2,4.5,7.7,4.5,13.5v4.5h-22.9
		c0.4,2.1,1.3,3.7,2.7,4.9c1.4,1.2,3.2,1.8,5.4,1.8c3.6,0,6.5-1.3,8.5-3.8l5.3,6.2c-1.4,2-3.5,3.6-6.1,4.7S168.7,390.7,165.7,390.7z
		 M164.4,361.2c-3.4,0-5.4,2.2-6,6.7H170V367c0-1.8-0.4-3.3-1.4-4.3C167.6,361.7,166.2,361.2,164.4,361.2z"/>
	<path id="XMLID_219_" d="M208.3,363.4l-3.8-0.3c-3.6,0-5.9,1.1-7,3.4V390H186v-37h10.8l0.4,4.8c1.9-3.6,4.6-5.4,8.1-5.4
		c1.2,0,2.3,0.1,3.2,0.4L208.3,363.4z"/>
	<path id="XMLID_221_" d="M227.8,376.3l5.8-23.3h12.1l-12.1,37h-11.8l-12.1-37H222L227.8,376.3z"/>
	<path id="XMLID_224_" d="M249.1,343.5c0-1.6,0.6-3,1.8-4c1.2-1,2.7-1.6,4.6-1.6c1.9,0,3.4,0.5,4.6,1.6c1.2,1,1.8,2.4,1.8,4
		s-0.6,3-1.8,4c-1.2,1-2.7,1.6-4.6,1.6c-1.9,0-3.4-0.5-4.6-1.6C249.7,346.5,249.1,345.1,249.1,343.5z M261.3,390h-11.6v-37h11.6V390
		z"/>
	<path id="XMLID_227_" d="M284.1,381.8c1.6,0,2.9-0.4,3.8-1.3c0.9-0.9,1.3-2.1,1.3-3.7h10.8c0,4.1-1.5,7.4-4.4,10s-6.6,3.9-11.2,3.9
		c-5.4,0-9.6-1.7-12.7-5.1c-3.1-3.4-4.6-8-4.6-14v-0.5c0-3.7,0.7-7,2.1-9.9c1.4-2.9,3.4-5.1,6-6.6s5.7-2.3,9.2-2.3
		c4.8,0,8.6,1.3,11.5,4c2.8,2.7,4.2,6.3,4.2,10.8h-10.8c0-1.9-0.5-3.4-1.4-4.4c-0.9-1-2.2-1.5-3.8-1.5c-3,0-4.7,1.9-5.2,5.7
		c-0.2,1.2-0.2,2.9-0.2,5c0,3.7,0.4,6.3,1.3,7.7S282.1,381.8,284.1,381.8z"/>
	<path id="XMLID_230_" d="M322.7,390.7c-5.7,0-10.3-1.7-13.8-5.1c-3.5-3.4-5.3-7.8-5.3-13.2v-1c0-3.8,0.7-7.1,2.1-10
		c1.4-2.9,3.4-5.1,6.1-6.7c2.7-1.6,5.9-2.4,9.6-2.4c5.2,0,9.3,1.6,12.3,4.8c3,3.2,4.5,7.7,4.5,13.5v4.5h-22.9
		c0.4,2.1,1.3,3.7,2.7,4.9c1.4,1.2,3.2,1.8,5.4,1.8c3.6,0,6.5-1.3,8.5-3.8l5.3,6.2c-1.4,2-3.5,3.6-6.1,4.7S325.7,390.7,322.7,390.7z
		 M321.4,361.2c-3.4,0-5.4,2.2-6,6.7H327V367c0-1.8-0.4-3.3-1.4-4.3C324.6,361.7,323.2,361.2,321.4,361.2z"/>
	<path id="XMLID_234_" d="M375.1,373.9l6.2-20.8h12.3l-15.1,43.2l-0.6,1.6c-2.1,4.8-5.9,7.2-11.3,7.2c-1.5,0-3.1-0.2-4.8-0.7V396
		h1.5c1.6,0,2.9-0.2,3.7-0.7s1.5-1.3,1.9-2.5l0.9-2.5L357,353h12.3L375.1,373.9z"/>
	<path id="XMLID_236_" d="M394.6,371.2c0-3.7,0.7-7,2.2-9.9c1.4-2.9,3.5-5.1,6.2-6.6c2.7-1.5,5.8-2.3,9.5-2.3
		c5.5,0,9.9,1.7,13.1,5.1c3.2,3.4,4.8,8.1,4.8,14v0.4c0,5.8-1.6,10.3-4.8,13.7c-3.2,3.4-7.5,5.1-13,5.1c-5.3,0-9.5-1.6-12.7-4.7
		c-3.2-3.2-4.9-7.4-5.2-12.8L394.6,371.2z M406.2,371.9c0,3.4,0.5,5.9,1.6,7.5c1.1,1.6,2.7,2.4,4.8,2.4c4.1,0,6.2-3.2,6.3-9.5v-1.2
		c0-6.6-2.1-9.9-6.4-9.9c-3.9,0-5.9,2.9-6.3,8.6L406.2,371.9z"/>
	<path id="XMLID_241_" d="M457.4,386c-2.4,3.1-5.7,4.7-9.9,4.7c-4.1,0-7.1-1.2-9.2-3.5s-3.1-5.7-3.1-10.2v-24h11.5v24
		c0,3.2,1.5,4.8,4.6,4.8c2.6,0,4.5-0.9,5.6-2.8V353h11.6v37h-10.8L457.4,386z"/>
	<path id="XMLID_245_" d="M490.9,371.2c0-5.9,1.3-10.5,3.8-13.8c2.5-3.4,6.1-5.1,10.6-5.1c3.3,0,6.1,1.3,8.3,3.9v-18.7h11.6V390
		h-10.4l-0.6-4c-2.4,3.1-5.4,4.6-9,4.6c-4.4,0-7.9-1.7-10.5-5.1C492.1,382.3,490.9,377.5,490.9,371.2z M502.4,372
		c0,6.6,1.9,9.8,5.7,9.8c2.6,0,4.4-1.1,5.5-3.2v-14.1c-1-2.2-2.8-3.3-5.4-3.3c-3.6,0-5.5,2.9-5.8,8.6L502.4,372z"/>
	<path id="XMLID_248_" d="M549.6,390.7c-5.7,0-10.3-1.7-13.8-5.1c-3.5-3.4-5.3-7.8-5.3-13.2v-1c0-3.8,0.7-7.1,2.1-10
		c1.4-2.9,3.4-5.1,6.1-6.7c2.7-1.6,5.9-2.4,9.6-2.4c5.2,0,9.3,1.6,12.3,4.8c3,3.2,4.5,7.7,4.5,13.5v4.5h-22.9
		c0.4,2.1,1.3,3.7,2.7,4.9c1.4,1.2,3.2,1.8,5.4,1.8c3.6,0,6.5-1.3,8.5-3.8l5.3,6.2c-1.4,2-3.5,3.6-6.1,4.7S552.6,390.7,549.6,390.7z
		 M548.3,361.2c-3.4,0-5.4,2.2-6,6.7h11.6V367c0-1.8-0.4-3.3-1.4-4.3C551.5,361.7,550.1,361.2,548.3,361.2z"/>
	<path id="XMLID_251_" d="M589.2,379.6c0-1-0.5-1.8-1.5-2.4c-1-0.6-3-1.2-5.8-1.8c-2.9-0.6-5.2-1.5-7.1-2.5c-1.9-1-3.3-2.3-4.3-3.8
		c-1-1.5-1.5-3.2-1.5-5.1c0-3.4,1.4-6.2,4.2-8.4c2.8-2.2,6.5-3.3,11-3.3c4.9,0,8.8,1.1,11.8,3.3c3,2.2,4.4,5.1,4.4,8.7h-11.6
		c0-3-1.6-4.4-4.7-4.4c-1.2,0-2.2,0.3-3,1c-0.8,0.7-1.2,1.5-1.2,2.5c0,1,0.5,1.9,1.5,2.5c1,0.6,2.6,1.2,4.8,1.6
		c2.2,0.4,4.1,0.9,5.8,1.5c5.6,1.9,8.3,5.3,8.3,10.3c0,3.4-1.5,6.1-4.5,8.2c-3,2.1-6.9,3.2-11.6,3.2c-3.2,0-6-0.6-8.5-1.7
		c-2.5-1.1-4.4-2.7-5.8-4.6c-1.4-2-2.1-4-2.1-6.2h10.8c0,1.7,0.6,3,1.7,3.7s2.5,1.2,4.2,1.2c1.6,0,2.8-0.3,3.5-1
		C588.8,381.5,589.2,380.6,589.2,379.6z"/>
	<path id="XMLID_253_" d="M623.5,390.7c-5.7,0-10.3-1.7-13.8-5.1c-3.5-3.4-5.3-7.8-5.3-13.2v-1c0-3.8,0.7-7.1,2.1-10
		c1.4-2.9,3.4-5.1,6.1-6.7c2.7-1.6,5.9-2.4,9.6-2.4c5.2,0,9.3,1.6,12.3,4.8c3,3.2,4.5,7.7,4.5,13.5v4.5h-22.9
		c0.4,2.1,1.3,3.7,2.7,4.9c1.4,1.2,3.2,1.8,5.4,1.8c3.6,0,6.5-1.3,8.5-3.8l5.3,6.2c-1.4,2-3.5,3.6-6.1,4.7S626.6,390.7,623.5,390.7z
		 M622.2,361.2c-3.4,0-5.4,2.2-6,6.7h11.6V367c0-1.8-0.4-3.3-1.4-4.3C625.5,361.7,624.1,361.2,622.2,361.2z"/>
	<path id="XMLID_256_" d="M666.1,363.4l-3.8-0.3c-3.6,0-5.9,1.1-7,3.4V390h-11.5v-37h10.8l0.4,4.8c1.9-3.6,4.6-5.4,8.1-5.4
		c1.2,0,2.3,0.1,3.2,0.4L666.1,363.4z"/>
	<path id="XMLID_258_" d="M685.6,376.3l5.8-23.3h12.1l-12.1,37h-11.8l-12.1-37h12.2L685.6,376.3z"/>
	<path id="XMLID_260_" d="M724.5,390.7c-5.7,0-10.3-1.7-13.8-5.1c-3.5-3.4-5.3-7.8-5.3-13.2v-1c0-3.8,0.7-7.1,2.1-10
		c1.4-2.9,3.4-5.1,6.1-6.7c2.7-1.6,5.9-2.4,9.6-2.4c5.2,0,9.3,1.6,12.3,4.8c3,3.2,4.5,7.7,4.5,13.5v4.5h-22.9
		c0.4,2.1,1.3,3.7,2.7,4.9c1.4,1.2,3.2,1.8,5.4,1.8c3.6,0,6.5-1.3,8.5-3.8l5.3,6.2c-1.4,2-3.5,3.6-6.1,4.7S727.5,390.7,724.5,390.7z
		 M723.2,361.2c-3.4,0-5.4,2.2-6,6.7h11.6V367c0-1.8-0.4-3.3-1.4-4.3C726.4,361.7,725,361.2,723.2,361.2z"/>
	<path id="XMLID_266_" d="M138.3,455.8c0,6.1-1.3,10.7-3.8,14c-2.5,3.3-6,4.9-10.6,4.9c-3.8,0-6.8-1.5-9.1-4.5l-0.5,3.8H104v-52.5
		h11.5V440c2.1-2.4,4.9-3.7,8.3-3.7c4.6,0,8.2,1.7,10.7,5c2.5,3.3,3.8,8,3.8,13.9V455.8z M126.7,455.1c0-3.5-0.5-6.1-1.4-7.6
		c-0.9-1.5-2.4-2.3-4.4-2.3c-2.6,0-4.4,1-5.4,3v14.7c1,2,2.8,2.9,5.5,2.9c2.7,0,4.4-1.3,5.2-4C126.6,460.5,126.7,458.3,126.7,455.1z
		"/>
	<path id="XMLID_269_" d="M161.3,474.7c-5.7,0-10.3-1.7-13.8-5.1c-3.5-3.4-5.3-7.8-5.3-13.2v-1c0-3.8,0.7-7.1,2.1-10
		c1.4-2.9,3.4-5.1,6.1-6.7c2.7-1.6,5.9-2.4,9.6-2.4c5.2,0,9.3,1.6,12.3,4.8s4.5,7.7,4.5,13.5v4.5H154c0.4,2.1,1.3,3.7,2.7,4.9
		c1.4,1.2,3.2,1.8,5.4,1.8c3.6,0,6.5-1.3,8.5-3.8l5.3,6.2c-1.4,2-3.5,3.6-6.1,4.7C167.1,474.1,164.3,474.7,161.3,474.7z M160,445.2
		c-3.4,0-5.4,2.2-6,6.7h11.6V451c0-1.8-0.4-3.3-1.4-4.3C163.2,445.7,161.8,445.2,160,445.2z"/>
	<path id="XMLID_274_" d="M195.8,457.9L202,437h12.3l-15.1,43.2l-0.6,1.6c-2.1,4.8-5.9,7.2-11.3,7.2c-1.5,0-3.1-0.2-4.8-0.7V480h1.5
		c1.6,0,2.9-0.2,3.7-0.7s1.5-1.3,1.9-2.5l0.9-2.5L177.7,437H190L195.8,457.9z"/>
	<path id="XMLID_278_" d="M215.3,455.2c0-3.7,0.7-7,2.2-9.9s3.5-5.1,6.2-6.6c2.7-1.5,5.8-2.3,9.5-2.3c5.5,0,9.9,1.7,13.1,5.1
		c3.2,3.4,4.8,8.1,4.8,14v0.4c0,5.8-1.6,10.3-4.8,13.7c-3.2,3.4-7.5,5.1-13,5.1c-5.3,0-9.5-1.6-12.7-4.7c-3.2-3.2-4.9-7.4-5.2-12.8
		L215.3,455.2z M226.9,455.9c0,3.4,0.5,5.9,1.6,7.5c1.1,1.6,2.7,2.4,4.8,2.4c4.1,0,6.2-3.2,6.3-9.5v-1.2c0-6.6-2.1-9.9-6.4-9.9
		c-3.9,0-5.9,2.9-6.3,8.6L226.9,455.9z"/>
	<path id="XMLID_282_" d="M266.7,437l0.4,4.3c2.6-3.3,6.1-5,10.6-5c3.9,0,6.7,1.2,8.6,3.5c1.9,2.3,2.9,5.8,3,10.4V474h-11.6v-23.3
		c0-1.9-0.4-3.2-1.1-4.1s-2.1-1.3-4.1-1.3c-2.3,0-3.9,0.9-5,2.7V474h-11.5v-37H266.7z"/>
	<path id="XMLID_284_" d="M294.1,455.2c0-5.9,1.3-10.5,3.8-13.8c2.5-3.4,6.1-5.1,10.6-5.1c3.3,0,6.1,1.3,8.3,3.9v-18.7h11.6V474H318
		l-0.6-4c-2.4,3.1-5.4,4.6-9,4.6c-4.4,0-7.9-1.7-10.5-5.1C295.4,466.3,294.1,461.5,294.1,455.2z M305.6,456c0,6.6,1.9,9.8,5.7,9.8
		c2.6,0,4.4-1.1,5.5-3.2v-14.1c-1-2.2-2.8-3.3-5.4-3.3c-3.6,0-5.5,2.9-5.8,8.6L305.6,456z"/>
	<path id="XMLID_287_" d="M367.2,457.9l6.2-20.8h12.3l-15.1,43.2l-0.6,1.6c-2.1,4.8-5.9,7.2-11.3,7.2c-1.5,0-3.1-0.2-4.8-0.7V480
		h1.5c1.6,0,2.9-0.2,3.7-0.7s1.5-1.3,1.9-2.5l0.9-2.5L349,437h12.3L367.2,457.9z"/>
	<path id="XMLID_293_" d="M386.7,455.2c0-3.7,0.7-7,2.2-9.9s3.5-5.1,6.2-6.6c2.7-1.5,5.8-2.3,9.5-2.3c5.5,0,9.9,1.7,13.1,5.1
		c3.2,3.4,4.8,8.1,4.8,14v0.4c0,5.8-1.6,10.3-4.8,13.7c-3.2,3.4-7.5,5.1-13,5.1c-5.3,0-9.5-1.6-12.7-4.7c-3.2-3.2-4.9-7.4-5.2-12.8
		L386.7,455.2z M398.2,455.9c0,3.4,0.5,5.9,1.6,7.5c1.1,1.6,2.7,2.4,4.8,2.4c4.1,0,6.2-3.2,6.3-9.5v-1.2c0-6.6-2.1-9.9-6.4-9.9
		c-3.9,0-5.9,2.9-6.3,8.6L398.2,455.9z"/>
	<path id="XMLID_296_" d="M449.5,470c-2.4,3.1-5.7,4.7-9.9,4.7c-4.1,0-7.1-1.2-9.2-3.5s-3.1-5.7-3.1-10.2v-24h11.5v24
		c0,3.2,1.5,4.8,4.6,4.8c2.6,0,4.5-0.9,5.6-2.8V437h11.6v37h-10.8L449.5,470z"/>
	<path id="XMLID_298_" d="M489.3,447.4l-3.8-0.3c-3.6,0-5.9,1.1-7,3.4V474H467v-37h10.8l0.4,4.8c1.9-3.6,4.6-5.4,8.1-5.4
		c1.2,0,2.3,0.1,3.2,0.4L489.3,447.4z"/>
	<path id="XMLID_300_" class="st8" d="M542.3,452.9h-18.9v11.9h22.3v9.2h-34.3v-49.8h34.4v9.3h-22.4V444h18.9V452.9z"/>
	<path id="XMLID_306_" class="st8" d="M565,447.2l5.4-10.2h12l-9.7,18l10.2,19h-12l-5.8-10.9l-5.7,10.9h-12.1l10.3-19l-9.7-18h12.1
		L565,447.2z"/>
	<path id="XMLID_308_" class="st8" d="M620.4,455.8c0,5.7-1.3,10.3-3.9,13.8c-2.6,3.4-6.1,5.1-10.5,5.1c-3.4,0-6.2-1.2-8.4-3.7v17.3
		h-11.5V437h10.8l0.3,3.4c2.2-2.7,5.1-4.1,8.7-4.1c4.6,0,8.1,1.7,10.6,5s3.8,8,3.8,13.9V455.8z M608.9,455.1c0-6.6-1.9-9.8-5.7-9.8
		c-2.7,0-4.6,1-5.5,2.9v14.6c1,2.1,2.8,3.1,5.5,3.1c3.7,0,5.6-3.2,5.7-9.5V455.1z"/>
	<path id="XMLID_314_" class="st8" d="M643.4,474.7c-5.7,0-10.3-1.7-13.8-5.1c-3.5-3.4-5.3-7.8-5.3-13.2v-1c0-3.8,0.7-7.1,2.1-10
		c1.4-2.9,3.4-5.1,6.1-6.7c2.7-1.6,5.9-2.4,9.6-2.4c5.2,0,9.3,1.6,12.3,4.8s4.5,7.7,4.5,13.5v4.5h-22.9c0.4,2.1,1.3,3.7,2.7,4.9
		c1.4,1.2,3.2,1.8,5.4,1.8c3.6,0,6.5-1.3,8.5-3.8l5.3,6.2c-1.4,2-3.5,3.6-6.1,4.7C649.2,474.1,646.4,474.7,643.4,474.7z
		 M642.1,445.2c-3.4,0-5.4,2.2-6,6.7h11.6V451c0-1.8-0.4-3.3-1.4-4.3C645.3,445.7,643.9,445.2,642.1,445.2z"/>
	<path id="XMLID_318_" class="st8" d="M679.2,465.8c1.6,0,2.9-0.4,3.8-1.3s1.3-2.1,1.3-3.7h10.8c0,4.1-1.5,7.4-4.4,10
		s-6.6,3.9-11.2,3.9c-5.4,0-9.6-1.7-12.7-5.1c-3.1-3.4-4.6-8-4.6-14v-0.5c0-3.7,0.7-7,2.1-9.9c1.4-2.9,3.4-5.1,6-6.6
		s5.7-2.3,9.2-2.3c4.8,0,8.6,1.3,11.5,4c2.8,2.7,4.2,6.3,4.2,10.8h-10.8c0-1.9-0.5-3.4-1.4-4.4c-0.9-1-2.2-1.5-3.8-1.5
		c-3,0-4.7,1.9-5.2,5.7c-0.2,1.2-0.2,2.9-0.2,5c0,3.7,0.4,6.3,1.3,7.7S677.3,465.8,679.2,465.8z"/>
	<path id="XMLID_320_" class="st8" d="M713.4,427.8v9.2h6.1v8h-6.1v16.9c0,1.4,0.3,2.4,0.8,2.9c0.5,0.5,1.5,0.8,3,0.8
		c1.1,0,2.1-0.1,2.9-0.2v8.2c-2.1,0.7-4.2,1-6.5,1c-4,0-6.9-0.9-8.8-2.8c-1.9-1.9-2.8-4.7-2.8-8.5V445h-4.7v-8h4.7v-9.2H713.4z"/>
	<path id="XMLID_322_" class="st8" d="M744.8,474c-0.4-0.8-0.8-1.9-1.1-3.3c-2.1,2.7-5.1,4-8.9,4c-3.5,0-6.4-1.1-8.9-3.2
		c-2.4-2.1-3.7-4.8-3.7-7.9c0-4,1.5-7,4.4-9.1c3-2.1,7.3-3.1,12.9-3.1h3.6v-2c0-3.4-1.5-5.1-4.4-5.1c-2.7,0-4.1,1.4-4.1,4.1h-11.5
		c0-3.6,1.5-6.5,4.6-8.7c3-2.2,6.9-3.3,11.6-3.3s8.4,1.2,11.2,3.5c2.7,2.3,4.1,5.5,4.2,9.5v16.4c0,3.4,0.6,6,1.6,7.8v0.6H744.8z
		 M737.6,466.5c1.4,0,2.6-0.3,3.6-0.9c0.9-0.6,1.6-1.3,2-2.1v-5.9h-3.3c-4,0-6,1.8-6,5.4c0,1,0.4,1.9,1.1,2.5
		C735.6,466.2,736.5,466.5,737.6,466.5z"/>
	<path id="XMLID_325_" class="st8" d="M774.6,427.8v9.2h6.1v8h-6.1v16.9c0,1.4,0.3,2.4,0.8,2.9c0.5,0.5,1.5,0.8,3,0.8
		c1.1,0,2.1-0.1,2.9-0.2v8.2c-2.1,0.7-4.2,1-6.5,1c-4,0-6.9-0.9-8.8-2.8c-1.9-1.9-2.8-4.7-2.8-8.5V445h-4.7v-8h4.7v-9.2H774.6z"/>
	<path id="XMLID_327_" class="st8" d="M785.1,427.5c0-1.6,0.6-3,1.8-4c1.2-1,2.7-1.6,4.6-1.6c1.9,0,3.4,0.5,4.6,1.6
		c1.2,1,1.8,2.4,1.8,4s-0.6,3-1.8,4c-1.2,1-2.7,1.6-4.6,1.6c-1.9,0-3.4-0.5-4.6-1.6C785.7,430.5,785.1,429.1,785.1,427.5z
		 M797.3,474h-11.6v-37h11.6V474z"/>
	<path id="XMLID_331_" class="st8" d="M803,455.2c0-3.7,0.7-7,2.2-9.9s3.5-5.1,6.2-6.6c2.7-1.5,5.8-2.3,9.5-2.3
		c5.5,0,9.9,1.7,13.1,5.1c3.2,3.4,4.8,8.1,4.8,14v0.4c0,5.8-1.6,10.3-4.8,13.7c-3.2,3.4-7.5,5.1-13,5.1c-5.3,0-9.5-1.6-12.7-4.7
		c-3.2-3.2-4.9-7.4-5.2-12.8L803,455.2z M814.5,455.9c0,3.4,0.5,5.9,1.6,7.5c1.1,1.6,2.7,2.4,4.8,2.4c4.1,0,6.2-3.2,6.3-9.5v-1.2
		c0-6.6-2.1-9.9-6.4-9.9c-3.9,0-5.9,2.9-6.3,8.6L814.5,455.9z"/>
	<path id="XMLID_335_" class="st8" d="M854.3,437l0.4,4.3c2.6-3.3,6.1-5,10.6-5c3.9,0,6.7,1.2,8.6,3.5c1.9,2.3,2.9,5.8,3,10.4V474
		h-11.6v-23.3c0-1.9-0.4-3.2-1.1-4.1s-2.1-1.3-4.1-1.3c-2.3,0-3.9,0.9-5,2.7V474h-11.5v-37H854.3z"/>
	<path id="XMLID_338_" class="st8" d="M902.6,463.6c0-1-0.5-1.8-1.5-2.4c-1-0.6-3-1.2-5.8-1.8c-2.9-0.6-5.2-1.5-7.1-2.5
		c-1.9-1-3.3-2.3-4.3-3.8c-1-1.5-1.5-3.2-1.5-5.1c0-3.4,1.4-6.2,4.2-8.4s6.5-3.3,11-3.3c4.9,0,8.8,1.1,11.8,3.3
		c3,2.2,4.4,5.1,4.4,8.7h-11.6c0-3-1.6-4.4-4.7-4.4c-1.2,0-2.2,0.3-3,1s-1.2,1.5-1.2,2.5c0,1,0.5,1.9,1.5,2.5c1,0.6,2.6,1.2,4.8,1.6
		c2.2,0.4,4.1,0.9,5.8,1.5c5.6,1.9,8.3,5.3,8.3,10.3c0,3.4-1.5,6.1-4.5,8.2c-3,2.1-6.9,3.2-11.6,3.2c-3.2,0-6-0.6-8.5-1.7
		c-2.5-1.1-4.4-2.7-5.8-4.6c-1.4-2-2.1-4-2.1-6.2h10.8c0,1.7,0.6,3,1.7,3.7s2.5,1.2,4.2,1.2c1.6,0,2.8-0.3,3.5-1
		C902.2,465.5,902.6,464.6,902.6,463.6z"/>
</g>
</svg>
