<?xml version="1.0" encoding="utf-8"?>
<!-- Generator: Adobe Illustrator 19.0.0, SVG Export Plug-In . SVG Version: 6.00 Build 0)  -->
<svg version="1.1" id="Layer_1" xmlns="http://www.w3.org/2000/svg" xmlns:xlink="http://www.w3.org/1999/xlink" x="0px" y="0px"
	 viewBox="0 0 1980 780" style="enable-background:new 0 0 1980 780;" xml:space="preserve">
<style type="text/css">
	.st0{clip-path:url(#XMLID_63_);fill:#F4F4F4;}
	.st1{clip-path:url(#XMLID_63_);}
	.st2{fill:#ECECEC;}
	.st3{fill:#E7E7E7;}
	.st4{fill:#F0F0F0;}
	.st5{fill:#FAFAFA;}
	.st6{fill:#FFFFFF;}
	.st7{opacity:0.4;}
	.st8{fill:#E1E1E1;}
	.st9{fill:#F5F5F5;}
	.st10{opacity:0.7;fill:#E7E7E7;}
	.st11{fill:#1A2E35;}
	.st12{fill:#FF8B7B;}
	.st13{fill:#D94D65;}
	.st14{opacity:0.2;}
	.st15{fill:#007CFF;}
	.st16{fill:#50A6B1;}
	.st17{fill:#FF5551;}
	.st18{fill:#C0D159;}
	.st19{fill:#AFBA49;}
	.st20{fill:#375A64;}
	.st21{opacity:0.1;}
	.st22{fill:#F7728F;}
</style>
<g id="XMLID_208_">
	<defs>
		<rect id="XMLID_207_" y="1.5" width="1980" height="780"/>
	</defs>
	<clipPath id="XMLID_63_">
		<use xlink:href="#XMLID_207_"  style="overflow:visible;"/>
	</clipPath>
	<rect id="XMLID_97_" class="st0" width="1980" height="780"/>
	<g id="XMLID_209_" class="st1">
		<g id="XMLID_497_">
			<rect id="XMLID_510_" x="1031.6" y="641.9" class="st2" width="863.2" height="0.4"/>
			<rect id="XMLID_509_" x="1716.8" y="669.7" class="st2" width="91.6" height="0.4"/>
			<rect id="XMLID_508_" x="1502.2" y="664.2" class="st2" width="101.3" height="0.4"/>
			<rect id="XMLID_507_" x="1688" y="661.8" class="st2" width="33.1" height="0.4"/>
			<rect id="XMLID_506_" x="1205.1" y="656.5" class="st2" width="74.6" height="0.4"/>
			<rect id="XMLID_505_" x="1168.8" y="656.5" class="st2" width="26.7" height="0.4"/>
			<rect id="XMLID_504_" x="1258.6" y="663.8" class="st2" width="93.6" height="0.4"/>
			<path id="XMLID_501_" class="st2" d="M1440.8,564.9h-333.4c-5.4,0-9.9-4.4-9.9-9.9V86.4c0-5.4,4.4-9.9,9.9-9.9h333.4
				c5.4,0,9.9,4.4,9.9,9.9V555C1450.7,560.5,1446.3,564.9,1440.8,564.9z M1107.5,77c-5.2,0-9.4,4.2-9.4,9.4V555
				c0,5.2,4.2,9.4,9.4,9.4h333.4c5.2,0,9.4-4.2,9.4-9.4V86.4c0-5.2-4.2-9.4-9.4-9.4H1107.5z"/>
			<path id="XMLID_498_" class="st2" d="M1814.3,564.9h-333.4c-5.4,0-9.9-4.4-9.9-9.9V86.4c0-5.4,4.4-9.9,9.9-9.9h333.4
				c5.4,0,9.9,4.4,9.9,9.9V555C1824.1,560.5,1819.7,564.9,1814.3,564.9z M1480.9,77c-5.2,0-9.4,4.2-9.4,9.4V555
				c0,5.2,4.2,9.4,9.4,9.4h333.4c5.2,0,9.4-4.2,9.4-9.4V86.4c0-5.2-4.2-9.4-9.4-9.4H1480.9z"/>
		</g>
		<g id="XMLID_434_">
			<g id="XMLID_470_">
				<rect id="XMLID_496_" x="1511.1" y="99.1" class="st3" width="245.4" height="229.7"/>
				<rect id="XMLID_495_" x="1512.9" y="99.1" class="st4" width="256.9" height="229.7"/>
				<rect id="XMLID_494_" x="1511.1" y="328.8" class="st3" width="245.4" height="11.3"/>
				<rect id="XMLID_493_" x="1535" y="328.8" class="st4" width="256.9" height="11.3"/>
				<rect id="XMLID_492_" x="1531.4" y="117.6" class="st5" width="219.8" height="192.6"/>
				<polygon id="XMLID_491_" class="st6" points="1566.8,310.2 1589.6,117.6 1667.4,117.6 1644.6,310.2 				"/>
				<rect id="XMLID_490_" x="1748.9" y="117.6" class="st3" width="2.4" height="192.6"/>
				<g id="XMLID_471_" class="st7">
					<polygon id="XMLID_489_" class="st8" points="1774.2,119.6 1524.3,119.6 1522.6,114 1772.5,114 					"/>
					<polygon id="XMLID_488_" class="st8" points="1774.2,129 1524.3,129 1522.6,123.4 1772.5,123.4 					"/>
					<polygon id="XMLID_487_" class="st8" points="1774.2,138.4 1524.3,138.4 1522.6,132.8 1772.5,132.8 					"/>
					<polygon id="XMLID_486_" class="st8" points="1774.2,147.8 1524.3,147.8 1522.6,142.1 1772.5,142.1 					"/>
					<polygon id="XMLID_485_" class="st8" points="1774.2,157.1 1524.3,157.1 1522.6,151.5 1772.5,151.5 					"/>
					<polygon id="XMLID_484_" class="st8" points="1774.2,166.5 1524.3,166.5 1522.6,160.9 1772.5,160.9 					"/>
					<polygon id="XMLID_483_" class="st8" points="1774.2,175.9 1524.3,175.9 1522.6,170.3 1772.5,170.3 					"/>
					<polygon id="XMLID_482_" class="st8" points="1774.2,185.3 1524.3,185.3 1522.6,179.6 1772.5,179.6 					"/>
					<polygon id="XMLID_481_" class="st8" points="1774.2,194.6 1524.3,194.6 1522.6,189 1772.5,189 					"/>
					<polygon id="XMLID_480_" class="st8" points="1774.2,204 1524.3,204 1522.6,198.4 1772.5,198.4 					"/>
					<polygon id="XMLID_479_" class="st8" points="1774.2,213.4 1524.3,213.4 1522.6,207.8 1772.5,207.8 					"/>
					<polygon id="XMLID_478_" class="st8" points="1774.2,222.8 1524.3,222.8 1522.6,217.1 1772.5,217.1 					"/>
					<polygon id="XMLID_477_" class="st8" points="1774.2,232.1 1524.3,232.1 1522.6,226.5 1772.5,226.5 					"/>
					<polygon id="XMLID_476_" class="st8" points="1774.2,241.5 1524.3,241.5 1522.6,235.9 1772.5,235.9 					"/>
					<polygon id="XMLID_475_" class="st8" points="1774.2,250.9 1524.3,250.9 1522.6,245.3 1772.5,245.3 					"/>
					<polygon id="XMLID_474_" class="st8" points="1774.2,260.3 1524.3,260.3 1522.6,254.6 1772.5,254.6 					"/>
					<polygon id="XMLID_473_" class="st8" points="1774.2,269.6 1524.3,269.6 1522.6,264 1772.5,264 					"/>
					<polygon id="XMLID_472_" class="st8" points="1774.2,279 1524.3,279 1522.6,273.4 1772.5,273.4 					"/>
				</g>
			</g>
			<g id="XMLID_463_">
				<g id="XMLID_464_">
					<g id="XMLID_465_">
						<rect id="XMLID_469_" x="1171.6" y="105.3" class="st3" width="203.1" height="201.6"/>
						<rect id="XMLID_468_" x="1173.7" y="105.3" class="st4" width="212" height="201.6"/>
						<rect id="XMLID_467_" x="1183.4" y="115.1" class="st6" width="192.4" height="182"/>
						<rect id="XMLID_466_" x="1374.6" y="115.1" class="st3" width="1.2" height="182"/>
					</g>
				</g>
			</g>
			<g id="XMLID_444_">
				<g id="XMLID_453_">
					<g id="XMLID_456_">
						<rect id="XMLID_462_" x="1163.4" y="404" class="st4" width="55.1" height="227.1"/>
						<rect id="XMLID_461_" x="1174" y="631.2" class="st4" width="211.8" height="10.7"/>
						<rect id="XMLID_460_" x="1218.5" y="404" class="st9" width="177.8" height="227.1"/>
						<rect id="XMLID_459_" x="1240.2" y="489.8" class="st4" width="134.4" height="55.5"/>
						<rect id="XMLID_458_" x="1240.2" y="555.4" class="st4" width="134.4" height="55.5"/>
						<rect id="XMLID_457_" x="1240.2" y="424.3" class="st4" width="134.4" height="55.5"/>
					</g>
					<rect id="XMLID_455_" x="1218.5" y="385.4" class="st4" width="185.1" height="18.7"/>
					<rect id="XMLID_454_" x="1155.7" y="385.4" class="st3" width="62.9" height="18.7"/>
				</g>
				<g id="XMLID_445_">
					<g id="XMLID_449_">
						<rect id="XMLID_452_" x="1184.6" y="345.2" class="st4" width="54.8" height="40.1"/>
						<rect id="XMLID_451_" x="1239.4" y="345.2" class="st9" width="97.2" height="40.1"/>
						<rect id="XMLID_450_" x="1184.6" y="353.6" class="st10" width="152.6" height="4.5"/>
					</g>
					<g id="XMLID_446_">
						<rect id="XMLID_448_" x="1181.6" y="342.5" class="st4" width="57.8" height="13"/>
						<rect id="XMLID_447_" x="1239.4" y="342.5" class="st9" width="100.3" height="13"/>
					</g>
				</g>
			</g>
			<g id="XMLID_440_">
				<polygon id="XMLID_443_" class="st4" points="1771.1,385.4 1585.9,385.4 1606.1,641.9 1791.3,641.9 				"/>
				<polygon id="XMLID_442_" class="st9" points="1780.7,385.4 1595.4,385.4 1615.6,641.9 1800.8,641.9 				"/>
				<polygon id="XMLID_441_" class="st6" points="1648.6,606.1 1634.1,421.2 1747.6,421.2 1762.2,606.1 				"/>
			</g>
			<g id="XMLID_435_">
				<circle id="XMLID_439_" class="st3" cx="1583.2" cy="599.1" r="42.8"/>
				
					<ellipse id="XMLID_438_" transform="matrix(-0.7198 0.6941 -0.6941 -0.7198 3159.5347 -132.4913)" class="st10" cx="1606.5" cy="571.4" rx="3.2" ry="6.6"/>
				
					<ellipse id="XMLID_437_" transform="matrix(-0.1887 0.982 -0.982 -0.1887 2438.792 -889.973)" class="st10" cx="1587" cy="562.4" rx="3.2" ry="6.6"/>
				
					<ellipse id="XMLID_436_" transform="matrix(-0.3312 0.9435 -0.9435 -0.3312 2662.6646 -733.8613)" class="st10" cx="1591.4" cy="576.7" rx="4.1" ry="6.6"/>
			</g>
		</g>
		<ellipse id="_x3C_Path_x3E__85_" class="st9" cx="1463.3" cy="700.3" rx="334.7" ry="19.5"/>
		<g id="XMLID_378_">
			<path id="XMLID_433_" class="st11" d="M1389.6,256.5c-21.9-7.7-13.2-69.4-65.9-36.2c-12,7.5-26.5,56.9-16.4,68.4
				C1321.3,304.6,1415.5,265.5,1389.6,256.5z"/>
			<path id="XMLID_432_" class="st12" d="M1327.9,315.1c-0.4,0.8-0.7,1.3-1,1.8l-1,1.6c-0.7,1.1-1.4,2.1-2.1,3
				c-1.5,2-3.1,3.9-4.7,5.7c-3.4,3.6-7.3,6.8-11.7,9.5c-4.4,2.7-9.3,4.7-14.5,5.7c-2.6,0.5-5.2,0.8-7.8,0.8
				c-1.3,0.1-2.6-0.1-3.9-0.1l-1.9-0.2l-1-0.1c-0.4-0.1-0.9-0.2-1.4-0.2c-3.7-0.9-6.6-2.8-8.7-4.7c-2.2-2-3.8-4.1-5.2-6.2
				c-2.8-4.2-4.7-8.5-6.4-12.9c-3.3-8.7-5.3-17.3-6.6-26.3l7.4-1.7c2.8,8,6,16,9.7,23.4c1.9,3.7,4,7.2,6.3,10
				c1.1,1.4,2.3,2.7,3.5,3.6c1.2,0.9,2.2,1.3,2.8,1.3l2.3,0.1c0.9,0,1.8,0,2.6-0.1c1.7-0.1,3.5-0.4,5.1-0.8c3.4-0.9,6.6-2.3,9.6-4.3
				c3-1.9,5.8-4.5,8.4-7.2c1.3-1.4,2.5-2.8,3.7-4.4c0.6-0.8,1.1-1.5,1.6-2.3l0.8-1.2l0.6-1L1327.9,315.1z"/>
			<path id="XMLID_431_" class="st13" d="M1332,297.2c-15.5,0.1-27.8,14.4-27.8,14.4l18.9,25.6c0,0,15.3-14.4,16.9-22.6
				C1341.8,306,1341.4,297.1,1332,297.2z"/>
			<path id="XMLID_430_" class="st12" d="M1256.6,294.5l6.8-11.2l-15.7,0.4c0,0-1.2,7.4,2.9,12.1L1256.6,294.5z"/>
			<polygon id="XMLID_429_" class="st12" points="1262.8,270.1 1251.2,272.6 1247.7,283.6 1263.4,283.2 			"/>
			<polygon id="XMLID_428_" class="st12" points="1409.9,684.3 1395.1,685.8 1387.5,651.2 1402.4,649.8 			"/>
			<polygon id="XMLID_427_" class="st12" points="1544.5,639.6 1533.3,649.6 1506.5,626.8 1517.8,616.8 			"/>
			<path id="XMLID_426_" class="st11" d="M1529.2,647.7l6.5-15.6c0.2-0.6,0.8-0.9,1.4-0.7l13.1,3.4c1.4,0.4,2.1,2,1.5,3.3
				c-2.4,5.4-3.8,7.9-6.6,14.7c-1.8,4.2-5,13.8-7.5,19.6c-2.4,5.7-8.3,3.7-7.8,1.1c2.2-11.8,0.8-18.2-0.7-23.1
				C1528.9,649.5,1528.9,648.5,1529.2,647.7z"/>
			<path id="XMLID_425_" class="st11" d="M1393.2,681.3l17.8,0c0.6,0,1.2,0.5,1.4,1.1l3.9,14.1c0.4,1.5-0.7,2.8-2.2,2.8
				c-6.2-0.1-9.3-0.5-17.1-0.5c-4.8,0-17.3,0.5-24,0.5c-6.5,0-7.9-6.6-5.2-7.2c12.1-2.7,19.1-6.4,22.8-9.9
				C1391.4,681.6,1392.3,681.3,1393.2,681.3z"/>
			<polygon id="XMLID_424_" class="st14" points="1387.5,651.2 1391.4,669 1406.6,669 1402.4,649.8 			"/>
			<polygon id="XMLID_423_" class="st14" points="1517.8,616.8 1506.6,626.8 1520.3,638.5 1531.6,628.5 			"/>
			<path id="XMLID_422_" class="st13" d="M1317.5,301.3c0,0-6.2,4.4,31.3,85.5c23.3-6.5,47.5-13.2,58.8-16.4
				c-7.7-23.7-11.8-38.4-14-90.7c0,0-13.1,0.7-25.9,3.7c-10,2.3-18.2,4.2-26.7,7.4C1329.8,295.1,1317.5,301.3,1317.5,301.3z"/>
			<path id="XMLID_421_" class="st12" d="M1356.7,254c0.7,9.1,3.4,25.3,11,29.3c0,0,2.7,19.3-12.2,36.9
				c-20.4-10.6-14.5-29.5-14.5-29.5c8.9-5,6.7-12,3.2-18.2L1356.7,254z"/>
			<path id="XMLID_420_" class="st14" d="M1359.8,271.3l-10.3-3.5c0,1,0.5,4,1.5,5.8c1.7,3.4,7.4,4.6,11.5,4.2
				C1361.5,275.9,1360.6,273.7,1359.8,271.3z"/>
			<path id="XMLID_419_" class="st12" d="M1326.9,244.6c4,14.4,5.3,20.6,14.3,26.5c13.4,8.9,30.2,0.9,30.7-14.4
				c0.4-13.8-6.2-35-21.7-37.8C1334.9,216.2,1323,230.2,1326.9,244.6z"/>
			<path id="XMLID_418_" class="st11" d="M1348.4,216.6c-1.2,9.8-8.5,43.4-22.2,43.1c-11.3-9.9-5.7-28.5-2.2-36.1
				C1327.4,216,1348.4,216.6,1348.4,216.6z"/>
			<path id="XMLID_417_" class="st11" d="M1342.6,223.5c6.9,3.7,20.5,5.3,18.3-0.3c-2.2-5.6-1.5-10.3-10.9-10.1
				C1340.7,213.1,1342.6,223.5,1342.6,223.5z"/>
			<path id="XMLID_416_" class="st12" d="M1327.4,258.2c0.9,2.9,3.1,5.2,5.4,6.3c3.4,1.7,5.9-1.2,5.5-4.8c-0.3-3.2-2.5-8-6.2-8.3
				C1328.5,251.3,1326.4,254.8,1327.4,258.2z"/>
			<g id="XMLID_412_">
				<path id="XMLID_415_" class="st15" d="M1348.8,386.8c0,0-3.4,118.8,6.1,163.7c9.9,46.7,29.2,113.3,29.2,113.3l28.2-1.4
					c0,0-13.6-84.6-16.9-120.7c-4.6-49.7-3.5-167-3.5-167L1348.8,386.8z"/>
				<path id="XMLID_414_" class="st16" d="M1348.8,386.8c0,0-3.4,118.8,6.1,163.7c9.9,46.7,29.2,113.3,29.2,113.3l28.2-1.4
					c0,0-13.6-84.6-16.9-120.7c-4.6-49.7-3.5-167-3.5-167L1348.8,386.8z"/>
				<path id="XMLID_413_" class="st14" d="M1391.8,419.5c-4.4-11-8.2-17.1-8.7-6.1c-1,23.2,3,49.7,9.4,62.8
					C1392,456.6,1391.9,436.6,1391.8,419.5z"/>
			</g>
			<polygon id="XMLID_411_" class="st11" points="1414.3,663.8 1382.2,665.4 1378.4,653.7 1413.2,650.9 			"/>
			<g id="XMLID_408_">
				<path id="XMLID_410_" class="st15" d="M1364.3,382.5c0,0,36.1,97.1,60.4,150.7c19.6,43.3,89.2,103.8,89.2,103.8l15.8-13.4
					c0,0-50.3-68.9-63.9-98.3c-43.5-94-32.1-133.8-58.3-154.8L1364.3,382.5z"/>
				<path id="XMLID_409_" class="st16" d="M1364.3,382.5c0,0,36.1,97.1,60.4,150.7c19.6,43.3,89.2,103.8,89.2,103.8l15.8-13.4
					c0,0-50.3-68.9-63.9-98.3c-43.5-94-32.1-133.8-58.3-154.8L1364.3,382.5z"/>
			</g>
			<polygon id="XMLID_407_" class="st11" points="1531.1,623.4 1513.4,639 1504.4,632.5 1525.2,614.7 			"/>
			<path id="XMLID_406_" class="st15" d="M1407.5,366.7l4.1,4.5c0.3,0.4,0,0.9-0.7,1.1l-61.7,17.2c-0.5,0.1-1,0-1.2-0.3l-2-5.1
				c-0.1-0.4,0.2-0.8,0.8-1l59.6-16.6C1406.9,366.5,1407.3,366.5,1407.5,366.7z"/>
			<path id="XMLID_405_" class="st11" d="M1401.4,375.6l1.6-0.4c0.3-0.1,0.5-0.3,0.4-0.5l-2.7-6.6c-0.1-0.2-0.4-0.3-0.7-0.2
				l-1.6,0.4c-0.3,0.1-0.5,0.3-0.4,0.5l2.7,6.6C1400.7,375.6,1401.1,375.7,1401.4,375.6z"/>
			<path id="XMLID_404_" class="st11" d="M1353.9,388.9l1.6-0.4c0.3-0.1,0.5-0.3,0.4-0.5l-2.7-6.6c-0.1-0.2-0.4-0.3-0.7-0.2
				l-1.6,0.4c-0.3,0.1-0.5,0.3-0.4,0.5l2.7,6.6C1353.2,388.9,1353.6,388.9,1353.9,388.9z"/>
			<path id="XMLID_403_" class="st11" d="M1377.6,382.2l1.6-0.4c0.3-0.1,0.5-0.3,0.4-0.5l-2.7-6.6c-0.1-0.2-0.4-0.3-0.7-0.2
				l-1.6,0.4c-0.3,0.1-0.5,0.3-0.4,0.5l2.7,6.6C1377,382.2,1377.3,382.3,1377.6,382.2z"/>
			
				<ellipse id="XMLID_402_" transform="matrix(-0.9786 0.2059 -0.2059 -0.9786 2723.7871 203.8452)" class="st11" cx="1351.3" cy="243.7" rx="1.4" ry="2.2"/>
			
				<ellipse id="XMLID_401_" transform="matrix(-0.9786 0.206 -0.206 -0.9786 2749.741 195.4799)" class="st11" cx="1364.7" cy="240.9" rx="1.4" ry="2.2"/>
			<path id="XMLID_400_" class="st11" d="M1363.9,238.8l2.7-1.4C1366.6,237.4,1365.6,240,1363.9,238.8z"/>
			<path id="XMLID_399_" class="st17" d="M1360.2,243.9c0,0,3.1,4.7,5.8,6.7c-1.3,1.8-4.1,1.7-4.1,1.7L1360.2,243.9z"/>
			<path id="XMLID_398_" class="st11" d="M1358.9,257.8c0.1-0.1,0.2-0.2,0.1-0.4c0-0.2-0.2-0.3-0.4-0.3c-5.2,1.1-8.4-2-8.4-2.1
				c-0.1-0.1-0.4-0.1-0.5,0c-0.1,0.1-0.1,0.4,0,0.5c0.1,0.1,3.5,3.4,9.1,2.3C1358.8,257.8,1358.8,257.8,1358.9,257.8z"/>
			<path id="XMLID_397_" class="st11" d="M1345.2,240.4c0.1-0.1,0.2-0.2,0.2-0.3c1.4-2.9,3.9-3.3,4-3.3c0.4-0.1,0.7-0.4,0.6-0.8
				c-0.1-0.4-0.4-0.7-0.8-0.6c-0.1,0-3.4,0.5-5.1,4.1c-0.2,0.4,0,0.8,0.3,0.9C1344.7,240.6,1345,240.5,1345.2,240.4z"/>
			<path id="XMLID_396_" class="st11" d="M1368.3,233.6c0,0,0.1-0.1,0.1-0.1c0.3-0.3,0.3-0.7,0-1c-2.8-2.8-6-2.1-6.2-2.1
				c-0.4,0.1-0.6,0.5-0.5,0.8c0.1,0.4,0.5,0.6,0.8,0.5c0.1,0,2.6-0.5,4.9,1.7C1367.7,233.7,1368.1,233.8,1368.3,233.6z"/>
			<path id="XMLID_395_" class="st12" d="M1404.1,293.3c1.3,1.5,3,3.3,4.5,5c1.6,1.7,3.2,3.3,4.9,5c3.3,3.2,6.7,6.4,10.3,9.3
				c7.1,5.8,14.7,11.1,22.8,14.7c7.6,3.4,16.8,4.9,26.1,5.6c4.7,0.4,9.4,0.5,14.1,0.4c4.7,0,9.6-0.3,14.2-0.6l1.4,7.5
				c-9.9,2.6-19.7,3.9-29.9,4.3c-5.1,0.1-10.3,0-15.5-0.6c-5.2-0.6-10.5-1.7-15.8-3.7c-5-1.9-9.7-4.3-14.2-6.9
				c-4.5-2.7-8.7-5.6-12.8-8.8c-4-3.2-7.9-6.5-11.6-10c-1.8-1.8-3.6-3.6-5.4-5.5c-1.8-1.9-3.4-3.7-5.2-5.9L1404.1,293.3z"/>
			<path id="XMLID_394_" class="st12" d="M1499.2,340.9l14.9-2.3l-12.3-11.7c0,0-5.8,4.7-5.8,11L1499.2,340.9z"/>
			<polygon id="XMLID_393_" class="st12" points="1522.1,326.7 1511.8,320.8 1501.8,326.8 1514.1,338.5 			"/>
			<path id="XMLID_392_" class="st13" d="M1393.6,279.7c6.4,0.2,19.1,18.5,19.1,18.5l-18.3,22.7c0,0-10.7-14.9-10.3-23.3
				C1384.4,289,1386.3,279.5,1393.6,279.7z"/>
			<path id="XMLID_389_" class="st15" d="M1526.4,655.8c-0.2-0.1-0.3-0.1-0.5-0.2c-0.5-0.3-0.6-0.7-0.6-1c-0.1-1.9,4.4-5,4.9-5.3
				c0.1-0.1,0.3-0.1,0.4,0c0.1,0.1,0.2,0.2,0.2,0.4c-0.3,2-1.1,5.4-2.9,6.2C1527.4,656,1526.9,656,1526.4,655.8z M1529.9,650.3
				c-1.8,1.3-3.9,3.2-3.9,4.2c0,0.1,0,0.3,0.3,0.4c0.5,0.3,0.9,0.3,1.3,0.2C1528.5,654.7,1529.3,652.9,1529.9,650.3z"/>
			<path id="XMLID_386_" class="st15" d="M1524.2,651.3c-0.1-0.1-0.3-0.1-0.4-0.2c-0.3-0.2-0.7-0.6-0.5-1.5c0.2-0.5,0.5-1,1-1.2
				c2-0.9,6,0.7,6.1,0.8c0.1,0,0.2,0.2,0.2,0.3c0,0.1,0,0.3-0.1,0.3C1529.4,650.7,1525.9,651.9,1524.2,651.3z M1529.5,649.6
				c-1.4-0.5-3.7-1.1-4.8-0.5c-0.3,0.2-0.5,0.4-0.6,0.8c-0.1,0.4,0,0.6,0.2,0.7c0.9,0.6,3.8,0,5.4-0.9
				C1529.5,649.6,1529.5,649.6,1529.5,649.6z"/>
			<path id="XMLID_383_" class="st15" d="M1385.3,684.2c-1.4,0-2.7-0.2-3.5-0.8c-0.6-0.4-0.9-1-0.9-1.7c0-0.5,0.2-0.8,0.4-1
				c1.6-1.1,7.7,1.7,8.9,2.2c0.1,0.1,0.2,0.2,0.2,0.4c0,0.2-0.1,0.3-0.3,0.3C1388.9,683.9,1387,684.2,1385.3,684.2z M1382.5,681.1
				c-0.3,0-0.5,0-0.7,0.2c-0.1,0-0.1,0.1-0.1,0.3c0,0.5,0.2,0.9,0.6,1.2c1,0.8,3.5,0.9,6.7,0.3
				C1386.8,682.2,1383.9,681.1,1382.5,681.1z"/>
			<path id="XMLID_380_" class="st15" d="M1390.1,683.6c0,0-0.1,0-0.1,0c-2-0.8-6.1-4.1-5.8-5.8c0.1-0.4,0.3-0.8,1.2-0.9
				c3.5-0.4,5,6,5.1,6.3c0,0.1,0,0.3-0.1,0.4C1390.3,683.6,1390.2,683.6,1390.1,683.6z M1385.7,677.6c-0.1,0-0.2,0-0.2,0
				c-0.4,0-0.6,0.2-0.6,0.3c-0.1,1,2.7,3.5,4.7,4.7C1389.1,681,1387.8,677.6,1385.7,677.6z"/>
			<path id="XMLID_379_" class="st11" d="M1350.5,241.7l2.7-1.4C1353.2,240.3,1352.2,242.8,1350.5,241.7z"/>
		</g>
		<g id="XMLID_357_">
			<g id="XMLID_361_">
				<g id="XMLID_375_">
					<path id="XMLID_377_" class="st15" d="M1439,403.8c0,0-30.7,25.1-19.3,80.2c6.7,32.5,27,49,44.8,45.4
						c17.8-3.6,30-26.7,23.5-59.3C1477,414.9,1439,403.8,1439,403.8z"/>
					<path id="XMLID_376_" class="st18" d="M1439,403.8c0,0-30.7,25.1-19.3,80.2c6.7,32.5,27,49,44.8,45.4
						c17.8-3.6,30-26.7,23.5-59.3C1477,414.9,1439,403.8,1439,403.8z"/>
				</g>
				<path id="XMLID_374_" class="st18" d="M1632.4,296.8c0,0-56.3-12.5-109.2,50.2c-31.1,37-31.8,75.1-11.6,92.2
					c20.1,17.1,57.6,10.2,89.1-26.5C1653.9,350.4,1632.4,296.8,1632.4,296.8z"/>
				<path id="XMLID_373_" class="st18" d="M1558.4,47.9c0,0-12.6,3.5-16.5,21.6c-2.3,10.7,1.6,18.4,7.4,19.7
					c5.8,1.3,12.6-4.1,15-14.7C1568.4,56.3,1558.4,47.9,1558.4,47.9z"/>
				<g id="XMLID_370_">
					<path id="XMLID_372_" class="st15" d="M1458.6,605.9c-7.4-26-10.6-52.7-10.1-78.9c0.5-26.2,4.6-51.9,11.3-76.5
						c3.4-12.3,7.4-24.3,11.9-36c2.3-5.9,4.7-11.6,7.2-17.3c1.2-2.9,2.6-5.7,3.9-8.5l1.9-4.1l1.9-4c10.1-21.2,19.6-42.4,28.3-64
						c8.6-21.6,16.4-43.5,22.7-65.8c6.3-22.3,11.1-45,13.4-68c2.3-23,2.1-46.3-2.1-69.2c-4.2-22.8-12.8-45.1-26-64.8
						c15.3,18.1,26.7,39.8,33.7,63c7,23.2,10,47.5,10.3,71.8c0.3,24.3-2.1,48.6-6,72.5c-3.9,23.9-9.4,47.5-15.9,70.8
						c-6.4,23.3-13.8,46.2-21.7,68.9l-1.5,4.2l-0.7,2.1l-0.7,2c-0.9,2.7-1.8,5.3-2.6,8c-1.7,5.4-3.3,10.7-4.7,16.1
						c-2.9,10.8-5.2,21.6-6.9,32.5c-3.4,21.7-4.3,43.5-2.3,64.5c2,21.1,6.9,41.5,14.7,60.4L1458.6,605.9z"/>
					<path id="XMLID_371_" class="st19" d="M1458.6,605.9c-7.4-26-10.6-52.7-10.1-78.9c0.5-26.2,4.6-51.9,11.3-76.5
						c3.4-12.3,7.4-24.3,11.9-36c2.3-5.9,4.7-11.6,7.2-17.3c1.2-2.9,2.6-5.7,3.9-8.5l1.9-4.1l1.9-4c10.1-21.2,19.6-42.4,28.3-64
						c8.6-21.6,16.4-43.5,22.7-65.8c6.3-22.3,11.1-45,13.4-68c2.3-23,2.1-46.3-2.1-69.2c-4.2-22.8-12.8-45.1-26-64.8
						c15.3,18.1,26.7,39.8,33.7,63c7,23.2,10,47.5,10.3,71.8c0.3,24.3-2.1,48.6-6,72.5c-3.9,23.9-9.4,47.5-15.9,70.8
						c-6.4,23.3-13.8,46.2-21.7,68.9l-1.5,4.2l-0.7,2.1l-0.7,2c-0.9,2.7-1.8,5.3-2.6,8c-1.7,5.4-3.3,10.7-4.7,16.1
						c-2.9,10.8-5.2,21.6-6.9,32.5c-3.4,21.7-4.3,43.5-2.3,64.5c2,21.1,6.9,41.5,14.7,60.4L1458.6,605.9z"/>
				</g>
				<path id="XMLID_369_" class="st20" d="M1577.6,544.2l-1.8,19.8l-11.5,128.3c-0.4,4.5-4.2,8-8.7,8h-145.8c-4.5,0-8.3-3.5-8.7-8
					L1389.6,564l-1.8-19.8H1577.6z"/>
				
					<rect id="XMLID_368_" x="1573.5" y="615.6" transform="matrix(0.996 8.909314e-002 -8.909314e-002 0.996 63.1661 -137.7215)" class="st15" width="1.7" height="46.3"/>
				
					<rect id="XMLID_367_" x="1577.2" y="591.3" transform="matrix(0.996 8.909314e-002 -8.909314e-002 0.996 59.4421 -138.2232)" class="st15" width="1.7" height="10.9"/>
				<g id="XMLID_364_">
					<path id="XMLID_366_" class="st15" d="M1454.1,137.7c0,0-32.6,43.3,0.6,112.9c19.6,41,52,56.3,74.4,45.7
						c22.4-10.6,31.1-45.3,11.8-86.5C1508.2,140,1454.1,137.7,1454.1,137.7z"/>
					<path id="XMLID_365_" class="st18" d="M1454.1,137.7c0,0-32.6,43.3,0.6,112.9c19.6,41,52,56.3,74.4,45.7
						c22.4-10.6,31.1-45.3,11.8-86.5C1508.2,140,1454.1,137.7,1454.1,137.7z"/>
				</g>
				<polygon id="XMLID_363_" class="st14" points="1577.6,544.2 1575.8,564 1389.6,564 1387.8,544.2 				"/>
				<path id="XMLID_362_" class="st20" d="M1590.6,554.1h-215.8c-1.3,0-2.4-1.1-2.4-2.4v-29.5c0-1.3,1.1-2.4,2.4-2.4h215.8
					c1.3,0,2.4,1.1,2.4,2.4v29.5C1593,553,1591.9,554.1,1590.6,554.1z"/>
			</g>
			<g id="XMLID_358_">
				<circle id="XMLID_360_" class="st18" cx="1629.6" cy="180.6" r="69.1"/>
				<path id="XMLID_359_" class="st21" d="M1685.1,197.8c6.6-25.8-5.8-53.4-30.7-65.2c-28.3-13.4-62-1.2-75.4,27
					c-9,19-6.4,40.5,4.8,56.6c-13-16.7-16.3-40-6.7-60.4c13.7-29,48.3-41.4,77.3-27.7C1680.9,140.7,1693.5,170.6,1685.1,197.8z"/>
			</g>
		</g>
		<g id="XMLID_125_">
			<g id="XMLID_222_">
				<g id="XMLID_223_">
					<g id="XMLID_224_">
						<g id="XMLID_225_">
							<path id="XMLID_226_" class="st13" d="M1700.4,632c0.9-3.1,2.8-6.2,5.8-7.5c3.1-1.3,6.7-0.6,9.9,0.6c3.2,1.2,6.3,2.7,9.7,2.9
								c3.4,0.2,7.2-1.4,8.2-4.6c1-3-0.9-6.3-3.2-8.5c-4.8-4.7-12.1-6.6-18.6-5.1c-6.5,1.6-12.1,6.6-14.3,13"/>
						</g>
					</g>
				</g>
			</g>
			<g id="XMLID_132_">
				<g id="XMLID_216_">
					<g id="XMLID_217_">
						<g id="XMLID_218_">
							<g id="XMLID_219_">
								<g id="XMLID_220_">
									<path id="XMLID_221_" class="st19" d="M1700.4,632c0.9-3.1,2.8-6.2,5.8-7.5c3.1-1.3,6.7-0.6,9.9,0.6
										c3.2,1.2,6.3,2.7,9.7,2.9c3.4,0.2,7.2-1.4,8.2-4.6c1-3-0.9-6.3-3.2-8.5c-4.8-4.7-12.1-6.6-18.6-5.1
										c-6.5,1.6-12.1,6.6-14.3,13"/>
								</g>
							</g>
						</g>
					</g>
				</g>
				<g id="XMLID_211_">
					<g id="XMLID_212_">
						<g id="XMLID_213_">
							<g id="XMLID_214_">
								<path id="XMLID_215_" class="st18" d="M1673.6,645.7c-5-4.7-4.7-13-2.2-19.4c2.5-6.4,7.9-11.3,14-14.6
									c11.7-6.3,26.4-6.8,38.5-1.2c-6,0.2-11.7,3.6-14.8,8.7c-2.7,4.5-3.3,10-5.6,14.8c-2.5,5.3-7.1,9.6-12.6,11.8
									C1685.3,647.9,1679,647.9,1673.6,645.7"/>
							</g>
						</g>
					</g>
				</g>
				<g id="XMLID_202_">
					<g id="XMLID_203_">
						<g id="XMLID_204_">
							<g id="XMLID_206_">
								<path id="XMLID_210_" class="st18" d="M1671.2,617.3c-5.5-6.5-6.2-16.9-5.4-25.4c0.8-8.5,2.8-17,1.4-25.4
									c-0.8-5-2.7-9.8-3.4-14.8c-0.7-5,0.3-10.7,4.2-13.9c4.5-3.7,11.5-2.8,16.1,0.6c4.6,3.5,7.3,9,9.3,14.4
									c4.3,12,5.9,25.3,2.4,37.6c-3.5,12.3-11.9,23.2-24.1,26.9"/>
							</g>
						</g>
					</g>
				</g>
				<g id="XMLID_196_">
					<g id="XMLID_197_">
						<g id="XMLID_198_">
							<g id="XMLID_199_">
								<g id="XMLID_200_">
									<path id="XMLID_201_" class="st11" d="M1668.5,670.6c0,0,0-0.3,0-0.7c0-0.5,0-1.2,0-2.1c0.1-1.9,0.3-4.6,0.7-7.9
										c0.4-3.3,1.1-7.2,2.1-11.5c1-4.3,2.8-8.9,5.3-13.4c2.5-4.5,5.5-8.3,8.6-11.5c3.1-3.2,6.2-5.7,9-7.5c1.4-1,2.7-1.7,3.9-2.3
										c1.2-0.6,2.2-1.1,3-1.5c0.8-0.3,1.5-0.6,2-0.8c0.5-0.2,0.7-0.3,0.7-0.3c0,0-0.2,0.1-0.7,0.3c-0.5,0.2-1.1,0.5-1.9,0.9
										c-0.8,0.4-1.8,1-3,1.6c-1.1,0.7-2.4,1.4-3.8,2.4c-2.7,1.9-5.9,4.4-8.9,7.5c-3,3.2-6,7-8.5,11.4c-5.1,8.9-6.5,18.2-7.5,24.7
										c-0.5,3.3-0.7,6-0.8,7.8c-0.1,0.9-0.1,1.6-0.1,2.1C1668.6,670.4,1668.5,670.6,1668.5,670.6z"/>
								</g>
							</g>
						</g>
					</g>
				</g>
				<g id="XMLID_173_">
					<g id="XMLID_191_">
						<g id="XMLID_192_">
							<g id="XMLID_193_">
								<g id="XMLID_194_">
									<path id="XMLID_195_" class="st13" d="M1621,591.6c-10.2,6.2-10.2,11.8-8.5,17c1.7,5.3,8,9,13.1,7c2.9-1.1,5.1-3.7,6.9-6.2
										c1.8-2.6,3.5-5.3,6.1-7.1c2.5-1.8,6.2-2.5,8.8-0.7"/>
								</g>
							</g>
						</g>
					</g>
					<g id="XMLID_185_">
						<g id="XMLID_186_">
							<g id="XMLID_187_">
								<g id="XMLID_188_">
									<g id="XMLID_189_">
										<path id="XMLID_190_" class="st19" d="M1621,591.6c-10.2,6.2-10.2,11.8-8.5,17c1.7,5.3,8,9,13.1,7
											c2.9-1.1,5.1-3.7,6.9-6.2c1.8-2.6,3.5-5.3,6.1-7.1c2.5-1.8,6.2-2.5,8.8-0.7"/>
									</g>
								</g>
							</g>
						</g>
					</g>
					<g id="XMLID_180_">
						<g id="XMLID_181_">
							<g id="XMLID_182_">
								<g id="XMLID_183_">
									<path id="XMLID_184_" class="st18" d="M1613.4,598.3c2.7-3.7,9.3-4.8,13.4-2.9c4.2,1.8,7.2,5.5,9.9,9.1
										c2.7,3.6,5.4,7.5,9.2,10c3.8,2.5,9.1,3.4,12.8,0.9c2.5-1.7,3.9-4.6,4.4-7.5c0.4-3,0-6-0.6-8.9c-0.9-4.3-2.4-8.7-5.8-11.5
										c-3.8-3-9.1-3.2-14-3c-5.6,0.2-11.3,0.6-16.5,2.5C1620.9,589,1615.6,593.2,1613.4,598.3"/>
								</g>
							</g>
						</g>
					</g>
					<g id="XMLID_174_">
						<g id="XMLID_175_">
							<g id="XMLID_176_">
								<g id="XMLID_177_">
									<g id="XMLID_178_">
										<path id="XMLID_179_" class="st11" d="M1660,662.5c0,0,0-0.1,0-0.2c0-0.2,0-0.4,0-0.7c0-0.6-0.1-1.5-0.1-2.5
											c-0.1-2.2-0.2-5.4-0.3-9.3c-0.1-3.9-0.3-8.6-0.6-13.8c-0.3-5.2-0.7-10.9-1.5-16.8c-0.4-3-0.9-5.9-1.7-8.5
											c-0.8-2.7-1.9-5.2-3.1-7.5c-1.2-2.3-2.5-4.4-3.9-6.2c-1.4-1.8-2.9-3.4-4.3-4.7c-2.9-2.6-5.7-4.3-7.6-5.2
											c-0.5-0.2-0.9-0.5-1.3-0.6c-0.4-0.1-0.7-0.3-1-0.4c-0.2-0.1-0.4-0.2-0.6-0.2c-0.1-0.1-0.2-0.1-0.2-0.1s0.1,0,0.2,0.1
											c0.2,0.1,0.4,0.1,0.6,0.2c0.3,0.1,0.6,0.2,1,0.3c0.4,0.1,0.8,0.4,1.3,0.6c2,0.9,4.8,2.5,7.8,5.1c1.5,1.3,2.9,2.9,4.4,4.7
											c1.4,1.8,2.8,3.9,4,6.2c1.2,2.3,2.3,4.8,3.2,7.5c0.8,2.7,1.3,5.6,1.7,8.6c0.8,6,1.2,11.7,1.4,16.9
											c0.3,5.2,0.4,9.9,0.5,13.8c0.1,3.9,0.1,7.1,0.1,9.3c0,1.1,0,1.9,0,2.5c0,0.3,0,0.5,0,0.7
											C1660.1,662.4,1660.1,662.5,1660,662.5z"/>
									</g>
								</g>
							</g>
						</g>
					</g>
				</g>
				<g id="XMLID_167_">
					<g id="XMLID_168_">
						<g id="XMLID_169_">
							<g id="XMLID_170_">
								<g id="XMLID_171_">
									<path id="XMLID_172_" class="st11" d="M1663.7,667.1c0,0-0.6-1.5-1.1-4.4c-0.5-2.9-0.9-7.1-0.5-12.3
										c0.4-5.2,1.8-11.3,3.9-17.8c2.1-6.6,4.9-13.6,7.4-21.1c1.2-3.8,2.2-7.5,2.9-11.2c0.7-3.7,1.2-7.2,1.4-10.7
										c0.6-6.8,0.5-13,0.3-18.2c-0.2-5.2-0.5-9.4-0.6-12.3c-0.1-1.4-0.2-2.5-0.2-3.3c0-0.4,0-0.7,0-0.9c0-0.2,0-0.3,0-0.3
										c0,0,0,0.1,0,0.3c0,0.2,0.1,0.5,0.1,0.9c0.1,0.8,0.2,1.9,0.3,3.3c0.2,2.9,0.6,7.1,0.8,12.3c0.2,5.2,0.3,11.4-0.2,18.3
										c-0.3,3.4-0.7,7-1.4,10.7c-0.7,3.7-1.7,7.4-2.9,11.2c-2.4,7.6-5.3,14.6-7.4,21.1c-2.1,6.5-3.5,12.6-4,17.7
										c-0.5,5.2-0.2,9.4,0.3,12.2c0.3,1.4,0.5,2.5,0.7,3.3c0.1,0.4,0.2,0.6,0.2,0.8C1663.7,667,1663.7,667.1,1663.7,667.1z"/>
								</g>
							</g>
						</g>
					</g>
				</g>
				<g id="XMLID_162_">
					<g id="XMLID_163_">
						<g id="XMLID_164_">
							<g id="XMLID_165_">
								<polygon id="XMLID_166_" class="st20" points="1689,671.7 1641.1,671.7 1640,662.5 1689,662.5 								"/>
							</g>
						</g>
					</g>
				</g>
				<g id="XMLID_157_">
					<g id="XMLID_158_">
						<g id="XMLID_159_">
							<g id="XMLID_160_">
								<polygon id="XMLID_161_" class="st20" points="1646.3,670.6 1652.2,698.3 1678.3,698.3 1683.9,670.6 								"/>
							</g>
						</g>
					</g>
				</g>
				<g id="XMLID_151_">
					<g id="XMLID_152_">
						<g id="XMLID_153_">
							<g id="XMLID_154_">
								<g id="XMLID_155_">
									
										<ellipse id="XMLID_156_" transform="matrix(1 2.802747e-003 -2.802747e-003 1 1.8889 -4.6653)" class="st20" cx="1665.5" cy="671.6" rx="23.5" ry="0.2"/>
								</g>
							</g>
						</g>
					</g>
				</g>
				<g id="XMLID_145_">
					<g id="XMLID_146_">
						<g id="XMLID_147_">
							<g id="XMLID_148_">
								<g id="XMLID_149_">
									<path id="XMLID_150_" class="st11" d="M1680.8,685.3c-0.1,0.1-1.4-1.3-4.2-2.4c-1.4-0.6-3.2-1-5.1-1
										c-2-0.1-4.1,0.4-6.3,1.2c-2.2,0.7-4.2,1.6-6.2,2.1c-2,0.4-3.9,0.4-5.4,0.2c-1.5-0.2-2.7-0.7-3.4-1.1
										c-0.4-0.2-0.7-0.4-0.8-0.5c-0.2-0.1-0.3-0.2-0.3-0.2c0,0,0.4,0.2,1.2,0.6c0.8,0.3,1.9,0.7,3.4,0.9c1.5,0.2,3.3,0.2,5.2-0.3
										c1.9-0.5,4-1.3,6.2-2.1c2.2-0.8,4.4-1.2,6.5-1.1c2,0.1,3.8,0.5,5.2,1.2c1.4,0.6,2.4,1.3,3.1,1.8c0.3,0.3,0.6,0.5,0.7,0.6
										C1680.7,685.2,1680.8,685.3,1680.8,685.3z"/>
								</g>
							</g>
						</g>
					</g>
				</g>
				<g id="XMLID_139_">
					<g id="XMLID_140_">
						<g id="XMLID_141_">
							<g id="XMLID_142_">
								<g id="XMLID_143_">
									<path id="XMLID_144_" class="st6" d="M1680.4,687.2c-0.1,0.1-1.4-1.3-4-2.4c-1.3-0.6-3-1-4.9-1c-1.9-0.1-4,0.4-6.1,1.1
										c-2.1,0.7-4.1,1.5-6,2c-1.9,0.5-3.7,0.7-5.2,0.6c-1.5-0.1-2.6-0.5-3.4-0.9c-0.4-0.2-0.6-0.4-0.8-0.5
										c-0.2-0.1-0.3-0.2-0.3-0.2c0,0,0.4,0.2,1.1,0.6c0.7,0.3,1.9,0.7,3.3,0.7c1.4,0.1,3.2-0.1,5-0.7c1.9-0.5,3.8-1.3,5.9-2.1
										c2.1-0.7,4.3-1.2,6.3-1.1c2,0.1,3.7,0.5,5.1,1.1c1.4,0.6,2.3,1.3,3,1.8c0.3,0.3,0.6,0.5,0.7,0.6
										C1680.3,687.1,1680.4,687.2,1680.4,687.2z"/>
								</g>
							</g>
						</g>
					</g>
				</g>
				<g id="XMLID_133_">
					<g id="XMLID_134_">
						<g id="XMLID_135_">
							<g id="XMLID_136_">
								<g id="XMLID_137_">
									<path id="XMLID_138_" class="st6" d="M1681.2,683.5c-0.1,0.1-1.5-1.3-4.3-2.6c-1.4-0.6-3.2-1.1-5.3-1.3
										c-2-0.1-4.3,0.4-6.5,1.1c-2.3,0.8-4.3,1.7-6.4,2.1c-2.1,0.4-4,0.3-5.5,0c-1.6-0.3-2.8-0.7-3.6-1.1
										c-0.4-0.2-0.7-0.4-0.9-0.5c-0.2-0.1-0.3-0.2-0.3-0.2c0,0,0.4,0.2,1.2,0.6c0.8,0.4,2,0.7,3.5,1c1.5,0.2,3.4,0.3,5.4-0.1
										c2-0.4,4.1-1.4,6.4-2.1c2.3-0.8,4.6-1.3,6.7-1.1c2.1,0.1,3.9,0.7,5.4,1.4c1.4,0.6,2.5,1.4,3.2,1.9c0.3,0.3,0.6,0.5,0.8,0.7
										C1681.2,683.4,1681.3,683.5,1681.2,683.5z"/>
								</g>
							</g>
						</g>
					</g>
				</g>
			</g>
			<g id="XMLID_126_">
				<g id="XMLID_127_">
					<g id="XMLID_128_">
						<g id="XMLID_129_">
							<g id="XMLID_130_">
								<ellipse id="XMLID_131_" class="st11" cx="1665.4" cy="671.7" rx="24.1" ry="0.2"/>
							</g>
						</g>
					</g>
				</g>
			</g>
		</g>
		<g id="XMLID_4_">
			<g id="XMLID_121_">
				<g id="XMLID_122_">
					<g id="XMLID_123_">
						<path id="XMLID_124_" class="st13" d="M1293.7,600.2c4.3,6.2,12.7,4.1,16.6,0.4s5.5-9.2,7-14.4c3.4-11.9,6.9-24.3,4.3-36.4
							c-0.8-3.6-2.1-7.2-4.7-9.9c-2.5-2.7-6.5-4.3-10-3.3c-4.2,1.1-6.9,5.3-8.8,9.2c-5.6,11.6-8.5,24.4-8.6,37.3
							C1289.6,589,1290.3,595.3,1293.7,600.2"/>
					</g>
				</g>
			</g>
			<g id="XMLID_117_">
				<g id="XMLID_118_">
					<g id="XMLID_119_">
						<path id="XMLID_120_" class="st18" d="M1293.7,600.2c4.3,6.2,12.7,4.1,16.6,0.4s5.5-9.2,7-14.4c3.4-11.9,6.9-24.3,4.3-36.4
							c-0.8-3.6-2.1-7.2-4.7-9.9c-2.5-2.7-6.5-4.3-10-3.3c-4.2,1.1-6.9,5.3-8.8,9.2c-5.6,11.6-8.5,24.4-8.6,37.3
							C1289.6,589,1290.3,595.3,1293.7,600.2"/>
					</g>
				</g>
			</g>
			<g id="XMLID_113_">
				<g id="XMLID_114_">
					<g id="XMLID_115_">
						<path id="XMLID_116_" class="st18" d="M1309.9,631.5c7.1-3.6,15.4-4.1,23.2-2.8c4.2,0.7,8.6,2,11.5,5.1
							c2.9,3.2,3.4,8.7,0.1,11.4c-2,1.6-4.7,1.9-7.2,1.8c-6.1-0.1-12.9-1.2-17.8,2.5c-2.8,2.1-4.7,5.6-8,6.6c-3.3,1-7-0.9-8.7-3.9
							c-1.7-3-1.8-6.6-1-10C1301.9,642.4,1302.8,635.1,1309.9,631.5z"/>
					</g>
				</g>
			</g>
			<g id="XMLID_109_">
				<g id="XMLID_110_">
					<g id="XMLID_111_">
						<path id="XMLID_112_" class="st18" d="M1281.9,609.1c4.7-5.6,5.6-13.7,3.5-20.6c-2.1-7-6.8-12.9-12.2-17.7
							c-6.4-5.7-13.8-10.1-21.9-12.9c-3.2-1.1-6.5-2-9.8-1.7c-3.3,0.3-6.7,2-8.3,5c-2.3,4.4-0.1,9.7,2.3,14.1
							c4.2,7.7,9,15,14.4,21.9c4.3,5.6,9.2,11,15.8,13.5c6.6,2.5,13.4,2.2,16.9-2.3"/>
					</g>
				</g>
			</g>
			<g id="XMLID_104_">
				<g id="XMLID_105_">
					<g id="XMLID_106_">
						<g id="XMLID_107_">
							<path id="XMLID_108_" class="st11" d="M1293.4,693.2c0.1,0,0.2-1,0.4-2.8c0.2-2,0.4-4.6,0.7-7.6c0.4-3.2,0.8-7,1.7-11.2
								c0.9-4.2,2.3-8.7,4.1-13.2c1.9-4.5,4.1-8.7,6.8-12c2.6-3.3,5.7-5.7,8.5-7.1c2.9-1.4,5.4-2,7.2-2.2c1.8-0.2,2.8-0.3,2.8-0.4
								c0-0.1-1-0.1-2.8,0c-1.8,0.1-4.5,0.6-7.5,2c-3,1.3-6.3,3.8-9,7.2c-2.8,3.4-5.1,7.6-7,12.2c-1.8,4.7-3.2,9.2-4,13.4
								c-0.8,4.2-1.2,8.1-1.5,11.4c-0.2,3.2-0.3,5.9-0.4,7.7C1293.3,692.2,1293.4,693.2,1293.4,693.2z"/>
						</g>
					</g>
				</g>
			</g>
			<g id="XMLID_99_">
				<g id="XMLID_100_">
					<g id="XMLID_101_">
						<g id="XMLID_102_">
							<path id="XMLID_103_" class="st11" d="M1294,687.3c0,0,0.1-0.4,0.1-1.3c0-1,0-2.2,0-3.7c0-3.2,0-7.9,0.2-13.7
								c0.3-11.5,1.3-27.4,3.2-44.9c1.9-17.5,4.5-33.2,6.8-44.5c0.6-2.8,1.1-5.4,1.6-7.6c0.5-2.2,0.9-4.2,1.3-5.7
								c0.4-1.5,0.6-2.7,0.9-3.6c0.2-0.8,0.3-1.3,0.2-1.3c0,0-0.2,0.4-0.5,1.2c-0.3,0.9-0.6,2.1-1.1,3.6c-0.5,1.5-1,3.5-1.5,5.7
								c-0.6,2.2-1.2,4.8-1.8,7.6c-2.5,11.3-5.2,27-7.2,44.6c-1.9,17.5-2.8,33.5-2.9,45c-0.1,5.8,0.1,10.5,0.2,13.7
								c0.1,1.5,0.2,2.7,0.2,3.7C1293.9,686.9,1293.9,687.3,1294,687.3z"/>
						</g>
					</g>
				</g>
			</g>
			<g id="XMLID_93_">
				<g id="XMLID_94_">
					<g id="XMLID_95_">
						<g id="XMLID_96_">
							<path id="XMLID_98_" class="st11" d="M1294,656.6c0.1,0,0.1-1.4,0-3.9c-0.1-2.5-0.5-6.1-1.2-10.5c-0.7-4.4-1.8-9.6-3.4-15.3
								c-1.6-5.7-3.7-11.9-6.4-18.1c-5.3-12.6-12.5-22.9-18.8-29.3c-1.5-1.7-3.1-2.9-4.4-4.1c-0.7-0.6-1.3-1.1-1.9-1.6
								c-0.6-0.4-1.2-0.8-1.7-1.2c-2.1-1.4-3.2-2.2-3.3-2.1c-0.2,0.3,4.6,3.1,10.7,9.6c6.1,6.5,13.1,16.7,18.3,29.2
								c2.7,6.2,4.8,12.3,6.4,18c1.7,5.6,2.8,10.8,3.6,15.2c0.8,4.4,1.3,7.9,1.5,10.4C1293.8,655.2,1294,656.6,1294,656.6z"/>
						</g>
					</g>
				</g>
			</g>
		</g>
	</g>
	<g id="XMLID_267_" class="st1">
		<g id="XMLID_269_">
			
				<rect id="XMLID_61_" x="1092.6" y="461.5" transform="matrix(0.8658 0.5004 -0.5004 0.8658 380.7186 -484.5756)" class="st15" width="2.5" height="12"/>
			
				<rect id="XMLID_60_" x="1112.7" y="411" transform="matrix(0.8658 0.5003 -0.5003 0.8658 365.9798 -499.2459)" class="st15" width="2.5" height="43.6"/>
			<polygon id="XMLID_59_" class="st22" points="1194.1,173.4 1019.7,252.7 1087.2,252.7 856.2,652.5 978.3,652.5 1209.3,252.7 
				1276.8,252.7 			"/>
			<polygon id="XMLID_58_" class="st15" points="978.3,652.5 856.3,652.5 773.2,508.8 895.3,508.8 			"/>
			<polygon id="XMLID_57_" class="st13" points="978.3,652.5 856.3,652.5 773.2,508.8 895.3,508.8 			"/>
		</g>
		<polygon id="XMLID_5_" class="st22" points="895.3,508.8 773.2,508.8 542.2,908.5 664.3,908.5 		"/>
	</g>
</g>
<rect id="XMLID_205_" x="209.2" y="417.4" class="st22" width="179" height="81.2"/>
<g id="XMLID_6_">
	<path id="XMLID_7_" d="M132.5,376l3.9-21.4h8.2l-7.2,34.1h-8.5l-4.6-19.5l-4.5,19.5h-8.5l-7.3-34.1h8.2l3.9,21.4l4.7-21.4h7
		L132.5,376z"/>
	<path id="XMLID_9_" d="M159,389.2c-3.9,0-7-1.2-9.4-3.5s-3.6-5.3-3.6-9.1V376c0-2.6,0.5-4.9,1.4-6.9s2.4-3.5,4.2-4.6s4-1.6,6.6-1.6
		c3.6,0,6.4,1.1,8.4,3.3s3.1,5.3,3.1,9.2v3.1H154c0.3,1.4,0.9,2.5,1.9,3.4s2.2,1.2,3.7,1.2c2.5,0,4.5-0.9,5.9-2.6l3.6,4.3
		c-1,1.4-2.4,2.4-4.2,3.2S161.1,389.2,159,389.2z M158.1,369c-2.3,0-3.7,1.5-4.1,4.6h8V373c0-1.3-0.3-2.2-1-2.9S159.3,369,158.1,369
		z"/>
	<path id="XMLID_12_" d="M206.7,378.3l2.6-15h7.6l-6,25.4h-6.7l-4.2-15l-4.2,15h-6.7l-6-25.4h7.6l2.5,15.3l4-15.3h5.5L206.7,378.3z"
		/>
	<path id="XMLID_14_" d="M218.7,375.8c0-2.5,0.5-4.8,1.5-6.8s2.4-3.5,4.2-4.6s4-1.6,6.5-1.6c3.8,0,6.8,1.2,9,3.5s3.3,5.6,3.3,9.6
		v0.3c0,4-1.1,7.1-3.3,9.4s-5.2,3.5-8.9,3.5c-3.6,0-6.5-1.1-8.7-3.2s-3.4-5.1-3.5-8.8L218.7,375.8z M226.6,376.3
		c0,2.3,0.4,4.1,1.1,5.2s1.8,1.6,3.3,1.6c2.8,0,4.3-2.2,4.3-6.5v-0.8c0-4.5-1.5-6.8-4.4-6.8c-2.6,0-4.1,2-4.3,5.9L226.6,376.3z"/>
	<path id="XMLID_17_" d="M261.9,370.5l-2.6-0.2c-2.5,0-4.1,0.8-4.8,2.3v16.1h-7.9v-25.4h7.4l0.3,3.3c1.3-2.5,3.2-3.7,5.6-3.7
		c0.8,0,1.6,0.1,2.2,0.3L261.9,370.5z"/>
	<path id="XMLID_19_" d="M275,379.3l-2.2,2.2v7.2h-7.9v-36h7.9v19.1l0.8-1.1l6-7.4h9.5l-8.9,10.4l9.5,14.9h-9L275,379.3z"/>
	<path id="XMLID_21_" d="M296.1,402.1l-5.8-2.7l1.2-2.3c1.6-3,2.4-5.8,2.5-8.5v-8.5h9.2l0,7.4c0,2.6-0.7,5.3-2,8
		C299.8,398.2,298.1,400.4,296.1,402.1z"/>
	<path id="XMLID_23_" d="M361.4,372.8l4.9-26.7h10.2l-9.1,42.7h-10.7l-5.7-24.3l-5.6,24.3h-10.6l-9.1-42.7H336l4.9,26.7l5.9-26.7
		h8.7L361.4,372.8z"/>
	<path id="XMLID_25_" d="M394.5,389.3c-4.9,0-8.8-1.5-11.8-4.4c-3-2.9-4.5-6.7-4.5-11.3v-0.8c0-3.2,0.6-6.1,1.8-8.6
		c1.2-2.5,3-4.4,5.3-5.8c2.3-1.4,5-2,8.2-2c4.5,0,8,1.4,10.5,4.1c2.6,2.8,3.9,6.6,3.9,11.6v3.8h-19.6c0.4,1.8,1.1,3.2,2.3,4.2
		c1.2,1,2.7,1.5,4.6,1.5c3.1,0,5.6-1.1,7.3-3.3l4.5,5.3c-1.2,1.7-3,3.1-5.2,4.1S397.1,389.3,394.5,389.3z M393.4,364.1
		c-2.9,0-4.6,1.9-5.2,5.7h10v-0.8c0-1.6-0.4-2.8-1.2-3.7C396.1,364.5,394.9,364.1,393.4,364.1z"/>
	<path id="XMLID_28_" d="M443.3,379.8c0-0.8-0.4-1.5-1.3-2c-0.9-0.5-2.5-1-5-1.6c-2.5-0.5-4.5-1.3-6.1-2.2c-1.6-0.9-2.8-2-3.7-3.2
		c-0.8-1.3-1.3-2.7-1.3-4.4c0-2.9,1.2-5.3,3.6-7.2c2.4-1.9,5.5-2.8,9.4-2.8c4.2,0,7.5,0.9,10.1,2.8c2.5,1.9,3.8,4.4,3.8,7.5H443
		c0-2.5-1.3-3.8-4-3.8c-1,0-1.9,0.3-2.6,0.9c-0.7,0.6-1.1,1.3-1.1,2.2c0,0.9,0.4,1.6,1.3,2.1c0.9,0.5,2.2,1,4.1,1.3
		c1.9,0.4,3.5,0.8,5,1.3c4.8,1.6,7.1,4.6,7.1,8.8c0,2.9-1.3,5.2-3.9,7.1c-2.6,1.8-5.9,2.7-10,2.7c-2.7,0-5.1-0.5-7.3-1.5
		c-2.1-1-3.8-2.3-5-4c-1.2-1.7-1.8-3.4-1.8-5.3h9.2c0,1.5,0.5,2.5,1.5,3.2s2.1,1,3.6,1c1.3,0,2.4-0.3,3-0.8
		C443,381.4,443.3,380.7,443.3,379.8z"/>
	<path id="XMLID_30_" d="M472.8,389.3c-4.9,0-8.8-1.5-11.8-4.4c-3-2.9-4.5-6.7-4.5-11.3v-0.8c0-3.2,0.6-6.1,1.8-8.6
		c1.2-2.5,3-4.4,5.3-5.8c2.3-1.4,5-2,8.2-2c4.5,0,8,1.4,10.5,4.1c2.6,2.8,3.9,6.6,3.9,11.6v3.8h-19.6c0.4,1.8,1.1,3.2,2.3,4.2
		c1.2,1,2.7,1.5,4.6,1.5c3.1,0,5.6-1.1,7.3-3.3l4.5,5.3c-1.2,1.7-3,3.1-5.2,4.1S475.4,389.3,472.8,389.3z M471.7,364.1
		c-2.9,0-4.6,1.9-5.2,5.7h10v-0.8c0-1.6-0.4-2.8-1.2-3.7C474.5,364.5,473.3,364.1,471.7,364.1z"/>
	<path id="XMLID_33_" d="M509.3,366l-3.3-0.2c-3.1,0-5.1,1-6,2.9v20.1h-9.9v-31.7h9.3l0.3,4.1c1.7-3.1,4-4.7,6.9-4.7
		c1.1,0,2,0.1,2.8,0.4L509.3,366z"/>
	<path id="XMLID_35_" d="M526,377l5-20h10.4l-10.3,31.7H521l-10.3-31.7h10.4L526,377z"/>
	<path id="XMLID_37_" d="M559.4,389.3c-4.9,0-8.8-1.5-11.8-4.4c-3-2.9-4.5-6.7-4.5-11.3v-0.8c0-3.2,0.6-6.1,1.8-8.6
		c1.2-2.5,3-4.4,5.3-5.8c2.3-1.4,5-2,8.2-2c4.5,0,8,1.4,10.5,4.1c2.6,2.8,3.9,6.6,3.9,11.6v3.8h-19.6c0.4,1.8,1.1,3.2,2.3,4.2
		c1.2,1,2.7,1.5,4.6,1.5c3.1,0,5.6-1.1,7.3-3.3l4.5,5.3c-1.2,1.7-3,3.1-5.2,4.1S562,389.3,559.4,389.3z M558.2,364.1
		c-2.9,0-4.6,1.9-5.2,5.7h10v-0.8c0-1.6-0.4-2.8-1.2-3.7C561,364.5,559.8,364.1,558.2,364.1z"/>
	<path id="XMLID_40_" d="M581.2,402.1l-5.8-2.7l1.2-2.3c1.6-3,2.4-5.8,2.5-8.5v-8.5h9.2l0,7.4c0,2.6-0.7,5.3-2,8
		C584.9,398.2,583.2,400.4,581.2,402.1z"/>
	<path id="XMLID_42_" d="M145.8,454.2l5.7-31.2h11.9l-10.6,49.8h-12.4l-6.7-28.4l-6.5,28.4h-12.4L104.2,423h11.9l5.7,31.2l6.8-31.2
		h10.2L145.8,454.2z"/>
	<path id="XMLID_44_" d="M184.4,473.4c-5.7,0-10.3-1.7-13.8-5.1c-3.5-3.4-5.3-7.8-5.3-13.2v-1c0-3.8,0.7-7.1,2.1-10
		c1.4-2.9,3.4-5.1,6.1-6.7c2.7-1.6,5.9-2.4,9.6-2.4c5.2,0,9.3,1.6,12.3,4.8c3,3.2,4.5,7.7,4.5,13.5v4.5h-22.9
		c0.4,2.1,1.3,3.7,2.7,4.9c1.4,1.2,3.2,1.8,5.4,1.8c3.6,0,6.5-1.3,8.5-3.8l5.3,6.2c-1.4,2-3.5,3.6-6.1,4.7
		C190.3,472.8,187.4,473.4,184.4,473.4z M183.1,444c-3.4,0-5.4,2.2-6,6.7h11.6v-0.9c0-1.8-0.4-3.3-1.4-4.3
		C186.3,444.5,184.9,444,183.1,444z"/>
	<path id="XMLID_47_" class="st6" d="M220.7,454c0-3.7,0.6-7,1.8-9.9s3-5.1,5.3-6.6c2.3-1.6,5-2.3,8-2.3c3.9,0,6.9,1.3,9,3.9
		l0.4-3.2h10.5v35.6c0,3.3-0.8,6.1-2.3,8.5c-1.5,2.4-3.7,4.3-6.6,5.5s-6.2,1.9-10,1.9c-2.7,0-5.3-0.5-7.9-1.5c-2.5-1-4.5-2.4-5.8-4
		l4.8-6.8c2.1,2.5,5,3.8,8.5,3.8c5.1,0,7.7-2.6,7.7-7.9v-1.2c-2.2,2.4-5,3.7-8.4,3.7c-4.5,0-8.2-1.7-10.9-5.2
		c-2.8-3.5-4.2-8.1-4.2-13.9V454z M232.3,454.7c0,3,0.6,5.4,1.7,7.2c1.1,1.8,2.7,2.6,4.8,2.6c2.5,0,4.3-0.8,5.4-2.5v-15.6
		c-1.1-1.7-2.9-2.5-5.4-2.5c-2.1,0-3.7,0.9-4.8,2.8S232.3,451.2,232.3,454.7z"/>
	<path id="XMLID_50_" class="st6" d="M284.7,446.2l-3.8-0.3c-3.6,0-5.9,1.1-7,3.4v23.4h-11.5v-37h10.8l0.4,4.8
		c1.9-3.6,4.6-5.4,8.1-5.4c1.2,0,2.3,0.1,3.2,0.4L284.7,446.2z"/>
	<path id="XMLID_52_" class="st6" d="M286.2,453.9c0-3.7,0.7-7,2.2-9.9s3.5-5.1,6.2-6.6c2.7-1.5,5.8-2.3,9.5-2.3
		c5.5,0,9.9,1.7,13.1,5.1c3.2,3.4,4.8,8.1,4.8,14v0.4c0,5.8-1.6,10.3-4.8,13.7c-3.2,3.4-7.5,5.1-13,5.1c-5.3,0-9.5-1.6-12.7-4.7
		c-3.2-3.2-4.9-7.4-5.2-12.8L286.2,453.9z M297.7,454.6c0,3.4,0.5,5.9,1.6,7.5c1.1,1.6,2.7,2.4,4.8,2.4c4.1,0,6.2-3.2,6.3-9.5v-1.2
		c0-6.6-2.1-9.9-6.4-9.9c-3.9,0-5.9,2.9-6.3,8.6L297.7,454.6z"/>
	<path id="XMLID_55_" class="st6" d="M358.9,457.6l3.7-21.8h11l-8.7,37h-9.7l-6.1-21.9l-6.2,21.9h-9.7l-8.7-37h11l3.7,22.3l5.9-22.3
		h8L358.9,457.6z"/>
</g>
</svg>
