<svg id="Layer_1" data-name="Layer 1" xmlns="http://www.w3.org/2000/svg" viewBox="0 0 880 700"><defs><style>.cls-1,.cls-21,.cls-23{fill:#bbbcbc;}.cls-2{fill:#f1f2f2;}.cls-3{fill:#d1d3d4;}.cls-4{fill:#4aa8b0;}.cls-5{fill:#ebb376;}.cls-6{fill:#263238;}.cls-7,.cls-8{fill:#5274b8;}.cls-7{opacity:0.4;}.cls-9{fill:#192f35;}.cls-10{fill:#fbbd9d;}.cls-11{opacity:0.2;}.cls-11,.cls-13,.cls-15,.cls-18,.cls-20{isolation:isolate;}.cls-12{fill:#dd4d65;}.cls-13,.cls-15,.cls-16,.cls-25{fill:#fff;}.cls-13{opacity:0.05;}.cls-14,.cls-20{fill:#4ea8b0;}.cls-15,.cls-18,.cls-21{opacity:0.3;}.cls-17{fill:#de5954;}.cls-19{fill:#192f36;}.cls-20{opacity:0.6;}.cls-22{fill:#f0efef;}.cls-23{opacity:0.5;}.cls-24{fill:#a05c55;}.cls-25{opacity:0.8;}</style></defs><path class="cls-1" d="M417.45,546.16H88a9.75,9.75,0,0,1-9.74-9.74v-463A9.75,9.75,0,0,1,88,63.63H417.45a9.75,9.75,0,0,1,9.74,9.74V536.42A9.75,9.75,0,0,1,417.45,546.16ZM88,64.05a9.32,9.32,0,0,0-9.31,9.32V536.42A9.31,9.31,0,0,0,88,545.73H417.45a9.31,9.31,0,0,0,9.31-9.31v-463a9.32,9.32,0,0,0-9.31-9.32Z"/><path class="cls-1" d="M786.45,546.16H457a9.75,9.75,0,0,1-9.74-9.74v-463A9.75,9.75,0,0,1,457,63.63H786.45a9.75,9.75,0,0,1,9.74,9.74V536.42A9.75,9.75,0,0,1,786.45,546.16ZM457,64.05a9.33,9.33,0,0,0-9.31,9.32V536.42a9.32,9.32,0,0,0,9.31,9.31H786.45a9.31,9.31,0,0,0,9.31-9.31v-463a9.32,9.32,0,0,0-9.31-9.32Z"/><polygon class="cls-1" points="685.15 219.48 499.46 156.76 499.32 156.62 401.22 56.06 280.45 165.68 284.01 160.81 401.29 53.69 500.4 155.28 684.51 217.46 760.07 113.5 761.45 114.5 685.15 219.48"/><path class="cls-1" d="M108,373.84a9.18,9.18,0,1,1-9.18-9.18A9.18,9.18,0,0,1,108,373.84Z"/><path class="cls-1" d="M410.43,54.88a9.18,9.18,0,1,1-9.18-9.18A9.18,9.18,0,0,1,410.43,54.88Z"/><path class="cls-1" d="M769.94,114a9.18,9.18,0,1,1-9.18-9.17A9.18,9.18,0,0,1,769.94,114Z"/><path class="cls-1" d="M770.74,598.34a9.18,9.18,0,1,1-9.18-9.18A9.18,9.18,0,0,1,770.74,598.34Z"/><path class="cls-1" d="M509.11,156a9.18,9.18,0,1,1-9.18-9.18A9.18,9.18,0,0,1,509.11,156Z"/><polygon class="cls-1" points="339.56 598.57 338.85 598.44 108.68 554.98 108.99 553.3 338.45 596.63 499.13 155.73 500.73 156.31 339.56 598.57"/><rect class="cls-1" x="157.54" y="179.59" width="1.71" height="104.9" transform="translate(-120.33 196.79) rotate(-48.47)"/><rect class="cls-1" x="102.54" y="163.24" width="87.02" height="1.42" transform="translate(-73.06 178.17) rotate(-52.02)"/><polygon class="cls-1" points="761.11 599.06 647.31 528.54 649.8 527.86 769.36 412.83 684.05 218.81 685.61 218.13 771.4 413.24 770.97 413.65 651.16 528.91 762.01 597.61 761.11 599.06"/><polygon class="cls-1" points="109.55 554.6 108.12 553.68 176.9 447.44 97.61 373.88 98.18 373.26 197.5 265.73 198.09 266.07 650.66 527.88 649.81 529.36 197.82 267.89 100.01 373.79 179.11 447.16 109.55 554.6"/><path class="cls-1" d="M582.18,85H708.25l-24.66,17.53V117.2a27.28,27.28,0,0,1-27.48,27.07H577a27.28,27.28,0,0,1-27.48-27.07h0A32.41,32.41,0,0,1,582.18,85Z"/><path class="cls-2" d="M662.32,104.6c0,.14-21.05.26-47,.26s-47-.12-47-.26,21-.26,47-.26S662.32,104.45,662.32,104.6Z"/><path class="cls-3" d="M662.32,114.34c0,.14-21.05.26-47,.26s-47-.12-47-.26,21-.26,47-.26S662.32,114.19,662.32,114.34Z"/><path class="cls-1" d="M325.32,447H199.25l24.67,17.54v14.63a27.27,27.27,0,0,0,27.47,27.07H330.5A27.28,27.28,0,0,0,358,479.14h0A32.41,32.41,0,0,0,325.32,447Z"/><path class="cls-2" d="M245.19,466.54c0,.14,21,.26,47,.26s47-.12,47-.26-21-.26-47-.26S245.19,466.4,245.19,466.54Z"/><path class="cls-3" d="M245.19,476.28c0,.14,21,.26,47,.26s47-.12,47-.26-21-.26-47-.26S245.19,476.14,245.19,476.28Z"/><circle class="cls-4" cx="219.84" cy="156.6" r="64.31"/><g id="_Group_" data-name="&lt;Group&gt;"><path class="cls-5" d="M236.13,152.52c1.44-3.19,2.46-1.81,6.61,1.4s4.81,6.1,4.81,9.5-.65,10.18-.65,10.18l10.78,12.09-4.88,7.36-12.53-14.13s-6.2-4.67-7.22-9.92S236.13,152.52,236.13,152.52Z"/><path class="cls-6" d="M234.7,148.89l8.84,15.86a2,2,0,0,1-.23,2.22l-6.86,7.92a1.94,1.94,0,0,1-3.13-.27l-7.92-13.05Z"/><polygon class="cls-7" points="234.22 150.6 242.01 165.29 234.59 174.03 226.6 161.06 234.22 150.6"/><path class="cls-8" d="M256.51,207.19c.06.33.11.64.15.95-.18-.22-.35-.46-.53-.7a59.75,59.75,0,0,1-7.25,4.06c.57-4.48,1.22-8.53,1.79-11.91.51-3.1,1-5.64,1.33-7.43s.55-2.83.59-3v0a8.6,8.6,0,0,1,2.32.75c3.39,1.66,6.72,5.62,10,10.86A60.92,60.92,0,0,1,256.51,207.19Z"/><path class="cls-9" d="M256.66,208.14c-.18-.22-.35-.46-.53-.7a59.75,59.75,0,0,1-7.25,4.06,65.21,65.21,0,0,1-77.6-16.69c1.13-.26,2.28-.51,3.43-.73l.35-.06.69-.14c3-.57,6-1.08,9.09-1.52a.07.07,0,0,1,.06,0c1.33-.2,2.68-.38,4-.56,1.77-.24,3.54-.44,5.29-.64a2.85,2.85,0,0,1,.42,0c4-.47,8.09-.84,12-1.13,1.31-.09,2.59-.18,3.85-.24h0c1.66-.11,3.3-.22,4.91-.31s3.23-.16,4.77-.22l1.93-.07c1.92-.07,3.78-.11,5.55-.15,5.81-.14,10.92-.14,15-.09l2.69,0c1.53,0,2.83.07,3.89.11,2.17.05,3.36.11,3.36.11q.41,1.47.78,3v0c1.12,4.54,2.16,9.58,3.14,15C256.57,207.52,256.62,207.83,256.66,208.14Z"/><path class="cls-10" d="M194.09,191.06c7.17,6.52,24.76,4.11,24.76,4.11s11-3,8.67-6.44c-6.47-1.06-9.6-4.08-10.89-7.94a18.89,18.89,0,0,1-.66-7.38,38.94,38.94,0,0,1,.55-4.13l-21.74-16.09C197.63,163.81,201.11,183.36,194.09,191.06Z"/><path class="cls-11" d="M199.8,163.42c.86,13,11.58,16.64,16.83,17.37a18.89,18.89,0,0,1-.66-7.38Z"/><path class="cls-6" d="M237.31,122.19s3.09,20.3-7.69,28.11-10.77-30-10.77-30Z"/><path class="cls-10" d="M198.34,166.44a18.42,18.42,0,0,0,21.16,7.13A20.47,20.47,0,0,0,231.21,164c.35-.62.67-1.28,1-1.95,5.31-12.41,7-34.11-6.13-42.24a20,20,0,0,0-30.5,15.05C193.93,149.4,192.3,157.85,198.34,166.44Z"/><path class="cls-6" d="M216.69,142.65c-.28,1.14.25,2.22,1,2.35s1.54-.72,1.75-1.89-.27-2.22-1-2.35S216.9,141.46,216.69,142.65Z"/><path class="cls-6" d="M229.93,144.91c-.28,1.14.27,2.22,1,2.35s1.54-.72,1.75-1.89-.27-2.22-1-2.35S230.12,143.8,229.93,144.91Z"/><path class="cls-6" d="M213.31,137.66a.73.73,0,0,0,.72-.16,5.62,5.62,0,0,1,4.79-1.55.69.69,0,0,0,.84-.51.68.68,0,0,0-.51-.83h0a6.91,6.91,0,0,0-6.07,1.87.7.7,0,0,0-.06,1h0A1.26,1.26,0,0,0,213.31,137.66Z"/><path class="cls-6" d="M236.4,141.31a.63.63,0,0,0,.4.1.68.68,0,0,0,.48-.85v0a6.93,6.93,0,0,0-4.29-4.71.7.7,0,0,0-.87.47h0a.71.71,0,0,0,.47.86h0a5.63,5.63,0,0,1,3.34,3.79A.69.69,0,0,0,236.4,141.31Z"/><path class="cls-6" d="M209.16,118.76v6.48a4.79,4.79,0,0,0-3.12,5.7c1.41,5.62-2.66,13.58-7.18,16.39,0,0,.15-2.34-1.88-2s-3,12.5.16,18.74c0,0-5.15-5.93-6.87-19-1.59-12.13-.77-22,2.2-26.23Z"/><path class="cls-10" d="M187.25,145.62a14,14,0,0,0,6.66,8.26c4.29,2.3,7.5-1.28,7.21-5.89-.3-4.09-2.85-10.35-7.6-10.71S186,141.27,187.25,145.62Z"/><path class="cls-6" d="M209.16,125.24s4.21,4.17,8.3,1.11c0,0,4.62,3.86,8.4,1.12,0,0,2.06,3.5,5.45,3.92s3.39-3.08,3.39-3.08,5.35,3.08,7.33,1.64-1.08-7.19-1.08-7.19,2.52-1.36.9-6-9.09-3.54-9.09-3.54.28-4.32-4.93-8.81-8.31,1.08-8.31,1.08-5.05-6.83-11.31-5.93-5.53,5.21-5.53,5.21-7.19-4.49-10.42,0,0,6.65,0,6.65-7.19,2.41-6.83,7.32,4,4.18,4,4.18-2.07,2.34,2.61,4.31,9-2.87,9-2.87-1.81,2.78,1.55,4.67S209.16,125.24,209.16,125.24Z"/><path class="cls-12" d="M218.85,195.17s-25.36-17.23-33.44-18.2-6.63,9.1-6.63,9.1-6.23,0-3.83,7.67,36.84,11.89,49.56,8.1,20.29-10.93,18.18-17.66-8-1-8-1-3.42-6.34-8.35-4.85S218.85,195.17,218.85,195.17Z"/><path class="cls-12" d="M272.64,192.29a63.23,63.23,0,0,1-7.76,8.45,60.92,60.92,0,0,1-8.37,6.45c.06.33.11.64.15.95-.18-.22-.35-.46-.53-.7-1.68-2.26-3.63-5-5.46-7.85a47.45,47.45,0,0,1-5.33-10.66v0a11.55,11.55,0,0,1-.53-2.74l-2.1-2.92.69-.8,5.57-6.54,1.21-1.41,2.39,3.11s3.07-1.1,12.91,7.36A71.48,71.48,0,0,1,272.64,192.29Z"/></g><path class="cls-5" d="M502,274.07s13.45-13.46,17.78-23c0,0-1.63-5.36-.1-8.13s10.5-10.73,12.89-9,5.85,8.36,4.42,11.16-10.21,8.53-10.21,8.53-10.89,21.84-17.64,26.77S502,274.07,502,274.07Z"/><path class="cls-6" d="M468,233.62c7.83,1,16.77,39,23,42.58s22.49-17.42,22.49-17.42l7.45,8.5S499.5,297.16,491,294.5s-24.45-32.15-24.45-32.15Z"/><path class="cls-13" d="M468,233.62c7.83,1,16.77,39,23,42.58s22.49-17.42,22.49-17.42l7.45,8.5S499.5,297.16,491,294.5s-24.45-32.15-24.45-32.15Z"/><polygon class="cls-5" points="515.53 583.98 505.24 585.8 501.02 571.77 497.17 558.89 509.03 554.74 512.48 570.22 515.53 583.98"/><path class="cls-6" d="M502.92,585.53c-.18-1.14,13.92-2.71,13.92-2.71s10.12,7.2,18.79,7.69,4.91,6.31-4.4,8l-23,4.06C501.58,603.7,504.72,597.34,502.92,585.53Z"/><path class="cls-12" d="M523.77,585.17a21.56,21.56,0,0,1-5-.83.31.31,0,0,1-.13-.06h0a.29.29,0,0,1-.09-.1h0a.36.36,0,0,1,0-.09h0a.33.33,0,0,1,0-.17c0-.16.62-3.61,2.37-4.73a2.21,2.21,0,0,1,1.81-.27c.69.19,1.07.53,1.13,1,.08.74-.78,1.65-1.81,2.46a5.88,5.88,0,0,1,3.19-.21,1.53,1.53,0,0,1,.91.81,1.36,1.36,0,0,1-.07,1.55A3,3,0,0,1,523.77,585.17ZM520,583.88c2.21.51,4.9.83,5.46.17.05-.06.2-.23,0-.75a.81.81,0,0,0-.48-.42C523.78,582.48,521.45,583.26,520,583.88Zm2.06-4.3a1.43,1.43,0,0,0-.79.24c-1,.61-1.56,2.28-1.86,3.42,1.93-1.15,3.73-2.58,3.65-3.22,0-.2-.37-.32-.58-.38A1.58,1.58,0,0,0,522,579.58Z"/><polygon class="cls-11" points="512.54 570.54 501.07 572.05 497.19 559.03 509.05 554.81 512.54 570.54"/><polygon class="cls-5" points="446.83 588.39 436.38 588.39 434.66 573.84 433.11 560.49 445.51 558.47 446.22 574.31 446.83 588.39"/><path class="cls-6" d="M434.14,587.72c0-1.15,14.18-.25,14.18-.25s8.71,8.86,17.17,10.85,3.73,7.06-5.72,7.06H436.38C429.66,605.38,433.86,599.66,434.14,587.72Z"/><path class="cls-12" d="M455.77,591.09c-2,0-5.12-1.44-5.87-1.79a.29.29,0,0,1-.12-.1h0l0-.07a.37.37,0,0,1,0-.29c.05-.14,1.24-3.45,3.16-4.24a2.13,2.13,0,0,1,1.83,0c.65.3,1,.7.93,1.19,0,.74-1.05,1.49-2.2,2.1a5.75,5.75,0,0,1,3.17.35,1.5,1.5,0,0,1,.76,1,1.36,1.36,0,0,1-.34,1.5A1.91,1.91,0,0,1,455.77,591.09Zm-4.57-2c2.08.89,4.68,1.67,5.34,1.12.06,0,.24-.2.1-.75a.83.83,0,0,0-.41-.5C455.21,588.35,452.79,588.71,451.2,589.06Zm2.53-3.9a1.47,1.47,0,0,0-.57.13c-1.05.43-1.94,2-2.43,3,2.09-.8,4.12-1.9,4.16-2.54,0-.19-.31-.38-.51-.47A1.56,1.56,0,0,0,453.73,585.16Z"/><polygon class="cls-11" points="446.22 574.63 434.66 574.13 433.11 560.63 445.51 558.54 446.22 574.63"/><path class="cls-12" d="M513.5,562.37l-16.91,3c-17.07-42.53-29.22-78-37.79-107.49-4.62-15.9-8.22-30-11-42.58l.78,46.3V566.76H431.41c-41.8-199.3-12.18-244.84-12.18-244.84l50-8.55c1.9,7.46,3.33,19.56,4.18,28l2.26,16.53L495.21,458.8Z"/><polygon class="cls-14" points="493.94 563.26 514.92 556.31 514.63 565.23 497.28 570.77 493.94 563.26"/><polygon class="cls-14" points="429.16 564.24 451.04 561.03 449.21 569.77 431.15 572.21 429.16 564.24"/><path class="cls-6" d="M464.72,212.84a.46.46,0,0,1-.22-.06c-6.38-3.85-12.06-18-12.3-18.6a.42.42,0,1,1,.78-.31c.06.14,5.83,14.48,12,18.19a.42.42,0,0,1-.22.78Z"/><path class="cls-6" d="M413.44,175.68s2.48-8.46,19.08-9.9,24.86,14.91,21,27.07c0,0,3.49,16.55,10.19,21.4,0,0-31.94,14.44-48.07,14.52-3.59,0-11.26-17.8-12.25-30.65C402.38,185.76,406.12,176.07,413.44,175.68Z"/><polygon class="cls-6" points="419.23 314.44 419.23 321.91 470.21 318 470.21 309.17 419.23 314.44"/><polygon class="cls-15" points="419.23 314.44 419.23 321.91 470.21 318 470.21 309.17 419.23 314.44"/><rect class="cls-16" x="447.64" y="311.47" width="11.19" height="8.49" transform="translate(-26.36 41.69) rotate(-5.12)"/><rect class="cls-14" x="434.14" y="311.36" width="2.53" height="12.9" transform="translate(-15.66 22.64) rotate(-2.93)"/><rect class="cls-14" x="465.29" y="307.94" width="2.53" height="12.9" transform="matrix(1, -0.05, 0.05, 1, -15.41, 24.17)"/><path class="cls-6" d="M470.43,310.07l-51,4.4c-.49-7.7-1-14.31-2.15-21.72-.75-4.74-1.78-9.82-3.27-15.74-1.15-4.62-2.59-9.77-4.42-15.67-.09-.32-.19-.64-.29-1-1.05-3.37-8.52-.8-9.2-4.85-3-18,16.5-19.35,23.67-20.53a162.85,162.85,0,0,1,22.9-2.41c9.91-.08,21.32,1,21.32,1s1.62.39,2.64,10.92C471.56,254.4,472.48,274.15,470.43,310.07Z"/><path class="cls-5" d="M442.46,243.85c-12.57-1.61-16.34-7-16.34-7,8-7.52,1.35-20.56,1.35-20.56l15.12,2.82a46.54,46.54,0,0,0-.59,6.37c-.11,9.18,4,9.27,4,9.27C448.69,239.75,442.46,243.85,442.46,243.85Z"/><path class="cls-11" d="M442.59,219.13a46.54,46.54,0,0,0-.59,6.37c-10.22,0-14.53-9.19-14.53-9.19Z"/><path class="cls-5" d="M431,176.79c12.85-2.91,18.54,3,22.48,16.06,4.92,16.27,3.92,28.86-12.94,29C417.63,222,409.66,181.62,431,176.79Z"/><path class="cls-6" d="M436.9,194.74c.27,1-.09,2-.79,2.22s-1.48-.53-1.74-1.58.09-2,.79-2.22S436.64,193.69,436.9,194.74Z"/><path class="cls-6" d="M449.9,191.25c.26,1-.09,2-.79,2.21s-1.48-.53-1.75-1.58.09-2,.79-2.22S449.63,190.2,449.9,191.25Z"/><path class="cls-6" d="M429.64,189.72a.55.55,0,0,1-.28-.07.61.61,0,0,1-.27-.82c1.54-3.12,5.45-3.52,5.62-3.54a.63.63,0,0,1,.67.55.62.62,0,0,1-.56.67s-3.39.36-4.63,2.87A.63.63,0,0,1,429.64,189.72Z"/><path class="cls-6" d="M444,183.86a.62.62,0,0,1-.34-1.13,6.75,6.75,0,0,1,5.92-.16.61.61,0,0,1,.35.79.6.6,0,0,1-.79.35,5.55,5.55,0,0,0-4.81,0A.67.67,0,0,1,444,183.86Z"/><path class="cls-6" d="M446.16,206.19a33.73,33.73,0,0,0-.49,4.8l-.84.11c-3.82.47-5.75-.58-6.73-1.88a4.9,4.9,0,0,1-.88-2.18,4.65,4.65,0,0,1-.06-1.34c2.18,1,5.78.8,7.7.63C445.66,206.27,446.16,206.19,446.16,206.19Z"/><path class="cls-16" d="M444.86,206.33l-.18,1.41c-3.61.43-6.2.25-7.46-.7a4.65,4.65,0,0,1-.06-1.34C439.34,206.66,442.94,206.5,444.86,206.33Z"/><path class="cls-17" d="M444.83,211.1c-3.82.47-5.75-.58-6.73-1.88a12.32,12.32,0,0,1,4.35.32A4.69,4.69,0,0,1,444.83,211.1Z"/><path class="cls-6" d="M227,160.87a33.42,33.42,0,0,0-2.46,4.15l-.81-.25c-3.67-1.18-5-2.94-5.33-4.53a5,5,0,0,1,.12-2.35,4.89,4.89,0,0,1,.51-1.24c1.58,1.79,4.91,3.15,6.72,3.8C226.53,160.73,227,160.87,227,160.87Z"/><path class="cls-16" d="M225.77,160.45l-.75,1.21c-3.46-1.12-5.74-2.37-6.48-3.77a4.89,4.89,0,0,1,.51-1.24C220.63,158.44,224,159.8,225.77,160.45Z"/><path class="cls-17" d="M223.75,164.77c-3.67-1.18-5-2.94-5.33-4.53a12.31,12.31,0,0,1,3.82,2.12A4.68,4.68,0,0,1,223.75,164.77Z"/><path class="cls-6" d="M421.86,201.62s3.62-11.91.86-19.85c0,0,23.1-16.17,30.21,9.38,0,0-2.71-23.5-24.91-19s-14.78,36.77-1.2,43.81C426.82,216,419.64,209.06,421.86,201.62Z"/><path class="cls-5" d="M424.57,203.86c-.55-2.05-3.48-5.07-7.23-3.78s-3.93,9.94,6.42,9.66C425.24,209.7,425.73,208.13,424.57,203.86Z"/><path class="cls-6" d="M422.72,181.77s13.31-4.9,20.8-1.21c0,0-8.07-7.25-21.74-.42Z"/><path class="cls-5" d="M414.46,238.26s14.76,12,28.5,11.78,18.56-15.64,18.56-15.64S440.22,228.09,414.46,238.26Z"/><path class="cls-11" d="M458.8,457.86c-4.62-15.9-8.22-30-11-42.58,0,0,.28-24.38,3.23-44.4C451,370.88,458.37,428.15,458.8,457.86Z"/><path class="cls-5" d="M373.18,264.79s-10.11-16.12-12.2-26.42c0,0,2.79-4.86,1.91-7.91s-7.84-12.8-10.54-11.69-7.57,6.85-6.8,9.9,8.05,10.59,8.05,10.59,5.75,23.72,11.22,30S373.18,264.79,373.18,264.79Z"/><path class="cls-6" d="M400.71,246.69c5.14-.71,15.52,9.32,13.94,18s-16.11,33.07-27.32,31.17c-15.84-2.68-33.25-44.44-33.25-44.44l8.69-7.57s20.51,35.53,24.56,34.83S400.71,246.69,400.71,246.69Z"/><path class="cls-13" d="M400.71,246.69c5.14-.71,15.52,9.32,13.94,18s-16.11,33.07-27.32,31.17c-15.84-2.68-33.25-44.44-33.25-44.44l8.69-7.57s20.51,35.53,24.56,34.83S400.71,246.69,400.71,246.69Z"/><polygon class="cls-6" points="350.53 248.87 363.22 241.26 365.23 244.54 353.26 255.14 350.53 248.87"/><polygon class="cls-6" points="510.68 258.55 520.95 271.27 522.74 267.28 513.5 256.54 510.68 258.55"/><path class="cls-8" d="M515.81,241.34l16.24-19.78a1.54,1.54,0,0,1,2.24-.14l7.24,6.84a1.52,1.52,0,0,1,.13,2.07l-16.49,20.24a1.53,1.53,0,0,1-2.29.09l-7-7.29A1.53,1.53,0,0,1,515.81,241.34Z"/><path class="cls-18" d="M515.81,241.34l16.24-19.78a1.54,1.54,0,0,1,2.24-.14l7.24,6.84a1.52,1.52,0,0,1,.13,2.07l-16.49,20.24a1.53,1.53,0,0,1-2.29.09l-7-7.29A1.53,1.53,0,0,1,515.81,241.34Z"/><path class="cls-19" d="M515.16,240.55l16.24-19.78a1.52,1.52,0,0,1,2.23-.14l7.24,6.83a1.54,1.54,0,0,1,.14,2.08l-16.49,20.24a1.55,1.55,0,0,1-2.3.09l-7-7.29A1.53,1.53,0,0,1,515.16,240.55Z"/><polygon class="cls-20" points="532.05 221.56 540.08 229.33 524.38 248.65 516.56 240.44 532.05 221.56"/><circle class="cls-1" cx="764.17" cy="411.61" r="35.73"/><path class="cls-21" d="M797.87,411.62a33.7,33.7,0,1,1-33.69-33.71A33.6,33.6,0,0,1,797.87,411.62Z"/><path class="cls-22" d="M788.86,434.54a33.68,33.68,0,0,1-50.65-1.46,3.27,3.27,0,0,1,.53-.17,7.53,7.53,0,0,1,1.61-1.69,1.37,1.37,0,0,1,0-.28l.59-.11a7.07,7.07,0,0,1,3.69-1,8.38,8.38,0,0,1,1.1.06l2.1-.39s0,.21,0,.58c2.66.21,6.72.46,11.34.77a5.94,5.94,0,0,0,2.09-2.95,10.36,10.36,0,0,0,.4-3.88,11.61,11.61,0,0,1-4.71-1.24,12.11,12.11,0,0,1-5.82-6.63,10.53,10.53,0,0,1-.37-1.21,30.63,30.63,0,0,1-.18-12.73v0a2,2,0,0,1-.35,0,.35.35,0,0,1-.3-.37s0-.06,0-.09a.4.4,0,0,1,.45-.32l.1,0a25.92,25.92,0,0,1,.57-7.61c-1.17-2.06-1.17-6.08-.06-7.69,1.26-1.81.28-.83,3.58-1.11s1.31-3.22,3.41-3.25,1.67,1.29,4.25,2.27,1.63-2,4.56-2.24,3.35,2,5.46,2.52,2.51,0,4.06,0,1.67,4.48,2.32,5.31,1.74-.42,3.13,1.88a2,2,0,0,1,.25,1.09c0,3-3.7,8.61-3.7,8.61-.17,1.31-.42,2.7-.76,4.18a3.86,3.86,0,0,1,.67,4.44,8.38,8.38,0,0,1-3.26,3.49,23.94,23.94,0,0,1-2.12,3.7c-.93,5.14-1.38,11.21.37,15.05A111.33,111.33,0,0,1,788.86,434.54Z"/><circle class="cls-23" cx="764.17" cy="411.61" r="35.73"/><circle class="cls-1" cx="165.5" cy="444.05" r="26.21"/><path class="cls-21" d="M140.79,444.06a24.71,24.71,0,1,0,24.71-24.72A24.67,24.67,0,0,0,140.79,444.06Z"/><path class="cls-22" d="M147.39,460.87a24.7,24.7,0,0,0,37.15-1.07,3,3,0,0,0-.39-.13,5.49,5.49,0,0,0-1.18-1.24,1.41,1.41,0,0,0,0-.2l-.44-.08a5.24,5.24,0,0,0-2.7-.71,5.68,5.68,0,0,0-.81.05l-1.54-.29s0,.16,0,.43c-1.95.15-4.93.34-8.32.56a4.35,4.35,0,0,1-1.53-2.16,7.65,7.65,0,0,1-.3-2.85,8.55,8.55,0,0,0,3.46-.91,8.85,8.85,0,0,0,4.27-4.86,8.36,8.36,0,0,0,.27-.89,22.41,22.41,0,0,0,.13-9.33v0h.26a.26.26,0,0,0,.22-.27s0,0,0-.07a.3.3,0,0,0-.33-.24h-.07a19,19,0,0,0-.42-5.58c.86-1.51.86-4.46.05-5.64-.93-1.33-.21-.61-2.63-.82s-1-2.36-2.5-2.38-1.23.95-3.12,1.67-1.2-1.44-3.35-1.65-2.45,1.44-4,1.85-1.84,0-3,0-1.23,3.28-1.71,3.89-1.27-.3-2.29,1.38a1.57,1.57,0,0,0-.19.81c0,2.17,2.72,6.31,2.72,6.31a30.18,30.18,0,0,0,.55,3.06,2.82,2.82,0,0,0-.48,3.26,6,6,0,0,0,2.39,2.56,17.09,17.09,0,0,0,1.55,2.71c.68,3.77,1,8.23-.27,11A81.79,81.79,0,0,0,147.39,460.87Z"/><circle class="cls-23" cx="165.5" cy="444.05" r="26.21"/><circle class="cls-14" cx="680.42" cy="224.58" r="55.18" transform="translate(40.49 546.91) rotate(-45)"/><g id="_Group_2" data-name="&lt;Group&gt;"><path class="cls-24" d="M653.65,222.46a28,28,0,0,1-3.32,4l-4.63,21.9-3,14.29a53.77,53.77,0,0,1-9.46-12.58c.37-1.16.77-2.36,1.16-3.58,3.27-10.15,7-21.91,7.31-23.07.49-2.06-1.31-12.2-.89-14.07s9.67-4,11.68-4S654.33,221.15,653.65,222.46Z"/><path class="cls-8" d="M660.89,246.58a.24.24,0,0,1,0,.08l-1.94,20-.68,6.82c-.87-.4-1.73-.82-2.58-1.25v0a54.23,54.23,0,0,1-22.45-22.08c-.71-1.33-1.37-2.7-2-4.09l3.14.51,11.32,1.87,2.44.4-2.85,13.84S655.67,248.15,660.89,246.58Z"/><path class="cls-12" d="M660.89,246.58a.24.24,0,0,1,0,.08l-1.94,20-.68,6.82c-.87-.4-1.73-.82-2.58-1.25v0a54.23,54.23,0,0,1-22.45-22.08c-.71-1.33-1.37-2.7-2-4.09l3.14.51,11.32,1.87,2.44.4-2.85,13.84S655.67,248.15,660.89,246.58Z"/><path class="cls-8" d="M728.33,248.66c-.72,1.45-1.53,2.86-2.37,4.23-.67,1.06-1.36,2.11-2.12,3.13a53.76,53.76,0,0,1-11.18,11.41c-1,.74-2,1.43-3,2.11a53,53,0,0,1-13.44,6.31,53.59,53.59,0,0,1-38-2.42c-.87-.4-1.73-.82-2.58-1.25v0a175.69,175.69,0,0,1,5.2-25.5.24.24,0,0,0,0-.08,111.24,111.24,0,0,1,17-3.46h.28a214,214,0,0,1,24.82-.53H703a118.34,118.34,0,0,1,17.11,1.7A46.91,46.91,0,0,1,728.33,248.66Z"/><path class="cls-12" d="M728.33,248.66c-.72,1.45-1.53,2.86-2.37,4.23-.67,1.06-1.36,2.11-2.12,3.13a53.76,53.76,0,0,1-11.18,11.41c-1,.74-2,1.43-3,2.11a53,53,0,0,1-13.44,6.31,53.59,53.59,0,0,1-38-2.42c-.87-.4-1.73-.82-2.58-1.25v0a175.69,175.69,0,0,1,5.2-25.5.24.24,0,0,0,0-.08,111.24,111.24,0,0,1,17-3.46h.28a214,214,0,0,1,24.82-.53H703a118.34,118.34,0,0,1,17.11,1.7A46.91,46.91,0,0,1,728.33,248.66Z"/><path class="cls-25" d="M712.66,267.43c-1,.74-2,1.43-3,2.11a53,53,0,0,1-13.44,6.31,53.59,53.59,0,0,1-38-2.42c-.87-.4-1.73-.82-2.58-1.25v0c.08-.44.14-.89.2-1.32a49.12,49.12,0,0,1,3.06-4.23c5.52-7.05,13.3-14.17,17.23-17.61,1.1,1.36,3,2.52,6,3.12,5.07,1,10.85-1.37,15.65-4.23a119.28,119.28,0,0,1,8.41,9.27,48.79,48.79,0,0,1,5.69,8.55C712.19,266.3,712.44,266.87,712.66,267.43Z"/><path class="cls-24" d="M703,242.65a26,26,0,0,1-18.27,8.29c-10.39.46-6.92-7.75-6.92-7.75,3.81-1,5.93-2.78,7-5,1.34-2.79.95-6.25.09-9.65l-.18-.71,15.17-13.51C698.53,222.49,697.26,237.36,703,242.65Z"/><path class="cls-11" d="M697.44,226.28c-.81,5.21-7.14,10.34-12.59,11.95,1.34-2.79.95-6.25.09-9.65L697.51,219A19.64,19.64,0,0,1,697.44,226.28Z"/><path class="cls-6" d="M687.6,196.8c3.61,4.07.34,8.57-11.51,13.9-2.68-6.22-.77-16.46,3.06-18.19S684.46,193.27,687.6,196.8Z"/><path class="cls-24" d="M704.27,209.7c-3.19,10.53-4.53,16.84-11.22,21.05-10.06,6.32-22.09-1.69-22.11-13,0-10.12,5.2-25.64,16.66-27.41a15,15,0,0,1,16.67,19.33Z"/><path class="cls-6" d="M687.62,208.85c-.2.86-.84,1.46-1.4,1.32s-.86-.94-.65-1.81.82-1.46,1.39-1.34S687.77,208,687.62,208.85Z"/><path class="cls-6" d="M677.74,206.52c-.21.86-.84,1.46-1.41,1.32s-.87-.94-.66-1.82.84-1.46,1.41-1.33S677.94,205.65,677.74,206.52Z"/><path class="cls-6" d="M691.06,206.37a.56.56,0,0,0,.34,0,.53.53,0,0,0,.28-.69,5.18,5.18,0,0,0-3.66-3.1.52.52,0,0,0-.6.4v0a.55.55,0,0,0,.43.61h0a4.11,4.11,0,0,1,2.86,2.47A.56.56,0,0,0,691.06,206.37Z"/><path class="cls-6" d="M674,202.12a.56.56,0,0,0,.53-.18,4.16,4.16,0,0,1,3.42-1.63.53.53,0,0,0,.12-1.05,5.23,5.23,0,0,0-4.35,2,.52.52,0,0,0,.07.73h0A.55.55,0,0,0,674,202.12Z"/><path class="cls-6" d="M702.26,199.22c-5.4.53-6.07,6.06-1,18,6.19-2.74,11.77-11.56,10.11-15.41S707,198.77,702.26,199.22Z"/><path class="cls-24" d="M707.33,219.45a10.49,10.49,0,0,1-6.28,4.94c-3.54,1-5.27-2.22-4.27-5.54.9-3,3.84-7.1,7.37-6.58S709,216.48,707.33,219.45Z"/><path class="cls-6" d="M691.88,194.78s-1.13,11.06,9,14.36,13.93-2.49,13.93-2.49a18.84,18.84,0,0,1-2.58-.43s4.32-4.41,2.6-10.18-10.63-13.6-18.92-12.85a18.66,18.66,0,0,0-14.72-2.28c-8.18,2.32-9.21,11.65-9.21,11.65s1.08-5.55,4.78-6.23c0,0-7,10.21-1.58,14.78C675.14,201.11,678.58,190.19,691.88,194.78Z"/><path class="cls-6" d="M677,219.91a28.37,28.37,0,0,1,2.05,3.76c.25-.06.49-.12.73-.2,3.3-.93,4.52-2.45,4.87-3.85a4.42,4.42,0,0,0,0-2.09,4.17,4.17,0,0,0-.41-1.12c-1.46,1.54-4.46,2.64-6.09,3.16C677.46,219.8,677,219.91,677,219.91Z"/><path class="cls-16" d="M678.14,219.57l.64,1.1c3.1-.89,5.16-1.93,5.86-3.14a4.17,4.17,0,0,0-.41-1.12C682.77,218,679.77,219.05,678.14,219.57Z"/><path class="cls-17" d="M679.8,223.47c3.3-.93,4.52-2.45,4.87-3.85a11,11,0,0,0-3.45,1.76A4.11,4.11,0,0,0,679.8,223.47Z"/></g></svg>