<svg id="Layer_1" data-name="Layer 1" xmlns="http://www.w3.org/2000/svg" viewBox="0 0 880 700"><defs><style>.cls-1{fill:#e0e0e0;}.cls-2{fill:#fafbfb;}.cls-3{fill:#f5f5f5;}.cls-4{fill:#db4d65;}.cls-5{fill:#fff;}.cls-6{fill:#455b64;}.cls-7{fill:#37474f;}.cls-8{fill:#263238;}.cls-9{fill:#58c2b1;}.cls-10{fill:#4aa8b0;}.cls-11{fill:#dd4d65;}.cls-12{opacity:0.15;}.cls-13{fill:#4ea8b0;}.cls-14{fill:#ebebeb;}.cls-15{fill:#b78876;}.cls-16{fill:#aa6551;}.cls-17{opacity:0.3;}</style></defs><rect class="cls-1" x="563.68" y="65.73" width="146.49" height="96.31" transform="translate(523.04 750.81) rotate(-90)"/><rect class="cls-2" x="568.63" y="69.89" width="136.23" height="88.07" transform="translate(522.82 750.66) rotate(-90)"/><rect class="cls-1" x="614.7" y="101.81" width="44.44" height="24.23" transform="translate(523 750.85) rotate(-90)"/><polygon class="cls-3" points="723.99 395.78 720.92 634.48 858.25 634.48 858.25 399.04 723.99 395.78"/><polygon class="cls-1" points="797.98 397.58 796.76 634.48 858.25 634.48 858.25 399.04 797.98 397.58"/><polygon class="cls-1" points="728.31 400.08 728.31 448.9 793.36 448.9 793.36 402.39 728.31 400.08"/><polygon class="cls-3" points="750.74 413.51 750.74 420.72 770.64 420.72 770.64 412.86 750.74 413.51"/><rect class="cls-3" x="750.74" y="426.78" width="20.55" height="2.95"/><polygon class="cls-1" points="728.31 571.16 728.31 619.98 793.36 619.98 793.36 573.47 728.31 571.16"/><polygon class="cls-3" points="750.74 584.59 750.74 591.8 770.64 591.8 770.64 583.94 750.74 584.59"/><rect class="cls-3" x="750.74" y="597.87" width="20.55" height="2.95"/><polygon class="cls-1" points="728.31 455.12 728.31 503.94 793.36 503.94 793.36 457.42 728.31 455.12"/><polygon class="cls-3" points="750.74 468.55 750.74 475.76 770.64 475.76 770.64 467.89 750.74 468.55"/><rect class="cls-3" x="750.74" y="481.82" width="20.55" height="2.95"/><rect class="cls-1" x="727.46" y="513.57" width="65.05" height="48.82"/><polygon class="cls-3" points="750.33 535.58 750.33 542.36 769.04 542.36 769.04 534.96 750.33 535.58"/><rect class="cls-3" x="750.33" y="548.05" width="19.32" height="2.77"/><g id="Plants"><path class="cls-4" d="M423.51,279.37c-6.94,7.59-19.67,20.08-27.07,32.14a.41.41,0,0,0-.05.09c-2.89,4.73-5,9.39-5.53,13.66l-.52,7.71-3.17-1.83-.53-.31-1.31-.75h0a6.27,6.27,0,0,1-3.12-5.25c-.51-18.8,4.52-34.78,9.38-44.45,6.65-13.21,19.11-26.68,29.94-25.36C431.6,256.25,433.19,268.79,423.51,279.37Z"/><path class="cls-5" d="M418.4,262.31c-13.26,8.38-32.19,37.59-31.76,68.52l-1.31-.75c-.11-31.12,19-60.4,32.37-68.87a.65.65,0,0,1,.7,1.1Z"/><path class="cls-4" d="M431.37,304.15c-2.31,6.27-15.49,11.71-25.22,20.76a63.17,63.17,0,0,0-6.68,7.25,6.12,6.12,0,0,1-7.89,1.52h0l-1.16-.67-.08,0-3.17-1.83a64,64,0,0,1,9.22-19.54.41.41,0,0,1,.05-.09c6.44-9.34,14.39-16.09,19.94-17.62C427.29,290.89,434.14,296.62,431.37,304.15Z"/><path class="cls-5" d="M422.1,300.38c-8,2.25-23.41,12-30.52,33.3l-1.16-.67c7.21-21.59,22.56-31.41,31.33-33.88a.65.65,0,1,1,.35,1.25Z"/></g><g id="Laptop"><path class="cls-6" d="M52.9,524c0,5,3.74,11.19,8.34,13.85l181.65,104.9c4.61,2.66,12.08,2.66,16.69,0L579.44,458.05c4.6-2.66,8.34-8.86,8.34-13.85s-3.73-11.19-8.34-13.85L397.79,325.45c-4.61-2.66-12.08-2.66-16.69,0L61.24,510.12C56.64,512.78,52.9,519,52.9,524Z"/><path class="cls-7" d="M587.79,444.2c0,5-3.74,11.19-8.35,13.85L259.57,642.73a17.13,17.13,0,0,1-8.33,2V626.65a17,17,0,0,0,8.33-2L579.44,440c4-2.32,4.54-5.92,1.51-8.57C584.83,434.42,587.79,439.77,587.79,444.2Z"/><path class="cls-8" d="M251.24,626.66v18.06a17,17,0,0,1-8.34-2L61.24,537.83C56.64,535.17,52.9,529,52.9,524c0-4.68,3.29-10.43,7.49-13.32-3.74,2.68-3.45,6.61.85,9.1L242.9,624.66A17,17,0,0,0,251.24,626.66Z"/><path class="cls-7" d="M45.07,510.42c-4.07-2.88-4.08-6.71-4.08-12V229.59c0-5.32,3.74-11.79,8.35-14.45L369.19,30.47c4.61-2.66,8.86-.73,13.18,1.76s7.08,4.65,7.08,10V311c0,5.32-3.74,11.79-8.35,14.45L61.24,510.12C54.27,514.82,49.51,513.55,45.07,510.42Z"/><path class="cls-8" d="M61.24,510.13c-7,4.69-11.73,3.42-16.17.29-4.07-2.88-4.08-6.71-4.08-12V229.6a17.19,17.19,0,0,1,2.43-8.22l11.91,6.93a17,17,0,0,0-2.43,8.19V505.31C52.9,510.62,56.63,512.78,61.24,510.13Z"/><path class="cls-6" d="M389.45,42.2c0-5.31-3.74-7.47-8.35-4.82L61.24,222.06a16.93,16.93,0,0,0-5.9,6.24l-11.9-6.93h0a17.08,17.08,0,0,1,5.91-6.23L369.18,30.47c4.61-2.66,8.86-.74,13.18,1.76S389.45,36.89,389.45,42.2Z"/><path class="cls-8" d="M65.73,231.68l308.39-178c2.76-1.6,5-.3,5,2.89V303.12a11.08,11.08,0,0,1-5,8.67l-308.39,178c-2.76,1.6-5,.31-5-2.89V240.35A11.09,11.09,0,0,1,65.73,231.68Z"/><path class="cls-9" d="M65.73,231.68a11.09,11.09,0,0,0-5,8.67V485.41l306.58-177a11.08,11.08,0,0,0,5-8.67V54.73Z"/><path class="cls-10" d="M65.73,231.68a11.09,11.09,0,0,0-5,8.67V485.41l306.58-177a11.08,11.08,0,0,0,5-8.67V54.73Z"/><path class="cls-7" d="M84.33,510.61,381.23,339.2a9.21,9.21,0,0,1,8.34,0l8.64,4.54c2.31,1.33,2.31,3.49,0,4.82L101.27,519.94a9.24,9.24,0,0,1-8.35,0l-8.59-4.51C82,514.1,82,512,84.33,510.61Z"/><path class="cls-8" d="M107.62,524.46,404.51,353.05c2.31-1.33,5.72-1.52,7.63-.42l77.28,44.62c1.9,1.1,1.58,3.07-.72,4.4L192.14,572.83c-2.3,1.33-5.72,1.52-7.63.43l-77.6-44.41C105,527.76,105.31,525.79,107.62,524.46Z"/><path class="cls-6" d="M362.43,424.34l9.3-5.36c.39-.23.45-.57.13-.76l-8.2-4.73a1.46,1.46,0,0,0-1.3.07l-9.3,5.37c-.39.23-.45.56-.13.75l8.2,4.74A1.47,1.47,0,0,0,362.43,424.34Zm-13-18.22-9.3,5.37c-.39.22-.45.56-.12.75l8.2,4.73a1.47,1.47,0,0,0,1.3-.07l9.29-5.37c.4-.23.46-.57.13-.75l-8.2-4.74A1.47,1.47,0,0,0,349.46,406.12Zm-30,17.34-15.73,9.08c-.4.23-.46.57-.13.75l8.2,4.74a1.47,1.47,0,0,0,1.3-.08l15.73-9.08c.39-.23.45-.57.13-.75l-8.2-4.74A1.47,1.47,0,0,0,319.43,423.46Zm16.44-9.5-9.29,5.37c-.4.23-.45.56-.13.75l8.2,4.73a1.43,1.43,0,0,0,1.3-.07l9.3-5.37c.39-.23.45-.56.13-.75l-8.21-4.73A1.43,1.43,0,0,0,335.87,414ZM299.41,435l-9.3,5.36c-.4.23-.45.57-.13.76l8.2,4.73a1.47,1.47,0,0,0,1.3-.07l9.3-5.37c.39-.23.45-.57.13-.75l-8.2-4.74A1.47,1.47,0,0,0,299.41,435Zm-13.59,7.84-9.3,5.37c-.39.23-.45.56-.13.75l8.2,4.73a1.45,1.45,0,0,0,1.31-.07l9.29-5.37c.4-.23.45-.56.13-.75l-8.2-4.73A1.43,1.43,0,0,0,285.82,442.86Zm34.45,20.72,9.29-5.37c.4-.23.46-.57.13-.75l-8.2-4.74a1.47,1.47,0,0,0-1.3.08l-9.29,5.37c-.4.22-.46.56-.13.75l8.2,4.73A1.47,1.47,0,0,0,320.27,463.58Zm-13.59,7.84,9.3-5.37c.39-.23.45-.56.13-.75l-8.2-4.73a1.43,1.43,0,0,0-1.3.07l-9.3,5.37c-.4.23-.45.56-.13.75l8.2,4.73A1.43,1.43,0,0,0,306.68,471.42Zm-13.59,7.84,9.3-5.36c.4-.23.45-.57.13-.75l-8.2-4.74a1.44,1.44,0,0,0-1.3.08l-9.3,5.36c-.39.23-.45.57-.13.75l8.2,4.74A1.44,1.44,0,0,0,293.09,479.26Zm-13.58,7.85,9.29-5.37c.4-.23.46-.56.13-.75l-8.2-4.73a1.43,1.43,0,0,0-1.3.07l-9.29,5.37c-.4.23-.46.56-.13.75l8.2,4.73A1.43,1.43,0,0,0,279.51,487.11Zm69.34-54.92,9.29-5.37c.4-.23.45-.57.13-.75l-8.2-4.74a1.47,1.47,0,0,0-1.3.08l-9.29,5.36c-.4.23-.46.57-.14.76l8.2,4.73A1.49,1.49,0,0,0,348.85,432.19Zm-15,23.54,20.74-12c.4-.23.45-.56.13-.75l-21.1-12.18a1.47,1.47,0,0,0-1.3.07l-10.72,6.2c-.4.22-.45.56-.13.75l11.72,6.77c.33.18.27.52-.13.75l-8.58,4.95c-.39.23-.45.57-.13.75l8.2,4.74A1.47,1.47,0,0,0,333.85,455.73Zm-61.62-5-9.29,5.36c-.4.23-.46.57-.13.75l8.2,4.74a1.47,1.47,0,0,0,1.3-.08l9.29-5.36c.4-.23.46-.57.13-.75l-8.2-4.74A1.44,1.44,0,0,0,272.23,450.71Zm-13.58,7.84-9.3,5.37c-.39.23-.45.56-.13.75l8.2,4.73a1.43,1.43,0,0,0,1.3-.07L268,464c.39-.23.45-.56.13-.75l-8.2-4.73A1.43,1.43,0,0,0,258.65,458.55ZM183.1,542.09a1.46,1.46,0,0,0,1.3-.07l9.3-5.37c.39-.23.45-.57.13-.75l-8.2-4.74a1.47,1.47,0,0,0-1.3.08l-9.3,5.37c-.39.22-.45.56-.13.75ZM150,521.3l-9.3,5.37c-.39.23-.45.56-.13.75l8.2,4.73a1.43,1.43,0,0,0,1.3-.07l9.3-5.37c.39-.23.45-.56.13-.75l-8.2-4.73A1.43,1.43,0,0,0,150,521.3Zm16.67,15.41a1.46,1.46,0,0,0,1.3-.07l9.3-5.37c.39-.23.45-.57.13-.75l-8.2-4.74a1.47,1.47,0,0,0-1.3.08l-9.3,5.36c-.39.23-.45.57-.13.76Zm37.82,8.62,9.3-5.36c.39-.23.45-.57.13-.75l-8.2-4.74a1.44,1.44,0,0,0-1.3.08l-9.3,5.36c-.39.23-.45.57-.13.75l8.2,4.74A1.47,1.47,0,0,0,204.45,545.33Zm-14.89,7.92a1.43,1.43,0,0,0,1.3-.07l9.3-5.37c.4-.23.45-.56.13-.75l-8.2-4.73a1.43,1.43,0,0,0-1.3.07l-9.3,5.37c-.39.23-.45.56-.13.75Zm-26-39.79-9.29,5.36c-.4.23-.46.57-.13.76l8.2,4.73a1.47,1.47,0,0,0,1.3-.07l9.29-5.37c.4-.23.46-.57.13-.75l-8.2-4.74A1.47,1.47,0,0,0,163.54,513.46Zm67.93-39.22-9.29,5.36c-.4.23-.45.57-.13.76l8.2,4.73a1.47,1.47,0,0,0,1.3-.07l9.3-5.37c.39-.23.45-.57.13-.75l-8.21-4.74A1.47,1.47,0,0,0,231.47,474.24Zm-54.34,31.37-9.3,5.37c-.39.23-.45.57-.13.75l8.2,4.74a1.47,1.47,0,0,0,1.3-.08l9.3-5.37c.4-.22.45-.56.13-.75l-8.2-4.73A1.47,1.47,0,0,0,177.13,505.61Zm67.93-39.22-9.3,5.37c-.39.23-.45.57-.12.75l8.2,4.74a1.47,1.47,0,0,0,1.3-.08l9.29-5.37c.4-.22.45-.56.13-.75l-8.2-4.73A1.47,1.47,0,0,0,245.06,466.39Zm-27.17,15.69-9.3,5.37c-.39.23-.45.56-.13.75l8.2,4.73a1.43,1.43,0,0,0,1.3-.07l9.3-5.37c.39-.23.45-.56.13-.75l-8.2-4.73A1.43,1.43,0,0,0,217.89,482.08Zm-13.59,7.85L195,495.29c-.4.23-.46.57-.13.75l8.2,4.74a1.44,1.44,0,0,0,1.3-.08l9.29-5.36c.4-.23.46-.57.13-.75l-8.2-4.74A1.44,1.44,0,0,0,204.3,489.93Zm-13.58,7.84-9.3,5.37c-.4.23-.45.56-.13.75l8.2,4.73a1.43,1.43,0,0,0,1.3-.07l9.3-5.37c.39-.23.45-.56.13-.75L192,497.7A1.43,1.43,0,0,0,190.72,497.77Zm61.62,5,9.29-5.37c.4-.23.45-.57.13-.75l-8.2-4.74a1.47,1.47,0,0,0-1.3.08l-9.3,5.37c-.39.22-.45.56-.12.75l8.19,4.73A1.49,1.49,0,0,0,252.34,502.8Zm127.15-114-9.29,5.37c-.4.22-.45.56-.13.75l8.2,4.73a1.47,1.47,0,0,0,1.3-.07l9.3-5.37c.39-.23.45-.56.12-.75l-8.2-4.74A1.47,1.47,0,0,0,379.49,388.78Zm-16.44,9.49-9.3,5.37c-.39.23-.45.57-.13.75l8.2,4.74a1.47,1.47,0,0,0,1.3-.08l9.3-5.36c.39-.23.45-.57.13-.76l-8.2-4.73A1.46,1.46,0,0,0,363.05,398.27Zm30-17.33-9.3,5.36c-.39.23-.45.57-.13.75l8.2,4.74a1.47,1.47,0,0,0,1.3-.08l9.3-5.36c.4-.23.45-.57.13-.76l-8.2-4.73A1.44,1.44,0,0,0,393.08,380.94Zm-75.7,69.41,9.3-5.37c.39-.22.45-.56.13-.75l-8.2-4.73a1.46,1.46,0,0,0-1.3.07l-9.3,5.37c-.39.23-.45.56-.13.75l8.2,4.74A1.47,1.47,0,0,0,317.38,450.35ZM408,373a1.43,1.43,0,0,0-1.3.07l-9.3,5.37c-.39.23-.45.56-.13.75l8.2,4.73a1.43,1.43,0,0,0,1.3-.07l9.3-5.37c.39-.23.45-.56.13-.75ZM265.92,495l9.3-5.36c.39-.23.45-.57.13-.76l-8.2-4.73a1.46,1.46,0,0,0-1.3.07l-9.3,5.37c-.39.23-.45.57-.13.75l8.2,4.74A1.47,1.47,0,0,0,265.92,495Zm166.61-96.19,9.3-5.37c.39-.23.45-.56.13-.75l-8.2-4.73a1.43,1.43,0,0,0-1.3.07l-9.3,5.37c-.39.23-.45.56-.13.75l8.2,4.73A1.43,1.43,0,0,0,432.53,398.76Zm-26.48.4,9.3-5.37c.39-.23.45-.56.13-.75l-8.2-4.73a1.43,1.43,0,0,0-1.3.07l-9.3,5.37c-.4.23-.45.56-.13.75l8.2,4.73A1.43,1.43,0,0,0,406.05,399.16Zm14.81-18.7a1.44,1.44,0,0,0-1.3.08l-9.29,5.36c-.4.23-.46.57-.13.75l8.2,4.74a1.44,1.44,0,0,0,1.3-.08l9.29-5.36c.4-.23.46-.57.13-.75Zm2.86-1.65L444.82,391a1.47,1.47,0,0,0,1.3-.07l9.3-5.37c.39-.23.45-.57.13-.75l-21.1-12.18a1.43,1.43,0,0,0-1.3.07l-9.3,5.37C423.46,378.29,423.4,378.62,423.72,378.81Zm-31.33,17.42-9.3,5.36c-.39.23-.45.57-.13.75l8.2,4.74a1.49,1.49,0,0,0,1.31-.08l9.29-5.36c.4-.23.45-.57.13-.76l-8.2-4.73A1.44,1.44,0,0,0,392.39,396.23Zm-102.26,59-9.29,5.37c-.4.23-.45.56-.13.75l8.2,4.73a1.43,1.43,0,0,0,1.3-.07l9.3-5.37c.39-.23.45-.56.12-.75l-8.19-4.73A1.45,1.45,0,0,0,290.13,455.26Zm127.52-48.58a1.47,1.47,0,0,0,1.3-.08l9.29-5.36c.4-.23.46-.57.13-.75l-8.2-4.74a1.44,1.44,0,0,0-1.3.08l-9.29,5.36c-.4.23-.46.57-.13.75ZM303.72,447.42l-9.29,5.36c-.4.23-.46.57-.13.76l8.2,4.73a1.47,1.47,0,0,0,1.3-.07l9.29-5.37c.4-.23.46-.57.13-.75l-8.2-4.74A1.47,1.47,0,0,0,303.72,447.42Zm-107,86.83a1.47,1.47,0,0,0,1.3-.08l9.3-5.36c.39-.23.45-.57.13-.76l-8.2-4.73a1.46,1.46,0,0,0-1.3.07l-9.3,5.37c-.4.23-.45.57-.13.75ZM181.44,518l-9.29,5.37c-.4.23-.45.57-.13.75l8.2,4.74a1.47,1.47,0,0,0,1.3-.08l9.3-5.37c.39-.22.45-.56.12-.75l-8.19-4.73A1.49,1.49,0,0,0,181.44,518Zm30.14,8.32,9.29-5.37c.4-.23.46-.56.13-.75l-8.2-4.73a1.43,1.43,0,0,0-1.3.07l-9.29,5.37c-.4.23-.46.56-.13.75l8.2,4.73A1.43,1.43,0,0,0,211.58,526.33Zm13.58-7.84,9.3-5.37c.39-.23.45-.57.13-.75l-8.2-4.74a1.47,1.47,0,0,0-1.3.08l-9.3,5.36c-.39.23-.45.57-.13.75l8.2,4.74A1.46,1.46,0,0,0,225.16,518.49Zm13.59-7.85,9.3-5.37c.39-.23.45-.56.13-.75L240,499.79a1.43,1.43,0,0,0-1.3.07l-9.29,5.37c-.4.23-.45.56-.13.75l8.2,4.73A1.43,1.43,0,0,0,238.75,510.64ZM195,510.17l-9.3,5.37c-.39.22-.45.56-.13.75l8.21,4.73a1.43,1.43,0,0,0,1.3-.07l9.29-5.37c.4-.23.45-.56.13-.75l-8.2-4.73A1.43,1.43,0,0,0,195,510.17Zm13.59-7.84-9.3,5.36c-.39.23-.45.57-.13.75l8.2,4.74a1.44,1.44,0,0,0,1.3-.08l9.3-5.36c.39-.23.45-.57.13-.75l-8.2-4.74A1.44,1.44,0,0,0,208.62,502.33ZM263,471l-9.29,5.37c-.4.22-.46.56-.13.75l8.2,4.73a1.43,1.43,0,0,0,1.3-.07l9.29-5.37c.4-.23.46-.56.13-.75l-8.2-4.73A1.43,1.43,0,0,0,263,471Zm-13.58,7.84-9.3,5.37c-.39.23-.45.57-.13.75l8.2,4.74a1.47,1.47,0,0,0,1.3-.08l9.3-5.37c.39-.22.45-.56.13-.75l-8.2-4.73A1.46,1.46,0,0,0,249.38,478.79Zm27.17-15.68-9.3,5.36c-.39.23-.45.57-.13.75l8.2,4.74a1.47,1.47,0,0,0,1.3-.08l9.3-5.36c.39-.23.45-.57.13-.75l-8.2-4.74A1.44,1.44,0,0,0,276.55,463.11ZM222.2,494.48l-9.29,5.37c-.4.23-.46.56-.13.75l8.2,4.73a1.43,1.43,0,0,0,1.3-.07l9.29-5.37c.4-.23.46-.56.13-.75l-8.2-4.73A1.43,1.43,0,0,0,222.2,494.48Zm13.59-7.84-9.3,5.36c-.39.23-.45.57-.13.76l8.2,4.73a1.46,1.46,0,0,0,1.3-.07l9.3-5.37c.4-.23.45-.57.13-.75l-8.2-4.74A1.47,1.47,0,0,0,235.79,486.64ZM218,537.49l9.29-5.37c.4-.23.46-.56.13-.75l-8.2-4.73a1.43,1.43,0,0,0-1.3.07l-9.29,5.37c-.4.23-.46.56-.13.75l8.2,4.73A1.43,1.43,0,0,0,218,537.49Zm-72.17-3.68-8.2-4.74a1.44,1.44,0,0,0-1.3.08l-9.3,5.36c-.39.23-.45.57-.13.75l8.2,4.74a1.46,1.46,0,0,0,1.31-.08l9.29-5.36C146.14,534.33,146.19,534,145.87,533.81Zm17.9,4.55-8.2-4.73a1.43,1.43,0,0,0-1.3.07L140,542c-.4.23-.45.56-.13.75l8.2,4.73a1.43,1.43,0,0,0,1.3-.07l14.3-8.26C164,538.88,164.1,538.55,163.77,538.36Zm-30-14-8.2-4.73a1.43,1.43,0,0,0-1.3.07l-11.44,6.61c-.4.22-.46.56-.13.75l8.2,4.73a1.47,1.47,0,0,0,1.3-.07l11.44-6.61C134.07,524.88,134.12,524.55,133.8,524.36Zm8.77-5.07a1.43,1.43,0,0,0,1.3-.07l9.3-5.37c.39-.22.45-.56.13-.75l-8.2-4.73a1.46,1.46,0,0,0-1.3.07l-9.3,5.37c-.4.23-.45.56-.13.75Zm37.67,24.45L172,539a1.47,1.47,0,0,0-1.3.07L152.87,549.4c-.4.23-.46.57-.13.76l8.2,4.73a1.47,1.47,0,0,0,1.3-.07l17.87-10.33C180.51,544.27,180.57,543.93,180.24,543.74Zm6.46,11.16-8.2-4.73a1.47,1.47,0,0,0-1.3.07l-11.44,6.61c-.39.23-.45.56-.13.75l8.2,4.74a1.47,1.47,0,0,0,1.3-.08l11.44-6.61C187,555.43,187,555.09,186.7,554.9ZM243.59,461a1.43,1.43,0,0,0,1.3-.07l9.29-5.37c.4-.23.46-.56.13-.75l-8.2-4.73a1.43,1.43,0,0,0-1.3.07l-9.29,5.37c-.4.23-.46.56-.13.75Zm-27.18,15.69a1.46,1.46,0,0,0,1.3-.07l9.3-5.37c.39-.23.45-.56.13-.75l-8.2-4.73a1.43,1.43,0,0,0-1.3.07l-9.3,5.37c-.39.22-.45.56-.13.75Zm-60.25,34.79a1.47,1.47,0,0,0,1.3-.07l9.29-5.37c.4-.23.46-.57.13-.75l-8.2-4.74a1.47,1.47,0,0,0-1.3.08L148.09,506c-.4.22-.46.56-.13.75ZM230,468.82a1.47,1.47,0,0,0,1.3-.08l9.3-5.36c.39-.23.45-.57.13-.76l-8.2-4.73a1.44,1.44,0,0,0-1.3.08l-9.3,5.36c-.4.23-.45.57-.13.75Zm-27.17,15.69a1.47,1.47,0,0,0,1.3-.08l9.29-5.37c.4-.22.46-.56.13-.75l-8.2-4.73a1.47,1.47,0,0,0-1.3.07L194.76,479c-.4.23-.46.57-.13.75ZM194.26,556a1.47,1.47,0,0,0-1.3.08l-14.3,8.26c-.4.22-.45.56-.13.75l8.2,4.73a1.47,1.47,0,0,0,1.3-.07l14.3-8.26c.4-.23.45-.57.13-.75Zm-10.93-60.2a1.43,1.43,0,0,0,1.3-.07l9.3-5.37c.39-.23.45-.56.13-.75l-8.2-4.73a1.45,1.45,0,0,0-1.31.07l-9.29,5.37c-.4.23-.45.56-.13.75Zm-13.59,7.85a1.47,1.47,0,0,0,1.3-.08l9.3-5.36c.39-.23.45-.57.13-.76l-8.2-4.73a1.47,1.47,0,0,0-1.3.07l-9.3,5.37c-.39.23-.45.57-.13.75Zm276.22-93a1.47,1.47,0,0,0-1.3.08l-22.88,13.21c-.39.23-.45.56-.13.75l8.2,4.73a1.43,1.43,0,0,0,1.3-.07L454,416.13c.4-.23.46-.57.13-.75Zm-30,17.34a1.44,1.44,0,0,0-1.3.08l-9.3,5.36c-.39.23-.45.57-.12.75l8.19,4.74a1.49,1.49,0,0,0,1.31-.08l9.29-5.36c.4-.23.45-.57.13-.75ZM231.62,529.65l9.3-5.37c.39-.23.45-.57.13-.75l-8.2-4.74a1.47,1.47,0,0,0-1.3.08l-9.3,5.36c-.39.23-.45.57-.13.76l8.2,4.73A1.46,1.46,0,0,0,231.62,529.65Zm157.14-86a1.46,1.46,0,0,0-1.3.07l-9.3,5.37c-.39.23-.45.57-.13.75l8.2,4.74a1.47,1.47,0,0,0,1.3-.08l9.3-5.37c.39-.22.45-.56.13-.75Zm70.79-40.87a1.43,1.43,0,0,0-1.3.07l-9.3,5.37c-.39.23-.45.56-.13.75l8.2,4.73a1.43,1.43,0,0,0,1.3-.07l9.3-5.37c.4-.23.45-.56.13-.75Zm21.79-3.11-21.1-12.18a1.47,1.47,0,0,0-1.3.07l-9.3,5.37c-.39.23-.45.56-.13.75l21.1,12.18a1.47,1.47,0,0,0,1.3-.07l9.3-5.37C481.6,400.21,481.66,399.87,481.34,399.69ZM338,473a1.44,1.44,0,0,0-1.3.08l-11.44,6.6c-.4.23-.46.57-.13.75l8.2,4.74a1.47,1.47,0,0,0,1.3-.08l11.44-6.6c.39-.23.45-.57.13-.75Zm34.32-19.82a1.47,1.47,0,0,0-1.3.08l-14.3,8.26c-.39.22-.45.56-.13.75l8.2,4.73a1.47,1.47,0,0,0,1.3-.07l14.3-8.26c.4-.23.46-.56.13-.75Zm-65.78,38a1.43,1.43,0,0,0-1.3.07L228.71,535.4c-.39.22-.45.56-.13.75l8.2,4.73a1.43,1.43,0,0,0,1.3-.07l76.52-44.18c.39-.23.45-.56.13-.75ZM225.72,537.8a1.43,1.43,0,0,0-1.3.07L213,544.48c-.39.23-.45.56-.13.75l8.2,4.73a1.43,1.43,0,0,0,1.3-.07l11.44-6.61c.4-.22.46-.56.13-.75Zm96.54-55.74a1.47,1.47,0,0,0-1.3.08l-11.44,6.6c-.4.23-.46.57-.13.76l8.2,4.73a1.47,1.47,0,0,0,1.3-.07l11.44-6.61c.39-.23.45-.56.13-.75ZM210,546.88a1.44,1.44,0,0,0-1.3.08l-11.44,6.6c-.4.23-.45.57-.13.75l8.2,4.74a1.47,1.47,0,0,0,1.3-.08l11.44-6.6c.4-.23.45-.57.13-.76Zm143.73-83a1.47,1.47,0,0,0-1.3.07L341,470.58c-.4.23-.45.56-.13.75l8.2,4.73a1.43,1.43,0,0,0,1.3-.07l11.44-6.61c.4-.22.45-.56.13-.75Zm48.62-28.07a1.43,1.43,0,0,0-1.3.07l-9.29,5.37c-.4.23-.45.56-.13.75l8.2,4.73a1.43,1.43,0,0,0,1.3-.07l9.3-5.37c.39-.23.45-.56.12-.75Zm29.5-21.78,9.3-5.37c.39-.23.45-.56.13-.75l-8.2-4.73a1.43,1.43,0,0,0-1.3.07l-9.3,5.37c-.39.23-.45.56-.13.75l8.2,4.73A1.43,1.43,0,0,0,431.84,414.05ZM376,416.5l9.29-5.37c.4-.23.46-.56.13-.75l-8.2-4.73a1.43,1.43,0,0,0-1.3.07l-9.29,5.37c-.4.23-.46.56-.13.75l8.2,4.73A1.43,1.43,0,0,0,376,416.5Zm-35.71,50.39,27.18-15.69c.39-.22.45-.56.13-.75l-8.2-4.73a1.46,1.46,0,0,0-1.3.07l-27.18,15.69c-.39.23-.45.57-.13.75L339,467A1.47,1.47,0,0,0,340.31,466.89ZM417,422a1.47,1.47,0,0,0,1.3-.08l9.29-5.36c.4-.23.46-.57.13-.76l-8.2-4.73a1.44,1.44,0,0,0-1.3.08l-9.3,5.36c-.39.23-.45.57-.12.75Zm-11.6-7.52,9.3-5.37c.39-.23.45-.56.13-.75l-8.2-4.73a1.43,1.43,0,0,0-1.3.07L396,409c-.4.23-.45.56-.13.75l8.2,4.73A1.43,1.43,0,0,0,405.36,414.45Zm-78.63,60.29,9.29-5.37c.4-.23.46-.56.13-.75l-8.2-4.74a1.47,1.47,0,0,0-1.3.08l-9.29,5.37c-.4.22-.46.56-.13.75l8.2,4.73A1.43,1.43,0,0,0,326.73,474.74Zm60.19-35.43a1.47,1.47,0,0,0,1.3-.08l9.3-5.36c.39-.23.45-.57.13-.76l-8.2-4.73a1.47,1.47,0,0,0-1.3.07l-9.3,5.37c-.39.23-.45.57-.13.75ZM258.8,514l9.29-5.37c.4-.23.45-.56.13-.75l-8.2-4.73a1.43,1.43,0,0,0-1.3.07l-9.3,5.37c-.39.22-.45.56-.13.75L257.5,514A1.43,1.43,0,0,0,258.8,514Zm13.58-7.85,9.3-5.36c.39-.23.45-.57.13-.75l-8.2-4.74a1.44,1.44,0,0,0-1.3.08L263,500.7c-.39.23-.45.57-.13.75l8.2,4.74A1.47,1.47,0,0,0,272.38,506.11ZM245.21,521.8l9.3-5.37c.39-.22.45-.56.12-.75L246.44,511a1.49,1.49,0,0,0-1.31.07l-9.29,5.37c-.4.23-.45.57-.13.75l8.2,4.74A1.47,1.47,0,0,0,245.21,521.8Zm54.34-31.37,9.3-5.37c.4-.23.45-.57.13-.75l-8.2-4.74a1.47,1.47,0,0,0-1.3.08l-9.3,5.36c-.39.23-.45.57-.13.76l8.2,4.73A1.46,1.46,0,0,0,299.55,490.43ZM286,498.27l9.29-5.37c.4-.23.46-.56.13-.75l-8.2-4.73a1.43,1.43,0,0,0-1.3.07l-9.29,5.37c-.4.23-.46.56-.13.75l8.2,4.73A1.43,1.43,0,0,0,286,498.27Zm27.17-15.69,9.3-5.37c.39-.22.45-.56.13-.75l-8.2-4.73a1.46,1.46,0,0,0-1.3.07l-9.3,5.37c-.4.23-.45.56-.13.75l8.2,4.74A1.47,1.47,0,0,0,313.14,482.58ZM388.21,374a1.49,1.49,0,0,0,1.31-.08l9.29-5.36c.4-.23.45-.57.13-.75l-2.18-1.27a1.47,1.47,0,0,0-1.3.08l-9.3,5.37c-.39.22-.45.56-.13.75Zm-67.78,42.61a1.47,1.47,0,0,0,1.3-.08l9.3-5.36c.39-.23.45-.57.13-.76l-8.2-4.73a1.47,1.47,0,0,0-1.3.07l-9.3,5.37c-.39.23-.45.57-.13.75Zm27.18-15.69a1.42,1.42,0,0,0,1.29-.08l9.3-5.36c.4-.23.45-.57.13-.75l-8.2-4.74a1.44,1.44,0,0,0-1.3.08l-9.3,5.36c-.39.23-.45.57-.13.75Zm-43.77,25.26a1.43,1.43,0,0,0,1.3-.07l9.3-5.37c.39-.22.45-.56.13-.75l-8.2-4.73a1.43,1.43,0,0,0-1.3.07l-9.3,5.37c-.39.23-.45.56-.13.75ZM334,408.76a1.43,1.43,0,0,0,1.3-.07l9.3-5.37c.39-.23.45-.56.12-.75l-8.2-4.73a1.43,1.43,0,0,0-1.3.07L326,403.28c-.4.23-.46.56-.13.75Zm-57.35,33.11a1.43,1.43,0,0,0,1.3-.07l9.3-5.37c.39-.23.45-.56.13-.75L279.2,431a1.45,1.45,0,0,0-1.31.07l-9.29,5.37c-.4.23-.45.56-.13.75ZM290.26,434a1.44,1.44,0,0,0,1.3-.08l9.29-5.36c.4-.23.46-.57.13-.75l-8.2-4.74a1.44,1.44,0,0,0-1.3.08l-9.29,5.36c-.4.23-.46.57-.13.75ZM361,389.69a1.47,1.47,0,0,0,1.3-.08l9.3-5.37c.39-.22.45-.56.13-.75l-2.18-1.26a1.47,1.47,0,0,0-1.3.08l-9.3,5.37c-.4.22-.45.56-.13.75Zm40.76-23.54a1.43,1.43,0,0,0,1.3-.07l9.3-5.37c.39-.23.45-.56.13-.75l-2.19-1.26a1.44,1.44,0,0,0-1.3.08l-9.29,5.36c-.4.23-.46.57-.13.75Zm17.23,10a1.44,1.44,0,0,0,1.3-.08l9.29-5.36c.4-.23.46-.57.13-.75l-8.2-4.74a1.44,1.44,0,0,0-1.3.08L411,370.61c-.4.23-.46.57-.13.75Zm26.4,30.11,9.29-5.37c.4-.23.46-.57.13-.75l-8.2-4.74a1.47,1.47,0,0,0-1.3.08l-9.29,5.36c-.4.23-.45.57-.13.75l8.2,4.74A1.47,1.47,0,0,0,445.43,406.21Zm-70.8-24.37a1.43,1.43,0,0,0,1.3-.07l9.3-5.37c.39-.23.45-.56.12-.75l-2.18-1.26a1.47,1.47,0,0,0-1.3.07l-9.29,5.37c-.4.23-.46.57-.13.75ZM263.08,449.72a1.47,1.47,0,0,0,1.3-.08l9.3-5.36c.39-.23.45-.57.13-.76l-8.2-4.73a1.47,1.47,0,0,0-1.3.07l-9.3,5.37c-.39.23-.45.57-.13.75Z"/><polygon class="cls-8" points="304.68 519.88 306.59 520.98 357.21 550.2 447.25 498.22 449.12 497.15 396.59 466.83 304.68 519.88"/><polygon class="cls-7" points="446.41 498.7 396.59 469.96 307.43 521.46 357.21 550.2 446.41 498.7"/></g><g id="Www"><g id="www-2" data-name="www"><path class="cls-11" d="M456.73,139.06c0-2.64-.91-4.5-2.4-5.37s-10.23-5.92-11.75-6.78-3.57-.73-5.86.59L273.47,221.76v54l11.7,6.75,163.25-94.25c4.59-2.65,8.32-9.1,8.32-14.4Z"/><path class="cls-12" d="M456.73,139.06c0-2.64-.91-4.5-2.4-5.37s-10.23-5.92-11.75-6.78-3.57-.73-5.86.59L273.47,221.76v54l11.7,6.75,163.25-94.25c4.59-2.65,8.32-9.1,8.32-14.4Z"/><path class="cls-13" d="M448.42,134.26c4.59-2.66,8.31-.51,8.32,4.8v34.83c0,5.3-3.73,11.75-8.32,14.4L285.17,282.54v-54Z"/><path class="cls-2" d="M446.75,183.84a12.44,12.44,0,0,0,5.6-9.71V142c0-2.53-1.8-3.57-4-2.3L288.45,232v43.26Z"/><path class="cls-6" d="M307.93,252.64a1.71,1.71,0,0,1-.18.74,1.11,1.11,0,0,1-.42.51l-2.76,1.59a.31.31,0,0,1-.42,0,.74.74,0,0,1-.17-.54v-8.54a3.5,3.5,0,0,0-.46-2.06c-.31-.4-.79-.42-1.45,0a3.28,3.28,0,0,0-1.43,1.71,7,7,0,0,0-.45,2.58v8.54a1.72,1.72,0,0,1-.18.75,1.21,1.21,0,0,1-.41.51L296.83,260a.29.29,0,0,1-.41,0,.7.7,0,0,1-.18-.54V237.24a1.68,1.68,0,0,1,.18-.74,1,1,0,0,1,.41-.51l2.77-1.6a.32.32,0,0,1,.41,0,.7.7,0,0,1,.18.54v7.19a10,10,0,0,1,1.16-2,5.73,5.73,0,0,1,1.82-1.7,4.31,4.31,0,0,1,1.93-.66,1.93,1.93,0,0,1,1.5.53,3.85,3.85,0,0,1,1,1.83,12.08,12.08,0,0,1,.36,3.24Z"/><path class="cls-6" d="M315.23,244.28a1.93,1.93,0,0,0,.21,1.07c.15.2.39.2.73,0l1.75-1a.33.33,0,0,1,.42,0,.73.73,0,0,1,.17.54v3.41a1.63,1.63,0,0,1-.17.74,1.2,1.2,0,0,1-.42.52l-2.08,1.2a4.19,4.19,0,0,1-1.87.62,2,2,0,0,1-1.44-.48,3.46,3.46,0,0,1-.92-1.56,8.75,8.75,0,0,1-.33-2.6v-5.67l-1.62.94a.33.33,0,0,1-.42,0,.73.73,0,0,1-.17-.54v-3.41a1.63,1.63,0,0,1,.17-.74,1.2,1.2,0,0,1,.42-.52l1.62-.93v-5.5a1.86,1.86,0,0,1,.17-.75,1.23,1.23,0,0,1,.42-.51l2.76-1.59a.33.33,0,0,1,.42,0,.7.7,0,0,1,.18.54v5.5l2.47-1.43a.33.33,0,0,1,.42,0,.7.7,0,0,1,.18.54v3.41a1.68,1.68,0,0,1-.18.74,1.11,1.11,0,0,1-.42.51l-2.47,1.43Z"/><path class="cls-6" d="M326.37,238.59a1.83,1.83,0,0,0,.22,1.07c.14.2.39.2.72,0l1.76-1a.32.32,0,0,1,.41,0,.73.73,0,0,1,.18.54v3.41a1.65,1.65,0,0,1-.18.74,1.19,1.19,0,0,1-.41.52l-2.09,1.2a4,4,0,0,1-1.87.62,2,2,0,0,1-1.44-.48,3.46,3.46,0,0,1-.92-1.56,8.75,8.75,0,0,1-.33-2.6V235.4l-1.62.94a.33.33,0,0,1-.42,0,.74.74,0,0,1-.17-.54v-3.41a1.78,1.78,0,0,1,.17-.74,1.11,1.11,0,0,1,.42-.51l1.62-.94v-5.5a1.65,1.65,0,0,1,.18-.74,1.19,1.19,0,0,1,.41-.52l2.77-1.59a.31.31,0,0,1,.41,0,.7.7,0,0,1,.18.54v5.5l2.48-1.43a.31.31,0,0,1,.41,0,.7.7,0,0,1,.18.54v3.41a1.65,1.65,0,0,1-.18.74,1,1,0,0,1-.41.51l-2.48,1.43Z"/><path class="cls-6" d="M339.54,238.29a3.48,3.48,0,0,1-1.12.45,1.88,1.88,0,0,1-.83,0,1.4,1.4,0,0,1-.59-.32,2.27,2.27,0,0,1-.4-.43v7.19a1.78,1.78,0,0,1-.17.74,1.2,1.2,0,0,1-.42.52L333.25,248a.33.33,0,0,1-.42,0,.7.7,0,0,1-.18-.54V225.29a1.65,1.65,0,0,1,.18-.74,1.11,1.11,0,0,1,.42-.51l2.65-1.54a.33.33,0,0,1,.42,0,.78.78,0,0,1,.17.54v.78c.13-.3.28-.62.43-.95a5.5,5.5,0,0,1,.57-1,6.46,6.46,0,0,1,.83-1,6.73,6.73,0,0,1,1.22-.88,4.37,4.37,0,0,1,1.86-.63,2.07,2.07,0,0,1,1.54.54,4,4,0,0,1,1.06,1.8,11.1,11.1,0,0,1,.45,3.18c0,.33,0,.78,0,1.35s0,1,0,1.38a17.61,17.61,0,0,1-.45,3.71,14.46,14.46,0,0,1-1.06,3,9.86,9.86,0,0,1-1.54,2.32A7.38,7.38,0,0,1,339.54,238.29Zm1-8.74a14.9,14.9,0,0,0,0-1.89,3.43,3.43,0,0,0-.51-1.76q-.43-.63-1.47,0a2.83,2.83,0,0,0-.83.71,4.72,4.72,0,0,0-.58,1,5.39,5.39,0,0,0-.36,1.07,7.16,7.16,0,0,0-.18,1.08c0,.36,0,.76,0,1.21s0,.84,0,1.16a3.72,3.72,0,0,0,.18.87,1.61,1.61,0,0,0,.36.66.85.85,0,0,0,.58.28,1.35,1.35,0,0,0,.83-.24,3.31,3.31,0,0,0,1.47-1.72A7.91,7.91,0,0,0,340.53,229.55Z"/><path class="cls-6" d="M365.93,210.47a1.78,1.78,0,0,1-.17.74,1.11,1.11,0,0,1-.42.51l-2.87,1.66a.33.33,0,0,1-.42,0,.74.74,0,0,1-.17-.54v-4.42a1.81,1.81,0,0,1,.17-.74,1.11,1.11,0,0,1,.42-.51l2.87-1.66a.33.33,0,0,1,.42,0,.74.74,0,0,1,.17.54Zm0,11.81a1.86,1.86,0,0,1-.17.75,1.11,1.11,0,0,1-.42.51l-2.87,1.66a.33.33,0,0,1-.42,0,.78.78,0,0,1-.17-.54V220.2a1.85,1.85,0,0,1,.17-.74,1.11,1.11,0,0,1,.42-.51l2.87-1.66a.33.33,0,0,1,.42,0,.76.76,0,0,1,.17.54Z"/><path class="cls-6" d="M376.33,189.85a4.13,4.13,0,0,1,.33-.88,1.64,1.64,0,0,1,.64-.69l2.71-1.57a.27.27,0,0,1,.34,0,.57.57,0,0,1,.15.44,1.56,1.56,0,0,1-.05.33l-7.38,31.57a4.7,4.7,0,0,1-.31.85,1.64,1.64,0,0,1-.66.72l-2.67,1.54a.26.26,0,0,1-.34,0,.57.57,0,0,1-.15-.44,1.56,1.56,0,0,1,.05-.33Z"/><path class="cls-6" d="M383.79,185.84a4.69,4.69,0,0,1,.32-.88,1.59,1.59,0,0,1,.64-.69l2.72-1.57a.26.26,0,0,1,.34,0,.61.61,0,0,1,.14.44,1.47,1.47,0,0,1,0,.33l-7.39,31.57a4.11,4.11,0,0,1-.31.86,1.51,1.51,0,0,1-.66.71l-2.67,1.55a.27.27,0,0,1-.34,0,.59.59,0,0,1-.14-.45,1.53,1.53,0,0,1,0-.33Z"/><path class="cls-6" d="M398.33,185.72c.22-.13.39-.14.51,0a1,1,0,0,1,.24.4l1.62,6.72,1.62-8.6a4.33,4.33,0,0,1,.24-.68,1.32,1.32,0,0,1,.51-.56l2.72-1.57a.3.3,0,0,1,.37,0,.68.68,0,0,1,.15.49,1.37,1.37,0,0,1,0,.28l-3.49,17.64a2.93,2.93,0,0,1-.23.71,1.15,1.15,0,0,1-.49.55l-2.5,1.45c-.22.12-.38.13-.48,0a1.55,1.55,0,0,1-.24-.44l-1.56-6.19-1.55,8a4.31,4.31,0,0,1-.25.71,1.12,1.12,0,0,1-.48.55l-2.5,1.44c-.22.13-.38.13-.49,0a1,1,0,0,1-.23-.44l-3.49-13.62a2.11,2.11,0,0,1,0-.26,1.58,1.58,0,0,1,.15-.66,1,1,0,0,1,.38-.45l2.72-1.57c.22-.13.38-.13.5,0a.83.83,0,0,1,.24.4l1.62,6.73,1.63-8.6a2.79,2.79,0,0,1,.24-.68,1.15,1.15,0,0,1,.5-.56Z"/><path class="cls-6" d="M417.67,174.17c.22-.13.39-.13.5,0a.83.83,0,0,1,.24.4l1.63,6.73,1.62-8.6a2.79,2.79,0,0,1,.24-.68,1.25,1.25,0,0,1,.5-.56l2.72-1.57a.29.29,0,0,1,.38,0,.66.66,0,0,1,.15.48c0,.09,0,.19,0,.29l-3.49,17.64a3,3,0,0,1-.23.7,1.17,1.17,0,0,1-.49.56l-2.5,1.44c-.22.13-.38.13-.48,0a1.14,1.14,0,0,1-.24-.43l-1.56-6.19-1.56,8a5.07,5.07,0,0,1-.24.72,1.06,1.06,0,0,1-.48.54l-2.5,1.45c-.22.12-.38.13-.49,0a.89.89,0,0,1-.23-.44L407.65,181a2.28,2.28,0,0,1,0-.26,1.52,1.52,0,0,1,.15-.66,1,1,0,0,1,.37-.45l2.72-1.58c.22-.12.39-.13.51,0a1.06,1.06,0,0,1,.24.41l1.62,6.72,1.62-8.6a4.33,4.33,0,0,1,.24-.68,1.26,1.26,0,0,1,.51-.56Z"/><path class="cls-6" d="M436.85,163.11c.22-.12.38-.13.5,0a.88.88,0,0,1,.24.4l1.62,6.73,1.63-8.6a2.94,2.94,0,0,1,.24-.68,1.19,1.19,0,0,1,.5-.56l2.72-1.57a.27.27,0,0,1,.37,0,.63.63,0,0,1,.16.49,1.41,1.41,0,0,1,0,.28l-3.48,17.64a3.65,3.65,0,0,1-.23.71,1.21,1.21,0,0,1-.5.55l-2.49,1.44c-.22.13-.38.13-.49,0a1.37,1.37,0,0,1-.24-.43l-1.55-6.19-1.56,8a5.07,5.07,0,0,1-.24.72,1.14,1.14,0,0,1-.49.55L431,184c-.22.13-.39.13-.5,0a1,1,0,0,1-.23-.44L426.83,170a1.09,1.09,0,0,1,0-.26,1.6,1.6,0,0,1,.16-.66.9.9,0,0,1,.37-.45l2.72-1.57c.22-.13.39-.14.5,0a.79.79,0,0,1,.24.4l1.63,6.72,1.62-8.6a2.94,2.94,0,0,1,.24-.68,1.36,1.36,0,0,1,.5-.56Z"/><path class="cls-6" d="M448.29,172a1.71,1.71,0,0,1-.18.74,1,1,0,0,1-.41.51l-2.88,1.66a.31.31,0,0,1-.41,0,.72.72,0,0,1-.18-.54v-4.42a1.72,1.72,0,0,1,.18-.75,1,1,0,0,1,.41-.51L447.7,167a.31.31,0,0,1,.41,0,.73.73,0,0,1,.18.54Z"/></g><g id="World"><g id="Check"><g id="Circle"><path class="cls-7" d="M278,212.78h0l-.08-.05h0l-20-11.88h0l-.11-.07h0c-8.81-5.31-20.57-4.48-33.21,3.78-25.41,16.59-44.77,56.82-43.24,89.87.76,16.47,6.56,28,15.34,33.45h0l.08.05h0l20,11.88h0l.1.06h0c8.81,5.32,20.58,4.49,33.24-3.77,25.4-16.59,44.76-56.83,43.24-89.87C292.55,229.77,286.74,218.2,278,212.78Z"/><path class="cls-8" d="M216.08,339.41l-19.36-11.47h0l-.09-.06c-8.77-5.43-14.57-17-15.33-33.45-.68-14.73,2.8-30.89,9.1-45.74l.13-.32,19.88,12.2c-6.31,14.84-9.78,31-9.1,45.74C202,322.43,207.62,333.85,216.08,339.41Z"/><path class="cls-6" d="M250.07,336.11c25.4-16.59,44.76-56.83,43.24-89.87S270,199.86,244.54,216.45s-44.76,56.82-43.24,89.86S224.66,352.69,250.07,336.11Z"/></g></g><path class="cls-11" d="M235.73,327.38a18.68,18.68,0,0,1-9.47-2.48c-8-4.6-12.6-15.15-12.6-28.95,0-25.39,15.44-55,34.41-66.06,8.62-5,17.05-5.66,23.73-1.82,8,4.6,12.59,15.16,12.59,29,0,25.38-15.43,55-34.4,66.05A28.61,28.61,0,0,1,235.73,327.38Zm26.59-97.95A24.83,24.83,0,0,0,250,233.2c-17.92,10.43-32.5,38.57-32.5,62.75,0,12.39,3.89,21.74,10.67,25.64,5.45,3.13,12.51,2.49,19.91-1.82,17.92-10.42,32.5-38.57,32.5-62.74,0-12.4-3.89-21.74-10.68-25.64A14.94,14.94,0,0,0,262.32,229.43Z"/><path class="cls-11" d="M235.72,263.9A18.15,18.15,0,0,1,224.3,260l1.77-2.26c5.84,4.58,13.74,4.38,22.24-.56,8.8-5.12,17.07-14.6,23.28-26.7l2.56,1.31c-6.47,12.58-15.13,22.48-24.4,27.87A28.14,28.14,0,0,1,235.72,263.9Z"/><path class="cls-11" d="M226.46,322.53l-2.55-1.31c6.46-12.58,15.13-22.48,24.4-27.88,9.58-5.57,18.61-5.69,25.45-.34L272,295.26c-5.85-4.58-13.75-4.38-22.24.56C241,300.94,232.68,310.43,226.46,322.53Z"/><path class="cls-11" d="M245.32,324a7.72,7.72,0,0,1-3.87-1.07c-6.74-3.88-10.93-17.86-10.93-36.47,0-25.66,7.81-50.31,17.79-56.11a7.92,7.92,0,0,1,8.3-.22c6.74,3.88,10.92,17.85,10.92,36.47,0,25.66-7.81,50.31-17.78,56.11A8.79,8.79,0,0,1,245.32,324Zm7.4-92.07a5.91,5.91,0,0,0-3,.9c-8.87,5.16-16.36,29.72-16.36,53.63,0,19.7,4.77,31.26,9.49,34a5.1,5.1,0,0,0,5.43-.21c8.86-5.16,16.36-29.72,16.36-53.63,0-19.71-4.77-31.27-9.49-34A4.88,4.88,0,0,0,252.72,231.89Z"/><rect class="cls-11" x="247.59" y="231.55" width="2.87" height="89.88"/><rect class="cls-11" x="210.33" y="275.05" width="77.4" height="2.87" transform="translate(-105.27 162.76) rotate(-30.2)"/></g></g><rect class="cls-8" x="558.62" y="446.88" width="92.64" height="4.51"/><polygon class="cls-8" points="544.26 451.38 526.88 386.27 599.22 386.27 614.95 451.38 544.26 451.38"/><path class="cls-14" d="M532,393.39h65l-1.09-4.11H531Z"/><path class="cls-2" d="M539.05,391.33a.71.71,0,1,0,.71-.71A.71.71,0,0,0,539.05,391.33Z"/><path class="cls-2" d="M536.61,391.33a.71.71,0,1,0,.71-.71A.71.71,0,0,0,536.61,391.33Z"/><path class="cls-2" d="M534.16,391.33a.71.71,0,1,0,.71-.71A.71.71,0,0,0,534.16,391.33Z"/><path class="cls-8" d="M580,419.74a17.14,17.14,0,0,1,2,2c1.27,1.36,3.09,3.35,5.26,5.78l.25.28-.31.23a12.29,12.29,0,0,1-12,1.17,11.7,11.7,0,0,1-4.93-4,10,10,0,0,1-1.83-5.35l0-.36h.36c3.4,0,6.22,0,8.17,0a18.58,18.58,0,0,1,3,.14,21,21,0,0,1-3.13.25c-2,.09-4.73.19-8,.28l.34-.37a9.61,9.61,0,0,0,1.77,4.93,11.21,11.21,0,0,0,4.62,3.67,11.79,11.79,0,0,0,11.28-1l-.06.5c-2.06-2.41-3.76-4.44-5-5.89A21.64,21.64,0,0,1,580,419.74Z"/><path class="cls-8" d="M575.31,412.3a.65.65,0,0,0,1.29,0,.65.65,0,0,0-.65-.64A.64.64,0,0,0,575.31,412.3Z"/><path class="cls-8" d="M571.22,407.2h.17l.12.12c2.65,2.67,4.59,4.83,4.44,5s-2.32-1.78-5-4.41l.28.12h-1c-4.25,0-7.69-.15-7.69-.37"/><path class="cls-8" d="M564,415.35l-.36.44c-.34-1.73-.69-3.57-1.07-5.48-.18-1-.37-1.94-.56-2.93-.09-.5-.19-1-.29-1.51l-.14-.76-.07-.39,0-.19,0-.1v-.07h0l.4.33H545.79l.33-.39c.61,3.41,1.07,6.26,1.4,8.27a27.44,27.44,0,0,1,.44,3.24,23,23,0,0,1-.73-3c-.44-2-1.05-4.86-1.76-8.39l-.08-.39h.4l16.08-.14.4.33h0v.17l0,.19.07.39"/><path class="cls-8" d="M563.39,410.16c.35,1.92.69,3.76,1,5.49l.08.44H564c-4.83,0-8.89-.07-11.71-.13l-3.26-.09a4.89,4.89,0,0,1-1.11-.09,7.63,7.63,0,0,1,1.25-.09l3.33-.12"/><path class="cls-8" d="M574.35,425.25a.65.65,0,0,0,.65.64.65.65,0,0,0,.64-.65.65.65,0,1,0-1.29,0Z"/><path class="cls-8" d="M563.32,425.29c0-.23,2.61-.42,5.83-.43s5.84.16,5.85.38-2.62.42-5.84.43S563.32,425.51,563.32,425.29Z"/><path class="cls-8" d="M548,430.36a13.09,13.09,0,0,1-.71-2.15c-.42-1.43-1-3.54-1.74-6.18l-.1-.38h.39c4.38-.08,10.2-.14,16.58-.17-.35-.27.48.37.39.31h0v.05l0,.07,0,.14.07.28.14.55.28,1.1c.18.72.36,1.44.54,2.14.36,1.41.7,2.77,1,4.07l.12.48h-.49c-4.92,0-9.11-.07-12-.13l-3.39-.09a4.18,4.18,0,0,1-1.16-.1,7.45,7.45,0,0,1,1.3-.1l3.46-.12c2.94-.09,7-.18,11.82-.22l-.37.47c-.34-1.3-.69-2.66-1.06-4.06-.18-.7-.37-1.42-.55-2.14l-.29-1.1-.14-.55-.07-.28,0-.14,0-.07V422h0l.39.3c-6.37,0-12.2,0-16.58,0l.3-.38c.61,2.55,1.08,4.64,1.41,6.12A17.67,17.67,0,0,1,548,430.36Z"/><path class="cls-8" d="M549.24,407.84c0-.22,2.46-.42,5.5-.43s5.5.16,5.5.39"/><path class="cls-8" d="M554.91,410c-3.06,0-5.54-.16-5.54-.38s2.48-.42,5.53-.43"/><path class="cls-8" d="M560.38,411.33c0,.23-2.39.42-5.34.43s-5.34-.16-5.34-.38,2.39-.42,5.34-.43"/><path class="cls-8" d="M549.56,425.14c0-.22,2.35-.41,5.24-.42s5.25.16,5.25.38-2.35.42-5.24.43S549.56,425.37,549.56,425.14Z"/><path class="cls-8" d="M550.21,427.13c0-.22,2-.41,4.47-.42s4.47.17,4.48.39-2,.41-4.47.42S550.21,427.36,550.21,427.13Z"/><polygon class="cls-3" points="610.47 440.68 546.41 442.41 534.16 397.01 599.04 395.99 610.47 440.68"/><polygon class="cls-8" points="448.91 451.17 448.91 459.71 454.5 459.71 454.5 632.62 465.97 632.62 465.97 459.71 526.88 459.71 526.88 632.62 538.35 632.62 538.35 459.71 802.55 459.71 802.55 632.57 814.02 632.57 814.02 459.71 818.99 459.71 818.99 451.17 448.91 451.17"/><path class="cls-8" d="M697.72,515.6c0,.17,3.34.31,7.46.31s7.47-.14,7.47-.31-3.34-.32-7.47-.32S697.72,515.42,697.72,515.6Z"/><ellipse class="cls-6" cx="589.04" cy="517.16" rx="0.4" ry="0.2"/><polygon class="cls-11" points="612.9 622.85 612.9 627.48 593.15 635.82 638.43 636.67 637.58 622.77 612.9 622.85"/><polygon class="cls-11" points="694.29 614.77 696.46 617.45 687.79 629.72 721.32 611.82 713.51 603.16 694.29 614.77"/><path class="cls-15" d="M672.68,413,614,430.11l-4.59-1.42c-.85-.25-1.78-.55-2.82-.92a11.75,11.75,0,0,1-3.35-1.88,17.32,17.32,0,0,1-3.39-3.33c-.77-1.23-2.65-.94-2.76.36s1.92,4.75,5.85,7.37-3.46,3.2-6.16,3.46-11,1.43-11.53,2.31c-.82,1.28.44,2.4,3.12,2.08s10.8-.72,10.89.68l0,0a5.6,5.6,0,0,0-.22,6.6c1.32,1.94,3.34,4.4,5,4.17a76.85,76.85,0,0,0,9.61-2.58l1.76-.68s64.89-7.18,70.26-13.47c3.34-3.91,45.85-69.27,45.85-69.27l-16.07-15.31Z"/><path class="cls-15" d="M603.08,449.5l5.24-1.69A4.76,4.76,0,0,0,610,447a1.59,1.59,0,0,0,.57-1.66,1.58,1.58,0,0,0-1.29-1,4.73,4.73,0,0,0-1.67.13l-5.91,1.2"/><path class="cls-16" d="M601.69,445.73a9.14,9.14,0,0,1,2.62-.82l2.88-.68A7.52,7.52,0,0,1,609,444a2.1,2.1,0,0,1,1.89,1.14,1.93,1.93,0,0,1-.59,2.15,4.38,4.38,0,0,1-1.7.85l-2.84.82a9.64,9.64,0,0,1-2.69.57,9.44,9.44,0,0,1,2.51-1.11l2.79-1a3.91,3.91,0,0,0,1.39-.72,1.19,1.19,0,0,0,.39-1.25,1.33,1.33,0,0,0-1.19-.66,6.67,6.67,0,0,0-1.63.2l-2.92.5A9.38,9.38,0,0,1,601.69,445.73Z"/><path class="cls-15" d="M602,445.71l5.23-1.69a4.61,4.61,0,0,0,1.67-.8,1.42,1.42,0,0,0-.71-2.61,4.77,4.77,0,0,0-1.68.13l-5.9,1.2"/><path class="cls-16" d="M600.59,441.94a9,9,0,0,1,2.61-.82l2.89-.68a7.38,7.38,0,0,1,1.82-.26,2.12,2.12,0,0,1,1.89,1.14,2,2,0,0,1-.59,2.15,4.52,4.52,0,0,1-1.7.85l-2.85.82a9.68,9.68,0,0,1-2.68.57,8.71,8.71,0,0,1,2.5-1.11l2.79-1a4,4,0,0,0,1.4-.72,1.19,1.19,0,0,0,.38-1.25,1.35,1.35,0,0,0-1.18-.67,8,8,0,0,0-1.64.2l-2.91.51A9.4,9.4,0,0,1,600.59,441.94Z"/><path class="cls-15" d="M601.44,441.91l5.23-1.69a4.81,4.81,0,0,0,1.68-.79,1.61,1.61,0,0,0,.57-1.66,1.59,1.59,0,0,0-1.29-1A4.57,4.57,0,0,0,606,437l-5.9,1.19"/><path class="cls-16" d="M609.14,436.83a7,7,0,0,1-2.22-2.88c-.33-.88-.34-1.46-.24-1.48s.84,2.13,3,3.72a8.27,8.27,0,0,0,2.15,1.18l.59.22-.46.37c-1,.84-1.56,1.64-1.7,1.56s.18-1,1.25-2.08l.13.59"/><path class="cls-15" d="M718.3,298.18l.18,59.65-23.26,1.11-.94-14.3s-11.22,1.71-13.56-6.74c-1.5-5.39-1.13-47.06-1.13-47.06Z"/><path class="cls-8" d="M673.81,296.72c1.73,3.57,9.94,10.09,9.94,10.09l3.7,9.94c3.23-2.53,7.55-2.38,8.37,3.28.59,4.09-4.5,4.91-4.5,4.91,3,5,5,9.12,9.28,13.91,4.67,5.18,7.28,5.71,12.34,5.79h5.58s11.41-9.54,9.16-34.66-24.85-17.8-30.24-24.07C688.66,275.68,668.06,284.82,673.81,296.72Z"/><path class="cls-15" d="M671.75,414.41l-9.28,27.93c-2.5,7.54-9.1,8.83-17,8.83h-51.6V439.6L641,432.87l11.23-28.7Z"/><path class="cls-15" d="M588.16,437.19l-4.1-1.94s-4.41-8.53-5.42-8.18-1.31,2.85.46,6.77l-5.44-1.56s-11.79,5.45-11.27,6.18,1.49,2.48,4.06,1.16,5.93-2.85,5.93-2.85l6.35,1.81-8.19,1-7.7,7s2.53,1.9,4.71-.11l20,4.3,6.27.35V439.6Z"/><path class="cls-16" d="M567.55,446.52c.08.05.46-.54,1.18-1.33a6.28,6.28,0,0,1,1.45-1.12,6,6,0,0,1,2.17-.57c3.33-.39,6-.85,6-1s-2.74,0-6.08.4a5.93,5.93,0,0,0-2.38.69,5.53,5.53,0,0,0-1.5,1.34A3.49,3.49,0,0,0,567.55,446.52Z"/><path class="cls-16" d="M570.68,447.32c.08,0,.14-.41.7-.53s1.48-.22,2.43-.31c1.92-.2,3.5-.18,3.52-.36s-1.59-.47-3.58-.27a10.79,10.79,0,0,0-2.52.52,1,1,0,0,0-.61.63C570.57,447.21,570.64,447.33,570.68,447.32Z"/><path class="cls-4" d="M676.12,408.32l-4,13.44L647,410.36c.9-2.82,5.07-15.35,13-35.25a34.2,34.2,0,0,1,26.1-21c8.25-1.37,17.21-2.44,24.12-2.36,14.12.15,34.91,9,37.7,22.82,2.13,10.57.08,29.23.08,51.89l-1.85,43.31-72.36,2.46Z"/><g class="cls-17"><path d="M747.93,416.4c-8.8,1.8-17.85,0-26.82-.55-5.44-.32-11.47-.91-15.78,2.44-3.41,2.65-4.78,7.11-5.77,11.31-3.75,16-4.43,26.79-5.28,43.24l43.56,2.64Z"/></g><path class="cls-8" d="M674.26,361.31c0,.06.73.11,1.93.58a10,10,0,0,1,4.16,3.37,14.08,14.08,0,0,1,2.49,7.54,46.36,46.36,0,0,1-.76,9.92,163.94,163.94,0,0,1-4,17.74c-.6,2.17-1.09,4-1.46,5.33a12.82,12.82,0,0,0-.47,2,12.86,12.86,0,0,0,.7-1.91c.41-1.24,1-3,1.66-5.28a138.52,138.52,0,0,0,4.23-17.76,45.33,45.33,0,0,0,.72-10.06,14.22,14.22,0,0,0-2.71-7.76,9.82,9.82,0,0,0-4.44-3.34,6.68,6.68,0,0,0-1.48-.34A1.64,1.64,0,0,0,674.26,361.31Z"/><path class="cls-8" d="M647.75,406.93a24.8,24.8,0,0,0,3.55,2c2.24,1.17,5.37,2.72,8.88,4.3s6.74,2.91,9.1,3.81a24.18,24.18,0,0,0,3.87,1.31,27.93,27.93,0,0,0-3.7-1.72c-2.31-1-5.51-2.39-9-4s-6.66-3.06-8.94-4.13A29.55,29.55,0,0,0,647.75,406.93Z"/><path class="cls-8" d="M636.22,475.48A25.79,25.79,0,0,0,625.68,510l63,108.15,29.06-17.56L668.82,503l35.45-23.14"/><path class="cls-8" d="M712.91,470.12l-86.47,3.06a25.79,25.79,0,0,0-24.87,26.18l3.59,123.49,36.36-.08L640.31,506l72.6-1.91Z"/><path class="cls-6" d="M640.31,510.23a7.28,7.28,0,0,1,.1,1.14c0,.83.08,1.92.14,3.28.11,2.84.22,7,.33,12.06.21,10.18.36,24.25.44,39.78s.15,29.53.2,39.8c0,5,.05,9.12.07,12.06,0,1.36,0,2.45,0,3.27a5.73,5.73,0,0,1-.06,1.15,6.39,6.39,0,0,1-.11-1.14c0-.83-.08-1.92-.14-3.28-.1-2.84-.21-7-.32-12.06-.22-10.18-.36-24.25-.44-39.79s-.15-29.53-.21-39.79c0-5,0-9.12-.06-12.06,0-1.36,0-2.45,0-3.28A5.57,5.57,0,0,1,640.31,510.23Z"/><path class="cls-6" d="M750.36,391.75H724.2a19.06,19.06,0,0,0-19.06,19.07v91.26H652.87a13.2,13.2,0,0,0-13.2,13.2H759v-.07a10.9,10.9,0,0,0,10.43-10.88V410.82A19.07,19.07,0,0,0,750.36,391.75Z"/><path class="cls-8" d="M712.74,394.76c.23,0,.41,26.82.41,59.9s-.18,59.9-.41,59.9-.4-26.81-.4-59.9S712.52,394.76,712.74,394.76Z"/><path class="cls-6" d="M709.44,611.08V515.34h-8.51v95.74c-5.19,10.23-17.4,17.16-32.27,22.83h75.82C729.08,627.65,715.19,622.85,709.44,611.08Z"/><rect class="cls-1" x="749.26" y="119.85" width="2.54" height="22.65"/><rect class="cls-1" x="832.69" y="119.85" width="2.54" height="22.65"/><rect class="cls-14" x="739.91" y="110.74" width="106.09" height="9.11"/><rect class="cls-3" x="810.42" y="42.57" width="14.63" height="68.17"/><path class="cls-1" d="M820.92,94.39a2.9,2.9,0,1,1-2.9-2.9A2.89,2.89,0,0,1,820.92,94.39Z"/><rect class="cls-1" x="815.66" y="60.63" width="4.48" height="27.86"/><rect class="cls-14" x="795.56" y="42.57" width="14.63" height="68.17"/><path class="cls-2" d="M806.06,94.39a2.9,2.9,0,1,1-2.89-2.9A2.89,2.89,0,0,1,806.06,94.39Z"/><rect class="cls-2" x="800.81" y="60.63" width="4.47" height="27.86"/><rect class="cls-1" x="781.41" y="42.57" width="14.63" height="68.17"/><path class="cls-2" d="M791.92,94.39a2.9,2.9,0,1,1-2.9-2.9A2.89,2.89,0,0,1,791.92,94.39Z"/><rect class="cls-2" x="786.66" y="60.63" width="4.47" height="27.86"/><polygon class="cls-1" points="763.32 109.7 780.9 49.73 774.84 47.08 756.81 107.53 763.32 109.7"/><path class="cls-6" d="M345.91,226.46a36.6,36.6,0,0,0,3.64-1.08c.32,1,1.27,1.41,2.73,1,1.21-.33,1.76-.82,1.68-1.38a.53.53,0,0,0-.43-.46,6.6,6.6,0,0,0-1.7,0c-2.47.19-4-.33-4.68-1.13a4.48,4.48,0,0,1-.93-2.83,5.32,5.32,0,0,1,1.52-3.72,7.24,7.24,0,0,1,3.68-2.06c2.63-.67,4.44-.12,5.42,2-1.07.72-2.17,1.38-3.29,2-.35-.75-1-1-2-.73a2.54,2.54,0,0,0-1.07.49c-.23.22-.35.4-.35.56,0,.47.38.7,1.11.63,1.92-.18,3.2-.36,3.89-.32a2.73,2.73,0,0,1,1.82.82,3.73,3.73,0,0,1,1,2.27A6.42,6.42,0,0,1,357,227a6.82,6.82,0,0,1-4,2.94A5.43,5.43,0,0,1,345.91,226.46Z"/></svg>