<svg id="Layer_1" data-name="Layer 1" xmlns="http://www.w3.org/2000/svg" viewBox="0 0 880 700"><defs><style>.cls-1{fill:#ebebeb;}.cls-16,.cls-2{fill:#fff;}.cls-3{fill:#f5f5f5;}.cls-4{fill:#e0e0e0;}.cls-5{fill:#fafbfb;}.cls-6{fill:#263238;}.cls-7{fill:#455b64;}.cls-8{fill:#dd4d65;}.cls-9{fill:#e7515b;}.cls-10{opacity:0.3;}.cls-11{fill:#6c0b21;}.cls-12{fill:#b78876;}.cls-13{fill:#aa6551;}.cls-14,.cls-18{fill:#4aa8b0;}.cls-15{fill:#4075ba;}.cls-16{opacity:0.7;}.cls-17{fill:#028487;}.cls-18{opacity:0.4;}</style></defs><circle class="cls-1" cx="72.86" cy="360.84" r="37.02"/><circle class="cls-2" cx="72.86" cy="360.84" r="26.82"/><path class="cls-1" d="M78.66,334H67.05a2.6,2.6,0,0,1-2.6-2.77l1.24-20a2.62,2.62,0,0,1,2.61-2.45h9.12a2.6,2.6,0,0,1,2.6,2.45l1.25,20A2.61,2.61,0,0,1,78.66,334Z"/><path class="cls-1" d="M78.68,387.67H67.07a2.6,2.6,0,0,0-2.6,2.77l1.24,20a2.61,2.61,0,0,0,2.61,2.44h9.12a2.6,2.6,0,0,0,2.6-2.44l1.25-20A2.61,2.61,0,0,0,78.68,387.67Z"/><path class="cls-1" d="M57.52,337.11l-8,8.42a2.59,2.59,0,0,1-3.8,0L32.08,330.84a2.61,2.61,0,0,1,0-3.58l6.28-6.61a2.61,2.61,0,0,1,3.57-.2L57.3,333.32A2.6,2.6,0,0,1,57.52,337.11Z"/><path class="cls-1" d="M48.84,374.74l7.29,9a2.61,2.61,0,0,1-.52,3.77L39.27,399.13a2.6,2.6,0,0,1-3.54-.49L30,391.55a2.62,2.62,0,0,1,.27-3.57L45,374.45A2.62,2.62,0,0,1,48.84,374.74Z"/><path class="cls-1" d="M96.92,346.8l-8-8.41a2.61,2.61,0,0,1,.21-3.8l15.35-12.88a2.61,2.61,0,0,1,3.57.2l6.29,6.61a2.62,2.62,0,0,1,0,3.57l-13.63,14.69A2.62,2.62,0,0,1,96.92,346.8Z"/><path class="cls-1" d="M96.21,375l-7.54,8.83a2.61,2.61,0,0,0,.42,3.78l16,12a2.6,2.6,0,0,0,3.55-.39l5.92-6.94a2.61,2.61,0,0,0-.17-3.57L100,374.81A2.6,2.6,0,0,0,96.21,375Z"/><path class="cls-1" d="M46,355.09,45.8,366.7A2.61,2.61,0,0,1,43,369.25L23,367.6A2.6,2.6,0,0,1,20.62,365l.18-9.12a2.61,2.61,0,0,1,2.5-2.55l20-.85A2.61,2.61,0,0,1,46,355.09Z"/><path class="cls-1" d="M99.68,355.09l.23,11.61a2.62,2.62,0,0,0,2.83,2.55l20-1.65A2.6,2.6,0,0,0,125.1,365l-.18-9.12a2.61,2.61,0,0,0-2.5-2.55l-20-.85A2.61,2.61,0,0,0,99.68,355.09Z"/><circle class="cls-1" cx="175.56" cy="398.29" r="26.37"/><circle class="cls-2" cx="175.56" cy="398.29" r="19.11"/><path class="cls-1" d="M179.7,379.18h-8.28a1.86,1.86,0,0,1-1.85-2l.89-14.24a1.86,1.86,0,0,1,1.85-1.75h6.5a1.87,1.87,0,0,1,1.86,1.75l.88,14.24A1.86,1.86,0,0,1,179.7,379.18Z"/><path class="cls-1" d="M179.71,417.4h-8.27a1.87,1.87,0,0,0-1.86,2l.89,14.24a1.86,1.86,0,0,0,1.86,1.75h6.5a1.86,1.86,0,0,0,1.85-1.75l.89-14.24A1.86,1.86,0,0,0,179.71,417.4Z"/><path class="cls-1" d="M164.63,381.38l-5.7,6a1.86,1.86,0,0,1-2.71,0l-9.71-10.46a1.86,1.86,0,0,1,0-2.55l4.48-4.71a1.86,1.86,0,0,1,2.54-.14l10.94,9.17A1.85,1.85,0,0,1,164.63,381.38Z"/><path class="cls-1" d="M158.45,408.19l5.2,6.44a1.86,1.86,0,0,1-.37,2.68l-11.65,8.26a1.85,1.85,0,0,1-2.52-.35L145,420.17a1.85,1.85,0,0,1,.19-2.54L155.75,408A1.85,1.85,0,0,1,158.45,408.19Z"/><path class="cls-1" d="M192.71,388.29l-5.7-6a1.86,1.86,0,0,1,.15-2.71l10.93-9.17a1.86,1.86,0,0,1,2.54.14l4.48,4.71a1.86,1.86,0,0,1,0,2.55l-9.71,10.46A1.87,1.87,0,0,1,192.71,388.29Z"/><path class="cls-1" d="M192.2,408.37l-5.37,6.29a1.86,1.86,0,0,0,.3,2.7l11.41,8.57a1.86,1.86,0,0,0,2.53-.28l4.22-4.95a1.86,1.86,0,0,0-.12-2.54l-10.26-9.92A1.86,1.86,0,0,0,192.2,408.37Z"/><path class="cls-1" d="M156.45,394.19l-.17,8.27a1.86,1.86,0,0,1-2,1.82l-14.22-1.17a1.86,1.86,0,0,1-1.71-1.89l.13-6.5a1.86,1.86,0,0,1,1.78-1.82l14.26-.6A1.86,1.86,0,0,1,156.45,394.19Z"/><path class="cls-1" d="M194.67,394.19l.17,8.27a1.86,1.86,0,0,0,2,1.82l14.23-1.17a1.85,1.85,0,0,0,1.7-1.89l-.13-6.5a1.86,1.86,0,0,0-1.78-1.82l-14.26-.6A1.86,1.86,0,0,0,194.67,394.19Z"/><path class="cls-3" d="M511.77,68.55a43.74,43.74,0,1,1,44.44,43.23A43.9,43.9,0,0,1,511.77,68.55Zm64.64-1a20.91,20.91,0,1,0-20.57,21.35A21,21,0,0,0,576.41,67.5Z"/><path class="cls-4" d="M511.77,68.55a43.89,43.89,0,0,1,43-44.64l.37,22.92a21,21,0,0,0,.67,42l.37,22.92A43.88,43.88,0,0,1,511.77,68.55Z"/><path class="cls-1" d="M550.87,20.38c28.22-.46,50.72,21.44,51.17,49.78l-26.7.43c-.21-13.55-10.52-22.08-24-21.86Z"/><path class="cls-3" d="M148.9,672.08c-1.12-1-3.63-4-1.7-7.57.71-1.3,2.22-2,3.58-2.52a14.45,14.45,0,0,0,3.92-2c2.13-1.81,2.72-4.82,4.13-7.23,1.62-2.77,4.64-4.85,7.84-4.7,3.66.16,6.71,3.15,8.09,6.56s1.44,7.19,1.47,10.87c0,2-.08,4.33-1.57,5.71s-3.46,1.28-5.32,1.22l-20-.61"/><path class="cls-4" d="M187.15,617.08h-52.6l9.48,56.5a6.3,6.3,0,0,0,4.49,5l.18,0c.16,0,.31.09.47.12a6.37,6.37,0,0,0,1.07.12V679l.26,0H174a6.88,6.88,0,0,0,1.29-.13,6.34,6.34,0,0,0,5.32-5.52l4.57-38.93.2-1.55h0l1.81-15.41Zm-9.92,36h-5.4l.55-16.4h6.25Zm1.93-16.4h5.16l-1.92,16.4h-4.65ZM163.73,671.3l-.32-14.25h7.77l-.47,14.25Zm-8.4-14.25h7.55l.33,14.25h-6.77Zm.58,14.25h-6.33c-.6-3.85-1.38-8.85-2.23-14.25h7.46ZM155,653.12l-1.28-16.4h8.67l.37,16.4Zm8.29,0-.38-16.4h8.91l-.54,16.4Zm-.47-20.33-.35-15.18h10l-.5,15.18Zm-.52,0h-8.88l-1.18-15.18H162Zm-9.41,0h-9.39c-.34-2.1-.65-4.08-.94-5.87-1-6.14-1.34-8.44-1.55-9.31h10.7Zm.31,3.93,1.27,16.4h-7.77c-.26-1.66-.52-3.35-.79-5l-1.79-11.37Zm-7,16.4h-5.07l-2.75-16.4h5.24C144.42,641.79,145.31,647.43,146.2,653.12Zm.62,3.93c.78,4.93,1.54,9.79,2.23,14.25h-4.87l-2.39-14.25Zm24.41,14.25.47-14.25h5.19l-1.21,14.25Zm1.28-38.51.5-15.18h7.25L179,632.79Zm-32-15.18c.21,1.1,1.17,7.07,2.46,15.18h-5.28l-2.55-15.18Zm39.73,53.69H176.2l1.22-14.25h4.52Zm4.51-38.51h-5.29l1.3-15.18h5.78Z"/><rect class="cls-5" x="67.68" y="51.76" width="457.07" height="299.8"/><path class="cls-6" d="M524.75,351.56c0-2.88-.14-116.95-.36-299.8l.36.36-457,.09h0l.44-.45c0,106.62,0,208.08,0,299.8l-.41-.41,457.07.41L67.68,352h-.41v-.41c0-91.72,0-193.18,0-299.8v-.44h.48l457,.09h.35v.35C524.88,234.61,524.75,348.68,524.75,351.56Z"/><rect class="cls-5" x="510.83" y="244.02" width="321.62" height="210.96"/><path class="cls-6" d="M832.45,455c0-2-.1-82.29-.25-211l.25.25-321.6.07h0l.31-.32c0,75,0,146.42,0,211l-.29-.29,321.62.29-321.62.29h-.29V455c0-64.54,0-135.93,0-211v-.31h.34l321.6.07h.25V244C832.55,372.69,832.45,453,832.45,455Z"/><path class="cls-7" d="M207.36,217.32l45,.62c-.34,24-20.53,43.48-45,43.48h-.26Z"/><path class="cls-6" d="M281.7,278.19a4.52,4.52,0,0,1-1,.08l-2.75.07-10.05.12h-.12l-.08-.1L252.9,259.67l-12-15.24.23.11L228,244.41l-3.7-.08a7.57,7.57,0,0,1-1.31-.09,7.57,7.57,0,0,1,1.31-.09l3.7-.08,13.23-.12h.14l.09.11c3.5,4.41,7.62,9.62,12,15.18L268.15,278l-.21-.1L278,278l2.75.07A4.52,4.52,0,0,1,281.7,278.19Z"/><path class="cls-6" d="M297.83,283.37c0,.19-6.52.35-14.55.35s-14.55-.16-14.55-.35,6.52-.34,14.55-.34S297.83,283.18,297.83,283.37Z"/><path class="cls-6" d="M297.83,288.76c0,.19-6.52.35-14.55.35s-14.55-.16-14.55-.35,6.52-.34,14.55-.34S297.83,288.57,297.83,288.76Z"/><path class="cls-8" d="M200.25,210.92l-.63,44.1c-24.42-.34-44.33-20.14-44.33-44.1,0-24.19,20.3-44.1,45-44.1s45,19.91,45,44.1Z"/><path class="cls-6" d="M182.7,196.5a3,3,0,0,1-.78.18l-2.24.36-8.07,1.13-.14,0-.1-.1L160.6,187.61c-5.17-5.07-9.83-9.69-13.18-13.06l-3.94-4a11.88,11.88,0,0,1-1.37-1.54,12.42,12.42,0,0,1,1.56,1.35c1.06,1,2.43,2.29,4.09,3.86,3.44,3.28,8.15,7.85,13.32,12.92l10.69,10.57-.23-.08,8.1-.89,2.26-.21A3.05,3.05,0,0,1,182.7,196.5Z"/><path class="cls-6" d="M130.72,167.05c0,.19-6.51.34-14.55.34s-14.54-.15-14.54-.34,6.51-.35,14.54-.35S130.72,166.86,130.72,167.05Z"/><path class="cls-6" d="M130.72,172.43c0,.2-6.51.35-14.55.35s-14.54-.15-14.54-.35,6.51-.34,14.54-.34S130.72,172.24,130.72,172.43Z"/><path class="cls-9" d="M357.54,123.79l-.18-27.4a35,35,0,0,0-22.61,8.81,32.46,32.46,0,0,0-10.9,28.39,38.67,38.67,0,0,0,.64,4s0,.06,0,.09h0l33-7.43Z"/><g class="cls-10"><path class="cls-2" d="M357.54,123.79l-.18-27.4a35,35,0,0,0-22.61,8.81,32.46,32.46,0,0,0-10.9,28.39,38.67,38.67,0,0,0,.64,4s0,.06,0,.09h0l33-7.43Z"/></g><path class="cls-9" d="M391.57,115.36A32.52,32.52,0,0,0,364.92,96.7q-.53-.06-1.05-.09l-.66,0c-.66,0-1.32-.06-2-.06H361l.18,27.4,0,6.44,33,7.21h0a31.78,31.78,0,0,0,.73-7.11A35.38,35.38,0,0,0,391.57,115.36Z"/><g class="cls-10"><path class="cls-11" d="M391.57,115.36A32.52,32.52,0,0,0,364.92,96.7q-.53-.06-1.05-.09l-.66,0c-.66,0-1.32-.06-2-.06H361l.18,27.4,0,6.44,33,7.21h0a31.78,31.78,0,0,0,.73-7.11A35.38,35.38,0,0,0,391.57,115.36Z"/></g><path class="cls-8" d="M359.31,133.65l-33,7.44a33.85,33.85,0,0,0,66.1-.23l-33-7.2"/><path class="cls-6" d="M487.85,128.72c0,.25-17.08.45-38.13.45s-38.14-.2-38.14-.45,17.07-.44,38.14-.44S487.85,128.48,487.85,128.72Z"/><path class="cls-6" d="M487.85,120c0,.24-17.08.44-38.13.44s-38.14-.2-38.14-.44,17.07-.45,38.14-.45S487.85,119.78,487.85,120Z"/><path class="cls-6" d="M487.85,111.34c0,.24-17.08.44-38.13.44s-38.14-.2-38.14-.44,17.07-.45,38.14-.45S487.85,111.09,487.85,111.34Z"/><path class="cls-6" d="M487.85,136.81c0,.24-17.08.44-38.13.44s-38.14-.2-38.14-.44,17.07-.45,38.14-.45S487.85,136.56,487.85,136.81Z"/><path class="cls-6" d="M464.23,145.61c0,.25-11.73.45-26.19.45s-26.19-.2-26.19-.45,11.73-.44,26.19-.44S464.23,145.36,464.23,145.61Z"/><rect class="cls-8" x="331.61" y="208.53" width="7.86" height="87.73"/><rect class="cls-9" x="346.77" y="238.33" width="7.86" height="57.93"/><rect class="cls-8" x="361.94" y="219.44" width="7.86" height="77.27"/><rect class="cls-9" x="377.1" y="211.92" width="7.86" height="84.34"/><rect class="cls-8" x="392.27" y="240.11" width="7.86" height="56.15"/><rect class="cls-9" x="407.43" y="251.12" width="7.86" height="45.14"/><rect class="cls-8" x="422.6" y="217.54" width="7.86" height="78.72"/><rect class="cls-9" x="437.76" y="231.73" width="7.86" height="64.53"/><rect class="cls-8" x="452.93" y="220.39" width="7.86" height="75.87"/><rect class="cls-9" x="468.09" y="244.57" width="7.86" height="51.69"/><rect class="cls-8" x="483.26" y="234.73" width="7.86" height="61.52"/><path class="cls-6" d="M494.32,302.37c0,.18-37.26.32-83.21.32s-83.22-.14-83.22-.32,37.25-.32,83.22-.32S494.32,302.19,494.32,302.37Z"/><path class="cls-6" d="M342.81,309.27c0,.18-2.61.33-5.83.33s-5.83-.15-5.83-.33,2.61-.32,5.83-.32S342.81,309.1,342.81,309.27Z"/><path class="cls-6" d="M362.15,309.63c0,.17-3.12.32-7,.32s-7-.15-7-.32,3.12-.33,7-.33S362.15,309.45,362.15,309.63Z"/><path class="cls-6" d="M378.64,309.63c0,.17-3.12.32-7,.32s-7-.15-7-.32,3.12-.33,7-.33S378.64,309.45,378.64,309.63Z"/><path class="cls-6" d="M395.13,309.63c0,.17-3.12.32-7,.32s-7-.15-7-.32,3.12-.33,7-.33S395.13,309.45,395.13,309.63Z"/><path class="cls-6" d="M411.63,309.63c0,.17-3.12.32-7,.32s-7-.15-7-.32,3.12-.33,7-.33S411.63,309.45,411.63,309.63Z"/><path class="cls-6" d="M428.12,309.63c0,.17-3.12.32-7,.32s-7-.15-7-.32,3.12-.33,7-.33S428.12,309.45,428.12,309.63Z"/><path class="cls-6" d="M444.61,309.63c0,.17-3.12.32-7,.32s-7-.15-7-.32,3.12-.33,7-.33S444.61,309.45,444.61,309.63Z"/><path class="cls-6" d="M461.1,309.63c0,.17-3.12.32-7,.32s-7-.15-7-.32,3.12-.33,7-.33S461.1,309.45,461.1,309.63Z"/><path class="cls-6" d="M477.6,309.63c0,.17-3.12.32-7,.32s-7-.15-7-.32,3.12-.33,7-.33S477.6,309.45,477.6,309.63Z"/><path class="cls-6" d="M494.09,309.63c0,.17-3.12.32-7,.32s-7-.15-7-.32,3.11-.33,7-.33S494.09,309.45,494.09,309.63Z"/><g class="cls-10"><rect class="cls-2" x="346.77" y="238.33" width="7.86" height="57.93"/></g><g class="cls-10"><rect class="cls-2" x="377.1" y="211.92" width="7.86" height="84.34"/></g><g class="cls-10"><rect class="cls-2" x="407.43" y="251.12" width="7.86" height="45.14"/></g><g class="cls-10"><rect class="cls-2" x="437.76" y="231.73" width="7.86" height="64.53"/></g><g class="cls-10"><rect class="cls-2" x="468.09" y="244.57" width="7.86" height="51.69"/></g><path class="cls-9" d="M123.21,108.11a7.56,7.56,0,1,1-7.56-7.56A7.56,7.56,0,0,1,123.21,108.11Z"/><path class="cls-9" d="M253.2,102.15c0,.25-25.49.44-56.93.44s-56.94-.19-56.94-.44,25.48-.45,56.94-.45S253.2,101.9,253.2,102.15Z"/><path class="cls-9" d="M185,111.29a7,7,0,0,1-1.76.18c-1.14,0-2.78.1-4.81.14-4.06.08-9.67.13-15.87.13s-11.81,0-15.87-.13c-2,0-3.67-.09-4.81-.14a7,7,0,0,1-1.76-.18,6.74,6.74,0,0,1,1.76-.17c1.14-.05,2.78-.1,4.81-.14,4.06-.08,9.67-.13,15.87-.13s11.81.05,15.87.13c2,0,3.67.09,4.81.14A6.83,6.83,0,0,1,185,111.29Z"/><rect class="cls-6" x="285.1" y="490.39" width="92.64" height="4.51"/><polygon class="cls-6" points="270.75 494.9 253.37 429.78 325.7 429.78 341.44 494.9 270.75 494.9"/><path class="cls-1" d="M258.52,436.9h65l-1.09-4.11h-65Z"/><path class="cls-5" d="M265.54,434.85a.71.71,0,1,0,.71-.71A.71.71,0,0,0,265.54,434.85Z"/><path class="cls-5" d="M263.1,434.85a.71.71,0,1,0,1.41,0,.71.71,0,1,0-1.41,0Z"/><path class="cls-5" d="M260.65,434.85a.71.71,0,1,0,.71-.71A.71.71,0,0,0,260.65,434.85Z"/><path class="cls-6" d="M306.44,463.26a15.3,15.3,0,0,1,2,2c1.27,1.36,3.09,3.35,5.26,5.78l.25.27-.31.23a12.29,12.29,0,0,1-12,1.18,11.73,11.73,0,0,1-4.94-4,10.12,10.12,0,0,1-1.83-5.34v-.36h.35c3.41,0,6.23,0,8.18,0a17.9,17.9,0,0,1,3,.15,20.33,20.33,0,0,1-3.13.24c-2,.09-4.73.19-8,.28l.34-.36a9.55,9.55,0,0,0,1.77,4.92A11.08,11.08,0,0,0,302,472a11.8,11.8,0,0,0,11.27-1l0,.5c-2.07-2.41-3.76-4.45-5-5.89A18.86,18.86,0,0,1,306.44,463.26Z"/><path class="cls-6" d="M301.8,455.82a.64.64,0,1,0,1.28,0,.64.64,0,1,0-1.28,0Z"/><path class="cls-6" d="M297.71,450.72h.17l.11.12c2.66,2.67,4.59,4.83,4.45,5s-2.32-1.77-5-4.4l.28.11h-1c-4.25,0-7.69-.15-7.69-.38"/><path class="cls-6" d="M290.53,458.87l-.36.43c-.34-1.73-.7-3.56-1.07-5.47-.18-1-.37-1.94-.56-2.94-.1-.5-.19-1-.29-1.51l-.14-.76-.08-.38,0-.19,0-.1v-.07h0l.4.33-16.08,0,.32-.39c.61,3.42,1.08,6.26,1.4,8.28a32.5,32.5,0,0,1,.45,3.24,24.38,24.38,0,0,1-.74-3c-.43-2-1-4.86-1.75-8.39l-.08-.39h.4l16.08-.13.4.33h0v.07l0,.1,0,.19.07.38"/><path class="cls-6" d="M289.88,453.68q.53,2.88,1,5.49l.08.43h-.44c-4.83,0-8.89-.07-11.71-.12l-3.26-.09a4.78,4.78,0,0,1-1.11-.09,8.18,8.18,0,0,1,1.24-.1l3.34-.11"/><path class="cls-6" d="M300.84,468.76a.65.65,0,0,0,1.29,0,.65.65,0,1,0-1.29,0Z"/><path class="cls-6" d="M289.8,468.8c0-.22,2.62-.41,5.84-.42s5.84.16,5.84.38-2.61.41-5.84.43S289.8,469,289.8,468.8Z"/><path class="cls-6" d="M274.51,473.88a13.09,13.09,0,0,1-.71-2.15c-.42-1.43-1-3.55-1.75-6.19l-.1-.37h.4c4.37-.08,10.2-.14,16.58-.16-.35-.28.48.37.39.3h0v0l0,.07,0,.14.07.27.14.56.28,1.09c.19.73.37,1.44.55,2.15.35,1.4.7,2.77,1,4.07l.12.48h-.49c-4.92,0-9.11-.06-12-.12l-3.4-.09a4.71,4.71,0,0,1-1.15-.1,6.66,6.66,0,0,1,1.3-.11l3.46-.12c2.94-.08,7-.17,11.82-.22l-.37.48c-.34-1.3-.69-2.66-1.06-4.06-.18-.71-.37-1.42-.56-2.15l-.28-1.09-.14-.55-.07-.28,0-.14,0-.07v-.05h0c-.09-.06.74.58.39.31-6.38,0-12.2,0-16.58,0l.29-.38c.62,2.54,1.09,4.63,1.41,6.11A21.51,21.51,0,0,1,274.51,473.88Z"/><path class="cls-6" d="M275.72,451.36c0-.23,2.47-.42,5.5-.43s5.5.16,5.5.38"/><path class="cls-6" d="M281.39,453.54c-3.05,0-5.53-.16-5.53-.38s2.48-.42,5.53-.43"/><path class="cls-6" d="M286.87,454.85c0,.22-2.39.41-5.34.43s-5.34-.16-5.34-.39,2.39-.41,5.34-.42"/><path class="cls-6" d="M276.05,468.66c0-.22,2.35-.42,5.24-.43s5.24.16,5.25.39-2.35.41-5.25.42S276.05,468.88,276.05,468.66Z"/><path class="cls-6" d="M276.7,470.65c0-.22,2-.41,4.47-.42s4.47.16,4.47.39-2,.41-4.47.42S276.7,470.87,276.7,470.65Z"/><polygon class="cls-3" points="336.96 484.19 272.9 485.93 260.65 440.53 325.52 439.51 336.96 484.19"/><polygon class="cls-6" points="175.39 494.69 175.39 503.23 180.99 503.23 180.99 676.13 192.46 676.13 192.46 503.23 253.36 503.23 253.36 676.13 264.84 676.13 264.84 503.23 529.04 503.23 529.04 676.09 540.51 676.09 540.51 503.23 545.48 503.23 545.48 494.69 175.39 494.69"/><path class="cls-6" d="M424.21,559.11c0,.18,3.34.32,7.46.32s7.46-.14,7.46-.32-3.34-.31-7.46-.31S424.21,558.94,424.21,559.11Z"/><ellipse class="cls-7" cx="315.52" cy="560.68" rx="0.4" ry="0.2"/><polygon class="cls-8" points="339.38 666.37 339.38 671 319.64 679.34 364.92 680.19 364.06 666.29 339.38 666.37"/><polygon class="cls-8" points="420.78 658.29 422.95 660.96 414.28 673.24 447.81 655.34 440 646.68 420.78 658.29"/><path class="cls-12" d="M388.64,407l-42.86-43.55-.93-4.71c-.17-.86-.35-1.83-.52-2.92a11.78,11.78,0,0,1,.07-3.84,17.6,17.6,0,0,1,1.32-4.56c.72-1.26-.43-2.78-1.63-2.26s-3.26,3.94-3.71,8.65-4.46-1.54-6-3.79-6.47-9-7.51-9.06c-1.51-.12-1.9,1.53-.35,3.74s5.75,9.16,4.56,9.91h0a5.62,5.62,0,0,0-5.93,2.94c-1.08,2.08-2.28,5-1.29,6.38a77.3,77.3,0,0,0,6.83,7.24l1.43,1.23s37.09,53.73,45.17,55.48c5,1.08,82.73,7.53,82.73,7.53L465.88,414Z"/><path class="cls-12" d="M323.52,363l4,3.81A4.66,4.66,0,0,0,329,367.9a1.42,1.42,0,0,0,2-1.87,4.8,4.8,0,0,0-.91-1.41L326.18,360"/><path class="cls-13" d="M326.18,360c.09-.07.83.66,2,1.91.63.72,1.28,1.46,2,2.22a7.47,7.47,0,0,1,1.09,1.48,2.09,2.09,0,0,1-.11,2.2,1.94,1.94,0,0,1-2.17.5,4.38,4.38,0,0,1-1.55-1.09l-2.08-2.12a9.87,9.87,0,0,1-1.77-2.09,9.42,9.42,0,0,1,2.17,1.68l2.19,2a4,4,0,0,0,1.3.88,1.18,1.18,0,0,0,1.28-.25,1.34,1.34,0,0,0,0-1.36,6.86,6.86,0,0,0-1-1.34l-1.82-2.33A9.74,9.74,0,0,1,326.18,360Z"/><path class="cls-12" d="M326.34,360.23l4,3.8a4.58,4.58,0,0,0,1.5,1.1,1.42,1.42,0,0,0,2-1.87,4.61,4.61,0,0,0-.91-1.41c-1.28-1.55-2.57-3.09-3.85-4.63"/><path class="cls-13" d="M329,357.22c.08-.08.83.66,2,1.91l2,2.22a7.19,7.19,0,0,1,1.09,1.48,2.09,2.09,0,0,1-.1,2.2,2,2,0,0,1-2.17.5,4.52,4.52,0,0,1-1.56-1.09l-2.07-2.12a9.15,9.15,0,0,1-1.77-2.09,8.93,8.93,0,0,1,2.16,1.68l2.2,2a3.89,3.89,0,0,0,1.29.89,1.18,1.18,0,0,0,1.28-.25,1.34,1.34,0,0,0,0-1.36,7.82,7.82,0,0,0-.95-1.34l-1.83-2.33A9.3,9.3,0,0,1,329,357.22Z"/><path class="cls-12" d="M329.43,358l4,3.81a4.85,4.85,0,0,0,1.49,1.1,1.64,1.64,0,0,0,1.74-.28,1.62,1.62,0,0,0,.23-1.59,4.49,4.49,0,0,0-.91-1.41l-3.86-4.64"/><path class="cls-13" d="M337.55,362.32A6.89,6.89,0,0,1,339,359c.61-.71,1.12-1,1.19-.92s-1.48,1.75-1.88,4.36a7.83,7.83,0,0,0,0,2.46l.08.62-.54-.23c-1.24-.53-2.18-.6-2.18-.76s1-.32,2.42.12l-.46.39"/><path class="cls-12" d="M444.79,341.7l.18,59.64-23.26,1.11-.94-14.29s-11.22,1.7-13.57-6.74c-1.49-5.39-1.12-47.06-1.12-47.06Z"/><path class="cls-6" d="M400.3,340.24c1.73,3.56,9.93,10.08,9.93,10.08l3.71,9.94c3.22-2.52,7.55-2.38,8.37,3.28.59,4.09-4.5,4.92-4.5,4.92,3,5,5,9.11,9.28,13.9,4.66,5.19,7.28,5.71,12.34,5.8H445s11.41-9.54,9.15-34.67-24.84-17.79-30.23-24.07C415.15,319.2,394.55,328.34,400.3,340.24Z"/><path class="cls-12" d="M398.23,457.92,389,485.85c-2.51,7.55-9.1,8.84-17,8.84H320.32V483.11l47.14-6.73,11.23-28.7Z"/><path class="cls-12" d="M314.65,480.71l-4.1-1.94s-4.41-8.53-5.43-8.19-1.3,2.85.47,6.77l-5.44-1.55s-11.79,5.45-11.27,6.18,1.49,2.47,4.05,1.16,5.94-2.86,5.94-2.86l6.35,1.82-8.19,1-7.71,7S291.85,492,294,490l20,4.3,6.27.36V483.11Z"/><path class="cls-13" d="M294,490c.08.06.45-.53,1.17-1.32a6.29,6.29,0,0,1,1.46-1.12,5.9,5.9,0,0,1,2.16-.57c3.34-.39,6-.85,6-1s-2.74,0-6.08.4a5.88,5.88,0,0,0-2.38.69,5.68,5.68,0,0,0-1.5,1.33A3.59,3.59,0,0,0,294,490Z"/><path class="cls-13" d="M297.17,490.84c.07,0,.14-.42.7-.54s1.48-.21,2.43-.31c1.92-.19,3.5-.18,3.52-.36a7.19,7.19,0,0,0-3.58-.26,10.68,10.68,0,0,0-2.52.52,1,1,0,0,0-.61.62C297.06,490.73,297.13,490.84,297.17,490.84Z"/><path class="cls-14" d="M402.6,451.83l-4,13.44-25.19-11.4c.91-2.81,5.07-15.35,13.05-35.24a34.2,34.2,0,0,1,26.1-21c8.24-1.37,17.21-2.44,24.11-2.37,14.13.16,34.92,9,37.71,22.83,2.13,10.57.07,29.22.07,51.89l-1.84,43.31-72.36,2.46Z"/><g class="cls-10"><path d="M474.42,459.92c-8.81,1.8-17.85,0-26.82-.55-5.44-.32-11.48-.91-15.78,2.43-3.41,2.65-4.79,7.11-5.77,11.32-3.75,16-4.44,26.79-5.28,43.24L464.33,519Z"/></g><path class="cls-6" d="M400.75,404.83c0,.06.72.1,1.92.57a10.09,10.09,0,0,1,4.17,3.38,14,14,0,0,1,2.49,7.54,47.74,47.74,0,0,1-.76,9.92,166.94,166.94,0,0,1-4,17.74c-.6,2.17-1.09,4-1.47,5.33a13.78,13.78,0,0,0-.46,2,11.85,11.85,0,0,0,.7-1.9c.41-1.24,1-3,1.65-5.28a138.33,138.33,0,0,0,4.24-17.76,45.94,45.94,0,0,0,.72-10.06,14.18,14.18,0,0,0-2.72-7.77,9.77,9.77,0,0,0-4.43-3.33,6.8,6.8,0,0,0-1.48-.34C400.93,404.81,400.75,404.8,400.75,404.83Z"/><path class="cls-6" d="M374.24,450.44a23.09,23.09,0,0,0,3.55,2c2.23,1.17,5.36,2.71,8.88,4.3s6.74,2.91,9.1,3.81a24.18,24.18,0,0,0,3.87,1.31,27.17,27.17,0,0,0-3.7-1.72c-2.32-1-5.51-2.39-9-4s-6.65-3.06-8.94-4.13A28.52,28.52,0,0,0,374.24,450.44Z"/><path class="cls-6" d="M362.7,519a25.79,25.79,0,0,0-10.53,34.54l63,108.14,29.06-17.55-48.91-97.64,35.45-23.14"/><path class="cls-6" d="M439.39,513.64l-86.46,3.06a25.78,25.78,0,0,0-24.88,26.17l3.59,123.5,36.37-.08-1.22-116.77,72.6-1.91Z"/><path class="cls-7" d="M366.79,553.75a5.25,5.25,0,0,1,.11,1.14c0,.83.08,1.91.14,3.27.11,2.85.22,7,.32,12.06.22,10.18.37,24.25.44,39.79s.16,29.53.21,39.79c0,5,.05,9.12.07,12.06,0,1.36,0,2.45,0,3.28a8.82,8.82,0,0,1-.06,1.15,5.55,5.55,0,0,1-.11-1.15c0-.82-.08-1.91-.14-3.27-.11-2.85-.22-7-.32-12.06-.22-10.18-.37-24.25-.44-39.8s-.16-29.52-.21-39.78c0-5-.05-9.12-.07-12.06,0-1.36,0-2.45,0-3.28A8.36,8.36,0,0,1,366.79,553.75Z"/><path class="cls-7" d="M476.85,435.27H450.69a19.06,19.06,0,0,0-19.07,19.06V545.6H379.36a13.2,13.2,0,0,0-13.2,13.2H485.49v-.07a10.9,10.9,0,0,0,10.43-10.88V454.33A19.06,19.06,0,0,0,476.85,435.27Z"/><path class="cls-6" d="M439.23,438.28c.22,0,.4,26.82.4,59.9s-.18,59.9-.4,59.9-.41-26.82-.41-59.9S439,438.28,439.23,438.28Z"/><path class="cls-7" d="M435.92,654.59V558.85h-8.5v95.74c-5.19,10.24-17.4,17.16-32.27,22.83H471C455.57,671.17,441.67,666.37,435.92,654.59Z"/><path class="cls-8" d="M692.63,358.35l-16,15.94s-9.83-11-22.84-9.77C649,354,643.53,331.45,642,325l21.72,21.72a3.35,3.35,0,1,0,1.33-1.34l-21.71-21.71c6.42,1.51,28.93,7,39.5,11.82C681.61,348.52,692.63,358.35,692.63,358.35Z"/><path d="M682.85,335.52c-10.56-4.82-33.08-10.32-39.51-11.83l21.72,21.71a3.35,3.35,0,0,1,4,5.31l15.61,15.61,8-8S681.61,348.52,682.85,335.52Z"/><path class="cls-15" d="M736.63,418.3h0a7.22,7.22,0,0,1-10.18,0l-46.76-46.77,10.17-10.17,46.77,46.77A7.22,7.22,0,0,1,736.63,418.3Z"/><path class="cls-16" d="M736.63,418.3h0a7.22,7.22,0,0,1-10.18,0l-46.76-46.77,10.17-10.17,46.77,46.77A7.22,7.22,0,0,1,736.63,418.3Z"/><rect class="cls-17" x="677.82" y="365.38" width="19.07" height="7.29" rx="2.93" transform="translate(-59.62 594.11) rotate(-45)"/><rect class="cls-14" x="671.51" y="362.51" width="26.28" height="7.63" rx="3.39" transform="translate(-58.5 591.41) rotate(-45)"/><rect class="cls-18" x="671.51" y="362.51" width="26.28" height="7.63" rx="3.39" transform="translate(-58.5 591.41) rotate(-45)"/><rect class="cls-14" x="678.52" y="367.04" width="3.21" height="7.63" transform="translate(-63.03 589.53) rotate(-45)"/><rect class="cls-14" x="682.6" y="363.9" width="1.32" height="7.63" transform="translate(1426.41 144.62) rotate(135)"/><path class="cls-8" d="M638.34,425.57A74.64,74.64,0,1,1,743.9,320l-.87.87A73.42,73.42,0,1,0,639.2,424.71Z"/><rect class="cls-8" x="564.74" y="319.83" width="148.06" height="1.22" transform="translate(-39.5 545.53) rotate(-45)"/><rect class="cls-8" x="633.24" y="314.91" width="11.06" height="11.06" transform="translate(-39.5 545.53) rotate(-45)"/><path class="cls-8" d="M638.77,329.13l-8.69-8.69,8.69-8.68,8.69,8.68Zm-7-8.69,7,7,7-7-7-7Z"/><rect class="cls-8" x="633.24" y="419.61" width="11.06" height="11.06" transform="translate(-113.53 576.2) rotate(-45)"/><path class="cls-8" d="M638.77,433.82l-8.69-8.68,8.69-8.69,8.69,8.69Zm-7-8.68,7,7,7-7-7-7Z"/><rect class="cls-8" x="738.16" y="314.68" width="11.06" height="11.06" transform="translate(-8.6 619.66) rotate(-45)"/><path class="cls-8" d="M743.69,328.9,735,320.22l8.69-8.69,8.69,8.69Zm-7-8.68,7,6.95,7-6.95-7-7Z"/><circle class="cls-8" cx="691.34" cy="267.87" r="5.53"/><path class="cls-8" d="M691.34,274a6.14,6.14,0,1,1,4.35-10.48h0A6.14,6.14,0,0,1,691.34,274Zm0-11.06a4.92,4.92,0,1,0,3.48,1.44h0A4.88,4.88,0,0,0,691.34,263Z"/><circle class="cls-8" cx="586.42" cy="372.79" r="5.53"/><path class="cls-8" d="M586.42,378.93a6.14,6.14,0,1,1,4.35-10.48h0a6.14,6.14,0,0,1-4.35,10.48Zm0-11.06a4.92,4.92,0,1,0,3.48,1.44A4.91,4.91,0,0,0,586.42,367.87Z"/><path class="cls-1" d="M620.35,569.6c5.58-2.87,12.14-3.25,18.34-2.22,3.33.55,6.79,1.54,9.06,4s2.69,6.9.09,9.05c-1.55,1.27-3.7,1.47-5.71,1.45-4.85-.06-10.23-.91-14.1,2-2.21,1.67-3.68,4.43-6.33,5.25s-5.5-.72-6.87-3a10.68,10.68,0,0,1-.78-7.88A12.06,12.06,0,0,1,620.35,569.6Z"/><path class="cls-1" d="M607.56,544.93c3.42,4.87,10.05,3.26,13.12.29s4.37-7.29,5.56-11.4c2.7-9.39,5.42-19.24,3.41-28.81a16.05,16.05,0,0,0-3.67-7.83,8.39,8.39,0,0,0-7.93-2.64c-3.34.89-5.42,4.16-6.92,7.28a68.63,68.63,0,0,0-6.79,29.47c0,4.74.55,9.72,3.22,13.64Z"/><path class="cls-1" d="M598.2,551.92c3.7-4.39,4.4-10.81,2.75-16.31s-5.37-10.2-9.66-14A51.79,51.79,0,0,0,574,511.38a18.46,18.46,0,0,0-7.78-1.32,8.19,8.19,0,0,0-6.54,3.95c-1.82,3.47-.07,7.68,1.82,11.12a132.31,132.31,0,0,0,11.36,17.31c3.41,4.39,7.31,8.72,12.5,10.71s10.59,1.75,13.34-1.85Z"/><path class="cls-4" d="M607.33,618.43a10.08,10.08,0,0,0,.31-2.21q.24-2.43.59-6.05a86.13,86.13,0,0,1,1.36-8.86,67.25,67.25,0,0,1,3.22-10.46,38.64,38.64,0,0,1,5.34-9.46,20.06,20.06,0,0,1,6.75-5.62,19,19,0,0,1,5.69-1.77,10.54,10.54,0,0,0,2.21-.32,10.88,10.88,0,0,0-2.25,0,17.18,17.18,0,0,0-5.93,1.54,19.91,19.91,0,0,0-7.12,5.66,37.75,37.75,0,0,0-5.54,9.66,64.39,64.39,0,0,0-3.2,10.63,74.66,74.66,0,0,0-1.17,9c-.2,2.57-.27,4.65-.3,6.08A10.26,10.26,0,0,0,607.33,618.43Z"/><path class="cls-4" d="M607.75,613.78a4.62,4.62,0,0,0,.06-1c0-.77,0-1.74,0-2.94,0-2.54,0-6.23.13-10.79.23-9.11,1-18.92,2.53-32.74,1.43-13,3.36-28.13,5.39-38,.44-2.24.88-4.25,1.29-6s.73-3.29,1.05-4.53l.69-2.85a4.27,4.27,0,0,0,.18-1,5.11,5.11,0,0,0-.36,1c-.22.74-.5,1.67-.85,2.81s-.77,2.74-1.21,4.5-.94,3.76-1.42,6a334.4,334.4,0,0,0-5.67,35.23c-1.52,13.86-2.2,26.47-2.26,35.61-.06,4.57,0,8.26.16,10.81.07,1.2.13,2.17.17,2.94A4.91,4.91,0,0,0,607.75,613.78Z"/><path class="cls-4" d="M607.81,589.45a20.58,20.58,0,0,0,0-3.07,82.78,82.78,0,0,0-.94-8.31,110.42,110.42,0,0,0-2.7-12.12,99.73,99.73,0,0,0-5.07-14.33,76.1,76.1,0,0,0-14.88-23.16,37.38,37.38,0,0,0-3.5-3.26c-.53-.45-1-.9-1.49-1.26l-1.36-.94a18.13,18.13,0,0,0-2.58-1.65c-.15.2,3.66,2.44,8.47,7.55A80.83,80.83,0,0,1,598.24,552a114.06,114.06,0,0,1,5.1,14.2c1.32,4.45,2.21,8.55,2.87,12s1,6.28,1.22,8.23A21.13,21.13,0,0,0,607.81,589.45Z"/><polygon class="cls-4" points="584.29 632.37 586.73 665.77 629.64 665.77 632.08 632.37 584.29 632.37"/><rect class="cls-4" x="580.15" y="619.2" width="57.05" height="13.17"/><polygon class="cls-1" points="580.15 664.49 580.15 668.14 582.83 668.14 636.26 668.14 636.26 664.49 580.15 664.49"/><polygon class="cls-4" points="585.46 674.56 582.83 668.14 634.21 668.14 631.15 674.56 585.46 674.56"/><path class="cls-3" d="M632.68,632.15c0,.15-10.76.27-24,.27s-24-.12-24-.27,10.75-.27,24-.27S632.68,632,632.68,632.15Z"/><path class="cls-3" d="M634.84,668.5c0,.15-11.68.27-26.09.27s-26.1-.12-26.1-.27,11.68-.27,26.1-.27S634.84,668.35,634.84,668.5Z"/></svg>