<svg id="Layer_1" data-name="Layer 1" xmlns="http://www.w3.org/2000/svg" viewBox="0 0 880 700"><defs><style>.cls-1{fill:#ebebeb;}.cls-2{fill:#fff;}.cls-3{fill:#f5f5f5;}.cls-4{fill:#e7515b;}.cls-5{fill:#fafbfb;}.cls-6{fill:#e0e0e0;}.cls-7{fill:#263238;}.cls-8{fill:#010101;}.cls-9{fill:#dd4d65;}.cls-10,.cls-11{fill:#4ea8b0;}.cls-11{opacity:0.5;}.cls-12,.cls-13{fill:#dbf0f5;}.cls-13{opacity:0.7;}.cls-14{opacity:0.2;}.cls-15,.cls-18{fill:#5274b8;}.cls-15,.cls-21{opacity:0.3;}.cls-16{fill:#f1f0f0;}.cls-17{fill:#fab176;}.cls-19{fill:#f6893f;}.cls-20{opacity:0.4;}</style></defs><circle class="cls-1" cx="128.52" cy="359.74" r="37.02"/><circle class="cls-2" cx="128.52" cy="359.74" r="26.82"/><path class="cls-1" d="M134.33,332.92H122.71a2.6,2.6,0,0,1-2.6-2.77l1.24-20a2.61,2.61,0,0,1,2.61-2.44h9.12a2.6,2.6,0,0,1,2.6,2.44l1.25,20A2.61,2.61,0,0,1,134.33,332.92Z"/><path class="cls-1" d="M134.35,386.57H122.73a2.6,2.6,0,0,0-2.6,2.77l1.24,20a2.61,2.61,0,0,0,2.61,2.44h9.12a2.6,2.6,0,0,0,2.6-2.44l1.25-20A2.61,2.61,0,0,0,134.35,386.57Z"/><path class="cls-1" d="M113.18,336l-8,8.42a2.61,2.61,0,0,1-3.8,0L87.74,329.74a2.6,2.6,0,0,1,0-3.57L94,319.55a2.62,2.62,0,0,1,3.57-.2L113,332.22A2.61,2.61,0,0,1,113.18,336Z"/><path class="cls-1" d="M104.5,373.64l7.29,9a2.6,2.6,0,0,1-.52,3.76L94.93,398a2.62,2.62,0,0,1-3.54-.49l-5.73-7.1a2.61,2.61,0,0,1,.27-3.56l14.78-13.54A2.61,2.61,0,0,1,104.5,373.64Z"/><path class="cls-1" d="M152.59,345.7l-8-8.41a2.61,2.61,0,0,1,.21-3.8l15.35-12.88a2.63,2.63,0,0,1,3.57.2l6.29,6.61a2.61,2.61,0,0,1,0,3.58l-13.63,14.68A2.61,2.61,0,0,1,152.59,345.7Z"/><path class="cls-1" d="M151.87,373.89l-7.54,8.84a2.62,2.62,0,0,0,.42,3.78l16,12a2.61,2.61,0,0,0,3.55-.4l5.92-6.94a2.59,2.59,0,0,0-.17-3.56l-14.4-13.93A2.61,2.61,0,0,0,151.87,373.89Z"/><path class="cls-1" d="M101.69,354l-.23,11.61a2.61,2.61,0,0,1-2.82,2.55l-20-1.64a2.62,2.62,0,0,1-2.39-2.66l.18-9.12a2.61,2.61,0,0,1,2.5-2.55l20-.85A2.61,2.61,0,0,1,101.69,354Z"/><path class="cls-1" d="M155.34,354l.24,11.61a2.61,2.61,0,0,0,2.82,2.55l20-1.64a2.62,2.62,0,0,0,2.39-2.66l-.18-9.12a2.61,2.61,0,0,0-2.5-2.55l-20-.85A2.62,2.62,0,0,0,155.34,354Z"/><circle class="cls-1" cx="210.56" cy="402.95" r="25.37"/><circle class="cls-2" cx="210.56" cy="402.95" r="18.38"/><path class="cls-1" d="M214.54,384.56h-8a1.79,1.79,0,0,1-1.79-1.9l.86-13.7a1.79,1.79,0,0,1,1.78-1.68h6.25a1.79,1.79,0,0,1,1.79,1.68l.85,13.7A1.78,1.78,0,0,1,214.54,384.56Z"/><path class="cls-1" d="M214.55,421.33h-8a1.78,1.78,0,0,0-1.78,1.9l.85,13.71a1.78,1.78,0,0,0,1.78,1.67h6.26a1.78,1.78,0,0,0,1.78-1.67l.85-13.71A1.78,1.78,0,0,0,214.55,421.33Z"/><path class="cls-1" d="M200,386.68l-5.48,5.78a1.8,1.8,0,0,1-2.61,0l-9.34-10.06a1.78,1.78,0,0,1,0-2.45l4.31-4.53a1.79,1.79,0,0,1,2.44-.14l10.53,8.82A1.79,1.79,0,0,1,200,386.68Z"/><path class="cls-1" d="M194.09,412.47l5,6.19a1.8,1.8,0,0,1-.35,2.59l-11.2,7.94a1.79,1.79,0,0,1-2.43-.33L181.18,424a1.79,1.79,0,0,1,.19-2.44l10.12-9.28A1.8,1.8,0,0,1,194.09,412.47Z"/><path class="cls-1" d="M227.05,393.32l-5.49-5.76a1.8,1.8,0,0,1,.15-2.61l10.52-8.82a1.8,1.8,0,0,1,2.45.13l4.3,4.53a1.78,1.78,0,0,1,0,2.45l-9.34,10.07A1.8,1.8,0,0,1,227.05,393.32Z"/><path class="cls-1" d="M226.56,412.64l-5.17,6.06a1.8,1.8,0,0,0,.29,2.59l11,8.24a1.8,1.8,0,0,0,2.44-.26l4.05-4.76a1.78,1.78,0,0,0-.11-2.45l-9.88-9.54A1.79,1.79,0,0,0,226.56,412.64Z"/><path class="cls-1" d="M192.17,399l-.16,8a1.79,1.79,0,0,1-1.93,1.75l-13.69-1.13a1.79,1.79,0,0,1-1.64-1.82l.13-6.25a1.78,1.78,0,0,1,1.71-1.75l13.72-.58A1.79,1.79,0,0,1,192.17,399Z"/><path class="cls-1" d="M228.94,399l.16,8a1.79,1.79,0,0,0,1.93,1.75l13.69-1.13a1.79,1.79,0,0,0,1.64-1.82l-.12-6.25a1.79,1.79,0,0,0-1.72-1.75l-13.72-.58A1.79,1.79,0,0,0,228.94,399Z"/><polygon class="cls-2" points="365.45 356.62 134.12 356.62 133.93 62.01 365.55 62.01 365.45 356.62"/><rect class="cls-3" x="133.83" y="60.96" width="231.61" height="56.7"/><rect class="cls-4" x="145.41" y="109.08" width="88.26" height="14.28"/><rect class="cls-5" x="145.41" y="180.22" width="206.93" height="20.51"/><rect class="cls-6" x="145.41" y="200.7" width="206.93" height="20.51"/><path class="cls-2" d="M154.85,113.9h.39v3.75h-.39Z"/><path class="cls-2" d="M159,116v1.63h-.38v-1.59a.79.79,0,0,0-.85-.9.92.92,0,0,0-1,1v1.48h-.38v-2.82h.36v.52a1.2,1.2,0,0,1,1.07-.54A1.08,1.08,0,0,1,159,116Z"/><path class="cls-2" d="M162.33,114.83l-1.25,2.82h-.39l-1.25-2.82h.4l1,2.4,1.07-2.4Z"/><path class="cls-2" d="M162.51,116.24a1.44,1.44,0,1,1,1.43,1.44A1.39,1.39,0,0,1,162.51,116.24Zm2.48,0a1.05,1.05,0,1,0-1.05,1.1A1,1,0,0,0,165,116.24Z"/><path class="cls-2" d="M166.07,113.94a.28.28,0,1,1,.28.28A.28.28,0,0,1,166.07,113.94Zm.08.89h.39v2.82h-.39Z"/><path class="cls-2" d="M167.31,116.24a1.39,1.39,0,0,1,1.46-1.43,1.23,1.23,0,0,1,1.1.56l-.28.19a1,1,0,0,0-.82-.42,1.1,1.1,0,0,0,0,2.2,1,1,0,0,0,.82-.41l.28.19a1.23,1.23,0,0,1-1.1.56A1.4,1.4,0,0,1,167.31,116.24Z"/><path class="cls-2" d="M173,116.36h-2.35a1,1,0,0,0,1.11,1,1.11,1.11,0,0,0,.86-.37l.21.25a1.49,1.49,0,0,1-2.56-1,1.37,1.37,0,1,1,2.74,0S173,116.32,173,116.36Zm-2.35-.28h2a1,1,0,0,0-2,0Z"/><path class="cls-2" d="M178.87,115.21l-.14,1.13h.76v.29h-.8l-.13,1h-.28l.12-1h-1.1l-.13,1h-.29l.12-1h-.76v-.29h.8l.14-1.13h-.77v-.29h.81l.12-1h.3l-.13,1h1.1l.13-1H179l-.13,1h.76v.29Zm-.29,0h-1.1l-.15,1.13h1.11Z"/><path class="cls-2" d="M182.58,116.58c0,.62-.45,1.11-1.36,1.11a1.93,1.93,0,0,1-1.35-.49l.19-.3a1.64,1.64,0,0,0,1.16.43c.62,0,1-.29,1-.75s-.31-.75-1-.75h-.27v-.28l1-1.31H180v-.34h2.42v.27l-1.06,1.34C182.18,115.55,182.58,116,182.58,116.58Z"/><path class="cls-2" d="M186.32,116.67h-.76v1h-.38v-1h-2.12v-.28l2-2.49h.43l-1.92,2.42h1.63v-.86h.37v.86h.76Z"/><path class="cls-2" d="M189.2,116.55c0,.64-.45,1.14-1.37,1.14a1.91,1.91,0,0,1-1.34-.49l.19-.3a1.63,1.63,0,0,0,1.15.43c.64,0,1-.31,1-.77s-.3-.78-1.25-.78h-.8l.19-1.88H189v.34h-1.72l-.13,1.2h.49C188.77,115.44,189.2,115.88,189.2,116.55Z"/><path class="cls-2" d="M192.5,116.53a1.17,1.17,0,0,1-1.28,1.16c-1,0-1.53-.7-1.53-1.88s.69-1.94,1.71-1.94a1.77,1.77,0,0,1,.89.2l-.16.31a1.28,1.28,0,0,0-.72-.17c-.81,0-1.33.52-1.33,1.53,0,.09,0,.2,0,.31a1.21,1.21,0,0,1,1.15-.64A1.13,1.13,0,0,1,192.5,116.53Zm-.38,0c0-.49-.36-.81-.94-.81a.87.87,0,0,0-1,.82c0,.42.34.81,1,.81A.82.82,0,0,0,192.12,116.54Z"/><path class="cls-2" d="M195.51,117.31v.34h-2.63v-.27l1.56-1.53c.43-.42.51-.67.51-.93,0-.43-.31-.7-.88-.7a1.31,1.31,0,0,0-1,.42l-.27-.24a1.7,1.7,0,0,1,1.33-.53c.76,0,1.24.38,1.24,1a1.56,1.56,0,0,1-.61,1.18l-1.28,1.25Z"/><path class="cls-7" d="M274.71,84H277V96h-2.24Z"/><path class="cls-7" d="M290.92,84V96h-1.84l-6.65-8.16V96h-2.22V84h1.84l6.65,8.17V84Z"/><path class="cls-7" d="M305.1,84,299.85,96h-2.21L292.37,84h2.43l4,9.3,4.05-9.3Z"/><path class="cls-7" d="M305.4,90a6.5,6.5,0,1,1,6.49,6.2A6.17,6.17,0,0,1,305.4,90Zm10.73,0a4.24,4.24,0,1,0-4.24,4.24A4.11,4.11,0,0,0,316.13,90Z"/><path class="cls-7" d="M320.76,84H323V96h-2.24Z"/><path class="cls-7" d="M325.4,90a6.52,6.52,0,0,1,11.23-4.18l-1.45,1.36A4.23,4.23,0,0,0,332,85.74a4.24,4.24,0,1,0,0,8.48,4.2,4.2,0,0,0,3.22-1.43l1.45,1.38A6.53,6.53,0,0,1,325.4,90Z"/><path class="cls-7" d="M347.83,94.13V96h-9.05V84h8.8v1.88H341V89h5.82v1.84H341v3.32Z"/><path class="cls-7" d="M317.88,134.54c0,.19-1.62.34-3.62.34s-3.63-.15-3.63-.34,1.63-.35,3.63-.35S317.88,134.34,317.88,134.54Z"/><path class="cls-7" d="M319.15,137.56c-.18-.07.22-1.54.89-3.28s1.36-3.1,1.53-3-.21,1.54-.88,3.29S319.33,137.63,319.15,137.56Z"/><path class="cls-7" d="M328.47,134.54c0,.19-1.2.34-2.69.34s-2.7-.15-2.7-.34,1.21-.35,2.7-.35S328.47,134.34,328.47,134.54Z"/><path class="cls-7" d="M330.69,136.82c-.18-.06.12-1.33.67-2.82s1.14-2.65,1.32-2.59-.12,1.33-.67,2.83S330.87,136.89,330.69,136.82Z"/><path class="cls-7" d="M344.27,134.54c0,.19-2.42.34-5.39.34s-5.39-.15-5.39-.34,2.41-.35,5.39-.35S344.27,134.34,344.27,134.54Z"/><rect class="cls-4" x="145.41" y="165.93" width="206.93" height="14.28"/><path class="cls-8" d="M207.68,191.55c0,.19-10,.35-22.21.35s-22.22-.16-22.22-.35,9.95-.35,22.22-.35S207.68,191.36,207.68,191.55Z"/><path class="cls-8" d="M280.34,192c0,.2-4.34.35-9.69.35S261,192.22,261,192s4.33-.34,9.68-.34S280.34,191.83,280.34,192Z"/><path class="cls-8" d="M307.6,190.84c0,.19-1,.35-2.12.35s-2.13-.16-2.13-.35.95-.34,2.13-.34S307.6,190.65,307.6,190.84Z"/><path class="cls-8" d="M344.7,191.32c0,.19-3.86.34-8.62.34s-8.63-.15-8.63-.34,3.86-.35,8.63-.35S344.7,191.12,344.7,191.32Z"/><path class="cls-8" d="M230.6,211.4c0,.19-15.08.35-33.67.35s-33.68-.16-33.68-.35,15.08-.35,33.68-.35S230.6,211.21,230.6,211.4Z"/><path class="cls-8" d="M276.8,211.64c0,.19-3.55.34-7.92.34s-7.91-.15-7.91-.34,3.54-.35,7.91-.35S276.8,211.45,276.8,211.64Z"/><path class="cls-8" d="M308.55,211.4c0,.19-1.38.35-3.07.35s-3.08-.16-3.08-.35,1.38-.35,3.08-.35S308.55,211.21,308.55,211.4Z"/><path class="cls-8" d="M342.34,210.93c0,.19-3.71.34-8.27.34s-8.27-.15-8.27-.34,3.7-.35,8.27-.35S342.34,210.74,342.34,210.93Z"/><rect class="cls-4" x="254.25" y="251.7" width="97.5" height="12.71"/><path class="cls-7" d="M330.37,233.75c0,.19-5.19.35-11.59.35s-11.59-.16-11.59-.35,5.19-.34,11.59-.34S330.37,233.56,330.37,233.75Z"/><path class="cls-7" d="M330.37,242.28c0,.19-5.19.34-11.59.34s-11.59-.15-11.59-.34,5.19-.35,11.59-.35S330.37,242.08,330.37,242.28Z"/><path class="cls-7" d="M287.31,242.28c0,.19-5.19.34-11.59.34s-11.59-.15-11.59-.34,5.19-.35,11.59-.35S287.31,242.08,287.31,242.28Z"/><path class="cls-7" d="M287.31,233.32c0,.19-7.74.35-17.29.35s-17.28-.16-17.28-.35S260.47,233,270,233,287.31,233.13,287.31,233.32Z"/><path class="cls-2" d="M330.37,258.69c0,.2-5.19.35-11.59.35s-11.59-.15-11.59-.35,5.19-.34,11.59-.34S330.37,258.5,330.37,258.69Z"/><path class="cls-2" d="M288.59,258.69c0,.2-5.19.35-11.59.35s-11.59-.15-11.59-.35,5.19-.34,11.59-.34S288.59,258.5,288.59,258.69Z"/><rect class="cls-4" x="152.18" y="81.73" width="6.68" height="6.68" rx="1.6"/><path class="cls-4" d="M153.68,89.81v.09a.4.4,0,0,0,.39.39h6.42V83.64a.4.4,0,0,0-.39-.39h0a.39.39,0,0,0-.39.39v5.74l-5.64.05A.39.39,0,0,0,153.68,89.81Z"/><path class="cls-4" d="M202,84c0,.2-8.58.35-19.17.35s-19.17-.15-19.17-.35,8.58-.34,19.17-.34S202,83.85,202,84Z"/><path class="cls-4" d="M184.19,87.72c0,.2-4.5.35-10,.35s-10-.15-10-.35,4.49-.34,10-.34S184.19,87.53,184.19,87.72Z"/><path class="cls-7" d="M365.45,356.62c0-2.73-.13-120.18-.31-295.66l.31.31-231.59,0h0l.35-.34c0,109.61,0,211.39-.06,295.66l-.29-.29,231.62.29-231.62.28h-.28v-.28c0-84.27,0-186-.06-295.66v-.35h.37l231.59,0h.31V61C365.57,236.44,365.45,353.89,365.45,356.62Z"/><path class="cls-7" d="M248.88,142.16c0,.19-12.39.35-27.67.35s-27.68-.16-27.68-.35,12.39-.35,27.68-.35S248.88,142,248.88,142.16Z"/><path class="cls-7" d="M248.88,147.46c0,.19-12.39.35-27.67.35s-27.68-.16-27.68-.35,12.39-.35,27.68-.35S248.88,147.27,248.88,147.46Z"/><path class="cls-7" d="M214.22,152.76c0,.19-4.63.34-10.34.34s-10.35-.15-10.35-.34,4.63-.35,10.35-.35S214.22,152.57,214.22,152.76Z"/><path class="cls-7" d="M249.74,136.47c0,.19-23.3.34-52,.34s-52-.15-52-.34,23.29-.35,52-.35S249.74,136.28,249.74,136.47Z"/><path class="cls-2" d="M209,173.07c0,.2-10.39.35-23.21.35s-23.2-.15-23.2-.35,10.38-.34,23.2-.34S209,172.88,209,173.07Z"/><path class="cls-2" d="M281.16,173.07c0,.2-5.5.35-12.28.35s-12.28-.15-12.28-.35,5.5-.34,12.28-.34S281.16,172.88,281.16,173.07Z"/><path class="cls-2" d="M316.3,173.07c0,.2-4.08.35-9.11.35s-9.11-.15-9.11-.35,4.08-.34,9.11-.34S316.3,172.88,316.3,173.07Z"/><path class="cls-2" d="M346.67,173.07c0,.2-4.07.35-9.1.35s-9.11-.15-9.11-.35,4.08-.34,9.11-.34S346.67,172.88,346.67,173.07Z"/><path class="cls-7" d="M349.37,275.06c0,.23-45,.41-100.5.41s-100.5-.18-100.5-.41,45-.41,100.5-.41S349.37,274.83,349.37,275.06Z"/><path class="cls-7" d="M240.21,294.61c0,.23-20,.41-44.64.41s-44.65-.18-44.65-.41,20-.41,44.65-.41S240.21,294.38,240.21,294.61Z"/><path class="cls-7" d="M220.14,302c0,.23-15.49.42-34.6.42s-34.62-.19-34.62-.42,15.5-.41,34.62-.41S220.14,301.76,220.14,302Z"/><path class="cls-7" d="M209,309.36c0,.22-13,.41-29,.41s-29-.19-29-.41,13-.42,29-.42S209,309.13,209,309.36Z"/><path class="cls-7" d="M343.56,299.21a3.54,3.54,0,0,1-.55.16l-1.64.4c-1.44.34-3.57.81-6.31,1.4-5.5,1.17-13.47,2.76-23.39,4.39-4.95.82-10.39,1.64-16.25,2.42-2.93.39-6,.78-9.08,1.14l-4.76.54c-.81.08-1.61.2-2.46.23a4.93,4.93,0,0,1-2.6-.52,2.53,2.53,0,0,1,.1-4.65,40.52,40.52,0,0,1,4.7-2.25,49,49,0,0,1,21.34-3.66,22.55,22.55,0,0,1,5.66.89,9.32,9.32,0,0,1,4.91,3.2,7.09,7.09,0,0,1,1.12,5.77,10.7,10.7,0,0,1-2.77,5.08,22.37,22.37,0,0,1-4.42,3.51,43.51,43.51,0,0,1-4.78,2.75,10.73,10.73,0,0,1-5.38,1.2,6.11,6.11,0,0,1-4.63-2.82,12.47,12.47,0,0,1-1.74-5,35.06,35.06,0,0,1-.32-5.09,36.31,36.31,0,0,1,5.07-18.12,12.65,12.65,0,0,1,2.75-3.5,4,4,0,0,1,4.24-.76,5,5,0,0,1,2.57,3.28,7.65,7.65,0,0,1-.22,4,23.21,23.21,0,0,1-1.39,3.45c-.5,1.09-1,2.13-1.55,3.13-1,2-2.13,3.87-3.2,5.55a77.19,77.19,0,0,1-6.05,8.28c-1.81,2.15-3.33,3.73-4.38,4.77-.52.52-.94.9-1.21,1.16a3.08,3.08,0,0,1-.44.38,3.08,3.08,0,0,1,.38-.44l1.15-1.22c1-1.07,2.48-2.68,4.25-4.86a78.26,78.26,0,0,0,5.9-8.31c1.06-1.69,2.11-3.54,3.13-5.55a43.8,43.8,0,0,0,2.85-6.5,7,7,0,0,0,.19-3.64,4.39,4.39,0,0,0-2.25-2.86,3.34,3.34,0,0,0-3.55.69,12.11,12.11,0,0,0-2.58,3.33,35.75,35.75,0,0,0-4.9,17.79,33.15,33.15,0,0,0,.33,5A11.72,11.72,0,0,0,293,318a5.33,5.33,0,0,0,4.05,2.47,10.06,10.06,0,0,0,5-1.14,42.59,42.59,0,0,0,4.68-2.71,21.49,21.49,0,0,0,4.26-3.38,9.86,9.86,0,0,0,2.56-4.69,6.24,6.24,0,0,0-1-5.11,8.6,8.6,0,0,0-4.5-2.91,22.21,22.21,0,0,0-5.45-.85,48.73,48.73,0,0,0-21,3.56,42.24,42.24,0,0,0-4.59,2.19,1.77,1.77,0,0,0-.13,3.33c1.3.73,3,.35,4.6.21l4.75-.52,9.08-1.09c5.85-.76,11.29-1.55,16.25-2.32,9.92-1.56,17.9-3.06,23.41-4.13l6.35-1.26,1.65-.31A2.92,2.92,0,0,1,343.56,299.21Z"/><path class="cls-7" d="M283.78,327.31c0,.23-3,.41-6.78.41s-6.78-.18-6.78-.41,3-.41,6.78-.41S283.78,327.08,283.78,327.31Z"/><polygon class="cls-2" points="377.97 344.81 146.64 344.81 146.45 50.2 378.07 50.2 377.97 344.81"/><rect class="cls-3" x="146.36" y="49.15" width="231.61" height="56.7"/><rect class="cls-4" x="157.93" y="97.27" width="88.26" height="14.28"/><rect class="cls-5" x="157.93" y="168.41" width="206.93" height="20.51"/><rect class="cls-6" x="157.93" y="188.89" width="206.93" height="20.51"/><path class="cls-2" d="M167.37,102.09h.4v3.75h-.4Z"/><path class="cls-2" d="M171.51,104.21v1.63h-.39v-1.59c0-.6-.31-.9-.84-.9a.92.92,0,0,0-1,1v1.48h-.38V103h.37v.52a1.18,1.18,0,0,1,1.07-.54A1.09,1.09,0,0,1,171.51,104.21Z"/><path class="cls-2" d="M174.86,103l-1.26,2.82h-.39L172,103h.4l1.06,2.41,1.06-2.41Z"/><path class="cls-2" d="M175,104.43a1.44,1.44,0,1,1,1.44,1.44A1.39,1.39,0,0,1,175,104.43Zm2.48,0a1,1,0,1,0-2.09,0,1,1,0,1,0,2.09,0Z"/><path class="cls-2" d="M178.59,102.13a.28.28,0,0,1,.28-.26.26.26,0,0,1,.28.26.28.28,0,0,1-.28.28A.29.29,0,0,1,178.59,102.13Zm.09.89h.38v2.82h-.38Z"/><path class="cls-2" d="M179.84,104.43a1.39,1.39,0,0,1,1.45-1.43,1.22,1.22,0,0,1,1.1.56l-.28.19a1,1,0,0,0-.82-.41,1.1,1.1,0,0,0,0,2.19,1,1,0,0,0,.82-.41l.28.19a1.22,1.22,0,0,1-1.1.56A1.39,1.39,0,0,1,179.84,104.43Z"/><path class="cls-2" d="M185.55,104.55h-2.36a1,1,0,0,0,1.11,1,1.09,1.09,0,0,0,.86-.37l.22.25a1.49,1.49,0,0,1-2.57-1,1.36,1.36,0,0,1,1.38-1.43,1.34,1.34,0,0,1,1.36,1.43Zm-2.36-.28h2a1,1,0,0,0-2,0Z"/><path class="cls-2" d="M191.39,103.4l-.14,1.13H192v.3h-.8l-.12,1h-.29l.12-1h-1.1l-.13,1h-.29l.13-1h-.76v-.3h.79l.14-1.13h-.76v-.29h.8l.13-1h.29l-.13,1h1.11l.12-1h.29l-.12,1h.75v.29Zm-.29,0H190l-.15,1.13H191Z"/><path class="cls-2" d="M195.11,104.77c0,.62-.46,1.11-1.37,1.11a1.93,1.93,0,0,1-1.35-.49l.19-.3a1.65,1.65,0,0,0,1.16.43c.62,0,1-.29,1-.75s-.32-.75-1-.75h-.26v-.28l1-1.31h-1.92v-.34H195v.28l-1.06,1.33C194.7,103.74,195.11,104.17,195.11,104.77Z"/><path class="cls-2" d="M198.84,104.86h-.75v1h-.39v-1h-2.12v-.28l2-2.49H198l-1.92,2.42h1.63v-.86h.38v.86h.75Z"/><path class="cls-2" d="M201.72,104.74c0,.64-.45,1.14-1.36,1.14a1.93,1.93,0,0,1-1.35-.49l.19-.3a1.63,1.63,0,0,0,1.15.43c.64,0,1-.31,1-.76s-.3-.79-1.26-.79h-.8l.2-1.88h2.05v.34H199.8l-.12,1.2h.48C201.29,103.63,201.72,104.08,201.72,104.74Z"/><path class="cls-2" d="M205,104.72a1.17,1.17,0,0,1-1.28,1.16c-1,0-1.54-.7-1.54-1.88s.7-1.94,1.71-1.94a1.75,1.75,0,0,1,.89.2l-.15.31a1.41,1.41,0,0,0-.73-.17c-.81,0-1.33.52-1.33,1.54,0,.08,0,.19,0,.3a1.18,1.18,0,0,1,1.14-.64A1.14,1.14,0,0,1,205,104.72Zm-.38,0c0-.49-.37-.81-1-.81a.87.87,0,0,0-1,.83c0,.41.34.8,1,.8A.83.83,0,0,0,204.65,104.73Z"/><path class="cls-2" d="M208,105.5v.34h-2.63v-.27L207,104c.42-.42.5-.67.5-.92,0-.44-.31-.71-.88-.71a1.27,1.27,0,0,0-1,.42l-.28-.23a1.67,1.67,0,0,1,1.33-.54c.76,0,1.25.39,1.25,1a1.58,1.58,0,0,1-.62,1.18L206,105.5Z"/><path class="cls-7" d="M287.23,72.15h2.24v12h-2.24Z"/><path class="cls-7" d="M303.44,72.15v12H301.6L295,76V84.2h-2.22v-12h1.84l6.65,8.16V72.15Z"/><path class="cls-7" d="M317.62,72.15l-5.25,12h-2.21l-5.26-12h2.42l4,9.29,4-9.29Z"/><path class="cls-7" d="M317.92,78.17a6.5,6.5,0,1,1,6.49,6.2A6.18,6.18,0,0,1,317.92,78.17Zm10.73,0a4.24,4.24,0,1,0-4.24,4.24A4.11,4.11,0,0,0,328.65,78.17Z"/><path class="cls-7" d="M333.29,72.15h2.24v12h-2.24Z"/><path class="cls-7" d="M337.92,78.17A6.52,6.52,0,0,1,349.15,74l-1.45,1.36a4.2,4.2,0,0,0-3.22-1.41,4.24,4.24,0,1,0,0,8.47A4.19,4.19,0,0,0,347.7,81l1.45,1.38a6.53,6.53,0,0,1-11.23-4.19Z"/><path class="cls-7" d="M360.35,82.32V84.2h-9v-12h8.8V74h-6.56v3.14h5.82V79h-5.82v3.32Z"/><path class="cls-7" d="M330.4,122.73c0,.19-1.62.34-3.62.34s-3.62-.15-3.62-.34,1.62-.35,3.62-.35S330.4,122.54,330.4,122.73Z"/><path class="cls-7" d="M331.68,125.75c-.18-.07.21-1.54.88-3.28s1.36-3.1,1.54-3-.22,1.53-.89,3.28S331.85,125.82,331.68,125.75Z"/><path class="cls-7" d="M341,122.73c0,.19-1.21.34-2.7.34s-2.69-.15-2.69-.34,1.2-.35,2.69-.35S341,122.54,341,122.73Z"/><path class="cls-7" d="M343.21,125c-.18-.06.12-1.33.67-2.82s1.14-2.65,1.32-2.59-.12,1.33-.67,2.83S343.39,125.08,343.21,125Z"/><path class="cls-7" d="M356.79,122.73c0,.19-2.41.34-5.39.34s-5.39-.15-5.39-.34,2.42-.35,5.39-.35S356.79,122.54,356.79,122.73Z"/><rect class="cls-4" x="157.93" y="154.12" width="206.93" height="14.28"/><path class="cls-8" d="M220.2,179.74c0,.19-9.94.35-22.21.35s-22.21-.16-22.21-.35,9.94-.34,22.21-.34S220.2,179.55,220.2,179.74Z"/><path class="cls-8" d="M292.86,180.22c0,.19-4.33.34-9.68.34s-9.69-.15-9.69-.34,4.34-.35,9.69-.35S292.86,180,292.86,180.22Z"/><path class="cls-8" d="M320.13,179c0,.2-1,.35-2.13.35s-2.13-.15-2.13-.35.95-.34,2.13-.34S320.13,178.84,320.13,179Z"/><path class="cls-8" d="M357.22,179.51c0,.19-3.86.34-8.62.34s-8.63-.15-8.63-.34,3.87-.35,8.63-.35S357.22,179.31,357.22,179.51Z"/><path class="cls-8" d="M243.12,199.59c0,.19-15.07.35-33.67.35s-33.67-.16-33.67-.35,15.07-.34,33.67-.34S243.12,199.4,243.12,199.59Z"/><path class="cls-8" d="M289.32,199.83c0,.19-3.54.34-7.92.34s-7.91-.15-7.91-.34,3.54-.35,7.91-.35S289.32,199.64,289.32,199.83Z"/><path class="cls-8" d="M321.07,199.59c0,.19-1.38.35-3.07.35s-3.07-.16-3.07-.35,1.37-.34,3.07-.34S321.07,199.4,321.07,199.59Z"/><path class="cls-8" d="M354.86,199.12c0,.19-3.7.35-8.27.35s-8.27-.16-8.27-.35,3.7-.35,8.27-.35S354.86,198.93,354.86,199.12Z"/><rect class="cls-4" x="266.78" y="239.89" width="97.5" height="12.71"/><path class="cls-7" d="M342.89,221.94c0,.19-5.19.35-11.59.35s-11.59-.16-11.59-.35,5.19-.34,11.59-.34S342.89,221.75,342.89,221.94Z"/><path class="cls-7" d="M342.89,230.47c0,.19-5.19.34-11.59.34s-11.59-.15-11.59-.34,5.19-.35,11.59-.35S342.89,230.28,342.89,230.47Z"/><path class="cls-7" d="M299.83,230.47c0,.19-5.19.34-11.59.34s-11.59-.15-11.59-.34,5.19-.35,11.59-.35S299.83,230.28,299.83,230.47Z"/><path class="cls-7" d="M299.83,221.51c0,.2-7.74.35-17.28.35s-17.29-.15-17.29-.35,7.74-.34,17.29-.34S299.83,221.32,299.83,221.51Z"/><path class="cls-2" d="M342.89,246.89c0,.19-5.19.34-11.59.34s-11.59-.15-11.59-.34,5.19-.35,11.59-.35S342.89,246.69,342.89,246.89Z"/><path class="cls-2" d="M301.11,246.89c0,.19-5.19.34-11.59.34s-11.59-.15-11.59-.34,5.19-.35,11.59-.35S301.11,246.69,301.11,246.89Z"/><rect class="cls-4" x="164.71" y="69.93" width="6.68" height="6.68" rx="1.6"/><path class="cls-4" d="M166.21,78v.08a.39.39,0,0,0,.38.39H173V71.83a.4.4,0,0,0-.39-.39h0a.4.4,0,0,0-.39.39v5.74l-5.64.05A.38.38,0,0,0,166.21,78Z"/><path class="cls-4" d="M214.48,72.24c0,.19-8.58.34-19.16.34s-19.17-.15-19.17-.34,8.58-.35,19.17-.35S214.48,72,214.48,72.24Z"/><path class="cls-4" d="M196.71,75.92c0,.19-4.49.34-10,.34s-10-.15-10-.34,4.49-.35,10-.35S196.71,75.72,196.71,75.92Z"/><path class="cls-7" d="M378,344.81c0-2.73-.13-120.18-.31-295.66l.31.31-231.59,0h0l.34-.34c0,109.61,0,211.39-.06,295.66l-.28-.29,231.61.29-231.61.28h-.29v-.28c0-84.27,0-186-.06-295.66V48.8h.37l231.59,0h.31v.31C378.1,224.63,378,342.08,378,344.81Z"/><path class="cls-7" d="M261.4,130.35c0,.19-12.39.35-27.67.35s-27.68-.16-27.68-.35,12.39-.35,27.68-.35S261.4,130.16,261.4,130.35Z"/><path class="cls-7" d="M261.4,135.65c0,.19-12.39.35-27.67.35s-27.68-.16-27.68-.35,12.39-.35,27.68-.35S261.4,135.46,261.4,135.65Z"/><path class="cls-7" d="M226.75,141c0,.19-4.64.35-10.35.35s-10.35-.16-10.35-.35,4.63-.35,10.35-.35S226.75,140.76,226.75,141Z"/><path class="cls-7" d="M262.26,124.66c0,.19-23.3.35-52,.35s-52-.16-52-.35,23.29-.35,52-.35S262.26,124.47,262.26,124.66Z"/><path class="cls-2" d="M221.48,161.27c0,.19-10.39.34-23.2.34s-23.21-.15-23.21-.34,10.39-.35,23.21-.35S221.48,161.07,221.48,161.27Z"/><path class="cls-2" d="M293.68,161.27c0,.19-5.49.34-12.27.34s-12.28-.15-12.28-.34,5.49-.35,12.28-.35S293.68,161.07,293.68,161.27Z"/><path class="cls-2" d="M328.82,161.27c0,.19-4.08.34-9.11.34s-9.11-.15-9.11-.34,4.08-.35,9.11-.35S328.82,161.07,328.82,161.27Z"/><path class="cls-2" d="M359.2,161.27c0,.19-4.08.34-9.11.34s-9.11-.15-9.11-.34,4.08-.35,9.11-.35S359.2,161.07,359.2,161.27Z"/><path class="cls-7" d="M361.89,263.25c0,.23-45,.41-100.49.41s-100.51-.18-100.51-.41,45-.41,100.51-.41S361.89,263,361.89,263.25Z"/><path class="cls-7" d="M252.74,282.8c0,.23-20,.42-44.65.42s-44.64-.19-44.64-.42,20-.41,44.64-.41S252.74,282.57,252.74,282.8Z"/><path class="cls-7" d="M232.67,290.18c0,.22-15.5.41-34.61.41s-34.61-.19-34.61-.41,15.49-.42,34.61-.42S232.67,290,232.67,290.18Z"/><path class="cls-7" d="M221.48,297.55c0,.23-13,.41-29,.41s-29-.18-29-.41,13-.41,29-.41S221.48,297.32,221.48,297.55Z"/><path class="cls-7" d="M356.08,287.4a3.12,3.12,0,0,1-.55.16l-1.64.4c-1.44.34-3.56.81-6.31,1.4-5.5,1.17-13.47,2.76-23.38,4.39-5,.82-10.4,1.64-16.26,2.43-2.92.38-5.95.77-9.08,1.13l-4.76.54c-.8.08-1.6.2-2.46.23a4.78,4.78,0,0,1-2.6-.52,2.53,2.53,0,0,1,.1-4.65,41.32,41.32,0,0,1,4.7-2.25A49.06,49.06,0,0,1,315.19,287a22.55,22.55,0,0,1,5.65.89,9.41,9.41,0,0,1,4.92,3.2,7.09,7.09,0,0,1,1.11,5.77,10.64,10.64,0,0,1-2.76,5.08,23,23,0,0,1-4.42,3.51,44.46,44.46,0,0,1-4.78,2.75,10.77,10.77,0,0,1-5.39,1.2,6.11,6.11,0,0,1-4.63-2.82,12.31,12.31,0,0,1-1.73-5,33.7,33.7,0,0,1-.32-5.09,36.21,36.21,0,0,1,5.07-18.12,12.43,12.43,0,0,1,2.74-3.5,4,4,0,0,1,4.24-.76,5,5,0,0,1,2.57,3.28,7.69,7.69,0,0,1-.21,4,23.55,23.55,0,0,1-1.4,3.44c-.5,1.09-1,2.13-1.55,3.14-1.05,2-2.13,3.86-3.2,5.54a77.19,77.19,0,0,1-6.05,8.28c-1.81,2.15-3.32,3.73-4.38,4.77-.52.53-.94.9-1.21,1.16a3.08,3.08,0,0,1-.44.38,3.08,3.08,0,0,1,.38-.44l1.16-1.22c1-1.07,2.48-2.68,4.24-4.85a81,81,0,0,0,5.91-8.32c1.05-1.69,2.1-3.54,3.13-5.55a46.36,46.36,0,0,0,2.85-6.49,7.07,7.07,0,0,0,.18-3.65,4.38,4.38,0,0,0-2.24-2.86,3.35,3.35,0,0,0-3.56.69,12,12,0,0,0-2.57,3.34,35.48,35.48,0,0,0-4.9,17.78,33.14,33.14,0,0,0,.32,5,11.68,11.68,0,0,0,1.63,4.68,5.33,5.33,0,0,0,4.05,2.46,10,10,0,0,0,5-1.14,42.72,42.72,0,0,0,4.69-2.71,21.78,21.78,0,0,0,4.26-3.38,9.92,9.92,0,0,0,2.55-4.69,6.2,6.2,0,0,0-1-5.11,8.48,8.48,0,0,0-4.5-2.9,21.75,21.75,0,0,0-5.45-.86,48.54,48.54,0,0,0-21,3.57,43.1,43.1,0,0,0-4.59,2.18,1.78,1.78,0,0,0-.12,3.34c1.29.72,3,.34,4.59.2l4.76-.52,9.07-1.09c5.86-.75,11.3-1.54,16.25-2.32,9.92-1.56,17.9-3.06,23.41-4.13l6.35-1.25,1.65-.32A3,3,0,0,1,356.08,287.4Z"/><path class="cls-7" d="M296.3,315.5c0,.23-3,.41-6.78.41s-6.78-.18-6.78-.41,3-.41,6.78-.41S296.3,315.27,296.3,315.5Z"/><polygon class="cls-2" points="388.04 335.2 156.71 335.2 156.52 40.6 388.14 40.6 388.04 335.2"/><rect class="cls-3" x="157.75" y="36.74" width="231.61" height="56.7"/><rect class="cls-9" x="169.32" y="84.86" width="88.26" height="14.28"/><rect class="cls-5" x="169.32" y="156" width="206.93" height="20.51"/><rect class="cls-6" x="169.32" y="176.48" width="206.93" height="20.51"/><path class="cls-2" d="M214.13,92.33m1.91,0"/><path class="cls-7" d="M298.63,59.73h2.24V71.79h-2.24Z"/><path class="cls-7" d="M314.84,59.73V71.79H313l-6.64-8.16v8.16h-2.22V59.73H306l6.64,8.17V59.73Z"/><path class="cls-7" d="M329,59.73l-5.26,12.06h-2.2l-5.27-12.06h2.43l4,9.3,4-9.3Z"/><path class="cls-7" d="M329.31,65.76a6.5,6.5,0,1,1,6.5,6.2A6.18,6.18,0,0,1,329.31,65.76Zm10.73,0A4.24,4.24,0,1,0,335.81,70,4.11,4.11,0,0,0,340,65.76Z"/><path class="cls-7" d="M344.68,59.73h2.24V71.79h-2.24Z"/><path class="cls-7" d="M349.32,65.76a6.51,6.51,0,0,1,11.22-4.18l-1.44,1.36a4.24,4.24,0,0,0-3.22-1.42,4.24,4.24,0,1,0,0,8.48,4.22,4.22,0,0,0,3.22-1.43L360.54,70a6.52,6.52,0,0,1-11.22-4.19Z"/><path class="cls-7" d="M371.74,69.91v1.88h-9V59.73h8.8v1.88h-6.56v3.14h5.82v1.84h-5.82v3.32Z"/><path class="cls-7" d="M341.8,110.32c0,.19-1.62.34-3.62.34s-3.63-.15-3.63-.34,1.62-.35,3.63-.35S341.8,110.12,341.8,110.32Z"/><path class="cls-7" d="M343.07,113.34c-.18-.07.22-1.54.89-3.28s1.35-3.1,1.53-3-.22,1.54-.89,3.29S343.25,113.41,343.07,113.34Z"/><path class="cls-7" d="M352.39,110.32c0,.19-1.21.34-2.69.34s-2.7-.15-2.7-.34,1.21-.35,2.7-.35S352.39,110.12,352.39,110.32Z"/><path class="cls-7" d="M354.61,112.6c-.18-.06.12-1.33.66-2.82s1.14-2.65,1.32-2.59-.12,1.33-.67,2.83S354.79,112.67,354.61,112.6Z"/><path class="cls-7" d="M368.18,110.32c0,.19-2.41.34-5.38.34s-5.39-.15-5.39-.34,2.41-.35,5.39-.35S368.18,110.12,368.18,110.32Z"/><rect class="cls-9" x="169.32" y="141.71" width="206.93" height="14.28"/><path class="cls-8" d="M231.6,167.33c0,.19-9.95.35-22.22.35s-22.21-.16-22.21-.35,10-.35,22.21-.35S231.6,167.14,231.6,167.33Z"/><path class="cls-8" d="M304.26,167.8c0,.2-4.34.35-9.69.35s-9.69-.15-9.69-.35,4.34-.34,9.69-.34S304.26,167.61,304.26,167.8Z"/><path class="cls-8" d="M331.52,166.62c0,.19-.95.35-2.13.35s-2.12-.16-2.12-.35,1-.34,2.12-.34S331.52,166.43,331.52,166.62Z"/><path class="cls-8" d="M368.62,167.1c0,.19-3.86.34-8.63.34s-8.62-.15-8.62-.34,3.86-.35,8.62-.35S368.62,166.9,368.62,167.1Z"/><path class="cls-8" d="M254.52,187.18c0,.19-15.08.35-33.67.35s-33.68-.16-33.68-.35,15.08-.35,33.68-.35S254.52,187,254.52,187.18Z"/><path class="cls-8" d="M300.71,187.42c0,.19-3.54.34-7.91.34s-7.92-.15-7.92-.34,3.55-.35,7.92-.35S300.71,187.23,300.71,187.42Z"/><path class="cls-8" d="M332.46,187.18c0,.19-1.37.35-3.07.35s-3.07-.16-3.07-.35,1.38-.35,3.07-.35S332.46,187,332.46,187.18Z"/><path class="cls-8" d="M366.26,186.71c0,.19-3.71.34-8.27.34s-8.28-.15-8.28-.34,3.71-.35,8.28-.35S366.26,186.52,366.26,186.71Z"/><rect class="cls-9" x="278.17" y="227.48" width="97.5" height="12.71"/><path class="cls-7" d="M354.28,209.53c0,.19-5.19.35-11.58.35s-11.59-.16-11.59-.35,5.18-.34,11.59-.34S354.28,209.34,354.28,209.53Z"/><path class="cls-7" d="M354.28,218.06c0,.19-5.19.34-11.58.34s-11.59-.15-11.59-.34,5.18-.35,11.59-.35S354.28,217.86,354.28,218.06Z"/><path class="cls-7" d="M311.23,218.06c0,.19-5.19.34-11.59.34s-11.59-.15-11.59-.34,5.19-.35,11.59-.35S311.23,217.86,311.23,218.06Z"/><path class="cls-7" d="M311.23,209.1c0,.19-7.74.35-17.29.35s-17.29-.16-17.29-.35,7.74-.34,17.29-.34S311.23,208.91,311.23,209.1Z"/><path class="cls-2" d="M354.28,234.47c0,.2-5.19.35-11.58.35s-11.59-.15-11.59-.35,5.18-.34,11.59-.34S354.28,234.28,354.28,234.47Z"/><path class="cls-2" d="M312.5,234.47c0,.2-5.18.35-11.58.35s-11.59-.15-11.59-.35,5.18-.34,11.59-.34S312.5,234.28,312.5,234.47Z"/><rect class="cls-9" x="176.1" y="57.51" width="6.68" height="6.68" rx="1.6"/><path class="cls-9" d="M177.6,65.59v.09a.39.39,0,0,0,.39.39h6.41V59.42A.39.39,0,0,0,184,59h0a.39.39,0,0,0-.38.39v5.74l-5.64,0A.38.38,0,0,0,177.6,65.59Z"/><path class="cls-9" d="M225.88,59.82c0,.2-8.59.35-19.17.35s-19.17-.15-19.17-.35,8.58-.34,19.17-.34S225.88,59.63,225.88,59.82Z"/><path class="cls-9" d="M208.1,63.5c0,.2-4.49.35-10,.35s-10-.15-10-.35,4.49-.34,10-.34S208.1,63.31,208.1,63.5Z"/><path class="cls-7" d="M389.36,332.4c0-2.73-.12-120.18-.31-295.66l.31.31-231.59,0h0l.35-.34c0,109.61,0,211.39-.06,295.66l-.29-.29,231.61.29-231.61.28h-.29v-.28c0-84.27,0-186-.06-295.66v-.35h.37l231.59,0h.31v.31C389.49,212.22,389.37,329.67,389.36,332.4Z"/><path class="cls-7" d="M272.8,117.94c0,.19-12.39.35-27.68.35s-27.67-.16-27.67-.35,12.39-.35,27.67-.35S272.8,117.75,272.8,117.94Z"/><path class="cls-7" d="M272.8,123.24c0,.19-12.39.35-27.68.35s-27.67-.16-27.67-.35,12.39-.35,27.67-.35S272.8,123.05,272.8,123.24Z"/><path class="cls-7" d="M238.14,128.54c0,.19-4.63.34-10.35.34s-10.34-.15-10.34-.34,4.63-.35,10.34-.35S238.14,128.35,238.14,128.54Z"/><path class="cls-7" d="M273.65,112.25c0,.19-23.29.35-52,.35s-52-.16-52-.35,23.29-.35,52-.35S273.65,112.06,273.65,112.25Z"/><path class="cls-2" d="M232.88,148.85c0,.2-10.39.35-23.21.35s-23.21-.15-23.21-.35,10.39-.34,23.21-.34S232.88,148.66,232.88,148.85Z"/><path class="cls-2" d="M305.08,148.85c0,.2-5.5.35-12.28.35s-12.28-.15-12.28-.35,5.5-.34,12.28-.34S305.08,148.66,305.08,148.85Z"/><path class="cls-2" d="M340.21,148.85c0,.2-4.07.35-9.1.35s-9.11-.15-9.11-.35,4.08-.34,9.11-.34S340.21,148.66,340.21,148.85Z"/><path class="cls-2" d="M370.59,148.85c0,.2-4.08.35-9.11.35s-9.1-.15-9.1-.35,4.07-.34,9.1-.34S370.59,148.66,370.59,148.85Z"/><path class="cls-7" d="M373.28,250.84c0,.23-45,.41-100.49.41s-100.5-.18-100.5-.41,45-.41,100.5-.41S373.28,250.61,373.28,250.84Z"/><path class="cls-7" d="M264.13,270.39c0,.23-20,.41-44.64.41s-44.65-.18-44.65-.41,20-.41,44.65-.41S264.13,270.16,264.13,270.39Z"/><path class="cls-7" d="M244.06,277.76c0,.23-15.5.42-34.61.42s-34.61-.19-34.61-.42,15.49-.41,34.61-.41S244.06,277.54,244.06,277.76Z"/><path class="cls-7" d="M232.88,285.14c0,.22-13,.41-29,.41s-29-.19-29-.41,13-.42,29-.42S232.88,284.91,232.88,285.14Z"/><path class="cls-7" d="M367.47,275a2.78,2.78,0,0,1-.55.16l-1.63.4c-1.44.34-3.57.81-6.32,1.4-5.49,1.17-13.47,2.76-23.38,4.39-5,.82-10.4,1.64-16.25,2.42-2.93.39-6,.78-9.09,1.14l-4.75.54c-.81.08-1.61.2-2.46.23a4.93,4.93,0,0,1-2.6-.52,2.53,2.53,0,0,1,.1-4.65,40.52,40.52,0,0,1,4.7-2.25,49.07,49.07,0,0,1,10.27-3,49.62,49.62,0,0,1,11.07-.67,22.48,22.48,0,0,1,5.65.89,9.35,9.35,0,0,1,4.92,3.2,7,7,0,0,1,1.11,5.77,10.69,10.69,0,0,1-2.76,5.08,22.37,22.37,0,0,1-4.42,3.51,43.51,43.51,0,0,1-4.78,2.75,10.75,10.75,0,0,1-5.38,1.2,6.11,6.11,0,0,1-4.63-2.82,12.32,12.32,0,0,1-1.74-5,33.7,33.7,0,0,1-.32-5.09A36.21,36.21,0,0,1,319.3,266a12.46,12.46,0,0,1,2.75-3.5,4,4,0,0,1,4.23-.76,5,5,0,0,1,2.58,3.28,7.65,7.65,0,0,1-.22,4,23.21,23.21,0,0,1-1.39,3.45c-.51,1.09-1,2.13-1.55,3.13q-1.59,3-3.21,5.55a75.91,75.91,0,0,1-6,8.28c-1.82,2.15-3.33,3.73-4.38,4.77-.52.52-.94.9-1.22,1.16a3.52,3.52,0,0,1-.43.38,2.54,2.54,0,0,1,.37-.44L312,294c1-1.07,2.48-2.68,4.25-4.86a79.73,79.73,0,0,0,5.9-8.31c1-1.69,2.1-3.54,3.13-5.55a44.87,44.87,0,0,0,2.85-6.5,7,7,0,0,0,.18-3.64,4.35,4.35,0,0,0-2.24-2.86,3.36,3.36,0,0,0-3.56.69,12.28,12.28,0,0,0-2.57,3.33A35.75,35.75,0,0,0,315,284.1a33.15,33.15,0,0,0,.33,5,11.42,11.42,0,0,0,1.62,4.67A5.31,5.31,0,0,0,321,296.2a10.08,10.08,0,0,0,5-1.14,42.59,42.59,0,0,0,4.68-2.71A21.78,21.78,0,0,0,334.9,289a9.86,9.86,0,0,0,2.56-4.69,6.28,6.28,0,0,0-1-5.11,8.64,8.64,0,0,0-4.5-2.91,22.35,22.35,0,0,0-5.45-.85,48.66,48.66,0,0,0-21,3.56,43.31,43.31,0,0,0-4.6,2.19,1.78,1.78,0,0,0-.12,3.33c1.3.73,3,.35,4.6.21l4.75-.52,9.08-1.09c5.85-.76,11.29-1.54,16.25-2.32,9.91-1.56,17.9-3.06,23.41-4.13l6.34-1.26,1.65-.31A3.12,3.12,0,0,1,367.47,275Z"/><path class="cls-7" d="M379.72,321.92c0,.23-45.44.41-101.48.41s-101.49-.18-101.49-.41,45.43-.42,101.49-.42S379.72,321.69,379.72,321.92Z"/><path class="cls-7" d="M307.7,303.09c0,.23-3,.41-6.78.41s-6.79-.18-6.79-.41,3-.41,6.79-.41S307.7,302.86,307.7,303.09Z"/><path class="cls-10" d="M691.82,634.4H414.72a19.44,19.44,0,0,1-19.6-21.22l33.95-444.91A23.37,23.37,0,0,1,451.91,147H729a19.44,19.44,0,0,1,19.6,21.23l-34,444.91A23.37,23.37,0,0,1,691.82,634.4Z"/><path class="cls-11" d="M691.82,634.4H414.72a19.44,19.44,0,0,1-19.6-21.22l33.95-444.91A23.37,23.37,0,0,1,451.91,147H729a19.44,19.44,0,0,1,19.6,21.23l-34,444.91A23.37,23.37,0,0,1,691.82,634.4Z"/><path class="cls-12" d="M687.69,634.4H410.6A19.44,19.44,0,0,1,391,613.18l33.95-444.91A23.37,23.37,0,0,1,447.78,147h277.1a19.44,19.44,0,0,1,19.6,21.23L710.54,613.18A23.37,23.37,0,0,1,687.69,634.4Z"/><path class="cls-13" d="M687.69,634.4H410.6A19.44,19.44,0,0,1,391,613.18l33.95-444.91A23.37,23.37,0,0,1,447.78,147h277.1a19.44,19.44,0,0,1,19.6,21.23L710.54,613.18A23.37,23.37,0,0,1,687.69,634.4Z"/><path class="cls-10" d="M411.14,627.33a12.93,12.93,0,0,1-13.07-14.15l33.49-439A15.56,15.56,0,0,1,446.79,160h277.1A12.94,12.94,0,0,1,737,174.16l-33.5,439a15.55,15.55,0,0,1-15.23,14.15Z"/><path class="cls-14" d="M686.28,233.86H488a7.68,7.68,0,0,1-7.75-8.38h0a9.23,9.23,0,0,1,9-8.39H687.56a7.68,7.68,0,0,1,7.75,8.39h0A9.23,9.23,0,0,1,686.28,233.86Z"/><path class="cls-15" d="M601.69,155.69h-32a1.89,1.89,0,0,1-1.9-2.06h0a2.27,2.27,0,0,1,2.22-2.07h32a1.89,1.89,0,0,1,1.91,2.07h0A2.28,2.28,0,0,1,601.69,155.69Z"/><path class="cls-16" d="M487.12,225.48a21.2,21.2,0,0,0-21.44-23.21H667a21.2,21.2,0,0,1,21.44,23.21Z"/><path class="cls-2" d="M670.16,562.88H439.05a5.58,5.58,0,0,1-5.63-6.09h0A6.71,6.71,0,0,1,440,550.7H671.09a5.57,5.57,0,0,1,5.62,6.09h0A6.7,6.7,0,0,1,670.16,562.88Z"/><path class="cls-2" d="M553.45,592.17H436.81a5.58,5.58,0,0,1-5.62-6.1h0a6.7,6.7,0,0,1,6.55-6.09H554.38a5.58,5.58,0,0,1,5.63,6.09h0A6.72,6.72,0,0,1,553.45,592.17Z"/><path class="cls-2" d="M634.2,592.17H587a5.58,5.58,0,0,1-5.63-6.1h0a6.7,6.7,0,0,1,6.56-6.09h47.24a5.58,5.58,0,0,1,5.63,6.09h0A6.72,6.72,0,0,1,634.2,592.17Z"/><polygon class="cls-13" points="617.35 319.98 450.94 319.98 451.29 315.36 617.7 315.36 617.35 319.98"/><polygon class="cls-16" points="617.35 319.98 450.94 319.98 449.86 334.11 616.27 334.11 617.35 319.98"/><polygon class="cls-16" points="615.2 348.25 448.78 348.25 447.7 362.38 614.12 362.38 615.2 348.25"/><polygon class="cls-16" points="613.04 376.51 446.63 376.51 445.55 390.64 611.96 390.64 613.04 376.51"/><polygon class="cls-16" points="610.88 404.77 444.47 404.77 443.39 418.9 609.8 418.9 610.88 404.77"/><polygon class="cls-13" points="608.37 437.65 441.96 437.65 442.31 433.03 608.73 433.03 608.37 437.65"/><polygon class="cls-16" points="589.34 233.86 623.92 233.86 622.35 254.5 587.76 254.5 589.34 233.86"/><path class="cls-17" d="M346.07,355.61l5.52,2.22a12.44,12.44,0,0,1,5.12,3.83l2.53,3.2a5.62,5.62,0,0,1-.19,7.17l-2.69,3.06a5.6,5.6,0,0,1-8,.47l-2.58-2.31s-7.92-5.57-10.25-12.91l1.53-1.53A10.57,10.57,0,0,1,346.07,355.61Z"/><path class="cls-17" d="M361.18,302.2l-1.79,1.18-2,1.38c-1.33.94-2.66,1.91-4,2.91-2.59,2-5.12,4.1-7.47,6.32a61.76,61.76,0,0,0-11.78,14.35c-.37.64-.72,1.28-1,1.93l-.25.49a5.09,5.09,0,0,0,.16-.62,2.07,2.07,0,0,0,0-.77c-.15-.44-.16.7.18,1.83a47.7,47.7,0,0,0,3.65,8.44c3.13,6,7.07,12.16,10.77,18.24l.1.15a5.35,5.35,0,0,1-7.85,7,99.84,99.84,0,0,1-8.7-7.64,101.43,101.43,0,0,1-7.94-8.66,53,53,0,0,1-7-10.86,28.49,28.49,0,0,1-1.42-3.74,18.38,18.38,0,0,1-.79-5.13,15.17,15.17,0,0,1,.37-3.5,14.89,14.89,0,0,1,.58-1.93l.3-.78c.38-1.05.8-2.08,1.25-3.09a71.35,71.35,0,0,1,14.51-20.85,92.75,92.75,0,0,1,9.15-8.17c1.6-1.25,3.23-2.47,4.93-3.61.85-.58,1.7-1.15,2.59-1.7l1.35-.82,1.54-.89a10.64,10.64,0,0,1,11.21,18.08Z"/><path class="cls-7" d="M361.36,278c-8.9,0-18.64,3.85-31.12,19.33,0,9.24,19.5,21.53,19.5,21.53S381.72,277.92,361.36,278Z"/><path class="cls-7" d="M295.31,644a1.29,1.29,0,0,1-.47-.08c-1.85-.65-3.58-5.34-3.69-7.95a.42.42,0,0,1,.23-.4.41.41,0,0,1,.46,0c.2.16,4.79,3.92,5,6.45a1.81,1.81,0,0,1-.42,1.37A1.49,1.49,0,0,1,295.31,644Zm-3.19-7c.42,2.47,1.83,5.71,3,6.12.17.06.39.08.66-.23a.94.94,0,0,0,.21-.74C295.87,640.65,293.61,638.33,292.12,637Z"/><path class="cls-7" d="M298.17,638.42a14.67,14.67,0,0,1-6.83-2.11.43.43,0,0,1-.19-.43.43.43,0,0,1,.31-.34c.25-.07,6-1.56,8.16-.25a1.79,1.79,0,0,1,.86,1.15,1.41,1.41,0,0,1-.54,1.57A3.24,3.24,0,0,1,298.17,638.42Zm-5.44-2.3c2.25,1.12,5.69,1.89,6.72,1.18.15-.1.29-.26.2-.67a.92.92,0,0,0-.47-.6C297.9,635.26,294.69,635.71,292.73,636.12Z"/><path class="cls-9" d="M275.38,635c2.57-3.14,6.9-7.33,11.36-16.12,0,0,14.12,3.47,11.35,7.54-5,7.39-7.49,22.56-1,30.7,3.7,4.64-2.16,5.41-6,3.42-6.16-3.16-5.9-4.33-9.09-9.56-2.73-4.47-3.81-6.22-7.57-8.13C271.27,641.2,272.8,638.1,275.38,635Z"/><path class="cls-7" d="M395.19,369.81s-20.49,99.87-35.48,142.52c-15.74,44.8-59.2,113.92-60.86,116.88-6.18-1.64-11.69-3.81-15.36-7.39,0,0,20.4-75,40.29-123.62C331.33,396.66,348,369.81,348,369.81Z"/><path class="cls-14" d="M363.93,423.24c-.93,19.32-1.57,45.89-.66,78.22,6.26-20.15,13.06-47.48,18.79-72C378.24,424.35,372.3,421.9,363.93,423.24Z"/><path class="cls-17" d="M365.16,247.35c2.15,8.68,4.25,22.85.83,30.39,0,0,12.81.57,29.2,13.65,7.71-11.33-1.22-13.56-1.22-13.56-6.81-1.59-6.47-10.66-6.46-17.12Z"/><path class="cls-18" d="M361.93,281.68c-6.39-.7-2-12.85,1.36-11.67,8.39,3,27.24-.34,33.07,2.88s4.35,9.81,4.35,9.81S368.82,282.44,361.93,281.68Z"/><path class="cls-7" d="M361.93,281.68c-6.39-.7-2-12.85,1.36-11.67,8.39,3,27.24-.34,33.07,2.88s4.35,9.81,4.35,9.81S368.82,282.44,361.93,281.68Z"/><path class="cls-7" d="M399.24,232c.2,1.16,1,2,1.75,1.86s1.21-1.19,1-2.35-1-2-1.75-1.86S399,230.86,399.24,232Z"/><path class="cls-7" d="M399.92,229.79l2.65-1.3S401.52,230.93,399.92,229.79Z"/><path class="cls-7" d="M400.79,222.73a.69.69,0,0,0-.78-1,6.89,6.89,0,0,0-4.79,4.14.69.69,0,1,0,1.32.43,5.51,5.51,0,0,1,3.82-3.23A.74.74,0,0,0,400.79,222.73Z"/><path class="cls-19" d="M400.61,234.84s2.52,4.85,5,7.06c-1.4,1.61-4.1,1.22-4.1,1.22Z"/><path class="cls-17" d="M359.5,231.42c3.39,14.12,4.53,20.17,12.9,26.25,12.58,9.13,28.85,1.92,29.66-12.92.74-13.35-4.93-34.2-19.64-37.46C367.93,204.09,356.11,217.3,359.5,231.42Z"/><path class="cls-7" d="M386.87,234c8.32-11,13.74-19.87,9.64-29.6-3.43-8.13-12.91-5.75-14.23-1.69-25.22-2.16-34.27,7-29.07,22.09,3.32,9.63-9.56,4.64-6.43,16.87,2.41,9.38-6.07,12.95-1.77,18.34,6.21,7.78,19-2.37,33.66,3.47C390.64,268.27,408.63,261.05,386.87,234Z"/><path class="cls-17" d="M385.52,236.24a9.33,9.33,0,0,0,6.32,4.35c3.31.48,4.44-3.23,3.09-6.67-1.22-3.1-4.41-7.08-7.52-6S383.65,233.28,385.52,236.24Z"/><path class="cls-7" d="M390.44,653.31c-2.11,0-5.58-1.67-7.2-3.14a.43.43,0,0,1,.24-.74c.25,0,6.15-.67,8.1,1a1.77,1.77,0,0,1,.69,1.26,1.41,1.41,0,0,1-.77,1.47A2.45,2.45,0,0,1,390.44,653.31Zm-5.8-3.12c2.06,1.44,5.37,2.7,6.48,2.15.16-.08.32-.22.29-.64A.94.94,0,0,0,391,651C389.89,650.09,386.64,650.07,384.64,650.19Z"/><path class="cls-7" d="M383.52,650.28a.42.42,0,0,1-.34-.17.44.44,0,0,1,0-.47c.13-.22,3.08-5.36,5.54-6a1.81,1.81,0,0,1,1.43.19,1.4,1.4,0,0,1,.73,1.49c-.33,1.93-4.68,4.41-7.24,4.94Zm5.69-5.84a1.54,1.54,0,0,0-.3,0c-1.45.37-3.38,3-4.45,4.67,2.37-.82,5.33-2.74,5.55-4,0-.17,0-.39-.34-.61A.91.91,0,0,0,389.21,644.44Z"/><path class="cls-9" d="M401.75,658.66c-12.33-.95-20.64-9.42-19.77-18.39.48-4.95-15.33-5.39-15.33-5.39,2.5,15.34-.64,17.53-1.67,21.49s-.78,8.34,2.49,8.42c3.92.1,5.74-.65,10.61-.46,5.69.22,11.85.44,22,.46C404.08,664.8,407.23,659.09,401.75,658.66Z"/><path class="cls-7" d="M416.5,369.81s-1.07,75.64-7,125.34S383,642.35,383,642.35c-5.93,1.16-11.49,1.34-16.4-.15,0,0-6.48-76.16,4.41-149.75-8-77.13-13-122.64-13-122.64Z"/><path class="cls-9" d="M419.3,299.84c-.25,5.85,9,19.36-2.42,27.19,2.13,4.76,3.93,37-.38,42.78-6.28,4.62-40.31,3.72-68.53,0-1.19-11.66,5.23-35.82-2.64-73.49a15,15,0,0,1,13.2-18c2.37-.24,4.89-.44,7.46-.56,10-.48,18.19-.8,27,0,2.91.27,5.92.63,8.8,1A20.38,20.38,0,0,1,419.3,299.84Z"/><path class="cls-17" d="M454,320.78l6.73-7.14L470,326.76s-7.87,5.59-15.41,5.36l-.87-1.92A10.56,10.56,0,0,1,454,320.78Z"/><path class="cls-17" d="M471.47,314.33l2.63,5a4.65,4.65,0,0,1-1.89,6.28l-2.2,1.19-9.32-13.12L466,312A4.66,4.66,0,0,1,471.47,314.33Z"/><path class="cls-17" d="M418.39,295.15l.57,2.91.64,3.08c.46,2.05.91,4.11,1.42,6.15,1,4.08,2.17,8.08,3.45,11.94A81,81,0,0,0,429,330.05a29.12,29.12,0,0,0,5.58,7.77l-3.23-1.59c-.95-.13-1.12.16-.63.14a7,7,0,0,0,2.31-.66,38.78,38.78,0,0,0,6.48-3.79c2.27-1.56,4.55-3.33,6.83-5.16s4.59-3.81,6.8-5.62l.23-.19a5.36,5.36,0,0,1,8.16,6.59,76.37,76.37,0,0,1-5.1,8.45,79.11,79.11,0,0,1-6.2,7.86,46.91,46.91,0,0,1-8.21,7.28,26.49,26.49,0,0,1-6.08,3.1,17.94,17.94,0,0,1-4.28.94,16.36,16.36,0,0,1-5.43-.39,8.21,8.21,0,0,1-2.87-1.33l-.37-.27a44.08,44.08,0,0,1-11.58-12.92c-1.39-2.27-2.63-4.56-3.75-6.85s-2.08-4.6-3-6.91a125.58,125.58,0,0,1-4.46-13.92c-.6-2.34-1.17-4.67-1.63-7-.24-1.18-.47-2.37-.68-3.56s-.38-2.33-.58-3.76a10.66,10.66,0,0,1,21-3.51Z"/><path class="cls-7" d="M403.8,279.17c8.85.91,15.93,6.78,20.88,25.5-3.81,5.26-27.78,16.82-27.78,16.82S383.55,277.07,403.8,279.17Z"/><polygon class="cls-1" points="200.74 613.25 208.88 666.75 256.18 666.75 267.16 614.02 200.74 613.25"/><path class="cls-1" d="M260.54,647.54c0,.15-12.12.27-27.06.27s-27.07-.12-27.07-.27,12.11-.28,27.07-.28S260.54,647.38,260.54,647.54Z"/><path class="cls-1" d="M260.73,644.9c0,.16-12.21.28-27.25.28s-27.26-.12-27.26-.28,12.2-.27,27.26-.27S260.73,644.75,260.73,644.9Z"/><path class="cls-1" d="M260.63,641.93c0,.16-12.2.28-27.25.28s-27.25-.12-27.25-.28,12.2-.27,27.25-.27S260.63,641.78,260.63,641.93Z"/><path class="cls-1" d="M214.31,663.7A85.22,85.22,0,0,1,212,650.13a84.71,84.71,0,0,1,2.35,13.57Z"/><path class="cls-1" d="M217.53,663.13a150.27,150.27,0,0,1-.89-13.17,33,33,0,0,1,.86,6.56A31.63,31.63,0,0,1,217.53,663.13Z"/><path class="cls-1" d="M223.4,663.12a32.31,32.31,0,0,1-1.24-6.73,34.14,34.14,0,0,1-.36-6.85,59.82,59.82,0,0,1,.92,6.78A62.47,62.47,0,0,1,223.4,663.12Z"/><path class="cls-1" d="M227.51,663.41a33.68,33.68,0,0,1-.65-6.85,33.2,33.2,0,0,1,.21-6.88,60.4,60.4,0,0,1,.34,6.86A58.13,58.13,0,0,1,227.51,663.41Z"/><path class="cls-1" d="M234.8,663.13a75.86,75.86,0,0,1-.44-13,38.49,38.49,0,0,1,.5,6.5A38.94,38.94,0,0,1,234.8,663.13Z"/><path class="cls-1" d="M240.12,663.41a82.25,82.25,0,0,1,.11-13.44,82.25,82.25,0,0,1-.11,13.44Z"/><path class="cls-1" d="M245.11,662.69a91.21,91.21,0,0,1,1.36-14,45.62,45.62,0,0,1-.4,7A43.79,43.79,0,0,1,245.11,662.69Z"/><path class="cls-1" d="M251.55,662a23.58,23.58,0,0,1,.79-6,24.2,24.2,0,0,1,1.76-5.77,52.57,52.57,0,0,1-1.21,5.89A52,52,0,0,1,251.55,662Z"/><path class="cls-1" d="M247,507.68a1,1,0,0,1-.05.26c-.06.2-.14.45-.23.76-.21.7-.51,1.67-.89,2.89s-.89,2.78-1.39,4.57-1.15,3.82-1.71,6.1-1.25,4.76-1.84,7.45-1.21,5.58-1.83,8.62c-1.13,6.1-2.16,12.84-2.89,20s-1,14-1.11,20.15c0,3.1,0,6,.09,8.81s.19,5.32.33,7.67.32,4.45.47,6.31.3,3.46.45,4.76.24,2.28.31,3c0,.32.05.58.07.79a1.38,1.38,0,0,1,0,.27,1,1,0,0,1-.06-.27c0-.2-.08-.46-.13-.77-.1-.73-.24-1.73-.41-3s-.39-2.9-.55-4.76-.42-4-.55-6.32-.34-4.91-.4-7.68-.12-5.71-.14-8.82c.07-6.22.37-13.06,1.06-20.2s1.79-13.9,3-20c.63-3,1.2-5.94,1.88-8.62s1.29-5.18,1.91-7.45,1.25-4.3,1.79-6.09,1-3.31,1.48-4.55.76-2.16,1-2.86l.27-.74A1.47,1.47,0,0,1,247,507.68Z"/><path class="cls-1" d="M238.46,540.81a17.5,17.5,0,0,1,7.35-9.29c1.17-.73,2.65-1.32,3.89-.72,1.65.8,1.78,3.12,1.29,4.89a12.94,12.94,0,0,1-5.35,7.29,10.88,10.88,0,0,1-8,2"/><path class="cls-1" d="M235.58,563.18c1.23-4.62,4.91-11.19,8.73-14a5.64,5.64,0,0,1,2-1.06,2.27,2.27,0,0,1,2.12.46,3.25,3.25,0,0,1,.48,3.06,18.6,18.6,0,0,1-13.8,13.89"/><path class="cls-1" d="M234.79,582.87a27,27,0,0,1,8.81-11.08,4.25,4.25,0,0,1,3.07-1.1c1.67.31,2.43,2.35,2.28,4-.3,3.48-3,6.28-5.71,8.44a35.35,35.35,0,0,1-8.14,4.19"/><path class="cls-1" d="M235.24,597a25.94,25.94,0,0,1,7.49-8.53,5.38,5.38,0,0,1,2.25-1,2.27,2.27,0,0,1,2.2.84c.76,1.1,0,2.6-.77,3.66a21.35,21.35,0,0,1-10.69,7.84"/><path class="cls-1" d="M234.87,591.27a84.42,84.42,0,0,0-10.72-10.92c-.61-.51-1.38-1.05-2.14-.8a1.6,1.6,0,0,0-1,1.44,4,4,0,0,0,.41,1.79,20.75,20.75,0,0,0,13.8,11.6"/><path class="cls-1" d="M235.21,572.85l-8.42-10.26a10,10,0,0,0-2.73-2.59,3.46,3.46,0,0,0-3.59,0,3.41,3.41,0,0,0-1.16,3.39,8.91,8.91,0,0,0,1.65,3.37,24.89,24.89,0,0,0,6.13,6.52c2.47,1.7,4.72,2.81,7.69,2.37"/><path class="cls-1" d="M236.38,552.11a29.44,29.44,0,0,0-8.47-12.72,5,5,0,0,0-2.21-1.28c-1.69-.33-3.32,1.08-3.86,2.71a6.9,6.9,0,0,0,.77,5.57,14.73,14.73,0,0,0,3.95,4.19,34.11,34.11,0,0,0,9.37,5"/><path class="cls-1" d="M239.74,533.62c-.81-6-3.91-10.9-7.5-15.71-.76-1-1.81-2.1-3.06-1.91a2.46,2.46,0,0,0-1.76,1.51,5.64,5.64,0,0,0-.33,2.38A18.36,18.36,0,0,0,239,536.31"/><path class="cls-1" d="M242.1,524.18a48.84,48.84,0,0,1-.31-9.2,16.49,16.49,0,0,1,3.05-8.57A7.14,7.14,0,0,1,247.9,504a3.86,3.86,0,0,1,3.75.5,4.11,4.11,0,0,1,1.29,3.3,10.4,10.4,0,0,1-.95,3.53c-2.25,5.39-6,11.37-9.89,12.88"/><path class="cls-1" d="M205.42,531.27a3.39,3.39,0,0,1,.05.75c0,.55,0,1.27,0,2.16s0,2.09.06,3.42,0,2.84.16,4.52c.14,3.34.47,7.32,1,11.72S208,563,209,568.05s2.31,9.7,3.57,14,2.61,8,3.82,11.13c.57,1.57,1.17,3,1.66,4.2s1,2.29,1.33,3.15l.84,2a3.42,3.42,0,0,1,.26.71,4.58,4.58,0,0,1-.36-.66l-.94-2c-.41-.84-.9-1.88-1.41-3.11s-1.15-2.61-1.75-4.18c-1.26-3.12-2.6-6.89-3.94-11.12s-2.56-9-3.63-14-1.77-9.85-2.29-14.26-.77-8.41-.86-11.77c-.09-1.67-.07-3.19-.09-4.53s0-2.48.05-3.42.06-1.61.08-2.16A3.7,3.7,0,0,1,205.42,531.27Z"/><path class="cls-1" d="M206.74,555.66a12.53,12.53,0,0,1,3-7.9,3,3,0,0,1,2.49-1.33c1.3.19,1.89,1.74,1.93,3.05a9.2,9.2,0,0,1-2.07,6.12,7.8,7.8,0,0,1-5,3.11"/><path class="cls-1" d="M209.6,571.51c-.16-3.41.93-8.67,2.92-11.44a4,4,0,0,1,1.13-1.15,1.66,1.66,0,0,1,1.54-.14,2.33,2.33,0,0,1,1,2,13.29,13.29,0,0,1-6.4,12.43"/><path class="cls-1" d="M213.3,585.09a19.37,19.37,0,0,1,3.61-9.44,3,3,0,0,1,1.86-1.41c1.2-.15,2.16,1.08,2.42,2.26.54,2.44-.67,4.91-2.07,7a25.06,25.06,0,0,1-4.65,4.61"/><path class="cls-1" d="M216.65,594.63a18.64,18.64,0,0,1,3.26-7.42,3.79,3.79,0,0,1,1.32-1.17,1.63,1.63,0,0,1,1.68.09c.75.59.58,1.76.26,2.66a15.23,15.23,0,0,1-5.59,7.64"/><path class="cls-1" d="M215.16,590.79a59.39,59.39,0,0,0-9.65-5.12,1.73,1.73,0,0,0-1.63-.09,1.13,1.13,0,0,0-.35,1.19,2.76,2.76,0,0,0,.66,1.13,14.81,14.81,0,0,0,11.89,4.93"/><path class="cls-1" d="M211.43,578.18l-8-5.18a7.19,7.19,0,0,0-2.41-1.17,2.18,2.18,0,0,0-2.51,3.3,6.42,6.42,0,0,0,1.84,1.94,17.74,17.74,0,0,0,5.58,3.11c2.05.63,3.82.9,5.74,0"/><path class="cls-1" d="M207.76,563.81a20.9,20.9,0,0,0-8.51-6.84,3.47,3.47,0,0,0-1.78-.4,2.64,2.64,0,0,0-2,2.68,4.94,4.94,0,0,0,1.72,3.63,10.58,10.58,0,0,0,3.6,2,24.07,24.07,0,0,0,7.46,1.43"/><path class="cls-1" d="M206.07,550.49c-1.84-3.87-5-6.58-8.49-9.08a2.57,2.57,0,0,0-2.5-.64,1.78,1.78,0,0,0-.87,1.41,4.13,4.13,0,0,0,.29,1.69,13.11,13.11,0,0,0,11.65,8.61"/><path class="cls-1" d="M205.64,543.56a35.43,35.43,0,0,1-2.19-6.2,11.64,11.64,0,0,1,.24-6.49,5.07,5.07,0,0,1,1.55-2.32,2.77,2.77,0,0,1,2.66-.47,2.91,2.91,0,0,1,1.59,2,7.38,7.38,0,0,1,.11,2.61c-.36,4.16-1.63,9-4,10.9"/><path class="cls-1" d="M265.22,530.75a4.07,4.07,0,0,1,.07.75c0,.55,0,1.27.08,2.16s.06,2.09,0,3.42,0,2.86-.08,4.53c-.1,3.36-.38,7.35-.87,11.77s-1.25,9.24-2.29,14.26-2.33,9.74-3.63,14-2.68,8-3.94,11.12c-.59,1.57-1.22,3-1.74,4.18s-1,2.27-1.42,3.12L250.5,602a3.6,3.6,0,0,1-.36.66,3.42,3.42,0,0,1,.26-.71c.22-.5.5-1.16.85-2s.83-1.91,1.32-3.15,1.1-2.63,1.67-4.2c1.21-3.13,2.51-6.9,3.81-11.13s2.51-9,3.58-14,1.78-9.82,2.33-14.21.83-8.38,1-11.72c.12-1.67.12-3.19.17-4.52s0-2.48,0-3.42,0-1.61,0-2.16A4,4,0,0,1,265.22,530.75Z"/><path class="cls-1" d="M263.9,555.14a12.54,12.54,0,0,0-3-7.9,3,3,0,0,0-2.5-1.33c-1.29.19-1.88,1.74-1.93,3.05a9.25,9.25,0,0,0,2.07,6.12,7.79,7.79,0,0,0,5,3.11"/><path class="cls-1" d="M261,571c.17-3.41-.93-8.67-2.92-11.44a3.81,3.81,0,0,0-1.12-1.14,1.65,1.65,0,0,0-1.55-.15,2.34,2.34,0,0,0-1,2,13.28,13.28,0,0,0,6.41,12.42"/><path class="cls-1" d="M257.34,584.57a19.18,19.18,0,0,0-3.61-9.44,3,3,0,0,0-1.85-1.41c-1.21-.15-2.16,1.08-2.43,2.26-.54,2.44.67,4.91,2.07,7a25.38,25.38,0,0,0,4.65,4.61"/><path class="cls-1" d="M254,594.11a18.52,18.52,0,0,0-3.27-7.42,3.85,3.85,0,0,0-1.31-1.17,1.65,1.65,0,0,0-1.69.09c-.75.59-.58,1.76-.26,2.66a15.18,15.18,0,0,0,5.59,7.64"/><path class="cls-1" d="M255.49,590.27a60.09,60.09,0,0,1,9.64-5.12,1.73,1.73,0,0,1,1.63-.09,1.14,1.14,0,0,1,.36,1.19,3,3,0,0,1-.66,1.13,14.85,14.85,0,0,1-11.9,4.93"/><path class="cls-1" d="M259.22,577.66l7.94-5.18a7.15,7.15,0,0,1,2.42-1.17,2.46,2.46,0,0,1,2.45.74,2.43,2.43,0,0,1,.06,2.56,6.57,6.57,0,0,1-1.85,1.94,17.86,17.86,0,0,1-5.58,3.12c-2.05.62-3.81.89-5.74,0"/><path class="cls-1" d="M262.88,563.29a21,21,0,0,1,8.51-6.84,3.6,3.6,0,0,1,1.78-.4,2.66,2.66,0,0,1,2.05,2.68,5,5,0,0,1-1.73,3.63,10.28,10.28,0,0,1-3.59,2,24.07,24.07,0,0,1-7.47,1.43"/><path class="cls-1" d="M264.57,550c1.84-3.87,5-6.58,8.49-9.08.74-.53,1.69-1,2.5-.64a1.73,1.73,0,0,1,.87,1.41,4.09,4.09,0,0,1-.28,1.69A13.13,13.13,0,0,1,264.49,552"/><path class="cls-1" d="M265,543a34.36,34.36,0,0,0,2.19-6.2,11.73,11.73,0,0,0-.23-6.49A5.09,5.09,0,0,0,265.4,528a2.8,2.8,0,0,0-2.66-.47,2.92,2.92,0,0,0-1.58,2,7.32,7.32,0,0,0-.12,2.6c.37,4.16,1.63,9,4,10.9"/><path class="cls-1" d="M195.31,602.65v10a4,4,0,0,0,3.94,4h68.49a4,4,0,0,0,3.95-4v-10Z"/><g class="cls-20"><polygon class="cls-1" points="201.25 616.61 201.82 619.79 265.02 624.3 266.62 616.61 201.25 616.61"/></g><path class="cls-1" d="M752.63,629.7a2,2,0,0,1,.15-.36l.49-1.05a25.55,25.55,0,0,0,1.44-4.18,36.91,36.91,0,0,0-.12-16.15,87.58,87.58,0,0,0-3-10.85c-1.27-3.85-2.74-7.93-3.94-12.35a47.84,47.84,0,0,1-1.95-14.2c.18-5,1.67-10,3.31-15s3.32-9.89,3.82-14.8a22.61,22.61,0,0,0-2.71-13.67c-2.17-4-4.89-7.4-6.93-10.93A38,38,0,0,1,739,505.62a38.91,38.91,0,0,1-.26-16.28,30.23,30.23,0,0,1,1.69-5.75,1.64,1.64,0,0,1-.1.38c-.08.27-.2.63-.34,1.1a42.65,42.65,0,0,0-1.06,4.3,39.77,39.77,0,0,0,.43,16.16,37.68,37.68,0,0,0,4.17,10.38c2,3.49,4.77,6.89,7,10.92a23.05,23.05,0,0,1,2.8,13.95c-.51,5-2.21,9.92-3.84,14.91s-3.11,9.95-3.29,14.89a47.5,47.5,0,0,0,1.9,14.06c1.18,4.39,2.64,8.48,3.89,12.34a86.72,86.72,0,0,1,3,10.91,36.54,36.54,0,0,1,0,16.27,25.18,25.18,0,0,1-1.54,4.18l-.54,1A2.11,2.11,0,0,1,752.63,629.7Z"/><path class="cls-1" d="M746,519.61s-4.14-13.23,3.29-21a.45.45,0,0,1,.78.23C750.43,501,750.92,507.7,746,519.61Z"/><path class="cls-1" d="M748.44,503a12.37,12.37,0,0,1-.28,2.44l-.94,5.84c-.35,2.18-.66,4.15-.93,5.84a13,13,0,0,1-.44,2.41,10.56,10.56,0,0,1,.08-2.46c.13-1.51.4-3.59.78-5.87s.77-4.34,1.09-5.83A10.82,10.82,0,0,1,748.44,503Z"/><path class="cls-1" d="M750.82,550.83s2.53-13.63,12.72-17a.46.46,0,0,1,.59.57C763.46,536.5,760.78,542.62,750.82,550.83Z"/><path class="cls-1" d="M760.77,537.34a13.6,13.6,0,0,1-1.39,2c-1,1.36-2.24,3-3.57,4.72l-3.55,4.72a13.74,13.74,0,0,1-1.51,1.93A10.53,10.53,0,0,1,752,548.6c.83-1.27,2-3,3.44-4.83s2.71-3.47,3.69-4.63A10.45,10.45,0,0,1,760.77,537.34Z"/><path class="cls-1" d="M748.07,585s-1.54-13.78,7.23-20a.46.46,0,0,1,.73.38C756,567.66,755.22,574.29,748.07,585Z"/><path class="cls-1" d="M753.67,569.24a13.07,13.07,0,0,1-.74,2.34l-2,5.55c-.76,2.08-1.44,4-2,5.55A13.79,13.79,0,0,1,748,585a10.49,10.49,0,0,1,.54-2.4c.43-1.46,1.09-3.45,1.89-5.62s1.58-4.11,2.19-5.5A10.49,10.49,0,0,1,753.67,569.24Z"/><path class="cls-1" d="M755.74,619.44s-1-13.83,7.94-19.7a.46.46,0,0,1,.72.4C764.29,602.36,763.27,609,755.74,619.44Z"/><path class="cls-1" d="M761.9,603.85a11.9,11.9,0,0,1-.82,2.32c-.65,1.58-1.4,3.43-2.24,5.47l-2.22,5.48a13.59,13.59,0,0,1-1,2.25,9.61,9.61,0,0,1,.63-2.38c.47-1.44,1.2-3.4,2.08-5.55s1.73-4.05,2.38-5.42A11.42,11.42,0,0,1,761.9,603.85Z"/><path class="cls-1" d="M740,508s-12.29-6.42-12.53-17.15a.46.46,0,0,1,.72-.4C730,491.7,735.09,496.06,740,508Z"/><path class="cls-1" d="M730,494.52a11.55,11.55,0,0,1,1.53,1.93l3.47,4.79,3.48,4.78a14.65,14.65,0,0,1,1.4,2,9.47,9.47,0,0,1-1.69-1.79c-1-1.16-2.26-2.82-3.61-4.7s-2.53-3.61-3.35-4.89A10.87,10.87,0,0,1,730,494.52Z"/><path class="cls-1" d="M753.21,536.41s-12.66-5.66-13.55-16.36a.45.45,0,0,1,.69-.43C742.25,520.76,747.57,524.8,753.21,536.41Z"/><path class="cls-1" d="M742.43,523.58a11.49,11.49,0,0,1,1.65,1.82l3.75,4.58,3.76,4.56a13.54,13.54,0,0,1,1.52,1.92,10.08,10.08,0,0,1-1.8-1.68c-1-1.11-2.42-2.68-3.88-4.48s-2.75-3.45-3.64-4.67A10.8,10.8,0,0,1,742.43,523.58Z"/><path class="cls-1" d="M745.93,568.12s-8.69-10.81-4.62-20.74a.46.46,0,0,1,.82-.07C743.3,549.2,746.19,555.21,745.93,568.12Z"/><path class="cls-1" d="M742.17,551.78a11,11,0,0,1,.64,2.38c.36,1.66.78,3.62,1.25,5.78s.91,4.1,1.28,5.77a13.66,13.66,0,0,1,.47,2.41,10.64,10.64,0,0,1-.83-2.32c-.42-1.46-.94-3.49-1.42-5.76s-.87-4.32-1.11-5.81A11.54,11.54,0,0,1,742.17,551.78Z"/><path class="cls-1" d="M754.54,605.43s-12.57-5.88-13.28-16.59a.46.46,0,0,1,.7-.42C743.84,589.6,749.09,593.72,754.54,605.43Z"/><path class="cls-1" d="M744,592.41a12.36,12.36,0,0,1,1.62,1.86l3.67,4.63,3.69,4.62a12.15,12.15,0,0,1,1.48,2,10.56,10.56,0,0,1-1.76-1.72c-1-1.12-2.38-2.72-3.82-4.54s-2.68-3.49-3.55-4.73A11.33,11.33,0,0,1,744,592.41Z"/><path class="cls-1" d="M779.56,550.9a1.15,1.15,0,0,1,0,.31c0,.24,0,.53,0,.89q0,1.24-.15,3.36c-.16,2.95-.38,7.08-.65,12h0c-.89,5-3.45,10.58-6.88,16-2.52,4-5.16,7.6-7.44,11a78,78,0,0,0-5.57,9.22,38.49,38.49,0,0,0-2.61,6.76c-.22.82-.38,1.47-.48,1.91a4.51,4.51,0,0,1-.18.67,3.25,3.25,0,0,1,.08-.69c.06-.45.2-1.1.39-1.94a35,35,0,0,1,2.47-6.87,72.62,72.62,0,0,1,5.51-9.32c2.26-3.39,4.88-7,7.39-11,3.41-5.38,6-10.85,6.89-15.79v0c.35-4.93.64-9,.85-12,.11-1.4.2-2.52.27-3.35,0-.35.06-.64.09-.88A1.16,1.16,0,0,1,779.56,550.9Z"/><path class="cls-1" d="M772.08,582.44s5.32-12.8-1.37-21.19a.46.46,0,0,0-.81.15C769.31,563.54,768.21,570.13,772.08,582.44Z"/><path class="cls-1" d="M771.11,565.71a11.36,11.36,0,0,1,.42,2.42c.19,1.51.4,3.59.57,5.9s.24,4.41.24,5.92a9.87,9.87,0,0,1-.15,2.46A12.77,12.77,0,0,1,772,580c-.11-1.69-.24-3.69-.39-5.89s-.29-4.2-.41-5.9A12,12,0,0,1,771.11,565.71Z"/><g class="cls-21"><path class="cls-1" d="M772.08,582.44s5.32-12.8-1.37-21.19a.46.46,0,0,0-.81.15C769.31,563.54,768.21,570.13,772.08,582.44Z"/></g><path class="cls-1" d="M755.6,613.3s4.27-13.19-3.09-21a.45.45,0,0,0-.78.22C751.31,594.69,750.75,601.34,755.6,613.3Z"/><path class="cls-1" d="M753.28,596.71a10.7,10.7,0,0,1,.62,2.38c.31,1.48.68,3.54,1,5.83s.6,4.37.72,5.88a10,10,0,0,1,.05,2.46,13.19,13.19,0,0,1-.42-2.42c-.25-1.68-.54-3.66-.87-5.84s-.63-4.17-.89-5.85A12.49,12.49,0,0,1,753.28,596.71Z"/><g class="cls-21"><path class="cls-1" d="M755.6,613.3s4.27-13.19-3.09-21a.45.45,0,0,0-.78.22C751.31,594.69,750.75,601.34,755.6,613.3Z"/></g><path class="cls-1" d="M778.85,566.79s11.37-7.95,10.22-18.62a.46.46,0,0,0-.76-.3C786.66,549.36,782.2,554.33,778.85,566.79Z"/><g class="cls-21"><path class="cls-1" d="M778.85,566.79s11.37-7.95,10.22-18.62a.46.46,0,0,0-.76-.3C786.66,549.36,782.2,554.33,778.85,566.79Z"/></g><path class="cls-1" d="M787,552.15a10.42,10.42,0,0,1-.94,2.27c-.65,1.37-1.59,3.25-2.69,5.28s-2.15,3.85-3,5.13a10.56,10.56,0,0,1-1.44,2,12.92,12.92,0,0,1,1.12-2.18l2.84-5.18,2.81-5.2A12.56,12.56,0,0,1,787,552.15Z"/><path class="cls-1" d="M760.18,600.22s13.7-2.14,17.37-12.22a.46.46,0,0,0-.55-.61C774.87,588,768.68,590.5,760.18,600.22Z"/><g class="cls-21"><path class="cls-1" d="M760.18,600.22s13.7-2.14,17.37-12.22a.46.46,0,0,0-.55-.61C774.87,588,768.68,590.5,760.18,600.22Z"/></g><path class="cls-1" d="M774,590.67a10.41,10.41,0,0,1-1.84,1.62c-1.19,1-2.86,2.22-4.74,3.56s-3.63,2.5-4.93,3.3a10.75,10.75,0,0,1-2.17,1.15,12.46,12.46,0,0,1,2-1.46l4.83-3.41,4.82-3.43A12.12,12.12,0,0,1,774,590.67Z"/><polygon class="cls-1" points="747.11 625.44 743.11 652.34 768.02 652.34 764.79 625.44 747.11 625.44"/><path class="cls-1" d="M765.79,633.77a194.17,194.17,0,0,1-20.09,0,194.17,194.17,0,0,1,20.09,0Z"/><path class="cls-1" d="M766.28,635.91a206.93,206.93,0,0,1-20.74,0c0-.14,4.64-.26,10.37-.26S766.28,635.77,766.28,635.91Z"/></svg>