<svg id="bc8342d7-c045-4455-a729-49c03b046d11" data-name="Layer 1" xmlns="http://www.w3.org/2000/svg" xmlns:xlink="http://www.w3.org/1999/xlink" viewBox="0 0 1980 780"><defs><linearGradient id="b3d2e0f8-2e69-4651-9325-5ba918a88d03" x1="816.55" y1="389.04" x2="1766.85" y2="389.04" gradientUnits="userSpaceOnUse"><stop offset="0" stop-color="#4aa8b0"/><stop offset="1" stop-color="#b7e4f5"/></linearGradient><linearGradient id="a5b46011-7ead-4408-b399-7f2119442fec" x1="-1.44" y1="212.64" x2="701.02" y2="212.64" xlink:href="#b3d2e0f8-2e69-4651-9325-5ba918a88d03"/></defs><title>about us banner</title><rect x="-1.44" y="-0.96" width="1980" height="780" fill="#e1e2e2"/><path d="M1766.79,284.85q-.06,3.91-.17,7.93A761.41,761.41,0,0,1,1757,394.44q-2,12.19-4.51,24.35c-9.44,45.83-24.29,90.28-46.71,123.84q-2.14,3.23-4.31,6.4-17.17,25.4-34.41,48.17l-1.7,2.25c-1.52,2-3,4-4.55,5.93q-10.21,13.27-20.47,25.68c-27.71,33.58-55.4,62.41-82.91,87a581.82,581.82,0,0,1-80.74,61H1030.07a593,593,0,0,1-79.79-55.33c-21.59-17.78-33.45-30.25-33.45-30.25-10-13.74-19.69-28-28.79-42.71h0c-75.82-122.33-113.2-273.83.5-387.39,32-31.91,72.08-51.15,111.64-71.45,8.79-4.51,17.55-9.07,26.18-13.84a380.11,380.11,0,0,0,40-25q6-4.34,11.78-9c26-21.24,49.27-46.45,70.4-73.18,7.31-9.24,14.36-18.66,21.19-28.16,10.43-14.49,20.34-29.16,29.84-43.66h451.5a385.45,385.45,0,0,1,100.13,168,396.93,396.93,0,0,1,15.11,90.26Q1767,271,1766.79,284.85Z" fill="url(#b3d2e0f8-2e69-4651-9325-5ba918a88d03)"/><path d="M701-1c-9.43,46.32-24.37,91.34-47,125.26C405.66,496.08,149.19,450.76-1.44,371.88V-1Z" opacity="0.43" fill="url(#a5b46011-7ead-4408-b399-7f2119442fec)"/><g opacity="0.15"><circle cx="1817.93" cy="190.53" r="51.08" fill="#192f35"/><path d="M1798.22,252.23l19.71,38.52,28-38.52s49.21-18.11,46.22,48l.13,6.61v82.53s-86.07,36.46-144.5,0C1747.79,389.36,1731.11,226.11,1798.22,252.23Z" fill="#192f35"/></g><g opacity="0.15"><ellipse cx="1547.59" cy="353.75" rx="16.62" ry="16.11" fill="#192f35"/><path d="M1541.18,373.2l6.41,12.15,9.12-12.15s16-5.71,15,15.14l0,2.08v26s-28,11.5-47,0C1524.77,416.45,1519.34,365,1541.18,373.2Z" fill="#192f35"/></g><g opacity="0.17"><circle cx="1925.79" cy="120.61" r="28.95" fill="#192f35"/><path d="M1914.62,155.58l11.17,21.83,15.87-21.83s27.9-10.27,26.21,27.2l.07,3.75v46.78s-48.79,20.66-81.91,0C1886,233.31,1876.58,140.77,1914.62,155.58Z" fill="#192f35"/></g><g opacity="0.17"><circle cx="1547.98" cy="78.15" r="18.35" fill="#192f35"/><path d="M1540.9,100.31l7.08,13.84L1558,100.31s17.68-6.5,16.61,17.24l0,2.38v29.65s-30.92,13.09-51.91,0C1522.78,149.58,1516.79,90.93,1540.9,100.31Z" fill="#192f35"/></g><g opacity="0.51"><path d="M870.51,313.36c-59.2,77.49,53.88,112.88,53.88,112.88Z" fill="#aec744"/><path d="M871.87,314.8c100.4,4.87,58.12,111,58.12,111Z" fill="#dc4d65"/><path d="M863.29,439.3c-59.19,77.5,53.89,112.89,53.89,112.89Z" fill="#aec744"/><path d="M864.65,440.75c100.41,4.87,58.12,111,58.12,111Z" fill="#dc4d65"/><path d="M1023.18,397.93c-91.15-25.21-81.12,92.82-81.12,92.82Z" fill="#aec744"/><path d="M1022.38,399.73c32.66,94.69-77.83,96-77.83,96Z" fill="#dc4d65"/><polygon points="864.65 552.18 1028.42 551.71 985.08 723.71 905.35 723.71 864.65 552.18" fill="#192f35"/><path d="M924.39,426.24c4.83,21.09,14,41.77,13.42,63.77-.52,21.2-9.6,41.47-15,61.7" fill="none" stroke="#192f35" stroke-miterlimit="10" stroke-width="2"/></g><line x1="1108.32" y1="227.55" x2="1573.61" y2="227.55" fill="none" stroke="#4aa8b0" stroke-miterlimit="10" stroke-width="2"/><line x1="1108.32" y1="329.75" x2="1573.61" y2="329.75" fill="none" stroke="#4aa8b0" stroke-miterlimit="10" stroke-width="2"/><line x1="1108.32" y1="278.65" x2="1573.61" y2="278.65" fill="none" stroke="#4aa8b0" stroke-miterlimit="10" stroke-width="2"/><line x1="1108.32" y1="431.95" x2="1573.61" y2="431.95" fill="none" stroke="#4aa8b0" stroke-miterlimit="10" stroke-width="2"/><line x1="1108.32" y1="178.99" x2="1573.61" y2="178.99" fill="none" stroke="#4aa8b0" stroke-miterlimit="10" stroke-width="2"/><polygon points="1026.35 41.13 1026.35 718.07 1665.43 718.07 1665.24 48.13 1026.35 41.13" fill="none" stroke="#192f35" stroke-miterlimit="10"/><rect x="1247.67" y="511.67" width="215.74" height="52.38" fill="#4aa8b0"/><polygon points="937.28 62.12 937.28 153.08 1148.55 153.08 1148.55 64.26 937.28 62.12" fill="#4aa8b0"/><polygon points="1602.13 76.11 1602.13 167.07 1813.4 167.07 1813.4 75.82 1602.13 76.11" fill="#f0b943"/><path d="M1044.39,697c2,5.73,3.39,12.35,3.07,18.41-.3,5.69-4,12.83.2,17.77,7.77,9.23,62.94,20.24,52.53-4.36-3-7-26.43-36.13-35-34.87Z" fill="#f8f8f8"/><path d="M1010.41,640.55c-3.31,0-7.88-.88-11,0-9.21,2.61-7.44,21.29-7.26,28.15.22,7.81-.91,17.26,3,24.41,3,5.53,11.15,13.64,18,13.5s16.89-6.66,15.72-14.39c-.91-6-10.53-13.24-14.47-17.77Z" fill="#f8f8f8"/><path d="M1016.54,467.54l7.24,176.65,1.32,32.36c.14,3.36-.31,7.43.44,10.71,0,11.26,35,12.37,39.65,6.72s-1.52-36-1.87-42.92c-1.29-25.82.31-53.71-4-79.23,2.14,12.82,1.68,25.92,3.33,38.8.74,5.8-5.16,24.3.2,27.7,7.55,4.8,27.69-21.76,32.71-27.38,6.12-6.83,14-12.3,15.4-22,.65-4.52,0-9.64,0-14.2V453.64h-80.53Z" fill="#192f35"/><path d="M1075.69,287.1c2.2-6.26-3.36-14.83-3.79-21.3-.58-8.65-.36-17.91-5.08-25.17a25.94,25.94,0,0,0-10.64-9,33.47,33.47,0,0,0-46.41,40.26c1.8,5.67,5.15,11.36,3.83,17.16-2.24,9.86-15,11.85-25,13.58-58.92,10.27-100.51,96.66-43.55,136.87,24.22,17.09,61.26,13.37,80.52-9.15,10.7-12.5,15.52-31.06,8.34-45.86-2.38-4.92-6-9.31-7.38-14.6-1.15-4.35-.69-9,0-13.41,2.25-15.69,6.84-31.39,16.09-44.26,7-9.75,17.48-14.75,28-19.89A9.43,9.43,0,0,0,1075.69,287.1Z" fill="#192f35"/><path d="M1035.59,294.91a29.75,29.75,0,0,0-3.45,1.16c-37.67,15.32-46.39,71-55.82,104.57-7,25-15.5,52.16-14.12,78.39h21.88l18.53-45.83c7-17.27,12.37-41.14,23.3-56,22,21.81-.15,53.82-13.82,71.21,0,0-14.33,18.24,23.47,26.19,21.65,4.55,63.63,1.95,81.25-11.93,6.34-5-8-49.6-9.07-58.25-2.15-17.08-4.53-37.69.59-54.39,6.9-22.46,32.41-5.56,48.19-.53,0,0,20.13,8.75,30.63-20.13l7.88-70.9h-14c-2.43,9.71-9.55,60.3-17.49,61.93-2.22.45-11-6.34-13.11-7.44a218.39,218.39,0,0,0-23.54-10.67c-17.63-6.71-37.17-11.64-56.11-8.81C1059.62,295.12,1047.15,291.72,1035.59,294.91Z" fill="#f0b943"/><path d="M1034.49,259.65c1-2.36-.09-3.39,1.1-7.15,3.33-10.45,10.59-10.16,20.72-6.3,11.54,4.42,9,18.77,5.57,27.88-1.62,4.3-5.27,8-3.68,11.85,3.23,7.77,20.22,5.26,8.51,16.23-10.25,9.59-23.31.77-31.15-7.39V280.33c0-.83-7.68-4.71-8.5-6.32-4-7.84,2.92-7.54,6.16-12.14A11.76,11.76,0,0,0,1034.49,259.65Z" fill="#dc4d65"/><path d="M1023.14,628.66c.08,2.15-11,10.24-12.73,11.89-6.44,6-7.14,21-6.73,29.2.82,16.49,7.12,15.07,21.42,11.48Z" fill="#192f35"/><path d="M966.14,479c0,5.27-12.43,18.84-16.56,22-3.58,2.78-10.62,4.3-12.05,9.07C934,522,962.78,524,966.12,518c5.38-9.6,17.5-27.46,15.14-38.77C981.1,478.5,967.58,478.83,966.14,479Z" fill="#dc4d65"/><path d="M1184.09,258.45l7.43-21c2.42-6.82,27-27.19,34.56-23.55,3.92,1.89,3.29,8.1,2.94,11.62-1,9.87-11,12.6-17.36,18.21L1195,258.45Z" fill="#dc4d65"/><path d="M1631.21,329.46,1602.53,442.2c-1.24,4.88-2.71,10.13-6.68,13.24-5.9,4.63-15.85,3.28-19.87,9.62-3,4.74-.41,11.5,4.31,14.55,28.32,18.28,46.17-51.43,52.17-68.28l20.55-57.7a9.13,9.13,0,0,0,.78-5c-.46-2.05-2.24-3.5-3.9-4.78Z" fill="#f0b943"/><path d="M1675.67,252.67c-11.06-12.58,1.59-26.57,15.31-28.24,14.11-1.72,31.18,10.16,35.46,23.61,3,9.45-2.06,19.84,3.72,28.65,7.79,11.9,28.87,8.46,40.13,18.82,8.54,7.87,10.92,18.84,8.62,29.94-2.12,10.27-10.54,18.89-8,29.93,1.68,7.21,6.55,10.64,12.15,14.68,24,17.34-14.28,52.47-34.94,48.43-18.16-3.55-31.87-11.27-35.3-30.69-4.56-25.89-6.83-52.24-10.17-78.3-1-7.6,1-24.92-4.12-30.8Z" fill="#192f35"/><path d="M1717.63,357.76l8.76,31.42c1.25,4.51,4.25,10.6,4.28,15.3.06,8.94-3.61,20.81-8.42,28.29-3.84,6-4.48,5.12-11,6.16-2.19.35-20.09,2-19.8,5.47.57,7,8.24,11.16,15.19,12.12,15.17,2.1,25.64-6.19,32.9-18.72,7.41-12.79,11.48-26.35,10.23-41.2-1-12.29-1-31.81-8.19-42.06-4.3-6.11-5.24-4.41-12.15-1.67C1728.69,353.18,1717.57,357.54,1717.63,357.76Z" fill="#f0b943"/><path d="M1622.71,452.8c2.71,4.49-.43,18.07-.69,23-.87,16.85-2,33.69-3,50.52q-1.58,24.57-3.27,49.14c-2.69,39.46,38.41,67.32,63.34,94.08L1702.69,647l-38-53.2-2.55-121.6Z" fill="#192f35"/><polygon points="1707.06 482.64 1694.3 635.28 1630.91 578.62 1658.35 457.87 1707.06 482.64" fill="#192f35" stroke="#192f35" stroke-miterlimit="10"/><path d="M1678.92,292.9a29.41,29.41,0,0,0-6.8.38,75.69,75.69,0,0,0-18.8,6.48c-6.87,3.33-13.73,7.69-18.28,14-11.07,15.29-5.47,24.22,10.84,29.93,10,4-8.1,47.8-10.07,54-4.52,14.23-24.43,56.76-4.16,65.36,6.13,2.6,81.24,25,84.67,18.46,8.42-16.05.72-44.94.72-62.41,0-19-3.89-43.05.59-61.28,7.72,1.44,25.5,3.43,26.78-8.14.87-7.91,1.56-17,.62-25C1740.67,287.93,1706.16,294.32,1678.92,292.9Z" fill="#dc4d65"/><path d="M1686.14,239.66c-9,2.29-10.47,18.65-10.47,27.36,5.24,4.81,17.11,14.27,7.76,21.92-1.39,1.13-3.24,1.66-4.47,3-1.92,2.07-1.59,5.53.08,7.8s4.33,3.59,7,4.55c3.69,1.34,8,2.14,11.4.23s5-6,5.15-9.91c.15-6-4.78-10.33-4-15.88.84-6.18,7.8-9.94,8.43-16.46.82-8.51-5.28-18.13-13-21.51C1690.89,239.37,1688.3,239.11,1686.14,239.66Z" fill="#f0b943"/><path d="M1684.33,664.48a51.86,51.86,0,0,1,14.57,41.85c-.45,3.94-1.36,7.85-1.23,11.81s1.48,8.14,4.66,10.5c4,2.93,9.43,2.3,14.29,1.52,3.55-.56,7.2-1.16,10.22-3.11,7.64-5,4.25-19.94,4.25-27.57,0-8.74,4.75-25.22.64-33.17-4-7.78-21.49-14.59-29-19.29Z" fill="#f0b943"/><path d="M1658.47,647.43c-.52,3.91-1,7.82-1.77,11.69a111.05,111.05,0,0,1-15,38.26c-4.09,6.54-25,23.5-16.88,31.37,2.26,2.21,5.51,3,8.6,3.64,13.47,2.69,28.9,2.92,39.29-6.06,6.28-5.44,9.74-13.57,11.07-21.77s.73-16.58.1-24.87a17.27,17.27,0,0,0-.8-4.69,17.58,17.58,0,0,0-4.07-5.72Z" fill="#f0b943"/><polygon points="1030.38 78.92 1063.91 108.14 1030.38 136.28 1030.38 78.92" fill="#192f35"/><path d="M1797.58,465.11C1761,513,1830.9,534.92,1830.9,534.92Z" fill="#aec744"/><path d="M1798.42,466c62.09,3,35.94,68.62,35.94,68.62Z" fill="#dc4d65"/><path d="M1793.11,543c-36.6,47.93,33.33,69.81,33.33,69.81Z" fill="#aec744"/><path d="M1794,543.9c62.1,3,36,68.62,36,68.62Z" fill="#dc4d65"/><path d="M1892,517.41c-56.36-15.58-50.16,57.41-50.16,57.41Z" fill="#aec744"/><path d="M1891.5,518.53c20.2,58.56-48.13,59.38-48.13,59.38Z" fill="#dc4d65"/><polygon points="1793.95 612.81 1895.23 612.52 1868.43 718.89 1819.12 718.89 1793.95 612.81" fill="#192f35"/><path d="M1830.9,534.92c3,13.05,8.64,25.84,8.3,39.44-.32,13.11-5.94,25.65-9.3,38.16" fill="none" stroke="#192f35" stroke-miterlimit="10" stroke-width="2"/><path d="M143.84,346.69l28.77,72.12h-9l-5.43-13.58H120.46L115,418.81h-9l28.77-72.12Zm-20.11,50.24h31.18L139.32,357.4Z" fill="#192f35"/><path d="M220.34,380.79c7.64,2.51,13.68,9,13.68,17.85,0,11.52-8.9,20.17-20.37,20.17H181.56V346.74H207c11.07,0,20.32,8.35,20.32,20.17A17.79,17.79,0,0,1,220.34,380.79Zm-29.82-25.85v23.69h16.54c6-.21,11.87-4.93,11.87-11.87,0-6.49-5.53-11.82-12.42-11.82Zm22.18,55.62c6.28,0,12.47-4.83,12.47-12.07a12.25,12.25,0,0,0-12.42-12.07H190.52v24.14Z" fill="#192f35"/><path d="M278.23,346.69c21.67,0,36.56,17,36.56,36.06,0,21.37-17.25,36.06-36.56,36.06a36.07,36.07,0,0,1-36.52-36.06C241.71,361.78,258.76,346.69,278.23,346.69Zm0,63.87c15.59,0,27.26-12.37,27.26-27.81S293.62,355,278.23,355C262.69,355,251,367.31,251,382.75,251,397.74,262.49,410.56,278.23,410.56Z" fill="#192f35"/><path d="M380.47,346.69v43.1c0,15.94-11.56,29-28.16,29-15.94,0-28.12-12.62-28.12-29v-43.1h9v42.75c0,10.71,7.29,21,19.11,21,11.21,0,19.11-9.55,19.11-21V346.69Z" fill="#192f35"/><path d="M450.68,346.69v8.4H423.93v63.72h-9V355.09h-26.7v-8.4Z" fill="#192f35"/><path d="M540.2,346.69v43.1c0,15.94-11.56,29-28.16,29-15.94,0-28.11-12.62-28.11-29v-43.1h9v42.75c0,10.71,7.29,21,19.11,21,11.21,0,19.11-9.55,19.11-21V346.69Z" fill="#192f35"/><path d="M554.84,400c8.2,7.49,17.25,10.51,24.94,10.51,10.77.05,18.91-5.43,18.91-12.87,0-17.81-48.33-4.13-48.33-30.23,0-13.83,11.47-20.67,25.5-20.72a46.16,46.16,0,0,1,26.51,8.65l-5.18,6.44A37.37,37.37,0,0,0,576,354.89c-9.35,0-16.65,3.77-16.65,11.92,0,18.1,48.29,3.62,48.29,30.78,0,12.27-12.07,21.22-27.62,21.22-9.6-.05-20.51-3.72-30.72-12.62Z" fill="#192f35"/></svg>