<?xml version="1.0" encoding="utf-8"?>
<!-- Generator: Adobe Illustrator 19.0.0, SVG Export Plug-In . SVG Version: 6.00 Build 0)  -->
<svg version="1.1" id="Layer_1" xmlns="http://www.w3.org/2000/svg" xmlns:xlink="http://www.w3.org/1999/xlink" x="0px" y="0px"
	 viewBox="0 0 960 560" style="enable-background:new 0 0 960 560;" xml:space="preserve">
<style type="text/css">
	.st0{fill:#DC4D65;}
	.st1{fill:#F3BB45;}
	.st2{fill:#B1C847;}
	.st3{fill:#4DAAB3;}
	.st4{fill:none;}
</style>
<g id="XMLID_24_">
	<path id="XMLID_26_" d="M178.9,249.2c-8.2-7.5-23.5-6.5-29.6-0.3c-2.4,2.4-4.5,7.1-4.5,9.8c-0.1,0-0.1-0.1-0.2-0.1v69.6
		c0,0.2,0.1,0.3,0.1,0.4c0.1,2.4,0.1,4.7-0.1,7c-0.9,13.6-6.6,25.1-17.2,34.6c-8.3,7.4-19,11.9-30.1,12.5
		c-16.6,0.9-30.5-4.8-41.6-17.2c-7.5-8.3-11.9-19-12.5-30.2c-0.7-13.7,3.1-25.5,11.3-35.4l-0.2,0.5c4.7-5.9,10.7-10.6,18.1-14.1
		c12.7-6,25.7-6.6,38.9-1.8l0.3,0.1c0,0,17.6,6.2,24.9-11.4c7-16.9-12-24.6-12-24.6l-0.3-0.1c-9.6-3.5-19.1-5.2-28.6-5.4
		c-0.6-0.1-1.1-0.2-1.7-0.2c-24.6,0-45.6,8.7-63,26c-17.4,17.4-26,38.3-26,63c0,24.6,8.7,45.6,26,63c17.3,17.4,38.3,26,63,26
		c19.1,0,36-5.3,50.7-15.7c4.3-3,8.4-6.4,12.3-10.3c17.4-17.3,26-38.3,26-63v-73.3C183,256.2,181.3,251.4,178.9,249.2z"/>
	<g id="XMLID_48_">
		<circle id="XMLID_23_" class="st0" cx="163.9" cy="260.6" r="19.3"/>
		<circle id="XMLID_2_" class="st1" cx="94.1" cy="331.5" r="19.3"/>
	</g>
	<g id="XMLID_1_">
		<path id="XMLID_5_" d="M356.1,139.3c-10.5,0-19.1,8.5-19.1,19.1V253c0,2.4-2.6,3.9-4.7,2.6c-13.6-8.4-29-12.6-46.2-12.6
			c-24.6,0-45.6,8.7-63,26c-17.4,17.4-26,38.3-26,63c0,24.6,8.7,45.6,26,63c17.3,17.4,38.3,26,63,26s45.6-8.7,63-26
			c17.4-17.3,26-38.3,26-63V158.3C375.1,147.8,366.6,139.3,356.1,139.3z M336.8,337.1c-0.9,10.2-4.7,19.3-11.3,27.2
			c-10.8,12.9-27.6,19.9-44.4,18.4c-10.2-0.9-19.3-4.7-27.1-11.2c-13-10.8-19.9-27.7-18.4-44.5c0.9-10.2,4.7-19.3,11.2-27.2
			c10.8-12.9,27.6-19.9,44.4-18.4c10.2,0.9,19.3,4.7,27.2,11.2C331.3,303.5,338.3,320.3,336.8,337.1z"/>
		<circle id="XMLID_4_" class="st1" cx="355.9" cy="158.2" r="19.3"/>
		<circle id="XMLID_3_" class="st0" cx="286" cy="331.5" r="19.3"/>
	</g>
	<g id="XMLID_8_">
		<path id="XMLID_11_" d="M548.3,139.3c-10.5,0-19.1,8.5-19.1,19.1V253c0,2.4-2.6,3.9-4.7,2.6c-13.6-8.4-29-12.6-46.2-12.6
			c-24.6,0-45.6,8.7-63,26c-17.4,17.4-26,38.3-26,63c0,24.6,8.7,45.6,26,63c17.3,17.4,38.3,26,63,26s45.6-8.7,63-26
			c17.4-17.3,26-38.3,26-63V158.3C567.3,147.8,558.8,139.3,548.3,139.3z M529,337.1c-0.9,10.2-4.7,19.3-11.3,27.2
			c-10.8,12.9-27.6,19.9-44.4,18.4c-10.2-0.9-19.3-4.7-27.1-11.2c-13-10.8-19.9-27.7-18.4-44.5c0.9-10.2,4.7-19.3,11.2-27.2
			c10.8-12.9,27.6-19.9,44.4-18.4c10.2,0.9,19.3,4.7,27.2,11.2C523.5,303.5,530.5,320.3,529,337.1z"/>
		<circle id="XMLID_10_" class="st1" cx="548.1" cy="158.2" r="19.3"/>
		<circle id="XMLID_9_" class="st0" cx="478.2" cy="331.5" r="19.3"/>
	</g>
	<g id="XMLID_14_">
		<path id="XMLID_16_" d="M714.7,243L714.7,243c-7.6,0-14.6,4.3-18,11.2L661,342.7c-0.8,2.6-3.4,3.1-4.7,0.2l-36.1-88.7
			c-3.4-6.9-10.4-11.2-18-11.2h-0.5c-14.9,0-24.6,15.7-17.9,29L640.2,410c7.4,14.8,28.5,14.8,35.9,0l56.6-137.9
			C739.3,258.7,729.6,243,714.7,243z"/>
		<circle id="XMLID_15_" class="st2" cx="714.9" cy="263" r="20.1"/>
	</g>
	<g id="XMLID_17_">
		<path id="XMLID_19_" d="M768.2,243.1c-10.5,0-19.1,8.5-19.1,19.1V402c0,10.5,8.5,19.1,19.1,19.1c10.5,0,19.1-8.5,19.1-19.1V262.1
			C787.3,251.6,778.7,243.1,768.2,243.1z"/>
		<path id="XMLID_18_" class="st3" d="M768.2,192.2c-5.3,0-9.8,1.9-13.5,5.6c-3.7,3.7-5.6,8.2-5.6,13.5c0,5.3,1.9,9.8,5.6,13.5
			c3.7,3.7,8.2,5.6,13.5,5.6c5.3,0,9.8-1.9,13.5-5.6c3.7-3.7,5.6-8.2,5.6-13.5c0-5.3-1.9-9.8-5.6-13.5
			C778,194.1,773.5,192.2,768.2,192.2z"/>
	</g>
	<g id="XMLID_20_">
		<path id="XMLID_22_" d="M952.7,365.6c-15.1-11-26.1,2.2-26.1,2.2l-0.2,0.2c-9.9,9.9-21.9,14.9-36,14.9c-14,0-26-5-36-14.9
			c-9.9-9.9-14.9-21.9-14.9-36c0-14,5-26,14.9-36c9.9-9.9,21.9-14.9,36-14.9c14,0,26,5,36,14.9l0.2,0.2c0,0,13.3,13.1,27.4,0.3
			c13.5-12.3-0.4-27.3-0.4-27.3l-0.2-0.2c-17.4-17.3-38.3-26-63-26c-24.6,0-45.6,8.7-63,26c-17.4,17.4-26,38.3-26,63
			c0,24.6,8.7,45.6,26,63c17.3,17.4,38.3,26,63,26c24.6,0,45.6-8.7,63-26l0.2-0.2C953.6,394.9,968.5,377.1,952.7,365.6z"/>
		<circle id="XMLID_21_" class="st2" cx="941.7" cy="284" r="19.3"/>
	</g>
	<path id="XMLID_28_" class="st4" d="M144.7,328.7c0-0.2-0.1-0.3-0.1-0.4v7.5C144.8,333.4,144.9,331.1,144.7,328.7z"/>
</g>
</svg>
