<?xml version="1.0" encoding="utf-8"?>
<!-- Generator: Adobe Illustrator 19.0.0, SVG Export Plug-In . SVG Version: 6.00 Build 0)  -->
<svg version="1.1" id="Layer_1" xmlns="http://www.w3.org/2000/svg" xmlns:xlink="http://www.w3.org/1999/xlink" x="0px" y="0px"
	 viewBox="0 0 800 800" style="enable-background:new 0 0 800 800;" xml:space="preserve">
<style type="text/css">
	.st0{fill:#E1E1E1;}
	.st1{fill:#FAFAFA;}
	.st2{fill:#ECECEC;}
	.st3{fill:#1A2E35;}
	.st4{fill:#375A64;}
	.st5{fill:#FDB636;}
	.st6{opacity:0.3;}
	.st7{opacity:0.5;}
	.st8{fill:#F94B66;}
	.st9{fill:#A1C339;}
	.st10{fill:#FFFFFF;}
	.st11{fill:#68594B;}
	.st12{fill:#FFBF9D;}
	.st13{opacity:0.2;}
	.st14{fill:#F5F5F5;}
	.st15{fill:#1C1C1B;}
	.st16{opacity:0.7;}
</style>
<g id="XMLID_1_">
	<g id="XMLID_2_">
		<g id="XMLID_3_">
			<g id="XMLID_4_">
				<ellipse id="XMLID_5_" class="st0" cx="751.6" cy="177.6" rx="3.1" ry="0.5"/>
			</g>
		</g>
		<g id="XMLID_6_">
			<g id="XMLID_7_">
				<ellipse id="XMLID_8_" class="st0" cx="739.2" cy="177.6" rx="3.1" ry="0.5"/>
			</g>
		</g>
		<g id="XMLID_9_">
			<g id="XMLID_10_">
				<ellipse id="XMLID_11_" class="st0" cx="726.8" cy="177.6" rx="3.1" ry="0.5"/>
			</g>
		</g>
		<g id="XMLID_12_">
			<g id="XMLID_13_">
				<ellipse id="XMLID_14_" class="st0" cx="714.4" cy="177.6" rx="3.1" ry="0.5"/>
			</g>
		</g>
		<g id="XMLID_15_">
			<g id="XMLID_16_">
				<ellipse id="XMLID_17_" class="st0" cx="701.9" cy="177.6" rx="3.1" ry="0.5"/>
			</g>
		</g>
		<g id="XMLID_18_">
			<g id="XMLID_19_">
				<ellipse id="XMLID_20_" class="st0" cx="689.5" cy="177.6" rx="3.1" ry="0.5"/>
			</g>
		</g>
		<g id="XMLID_21_">
			<g id="XMLID_22_">
				<ellipse id="XMLID_23_" class="st0" cx="677.1" cy="177.6" rx="3.1" ry="0.5"/>
			</g>
		</g>
		<g id="XMLID_24_">
			<g id="XMLID_25_">
				<ellipse id="XMLID_26_" class="st0" cx="664.7" cy="177.6" rx="3.1" ry="0.5"/>
			</g>
		</g>
		<g id="XMLID_27_">
			<g id="XMLID_28_">
				<ellipse id="XMLID_29_" class="st0" cx="652.3" cy="177.6" rx="3.1" ry="0.5"/>
			</g>
		</g>
		<g id="XMLID_30_">
			<g id="XMLID_31_">
				<ellipse id="XMLID_32_" class="st0" cx="639.9" cy="177.6" rx="3.1" ry="0.5"/>
			</g>
		</g>
		<g id="XMLID_33_">
			<g id="XMLID_34_">
				<ellipse id="XMLID_35_" class="st0" cx="627.4" cy="177.6" rx="3.1" ry="0.5"/>
			</g>
		</g>
		<g id="XMLID_36_">
			<g id="XMLID_37_">
				<ellipse id="XMLID_38_" class="st0" cx="615" cy="177.6" rx="3.1" ry="0.5"/>
			</g>
		</g>
		<g id="XMLID_39_">
			<g id="XMLID_40_">
				<path id="XMLID_41_" class="st0" d="M603.1,174c0.3,0,0.5,1.4,0.5,3.1c0,0.2,0,0.3,0,0.5l-0.5-0.5c1.5,0,2.6,0.3,2.6,0.5
					c0,0.3-1.1,0.5-2.6,0.5l-0.5,0l0-0.5c0-0.2,0-0.3,0-0.5C602.5,175.4,602.8,174,603.1,174z"/>
			</g>
		</g>
		<g id="XMLID_42_">
			<g id="XMLID_43_">
				<ellipse id="XMLID_44_" class="st0" cx="603.1" cy="164.7" rx="0.5" ry="3.1"/>
			</g>
		</g>
		<g id="XMLID_45_">
			<g id="XMLID_46_">
				<ellipse id="XMLID_47_" class="st0" cx="603.1" cy="152.3" rx="0.5" ry="3.1"/>
			</g>
		</g>
		<g id="XMLID_48_">
			<g id="XMLID_49_">
				<ellipse id="XMLID_50_" class="st0" cx="603.1" cy="139.9" rx="0.5" ry="3.1"/>
			</g>
		</g>
		<g id="XMLID_51_">
			<g id="XMLID_52_">
				<ellipse id="XMLID_53_" class="st0" cx="603.1" cy="127.4" rx="0.5" ry="3.1"/>
			</g>
		</g>
		<g id="XMLID_54_">
			<g id="XMLID_55_">
				<ellipse id="XMLID_56_" class="st0" cx="603.1" cy="115" rx="0.5" ry="3.1"/>
			</g>
		</g>
		<g id="XMLID_57_">
			<g id="XMLID_58_">
				<ellipse id="XMLID_59_" class="st0" cx="603.1" cy="102.6" rx="0.5" ry="3.1"/>
			</g>
		</g>
		<g id="XMLID_60_">
			<g id="XMLID_61_">
				<ellipse id="XMLID_62_" class="st0" cx="603.1" cy="90.2" rx="0.5" ry="3.1"/>
			</g>
		</g>
		<g id="XMLID_63_">
			<g id="XMLID_64_">
				<ellipse id="XMLID_65_" class="st0" cx="603.1" cy="77.8" rx="0.5" ry="3.1"/>
			</g>
		</g>
		<g id="XMLID_66_">
			<g id="XMLID_67_">
				<ellipse id="XMLID_68_" class="st0" cx="603.1" cy="65.4" rx="0.5" ry="3.1"/>
			</g>
		</g>
		<g id="XMLID_69_">
			<g id="XMLID_70_">
				<ellipse id="XMLID_71_" class="st0" cx="603.1" cy="53" rx="0.5" ry="3.1"/>
			</g>
		</g>
		<g id="XMLID_72_">
			<g id="XMLID_73_">
				<ellipse id="XMLID_74_" class="st0" cx="603.1" cy="40.5" rx="0.5" ry="3.1"/>
			</g>
		</g>
		<g id="XMLID_75_">
			<g id="XMLID_76_">
				<path id="XMLID_77_" class="st0" d="M604,25.9c0,0.2-0.4,0.3-0.9,0.4l0.4-0.4c0.1,0.6,0.2,1.3,0.2,2.2c0,1.7-0.2,3.1-0.5,3.1
					c-0.3,0-0.5-1.4-0.5-3.1c0-0.8,0.1-1.6,0.2-2.2l0.1-0.4l0.3,0.1C603.6,25.7,604,25.8,604,25.9z"/>
			</g>
		</g>
		<g id="XMLID_78_">
			<g id="XMLID_79_">
				<ellipse id="XMLID_80_" class="st0" cx="613.3" cy="25.9" rx="3.1" ry="0.5"/>
			</g>
		</g>
		<g id="XMLID_81_">
			<g id="XMLID_82_">
				<ellipse id="XMLID_83_" class="st0" cx="625.7" cy="25.9" rx="3.1" ry="0.5"/>
			</g>
		</g>
		<g id="XMLID_84_">
			<g id="XMLID_85_">
				<ellipse id="XMLID_86_" class="st0" cx="638.1" cy="25.9" rx="3.1" ry="0.5"/>
			</g>
		</g>
		<g id="XMLID_87_">
			<g id="XMLID_88_">
				<ellipse id="XMLID_89_" class="st0" cx="650.6" cy="25.9" rx="3.1" ry="0.5"/>
			</g>
		</g>
		<g id="XMLID_90_">
			<g id="XMLID_91_">
				<ellipse id="XMLID_92_" class="st0" cx="663" cy="25.9" rx="3.1" ry="0.5"/>
			</g>
		</g>
		<g id="XMLID_93_">
			<g id="XMLID_94_">
				<ellipse id="XMLID_95_" class="st0" cx="675.4" cy="25.9" rx="3.1" ry="0.5"/>
			</g>
		</g>
		<g id="XMLID_96_">
			<g id="XMLID_97_">
				<ellipse id="XMLID_98_" class="st0" cx="687.8" cy="25.9" rx="3.1" ry="0.5"/>
			</g>
		</g>
		<g id="XMLID_99_">
			<g id="XMLID_100_">
				<ellipse id="XMLID_101_" class="st0" cx="700.2" cy="25.9" rx="3.1" ry="0.5"/>
			</g>
		</g>
		<g id="XMLID_102_">
			<g id="XMLID_103_">
				<ellipse id="XMLID_104_" class="st0" cx="712.6" cy="25.9" rx="3.1" ry="0.5"/>
			</g>
		</g>
		<g id="XMLID_105_">
			<g id="XMLID_106_">
				<ellipse id="XMLID_107_" class="st0" cx="725.1" cy="25.9" rx="3.1" ry="0.5"/>
			</g>
		</g>
		<g id="XMLID_108_">
			<g id="XMLID_109_">
				<ellipse id="XMLID_110_" class="st0" cx="737.5" cy="25.9" rx="3.1" ry="0.5"/>
			</g>
		</g>
		<g id="XMLID_111_">
			<g id="XMLID_112_">
				<ellipse id="XMLID_113_" class="st0" cx="749.9" cy="25.9" rx="3.1" ry="0.5"/>
			</g>
		</g>
		<g id="XMLID_114_">
			<g id="XMLID_115_">
				<ellipse id="XMLID_116_" class="st0" cx="754.7" cy="33.5" rx="0.5" ry="3.1"/>
			</g>
		</g>
		<g id="XMLID_117_">
			<g id="XMLID_118_">
				<ellipse id="XMLID_119_" class="st0" cx="754.7" cy="46" rx="0.5" ry="3.1"/>
			</g>
		</g>
		<g id="XMLID_120_">
			<g id="XMLID_121_">
				<ellipse id="XMLID_122_" class="st0" cx="754.7" cy="58.4" rx="0.5" ry="3.1"/>
			</g>
		</g>
		<g id="XMLID_123_">
			<g id="XMLID_124_">
				<ellipse id="XMLID_125_" class="st0" cx="754.7" cy="70.8" rx="0.5" ry="3.1"/>
			</g>
		</g>
		<g id="XMLID_126_">
			<g id="XMLID_127_">
				<ellipse id="XMLID_128_" class="st0" cx="754.7" cy="83.2" rx="0.5" ry="3.1"/>
			</g>
		</g>
		<g id="XMLID_129_">
			<g id="XMLID_130_">
				<ellipse id="XMLID_131_" class="st0" cx="754.7" cy="95.6" rx="0.5" ry="3.1"/>
			</g>
		</g>
		<g id="XMLID_132_">
			<g id="XMLID_133_">
				<ellipse id="XMLID_134_" class="st0" cx="754.7" cy="108" rx="0.5" ry="3.1"/>
			</g>
		</g>
		<g id="XMLID_135_">
			<g id="XMLID_136_">
				<ellipse id="XMLID_137_" class="st0" cx="754.7" cy="120.5" rx="0.5" ry="3.1"/>
			</g>
		</g>
		<g id="XMLID_138_">
			<g id="XMLID_139_">
				<ellipse id="XMLID_140_" class="st0" cx="754.7" cy="132.9" rx="0.5" ry="3.1"/>
			</g>
		</g>
		<g id="XMLID_141_">
			<g id="XMLID_142_">
				<ellipse id="XMLID_143_" class="st0" cx="754.7" cy="145.3" rx="0.5" ry="3.1"/>
			</g>
		</g>
		<g id="XMLID_144_">
			<g id="XMLID_145_">
				<ellipse id="XMLID_146_" class="st0" cx="754.7" cy="157.7" rx="0.5" ry="3.1"/>
			</g>
		</g>
		<g id="XMLID_147_">
			<g id="XMLID_148_">
				<ellipse id="XMLID_149_" class="st0" cx="754.7" cy="170.1" rx="0.5" ry="3.1"/>
			</g>
		</g>
	</g>
	<g id="XMLID_150_">
		<rect id="XMLID_782_" x="749.1" y="170.4" class="st0" width="11.2" height="11.2"/>
	</g>
	<g id="XMLID_151_">
		<rect id="XMLID_780_" x="597.5" y="172" class="st0" width="11.2" height="11.2"/>
	</g>
	<g id="XMLID_152_">
		<rect id="XMLID_778_" x="749.1" y="19.2" class="st0" width="11.2" height="11.2"/>
	</g>
	<g id="XMLID_153_">
		<rect id="XMLID_776_" x="597.5" y="20.3" class="st0" width="11.2" height="11.2"/>
	</g>
</g>
<g id="XMLID_154_">
	<g id="XMLID_155_">
		<g id="XMLID_156_">
			<g id="XMLID_157_">
				<g id="XMLID_158_">
					<path id="XMLID_773_" class="st0" d="M164.1,219.1c19.6-17.2,21.4-45.3,17.8-70c-0.6-4.1-0.6-8.5-3-11.9
						c-2.4-3.4-7.2-5.4-10.7-3.2c-2.9,1.8-3.9,5.5-5.2,8.6c-1.9,4.2-4.9,7.8-8.7,10.3c-2.5,1.7-5.6,2.9-8.4,1.7
						c-3.8-1.6-4.7-6.5-5.2-10.6c-0.8-7.7-1.6-15.3-2.4-23c-0.4-4.1-0.9-8.3-2.6-12.1c-1.7-3.8-4.9-7.1-9-7.7c-4-0.7-8.6,2.1-9,6.2
						c-0.2,1.7,0.4,3.4,0.4,5.1c0.1,1.7-0.5,3.7-2.1,4.4c-1.6,0.7-3.4-0.3-4.7-1.4c-4.7-3.7-8.2-8.7-11.5-13.7S93.4,91.6,89,87.5
						c-4.4-4.1-10.1-7.1-16-6.8c-5.9,0.3-11.8,4.6-12.7,10.6c-0.9,6,3.2,11.5,7.4,15.8c6.2,6.4,13.4,11.8,21.1,16.1
						c1.4,0.8,2.9,1.6,3.6,3.1c1.2,2.6-1.1,5.7-3.7,6.9c-3,1.4-6.3,1.4-9.5,2.1c-3.2,0.7-6.5,2.5-7.4,5.7c-1.2,4.4,2.8,8.4,6.6,10.9
						c7.6,5,16,8.7,24.8,10.9c3.1,0.8,6.4,1.4,9.1,3.2c2.7,1.9,4.6,5.4,3.4,8.4c-1.2,3.1-4.8,4.4-8.1,4.2c-3.2-0.2-6.3-1.6-9.4-2.5
						c-5.9-1.5-13.1-0.3-16.2,5c-2,3.5-1.7,8-0.1,11.7c1.6,3.7,4.4,6.7,7.4,9.5c10.2,9.6,22.8,16.9,36.4,20
						C139.3,225.4,151.6,225.3,164.1,219.1"/>
				</g>
			</g>
		</g>
	</g>
	<g id="XMLID_159_">
		<g id="XMLID_160_">
			<g id="XMLID_161_">
				<g id="XMLID_162_">
					<g id="XMLID_163_">
						<path id="XMLID_768_" class="st1" d="M166.4,237.4c-2-9.7-5.4-21.1-10.5-33.2c-5-12.1-11.6-24.9-19-38.1
							c-1.9-3.3-3.7-6.5-5.5-9.7c-1.8-3.2-3.6-6.3-5.6-9.3c-3.9-6-8-11.4-12.2-16.5c-4.1-5.1-8.2-9.7-12.1-14
							c-3.9-4.3-7.6-8.3-11.1-11.7c-7-6.9-13.3-11.9-17.8-15.1c-2.2-1.6-4-2.8-5.2-3.6c-0.6-0.4-1-0.7-1.4-0.9
							c-0.3-0.2-0.5-0.3-0.5-0.3c0,0,0.1,0.1,0.4,0.3c0.3,0.2,0.8,0.6,1.3,1c1.2,0.8,2.9,2.1,5.1,3.7c4.4,3.3,10.6,8.2,17.6,15.2
							c3.5,3.5,7.1,7.4,11,11.8c3.8,4.3,7.9,9,12,14.1c4.1,5.1,8.2,10.5,12.1,16.5c1.9,3,3.7,6.1,5.5,9.3c1.8,3.2,3.6,6.4,5.5,9.7
							c7.4,13.1,14,25.9,19,38c5.1,12,8.5,23.3,10.6,33"/>
					</g>
				</g>
			</g>
		</g>
	</g>
	<g id="XMLID_164_">
		<g id="XMLID_165_">
			<g id="XMLID_166_">
				<g id="XMLID_167_">
					<g id="XMLID_168_">
						<path id="XMLID_762_" class="st1" d="M125.7,147.1c0.1,0,0.1-0.6,0.2-1.8c0.1-1.2,0.2-2.8,0.2-4.9c0.1-4.2,0.1-9.9,0.1-16.2
							c0-6.3,0-12.1,0.2-16.2c0.1-2.1,0.2-3.8,0.3-4.9c0.1-1.2,0.1-1.8,0-1.8c-0.1,0-0.2,0.6-0.3,1.8c-0.2,1.2-0.3,2.8-0.5,4.9
							c-0.3,4.2-0.5,9.9-0.4,16.3c0.1,6.3,0.1,11.9,0.2,16.2c0,2,0,3.6,0,4.9C125.6,146.5,125.6,147.1,125.7,147.1z"/>
					</g>
				</g>
			</g>
		</g>
	</g>
	<g id="XMLID_169_">
		<g id="XMLID_170_">
			<g id="XMLID_171_">
				<g id="XMLID_172_">
					<g id="XMLID_173_">
						<path id="XMLID_756_" class="st1" d="M71.7,143.1c0,0.1,0.8,0.1,2.1,0c1.4,0,3.4-0.1,5.8-0.1c4.9,0,11.7,0.2,19.1,0.8
							c7.5,0.6,14.2,1.4,19,2.1c2.4,0.3,4.4,0.7,5.7,0.9c1.4,0.2,2.1,0.3,2.1,0.3c0-0.1-0.7-0.3-2.1-0.6c-1.3-0.3-3.3-0.7-5.7-1.1
							c-4.8-0.9-11.6-1.8-19.1-2.4c-7.5-0.6-14.3-0.7-19.2-0.6c-2.5,0.1-4.4,0.2-5.8,0.3C72.5,142.9,71.7,143,71.7,143.1z"/>
					</g>
				</g>
			</g>
		</g>
	</g>
	<g id="XMLID_174_">
		<g id="XMLID_175_">
			<g id="XMLID_176_">
				<g id="XMLID_177_">
					<g id="XMLID_178_">
						<path id="XMLID_750_" class="st1" d="M155.2,203.3c0,0,0.1-0.2,0.3-0.7c0.2-0.5,0.4-1.2,0.7-2c0.6-1.8,1.4-4.3,2.3-7.5
							c1.9-6.3,4.2-15.2,6.6-25c2.4-9.8,4.7-18.6,6.4-25c0.9-3.1,1.6-5.6,2.1-7.5c0.2-0.8,0.4-1.5,0.6-2.1c0.1-0.5,0.2-0.7,0.1-0.7
							c0,0-0.1,0.2-0.3,0.7c-0.2,0.5-0.4,1.2-0.7,2c-0.6,1.8-1.4,4.3-2.3,7.5c-1.9,6.3-4.2,15.2-6.6,25c-2.4,9.8-4.7,18.6-6.4,25
							c-0.9,3.1-1.6,5.6-2.1,7.5c-0.2,0.8-0.4,1.5-0.6,2.1C155.2,203.1,155.2,203.3,155.2,203.3z"/>
					</g>
				</g>
			</g>
		</g>
	</g>
	<g id="XMLID_179_">
		<g id="XMLID_180_">
			<g id="XMLID_181_">
				<g id="XMLID_182_">
					<g id="XMLID_183_">
						<path id="XMLID_744_" class="st1" d="M82.4,188.4c0,0,0.2,0.1,0.7,0.2c0.6,0.1,1.3,0.3,2.1,0.5c2,0.4,4.6,0.9,7.8,1.6
							c6.6,1.4,15.6,3.3,25.7,5.5c10,2.2,19.1,4.1,25.7,5.3c3.3,0.6,6,1.1,7.8,1.4c0.9,0.1,1.6,0.2,2.1,0.3c0.5,0.1,0.8,0.1,0.8,0.1
							c0,0-0.2-0.1-0.7-0.2c-0.6-0.1-1.3-0.3-2.1-0.5c-2-0.4-4.6-0.9-7.8-1.6c-6.6-1.4-15.6-3.3-25.7-5.5c-10-2.2-19.1-4.1-25.7-5.3
							c-3.3-0.6-6-1.1-7.8-1.4c-0.9-0.1-1.6-0.2-2.1-0.3C82.7,188.4,82.4,188.4,82.4,188.4z"/>
					</g>
				</g>
			</g>
		</g>
	</g>
</g>
<g id="XMLID_184_">
	<g id="XMLID_185_">
		<circle id="XMLID_737_" class="st0" cx="413.2" cy="560" r="220.9"/>
	</g>
	<g id="XMLID_186_">
		<path id="XMLID_187_" class="st1" d="M413.2,734.3c-96.1,0-174.3-78.2-174.3-174.3c0-96.1,78.2-174.3,174.3-174.3
			c96.1,0,174.3,78.2,174.3,174.3C587.5,656.1,509.3,734.3,413.2,734.3z M413.2,387.5c-95.1,0-172.5,77.4-172.5,172.5
			s77.4,172.5,172.5,172.5S585.7,655.1,585.7,560S508.3,387.5,413.2,387.5z"/>
	</g>
	<g id="XMLID_190_">
		<path id="XMLID_191_" class="st1" d="M413.2,762.1c-111.4,0-202.1-90.7-202.1-202.1s90.7-202.1,202.1-202.1
			c111.4,0,202.1,90.7,202.1,202.1S524.6,762.1,413.2,762.1z M413.2,359.7c-110.5,0-200.3,89.9-200.3,200.3
			c0,110.5,89.9,200.3,200.3,200.3c110.5,0,200.3-89.9,200.3-200.3C613.5,449.5,523.7,359.7,413.2,359.7z"/>
	</g>
	<g id="XMLID_194_">
		<path id="XMLID_195_" class="st1" d="M413.2,711.1c-83.3,0-151.1-67.8-151.1-151.1c0-83.3,67.8-151.1,151.1-151.1
			c83.3,0,151.1,67.8,151.1,151.1C564.3,643.3,496.5,711.1,413.2,711.1z M413.2,410.6c-82.4,0-149.3,67-149.3,149.3
			c0,82.4,67,149.3,149.3,149.3c82.4,0,149.3-67,149.3-149.3C562.6,477.6,495.6,410.6,413.2,410.6z"/>
	</g>
	<g id="XMLID_198_">
		<path id="XMLID_199_" class="st1" d="M413.2,687.4c-70.3,0-127.4-57.2-127.4-127.4s57.2-127.4,127.4-127.4
			c70.3,0,127.4,57.2,127.4,127.4S483.5,687.4,413.2,687.4z M413.2,434.3c-69.3,0-125.7,56.4-125.7,125.7
			c0,69.3,56.4,125.7,125.7,125.7c69.3,0,125.7-56.4,125.7-125.7C538.9,490.7,482.5,434.3,413.2,434.3z"/>
	</g>
	<g id="XMLID_202_">
		<path id="XMLID_203_" class="st1" d="M413.2,663.2C356.3,663.2,310,616.9,310,560c0-56.9,46.3-103.2,103.2-103.2
			c56.9,0,103.2,46.3,103.2,103.2C516.4,616.9,470.1,663.2,413.2,663.2z M413.2,458.6c-55.9,0-101.4,45.5-101.4,101.4
			c0,55.9,45.5,101.4,101.4,101.4c55.9,0,101.4-45.5,101.4-101.4C514.6,504.1,469.1,458.6,413.2,458.6z"/>
	</g>
	<g id="XMLID_206_">
		<path id="XMLID_207_" class="st1" d="M413.2,641.3c-44.8,0-81.3-36.5-81.3-81.3c0-44.8,36.5-81.3,81.3-81.3
			c44.8,0,81.3,36.5,81.3,81.3C494.5,604.8,458,641.3,413.2,641.3z M413.2,480.4c-43.9,0-79.5,35.7-79.5,79.6
			c0,43.9,35.7,79.5,79.5,79.5c43.9,0,79.5-35.7,79.5-79.5C492.8,516.1,457.1,480.4,413.2,480.4z"/>
	</g>
</g>
<g id="XMLID_210_">
	<rect id="XMLID_710_" x="396.6" y="28" class="st2" width="85.7" height="85.7"/>
</g>
<g id="XMLID_213_">
	<g id="XMLID_221_">
		
			<rect id="XMLID_707_" x="320.2" y="482.2" transform="matrix(0.9973 -7.294961e-002 7.294961e-002 0.9973 -41.7889 31.9564)" class="st3" width="192.8" height="211.8"/>
	</g>
	<g id="XMLID_219_">
		<polygon id="XMLID_220_" class="st4" points="499.2,582.1 496.4,519.7 328.4,535.4 334.8,600.3 		"/>
	</g>
	<g id="XMLID_215_">
		<path id="XMLID_214_" class="st4" d="M534.3,690.5L319,704.9c-7.5,0.5-14-5.2-14.5-12.7l0,0c-0.5-7.5,5.2-14,12.7-14.5l215.3-14.5
			c7.5-0.5,14,5.2,14.5,12.7l0,0C547.5,683.5,541.9,690,534.3,690.5z"/>
	</g>
</g>
<g id="XMLID_211_">
	<g id="XMLID_216_">
		<rect id="XMLID_212_" x="57" y="217.4" class="st2" width="716.5" height="324.6"/>
	</g>
	<g id="XMLID_217_">
		<polygon id="XMLID_218_" class="st0" points="57,542 75.5,551.6 755.8,551 773.5,542 		"/>
	</g>
</g>
<g id="XMLID_222_">
	<g id="XMLID_223_">
		<g id="XMLID_224_">
			<g id="XMLID_384_">
				<polygon id="XMLID_385_" class="st1" points="251.4,511.4 250.1,292.8 586,292.8 586,513.6 				"/>
			</g>
			<g id="XMLID_225_">
				<g id="XMLID_240_">
					<path id="XMLID_241_" class="st5" d="M440.6,491.1c-10.5-2.2-21.4,1.1-31,6c-2.4,1.2-4.7,2.5-7.1,3.8l54.3,0.1
						C453.2,496,447.1,492.5,440.6,491.1z"/>
				</g>
				<g id="XMLID_251_">
					<path id="XMLID_252_" class="st5" d="M558.3,418.6c-1.1-1.7-3.3-2.5-5.3-2l0.1,0c-0.1,0-0.2,0.1-0.2,0.1
						c-0.6,0.2-1.2,0.4-1.7,0.8l0.5-0.2c-1.8,1.2-2.7,3.6-2,5.6c0.9,2.5,4.2,3.9,6.6,2.7C558.8,424.3,559.8,420.8,558.3,418.6z"/>
				</g>
			</g>
		</g>
		<g id="XMLID_261_">
			<g id="XMLID_265_">
				
					<rect id="XMLID_706_" x="486.9" y="392.6" transform="matrix(0.9692 -0.2462 0.2462 0.9692 -82.059 132.4635)" class="st4" width="3.7" height="3.7"/>
			</g>
			<g id="XMLID_266_">
				
					<rect id="XMLID_705_" x="348" y="428.3" transform="matrix(0.9692 -0.2462 0.2462 0.9692 -95.147 99.3907)" class="st4" width="3.7" height="3.7"/>
			</g>
			<g id="XMLID_267_">
				
					<rect id="XMLID_704_" x="474.5" y="343.8" transform="matrix(0.9692 -0.2462 0.2462 0.9692 -70.4366 127.9137)" class="st4" width="3.7" height="3.7"/>
			</g>
			<g id="XMLID_268_">
				
					<rect id="XMLID_703_" x="404.4" y="361.6" transform="matrix(0.9692 -0.2462 0.2462 0.9692 -76.9727 111.2172)" class="st4" width="3.7" height="3.7"/>
			</g>
			<g id="XMLID_269_">
				
					<rect id="XMLID_702_" x="416.8" y="410.3" transform="matrix(0.9692 -0.2462 0.2462 0.9692 -88.5951 115.7669)" class="st4" width="3.7" height="3.7"/>
			</g>
			<g id="XMLID_270_">
				
					<rect id="XMLID_701_" x="341.7" y="403.2" transform="matrix(0.9692 -0.2462 0.2462 0.9692 -89.1593 97.043)" class="st4" width="3.7" height="3.7"/>
			</g>
			<g id="XMLID_271_">
				
					<rect id="XMLID_700_" x="480.6" y="367.9" transform="matrix(0.9692 -0.2462 0.2462 0.9692 -76.1814 130.1411)" class="st4" width="3.7" height="3.7"/>
			</g>
			<g id="XMLID_272_">
				
					<rect id="XMLID_699_" x="335.7" y="379.8" transform="matrix(0.9692 -0.2462 0.2462 0.9692 -83.5682 94.8577)" class="st4" width="3.7" height="3.7"/>
			</g>
		</g>
		<g id="XMLID_286_">
			<g id="XMLID_287_">
				<path id="XMLID_288_" class="st3" d="M776,385.1c-0.1-0.1,1.2-0.5,2.8-2.2c1.6-1.6,3.3-4.9,3.4-9.3c0-2.2-0.3-4.7-1.4-7.1
					c-1.1-2.4-3.1-4.7-5.7-6.4c-5.2-3.5-13.1-4.1-20.3-1c-7.4,2.9-14,8.8-21.2,14.7c-3.7,2.9-7.6,5.8-12.2,8
					c-4.6,2.1-9.7,3.3-15,3.4c-10.6,0.1-21.9-4.3-29.7-13c-3.9-4.3-6.9-9.6-8.3-15.4c-1.4-5.8-1.2-12.3,2-17.7
					c1.6-2.7,3.7-5,6.3-6.6c2.6-1.7,5.6-2.6,8.7-2.5c3.1,0.2,6,1.6,8.1,3.7c2.1,2.1,3.5,4.9,4.3,7.7c1.6,5.6,1,11.7-1.8,16.7
					c-2.8,4.9-7.5,8.3-12.6,10.1c-5.1,1.8-10.4,2-15.4,1.2c-5-0.9-9.5-2.7-13.7-4.8c-8.4-4.2-15.4-9.4-22.3-13.4
					c-6.8-4-13.5-6.9-19.7-7.9c-6.2-1-11.7-0.1-15.8,1.6c-4.1,1.6-6.8,3.9-8.4,5.6c-0.4,0.4-0.7,0.8-1,1.1c-0.3,0.3-0.5,0.6-0.7,0.9
					c-0.4,0.5-0.6,0.7-0.6,0.7s0.2-0.3,0.5-0.8c0.2-0.3,0.4-0.6,0.6-0.9c0.3-0.3,0.6-0.7,1-1.2c1.6-1.7,4.2-4.1,8.4-5.8
					c4.1-1.7,9.7-2.7,16-1.8c6.3,0.9,13.1,3.8,19.9,7.9c6.9,4,14,9.1,22.3,13.3c4.2,2.1,8.7,3.8,13.5,4.7c4.8,0.8,10,0.5,14.9-1.2
					c4.9-1.7,9.4-5,12.1-9.7c2.7-4.7,3.2-10.6,1.7-16c-0.8-2.7-2.1-5.3-4.1-7.3c-2-2-4.7-3.2-7.5-3.4c-2.8-0.1-5.7,0.8-8.2,2.4
					c-2.5,1.6-4.5,3.8-6,6.3c-3.1,5.1-3.3,11.5-1.9,17.1c1.4,5.6,4.3,10.8,8.1,15c7.5,8.5,18.6,12.8,29,12.7
					c5.2-0.1,10.2-1.2,14.7-3.3c4.5-2.1,8.4-5,12-7.8c7.2-5.8,13.9-11.7,21.5-14.7c7.4-3.1,15.5-2.4,20.8,1.2
					c2.7,1.8,4.7,4.1,5.8,6.6c1.1,2.5,1.4,5.1,1.4,7.3c-0.2,4.5-2,7.8-3.7,9.4c-0.4,0.4-0.8,0.8-1.2,1c-0.3,0.3-0.7,0.5-0.9,0.6
					C776.2,384.9,776,385.1,776,385.1z"/>
			</g>
		</g>
		<g id="XMLID_292_" class="st6">
			<g id="XMLID_293_">
				<path id="XMLID_294_" d="M558.3,418.6c-1.1-1.7-3.3-2.5-5.3-2l0.1,0c-0.1,0-0.2,0.1-0.2,0.1c-0.6,0.2-1.2,0.4-1.7,0.8l0.5-0.2
					c-1.8,1.2-2.7,3.6-2,5.6c0.9,2.5,4.2,3.9,6.6,2.7C558.8,424.3,559.8,420.8,558.3,418.6z"/>
			</g>
		</g>
		<g id="XMLID_298_" class="st6">
			<g id="XMLID_299_">
				<path id="XMLID_300_" d="M440.6,491.1c-10.5-2.2-21.4,1.1-31,6c-2.4,1.2-4.7,2.5-7.1,3.8l54.3,0.1
					C453.2,496,447.1,492.5,440.6,491.1z"/>
			</g>
		</g>
	</g>
	<g id="XMLID_301_">
		<g id="XMLID_302_">
			<path id="XMLID_303_" class="st5" d="M341.8,587.7c4.9-8.7,16.1-11.8,26.1-11.5c10,0.3,19.9,3.2,29.9,2.8
				c22.9-1.1,42.7-19.3,65.6-18.7c13.7,0.4,27.2,7.7,40.7,5.1c3.3-0.6,7.1-1.6,9.5,0.7c2,1.9,1.7,5.3,0.2,7.5
				c-1.5,2.3-4,3.6-6.5,4.9c-34.9,17.6-75.4,19.4-114.2,24.2c-9.9,1.2-20,2.7-29.9,1c-9.9-1.7-19.7-7.3-23.6-16.5"/>
		</g>
		<g id="XMLID_1013_" class="st7">
			<g id="XMLID_305_">
				<path id="XMLID_306_" class="st8" d="M341.8,587.7c4.9-8.7,16.1-11.8,26.1-11.5c10,0.3,19.9,3.2,29.9,2.8
					c22.9-1.1,42.7-19.3,65.6-18.7c13.7,0.4,27.2,7.7,40.7,5.1c3.3-0.6,7.1-1.6,9.5,0.7c2,1.9,1.7,5.3,0.2,7.5
					c-1.5,2.3-4,3.6-6.5,4.9c-34.9,17.6-75.4,19.4-114.2,24.2c-9.9,1.2-20,2.7-29.9,1c-9.9-1.7-19.7-7.3-23.6-16.5"/>
			</g>
		</g>
	</g>
	<g id="XMLID_226_">
		<path id="XMLID_249_" class="st9" d="M468.2,340.3c0.1,2.7-0.3,5.3-0.6,7.9c-0.3,2.8-0.5,5.6-0.9,8.3c-0.9,7.2-2.7,14.2-5.7,20.9
			c-1.4,3.3-2.8,6.6-4.7,9.6c-2.3,3.7-5.3,6.6-9.1,8.8c-3.3,1.9-6.7,2.1-10.3,1c-4.5-1.4-8.3-4.1-11.4-7.6
			c-5.3-5.9-9.7-12.4-13.5-19.3c-2.7-5-5.3-10.1-7.1-15.5c-1.1-3.2-1.9-6.4-1.9-9.8c-0.1-6,2.3-10.8,7.3-14.2
			c1.7-1.2,3.1-2.7,4.8-3.8c3.3-2.2,6.9-3.8,10.5-5.6c4-2.1,8.2-3.5,12.6-4.6c3.5-0.8,7-0.8,10.5-0.2c2.3,0.4,4.7,0.7,6.9,1.6
			c6.2,2.5,10.1,7.1,11.6,13.6C468,334.3,468.3,337.3,468.2,340.3z"/>
		<path id="XMLID_248_" class="st5" d="M363.6,424.8c3.7-0.2,7.2,0.7,10.8,1.4c5,0.9,9.8,2.3,14.4,4.3c7.2,3,12.2,8.3,15.1,15.5
			c1.6,4,2.4,8.2,2.2,12.5c-0.4,7.9-2.2,15.5-6.7,22.2c-3.4,5.1-7.8,9-13.7,11c-6.7,2.3-12.9,0.9-18.3-3.5c-3.2-2.6-5.8-5.8-8.4-9
			c-2.9-3.5-5.8-6.9-8.4-10.6c-3.6-5.2-6.8-10.6-8.7-16.7c-1.2-3.8-1.7-7.7-0.5-11.6c1.7-5.7,5.3-9.8,10.8-12
			c0.7-0.3,1.4-0.7,2.1-1.1c2.5-1.7,5.3-2.4,8.3-2.3C362.8,424.8,363.2,424.8,363.6,424.8z"/>
		<path id="XMLID_247_" class="st10" d="M351.6,381c0-4.4,0.4-8.3,1.9-12c1-2.5,2.4-4.8,4.2-6.9c0.6-0.8,1.4-1.4,2.3-1.9
			c3.3-1.8,6.8-3.5,10.5-4.4c4.4-1.1,8.8-0.9,13.2,0c3.1,0.7,6.2,1.5,9,3.1c4.5,2.8,7.6,6.6,8.3,12c0.5,3.7-0.4,7.2-2.1,10.4
			c-1.8,3.3-4.1,6.1-6.7,8.7c-4.2,4.1-8.6,7.8-13.7,10.7c-3,1.8-6.3,2.8-9.8,2.9c-6.6,0.3-11.6-3-14.4-9.3c-1.3-3-1.9-6.2-2.2-9.5
			C351.6,383.4,351.6,382,351.6,381z"/>
		<g id="XMLID_230_">
			<path id="XMLID_237_" class="st3" d="M383.1,396.3c-1.3-1.3-2.6-2.4-4.2-2.9c-0.3-0.1-0.7-0.3-1-0.4c-0.2-0.1-0.4-0.3-0.4-0.6
				c0.1-0.3,0.4-0.2,0.6-0.2c1.6,0.2,3.1,0.8,4.3,1.8c2.2,1.7,4.1,3.7,4.6,6.6c0.3,1.8,0.4,3.6-0.1,5.6c1.1-1.4,1.5-2.8,1.6-4.3
				c0.2-3.5-1.2-6.2-3.7-8.5c-1.8-1.7-3.8-3.1-5.7-4.7c-3.4-2.8-5.9-6.2-6.8-10.6c-0.7-3.3-0.3-6.5,0.8-9.7c1.1-3.6,3-6.6,6-9
				c0.1-0.1,0.2-0.2,0.3-0.2c0.2-0.1,0.5-0.4,0.7-0.1c0.2,0.3-0.1,0.5-0.2,0.6c-0.8,0.9-1.8,1.8-2.6,2.7c-2,2.4-3.1,5.2-3.7,8.2
				c-1.4,6.9,0.9,12.4,6.2,16.9c2,1.7,4.1,3.1,6,4.9c2,1.9,3.4,4.1,3.8,6.9c0.6,3.8-0.6,6.9-3.5,9.4c-1.8,1.5-3.9,2.3-6.1,3
				c-2.6,0.8-5.2,1.7-7.5,3.2c-3.1,2.1-5.5,4.8-6.1,8.6c-0.8,4.7,0.3,8.9,3.2,12.7c2.9,3.7,6.7,5.6,11.3,6.3
				c3.5,0.5,6.9,0.2,10.1-1.4c0.2-0.1,0.5-0.2,0.6-0.5c-3,0.4-5.3-0.7-7.4-2.6c-2.1-1.9-3.4-4.2-4-6.9c-1.3-6.5,1.3-12.5,7-16.4
				c2-1.3,4.1-2.3,6.1-3.5c5.3-3.2,8.7-7.7,9.9-13.8c0.9-4.6-1.3-9.7-6.4-12c-1.8-0.8-3.6-1.3-5.3-2.1c-4.5-2.1-7-5.7-7.9-10.6
				c-0.6-3.6-0.1-7,1.4-10.3c2.2-4.7,5.1-9,9-12.4c2.2-1.9,4.6-3.5,7-5.2c1.2-0.9,2.2-1.9,3-3.1c1.2-1.7,1.4-3.6,1.2-5.6
				c-0.3-3.2-1.2-6.2-1.9-9.3c-0.5-2.2,0.2-4.1,1.6-5.7c1.7-2,3.9-3.2,6.5-3.4c1.9-0.2,4.3,0.8,4.8,2.9c0.2,0.8,0.2,1.5,0,2.3
				c-0.1,0.3-0.2,0.5-0.5,0.4c-0.3-0.1-0.3-0.3-0.3-0.5c0,0,0-0.1,0-0.1c-0.1-3.1-1.7-4.5-4.8-3.9c-1.5,0.3-2.8,1-4.1,2
				c1-0.1,1.8-0.2,2.6,0.1c0.8,0.4,1.4,0.9,1.9,1.8c-0.7-0.2-1.1-0.5-1.6-0.8c-1.3-0.9-2.8-0.6-3.9,0.1c-1.1,0.7-1.4,2.1-1.5,3.4
				c-0.1,1.7,0.5,3.3,0.9,5c0.6,2.3,1,4.6,1.2,7c0.2,2.4-0.7,4.5-2.2,6.3c-1.5,1.8-3.4,3.2-5.3,4.5c-5,3.3-8.2,8-9.4,13.9
				c-0.2,1,0.1,1.9,0.4,2.8c1.1,3.8,2.1,7.6,3.9,11.2c2.4,4.7,6.2,7.2,11.2,8.2c2.6,0.5,5.2,0.6,7.8,0.2c3.9-0.7,7.4-2.4,10.3-5.2
				c1.6-1.5,2.3-3.5,2.8-5.6c0-0.2,0.1-0.4,0.1-0.6c0.3-1.4,0.4-1.5,1.9-1.9c0.1-1.5,0.2-3.1,0.3-4.6c0-0.5,0-1,0-1.5
				c0-1.2,0.4-2.1,1.7-2.6c2-0.8,3.2-2.5,3.9-4.5c1-2.9,1.2-5.8,0.5-8.8c0-0.2-0.1-0.4-0.2-0.6c-0.6-1.7-1.4-2.4-2.8-2.4
				c-1.5,0-3,1-3.5,2.5c-0.1,0.2-0.1,0.3-0.1,0.5c-0.1,0.2-0.2,0.5-0.5,0.4c-0.3-0.1-0.3-0.3-0.3-0.6c0.1-0.5,0.2-1,0.4-1.5
				c1-1.9,3.2-2.9,5.3-2.3c1.1,0.3,1.8,1.1,2.3,2.1c0.6,1.2,0.9,2.5,1,3.8c0.2,3.1-0.1,6.1-1.6,8.8c-1,1.8-2.4,3.1-4.4,3.8
				c-0.4,0.1-0.5,0.3-0.6,0.7c-0.2,1.4-0.1,2.8-0.2,4.2c-0.1,0.7-0.3,1.4-0.1,2.1c0.7-0.3,1.3-0.7,1.9-1.1c0.9-0.6,1.9-1.2,2.8-1.8
				c0.4-0.3,0.9-0.6,1.4-0.2c0.5,0.4,0.6,1,0.5,1.6c-0.2,1.7-1.2,3.1-2.4,4.2c-0.5,0.4-1,0.8-1.5,1.1c-1.1,0.7-1.7,1.6-2,2.9
				c0.8-0.5,1.3-1.1,1.9-1.7c1.1-1.1,2.4-1.8,3.9-2.3c2.2-0.7,4.3-1.7,6.5-2.5c0.3-0.1,0.6-0.2,0.8-0.2c1.1-0.3,1.7,0,2.2,1
				c3-0.6,6.1-0.5,9.1,0.2c2.3,0.5,4.1,1.9,5.8,3.5c3.6,3.4,5.7,7.5,6.5,12.4c0.6,3.7,0.8,7.4,0.9,11.1c0.1,4.4,0.4,8.7,0.5,13.1
				c0,1.2,0.1,2.4,0,3.6c0,0.6-0.3,1.1-0.7,1.6c-1.3,1.4-2.9,2.4-4.5,3.4c-0.4,0.3-0.6,0.5-0.6,1c0,2.1,0,4.3,0,6.4
				c-0.1,5.4-0.3,10.8-0.7,16.1c-0.2,2.3-0.2,4.5-0.3,6.8c-0.3,3.7-0.5,7.3-1.6,10.9c-0.9,2.9-2.6,4.9-5.2,6.3
				c-3.1,1.7-6.5,2.5-9.8,3.3c-4.7,1.1-9.4,1.7-14.2,2.2c-5.5,0.6-11.1,1-16.6,1.4c-0.8,0.1-1.6,0.2-2.5,0.3c-0.3,0-0.5,0.2-0.6,0.4
				c-1.1,1.3-2.5,2.3-3.9,3.3c-2.5,1.7-5.2,2-8.1,0.9c-4-1.5-7.1-4.1-10-7.1c-3.4-3.7-6.1-7.9-8.8-12.1c-0.5-0.8-1-1.6-1.5-2.4
				c-1.4,0.7-2.8,1.3-4.3,1.6c-1.4,0.3-2.6-0.1-3.8-0.6c-0.5-0.2-0.7-0.8-1.1-1.2c-2.6,1-5.2,0.4-7.5-0.7c-2.5-1.2-4.1-3.2-4.5-6
				c-0.7,0.2-1.3,0.4-2,0.5c-2.6,0.7-6.4-1.4-7.4-5c-0.8-2.7-0.1-5.2,1.3-7.5c0.7-1.2,1.5-2.3,2.3-3.4c1.2-1.9,0.8-3.9-1.2-5.1
				c-0.9-0.6-1.9-0.9-2.9-1.3c-6.4-2.5-9.9-7.3-11.1-13.9c-0.4-2.1,0-4.3,0.6-6.3c0.1-0.4,0.1-0.7-0.2-1.1c-1.9-3-2.2-6.1-1-9.5
				c1.4-4.1,4.4-6.8,8-8.9c2.7-1.5,5.6-2.5,8.4-3.6c5.3-2.2,9.7-5.5,12.9-10.3c2.2-3.3,3.3-7,3.7-10.9c0.4-3.9-0.1-7.7-0.6-11.6
				c-0.5-3.9-1.1-7.8-1.1-11.7c0.1-5.9,2.6-10.7,7-14.5c3.5-3,7.6-4.8,11.8-6.5c3.1-1.2,6.1-2.4,8.7-4.5c2-1.6,3.9-3.2,5.8-4.9
				c2.9-2.6,6.2-3.8,10-4c2.4-0.2,4.8,0,7,1.1c1.9,0.9,3.2,2.2,4,4.1c0.3,0.6,0.3,1.3,0.2,1.9c0,0.2-0.2,0.4-0.4,0.4
				c-0.3,0-0.4-0.2-0.4-0.4c-0.5-3.4-2.9-5.1-6-5.6c-5.2-1-9.8,0.2-13.9,3.7c-2.5,2.2-5,4.5-7.9,6.3c-2.4,1.5-5,2.4-7.6,3.4
				c-3.7,1.4-7.2,3-10.3,5.5c-3.4,2.8-5.9,6.2-6.7,10.6c-0.3,1.7-0.4,3.4-0.3,5.2c0.2,4,0.9,8,1.4,12c0.5,5,0.8,10-0.7,15
				c-2.1,6.6-6.3,11.4-12.1,15c-2.8,1.7-5.9,2.8-9,4c-2.7,1.1-5.2,2.4-7.4,4.4c-2.8,2.6-4.3,5.9-4.2,9.7c0,1.4,0.5,2.8,1.1,4.2
				c0.3-0.6,0.5-1.1,0.7-1.6c1.3-3,3.7-4.8,6.4-6.3c2-1.1,4.2-1.7,6.3-2.5c4.4-1.6,7.7-4.6,10.6-8.2c0.4-0.6,0.7-1.2,1-1.8
				c0.1-0.3,0.2-0.7,0.7-0.6c0.2,0.7-0.1,1.3-0.4,1.9c-1.1,2.2-2.8,3.9-4.6,5.6c-2.7,2.6-6,4-9.5,5.2c-1.6,0.5-3.1,1.2-4.5,2
				c-3.2,1.8-4.9,4.6-5.9,8.1c-1.4,5.3,0,9.9,3.3,14.1c1.8,2.3,4,3.9,6.7,4.9c1.2,0.5,2.4,0.9,3.4,1.8c2,1.8,2.4,4.1,0.9,6.3
				c-0.6,1-1.3,1.9-1.9,2.9c-0.9,1.3-1.4,2.8-1.6,4.3c-0.4,4,3.5,7.8,7.4,6.6c1.6-0.5,1.9-0.3,2.3,1.3c0.8,3.2,3.1,4.7,6.1,5.3
				c1.2,0.2,2.5,0.5,3.7,0c-3.3-6.8-4.7-14.2-6.7-21.4c-0.3-1.2-0.6-2.3-0.9-3.5c-0.1-0.5-0.4-0.8-0.7-1.1c-1.3-1.2-2.7-2.2-3.9-3.6
				c-2.7-3.3-3.7-7.1-3.2-11.3c0.6-4.8,3.3-8.4,6.7-11.6c1-0.9,2.1-1.8,3-2.9c1.5-1.7,3.4-2.9,5.5-3.5c3.5-1,7.1-1.6,10.7-1.9
				C380.4,395.9,381.7,396.2,383.1,396.3z M376.9,453.2c1.1,1.8,2.2,3.4,3.3,5.1c3,4.6,5.8,9.3,9.5,13.4c2.6,2.9,5.6,5.3,9.3,6.7
				c2,0.7,3.9,0.9,5.9-0.1c2.6-1.4,4.7-3.3,6.2-5.9c2.8-4.8,4.8-9.9,6.5-15.1c1.8-5.3,3.4-10.7,5.2-16c2.2-6.4,4.3-12.8,6-19.3
				c1.1-4.5,2.8-8.6,5.5-12.3c1.2-1.7,1.7-3.6,1.8-5.6c0.1-2.4-0.3-4.9-0.5-7.3c-0.2-1.8-0.3-3.6,0-5.4c0.5-3.3,1.8-6.4,3.3-9.4
				c1.4-2.7,3.2-5.2,4.8-7.8c0.3-0.4,0.5-0.8,0.6-1.4c-0.5,0.1-0.8,0.3-1.1,0.6c-1.6,1.3-3.1,2.7-4.4,4.2c-0.7,0.8-1.5,1.6-2.1,2.6
				c-0.1,0.2-0.4,0.4-0.7,0.3c-0.4-0.2-0.1-0.5-0.1-0.7c0.2-0.6,0.6-1.1,1-1.6c2.1-2.5,4.3-4.9,7.2-6.5c-0.6-0.5-1.2-0.3-1.8,0
				c-2.3,1.5-4.5,3.1-6.3,5.1c-1,1.1-2,2.2-3.1,3.3c-0.2,0.2-0.4,0.4-0.7,0.2c-0.3-0.2-0.1-0.5,0.1-0.8c0.1-0.1,0.2-0.3,0.3-0.4
				c1.8-1.9,3.6-3.8,5.7-5.4c0.1-0.1,0.2-0.1,0.2-0.4c-0.5,0.2-1,0.5-1.6,0.6c-2.2,0.6-4.1,1.8-5.6,3.5c-0.6,0.7-1.4,1.2-2.1,1.8
				c-0.2,0.2-0.5,0.3-0.8,0.1c-0.3-0.2-0.1-0.5,0-0.7c0-0.2,0.1-0.3,0.1-0.5c0.5-2,1.2-3.8,3.1-4.9c1.3-0.7,2.1-1.8,2.8-3.1
				c0.3-0.6,0.5-1.2,0.3-1.9c-1,0.4-1.8,1-2.6,1.6c-1.4,0.9-2.7,1.9-4.3,2.4c-0.2,0.1-0.3,0.2-0.3,0.4c-0.6,2.7-1.5,5.3-2.4,7.9
				c-0.4,1.4-0.7,2.8-0.5,4.3c0.4,3,0.9,5.9,1.3,8.9c0.5,3.8,0.8,7.6,0.5,11.4c0,0.3,0,0.7-0.2,0.8c-0.4,0.3-0.5,0.7-0.6,1.1
				c-0.4,1.3-0.9,2.5-1.4,3.7c-2.1,4.6-4.8,8.8-7.4,13.2c-4.2,7.1-8.7,14.1-14,20.4c-1.1,1.3-2.1,2.6-2.8,4.2
				c-1.7,3.9-1.9,8-1.1,12.2c0.1,0.3,0.2,0.6,0,1c-0.5-0.4-0.6-1-0.8-1.5c-0.7-2.6-1-5.3-0.5-7.9c0.2-0.9,0-1.4-0.8-2
				c-1.1-0.8-2-2-2.9-3.1c-0.1-0.2-0.2-0.5-0.5-0.4c-1.4,0.4-2.9,0.3-4.4,0.6c-2.9,0.7-5.5,2-8,3.4
				C379.6,451.4,378.3,452.3,376.9,453.2z M411.9,473.8c0.9-0.1,1.7-0.2,2.5-0.3c5.1-0.4,10.2-0.7,15.2-1.3
				c5.1-0.6,10.2-1.2,15.3-2.4c3.1-0.7,6.2-1.6,9-3.1c2.2-1.2,3.7-3,4.4-5.5c0.9-3.1,1.1-6.3,1.4-9.5c0.4-4.1,0.5-8.1,0.8-12.2
				c0.3-4.7,0.5-9.4,0.4-14.2c0-1.3,0-2.7,0-4.1c-1,0.4-1.7,0.7-2.5,1c-4.4,1.5-8.9,2.5-13.4,3.5c-0.8,0.2-0.9,0.6-0.9,1.1
				c-0.2,2.4-0.4,4.8-0.7,7.2c-0.6,4.6-1.4,9.2-2.4,13.8c-0.3,1.2-0.6,2.5-0.9,3.8c1-0.2,2-0.5,2.9-0.5c3.3,0.1,6.1,1.3,8.2,3.8
				c0.7,0.8,1.3,1.7,1.6,2.7c0.1,0.3,0.2,0.7-0.2,0.8c-0.4,0.1-0.4-0.3-0.5-0.5c-1.6-3.5-5.5-5.8-9.3-5.5c-2.8,0.2-5.3,1.3-7.8,2.6
				c-5.5,2.9-11.1,5.4-17.1,7.1c-0.3,0.1-0.5,0.2-0.6,0.5C415.8,466.4,414,470.1,411.9,473.8z M402.8,403.1c1.3,0.5,2.5,1,3.7,1.4
				c1.1,0.3,2.3,0.6,3.4,0.6c2.9,0.1,5.6-0.8,8-2.4c2.7-1.7,4.9-3.9,6.9-6.3c0.3-0.4,0.4-0.8,0.3-1.3c-0.2-1.5-0.4-3.1-0.7-4.6
				c-0.2-1.5-0.3-3-0.6-4.4c-0.2-1.3-0.4-2.5-0.5-3.8c0-0.9,0.4-1.7,0.6-2.6c-0.2,0-0.3,0.2-0.4,0.3c-2.2,2.1-4.6,3.7-7.4,4.6
				c-4.4,1.4-8.8,1.3-13.3,0c-3.1-0.9-5.7-2.5-7.7-4.9c-2.4-2.9-3.8-6.3-4.8-9.9c-0.4-1.3-0.7-2.7-1.1-4c-0.1,1.1-0.1,2.3,0,3.4
				c0.3,3.9,1.5,7.5,3.9,10.7c1.5,1.9,3.1,3.7,5.3,4.9c5,2.6,7.3,8,6,13.6C404,399.9,403.5,401.5,402.8,403.1z M360.2,429.4
				c-0.9-4-1.8-7.8-1.9-11.7c-0.1-4,0.2-7.8,1.5-11.7C352.5,412.7,351.9,423.6,360.2,429.4z M390.3,356.3c-0.9,1.1-1.7,2.2-2.4,3.4
				c-2.1,3.5-3.5,7.1-3.1,11.3c0.3,2.8,1,5.4,2.7,7.6c1.8,2.3,4.2,3.6,7.1,4.5c-0.2-0.2-0.2-0.3-0.3-0.3c-2.1-1.9-3.7-4.1-4.7-6.8
				c-2-5.2-2.1-10.4-0.7-15.7C389.3,358.9,389.8,357.6,390.3,356.3z M376,454.3c-1.5,1.2-2.7,2.6-3.8,4.3c2.1,0.3,3.8-0.6,5.6-1.4
				C377.2,456.2,376.6,455.3,376,454.3z"/>
			<path id="XMLID_234_" class="st11" d="M406.7,372.4c-0.5-0.1-0.9,0-1.1-0.3c1.5-2.4,4.5-4.8,7.3-4.4c1.6,0.2,2.9,1.1,4.1,2.2
				c0.2,0.2,0.6,0.6,0.1,1c0,0,0,0.1,0,0.2c0.5,1.3-0.2,2.2-0.8,3.2c-0.6,0.9-1.5,1.4-2.6,1.7c-2.1,0.5-4-0.1-5.7-1.4
				c-0.3-0.2-0.6-0.5-0.9-0.7C406.7,373.4,406.4,373,406.7,372.4z M413.7,371.1c-1.5-0.7-3.3-0.5-4.4,0.5
				C410.7,371.5,412.2,371.4,413.7,371.1z"/>
			<path id="XMLID_233_" class="st11" d="M387.6,330.3c0.2,0.5-0.1,0.7-0.3,1c-2.5,3.4-4.3,7-5.5,11c-0.2,0.8-0.3,1.6-0.6,2.5
				C380.1,342.1,385.2,330.9,387.6,330.3z"/>
			<path id="XMLID_232_" class="st11" d="M430.5,319c-0.2,0-0.3,0-0.3,0c-1.6-1.5-3.6-1.7-5.6-2c-0.5-0.1-0.9-0.2-1.3-0.3
				c-0.3-0.1-0.6-0.3-0.5-0.6c0.1-0.4,0.4-0.4,0.7-0.4c0.6,0.1,1.2,0.1,1.8,0.3c1.7,0.4,3.4,0.7,4.6,2.1
				C430.2,318.3,430.4,318.6,430.5,319z"/>
			<path id="XMLID_231_" class="st11" d="M426.7,384.5c-0.5-0.4-0.3-0.9-0.3-1.3c0-0.6,0.1-1.2,0.4-1.8c0.1-0.2,0.2-0.3,0.5-0.3
				c0.2,0,0.3,0.1,0.3,0.3C427.4,382.5,427.3,383.5,426.7,384.5z"/>
		</g>
		<path id="XMLID_229_" class="st11" d="M452,357.5c-0.6-1.7-1.7-3.1-3.1-3.9c-0.1,0-0.1-0.2,0-0.2c1.4-0.8,2.5-2.2,3.1-3.9
			c0-0.1,0.2-0.1,0.2,0c0.6,1.7,1.7,3.1,3.1,3.9c0.1,0,0.1,0.2,0,0.2c-1.4,0.8-2.5,2.2-3.1,3.9C452.2,357.6,452.1,357.6,452,357.5z"
			/>
		<path id="XMLID_228_" class="st11" d="M353.4,472.3c-0.6-1.7-1.7-3.1-3.1-3.9c-0.1,0-0.1-0.2,0-0.2c1.4-0.8,2.5-2.2,3.1-3.9
			c0-0.1,0.2-0.1,0.2,0c0.6,1.7,1.7,3.1,3.1,3.9c0.1,0,0.1,0.2,0,0.2c-1.4,0.8-2.5,2.2-3.1,3.9C353.6,472.4,353.5,472.4,353.4,472.3
			z"/>
		<path id="XMLID_227_" class="st11" d="M441.8,343.3c-0.4-1.1-1.1-1.9-2-2.5c0,0,0-0.1,0-0.1c0.9-0.5,1.6-1.4,2-2.5
			c0-0.1,0.1-0.1,0.1,0c0.4,1.1,1.1,1.9,2,2.5c0,0,0,0.1,0,0.1c-0.9,0.5-1.6,1.4-2,2.5C441.9,343.4,441.8,343.4,441.8,343.3z"/>
	</g>
	<g id="XMLID_304_">
		<g id="XMLID_307_">
			<g id="XMLID_308_">
				<path id="XMLID_309_" class="st12" d="M618,530.9l-63.3-111.7l-5.2-10c-2.4-4.6-6.9-7.6-12.1-8.1l-10.2-0.8
					c0,0,0.8-11.8-4.8-10.9c-3.6,0.6-16.5,11.7-14,14.9c2.5,3.3,9.8-5.2,9.8-5.2l2.8,20.7c0,0-19.4-11.3-22.5-10.6
					c-3.1,0.7-3.3,4.1-0.8,5.6c14.8,8.8,20.9,20.6,22.3,23.9l-0.1,0l44.9,100.2l-15.3,12.2l18.2,47.6l38.4-26.2
					C621.4,564.7,626.8,545.6,618,530.9z"/>
			</g>
			<g id="XMLID_310_">
				<g id="XMLID_311_">
					
						<rect id="XMLID_698_" x="487.6" y="398.4" transform="matrix(0.8868 0.4621 -0.4621 0.8868 239.4678 -180.6844)" class="st3" width="2.1" height="0.4"/>
				</g>
				<g id="XMLID_312_">
					<path id="XMLID_1007_" class="st3" d="M489.4,398.5l8,0.2l45.3,24.9c1.6,0.9,2.2,2.9,1.4,4.6l0,0c-0.9,1.7-3,2.3-4.6,1.4
						l-45-24l-5.5-6.2C488.7,399.1,489,398.5,489.4,398.5z"/>
				</g>
				<g id="XMLID_313_">
					<polygon id="XMLID_1005_" class="st4" points="538.2,421.2 534.9,427.3 533.1,426.4 536.3,420.2 					"/>
				</g>
			</g>
		</g>
		<g id="XMLID_314_">
			<path id="XMLID_315_" class="st12" d="M356.1,423.4c-3.2-0.3-15.2,10.4-15.2,10.4l-5.9-21.4c0,0,8,0.7,10.1-2.8
				c2.1-3.5-19.4-3.2-19.9-0.8c-0.5,2.4,1.2,8.8,1.2,8.8l-8.2,1.6c-6.9,1.3-12.1,7-12.9,13.9l-1.3,11.4l0.2,0.1L241,550.4
				c-10.1,16.8-6.6,38.4,8.2,51.2l63.4,45l23.7-51.6l-46.9-30.8L343,460.7c0,0,12.1-30.3,14.5-31.8
				C360,427.4,359.3,423.8,356.1,423.4z"/>
		</g>
		<g id="XMLID_316_">
			<path id="XMLID_317_" class="st8" d="M577.4,601.7l-0.7-7.4c-0.9-8.7-5.3-16.7-12.2-22.1l0,0c-8.1-6.3-12.7-16.1-12.3-26.4
				l0.1-3.1l-32.4,19.9c0,0-4.7,3-9.6,7.9l-0.1-0.2c0,0-69.2,1.1-169.6,15.8l-38.1-13.8l3.3,2.6c1.8,10.1-1.6,19-8.7,26.4v0
				c-6.1,6.3-9.3,14.8-8.9,23.6l0.3,7.4c0,0,22.7,14.8,39.2,20.4c0.2,0.1,0.4,0.1,0.6,0.2c19.3,8.6,50.1,18.4,88.3,16.9
				c61.8-2.5,112.6-35.4,119.3-39.9C551.6,621.9,577.4,601.7,577.4,601.7z"/>
		</g>
		<g id="XMLID_318_">
			<g id="XMLID_319_">
				<g id="XMLID_320_">
					<path id="XMLID_321_" class="st3" d="M340.5,586.2c0,0,0.3,0.2,0.7,0.5c0.4,0.4,1,0.9,1.8,1.7c1.5,1.5,3.6,3.8,5.8,6.9
						c2.2,3.1,4.4,7.2,5.8,12.1c1.4,4.9,2.3,10.5,1.4,16.4c-0.4,2.9-1.3,5.7-2.5,8.2c-1.2,2.5-2.6,4.7-4.1,6.8
						c-2.9,4.2-6.2,7.4-9.5,9.5c-3.2,2.2-6.2,3.2-8.2,3.9c-1,0.3-1.8,0.5-2.4,0.6c-0.5,0.1-0.8,0.2-0.8,0.1c0-0.1,1.1-0.4,3.1-1.1
						c2-0.7,4.9-1.9,7.9-4.1c3.1-2.1,6.3-5.4,9.1-9.5c1.4-2.1,2.8-4.3,4-6.7c1.1-2.4,2-5.1,2.4-8c0.9-5.7,0.1-11.2-1.3-16
						c-1.3-4.8-3.4-8.8-5.5-12c-2.1-3.2-4.1-5.5-5.5-7.1C341.3,587.1,340.5,586.3,340.5,586.2z"/>
				</g>
			</g>
			<g id="XMLID_992_" class="st13">
				<g id="XMLID_323_">
					<path id="XMLID_324_" d="M517.2,640.9c5-3.6,2.5-10.9-3-13.5c-5.6-2.6-12.1-1-18,0.9c-18.9,6.2-36.7,15.2-55.6,21.5
						c-18.9,6.2-39.5,9.6-58.6,4c-13.3-3.9-22.2-12.6-36-11.1c-6.3,0.7-8.2,8.7-17.5,10.6c0,0,17.2,8.1,41.6,13.1
						c15.3,3.1,33.7,4.6,51.9,3.2c18.1-1.4,36.8-5.4,52.4-10.5C499.4,650.9,517.2,640.9,517.2,640.9z"/>
				</g>
			</g>
			<g id="XMLID_322_" class="st13">
				<path id="XMLID_991_" d="M355.5,612.3c0,0,1.6-16.8-8.5-27l-6.8,1C340.2,586.3,349.1,592.7,355.5,612.3z"/>
			</g>
			<g id="XMLID_325_">
				<g id="XMLID_326_">
					<path id="XMLID_989_" class="st12" d="M387.7,567.6c-0.3,0.9,3.4,39.8,3.4,39.8s19.7,27.5,50.7,0.7l3.7-42.4L387.7,567.6z"/>
				</g>
				<g id="XMLID_327_" class="st13">
					<path id="XMLID_987_" d="M391.1,607.4c0,0-9.1-15.2-11.7-26.4l7.5-0.9l1.8,2.1L391.1,607.4z"/>
				</g>
			</g>
			<g id="XMLID_328_">
				<g id="XMLID_329_">
					<path id="XMLID_330_" class="st3" d="M553.8,618.4c0,0-0.2,0.2-0.8,0.5c-0.5,0.3-1.3,0.8-2.3,1.3c-2,1.1-5,2.6-9.1,3.5
						c-2,0.4-4.3,0.7-6.7,0.5c-2.4-0.2-5-0.7-7.6-1.6c-5.2-1.8-10.4-5.1-14.6-9.9c-2.1-2.4-3.7-5-5-7.8c-1.2-2.7-2.1-5.5-2.8-8.1
						c-1.3-5.3-1.7-10.3-1.1-14.4c0.6-4.1,2.1-7.2,3.4-9.1c0.6-1,1.2-1.6,1.6-2.1c0.4-0.5,0.6-0.7,0.7-0.7c0,0-0.2,0.3-0.5,0.8
						c-0.4,0.5-0.9,1.2-1.5,2.2c-1.2,1.9-2.6,5-3.1,9c-0.5,4-0.1,8.9,1.3,14.1c0.7,2.6,1.6,5.3,2.8,7.9c1.2,2.6,2.8,5.2,4.8,7.5
						c8.1,9.4,20.3,12.8,28.1,10.9c4-0.8,7-2.2,9.1-3.2C552.7,619,553.8,618.4,553.8,618.4z"/>
				</g>
			</g>
			<g id="XMLID_331_">
				<g id="XMLID_332_">
					<path id="XMLID_333_" class="st3" d="M509.7,608.6c0,0-0.1,0.1-0.3,0.2c-0.3,0.2-0.6,0.4-1.1,0.6c-1,0.5-2.4,1.3-4.1,2.2
						c-1.8,1-4,2.1-6.7,3.3c-2.6,1.2-5.6,2.7-9,4.1c-3.4,1.4-7.1,3-11.1,4.3c-4,1.5-8.4,2.9-13,4.3c-9.3,2.7-19.7,5-30.7,6.6
						c-11.1,1.5-21.7,2.2-31.4,2.3c-2.4,0-4.8,0-7.1-0.1c-2.3,0-4.5-0.2-6.7-0.3c-4.3-0.2-8.3-0.6-11.9-0.9
						c-3.6-0.3-6.9-0.8-9.8-1.2c-2.9-0.4-5.3-0.8-7.4-1.2c-1.9-0.4-3.5-0.6-4.6-0.9c-0.5-0.1-0.9-0.2-1.2-0.2
						c-0.3-0.1-0.4-0.1-0.4-0.1c0,0,0.1,0,0.4,0c0.3,0,0.7,0.1,1.2,0.2c1.1,0.2,2.7,0.4,4.6,0.7c2,0.3,4.5,0.7,7.4,1
						c2.9,0.3,6.1,0.8,9.8,1c3.6,0.3,7.6,0.7,11.9,0.8c2.1,0.1,4.4,0.2,6.6,0.2c2.3,0,4.6,0,7,0c9.6-0.1,20.2-0.8,31.2-2.3
						c11-1.6,21.3-3.9,30.6-6.5c4.6-1.4,9-2.7,13-4.2c4.1-1.3,7.8-2.9,11.1-4.2c3.4-1.3,6.4-2.8,9-3.9c2.7-1.1,4.9-2.3,6.7-3.2
						c1.8-0.9,3.2-1.6,4.2-2.1c0.4-0.2,0.8-0.4,1.1-0.5C509.6,608.7,509.7,608.6,509.7,608.6z"/>
				</g>
			</g>
			<g id="XMLID_976_" class="st13">
				<g id="XMLID_335_">
					<path id="XMLID_336_" d="M408.5,618.3c-1.5,3.8-0.9,8.3,1.4,11.6c2.3,3.3,6.3,5.4,10.4,5.3c1.8,0,3.8-0.5,5.5,0.2
						c2.1,0.8,3.2,3,4.6,4.7c4.1,5.3,11.6,7.6,17.9,5.6c6.3-2,11.1-8.2,11.4-14.9c0.1-1.3,0-2.7,0.8-3.6c1.8-2.1,5-0.1,7.4,1.2
						c6.1,3.2,14.3,0,17.7-6c3.4-6,2.3-13.9-1.6-19.6c-3.9-5.7-10.2-9.4-16.8-11.4c-4.2-1.3-8.9-2.1-12.2-5
						c-4.8-4.2-5.2-11.4-5.3-17.8"/>
				</g>
			</g>
		</g>
		<g id="XMLID_334_">
			<g id="XMLID_337_">
				<path id="XMLID_974_" class="st3" d="M459,497.7c4.3,9.5,6.6,15,7.3,25.1c1.2,18.4-2.9,33.6-13,49.1c-0.1,0.1,0.1-0.1,0,0
					c-7.4,11.2-29.5,25.3-36,27.2c-6.5,1.9-32.6-14.3-37.8-32.5c-5.3-18.2-12-29.3-3.1-61.1c9.2-32.6,53.1-33.8,53.1-33.8
					s29.5,0,34.9,17.1C469.7,505.9,459,497.7,459,497.7z"/>
			</g>
			<g id="XMLID_338_">
				<path id="XMLID_339_" class="st3" d="M412.5,534.3c-7.2,0.7-14,5.5-17,12.1c-3.1,6.6-2.4,14.8,1.7,20.8
					c3.6,5.3,9.6,8.9,12.5,14.7c2.6,5.3,2,11.6,0.8,17.4c-1.2,5.8-3.1,11.5-3,17.4c0.1,5.9,2.7,12.3,8,14.8c5.3,2.5,13.1-1,13.2-6.9
					c-1.8,9.3,9,18.5,17.9,15.3c8.9-3.3,11.3-17.2,3.9-23.2c6.5,1.5,13.9,1.5,19.5-2.2c5.6-3.7,8.4-12,4.6-17.5
					c-4.5-6.5-14.8-5.9-20.5-11.5c-4.7-4.6-5-11.9-5.3-18.5c-0.5-9.4-1.9-19.1-6.7-27.2c-4.8-8.1-13.7-14.4-23.1-13.8"/>
			</g>
			<g id="XMLID_340_">
				<g id="XMLID_341_">
					<path id="XMLID_342_" class="st1" d="M429.4,624c0,0-0.3-0.1-0.9-0.4c-0.3-0.1-0.7-0.4-1.1-0.6c-0.4-0.3-0.9-0.6-1.4-1
						c-2-1.6-4.6-4.6-6.2-8.9c-0.8-2.2-1.5-4.7-1.8-7.4c-0.3-2.7-0.2-5.7,0.3-8.7c0.9-6.1,3.2-12.5,5.7-19
						c2.5-6.5,4.8-12.8,5.7-18.8c0.4-3,0.5-5.9,0.3-8.5c-0.3-2.7-0.9-5.1-1.7-7.2c-1.6-4.3-4.1-7.2-6-8.8c-1.9-1.6-3.3-2.2-3.2-2.3
						c0,0,0.3,0.1,0.9,0.4c0.3,0.1,0.7,0.3,1.1,0.6c0.4,0.3,0.9,0.6,1.4,1c2.1,1.6,4.6,4.5,6.4,8.8c0.9,2.2,1.6,4.6,1.9,7.4
						c0.3,2.7,0.2,5.7-0.2,8.7c-0.8,6.1-3.1,12.5-5.6,19c-2.5,6.5-4.8,12.8-5.7,18.8c-0.5,3-0.6,5.9-0.4,8.5
						c0.2,2.7,0.8,5.1,1.6,7.2c1.6,4.3,4,7.2,5.9,8.9C428.2,623.3,429.5,623.9,429.4,624z"/>
				</g>
			</g>
			<g id="XMLID_343_">
				<g id="XMLID_344_">
					<path id="XMLID_345_" class="st4" d="M456.1,616.9c0,0-0.4,0.1-1.1,0.2c-0.7,0.1-1.8,0.2-3.2,0.1c-2.8-0.1-7-1-11-4.2
						c-2-1.6-3.8-3.8-5.1-6.5c-1.3-2.7-2.1-5.9-1.9-9.3c0.2-3.4,1.2-6.8,2.5-10.1c1.3-3.4,2.7-6.8,3.7-10.4c2-7.3,2.2-14.7,0.8-21.1
						c-1.3-6.4-4.2-11.7-7.3-15.6c-3.1-3.9-6.4-6.3-8.8-7.7c-2.4-1.4-3.8-2-3.8-2c0,0,0.4,0.1,1.1,0.4c0.7,0.3,1.7,0.7,2.9,1.4
						c2.4,1.3,5.9,3.7,9.1,7.6c3.2,3.8,6.2,9.3,7.6,15.8c1.4,6.5,1.2,14-0.8,21.5c-1,3.7-2.5,7.2-3.7,10.5c-1.3,3.3-2.3,6.6-2.5,9.9
						c-0.4,6.5,2.8,12.1,6.5,15.2c3.8,3.2,7.9,4.1,10.6,4.3C454.5,617.2,456.1,616.8,456.1,616.9z"/>
				</g>
			</g>
			<g id="XMLID_346_">
				<g id="XMLID_347_">
					<path id="XMLID_348_" class="st5" d="M429.3,527.8c-0.1,0.1-1-1.2-3.1-2.4c-2-1.2-5.5-2.1-9-0.9c-3.4,1.3-5.5,4.3-6.2,6.6
						c-0.8,2.3-0.6,3.9-0.8,3.9c-0.1,0-0.2-0.4-0.2-1.1c-0.1-0.7,0-1.7,0.4-3c0.6-2.4,2.7-5.8,6.5-7.2c3.8-1.4,7.6-0.2,9.7,1.2
						c1.1,0.7,1.8,1.5,2.2,2C429.1,527.4,429.3,527.7,429.3,527.8z"/>
				</g>
			</g>
			<g id="XMLID_349_">
				<g id="XMLID_350_">
					<path id="XMLID_351_" class="st4" d="M412.4,600.1c0,0-0.2-0.1-0.6-0.5c-0.4-0.3-1-0.9-1.6-1.6c-1.4-1.5-3.2-3.8-4.8-7
						c-1.6-3.2-3.1-7.4-3.2-12.2c0-2.4,0.4-5,1.5-7.4c1.2-2.4,3-4.4,4.8-6.4c1.8-2,3.5-4.1,4.2-6.5c0.7-2.4,0.4-4.8-0.2-7
						c-1.3-4.4-3.7-8.2-4.1-11.9c-0.6-3.6,0.2-6.7,1.5-8.3c0.6-0.8,1.2-1.3,1.7-1.6c0.5-0.3,0.7-0.4,0.7-0.3
						c0.1,0.1-1.1,0.5-2.1,2.1c-1.1,1.6-1.7,4.5-1.1,8c0.5,3.5,2.8,7.1,4.3,11.7c0.7,2.3,1.1,4.9,0.3,7.5c-0.8,2.6-2.5,4.8-4.3,6.8
						c-1.8,2-3.6,4-4.7,6.2c-1.1,2.2-1.5,4.7-1.5,7c0,4.6,1.4,8.7,2.9,11.9c1.5,3.2,3.2,5.5,4.5,7
						C411.6,599.3,412.4,600.1,412.4,600.1z"/>
				</g>
			</g>
			<g id="XMLID_352_">
				<g id="XMLID_353_">
					<path id="XMLID_354_" class="st4" d="M449.9,582c-0.1,0,0-0.9,0.1-2.5c0.1-1.6,0.3-4,0.4-6.9c0.1-5.8-0.2-13.9-3.2-22.3
						c-3-8.3-8.6-14.5-13.4-17.7c-4.8-3.3-8.5-3.9-8.4-4.1c0,0,0.2,0,0.7,0.1c0.4,0.1,1.1,0.2,1.8,0.5c1.6,0.5,3.8,1.4,6.3,3
						c5,3.1,10.8,9.4,13.9,17.9c3.1,8.5,3.3,16.8,3,22.6c-0.2,2.9-0.4,5.3-0.7,6.9C450.2,581.1,450,582,449.9,582z"/>
				</g>
			</g>
			<g id="XMLID_355_">
				<g id="XMLID_356_">
					<path id="XMLID_357_" class="st4" d="M433.8,532c-0.1,0,0-1.6,0.1-4.2c0.1-2.5,0.1-6.2-1.5-9.6c-1.5-3.5-4.7-5.5-7.1-6.1
						c-2.4-0.7-4-0.4-4.1-0.5c0-0.1,1.6-0.6,4.2-0.1c1.3,0.3,2.8,0.9,4.2,1.9c1.4,1,2.7,2.6,3.5,4.5c1.7,3.8,1.5,7.5,1.3,10.1
						C434.3,530.4,433.9,532,433.8,532z"/>
				</g>
			</g>
			<g id="XMLID_358_">
				<g id="XMLID_359_">
					<path id="XMLID_360_" class="st14" d="M436.7,499c-0.1,0.1-0.9-0.4-2.4-0.9c-1.5-0.5-3.7-1-6-0.8c-2.4,0.2-4.4,1.1-5.8,1.8
						c-1.4,0.8-2.1,1.4-2.2,1.3c-0.1-0.1,0.5-0.9,1.9-1.9c1.3-1,3.5-2,6.1-2.2c2.6-0.2,4.9,0.4,6.4,1.1
						C436,498.2,436.8,498.9,436.7,499z"/>
				</g>
			</g>
			<g id="XMLID_361_">
				<g id="XMLID_362_">
					<path id="XMLID_363_" class="st4" d="M458.1,498.9c-0.1,0.1-1.4-2.1-4.5-4.5c-3-2.4-8.2-5-14.2-4.9c-6,0.1-11.1,2.8-14,5.3
						c-3,2.5-4.3,4.7-4.4,4.6c0,0,0.2-0.6,0.8-1.5c0.6-0.9,1.6-2.2,3.1-3.6c2.9-2.7,8.2-5.6,14.5-5.7c6.3-0.1,11.6,2.7,14.6,5.4
						c1.5,1.3,2.6,2.6,3.2,3.5C457.8,498.3,458.1,498.9,458.1,498.9z"/>
				</g>
			</g>
			<g id="XMLID_364_">
				<g id="XMLID_365_">
					<path id="XMLID_366_" class="st14" d="M448.1,474c0,0.2-2.3,0.3-5.8,1.3c-3.5,1-8.2,3.2-12.3,7c-4.1,3.8-6.6,8.3-7.9,11.7
						c-1.3,3.4-1.6,5.7-1.8,5.7c-0.1,0,0-0.6,0.1-1.6c0.1-1,0.5-2.5,1.1-4.3c1.2-3.5,3.6-8.3,7.9-12.2c4.2-3.9,9.1-6,12.7-6.9
						c1.8-0.5,3.3-0.7,4.3-0.7C447.5,473.9,448.1,474,448.1,474z"/>
				</g>
			</g>
			<g id="XMLID_367_">
				<g id="XMLID_368_">
					<path id="XMLID_369_" class="st4" d="M420.3,473.8c0.1,0.1-1,1.3-2.2,3.5c-1.2,2.2-2.4,5.5-2.4,9.4c0,3.8,1.3,7.1,2.6,9.3
						c1.2,2.2,2.4,3.3,2.2,3.4c-0.1,0.1-1.4-0.9-2.8-3.1c-1.4-2.1-2.9-5.6-2.9-9.6c0-4,1.3-7.5,2.7-9.7
						C418.9,474.8,420.2,473.8,420.3,473.8z"/>
				</g>
			</g>
			<g id="XMLID_370_">
				<g id="XMLID_371_">
					<path id="XMLID_372_" class="st4" d="M395.8,480.4c0.2,0,0.2,1.9,1.4,4.6c1.2,2.7,3.7,6,7.5,8.4c3.8,2.4,7.8,3.6,10.6,4.4
						c2.9,0.8,4.7,1.3,4.6,1.4c0,0.1-1.9-0.1-4.8-0.8c-2.9-0.7-7-1.8-11-4.2c-4-2.5-6.6-6-7.7-8.9c-0.5-1.4-0.8-2.7-0.8-3.5
						C395.7,480.9,395.8,480.4,395.8,480.4z"/>
				</g>
			</g>
			<g id="XMLID_373_">
				<g id="XMLID_374_">
					<path id="XMLID_375_" class="st4" d="M409.3,558c0,0-0.3,0-0.9-0.2c-0.6-0.1-1.4-0.4-2.4-0.9c-2.1-0.8-5-2.3-8.1-4.8
						c-3.1-2.5-6.4-6.2-8.6-11c-2.3-4.8-3.2-10.9-2.1-16.9c1.1-6,4.2-11.4,8.3-14.8c4.1-3.5,8.8-5.1,12.7-5.7c4-0.5,7.3,0,9.4,0.6
						c1.1,0.3,1.9,0.6,2.4,0.9c0.5,0.2,0.8,0.4,0.8,0.4c0,0.1-1.1-0.4-3.3-1c-2.1-0.5-5.3-0.9-9.2-0.3c-3.8,0.6-8.4,2.3-12.3,5.7
						c-3.9,3.3-6.8,8.5-7.9,14.4c-1.1,5.9-0.2,11.7,1.9,16.4c2.1,4.7,5.3,8.3,8.2,10.9c3,2.5,5.8,4.1,7.8,5
						C408.2,557.5,409.4,557.9,409.3,558z"/>
				</g>
			</g>
			<g id="XMLID_376_">
				<g id="XMLID_377_">
					<path id="XMLID_378_" class="st4" d="M407,576.7c0,0-0.4-0.1-1.1-0.5c-0.7-0.4-1.8-0.9-3.1-1.7c-2.6-1.6-6.2-4.1-10.2-7.8
						c-3.9-3.8-8.1-8.8-11.4-15.2c-1.7-3.2-3.2-6.7-4.3-10.4c-1.1-3.8-1.9-7.8-1.8-12c0.1-4.2,1.2-8.3,3.1-11.8
						c1.9-3.5,4.4-6.4,7.1-8.8c5.5-4.8,12-6.9,17.3-7.7c5.4-0.8,9.8-0.5,12.8-0.2c1.5,0.2,2.7,0.4,3.4,0.6c0.8,0.2,1.2,0.3,1.2,0.3
						c0,0-0.4,0-1.2-0.1c-0.8-0.1-2-0.3-3.5-0.4c-3-0.3-7.4-0.5-12.7,0.4c-5.2,0.9-11.5,3.1-16.9,7.7c-5.3,4.5-9.8,11.7-9.9,19.9
						c-0.1,4.1,0.7,8,1.8,11.7c1.1,3.7,2.6,7.2,4.2,10.3c3.3,6.3,7.4,11.4,11.1,15.2c3.8,3.8,7.4,6.4,9.9,8
						C405.5,575.8,407,576.6,407,576.7z"/>
				</g>
			</g>
			<g id="XMLID_379_">
				<g id="XMLID_380_">
					<path id="XMLID_381_" class="st4" d="M449.8,557.7c-0.2-0.1,2.7-3.5,4.7-10.2c1-3.3,1.7-7.5,1.4-12c-0.2-4.6-1.4-9.6-3.9-14.2
						c-5-9.4-13.5-15.2-20.2-17c-3.3-0.9-6.2-0.8-8.1-0.4c-1.9,0.4-2.9,1-2.9,0.9c0,0,0.2-0.2,0.7-0.4c0.5-0.2,1.2-0.5,2.1-0.8
						c1.9-0.5,4.9-0.7,8.3,0.1c3.5,0.8,7.4,2.7,11.1,5.6c3.7,2.9,7.2,6.8,9.7,11.6c2.6,4.8,3.8,9.9,3.9,14.6
						c0.2,4.7-0.6,8.9-1.7,12.3c-1.1,3.4-2.5,5.9-3.5,7.6c-0.5,0.8-1,1.5-1.3,1.9C450,557.5,449.8,557.7,449.8,557.7z"/>
				</g>
			</g>
		</g>
	</g>
</g>
<g id="XMLID_1436_">
	<g id="XMLID_717_">
		<rect id="XMLID_718_" x="440.9" y="77.8" class="st10" width="273" height="203.6"/>
	</g>
	<g id="XMLID_714_">
		<g id="XMLID_715_">
			<path id="XMLID_716_" class="st3" d="M713.9,281.4c0,0,0-1.3,0-3.7c0-2.5,0-6.1,0-10.8c0-9.5-0.1-23.4-0.1-41.1
				c0-35.5-0.1-86.3-0.2-147.9l0.4,0.4c-77,0-171.3,0.1-273,0.1h0l0.5-0.5c0,73.2,0,142.5,0,203.6l-0.4-0.4
				c80.8,0.1,149,0.2,197.1,0.2c24,0,43,0.1,56,0.1c6.5,0,11.5,0,14.9,0c1.7,0,3,0,3.8,0C713.5,281.4,713.9,281.4,713.9,281.4
				s-0.4,0-1.3,0c-0.9,0-2.1,0-3.8,0c-3.4,0-8.3,0-14.8,0c-13,0-31.9,0.1-55.9,0.1c-48.1,0.1-116.4,0.1-197.3,0.2l-0.4,0l0-0.4
				c0-61.1,0-130.4,0-203.6l0-0.5h0.5h0c101.8,0,196.1,0.1,273,0.1h0.4l0,0.4c-0.1,61.7-0.1,112.6-0.2,148.2c0,17.7-0.1,31.6-0.1,41
				c0,4.7,0,8.3,0,10.7C714,280.2,713.9,281.4,713.9,281.4z"/>
		</g>
	</g>
</g>
<g id="XMLID_390_">
	<g id="XMLID_391_">
		<g id="XMLID_712_">
			<rect id="XMLID_713_" x="581.7" y="198" class="st1" width="166" height="64.5"/>
		</g>
		<g id="XMLID_392_">
			<g id="XMLID_709_">
				<path id="XMLID_711_" class="st3" d="M747.7,262.6c0,0,0-0.4,0-1.2c0-0.8,0-1.9,0-3.3c0-3,0-7.3-0.1-12.8
					c0-11.1-0.1-27.2-0.2-47.2l0.3,0.3c-41.7,0-100.7,0.1-166,0.1h0l0.5-0.5c0,22.6,0,44.4,0,64.5l-0.4-0.4
					c48,0.1,89.4,0.2,118.9,0.2c14.7,0.1,26.5,0.1,34.6,0.1c4,0,7.1,0,9.3,0.1c1,0,1.8,0,2.4,0C747.4,262.5,747.7,262.6,747.7,262.6
					s-0.3,0-0.8,0c-0.6,0-1.3,0-2.4,0c-2.1,0-5.2,0-9.2,0.1c-8.1,0-19.8,0.1-34.5,0.1c-29.6,0.1-71.1,0.1-119.2,0.2l-0.4,0v-0.4
					c0-20.2,0-42,0-64.5l0-0.5h0.5h0c65.3,0.1,124.3,0.1,166,0.1l0.3,0l0,0.3c-0.1,20.1-0.1,36.2-0.2,47.4c0,5.5-0.1,9.8-0.1,12.8
					c0,1.4,0,2.5,0,3.3C747.7,262.2,747.7,262.6,747.7,262.6z"/>
			</g>
		</g>
	</g>
	<g id="XMLID_393_">
		<rect id="XMLID_1429_" x="581.7" y="198" class="st3" width="166" height="13.8"/>
	</g>
	<g id="XMLID_394_">
		<rect id="XMLID_1427_" x="601.4" y="222.4" class="st3" width="16.3" height="16.3"/>
	</g>
	<g id="XMLID_395_">
		<rect id="XMLID_1425_" x="611.3" y="232.3" class="st3" width="16.3" height="16.3"/>
	</g>
	<g id="XMLID_396_">
		<rect id="XMLID_1423_" x="640.3" y="222.4" class="st3" width="16.3" height="16.3"/>
	</g>
	<g id="XMLID_397_">
		<g id="XMLID_398_">
			<rect id="XMLID_399_" x="650.2" y="232.3" class="st14" width="16.3" height="16.3"/>
		</g>
		<g id="XMLID_400_">
			<g id="XMLID_401_">
				<path id="XMLID_402_" class="st3" d="M666.5,248.6c0,0-0.1-0.5-0.1-1.3c0-0.9-0.1-2-0.1-3.4c-0.1-2.9-0.2-6.9-0.2-11.7l0.4,0.4
					c-4.8,0-10.4,0-16.3,0.1c-0.1,0.1,0.9-0.9,0.5-0.5v0v0v0v0v0.1v0.1v0.3l0,0.6l0,1.1c0,0.7,0,1.5,0,2.2c0,1.4,0,2.8,0,4.2
					c0,2.7,0,5.3,0,7.7l-0.4-0.4c4.8,0,8.8,0.1,11.7,0.2c1.3,0,2.4,0.1,3.4,0.1C666,248.5,666.4,248.5,666.5,248.6
					c0,0-0.3,0.1-1.1,0.1c-0.9,0-2,0.1-3.3,0.1c-2.8,0.1-7,0.2-11.9,0.2l-0.4,0l0-0.4c0-2.4,0-5,0-7.7c0-1.4,0-2.8,0-4.2
					c0-0.7,0-1.4,0-2.2l0-1.1l0-0.6v-0.3v-0.1v-0.1v0v0v0v0c-0.4,0.4,0.6-0.6,0.5-0.5c5.9,0,11.5,0,16.3,0.1l0.4,0l0,0.4
					c0,5-0.1,9.1-0.2,11.9c0,1.3-0.1,2.4-0.1,3.3C666.5,248.2,666.5,248.6,666.5,248.6z"/>
			</g>
		</g>
	</g>
	<g id="XMLID_403_">
		<g id="XMLID_404_">
			<g id="XMLID_405_">
				<rect id="XMLID_406_" x="676.5" y="222.4" class="st14" width="16.3" height="16.3"/>
			</g>
			<g id="XMLID_407_">
				<g id="XMLID_408_">
					<path id="XMLID_409_" class="st3" d="M692.8,238.7c0,0-0.1-0.5-0.1-1.3c0-0.9-0.1-2-0.1-3.4c-0.1-2.9-0.2-6.9-0.2-11.7l0.4,0.4
						c-4.8,0-10.4,0-16.3,0.1c-0.1,0.1,0.9-0.9,0.5-0.5v0v0v0v0v0.1v0.1v0.3l0,0.6l0,1.1c0,0.7,0,1.5,0,2.2c0,1.4,0,2.8,0,4.2
						c0,2.7,0,5.3,0,7.7l-0.4-0.4c4.8,0,8.8,0.1,11.7,0.2c1.3,0,2.4,0.1,3.4,0.1C692.4,238.6,692.8,238.7,692.8,238.7
						c0,0-0.3,0.1-1.1,0.1c-0.9,0-2,0.1-3.3,0.1c-2.8,0.1-7,0.2-11.9,0.2l-0.4,0l0-0.4c0-2.4,0-5,0-7.7c0-1.4,0-2.8,0-4.2
						c0-0.7,0-1.4,0-2.2l0-1.1l0-0.6v-0.3l0-0.1v-0.1v0v0v0v0c-0.4,0.4,0.6-0.6,0.5-0.5c5.9,0,11.5,0,16.3,0.1l0.4,0l0,0.4
						c0,5-0.1,9.1-0.2,11.9c0,1.3-0.1,2.4-0.1,3.3C692.9,238.3,692.9,238.7,692.8,238.7z"/>
				</g>
			</g>
		</g>
		<g id="XMLID_410_">
			<g id="XMLID_411_">
				<rect id="XMLID_412_" x="686.4" y="232.3" class="st14" width="16.3" height="16.3"/>
			</g>
			<g id="XMLID_413_">
				<g id="XMLID_414_">
					<path id="XMLID_415_" class="st3" d="M702.7,248.6c0,0-0.1-0.5-0.1-1.3c0-0.9-0.1-2-0.1-3.4c-0.1-2.9-0.2-6.9-0.2-11.7l0.4,0.4
						c-4.8,0-10.4,0-16.3,0.1c-0.1,0.1,0.9-0.9,0.5-0.5v0v0v0v0v0.1v0.1v0.3l0,0.6l0,1.1c0,0.7,0,1.5,0,2.2c0,1.4,0,2.8,0,4.2
						c0,2.7,0,5.3,0,7.7l-0.4-0.4c4.8,0,8.8,0.1,11.7,0.2c1.3,0,2.4,0.1,3.4,0.1C702.3,248.5,702.7,248.5,702.7,248.6
						c0,0-0.3,0.1-1.1,0.1c-0.9,0-2,0.1-3.3,0.1c-2.8,0.1-7,0.2-11.9,0.2l-0.4,0l0-0.4c0-2.4,0-5,0-7.7c0-1.4,0-2.8,0-4.2
						c0-0.7,0-1.4,0-2.2l0-1.1l0-0.6v-0.3v-0.1v-0.1v0v0v0v0c-0.4,0.4,0.6-0.6,0.5-0.5c5.9,0,11.5,0,16.3,0.1l0.4,0l0,0.4
						c0,5-0.1,9.1-0.2,11.9c0,1.3-0.1,2.4-0.1,3.3C702.8,248.2,702.7,248.6,702.7,248.6z"/>
				</g>
			</g>
		</g>
		<g id="XMLID_416_">
			<rect id="XMLID_417_" x="686.4" y="232.3" class="st3" width="6.4" height="6.4"/>
		</g>
	</g>
	<g id="XMLID_418_">
		<g id="XMLID_419_">
			<rect id="XMLID_1400_" x="709.9" y="222.4" class="st3" width="16.3" height="16.3"/>
		</g>
		<g id="XMLID_420_">
			<rect id="XMLID_1398_" x="719.8" y="232.3" class="st3" width="16.3" height="16.3"/>
		</g>
		<g id="XMLID_421_">
			<rect id="XMLID_1396_" x="719.8" y="232.3" class="st1" width="6.4" height="6.4"/>
		</g>
	</g>
</g>
<g id="XMLID_422_">
	<g id="XMLID_423_">
		<rect id="XMLID_1392_" x="621" y="394.9" class="st1" width="159.6" height="62"/>
		<path id="XMLID_424_" class="st15" d="M780.8,457.1h-160v-62.5h160V457.1z M621.2,456.7h159.1v-61.6H621.2V456.7z"/>
	</g>
	<g id="XMLID_427_">
		<rect id="XMLID_1387_" x="621" y="394.9" class="st3" width="159.6" height="13.3"/>
	</g>
	<g id="XMLID_428_">
		<g id="XMLID_429_">
			<g id="XMLID_430_">
				<rect id="XMLID_431_" x="630" y="424.8" class="st14" width="15.8" height="15.8"/>
			</g>
			<g id="XMLID_432_">
				<g id="XMLID_433_">
					<path id="XMLID_434_" class="st3" d="M645.7,440.5c0,0-0.1-0.5-0.1-1.2c0-0.9-0.1-2-0.1-3.2c-0.1-2.8-0.2-6.7-0.2-11.3l0.4,0.4
						c-4.6,0-10,0-15.8,0.1c-0.1,0.1,0.9-0.9,0.5-0.5v0v0v0v0v0.1v0.1v0.3l0,0.5l0,1.1c0,0.7,0,1.4,0,2.1c0,1.4,0,2.7,0,4.1
						c0,2.6,0,5.1,0,7.4l-0.4-0.4c4.6,0,8.5,0.1,11.3,0.2c1.3,0,2.4,0.1,3.2,0.1C645.3,440.5,645.7,440.5,645.7,440.5
						c0.1,0.1-1.5,0.1-4.2,0.2c-2.7,0.1-6.7,0.2-11.6,0.2l-0.4,0l0-0.4c0-2.3,0-4.8,0-7.4c0-1.3,0-2.7,0-4.1c0-0.7,0-1.4,0-2.1
						l0-1.1l0-0.5l0-0.3v-0.1v-0.1v0v0v0v0c-0.4,0.4,0.6-0.6,0.5-0.5c5.7,0,11.1,0,15.8,0.1l0.4,0l0,0.4c0,4.8-0.1,8.8-0.2,11.6
						C645.9,439.1,645.8,440.6,645.7,440.5z"/>
				</g>
			</g>
		</g>
		<g id="XMLID_435_">
			<g id="XMLID_436_">
				<line id="XMLID_437_" class="st1" x1="645.7" y1="424.8" x2="630" y2="440.5"/>
			</g>
			<g id="XMLID_438_">
				<g id="XMLID_439_">
					
						<ellipse id="XMLID_440_" transform="matrix(-0.7071 0.7071 -0.7071 -0.7071 1394.8293 287.5302)" class="st5" cx="637.9" cy="432.6" rx="11.1" ry="0.5"/>
				</g>
			</g>
		</g>
	</g>
	<g id="XMLID_441_">
		<g id="XMLID_442_">
			<rect id="XMLID_443_" x="650.5" y="424.8" class="st3" width="15.8" height="15.8"/>
		</g>
	</g>
	<g id="XMLID_444_">
		<g id="XMLID_445_">
			<rect id="XMLID_446_" x="671" y="424.8" class="st8" width="15.8" height="15.8"/>
		</g>
	</g>
	<g id="XMLID_447_">
		<g id="XMLID_448_">
			<rect id="XMLID_449_" x="691.5" y="424.8" class="st5" width="15.8" height="15.8"/>
		</g>
	</g>
	<g id="XMLID_450_">
		<g id="XMLID_451_">
			<rect id="XMLID_452_" x="712" y="424.8" class="st5" width="15.8" height="15.8"/>
		</g>
	</g>
	<g id="XMLID_453_" class="st7">
		<g id="XMLID_454_">
			<rect id="XMLID_455_" x="712" y="424.8" class="st10" width="15.8" height="15.8"/>
		</g>
	</g>
	<g id="XMLID_456_">
		<g id="XMLID_457_">
			<rect id="XMLID_458_" x="732.5" y="424.8" class="st5" width="15.8" height="15.8"/>
		</g>
	</g>
	<g id="XMLID_459_" class="st6">
		<g id="XMLID_460_">
			<rect id="XMLID_461_" x="732.5" y="424.8" width="15.8" height="15.8"/>
		</g>
	</g>
	<g id="XMLID_462_">
		<g id="XMLID_463_">
			<rect id="XMLID_464_" x="753.1" y="424.8" class="st5" width="15.8" height="15.8"/>
		</g>
	</g>
	<g id="XMLID_465_" class="st16">
		<g id="XMLID_466_">
			<rect id="XMLID_467_" x="753.1" y="424.8" class="st5" width="15.8" height="15.8"/>
		</g>
	</g>
</g>
<g id="XMLID_468_">
	<g id="XMLID_469_">
		<g id="XMLID_470_">
			<g id="XMLID_471_">
				<g id="XMLID_472_">
					<rect id="XMLID_473_" x="151.5" y="77.8" class="st10" width="223.1" height="155.4"/>
				</g>
				<g id="XMLID_474_">
					<g id="XMLID_475_">
						<path id="XMLID_476_" class="st3" d="M374.6,233.2c0,0,0-1,0-2.8c0-1.9,0-4.6,0-8.2c0-7.2-0.1-17.8-0.1-31.3
							c0-27-0.1-65.8-0.2-113l0.4,0.4c-62,0-139.4,0.1-223.1,0.1h0l0.5-0.5c0,55.5,0,108.3,0,155.4l-0.4-0.4
							c65.8,0.1,121.5,0.2,160.8,0.2c19.7,0,35.2,0.1,45.9,0.1c5.3,0,9.4,0,12.2,0.1c1.4,0,2.4,0,3.1,0
							C374.2,233.2,374.6,233.2,374.6,233.2s-0.3,0-1,0c-0.7,0-1.7,0-3.1,0c-2.8,0-6.8,0-12.1,0.1c-10.6,0-26.1,0.1-45.8,0.1
							c-39.4,0.1-95.2,0.1-161.1,0.2l-0.4,0l0-0.4c0-47.1,0-99.8,0-155.4l0-0.5h0.5h0c83.7,0,161.1,0.1,223.1,0.1l0.4,0l0,0.4
							c-0.1,47.3-0.1,86.2-0.2,113.2c0,13.5-0.1,24-0.1,31.2c0,3.6,0,6.3,0,8.2C374.6,232.3,374.6,233.2,374.6,233.2z"/>
					</g>
				</g>
			</g>
		</g>
		<g id="XMLID_477_">
			<g id="XMLID_478_">
				<rect id="XMLID_1337_" x="151.5" y="77.8" class="st3" width="223.1" height="19.4"/>
			</g>
		</g>
		<g id="XMLID_479_">
			<g id="XMLID_480_">
				<ellipse id="XMLID_481_" class="st10" cx="161.3" cy="88.1" rx="2.3" ry="2.4"/>
			</g>
		</g>
		<g id="XMLID_482_">
			<g id="XMLID_483_">
				<ellipse id="XMLID_484_" class="st10" cx="170.7" cy="88.1" rx="2.3" ry="2.4"/>
			</g>
		</g>
		<g id="XMLID_485_">
			<g id="XMLID_486_">
				<ellipse id="XMLID_487_" class="st10" cx="180.2" cy="88.1" rx="2.3" ry="2.4"/>
			</g>
		</g>
	</g>
	<g id="XMLID_488_">
		<rect id="XMLID_1324_" x="172.7" y="116.3" class="st9" width="31.8" height="76.3"/>
	</g>
	<g id="XMLID_489_">
		<rect id="XMLID_1322_" x="221.8" y="116.3" class="st2" width="31.8" height="76.3"/>
	</g>
	<g id="XMLID_490_">
		<rect id="XMLID_1320_" x="270.8" y="116.3" class="st1" width="31.8" height="76.3"/>
	</g>
	<g id="XMLID_491_">
		<rect id="XMLID_1318_" x="319.8" y="116.9" class="st0" width="31.8" height="76.3"/>
	</g>
	<g id="XMLID_492_">
		<rect id="XMLID_1316_" x="169" y="201" class="st5" width="192.7" height="17.4"/>
	</g>
	<g id="XMLID_493_">
		<polygon id="XMLID_494_" class="st3" points="347.1,214.8 351.2,235.8 354.7,229.9 362,240.4 365.6,238.1 358.3,227.6 365,226.6 
					"/>
	</g>
</g>
<g id="XMLID_495_">
	<g id="XMLID_496_">
		<g id="XMLID_497_">
			<rect id="XMLID_498_" x="190.9" y="251.7" class="st1" width="98.2" height="168.4"/>
		</g>
		<g id="XMLID_499_">
			<g id="XMLID_500_">
				<path id="XMLID_501_" class="st15" d="M289.1,420.1c0,0,0-0.3,0-0.8c0-0.6,0-1.4,0-2.4c0-2.1,0-5.2-0.1-9.3
					c0-8.1-0.1-19.9-0.1-34.8c-0.1-29.8-0.1-71.8-0.2-121.1l0.4,0.4c-30.2,0-63.4,0-98.2,0h0l0.5-0.5c0,64.3-0.1,123.2-0.1,168.4
					l-0.4-0.4c30.1,0.1,54.6,0.1,71.6,0.2c8.5,0,15.1,0.1,19.7,0.1c2.2,0,4,0,5.2,0C288.5,420.1,289.1,420.1,289.1,420.1
					s-0.6,0-1.7,0c-1.2,0-2.9,0-5.1,0c-4.5,0-11.1,0.1-19.6,0.1c-17.1,0-41.6,0.1-71.8,0.2l-0.4,0l0-0.4c0-45.3-0.1-104.2-0.1-168.4
					l0-0.5h0.5h0c34.8,0,68,0,98.2,0h0.4l0,0.4c-0.1,49.4-0.2,91.6-0.2,121.4c0,14.8-0.1,26.6-0.1,34.7c0,4,0,7.1-0.1,9.2
					c0,1,0,1.8,0,2.4C289.1,419.8,289.1,420.1,289.1,420.1z"/>
			</g>
		</g>
	</g>
	<g id="XMLID_502_">
		<rect id="XMLID_1305_" x="190.9" y="251.7" class="st3" width="98.2" height="14.2"/>
	</g>
	<g id="XMLID_503_">
		<g id="XMLID_504_">
			<polygon id="XMLID_505_" class="st3" points="214.5,283.6 215.7,299.3 220.1,293.5 227.4,293.2 			"/>
		</g>
		<g id="XMLID_506_">
			<g id="XMLID_507_">
				<path id="XMLID_508_" class="st3" d="M257,283.6c0,0,0.3,0.2,0.9,0.6c0.8,0.6,1.7,1.2,2.7,1.9c2.3,1.7,5.6,4.1,9.5,6.9l0.6,0.4
					l-0.7,0c-2.2,0.1-4.6,0.2-7.1,0.3l-0.3,0l0.2-0.1c-1.5,2-3,3.9-4.4,5.7l-0.4,0.5l0-0.7c-0.3-4.7-0.6-8.7-0.7-11.4
					c-0.1-1.2-0.1-2.3-0.2-3.2C257,283.9,256.9,283.5,257,283.6c0,0,0.1,0.5,0.1,1.2c0.1,0.9,0.2,2,0.3,3.3c0.3,2.8,0.6,6.7,1,11.2
					l-0.5-0.1c1.4-1.8,2.8-3.7,4.4-5.7l0.1-0.1l0.1,0l0.3,0c2.5-0.1,4.9-0.2,7.1-0.3l-0.1,0.5c-3.7-2.8-6.8-5.2-9.1-7
					c-1-0.8-1.9-1.5-2.7-2.1C257.3,283.9,257,283.6,257,283.6z"/>
			</g>
		</g>
		<g id="XMLID_509_">
			<g id="XMLID_510_">
				
					<ellipse id="XMLID_511_" transform="matrix(-0.6969 0.7171 -0.7171 -0.6969 622.2495 418.104)" class="st3" cx="222.8" cy="340.5" rx="16" ry="0.3"/>
			</g>
		</g>
		<g id="XMLID_512_">
			<g id="XMLID_513_">
				<path id="XMLID_514_" class="st3" d="M279.8,340.4c-0.1,0,0-1.3-0.5-3.5c-0.5-2.2-1.9-5.4-5.1-7.9c-1.6-1.2-3.6-2.3-5.9-2.7
					c-2.3-0.4-5-0.3-7.4,0.7c-2.5,0.9-4.8,2.7-6.5,5.1c-1.7,2.4-2.6,5.3-2.7,8.4c0,3.1,1,6.1,2.7,8.4c1.7,2.4,4,4.2,6.5,5.1
					c2.5,1,5.1,1.1,7.4,0.7c2.3-0.4,4.4-1.5,5.9-2.7c3.2-2.5,4.6-5.8,5.1-7.9C279.8,341.7,279.7,340.4,279.8,340.4
					c0,0,0.2,1.3-0.3,3.6c-0.5,2.2-1.8,5.5-5.1,8.2c-1.6,1.3-3.7,2.4-6.1,2.9c-2.4,0.4-5.1,0.4-7.7-0.6c-2.6-0.9-5-2.8-6.7-5.2
					c-1.8-2.4-2.7-5.5-2.8-8.7c0-3.2,1-6.3,2.8-8.7c1.7-2.5,4.1-4.3,6.7-5.2c2.6-1,5.3-1.1,7.7-0.6c2.4,0.5,4.5,1.6,6.1,2.9
					c3.3,2.6,4.6,6,5.1,8.2C280,339.1,279.8,340.4,279.8,340.4z"/>
			</g>
		</g>
		<g id="XMLID_515_">
			<g id="XMLID_516_">
				<path id="XMLID_517_" class="st3" d="M267.1,377.8c0,0,0.1,0.1,0.4,0.3c0.3,0.2,0.6,0.5,1,0.8c1,0.9,2.3,2,3.9,3.3l0.1,0.1
					l-0.1,0.1c-3.9,4.5-9.8,11.3-16.5,19l-0.1,0.1l-0.1,0c-0.6,0.1-1.3,0.2-2,0.3c-1.2,0.2-2.4,0.4-3.6,0.5l-0.4,0.1l0.1-0.4
					c0.4-2.3,0.9-4.4,1.3-6.5l0-0.1l0-0.1c4.5-5.3,8.4-9.7,11.2-12.9C265.2,379.4,267,377.7,267.1,377.8c0,0-0.1,0.1-0.3,0.3
					c-0.2,0.2-0.5,0.5-0.9,1c-0.8,0.8-1.9,2.1-3.3,3.7c-2.8,3.2-6.6,7.7-11,13l0.1-0.1c-0.4,2.1-0.8,4.2-1.3,6.5l-0.3-0.3
					c1.2-0.2,2.4-0.4,3.6-0.5c0.7-0.1,1.4-0.2,2-0.3l-0.2,0.1c6.7-7.6,12.7-14.3,16.7-18.8l0,0.2c-1.5-1.4-2.7-2.5-3.7-3.4
					c-0.4-0.4-0.7-0.7-1-0.9C267.2,377.9,267.1,377.8,267.1,377.8z"/>
			</g>
		</g>
		<g id="XMLID_518_">
			<g id="XMLID_519_">
				<path id="XMLID_520_" class="st3" d="M231.2,400.8c0,0,0-0.2,0-0.5c0-0.4,0-0.8,0-1.3c0-1.2,0-2.9-0.1-4.8
					c0-4.3-0.1-10.1-0.1-17.1l0.2,0.2c-6.7,0-14.6,0-23,0c-0.1,0.1,0.5-0.5,0.3-0.3v0v0v0v0.1v0.1v0.2l0,0.4v0.8l0,1.6
					c0,1.1,0,2.1,0,3.2c0,2.1,0,4.1,0,6.1c0,4,0,7.7,0,11.2l-0.2-0.2c6.8,0,12.5,0.1,16.6,0.1c1.9,0,3.5,0,4.7,0.1
					c0.5,0,0.9,0,1.3,0C231,400.8,231.2,400.8,231.2,400.8c0,0-0.1,0-0.4,0c-0.3,0-0.7,0-1.2,0c-1.2,0-2.7,0-4.6,0.1
					c-4.2,0-9.9,0.1-16.8,0.1l-0.2,0l0-0.2c0-3.4,0-7.2,0-11.2c0-2,0-4,0-6.1c0-1,0-2.1,0-3.2l0-1.6l0-0.8v-0.4v-0.2v-0.1v-0.1v0v0
					v0c-0.2,0.2,0.3-0.3,0.3-0.3c8.4,0,16.3,0,23,0l0.2,0l0,0.2c-0.1,7-0.1,12.9-0.1,17.2c0,2,0,3.6-0.1,4.8c0,0.5,0,0.9,0,1.2
					C231.2,400.6,231.2,400.8,231.2,400.8z"/>
			</g>
		</g>
		<g id="XMLID_521_">
			<g id="XMLID_522_">
				<ellipse id="XMLID_523_" class="st3" cx="206.7" cy="377.1" rx="5" ry="0.3"/>
			</g>
		</g>
		<g id="XMLID_524_">
			<g id="XMLID_525_">
				<ellipse id="XMLID_526_" class="st3" cx="208.2" cy="376" rx="0.3" ry="5.6"/>
			</g>
		</g>
	</g>
</g>
<g id="XMLID_527_">
	<rect id="XMLID_1278_" x="39" y="301.8" class="st14" width="130" height="130"/>
</g>
<g id="XMLID_528_">
	<g id="XMLID_529_">
		<circle id="XMLID_1276_" class="st0" cx="199.3" cy="483" r="24.4"/>
	</g>
	<g id="XMLID_530_">
		<g id="XMLID_531_">
			<circle id="XMLID_1274_" class="st1" cx="201.6" cy="473.3" r="21.3"/>
		</g>
		<g id="XMLID_532_">
			<circle id="XMLID_1272_" class="st8" cx="201.6" cy="473.3" r="20.5"/>
		</g>
		<g id="XMLID_533_">
			<path id="XMLID_534_" class="st3" d="M201.6,489c-8.7,0-15.7-7.1-15.7-15.7s7.1-15.7,15.7-15.7c8.7,0,15.7,7.1,15.7,15.7
				S210.3,489,201.6,489z M201.6,457.6c-8.6,0-15.6,7-15.6,15.6c0,8.6,7,15.6,15.6,15.6c8.6,0,15.6-7,15.6-15.6
				C217.3,464.6,210.3,457.6,201.6,457.6z"/>
		</g>
		<g id="XMLID_537_" class="st13">
			<g id="XMLID_538_">
				<path id="XMLID_539_" d="M203.3,458.9c-4-0.9-8.5,0.8-10.8,4.2c-2.3,3.4-2.2,8.2,0.2,11.6c2.4,3.3,6.9,5,10.9,3.9
					c4-1.1,7.1-4.7,7.5-8.8c0.2-2.1-0.3-4.3-1.4-6C207.9,461.2,206.4,459.6,203.3,458.9"/>
			</g>
		</g>
		<g id="XMLID_540_">
			<polygon id="XMLID_541_" class="st3" points="197.8,486.5 198.9,488.1 205.2,487.9 206.4,486.5 			"/>
		</g>
	</g>
</g>
<g id="XMLID_542_">
	<g id="XMLID_543_">
		<circle id="XMLID_1259_" class="st3" cx="617.3" cy="485.9" r="13"/>
	</g>
	<g id="XMLID_544_">
		<circle id="XMLID_1257_" class="st4" cx="617.3" cy="485.9" r="4.8"/>
	</g>
</g>
<g id="XMLID_545_">
	<g id="XMLID_546_">
		<g id="XMLID_547_">
			<g id="XMLID_548_">
				<ellipse id="XMLID_549_" class="st3" cx="143.4" cy="450.2" rx="2.5" ry="0.4"/>
			</g>
		</g>
		<g id="XMLID_550_">
			<g id="XMLID_551_">
				<ellipse id="XMLID_552_" class="st3" cx="133.3" cy="450.2" rx="2.5" ry="0.4"/>
			</g>
		</g>
		<g id="XMLID_553_">
			<g id="XMLID_554_">
				<ellipse id="XMLID_555_" class="st3" cx="123.2" cy="450.2" rx="2.5" ry="0.4"/>
			</g>
		</g>
		<g id="XMLID_556_">
			<g id="XMLID_557_">
				<ellipse id="XMLID_558_" class="st3" cx="113.1" cy="450.2" rx="2.5" ry="0.4"/>
			</g>
		</g>
		<g id="XMLID_559_">
			<g id="XMLID_560_">
				<ellipse id="XMLID_561_" class="st3" cx="103.1" cy="450.2" rx="2.5" ry="0.4"/>
			</g>
		</g>
		<g id="XMLID_562_">
			<g id="XMLID_563_">
				<ellipse id="XMLID_564_" class="st3" cx="93" cy="450.2" rx="2.5" ry="0.4"/>
			</g>
		</g>
		<g id="XMLID_565_">
			<g id="XMLID_566_">
				<ellipse id="XMLID_567_" class="st3" cx="82.9" cy="450.2" rx="2.5" ry="0.4"/>
			</g>
		</g>
		<g id="XMLID_568_">
			<g id="XMLID_569_">
				<ellipse id="XMLID_570_" class="st3" cx="72.8" cy="450.2" rx="2.5" ry="0.4"/>
			</g>
		</g>
		<g id="XMLID_571_">
			<g id="XMLID_572_">
				<ellipse id="XMLID_573_" class="st3" cx="62.8" cy="450.2" rx="2.5" ry="0.4"/>
			</g>
		</g>
		<g id="XMLID_574_">
			<g id="XMLID_575_">
				<ellipse id="XMLID_576_" class="st3" cx="52.7" cy="450.2" rx="2.5" ry="0.4"/>
			</g>
		</g>
		<g id="XMLID_577_">
			<g id="XMLID_578_">
				<ellipse id="XMLID_579_" class="st3" cx="42.6" cy="450.2" rx="2.5" ry="0.4"/>
			</g>
		</g>
		<g id="XMLID_580_">
			<g id="XMLID_581_">
				<ellipse id="XMLID_582_" class="st3" cx="32.5" cy="450.2" rx="2.5" ry="0.4"/>
			</g>
		</g>
		<g id="XMLID_583_">
			<g id="XMLID_584_">
				<path id="XMLID_585_" class="st3" d="M22.8,447.3c0.2,0,0.4,1.1,0.4,2.5c0,0.1,0,0.2,0,0.4l-0.4-0.4c1.2,0,2.1,0.2,2.1,0.4
					s-0.9,0.4-2.1,0.4l-0.4,0l0-0.4c0-0.1,0-0.3,0-0.4C22.4,448.5,22.6,447.3,22.8,447.3z"/>
			</g>
		</g>
		<g id="XMLID_586_">
			<g id="XMLID_587_">
				<ellipse id="XMLID_588_" class="st3" cx="22.8" cy="439.8" rx="0.4" ry="2.5"/>
			</g>
		</g>
		<g id="XMLID_589_">
			<g id="XMLID_590_">
				<ellipse id="XMLID_591_" class="st3" cx="22.8" cy="429.7" rx="0.4" ry="2.5"/>
			</g>
		</g>
		<g id="XMLID_592_">
			<g id="XMLID_593_">
				<ellipse id="XMLID_594_" class="st3" cx="22.8" cy="419.6" rx="0.4" ry="2.5"/>
			</g>
		</g>
		<g id="XMLID_595_">
			<g id="XMLID_596_">
				<ellipse id="XMLID_597_" class="st3" cx="22.8" cy="409.5" rx="0.4" ry="2.5"/>
			</g>
		</g>
		<g id="XMLID_598_">
			<g id="XMLID_599_">
				<ellipse id="XMLID_600_" class="st3" cx="22.8" cy="399.5" rx="0.4" ry="2.5"/>
			</g>
		</g>
		<g id="XMLID_601_">
			<g id="XMLID_602_">
				<ellipse id="XMLID_603_" class="st3" cx="22.8" cy="389.4" rx="0.4" ry="2.5"/>
			</g>
		</g>
		<g id="XMLID_604_">
			<g id="XMLID_605_">
				<ellipse id="XMLID_606_" class="st3" cx="22.8" cy="379.3" rx="0.4" ry="2.5"/>
			</g>
		</g>
		<g id="XMLID_607_">
			<g id="XMLID_608_">
				<ellipse id="XMLID_609_" class="st3" cx="22.8" cy="369.2" rx="0.4" ry="2.5"/>
			</g>
		</g>
		<g id="XMLID_610_">
			<g id="XMLID_611_">
				<ellipse id="XMLID_612_" class="st3" cx="22.8" cy="359.2" rx="0.4" ry="2.5"/>
			</g>
		</g>
		<g id="XMLID_613_">
			<g id="XMLID_614_">
				<ellipse id="XMLID_615_" class="st3" cx="22.8" cy="349.1" rx="0.4" ry="2.5"/>
			</g>
		</g>
		<g id="XMLID_616_">
			<g id="XMLID_617_">
				<ellipse id="XMLID_618_" class="st3" cx="22.8" cy="339" rx="0.4" ry="2.5"/>
			</g>
		</g>
		<g id="XMLID_619_">
			<g id="XMLID_620_">
				<path id="XMLID_621_" class="st3" d="M23.6,327.2c0,0.1-0.3,0.2-0.8,0.3l0.3-0.3c0.1,0.5,0.1,1.1,0.1,1.8c0,1.4-0.2,2.5-0.4,2.5
					s-0.4-1.1-0.4-2.5c0-0.7,0-1.3,0.1-1.8l0.1-0.4l0.3,0C23.3,327,23.6,327.1,23.6,327.2z"/>
			</g>
		</g>
		<g id="XMLID_622_">
			<g id="XMLID_623_">
				<ellipse id="XMLID_624_" class="st3" cx="31.1" cy="327.2" rx="2.5" ry="0.4"/>
			</g>
		</g>
		<g id="XMLID_625_">
			<g id="XMLID_626_">
				<ellipse id="XMLID_627_" class="st3" cx="41.2" cy="327.2" rx="2.5" ry="0.4"/>
			</g>
		</g>
		<g id="XMLID_628_">
			<g id="XMLID_629_">
				<ellipse id="XMLID_630_" class="st3" cx="51.3" cy="327.2" rx="2.5" ry="0.4"/>
			</g>
		</g>
		<g id="XMLID_631_">
			<g id="XMLID_632_">
				<ellipse id="XMLID_633_" class="st3" cx="61.4" cy="327.2" rx="2.5" ry="0.4"/>
			</g>
		</g>
		<g id="XMLID_634_">
			<g id="XMLID_635_">
				<ellipse id="XMLID_636_" class="st3" cx="71.4" cy="327.2" rx="2.5" ry="0.4"/>
			</g>
		</g>
		<g id="XMLID_637_">
			<g id="XMLID_638_">
				<ellipse id="XMLID_639_" class="st3" cx="81.5" cy="327.2" rx="2.5" ry="0.4"/>
			</g>
		</g>
		<g id="XMLID_640_">
			<g id="XMLID_641_">
				<ellipse id="XMLID_642_" class="st3" cx="91.6" cy="327.2" rx="2.5" ry="0.4"/>
			</g>
		</g>
		<g id="XMLID_643_">
			<g id="XMLID_644_">
				<ellipse id="XMLID_645_" class="st3" cx="101.7" cy="327.2" rx="2.5" ry="0.4"/>
			</g>
		</g>
		<g id="XMLID_646_">
			<g id="XMLID_647_">
				<ellipse id="XMLID_648_" class="st3" cx="111.7" cy="327.2" rx="2.5" ry="0.4"/>
			</g>
		</g>
		<g id="XMLID_649_">
			<g id="XMLID_650_">
				<ellipse id="XMLID_651_" class="st3" cx="121.8" cy="327.2" rx="2.5" ry="0.4"/>
			</g>
		</g>
		<g id="XMLID_652_">
			<g id="XMLID_653_">
				<ellipse id="XMLID_654_" class="st3" cx="131.9" cy="327.2" rx="2.5" ry="0.4"/>
			</g>
		</g>
		<g id="XMLID_655_">
			<g id="XMLID_656_">
				<ellipse id="XMLID_657_" class="st3" cx="142" cy="327.2" rx="2.5" ry="0.4"/>
			</g>
		</g>
		<g id="XMLID_658_">
			<g id="XMLID_659_">
				<ellipse id="XMLID_660_" class="st3" cx="145.9" cy="333.4" rx="0.4" ry="2.5"/>
			</g>
		</g>
		<g id="XMLID_661_">
			<g id="XMLID_662_">
				<ellipse id="XMLID_663_" class="st3" cx="145.9" cy="343.4" rx="0.4" ry="2.5"/>
			</g>
		</g>
		<g id="XMLID_664_">
			<g id="XMLID_665_">
				<ellipse id="XMLID_666_" class="st3" cx="145.9" cy="353.5" rx="0.4" ry="2.5"/>
			</g>
		</g>
		<g id="XMLID_667_">
			<g id="XMLID_668_">
				<ellipse id="XMLID_669_" class="st3" cx="145.9" cy="363.6" rx="0.4" ry="2.5"/>
			</g>
		</g>
		<g id="XMLID_670_">
			<g id="XMLID_671_">
				<ellipse id="XMLID_672_" class="st3" cx="145.9" cy="373.7" rx="0.4" ry="2.5"/>
			</g>
		</g>
		<g id="XMLID_673_">
			<g id="XMLID_674_">
				<ellipse id="XMLID_675_" class="st3" cx="145.9" cy="383.7" rx="0.4" ry="2.5"/>
			</g>
		</g>
		<g id="XMLID_676_">
			<g id="XMLID_677_">
				<ellipse id="XMLID_678_" class="st3" cx="145.9" cy="393.8" rx="0.4" ry="2.5"/>
			</g>
		</g>
		<g id="XMLID_679_">
			<g id="XMLID_680_">
				<ellipse id="XMLID_681_" class="st3" cx="145.9" cy="403.9" rx="0.4" ry="2.5"/>
			</g>
		</g>
		<g id="XMLID_682_">
			<g id="XMLID_683_">
				<ellipse id="XMLID_684_" class="st3" cx="145.9" cy="414" rx="0.4" ry="2.5"/>
			</g>
		</g>
		<g id="XMLID_685_">
			<g id="XMLID_686_">
				<ellipse id="XMLID_687_" class="st3" cx="145.9" cy="424" rx="0.4" ry="2.5"/>
			</g>
		</g>
		<g id="XMLID_688_">
			<g id="XMLID_689_">
				<ellipse id="XMLID_690_" class="st3" cx="145.9" cy="434.1" rx="0.4" ry="2.5"/>
			</g>
		</g>
		<g id="XMLID_691_">
			<g id="XMLID_692_">
				<ellipse id="XMLID_693_" class="st3" cx="145.9" cy="444.2" rx="0.4" ry="2.5"/>
			</g>
		</g>
	</g>
	<g id="XMLID_694_">
		<rect id="XMLID_389_" x="141.3" y="444.4" class="st3" width="9.1" height="9.1"/>
	</g>
	<g id="XMLID_695_">
		<rect id="XMLID_388_" x="18.3" y="445.7" class="st3" width="9.1" height="9.1"/>
	</g>
	<g id="XMLID_696_">
		<rect id="XMLID_387_" x="141.3" y="321.7" class="st3" width="9.1" height="9.1"/>
	</g>
	<g id="XMLID_697_">
		<rect id="XMLID_386_" x="18.3" y="322.6" class="st3" width="9.1" height="9.1"/>
	</g>
</g>
</svg>
