<?xml version="1.0" encoding="utf-8"?>
<!-- Generator: Adobe Illustrator 19.0.0, SVG Export Plug-In . SVG Version: 6.00 Build 0)  -->
<svg version="1.1" id="Layer_1" xmlns="http://www.w3.org/2000/svg" xmlns:xlink="http://www.w3.org/1999/xlink" x="0px" y="0px"
	 viewBox="0 0 800 800" style="enable-background:new 0 0 800 800;" xml:space="preserve">
<style type="text/css">
	.st0{fill:#EBEBEB;}
	.st1{fill:#F0F0F0;}
	.st2{fill:#E0E0E0;}
	.st3{fill:#FAFAFA;}
	.st4{fill:#F5F5F5;}
	.st5{fill:#E6E6E6;}
	.st6{fill:#FFFFFF;}
	.st7{opacity:0.6;}
	.st8{clip-path:url(#XMLID_208_);fill:#EBEBEB;}
	.st9{clip-path:url(#XMLID_209_);fill:#EBEBEB;}
	.st10{clip-path:url(#XMLID_210_);fill:#EBEBEB;}
	.st11{clip-path:url(#XMLID_211_);fill:#EBEBEB;}
	.st12{clip-path:url(#XMLID_212_);fill:#EBEBEB;}
	.st13{clip-path:url(#XMLID_213_);fill:#EBEBEB;}
	.st14{fill:#263238;}
	.st15{fill:#FF8B7B;}
	.st16{fill:#71A5B0;}
	.st17{opacity:0.2;}
	.st18{clip-path:url(#XMLID_214_);}
	.st19{clip-path:url(#XMLID_215_);}
	.st20{clip-path:url(#XMLID_216_);}
	.st21{fill:#407BFF;}
	.st22{fill:#273238;}
	.st23{clip-path:url(#XMLID_217_);}
	.st24{fill:#FF5652;}
	.st25{fill:#BE4E64;}
	.st26{fill:#E8587B;}
	.st27{opacity:5.000310e-002;clip-path:url(#XMLID_218_);}
	.st28{clip-path:url(#XMLID_219_);}
	.st29{clip-path:url(#XMLID_220_);fill:#FFFFFF;}
	.st30{clip-path:url(#XMLID_220_);fill:#E8587B;}
	.st31{clip-path:url(#XMLID_220_);fill:#407BFF;}
	.st32{clip-path:url(#XMLID_220_);fill:#BE4E64;}
	.st33{opacity:0.1;clip-path:url(#XMLID_220_);}
	.st34{clip-path:url(#XMLID_221_);}
	.st35{opacity:0.3;clip-path:url(#XMLID_220_);}
	.st36{clip-path:url(#XMLID_222_);fill:#FFFFFF;}
	.st37{clip-path:url(#XMLID_220_);fill:#1A2E35;}
	.st38{clip-path:url(#XMLID_220_);fill:#ADC548;}
	.st39{clip-path:url(#XMLID_220_);fill:#D94D65;}
	.st40{clip-path:url(#XMLID_220_);fill:#375A64;}
</style>
<g>
	<rect id="XMLID_206_" x="15.1" y="618.1" class="st0" width="771.7" height="0.4"/>
	<rect id="XMLID_205_" x="529.6" y="628.7" class="st0" width="113.9" height="0.4"/>
	<rect id="XMLID_204_" x="175.1" y="631.3" class="st0" width="13.4" height="0.4"/>
	<rect id="XMLID_203_" x="645.1" y="643" class="st0" width="29.6" height="0.4"/>
	<rect id="XMLID_202_" x="323.8" y="637.8" class="st0" width="75.1" height="0.4"/>
	<rect id="XMLID_201_" x="272.5" y="637.8" class="st0" width="37.6" height="0.4"/>
	<rect id="XMLID_200_" x="96.1" y="631.3" class="st0" width="51.2" height="0.4"/>
	<g>
		<path class="st0" d="M381,549.3h-298c-4.9,0-8.8-4-8.8-8.8V121.6c0-4.9,4-8.8,8.8-8.8h298c4.9,0,8.8,4,8.8,8.8v418.9
			C389.8,545.4,385.8,549.3,381,549.3 M82.9,113.1c-4.6,0-8.4,3.8-8.4,8.4v418.9c0,4.6,3.8,8.4,8.4,8.4h298c4.6,0,8.4-3.8,8.4-8.4
			V121.6c0-4.6-3.8-8.4-8.4-8.4H82.9z"/>
		<path class="st0" d="M714.8,549.3h-298c-4.9,0-8.8-4-8.8-8.8V121.6c0-4.9,4-8.8,8.8-8.8h298c4.9,0,8.8,4,8.8,8.8v418.9
			C723.6,545.4,719.7,549.3,714.8,549.3 M416.8,113.1c-4.6,0-8.4,3.8-8.4,8.4v418.9c0,4.6,3.8,8.4,8.4,8.4h298
			c4.6,0,8.4-3.8,8.4-8.4V121.6c0-4.6-3.8-8.4-8.4-8.4H416.8z"/>
		<rect id="XMLID_195_" x="501.3" y="164.1" class="st1" width="166.5" height="166.9"/>
		<rect id="XMLID_194_" x="498.4" y="164.1" class="st2" width="2.9" height="166.9"/>
		<rect id="XMLID_193_" x="516" y="174.6" class="st3" width="137.1" height="145.8"/>
		<path id="XMLID_192_" class="st4" d="M538.8,302.1h91.5c3,0,5.5-2.5,5.5-5.5v-98c0-3-2.5-5.5-5.5-5.5h-91.5c-3,0-5.5,2.5-5.5,5.5
			v98C533.2,299.6,535.7,302.1,538.8,302.1"/>
		<rect id="XMLID_191_" x="563.4" y="424.6" class="st5" width="99.8" height="193.5"/>
		<polygon id="XMLID_190_" class="st3" points="636.6,618.1 663.2,618.1 663.2,591.4 608.6,591.4 		"/>
		<rect id="XMLID_189_" x="432.4" y="424.6" class="st5" width="99.8" height="193.5"/>
		<rect id="XMLID_188_" x="508.9" y="424.6" class="st3" width="154.3" height="184.3"/>
		<polygon id="XMLID_187_" class="st3" points="535.5,618.1 508.9,618.1 508.9,591.4 563.4,591.4 		"/>
		<rect id="XMLID_186_" x="529.5" y="493.3" class="st1" width="113" height="46.1"/>
		<rect id="XMLID_185_" x="529.5" y="549.3" class="st1" width="113" height="46.1"/>
		<path id="XMLID_184_" class="st3" d="M594.3,498.2h-16.5c-4.6,0-8.4-3.7-8.4-8.4v-0.6h33.2v0.6
			C602.6,494.5,598.9,498.2,594.3,498.2"/>
		<rect id="XMLID_183_" x="529.5" y="437.3" class="st1" width="113" height="46.1"/>
		<path id="XMLID_182_" class="st3" d="M594.3,442.2h-16.5c-4.6,0-8.4-3.7-8.4-8.4v-0.6h33.2v0.6
			C602.6,438.5,598.9,442.2,594.3,442.2"/>
		<path id="XMLID_181_" class="st3" d="M594.3,554.2h-16.5c-4.6,0-8.4-3.7-8.4-8.4v-0.6h33.2v0.6
			C602.6,550.5,598.9,554.2,594.3,554.2"/>
		<rect id="XMLID_180_" x="407.4" y="424.6" class="st5" width="99.8" height="193.5"/>
		<polygon id="XMLID_179_" class="st3" points="480.5,618.1 507.1,618.1 507.1,591.4 452.6,591.4 		"/>
		<rect id="XMLID_178_" x="276.3" y="424.6" class="st5" width="99.8" height="193.5"/>
		<rect id="XMLID_177_" x="352.8" y="424.6" class="st3" width="154.3" height="184.3"/>
		<polygon id="XMLID_176_" class="st3" points="379.5,618.1 352.8,618.1 352.8,591.4 407.4,591.4 		"/>
		<rect id="XMLID_175_" x="373.5" y="493.3" class="st1" width="113" height="46.1"/>
		<rect id="XMLID_174_" x="373.5" y="549.3" class="st1" width="113" height="46.1"/>
		<path id="XMLID_173_" class="st3" d="M438.2,498.2h-16.5c-4.6,0-8.4-3.7-8.4-8.4v-0.6h33.2v0.6
			C446.6,494.5,442.8,498.2,438.2,498.2"/>
		<rect id="XMLID_172_" x="373.5" y="437.3" class="st1" width="113" height="46.1"/>
		<path id="XMLID_171_" class="st3" d="M438.2,442.2h-16.5c-4.6,0-8.4-3.7-8.4-8.4v-0.6h33.2v0.6
			C446.6,438.5,442.8,442.2,438.2,442.2"/>
		<path id="XMLID_170_" class="st3" d="M438.2,554.2h-16.5c-4.6,0-8.4-3.7-8.4-8.4v-0.6h33.2v0.6
			C446.6,550.5,442.8,554.2,438.2,554.2"/>
		<polygon id="XMLID_169_" class="st5" points="210.8,618.1 161.1,618.1 175.8,490.1 210.8,490.1 		"/>
		<polygon id="XMLID_168_" class="st2" points="294.8,618.1 184.2,618.1 172.5,468.3 283.2,468.3 		"/>
		<polygon id="XMLID_167_" class="st4" points="302.8,618.1 187.6,618.1 175.9,468.3 291.1,468.3 		"/>
		<polygon id="XMLID_166_" class="st6" points="198.5,606.3 188.7,480.1 280.2,480.1 290.1,606.3 		"/>
		<rect id="XMLID_165_" x="126.8" y="164.1" class="st5" width="296.5" height="194.2"/>
		<rect id="XMLID_164_" x="131" y="164.1" class="st1" width="301.4" height="194.2"/>
		<rect id="XMLID_163_" x="126.8" y="358.3" class="st5" width="296.5" height="4.4"/>
		<rect id="XMLID_162_" x="146.1" y="358.3" class="st1" width="301.4" height="4.4"/>
		<rect id="XMLID_161_" x="143.7" y="176.8" class="st3" width="276" height="168.9"/>
		<polygon id="XMLID_160_" class="st6" points="205.9,345.6 241.2,176.8 296.2,176.8 260.9,345.6 		"/>
		<path id="XMLID_159_" class="st1" d="M149.5,333c-0.5,0-0.9-0.4-0.9-0.9V185c0-0.5,0.4-0.9,0.9-0.9c0.5,0,0.9,0.4,0.9,0.9v147.1
			C150.4,332.6,150,333,149.5,333"/>
		<polygon id="XMLID_158_" class="st6" points="272.8,345.6 308,176.8 329.5,176.8 294.2,345.6 		"/>
		<rect id="XMLID_157_" x="418.1" y="176.8" class="st5" width="1.6" height="168.9"/>
		<g class="st7">
			<g>
				<defs>
					<rect id="XMLID_155_" x="137.7" y="181.7" width="297.7" height="14.2"/>
				</defs>
				<clipPath id="XMLID_208_">
					<use xlink:href="#XMLID_155_"  style="overflow:visible;"/>
				</clipPath>
				<polygon id="XMLID_156_" class="st8" points="435.4,195.9 138.8,195.9 137.7,181.7 434.2,181.7 				"/>
			</g>
		</g>
		<g class="st7">
			<g>
				<defs>
					<rect id="XMLID_153_" x="137.7" y="189.7" width="297.7" height="14.2"/>
				</defs>
				<clipPath id="XMLID_209_">
					<use xlink:href="#XMLID_153_"  style="overflow:visible;"/>
				</clipPath>
				<polygon id="XMLID_154_" class="st9" points="435.4,203.9 138.8,203.9 137.7,189.7 434.2,189.7 				"/>
			</g>
		</g>
		<g class="st7">
			<g>
				<defs>
					<rect id="XMLID_151_" x="137.7" y="197.7" width="297.7" height="14.2"/>
				</defs>
				<clipPath id="XMLID_210_">
					<use xlink:href="#XMLID_151_"  style="overflow:visible;"/>
				</clipPath>
				<polygon id="XMLID_152_" class="st10" points="435.4,211.9 138.8,211.9 137.7,197.7 434.2,197.7 				"/>
			</g>
		</g>
		<g class="st7">
			<g>
				<defs>
					<rect id="XMLID_149_" x="137.7" y="205.7" width="297.7" height="14.2"/>
				</defs>
				<clipPath id="XMLID_211_">
					<use xlink:href="#XMLID_149_"  style="overflow:visible;"/>
				</clipPath>
				<polygon id="XMLID_150_" class="st11" points="435.4,219.9 138.8,219.9 137.7,205.7 434.2,205.7 				"/>
			</g>
		</g>
		<g class="st7">
			<g>
				<defs>
					<rect id="XMLID_147_" x="137.7" y="213.7" width="297.7" height="14.2"/>
				</defs>
				<clipPath id="XMLID_212_">
					<use xlink:href="#XMLID_147_"  style="overflow:visible;"/>
				</clipPath>
				<polygon id="XMLID_148_" class="st12" points="435.4,227.8 138.8,227.8 137.7,213.7 434.2,213.7 				"/>
			</g>
		</g>
		<g class="st7">
			<g>
				<defs>
					<rect id="XMLID_145_" x="137.7" y="221.7" width="297.7" height="14.2"/>
				</defs>
				<clipPath id="XMLID_213_">
					<use xlink:href="#XMLID_145_"  style="overflow:visible;"/>
				</clipPath>
				<polygon id="XMLID_146_" class="st13" points="435.4,235.8 138.8,235.8 137.7,221.7 434.2,221.7 				"/>
			</g>
		</g>
	</g>
	<g>
		<path id="XMLID_144_" class="st4" d="M700.3,670.4c0,9.7-134,17.5-299.3,17.5s-299.3-7.8-299.3-17.5c0-9.7,134-17.5,299.3-17.5
			S700.3,660.7,700.3,670.4"/>
	</g>
	<g>
		<path id="XMLID_143_" class="st14" d="M434.5,213.9c-6.7-5.6-46.6-4.1-48.6,3.7c-2,7.8-1.8,27.5-11.8,31
			c-10.1,3.5-24.1,7.9-20.7,23.2c3.4,15.4-27.6,14.7-10.9,33.7c16.7,19,34.7,18,57.8,8.9c15.7-6.2,9.2-24.5,24.2-22.8
			c14.1,1.6,27.7-5,18.4-20.5c-9.3-15.5-19.5-13.3-9.1-23.6C444.1,237.2,446.6,224,434.5,213.9"/>
		<path id="XMLID_142_" class="st14" d="M350.3,270c-0.2,0-0.4-0.1-0.4-0.3c-2.4-15.4,11.4-19.2,21.5-22l1-0.3
			c7.6-2.1,10-14,11.8-22.7c0.6-2.9,1.1-5.4,1.7-7.2c0.1-0.2,0.3-0.3,0.5-0.3c0.2,0.1,0.3,0.3,0.3,0.5c-0.6,1.8-1.1,4.3-1.7,7.1
			c-1.8,8.9-4.4,21.1-12.4,23.3l-1,0.3c-10.3,2.8-23.2,6.4-20.9,21.1C350.7,269.8,350.6,270,350.3,270
			C350.3,270,350.3,270,350.3,270"/>
		<path id="XMLID_141_" class="st15" d="M449.3,299.5l0.6,1l0.7,1.1c0.5,0.8,1,1.5,1.6,2.3c1.1,1.5,2.3,2.9,3.6,4.2
			c2.5,2.7,5.3,5.1,8.3,6.9c3,1.8,6.2,3.2,9.5,3.9c1.7,0.4,3.3,0.6,5.1,0.6l1.3,0l1.3-0.1l0.6,0l0.3,0c0.2,0,0.5-0.1,0.7-0.2
			c1.1-0.3,2.5-1,4-2c1.4-1,2.9-2.2,4.3-3.5c2.9-2.6,5.6-5.6,8.2-8.7c2.7-3.1,5.2-6.4,7.7-9.8c2.5-3.3,4.9-6.8,7.2-10.2l6.4,3.4
			c-1.8,4.1-3.7,7.9-5.8,11.8c-2.1,3.8-4.4,7.6-6.8,11.3c-2.5,3.7-5.2,7.3-8.4,10.8c-1.6,1.7-3.3,3.4-5.3,5c-2,1.6-4.2,3.1-7.2,4.2
			c-0.7,0.3-1.5,0.5-2.4,0.7c-0.4,0.1-0.9,0.2-1.3,0.2l-0.9,0.1l-1.9,0.2l-1.9,0.1c-2.5,0.1-5.1,0-7.7-0.5c-5.1-0.8-10-2.6-14.3-5.2
			c-4.3-2.5-8.2-5.7-11.6-9.2c-1.7-1.8-3.2-3.6-4.7-5.5c-0.7-1-1.4-1.9-2.1-3c-0.3-0.5-0.7-1-1-1.6c-0.3-0.6-0.6-1-1-1.8
			L449.3,299.5z"/>
		<path id="XMLID_140_" class="st16" d="M436.5,290.7c13,0.6,16,9,16,9l-15.5,22.8c0,0-6.3-6.9-7.8-14.6
			C427.5,299.9,427.7,290.2,436.5,290.7"/>
		<path id="XMLID_139_" class="st15" d="M513.7,287.4l1-12.4l11.8,9c0,0-3.1,6.4-8.9,7.7L513.7,287.4z"/>
		<polygon id="XMLID_138_" class="st15" points="522.4,265.2 529.9,273.5 526.5,284 514.7,275 		"/>
		<polygon id="XMLID_137_" class="st15" points="358.9,655.4 372.9,656.7 380.1,624 366.1,622.7 		"/>
		<polygon id="XMLID_136_" class="st15" points="231.7,613.1 242.3,622.5 267.6,600.9 257,591.5 		"/>
		<path id="XMLID_135_" class="st14" d="M247.8,619.2l-9.4-12.9c-0.3-0.5-0.9-0.6-1.5-0.3l-11.3,6c-1.2,0.6-1.5,2.3-0.7,3.3
			c3.4,4.4,5.2,6.4,9.3,12.1c2.5,3.5,7.7,11.6,11.2,16.4c3.4,4.7,8.5,1.6,7.4-0.7c-4.6-10.4-4.7-16.5-4.4-21.4
			C248.6,620.7,248.3,619.9,247.8,619.2"/>
		<path id="XMLID_134_" class="st14" d="M374.7,652.5h-16.9c-0.6,0-1.2,0.4-1.3,1l-3.7,13.3c-0.4,1.4,0.6,2.7,2.1,2.7
			c5.9-0.1,8.8-0.4,16.2-0.4c4.6,0,16.3,0.5,22.6,0.5c6.2,0,7.4-6.2,4.9-6.8c-11.4-2.5-18-6-21.5-9.3
			C376.5,652.8,375.6,652.5,374.7,652.5"/>
		<g class="st17">
			<g>
				<defs>
					<rect id="XMLID_132_" x="362.1" y="622.7" width="18" height="18.2"/>
				</defs>
				<clipPath id="XMLID_214_">
					<use xlink:href="#XMLID_132_"  style="overflow:visible;"/>
				</clipPath>
				<polygon id="XMLID_133_" class="st18" points="380.1,624 376.4,640.9 362.1,640.9 366.1,622.7 				"/>
			</g>
		</g>
		<g class="st17">
			<g>
				<defs>
					<rect id="XMLID_130_" x="243.9" y="591.5" width="23.7" height="20.6"/>
				</defs>
				<clipPath id="XMLID_215_">
					<use xlink:href="#XMLID_130_"  style="overflow:visible;"/>
				</clipPath>
				<polygon id="XMLID_131_" class="st19" points="257,591.5 267.6,600.9 254.5,612.1 243.9,602.6 				"/>
			</g>
		</g>
		<path id="XMLID_129_" class="st16" d="M446.2,293.3c0,0,5.9,4.1-29.5,80.8c-22.1-6.1-44.9-12.5-55.6-15.5
			c7.2-22.4,11.1-36.3,13.3-85.8c0,0,12.4,0.7,24.5,3.5c9.5,2.2,17.2,4,25.2,7C434.6,287.4,446.2,293.3,446.2,293.3"/>
		<path id="XMLID_128_" class="st15" d="M409.2,248.6c-0.7,8.6-3.2,23.9-10.4,27.7c0,0,2.2,12.5,16.3,29.2c16.2-11,9-22.1,9-22.1
			c-8.5-4.7-6.3-11.3-3-17.2L409.2,248.6z"/>
		<g class="st17">
			<g>
				<defs>
					<rect id="XMLID_126_" x="409.4" y="250.5" width="11.6" height="22.2"/>
				</defs>
				<clipPath id="XMLID_216_">
					<use xlink:href="#XMLID_126_"  style="overflow:visible;"/>
				</clipPath>
				<path id="XMLID_127_" class="st20" d="M410.5,250.5c-0.6,2.4-1.8,8-0.5,14.9c0.6,3.4,4.3,5.9,8.3,7.3c0.4-2.2,1.5-4.4,2.7-6.6
					L410.5,250.5z"/>
			</g>
		</g>
		<path id="XMLID_125_" class="st15" d="M397.4,238.6c2.6,13.9,3.3,19.8,11.3,26.1c11.9,9.5,28.4,3.3,30-11
			c1.5-12.9-3-33.4-17.3-37.3C407.3,212.5,394.9,224.7,397.4,238.6"/>
		<path id="XMLID_124_" class="st15" d="M393.8,249.1c0.6,2.9,2.5,5.1,4.6,6.4c3.1,1.9,5.6-0.6,5.6-4.1c0-3.1-1.7-7.8-5.2-8.3
			C395.4,242.7,393.1,245.8,393.8,249.1"/>
		<path id="XMLID_123_" class="st14" d="M409.3,215.5c8.7,2.2,0.7,44-12.7,50.2c-13.5,6.2-15.3-17.6-11.4-30.5
			C389,222.2,395.9,212,409.3,215.5"/>
		<path id="XMLID_122_" class="st14" d="M411.4,231c11.9-1.2,26-10.4,18.1-15.3c-7.9-4.9-18.6-2.1-22.9,2
			C402.2,221.8,397.4,232.5,411.4,231"/>
		<path id="XMLID_121_" class="st21" d="M416.7,374.1c0,0,3.2,112.3-5.8,154.7c-9.4,44.1-27.6,107.1-27.6,107.1l-26.6-1.3
			c0,0,12.9-80,16-114.1c4.3-47,3.3-157.8,3.3-157.8L416.7,374.1z"/>
		<path id="XMLID_120_" class="st22" d="M416.7,374.1c0,0,3.2,112.3-5.8,154.7c-9.4,44.1-27.6,107.1-27.6,107.1l-26.6-1.3
			c0,0,12.9-80,16-114.1c4.3-47,3.3-157.8,3.3-157.8L416.7,374.1z"/>
		<g class="st17">
			<g>
				<defs>
					<rect id="XMLID_118_" x="375.4" y="393.8" width="9" height="64.9"/>
				</defs>
				<clipPath id="XMLID_217_">
					<use xlink:href="#XMLID_118_"  style="overflow:visible;"/>
				</clipPath>
				<path id="XMLID_119_" class="st23" d="M376.1,405c4.1-10.4,7.8-16.1,8.2-5.8c1,21.9-2.9,47-8.9,59.4
					C375.8,440.1,376,421.1,376.1,405"/>
			</g>
		</g>
		<polygon id="XMLID_117_" class="st16" points="354.8,636 385.1,637.4 388.7,626.3 355.8,623.8 		"/>
		<path id="XMLID_116_" class="st21" d="M402,370c0,0-34.1,91.7-57.1,142.4c-18.6,40.9-84.3,98.1-84.3,98.1l-14.9-12.6
			c0,0,47.6-65.2,60.4-92.9c41.1-88.8,30.4-126.5,55.1-146.3L402,370z"/>
		<path id="XMLID_115_" class="st22" d="M402,370c0,0-34.1,91.7-57.1,142.4c-18.6,40.9-84.3,98.1-84.3,98.1l-14.9-12.6
			c0,0,47.6-65.2,60.4-92.9c41.1-88.8,30.4-126.5,55.1-146.3L402,370z"/>
		<polygon id="XMLID_114_" class="st16" points="244.4,597.7 261.1,612.5 269.6,606.3 249.9,589.5 		"/>
		<path id="XMLID_113_" class="st14" d="M361.2,355.2l-3.9,4.3c-0.3,0.3,0,0.9,0.7,1l58.3,16.2c0.5,0.1,1,0,1.1-0.3l1.9-4.8
			c0.1-0.3-0.2-0.7-0.8-0.9L362.2,355C361.8,354.9,361.4,354.9,361.2,355.2"/>
		<path id="XMLID_112_" class="st21" d="M367,363.6l-1.5-0.4c-0.3-0.1-0.5-0.3-0.4-0.5l2.5-6.3c0.1-0.2,0.4-0.3,0.7-0.2l1.5,0.4
			c0.3,0.1,0.5,0.3,0.4,0.5l-2.5,6.3C367.6,363.6,367.3,363.6,367,363.6"/>
		<path id="XMLID_111_" class="st16" d="M367,363.6l-1.5-0.4c-0.3-0.1-0.5-0.3-0.4-0.5l2.5-6.3c0.1-0.2,0.4-0.3,0.7-0.2l1.5,0.4
			c0.3,0.1,0.5,0.3,0.4,0.5l-2.5,6.3C367.6,363.6,367.3,363.6,367,363.6"/>
		<path id="XMLID_110_" class="st21" d="M411.9,376.1l-1.5-0.4c-0.3-0.1-0.5-0.3-0.4-0.5l2.5-6.3c0.1-0.2,0.4-0.3,0.7-0.2l1.5,0.4
			c0.3,0.1,0.5,0.3,0.4,0.5l-2.5,6.3C412.5,376.1,412.2,376.1,411.9,376.1"/>
		<path id="XMLID_109_" class="st16" d="M411.9,376.1l-1.5-0.4c-0.3-0.1-0.5-0.3-0.4-0.5l2.5-6.3c0.1-0.2,0.4-0.3,0.7-0.2l1.5,0.4
			c0.3,0.1,0.5,0.3,0.4,0.5l-2.5,6.3C412.5,376.1,412.2,376.1,411.9,376.1"/>
		<path id="XMLID_108_" class="st21" d="M389.4,369.8l-1.5-0.4c-0.3-0.1-0.5-0.3-0.4-0.5l2.5-6.3c0.1-0.2,0.4-0.3,0.7-0.2l1.5,0.4
			c0.3,0.1,0.5,0.3,0.4,0.5l-2.5,6.3C390,369.8,389.7,369.9,389.4,369.8"/>
		<path id="XMLID_107_" class="st16" d="M389.4,369.8l-1.5-0.4c-0.3-0.1-0.5-0.3-0.4-0.5l2.5-6.3c0.1-0.2,0.4-0.3,0.7-0.2l1.5,0.4
			c0.3,0.1,0.5,0.3,0.4,0.5l-2.5,6.3C390,369.8,389.7,369.9,389.4,369.8"/>
		<path id="XMLID_106_" class="st14" d="M419.1,239.9c0.1,1.1,0.9,2,1.6,1.9c0.7-0.1,1.2-1.1,1.1-2.2c-0.1-1.1-0.9-2-1.6-1.9
			C419.5,237.8,419,238.8,419.1,239.9"/>
		<path id="XMLID_105_" class="st14" d="M432,238.4c0.1,1.1,0.9,2,1.6,1.9c0.7-0.1,1.2-1.1,1.1-2.2c-0.1-1.1-0.9-2-1.6-1.9
			C432.3,236.2,431.8,237.2,432,238.4"/>
		<path id="XMLID_104_" class="st14" d="M432.7,236.2l2.6-1.1C435.4,235.1,434.2,237.4,432.7,236.2"/>
		<path id="XMLID_103_" class="st24" d="M428.8,240.7c0,0,2.5,4.7,4.9,6.8c-1.3,1.6-4,1.3-4,1.3L428.8,240.7z"/>
		<path id="XMLID_102_" class="st14" d="M426.5,253.7c0.1-0.1,0.2-0.2,0.2-0.3c0-0.2-0.2-0.3-0.4-0.3c-5,0.6-7.7-2.6-7.8-2.6
			c-0.1-0.1-0.3-0.2-0.5,0c-0.1,0.1-0.2,0.3,0,0.5c0.1,0.1,3,3.5,8.4,2.9C426.4,253.7,426.4,253.7,426.5,253.7"/>
		<path id="XMLID_101_" class="st14" d="M415,236.2c0.1-0.1,0.2-0.1,0.2-0.2c1.5-2.6,4-2.8,4-2.8c0.4,0,0.7-0.3,0.6-0.7
			c0-0.4-0.3-0.7-0.7-0.6c-0.1,0-3.2,0.2-5.1,3.4c-0.2,0.3-0.1,0.7,0.2,0.9C414.5,236.3,414.8,236.3,415,236.2"/>
		<path id="XMLID_100_" class="st14" d="M437.3,231.6c0,0,0.1,0,0.1-0.1c0.3-0.2,0.3-0.7,0.1-0.9c-2.4-2.8-5.5-2.5-5.6-2.4
			c-0.4,0-0.6,0.4-0.6,0.8c0,0.4,0.4,0.6,0.8,0.6c0.1,0,2.5-0.3,4.4,2C436.7,231.7,437.1,231.8,437.3,231.6"/>
		<path id="XMLID_99_" class="st15" d="M380.4,289.7c-1.7,2.1-3.4,3.9-5.1,5.8c-1.7,1.9-3.5,3.7-5.3,5.5c-3.6,3.6-7.3,7-11.2,10.3
			c-3.9,3.3-7.9,6.5-12.3,9.4c-4.3,2.9-8.8,5.6-13.7,7.8c-1.2,0.6-2.5,1.1-3.7,1.6c-1.3,0.5-2.6,0.9-4,1.3c-2.6,0.8-5.3,1.3-7.9,1.7
			c-5.3,0.8-10.5,1.1-15.6,1c-10.3-0.3-20.2-1.6-30.1-4.2l1.3-7.1c4.7,0.4,9.5,0.6,14.3,0.6c4.8,0.1,9.5-0.1,14.2-0.5
			c4.7-0.4,9.2-1,13.6-2c2.2-0.5,4.3-1.1,6.3-1.9c1-0.4,2-0.8,2.9-1.2c1-0.5,2-0.9,3-1.4c7.9-4.1,15.3-9.8,22.4-16
			c3.5-3.1,6.9-6.4,10.3-9.8c3.3-3.3,6.6-6.9,9.6-10.3L380.4,289.7z"/>
		<path id="XMLID_98_" class="st15" d="M275.2,330.3l-10.3-0.5l4.5-11.7c0,0,7.4,2.2,9.5,7.7L275.2,330.3z"/>
		<polygon id="XMLID_97_" class="st15" points="255.4,327.6 258.2,318.2 269.3,318.1 264.8,329.8 		"/>
		<path id="XMLID_96_" class="st16" d="M374.4,272.9c-6,0.1-9.8,6.2-9.8,6.2l9.7,24.3c0,0,9.5-5.7,9.1-13.6
			C383,281.7,381.3,272.7,374.4,272.9"/>
		<path class="st16" d="M252.2,626.1c0.1-0.1,0.3-0.2,0.4-0.3c0.4-0.4,0.4-0.8,0.4-1.1c-0.4-1.8-5.2-3.6-5.7-3.8
			c-0.1,0-0.3,0-0.4,0.1c-0.1,0.1-0.1,0.2-0.1,0.4c0.7,1.7,2.2,4.7,4,5.1C251.4,626.4,251.8,626.3,252.2,626.1 M247.8,621.7
			c1.9,0.8,4.3,2.1,4.5,3c0,0.1,0,0.3-0.2,0.5c-0.4,0.4-0.8,0.5-1.2,0.4C250.1,625.5,248.9,624,247.8,621.7"/>
		<path class="st16" d="M253.3,621.4c0.1-0.1,0.2-0.2,0.3-0.3c0.2-0.2,0.5-0.7,0.1-1.5c-0.3-0.5-0.7-0.8-1.2-0.9
			c-2-0.4-5.3,2-5.5,2.1c-0.1,0.1-0.1,0.2-0.1,0.3c0,0.1,0.1,0.2,0.2,0.3C248.4,622,251.9,622.3,253.3,621.4 M248,620.9
			c1.2-0.7,3.1-1.8,4.3-1.5c0.3,0.1,0.6,0.3,0.8,0.6c0.2,0.4,0.1,0.6,0,0.7C252.4,621.4,249.6,621.5,248,620.9
			C248,621,248,621,248,620.9"/>
		<path class="st16" d="M382.2,655.2c1.3,0,2.5-0.2,3.3-0.8c0.5-0.4,0.8-0.9,0.9-1.6c0-0.5-0.2-0.8-0.4-0.9c-1.5-1-7.3,1.6-8.4,2.1
			c-0.1,0.1-0.2,0.2-0.2,0.3c0,0.1,0.1,0.3,0.3,0.3C378.8,654.9,380.6,655.2,382.2,655.2 M384.9,652.3c0.3,0,0.5,0,0.7,0.1
			c0.1,0,0.1,0.1,0.1,0.3c0,0.5-0.2,0.8-0.6,1.1c-1,0.7-3.3,0.8-6.3,0.3C380.8,653.3,383.5,652.3,384.9,652.3"/>
		<path class="st16" d="M377.6,654.7c0,0,0.1,0,0.1,0c1.9-0.8,5.7-3.9,5.5-5.4c0-0.3-0.3-0.8-1.2-0.9c-3.3-0.4-4.8,5.7-4.8,5.9
			c0,0.1,0,0.3,0.1,0.3C377.5,654.6,377.6,654.7,377.6,654.7 M381.8,649c0.1,0,0.1,0,0.2,0c0.4,0,0.5,0.1,0.6,0.3
			c0.1,0.9-2.5,3.4-4.5,4.4C378.6,652.2,379.8,649,381.8,649"/>
		<path id="XMLID_87_" class="st14" d="M419.9,237.8l2.6-1.1C422.5,236.7,421.4,239,419.9,237.8"/>
	</g>
	<polygon id="XMLID_86_" class="st25" points="144,444 158.7,431.9 256.6,419.5 241.9,431.7 	"/>
	
		<rect id="XMLID_85_" x="135.7" y="461.8" transform="matrix(0.9214 0.3887 -0.3887 0.9214 213.1376 -46.3403)" class="st25" width="170.8" height="83.8"/>
	<polygon id="XMLID_84_" class="st25" points="185.6,587.8 126.1,509.1 224,496.7 283.5,575.5 	"/>
	<polygon id="XMLID_83_" class="st26" points="185.6,587.8 126.1,509.1 158.7,431.9 237.4,465.1 	"/>
	<polygon id="XMLID_82_" class="st25" points="218.2,510.6 158.7,431.9 256.6,419.5 316.1,498.3 	"/>
	<g>
		<defs>
			<rect id="XMLID_79_" x="15.1" y="112.8" width="771.7" height="575.1"/>
		</defs>
		<clipPath id="XMLID_218_">
			<use xlink:href="#XMLID_79_"  style="overflow:visible;"/>
		</clipPath>
		<g class="st27">
			<g>
				<defs>
					<rect id="XMLID_80_" x="158.7" y="419.5" width="97.9" height="91.1"/>
				</defs>
				<clipPath id="XMLID_219_">
					<use xlink:href="#XMLID_80_"  style="overflow:visible;"/>
				</clipPath>
				<polygon id="XMLID_81_" class="st28" points="158.7,431.9 218.2,510.6 256.6,419.5 				"/>
			</g>
		</g>
	</g>
	<polygon id="XMLID_78_" class="st21" points="220.8,533.3 218.2,510.6 316.1,498.3 318.7,520.9 	"/>
	<polygon id="XMLID_77_" class="st26" points="220.8,533.3 218.2,510.6 316.1,498.3 318.7,520.9 	"/>
	<g>
		<defs>
			<rect id="XMLID_1_" x="15.1" y="112.8" width="771.7" height="575.1"/>
		</defs>
		<clipPath id="XMLID_220_">
			<use xlink:href="#XMLID_1_"  style="overflow:visible;"/>
		</clipPath>
		<path id="XMLID_76_" class="st29" d="M181.5,485.3c-4.6-6-11.6-4.3-16,3.9c-2.2,4-3.3,8.9-3.5,13.6c-0.2,4.6-0.8,9.1-2,13.4
			c-0.2,0.7-0.1,1.6,0.2,2l6.6,8.8c0.3,0.5,0.8,0.4,1.2-0.1c2.2-2.8,4.7-4.9,7.4-6c2.6-1.2,5-3.8,6.9-7.7
			C186.8,504.3,186.4,491.7,181.5,485.3"/>
		<path class="st29" d="M161.1,536.3c-0.3,0-0.6-0.2-0.8-0.5l-3.9-5.2c-0.5-0.7-0.5-1.9-0.1-2.8l0.1-0.2c0.1-0.3,0.3-0.5,0.5-0.6
			c0-0.6,0.1-1.2,0.3-1.6l0-0.1c0.1-0.3,0.3-0.5,0.5-0.7c0-0.6,0.1-1.2,0.3-1.6c0.3-0.6,0.7-0.9,1.2-1c0.4,0,0.7,0.1,1,0.5l4.5,6
			c0.5,0.7,0.6,2,0.1,3c-0.2,0.5-0.5,0.8-0.9,0.9c0,0.4-0.1,0.7-0.3,1l0,0.1c-0.2,0.5-0.6,0.8-0.9,0.9c0,0.3-0.1,0.6-0.2,0.8
			l-0.1,0.2C162,535.9,161.6,536.3,161.1,536.3C161.2,536.3,161.1,536.3,161.1,536.3 M159.3,522.7
			C159.3,522.7,159.3,522.7,159.3,522.7c-0.2,0-0.5,0.3-0.6,0.6c-0.2,0.4-0.3,0.9-0.2,1.5c0,0.1-0.1,0.3-0.2,0.3
			c-0.2,0.1-0.3,0.3-0.4,0.5l0,0.1c-0.2,0.4-0.3,0.9-0.2,1.5c0,0.1,0,0.3-0.2,0.3c-0.2,0.1-0.3,0.3-0.4,0.5l-0.1,0.2
			c-0.3,0.7-0.3,1.7,0,2.1l3.9,5.2c0.1,0.1,0.2,0.2,0.3,0.2c0.1,0,0.4-0.2,0.6-0.5l0.1-0.2c0.1-0.2,0.2-0.5,0.2-0.9
			c0-0.2,0.2-0.3,0.3-0.3h0c0.2,0,0.5-0.2,0.6-0.5l0-0.1c0.1-0.3,0.2-0.6,0.2-1c0-0.2,0.2-0.3,0.3-0.3c0.2,0,0.5-0.2,0.6-0.6
			c0.4-0.7,0.3-1.8,0-2.3l-4.5-6C159.5,522.8,159.4,522.7,159.3,522.7"/>
		<polygon id="XMLID_73_" class="st30" points="389.7,422.9 374.5,428.2 502.7,442 		"/>
		<polygon id="XMLID_72_" class="st31" points="389.7,422.9 394,443.1 502.7,442 		"/>
		<polyline id="XMLID_71_" class="st32" points="502.7,442 389.7,422.9 394,443.1 		"/>
		<polygon id="XMLID_70_" class="st30" points="399.5,421.7 394,443.1 502.7,442 		"/>
		<polygon id="XMLID_69_" class="st31" points="399.5,421.7 421.2,413.8 502.7,442 		"/>
		<polygon id="XMLID_68_" class="st32" points="399.5,421.7 421.2,413.8 502.7,442 		"/>
		<path id="XMLID_67_" class="st32" d="M303.7,448.8c-0.1,0-0.2,0-0.2,0c-1.6-0.5-3.2-1.1-4.7-1.8c-0.4-0.2-0.6-0.7-0.4-1.1
			c0.2-0.4,0.7-0.6,1.1-0.4c1.4,0.7,2.9,1.3,4.4,1.7c0.4,0.1,0.7,0.6,0.5,1C304.4,448.6,304.1,448.8,303.7,448.8"/>
		<path class="st32" d="M313.1,450.1c-0.4,0-0.8-0.4-0.8-0.8c0-0.5,0.4-0.8,0.8-0.8c0.8,0,1.5,0,2.3-0.1c1.9-0.2,4.4-0.7,6.2-2.1
			c0.4-0.3,0.9-0.2,1.1,0.1c0.3,0.4,0.2,0.9-0.1,1.1c-2.1,1.7-5,2.3-7.1,2.5C314.7,450.1,313.9,450.1,313.1,450.1L313.1,450.1z
			 M323.8,439.1c-0.3,0-0.7-0.2-0.8-0.5c-0.3-0.9-0.7-1.8-1.2-2.7c-0.9-1.6-2-3.4-3.4-5.3c-0.3-0.4-0.2-0.9,0.2-1.1
			c0.4-0.3,0.9-0.2,1.1,0.2c1.4,2,2.5,3.8,3.5,5.5c0.5,1,1,2,1.3,2.9c0.1,0.4-0.1,0.9-0.5,1C324,439,323.9,439.1,323.8,439.1
			 M350.6,429.8c-0.3,0-0.5-0.1-0.7-0.4c-0.3-0.4-0.6-0.9-0.8-1.3c-1.3-2.2-2.3-4.5-3.3-6.7l-0.2-0.5c-0.2-0.4,0-0.9,0.4-1.1
			c0.4-0.2,0.9,0,1.1,0.4l0.2,0.6c1,2.2,2,4.5,3.2,6.5c0.2,0.4,0.5,0.8,0.8,1.2c0.3,0.4,0.1,0.9-0.2,1.1
			C350.9,429.7,350.8,429.8,350.6,429.8 M313.4,423.3c-0.2,0-0.5-0.1-0.7-0.3c-1.7-2.3-3.7-5.1-5.3-8c-0.2-0.4-0.1-0.9,0.3-1.1
			c0.4-0.2,0.9-0.1,1.1,0.3c1.5,2.8,3.5,5.5,5.2,7.8c0.3,0.4,0.2,0.9-0.2,1.1C313.8,423.2,313.6,423.3,313.4,423.3 M341.9,413
			c-0.3,0-0.5-0.1-0.7-0.3c-1.7-2.3-3.8-4.5-6.4-6.7c-0.4-0.3-0.4-0.8-0.1-1.1c0.3-0.3,0.8-0.4,1.1-0.1c2.7,2.2,4.9,4.5,6.7,7
			c0.3,0.4,0.2,0.9-0.2,1.1C342.2,412.9,342.1,413,341.9,413 M305.1,406.5c-0.4,0-0.8-0.3-0.8-0.7c-0.1-0.5-0.1-1-0.1-1.5
			c0-1,0.1-1.8,0.4-2.6c0.7-1.9,2.2-3.4,4.4-4.4c0.4-0.2,0.9,0,1.1,0.4c0.2,0.4,0,0.9-0.4,1.1c-1.2,0.6-2.9,1.7-3.5,3.5
			c-0.2,0.6-0.3,1.3-0.3,2c0,0.4,0,0.8,0.1,1.3c0.1,0.4-0.3,0.9-0.7,0.9C305.1,406.5,305.1,406.5,305.1,406.5 M327.5,400.9
			c-0.1,0-0.3,0-0.4-0.1c-3-1.6-5.9-2.6-8.7-3c-0.4-0.1-0.8-0.5-0.7-0.9c0.1-0.4,0.5-0.8,0.9-0.7c2.9,0.4,6,1.5,9.2,3.2
			c0.4,0.2,0.5,0.7,0.3,1.1C328,400.7,327.8,400.9,327.5,400.9"/>
		<path id="XMLID_59_" class="st32" d="M362.3,437.4L362.3,437.4c-1.7,0-3.4-0.4-5.1-1.3c-0.4-0.2-0.6-0.7-0.4-1.1
			c0.2-0.4,0.7-0.6,1.1-0.4c1.4,0.7,2.9,1.1,4.4,1.1c0.5,0,0.8,0.4,0.8,0.8C363.1,437,362.7,437.4,362.3,437.4"/>
		<polygon id="XMLID_58_" class="st31" points="592.5,275.6 579.6,283.5 604,290.4 643.3,266.4 		"/>
		<polygon id="XMLID_57_" class="st32" points="592.5,275.6 579.6,283.5 604,290.4 643.3,266.4 		"/>
		<polygon id="XMLID_56_" class="st31" points="586.6,274.7 576.3,281 579.6,283.5 592.5,275.6 		"/>
		<polygon id="XMLID_55_" class="st32" points="586.6,274.7 576.3,281 579.6,283.5 592.5,275.6 		"/>
		<path id="XMLID_54_" class="st30" d="M689.2,260.2l-136.6,65.5l-6.3-13.1L661.4,247c7.4-4.1,17.3-3.9,25.8-3.2
			c6,0.5,8.6,4.1,7.2,9.9C693.7,256.6,691.8,258.9,689.2,260.2"/>
		<g class="st33">
			<g>
				<defs>
					<rect id="XMLID_52_" x="623.4" y="273" width="24.1" height="18.7"/>
				</defs>
				<clipPath id="XMLID_221_">
					<use xlink:href="#XMLID_52_"  style="overflow:visible;"/>
				</clipPath>
				<polygon id="XMLID_53_" class="st34" points="642.5,282.5 647.5,273 623.4,291.7 				"/>
			</g>
		</g>
		<polygon id="XMLID_51_" class="st30" points="555.8,324.1 551.4,326.2 524.4,308.8 531.3,305.5 553,308.9 		"/>
		<g class="st35">
			<g>
				<defs>
					<rect id="XMLID_49_" x="665.3" y="243.4" width="20.9" height="10.5"/>
				</defs>
				<clipPath id="XMLID_222_">
					<use xlink:href="#XMLID_49_"  style="overflow:visible;"/>
				</clipPath>
				<path id="XMLID_50_" class="st36" d="M669.4,244.2l-1.3,0.8c-2.6,1.7-3.6,4.8-2.2,6.9c0.7,1.1,1.8,1.7,3.2,1.9
					c1.3,0.2,2.8-0.2,4.1-1l11-7.1c0.8-0.5,1.5-1.3,2-2.1C680.8,243.3,674.9,243.1,669.4,244.2"/>
			</g>
		</g>
		<polygon id="XMLID_48_" class="st30" points="609.7,317.6 594.8,324.8 602.2,294.7 647.5,273 		"/>
		<polygon id="XMLID_47_" class="st31" points="603.4,316.1 591.5,321.7 594.8,324.8 609.7,317.6 		"/>
		<polygon id="XMLID_46_" class="st30" points="603.4,316.1 591.5,321.7 594.8,324.8 609.7,317.6 		"/>
		<path class="st32" d="M528.2,447c-2.6,0-5.4-0.1-8.2-0.4c-0.4,0-0.8-0.4-0.7-0.9c0-0.4,0.4-0.8,0.9-0.7c3.4,0.3,6.6,0.4,9.7,0.4
			c0.5,0,0.8,0.4,0.8,0.8c0,0.5-0.4,0.8-0.8,0.8C529.3,446.9,528.7,447,528.2,447 M539.5,446.1c-0.4,0-0.7-0.3-0.8-0.7
			c-0.1-0.4,0.2-0.9,0.7-0.9c3.3-0.5,6.4-1.3,9.4-2.3c0.4-0.1,0.9,0.1,1,0.5c0.1,0.4-0.1,0.9-0.5,1c-3,1-6.3,1.8-9.6,2.3
			C539.6,446.1,539.6,446.1,539.5,446.1 M558,439.8c-0.3,0-0.5-0.1-0.7-0.4c-0.2-0.4-0.1-0.9,0.3-1.1c3.1-1.9,5.4-4.1,6.6-6.4
			c0.2-0.4,0.7-0.5,1.1-0.3c0.4,0.2,0.5,0.7,0.3,1.1c-1.4,2.6-3.9,5-7.2,7.1C558.2,439.8,558.1,439.8,558,439.8 M565.6,423.6
			c-0.3,0-0.6-0.2-0.8-0.5c-0.9-2.6-2.8-5.2-5.4-7.5c-0.3-0.3-0.4-0.8-0.1-1.2c0.3-0.3,0.8-0.4,1.2-0.1c2.9,2.6,4.8,5.4,5.9,8.2
			c0.2,0.4-0.1,0.9-0.5,1C565.8,423.6,565.7,423.6,565.6,423.6 M551.8,410.3c-0.1,0-0.2,0-0.4-0.1c-2.8-1.4-5.7-2.6-8.9-3.7
			c-0.4-0.2-0.6-0.6-0.5-1c0.1-0.4,0.6-0.6,1-0.5c3.3,1.2,6.3,2.4,9.1,3.8c0.4,0.2,0.6,0.7,0.4,1.1
			C552.4,410.2,552.1,410.3,551.8,410.3 M533.4,403.7c-0.1,0-0.1,0-0.2,0c-3.4-0.9-6.9-1.7-9.5-2.3c-0.4-0.1-0.7-0.5-0.6-1
			c0.1-0.4,0.5-0.7,1-0.6c2.6,0.6,6.1,1.4,9.5,2.4c0.4,0.1,0.7,0.6,0.6,1C534.1,403.4,533.8,403.7,533.4,403.7 M514.4,399.1
			c-0.1,0-0.1,0-0.2,0c-3.8-0.9-6.8-1.6-9.5-2.4c-0.4-0.1-0.7-0.6-0.6-1c0.1-0.4,0.6-0.7,1-0.6c2.7,0.7,5.6,1.5,9.5,2.4
			c0.4,0.1,0.7,0.5,0.6,1C515.1,398.9,514.7,399.1,514.4,399.1 M495.5,393.8c-0.1,0-0.2,0-0.3,0c-2.6-0.9-4.9-1.9-7.2-3
			c-0.6-0.3-1.3-0.6-1.9-0.9c-0.4-0.2-0.5-0.7-0.3-1.1c0.2-0.4,0.7-0.5,1.1-0.3c0.6,0.3,1.2,0.6,1.8,0.9c2.2,1,4.5,2,7.1,2.9
			c0.4,0.2,0.6,0.6,0.5,1C496.2,393.6,495.9,393.8,495.5,393.8 M478.8,384.1c-0.2,0-0.5-0.1-0.6-0.3c-2.2-2.6-3.4-5.4-3.4-8.4
			c0-0.5,0-0.8,0.1-1.2c0-0.4,0.4-0.8,0.9-0.7c0.4,0,0.8,0.4,0.7,0.9c0,0.3,0,0.6,0,0.9c0,2.6,1,5.1,3,7.4c0.3,0.3,0.3,0.9-0.1,1.2
			C479.2,384,479,384.1,478.8,384.1 M479.9,366.5c-0.2,0-0.4-0.1-0.5-0.2c-0.3-0.3-0.4-0.8-0.1-1.2c0.4-0.5,0.9-1,1.4-1.4
			c1.9-1.8,4.1-3.4,6.5-4.8c0.4-0.2,0.9-0.1,1.1,0.3c0.2,0.4,0.1,0.9-0.3,1.1c-2.3,1.3-4.4,2.8-6.2,4.5c-0.4,0.4-0.9,0.9-1.3,1.3
			C480.3,366.4,480.1,366.5,479.9,366.5 M496.6,356.7c-0.4,0-0.7-0.2-0.8-0.6c-0.1-0.4,0.1-0.9,0.6-1c2.9-0.9,6.2-1.5,9.7-1.9
			c0.4-0.1,0.9,0.3,0.9,0.7c0.1,0.4-0.3,0.9-0.7,0.9c-3.4,0.4-6.6,1.1-9.5,1.9C496.7,356.7,496.6,356.7,496.6,356.7 M516.1,354
			c-0.4,0-0.9-0.3-0.9-0.8c0-0.4,0.2-0.8,0.7-0.9l0.1,0c3.6-0.2,6.6-0.4,9.6-0.7c0.4,0,0.8,0.3,0.9,0.7c0,0.4-0.3,0.8-0.7,0.9
			C522.8,353.6,519.7,353.8,516.1,354C516.1,354,516.1,354,516.1,354 M535.3,351.6c-0.4,0-0.7-0.2-0.8-0.6c-0.1-0.4,0.1-0.9,0.6-1
			c3-0.8,5.9-2,8.9-3.5c0.4-0.2,0.9,0,1.1,0.4c0.2,0.4,0,0.9-0.4,1.1c-3.1,1.6-6.1,2.8-9.2,3.7C535.4,351.6,535.4,351.6,535.3,351.6
			 M552.7,342.9c-0.3,0-0.5-0.1-0.7-0.4c-0.3-0.4-0.2-0.9,0.2-1.1c2.2-1.5,4.5-3.2,7-5.2c0.4-0.3,0.9-0.2,1.1,0.1
			c0.3,0.4,0.2,0.9-0.1,1.1c-2.5,2-4.8,3.8-7.1,5.3C553,342.9,552.9,342.9,552.7,342.9"/>
		<path id="XMLID_31_" class="st37" d="M664.7,626.1c0,0,0.1-0.3,0.3-0.7c0.2-0.5,0.6-1.2,1-2c0.8-1.8,1.9-4.5,2.8-8.2
			c1.9-7.2,2.5-18.3-0.2-31.5c-1.3-6.6-3.3-13.7-5.8-21.1c-2.5-7.5-5.3-15.5-7.7-24.1c-2.3-8.6-4.1-17.9-3.8-27.7
			c0.4-9.8,3.3-19.6,6.4-29.3c3.2-9.7,6.5-19.3,7.5-28.8c1.1-9.6-0.9-19-5.3-26.6c-4.2-7.8-9.5-14.4-13.5-21.3
			c-4-6.9-6.6-13.9-8.1-20.5c-3-13.2-2-24.4-0.5-31.7c1.6-7.4,3.3-11.2,3.3-11.2c0,0-0.1,0.3-0.2,0.7c-0.2,0.5-0.4,1.2-0.7,2.1
			c-0.6,1.9-1.3,4.7-2.1,8.4c-1.3,7.3-2.3,18.4,0.8,31.5c1.6,6.5,4.1,13.5,8.1,20.2c4,6.8,9.3,13.4,13.6,21.3
			c4.4,7.8,6.6,17.5,5.5,27.2c-1,9.7-4.3,19.3-7.5,29.1c-3.2,9.7-6.1,19.4-6.4,29c-0.4,9.6,1.4,18.9,3.7,27.4
			c2.3,8.6,5.1,16.5,7.6,24.1c2.5,7.5,4.5,14.6,5.7,21.3c2.7,13.3,1.9,24.4-0.1,31.7c-1,3.6-2.1,6.4-3,8.1c-0.4,0.8-0.8,1.5-1,2
			C664.8,625.8,664.7,626.1,664.7,626.1"/>
		<path id="XMLID_30_" class="st38" d="M651.7,411.5c0,0-8.1-25.8,6.4-40.9c0.5-0.5,1.4-0.3,1.5,0.4
			C660.4,375.3,661.3,388.2,651.7,411.5"/>
		<path id="XMLID_29_" class="st37" d="M656.5,379.2c0.1,0-0.1,1.8-0.5,4.8c-0.5,3.3-1.2,7.1-1.8,11.4c-0.7,4.3-1.3,8.1-1.8,11.4
			c-0.4,2.9-0.7,4.7-0.9,4.7c-0.1,0-0.1-1.8,0.1-4.8c0.3-2.9,0.8-7,1.5-11.5c0.7-4.5,1.5-8.5,2.1-11.3
			C655.9,380.9,656.3,379.1,656.5,379.2"/>
		<path id="XMLID_28_" class="st38" d="M661.1,472.3c0,0,4.9-26.6,24.8-33.2c0.7-0.2,1.4,0.4,1.1,1.1
			C685.8,444.4,680.5,456.3,661.1,472.3"/>
		<path id="XMLID_27_" class="st37" d="M680.5,446c0.1,0.1-0.9,1.6-2.7,4c-2,2.7-4.4,5.8-6.9,9.2c-2.6,3.4-4.9,6.6-6.9,9.2
			c-1.8,2.4-2.8,3.8-3,3.8c-0.1-0.1,0.8-1.7,2.4-4.2c1.6-2.5,4-5.8,6.7-9.4c2.7-3.6,5.3-6.8,7.2-9
			C679.2,447.3,680.4,445.9,680.5,446"/>
		<path id="XMLID_26_" class="st38" d="M655.8,539c0,0-3-26.9,14.1-38.9c0.6-0.4,1.4,0,1.4,0.7C671.2,505.1,669.7,518,655.8,539"/>
		<path id="XMLID_25_" class="st37" d="M666.7,508.2c0.1,0.1-0.4,1.8-1.4,4.6c-1.1,3.1-2.5,6.8-4,10.8c-1.5,4-2.8,7.7-3.9,10.8
			c-1,2.8-1.6,4.5-1.7,4.5c-0.1,0,0.2-1.8,1.1-4.7c0.8-2.8,2.1-6.7,3.7-11c1.6-4.2,3.1-8,4.3-10.7
			C665.7,509.8,666.5,508.1,666.7,508.2"/>
		<path id="XMLID_24_" class="st38" d="M670.7,606.1c0,0-2-27,15.5-38.4c0.6-0.4,1.4,0,1.4,0.8C687.4,572.8,685.4,585.6,670.7,606.1
			"/>
		<path id="XMLID_23_" class="st37" d="M682.7,575.7c0.1,0.1-0.5,1.8-1.6,4.5c-1.3,3.1-2.7,6.7-4.4,10.7c-1.6,4-3.1,7.6-4.3,10.7
			c-1.1,2.7-1.8,4.4-1.9,4.4c-0.1,0,0.3-1.8,1.2-4.6c0.9-2.8,2.3-6.6,4.1-10.8c1.7-4.2,3.4-7.9,4.6-10.6
			C681.7,577.2,682.6,575.6,682.7,575.7"/>
		<path id="XMLID_22_" class="st38" d="M640.1,388.8c0,0-24-12.5-24.4-33.4c0-0.7,0.8-1.2,1.4-0.8
			C620.6,357.1,630.5,365.6,640.1,388.8"/>
		<path id="XMLID_21_" class="st37" d="M620.6,362.6c0.1-0.1,1.2,1.4,3,3.7c1.9,2.7,4.2,5.9,6.8,9.3c2.5,3.5,4.8,6.6,6.8,9.3
			c1.8,2.4,2.8,3.8,2.7,3.9c-0.1,0.1-1.4-1.2-3.3-3.5c-1.9-2.3-4.4-5.5-7-9.2c-2.6-3.7-4.9-7-6.5-9.5
			C621.4,364.2,620.5,362.6,620.6,362.6"/>
		<path id="XMLID_20_" class="st38" d="M665.8,444.2c0,0-24.7-11-26.4-31.9c-0.1-0.7,0.7-1.2,1.3-0.9
			C644.4,413.7,654.8,421.6,665.8,444.2"/>
		<path id="XMLID_19_" class="st37" d="M644.8,419.2c0.1-0.1,1.3,1.3,3.2,3.6c2.1,2.6,4.6,5.6,7.3,8.9c2.7,3.3,5.2,6.3,7.3,8.9
			c1.9,2.3,3.1,3.7,3,3.8c-0.1,0.1-1.5-1.1-3.5-3.3c-2-2.2-4.7-5.2-7.6-8.7c-2.9-3.5-5.3-6.7-7.1-9.1
			C645.7,420.8,644.7,419.3,644.8,419.2"/>
		<path id="XMLID_18_" class="st38" d="M651.6,506c0,0-16.9-21.1-9-40.4c0.3-0.7,1.2-0.8,1.6-0.1C646.5,469.1,652.1,480.9,651.6,506
			"/>
		<path id="XMLID_17_" class="st37" d="M644.3,474.2c0.1,0,0.6,1.7,1.2,4.6c0.7,3.2,1.5,7.1,2.4,11.3c0.9,4.2,1.8,8,2.5,11.3
			c0.7,2.9,1.1,4.7,0.9,4.7c-0.1,0-0.8-1.7-1.6-4.5c-0.8-2.8-1.8-6.8-2.8-11.2c-1-4.4-1.7-8.4-2.2-11.3
			C644.3,476,644.1,474.2,644.3,474.2"/>
		<path id="XMLID_16_" class="st38" d="M668.4,578.7c0,0-24.5-11.4-25.9-32.3c0-0.7,0.7-1.2,1.4-0.8
			C647.5,547.9,657.8,555.9,668.4,578.7"/>
		<path id="XMLID_15_" class="st37" d="M647.8,553.4c0.1-0.1,1.3,1.3,3.1,3.6c2.1,2.6,4.5,5.7,7.2,9c2.7,3.4,5.1,6.4,7.2,9
			c1.9,2.3,3,3.7,2.9,3.8c-0.1,0.1-1.4-1.2-3.4-3.3c-2-2.2-4.6-5.3-7.4-8.8c-2.8-3.5-5.2-6.8-6.9-9.2S647.7,553.5,647.8,553.4"/>
		<path id="XMLID_14_" class="st37" d="M717.1,472.5c0,0,0,0.2,0,0.6c0,0.5,0,1,0,1.7c-0.1,1.6-0.2,3.8-0.3,6.6
			c-0.3,5.8-0.8,13.8-1.3,23.4l0,0l0,0c-1.7,9.8-6.7,20.6-13.4,31.1c-4.9,7.8-10.1,14.8-14.5,21.4c-4.5,6.5-8.2,12.6-10.9,18
			c-2.6,5.4-4.2,10-5.1,13.2c-0.4,1.6-0.8,2.9-0.9,3.7c-0.2,0.9-0.3,1.3-0.4,1.3c0,0,0-0.5,0.2-1.3c0.1-0.9,0.4-2.2,0.8-3.8
			c0.8-3.3,2.2-7.9,4.8-13.4c2.6-5.5,6.3-11.6,10.7-18.2c4.4-6.6,9.5-13.7,14.4-21.4c6.7-10.5,11.6-21.1,13.4-30.8l0,0.1
			c0.7-9.6,1.2-17.6,1.6-23.4c0.2-2.7,0.4-4.9,0.5-6.5c0.1-0.7,0.1-1.3,0.2-1.7C717.1,472.7,717.1,472.5,717.1,472.5"/>
		<path id="XMLID_13_" class="st38" d="M702.6,533.9c0,0,10.4-25-2.7-41.3c-0.5-0.6-1.4-0.4-1.6,0.3
			C697.2,497.1,695,509.9,702.6,533.9"/>
		<path id="XMLID_12_" class="st37" d="M700.7,501.3c0.1,0,0.5,1.8,0.8,4.7c0.4,2.9,0.8,7,1.1,11.5c0.3,4.5,0.5,8.6,0.5,11.5
			c0,3-0.2,4.8-0.3,4.8c-0.1,0-0.2-1.8-0.4-4.8c-0.2-3.3-0.5-7.2-0.8-11.5c-0.3-4.3-0.6-8.2-0.8-11.5
			C700.6,503.2,700.5,501.3,700.7,501.3"/>
		<path id="XMLID_11_" class="st38" d="M670.4,594.1c0,0,8.3-25.7-6-41c-0.5-0.5-1.4-0.3-1.5,0.4C662.1,557.8,661,570.8,670.4,594.1
			"/>
		<path id="XMLID_10_" class="st37" d="M665.9,561.7c0.1,0,0.6,1.7,1.2,4.6c0.6,2.9,1.3,6.9,2,11.4c0.7,4.5,1.2,8.5,1.4,11.5
			c0.2,3,0.2,4.8,0.1,4.8c-0.1,0-0.4-1.8-0.8-4.7c-0.5-3.3-1.1-7.1-1.7-11.4c-0.6-4.3-1.2-8.1-1.7-11.4
			C666,563.6,665.8,561.8,665.9,561.7"/>
		<path id="XMLID_9_" class="st39" d="M715.8,503.4c0,0,22.1-15.5,19.9-36.3c-0.1-0.7-0.9-1.1-1.5-0.6
			C731,469.4,722.3,479.1,715.8,503.4"/>
		<path id="XMLID_8_" class="st38" d="M715.8,503.4c0,0,22.1-15.5,19.9-36.3c-0.1-0.7-0.9-1.1-1.5-0.6
			C731,469.4,722.3,479.1,715.8,503.4"/>
		<path id="XMLID_7_" class="st37" d="M731.7,474.9c0.1,0.1-0.6,1.8-1.8,4.4c-1.3,2.7-3.1,6.3-5.2,10.3c-2.1,4-4.2,7.5-5.8,10
			c-1.6,2.5-2.7,4-2.8,3.9c-0.1-0.1,0.8-1.7,2.2-4.3c1.6-2.9,3.5-6.3,5.5-10.1c2.1-3.8,3.9-7.2,5.5-10.1
			C730.6,476.4,731.5,474.8,731.7,474.9"/>
		<path id="XMLID_6_" class="st39" d="M679.4,568.6c0,0,26.7-4.2,33.9-23.8c0.3-0.7-0.4-1.4-1.1-1.2
			C708,544.8,695.9,549.6,679.4,568.6"/>
		<path id="XMLID_5_" class="st38" d="M679.4,568.6c0,0,26.7-4.2,33.9-23.8c0.3-0.7-0.4-1.4-1.1-1.2
			C708,544.8,695.9,549.6,679.4,568.6"/>
		<path id="XMLID_4_" class="st37" d="M706.2,550c0.1,0.1-1.3,1.3-3.6,3.2c-2.3,1.8-5.6,4.3-9.2,6.9c-3.7,2.6-7.1,4.9-9.6,6.4
			c-2.5,1.5-4.2,2.4-4.2,2.2c-0.1-0.1,1.4-1.2,3.8-2.8c2.7-1.9,5.9-4.2,9.4-6.6c3.5-2.5,6.7-4.8,9.4-6.7
			C704.6,550.9,706.1,549.9,706.2,550"/>
		<polygon id="XMLID_3_" class="st40" points="647.8,617.7 655.4,668 686,667.9 696.3,617.7 		"/>
		<path id="XMLID_2_" class="st37" d="M691.8,637.1c0,0-0.1,0.1-0.3,0.2c-0.2,0.1-0.4,0.3-0.8,0.5c-0.7,0.4-1.9,0.8-3.4,1
			c-1.5,0.2-3.5,0.2-5.6-0.5c-2.1-0.7-4.4-2-6-4.4c-0.8-1.2-1.3-2.6-1.4-4.2c-0.1-1.5,0.5-3.4,2.1-4.3c1.6-0.9,3.6-0.6,5.1,0.4
			c1.6,1,2.5,2.8,2.9,4.6c0.4,1.8,0.5,3.7,0.4,5.7c-0.1,1.9-0.5,3.9-1.2,5.8c-0.7,1.9-1.9,3.7-3.5,5.1c-1.6,1.4-3.7,2.4-5.9,2.5
			c-2.2,0.1-4.3-0.7-6.1-1.8c-1.8-1.1-3.3-2.5-4.6-4.1c-1.3-1.6-2.2-3.5-2.3-5.5c-0.1-2,0.6-4.1,2.2-5.3c1.6-1.3,3.8-1.2,5.4-0.3
			c1.6,0.8,2.8,2.4,3.1,4.1c0.6,3.4-1.4,6.6-3.9,8c-2.5,1.4-5.2,1.5-7.4,1.1c-2.2-0.4-3.9-1.3-5.3-2.1c-1.3-0.8-2.3-1.5-2.9-2
			c-0.6-0.5-1-0.8-0.9-0.8c0,0,0.4,0.2,1,0.7c0.7,0.4,1.7,1.1,3,1.8c1.3,0.7,3.1,1.5,5.2,1.9c2.1,0.4,4.7,0.3,7-1.1
			c2.2-1.3,4.1-4.3,3.5-7.3c-0.3-1.5-1.3-2.8-2.8-3.6c-1.4-0.8-3.3-0.8-4.6,0.3c-1.3,1-2,2.9-1.9,4.7c0.1,1.8,1,3.6,2.2,5.1
			c1.2,1.5,2.7,2.9,4.4,3.9c1.7,1,3.6,1.7,5.6,1.6c2-0.1,3.9-1,5.4-2.3c1.5-1.3,2.6-2.9,3.3-4.7c0.7-1.8,1.1-3.7,1.2-5.5
			c0.1-1.9,0.1-3.7-0.3-5.4c-0.4-1.7-1.2-3.3-2.6-4.2c-1.3-0.9-3.1-1.2-4.4-0.4c-1.3,0.7-1.9,2.3-1.8,3.7c0.1,1.4,0.6,2.8,1.3,3.9
			c1.5,2.2,3.7,3.6,5.7,4.3c2,0.7,3.9,0.8,5.4,0.6C690.4,638.1,691.8,637,691.8,637.1"/>
	</g>
</g>
</svg>
