<svg id="Layer_1" data-name="Layer 1" xmlns="http://www.w3.org/2000/svg" xmlns:xlink="http://www.w3.org/1999/xlink" viewBox="0 0 880 700"><defs><style>.cls-1{fill:none;}.cls-2{fill:#fafbfb;}.cls-3{fill:#263238;}.cls-4{opacity:0.37;}.cls-5{fill:#58595b;}.cls-6{opacity:0.78;}.cls-7{clip-path:url(#clip-path);}.cls-8{fill:url(#linear-gradient);}.cls-9{fill:url(#linear-gradient-2);}.cls-10{fill:url(#linear-gradient-3);}.cls-11{fill:url(#linear-gradient-4);}.cls-12{fill:url(#linear-gradient-5);}.cls-13{fill:url(#linear-gradient-6);}.cls-14{fill:url(#linear-gradient-7);}.cls-15{fill:url(#linear-gradient-8);}.cls-16{fill:url(#linear-gradient-9);}.cls-17{fill:url(#linear-gradient-10);}.cls-18{fill:url(#linear-gradient-11);}.cls-19{fill:url(#linear-gradient-12);}.cls-20{fill:url(#linear-gradient-13);}.cls-21{fill:url(#linear-gradient-14);}.cls-22{fill:url(#linear-gradient-15);}.cls-23{fill:url(#linear-gradient-16);}.cls-24,.cls-38{fill:#fff;}.cls-24{stroke:#414042;stroke-miterlimit:10;stroke-width:0.25px;}.cls-25{fill:url(#linear-gradient-17);}.cls-26{fill:#ebebeb;}.cls-27{fill:#f5f5f5;}.cls-28{fill:#192f36;}.cls-29{fill:#455b64;}.cls-30{fill:#dd4d65;}.cls-31{fill:#b78876;}.cls-32{fill:#aa6551;}.cls-33{fill:#f0b943;}.cls-34{opacity:0.3;}.cls-35{opacity:0.39;}.cls-36{fill:#e0c4df;}.cls-37{fill:url(#linear-gradient-18);}.cls-39{fill:url(#linear-gradient-19);}</style><clipPath id="clip-path"><polygon class="cls-1" points="479.24 114.85 609.74 362.58 861.02 366.34 861.02 245.29 643.1 126.59 479.24 114.85"/></clipPath><linearGradient id="linear-gradient" x1="406.54" y1="173.65" x2="682.44" y2="173.65" gradientUnits="userSpaceOnUse"><stop offset="0" stop-color="#27646a"/><stop offset="1" stop-color="#4ea8b0"/></linearGradient><linearGradient id="linear-gradient-2" x1="319.09" y1="231.6" x2="827.6" y2="231.6" xlink:href="#linear-gradient"/><linearGradient id="linear-gradient-3" x1="820.26" y1="289.1" x2="830.54" y2="289.1" xlink:href="#linear-gradient"/><linearGradient id="linear-gradient-4" x1="789.66" y1="245.29" x2="823.6" y2="245.29" xlink:href="#linear-gradient"/><linearGradient id="linear-gradient-5" x1="319.28" y1="207.26" x2="354.9" y2="207.26" xlink:href="#linear-gradient"/><linearGradient id="linear-gradient-6" x1="584.64" y1="185.73" x2="639.22" y2="185.73" xlink:href="#linear-gradient"/><linearGradient id="linear-gradient-7" x1="536.15" y1="221.57" x2="586.89" y2="221.57" xlink:href="#linear-gradient"/><linearGradient id="linear-gradient-8" x1="364.28" y1="307.83" x2="473.58" y2="307.83" gradientTransform="translate(601.86 -178.79) rotate(74.29)" xlink:href="#linear-gradient"/><linearGradient id="linear-gradient-9" x1="374.55" y1="307.83" x2="463.31" y2="307.83" gradientTransform="translate(654 -155.86) rotate(80.57)" xlink:href="#linear-gradient"/><linearGradient id="linear-gradient-10" x1="686.59" y1="307.83" x2="795.89" y2="307.83" gradientTransform="translate(846.04 -487.92) rotate(74.95)" xlink:href="#linear-gradient"/><linearGradient id="linear-gradient-11" x1="697.13" y1="306.16" x2="785.89" y2="306.16" gradientTransform="translate(944.55 -469.95) rotate(82.23)" xlink:href="#linear-gradient"/><linearGradient id="linear-gradient-12" x1="721.43" y1="295.83" x2="781.17" y2="295.83" xlink:href="#linear-gradient"/><linearGradient id="linear-gradient-13" x1="400.19" y1="295.83" x2="459.93" y2="295.83" xlink:href="#linear-gradient"/><linearGradient id="linear-gradient-14" x1="405.64" y1="264.3" x2="485.69" y2="264.3" xlink:href="#linear-gradient"/><linearGradient id="linear-gradient-15" x1="673.81" y1="267.15" x2="737.8" y2="267.15" xlink:href="#linear-gradient"/><linearGradient id="linear-gradient-16" x1="413.55" y1="173.99" x2="527.27" y2="173.99" xlink:href="#linear-gradient"/><linearGradient id="linear-gradient-17" x1="843.45" y1="269.29" x2="761.94" y2="358.77" xlink:href="#linear-gradient"/><linearGradient id="linear-gradient-18" x1="3911.81" y1="838.67" x2="3995.96" y2="838.67" gradientTransform="translate(2383.84 -3222.91) rotate(106.36)" gradientUnits="userSpaceOnUse"><stop offset="0" stop-color="#192f36"/><stop offset="1" stop-color="#192f36"/></linearGradient><linearGradient id="linear-gradient-19" x1="3867.55" y1="801.61" x2="3910.77" y2="801.61" xlink:href="#linear-gradient-18"/></defs><rect class="cls-2" x="242.05" y="61.44" width="510.82" height="335.05"/><path class="cls-3" d="M752.86,396.49c0-3.22-.15-130.7-.39-335l.39.39-510.77.11h0l.49-.5c0,119.15,0,232.55,0,335.05l-.45-.45,510.81.45L242.05,397h-.46v-.46c0-102.5,0-215.9,0-335v-.5h.54l510.77.1h.4v.4C753,265.79,752.87,393.27,752.86,396.49Z"/><g class="cls-4"><circle class="cls-5" cx="408.9" cy="233.86" r="8.49" transform="translate(-45.6 357.64) rotate(-45)"/><circle class="cls-5" cx="412.15" cy="81.13" r="8.49"/><path class="cls-5" d="M410.35,236.73h-7a1.48,1.48,0,1,1,0-2.95h4.06v-.42a1.47,1.47,0,1,1,2.94.06Zm-14.33,0h-7.37a1.48,1.48,0,0,1,0-2.95H396a1.48,1.48,0,1,1,0,2.95Zm-14.74,0h-7.37a1.48,1.48,0,1,1,0-2.95h7.37a1.48,1.48,0,0,1,0,2.95Zm-14.74,0h-7.38a1.48,1.48,0,0,1,0-2.95h7.38a1.48,1.48,0,0,1,0,2.95Zm-14.75,0h-7.37a1.48,1.48,0,1,1,0-2.95h7.37a1.48,1.48,0,1,1,0,2.95Zm-14.74,0h-7.38a1.48,1.48,0,0,1,0-2.95h7.38a1.48,1.48,0,0,1,0,2.95Zm-14.75,0h-7.37a1.48,1.48,0,0,1,0-2.95h7.37a1.48,1.48,0,1,1,0,2.95Zm-14.74,0h-7.37a1.48,1.48,0,1,1,0-2.95h7.37a1.48,1.48,0,0,1,0,2.95Zm-14.75,0h-7.37a1.48,1.48,0,0,1,0-2.95h7.37a1.48,1.48,0,1,1,0,2.95Zm-14.74,0H270.7a1.48,1.48,0,1,1,0-2.95h7.37a1.48,1.48,0,0,1,0,2.95Zm-14.74,0H256a1.48,1.48,0,0,1,0-2.95h7.38a1.48,1.48,0,0,1,0,2.95Zm145.75-9.23h0a1.48,1.48,0,0,1-1.44-1.51l.14-7.37a1.47,1.47,0,0,1,1.47-1.44h0a1.47,1.47,0,0,1,1.45,1.5l-.14,7.37A1.49,1.49,0,0,1,409.08,227.5Zm.29-14.75h0a1.46,1.46,0,0,1-1.45-1.5l.14-7.37a1.51,1.51,0,0,1,1.5-1.44,1.46,1.46,0,0,1,1.45,1.5l-.14,7.37A1.47,1.47,0,0,1,409.37,212.75Zm.28-14.74h0a1.47,1.47,0,0,1-1.45-1.5l.14-7.37a1.49,1.49,0,0,1,1.51-1.45,1.48,1.48,0,0,1,1.44,1.51l-.14,7.37A1.47,1.47,0,0,1,409.65,198Zm.28-14.74h0a1.47,1.47,0,0,1-1.44-1.5l.14-7.37a1.48,1.48,0,1,1,2.95,0l-.15,7.38A1.47,1.47,0,0,1,409.93,183.27Zm.28-14.74h0a1.47,1.47,0,0,1-1.44-1.5l.14-7.37a1.46,1.46,0,0,1,1.5-1.45,1.48,1.48,0,0,1,1.45,1.5l-.14,7.37A1.48,1.48,0,0,1,410.21,168.53Zm.29-14.74h0a1.48,1.48,0,0,1-1.45-1.5l.14-7.37a1.48,1.48,0,0,1,1.48-1.45h0a1.47,1.47,0,0,1,1.44,1.5l-.14,7.37A1.47,1.47,0,0,1,410.5,153.79Zm311-5.6a1.47,1.47,0,0,1-1.47-1.45l-.07-4.61a1.47,1.47,0,0,1,1.45-1.49,1.5,1.5,0,0,1,1.5,1.45l.07,4.61a1.47,1.47,0,0,1-1.46,1.49Zm-310.68-9.14h0a1.48,1.48,0,0,1-1.44-1.51l.14-7.37a1.47,1.47,0,0,1,1.47-1.44h0a1.48,1.48,0,0,1,1.45,1.5l-.15,7.37A1.47,1.47,0,0,1,410.78,139.05Zm310.51-2.83a1.48,1.48,0,0,1-1.47-1.46l-.11-7.37a1.47,1.47,0,0,1,1.46-1.49,1.45,1.45,0,0,1,1.49,1.45l.11,7.37a1.48,1.48,0,0,1-1.46,1.5ZM411.06,124.31h0a1.48,1.48,0,0,1-1.44-1.51l.14-7.37a1.49,1.49,0,0,1,1.5-1.44,1.47,1.47,0,0,1,1.45,1.5l-.14,7.37A1.49,1.49,0,0,1,411.06,124.31Zm310-2.84a1.47,1.47,0,0,1-1.47-1.45l-.11-7.37a1.48,1.48,0,0,1,1.46-1.5h0a1.48,1.48,0,0,1,1.47,1.46l.11,7.37a1.47,1.47,0,0,1-1.46,1.49ZM411.35,109.56h0a1.47,1.47,0,0,1-1.45-1.5l.14-7.37a1.49,1.49,0,0,1,1.48-1.45h0a1.48,1.48,0,0,1,1.44,1.51l-.14,7.37A1.47,1.47,0,0,1,411.35,109.56Zm309.52-2.83a1.47,1.47,0,0,1-1.47-1.45l-.11-7.37a1.48,1.48,0,0,1,1.46-1.5h0a1.47,1.47,0,0,1,1.47,1.45l.11,7.38a1.47,1.47,0,0,1-1.46,1.49ZM411.63,94.82h0a1.48,1.48,0,0,1-1.45-1.5L410.3,86a1.47,1.47,0,1,1,2.94.06l-.14,7.37A1.47,1.47,0,0,1,411.63,94.82Zm309-2.83a1.48,1.48,0,0,1-1.47-1.46l-.11-7.37a1.47,1.47,0,0,1,1.46-1.49A1.45,1.45,0,0,1,722,83.12l.11,7.37a1.48,1.48,0,0,1-1.46,1.5Zm-4.75-10.14h-7.37a1.47,1.47,0,1,1,0-2.94h7.37a1.47,1.47,0,1,1,0,2.94Zm-14.75,0h-7.37a1.47,1.47,0,0,1,0-2.94h7.37a1.47,1.47,0,1,1,0,2.94Zm-14.74,0h-7.37a1.47,1.47,0,1,1,0-2.94h7.37a1.47,1.47,0,1,1,0,2.94Zm-14.74,0H664.3a1.47,1.47,0,0,1,0-2.94h7.38a1.47,1.47,0,1,1,0,2.94Zm-14.75,0h-7.37a1.47,1.47,0,0,1,0-2.94h7.37a1.47,1.47,0,1,1,0,2.94Zm-14.74,0h-7.37a1.47,1.47,0,1,1,0-2.94h7.37a1.47,1.47,0,1,1,0,2.94Zm-14.75,0h-7.37a1.47,1.47,0,0,1,0-2.94h7.37a1.47,1.47,0,1,1,0,2.94Zm-14.74,0h-7.37a1.47,1.47,0,1,1,0-2.94h7.37a1.47,1.47,0,1,1,0,2.94Zm-14.75,0h-7.37a1.47,1.47,0,0,1,0-2.94H598a1.47,1.47,0,1,1,0,2.94Zm-14.74,0h-7.37a1.47,1.47,0,1,1,0-2.94h7.37a1.47,1.47,0,1,1,0,2.94Zm-14.74,0h-7.38a1.47,1.47,0,0,1,0-2.94h7.38a1.47,1.47,0,1,1,0,2.94Zm-14.75,0h-7.37a1.47,1.47,0,0,1,0-2.94h7.37a1.47,1.47,0,1,1,0,2.94Zm-14.74,0h-7.37a1.47,1.47,0,1,1,0-2.94H539a1.47,1.47,0,1,1,0,2.94Zm-14.75,0h-7.37a1.47,1.47,0,0,1,0-2.94h7.37a1.47,1.47,0,1,1,0,2.94Zm-14.74,0h-7.37a1.47,1.47,0,1,1,0-2.94h7.37a1.47,1.47,0,0,1,0,2.94Zm-14.75,0h-7.37a1.47,1.47,0,0,1,0-2.94h7.37a1.47,1.47,0,1,1,0,2.94Zm-14.74,0h-7.37a1.47,1.47,0,1,1,0-2.94H480a1.47,1.47,0,1,1,0,2.94Zm-14.74,0h-7.38a1.47,1.47,0,1,1,0-2.94h7.38a1.47,1.47,0,1,1,0,2.94Zm-14.75,0h-7.37a1.47,1.47,0,1,1,0-2.94h7.37a1.47,1.47,0,1,1,0,2.94Zm-14.74,0H428.4a1.47,1.47,0,1,1,0-2.94h7.37a1.47,1.47,0,1,1,0,2.94Zm-14.75,0h-7.37a1.47,1.47,0,1,1,0-2.94H421a1.47,1.47,0,1,1,0,2.94Z"/><g class="cls-6"><path class="cls-5" d="M398.46,89.55a1.91,1.91,0,0,0-1.34.53L370.6,115.2a12.36,12.36,0,0,1-8.51,3.39H271.83a2,2,0,1,0,0,3.9h90.26A16.21,16.21,0,0,0,373.28,118L399.8,92.92a2,2,0,0,0-1.34-3.37Z"/><path class="cls-5" d="M348.24,130.7H271.83a2,2,0,0,0,0,3.91h76.41a2,2,0,0,0,0-3.91Z"/><path class="cls-5" d="M335.8,142.81h-64a2,2,0,0,0,0,3.91h64a2,2,0,1,0,0-3.91Z"/></g></g><g class="cls-7"><path class="cls-8" d="M425.35,171.65l-16.42,13.17c-4.56,3.66-2.15,11.47,3.53,11.44l270-1.59L609.35,151H483.13A92.28,92.28,0,0,0,425.35,171.65Z"/><path class="cls-9" d="M827.46,289.09l-.72-6.63c-2.5-22.52-14-42.75-31.49-55.33l-1.36-1A147.19,147.19,0,0,0,723.39,199l-40.95-4.34-270,1.59c-5.68,0-8.09-7.78-3.53-11.44l16.42-13.17A92.28,92.28,0,0,1,483.13,151H609.35l-1-.43a58.3,58.3,0,0,0-23.94-5.17H465.6a67.31,67.31,0,0,0-21.3,3.47l-89.4,35.69a24.45,24.45,0,0,0-11.38,8l-18.47,23.13a27.73,27.73,0,0,0-6,17.31v37.68c0,10,32.69,44.06,32.69,44.06a23.91,23.91,0,0,0,11.5,3H764.9l42.66-3C819.77,313.91,828.86,302.21,827.46,289.09Z"/><path class="cls-10" d="M826,306.16h-1.28a4.69,4.69,0,0,1-4.5-4.86V276.9a4.69,4.69,0,0,1,4.5-4.85h0a4.67,4.67,0,0,1,4.5,4.58l1.27,24.4A4.7,4.7,0,0,1,826,306.16Z"/><path class="cls-11" d="M810.2,267.36h13.4a77.09,77.09,0,0,0-28.35-40.23l-1.36-1q-2.1-1.5-4.23-2.93c2.73,10.3,6.11,24.42,8.33,33.89C799.4,263.15,804.43,267.36,810.2,267.36Z"/><path class="cls-12" d="M354.9,212.49v-27.9a24.45,24.45,0,0,0-11.38,8l-18.47,23.13a27.62,27.62,0,0,0-5.77,14.19l25.21-4.31C350.48,224.61,354.9,219,354.9,212.49Z"/><path class="cls-13" d="M638.08,193.45l-9.5-9.95a28.09,28.09,0,0,0-14.34-8.16l-18.77-4.08c-5.15-1.12-10.08,2.77-10.65,8.41l-.13,1.33c-.57,5.74,3.63,10.73,9,10.67l24.19-.3a8.36,8.36,0,0,1,7.77,5.45l.45,1.12a3.75,3.75,0,0,0,3.44,2.45h5.94C638.83,200.39,640.49,196,638.08,193.45Z"/><path class="cls-14" d="M540.82,211.47h41.4c3.23,0,5.5,3.46,4.38,6.73-1.89,5.53-6.4,12.58-17.13,13.4-9.64.74-21.79-5.15-31-10.75C534.35,218.32,536,211.47,540.82,211.47Z"/><circle class="cls-15" cx="418.93" cy="307.83" r="54.65" transform="translate(9.2 627.79) rotate(-74.29)"/><circle class="cls-16" cx="418.93" cy="307.83" r="44.38" transform="translate(46.66 670.69) rotate(-80.57)"/><circle class="cls-17" cx="741.24" cy="307.83" r="54.65" transform="translate(251.5 943.71) rotate(-74.95)"/><circle class="cls-18" cx="741.51" cy="306.16" r="44.38" transform="translate(337.86 999.44) rotate(-82.23)"/><path class="cls-19" d="M777.45,323.75a.53.53,0,0,1-.25-.05.64.64,0,0,1-.34-.83,38.28,38.28,0,0,0,3-15,38.67,38.67,0,0,0-57.53-33.75.63.63,0,0,1-.86-.25.64.64,0,0,1,.24-.86A39.95,39.95,0,0,1,778,323.37.63.63,0,0,1,777.45,323.75Z"/><path class="cls-20" d="M456.21,323.75a.56.56,0,0,1-.25-.05.62.62,0,0,1-.33-.83,38.68,38.68,0,0,0-54.5-48.79.64.64,0,0,1-.62-1.11,39.95,39.95,0,0,1,56.28,50.4A.63.63,0,0,1,456.21,323.75Z"/><path class="cls-21" d="M485.06,290.85a.62.62,0,0,1-.62-.52c-2.68-14.09-8.45-25.51-17.14-33.94a59.49,59.49,0,0,0-26.25-14.46,90.51,90.51,0,0,0-34.67-2.13.64.64,0,0,1-.73-.52.63.63,0,0,1,.52-.72,92,92,0,0,1,35.22,2.15c16.79,4.57,38.1,16.86,44.29,49.39a.64.64,0,0,1-.51.74Z"/><path class="cls-22" d="M674.49,299.17a.63.63,0,0,1-.63-.61c-.63-20.1,4.76-35.84,16-46.79,18.57-18.07,47.06-16.63,47.34-16.61a.63.63,0,0,1,.6.66.64.64,0,0,1-.67.6c-.28,0-28.24-1.42-46.4,16.26-11,10.69-16.22,26.11-15.6,45.84a.64.64,0,0,1-.62.65Z"/><path class="cls-23" d="M414.19,190.06a.63.63,0,0,1-.55-.32.62.62,0,0,1,.23-.86l36.61-20.83a72,72,0,0,1,34.16-9.37l42-.75a.63.63,0,0,1,.64.62.62.62,0,0,1-.62.64l-42,.76a70.63,70.63,0,0,0-33.57,9.2L414.5,190A.71.71,0,0,1,414.19,190.06Z"/></g><path class="cls-24" d="M412.43,196.9a6.4,6.4,0,0,1-6.08-4.5,7.12,7.12,0,0,1,2.18-8.07L425,171.16l.4.49-.4-.49a93.54,93.54,0,0,1,58.18-20.76H609.52l.15.09,75,44.8L412.47,196.9Zm13.31-24.75-16.42,13.16a5.92,5.92,0,0,0-1.78,6.67,5.19,5.19,0,0,0,4.89,3.65h0l267.71-1.58-71-42.39h-126a92.26,92.26,0,0,0-57.39,20.49Z"/><path class="cls-24" d="M363.28,318.4a24.58,24.58,0,0,1-11.8-3l-.15-.12c-1.35-1.4-32.87-34.38-32.87-44.49V233.06a28.45,28.45,0,0,1,6.09-17.71L343,192.23A25.13,25.13,0,0,1,354.7,184l89.36-35.68a68.15,68.15,0,0,1,21.54-3.51H584.46a58.56,58.56,0,0,1,24.2,5.23l3.63,1.63H483.13a92.26,92.26,0,0,0-57.39,20.49l-16.42,13.16a5.92,5.92,0,0,0-1.78,6.67,5.19,5.19,0,0,0,4.89,3.65h0l270-1.59,41,4.34a148.23,148.23,0,0,1,70.8,27.26l1.36,1c17.65,12.7,29.23,33,31.75,55.78l.72,6.63a25,25,0,0,1-5.53,18.59,21.37,21.37,0,0,1-15,7.79l-12.22.86a.62.62,0,0,1-.68-.58.64.64,0,0,1,.59-.68l12.22-.86a20.14,20.14,0,0,0,14.08-7.35,23.67,23.67,0,0,0,5.24-17.63c-.23-2.22-.48-4.43-.72-6.63-2.48-22.39-13.87-42.4-31.23-54.89l-1.36-1a147.11,147.11,0,0,0-70.19-27l-40.92-4.32L412.47,196.9a6.41,6.41,0,0,1-6.12-4.5,7.12,7.12,0,0,1,2.18-8.07L425,171.16a93.54,93.54,0,0,1,58.18-20.76H606.32a57.12,57.12,0,0,0-21.86-4.33H465.6a66.61,66.61,0,0,0-21.1,3.43l-89.37,35.68A23.82,23.82,0,0,0,344,193l-18.47,23.12a27.19,27.19,0,0,0-5.82,16.92v37.68c0,9.4,30.79,41.81,32.45,43.55a23.39,23.39,0,0,0,11.11,2.85.63.63,0,0,1,0,1.26Z"/><path class="cls-24" d="M687.5,318.4H476a.63.63,0,0,1,0-1.26H687.5a.63.63,0,0,1,0,1.26Z"/><path class="cls-25" d="M826,306.16h-1.28a4.69,4.69,0,0,1-4.5-4.86V276.9a4.69,4.69,0,0,1,4.5-4.85h0a4.67,4.67,0,0,1,4.5,4.58l1.27,24.4A4.7,4.7,0,0,1,826,306.16Z"/><path class="cls-24" d="M824.46,268H810.2c-6.07,0-11.34-4.42-12.83-10.74-2.3-9.84-5.62-23.7-8.32-33.88l-.43-1.62,1.39.94c1.51,1,2.9,2,4.25,2.94l1.36,1a78.21,78.21,0,0,1,28.59,40.57ZM790.7,224.69c2.62,10,5.72,22.95,7.9,32.28,1.35,5.75,6.12,9.76,11.6,9.76h12.55a76.84,76.84,0,0,0-27.87-39.09l-1.36-1C792.61,226,791.68,225.36,790.7,224.69Z"/><path class="cls-24" d="M318.56,230.7l.09-.83a28.2,28.2,0,0,1,5.9-14.52L343,192.23A25.13,25.13,0,0,1,354.7,184l.83-.28v28.78c0,6.9-4.6,12.69-10.93,13.77Zm35.7-45.22A24,24,0,0,0,344,193l-18.47,23.12a26.74,26.74,0,0,0-5.53,13L344.38,225c5.73-1,9.88-6.24,9.88-12.52Z"/><path class="cls-24" d="M635.47,201h-6a4.38,4.38,0,0,1-4-2.85l-.45-1.11A7.71,7.71,0,0,0,618,192h-.09l-24.19.3a9.2,9.2,0,0,1-6.93-3.07,10.72,10.72,0,0,1-2.69-8.3l.13-1.32a10.42,10.42,0,0,1,4.15-7.41,9,9,0,0,1,7.26-1.56l18.78,4.08A28.69,28.69,0,0,1,629,183.06l9.49,9.95a4.85,4.85,0,0,1,.91,5.28A4.3,4.3,0,0,1,635.47,201ZM618,190.74a9,9,0,0,1,8.26,5.85l.44,1.12a3.13,3.13,0,0,0,2.86,2h6a3,3,0,0,0,2.81-1.95,3.61,3.61,0,0,0-.66-3.92l-9.49-9.95a27.47,27.47,0,0,0-14-8l-18.77-4.08a7.7,7.7,0,0,0-6.25,1.34,9.14,9.14,0,0,0-3.64,6.51l-.13,1.33a9.43,9.43,0,0,0,2.37,7.32,7.81,7.81,0,0,0,6,2.65l24.18-.29Z"/><path class="cls-24" d="M567.81,232.3c-9.68,0-21.34-5.84-29.63-10.91a5.73,5.73,0,0,1-2.43-6.52,5.25,5.25,0,0,1,5.07-4h41.4a5.16,5.16,0,0,1,4.22,2.23,5.91,5.91,0,0,1,.76,5.33c-2,5.85-6.69,13-17.68,13.83C569,232.28,568.39,232.3,567.81,232.3Zm-27-20.2a4,4,0,0,0-3.85,3.11,4.48,4.48,0,0,0,1.87,5.11c8.63,5.27,20.95,11.4,30.59,10.65,10.29-.79,14.7-7.49,16.57-13a4.63,4.63,0,0,0-.59-4.19,3.91,3.91,0,0,0-3.19-1.7Z"/><path class="cls-24" d="M418.93,363.11a55.28,55.28,0,1,1,55.28-55.28A55.34,55.34,0,0,1,418.93,363.11Zm0-109.3a54,54,0,1,0,54,54A54.07,54.07,0,0,0,418.93,253.81Z"/><path class="cls-24" d="M418.93,352.84a45,45,0,1,1,45-45A45.06,45.06,0,0,1,418.93,352.84Zm0-88.76a43.75,43.75,0,1,0,43.75,43.75A43.8,43.8,0,0,0,418.93,264.08Z"/><path class="cls-24" d="M741.24,363.11a55.28,55.28,0,1,1,55.28-55.28A55.34,55.34,0,0,1,741.24,363.11Zm0-109.3a54,54,0,1,0,54,54A54.08,54.08,0,0,0,741.24,253.81Z"/><path class="cls-24" d="M741.24,352.84a45,45,0,1,1,45-45A45.06,45.06,0,0,1,741.24,352.84Zm0-88.76A43.75,43.75,0,1,0,785,307.83,43.8,43.8,0,0,0,741.24,264.08Z"/><path class="cls-24" d="M777.45,323.75a.53.53,0,0,1-.25-.05.64.64,0,0,1-.34-.83,38.28,38.28,0,0,0,3-15,38.67,38.67,0,0,0-57.53-33.75.63.63,0,0,1-.86-.25.64.64,0,0,1,.24-.86A39.95,39.95,0,0,1,778,323.37.63.63,0,0,1,777.45,323.75Z"/><path class="cls-24" d="M456.21,323.75a.56.56,0,0,1-.25-.05.62.62,0,0,1-.33-.83,38.68,38.68,0,0,0-54.5-48.79.64.64,0,0,1-.62-1.11,39.95,39.95,0,0,1,56.28,50.4A.63.63,0,0,1,456.21,323.75Z"/><path class="cls-24" d="M485.06,290.85a.62.62,0,0,1-.62-.52c-2.68-14.09-8.45-25.51-17.14-33.94a59.49,59.49,0,0,0-26.25-14.46,90.51,90.51,0,0,0-34.67-2.13.64.64,0,0,1-.73-.52.63.63,0,0,1,.52-.72,92,92,0,0,1,35.22,2.15c16.79,4.57,38.1,16.86,44.29,49.39a.64.64,0,0,1-.51.74Z"/><path class="cls-24" d="M674.49,299.17a.63.63,0,0,1-.63-.61c-.63-20.1,4.76-35.84,16-46.79,18.57-18.07,47.06-16.63,47.34-16.61a.63.63,0,0,1,.6.66.64.64,0,0,1-.67.6c-.28,0-28.24-1.42-46.4,16.26-11,10.69-16.22,26.11-15.6,45.84a.64.64,0,0,1-.62.65Z"/><path class="cls-24" d="M414.19,190.06a.63.63,0,0,1-.55-.32.62.62,0,0,1,.23-.86l36.61-20.83a72,72,0,0,1,34.16-9.37l42-.75a.63.63,0,0,1,.64.62.62.62,0,0,1-.62.64l-42,.76a70.63,70.63,0,0,0-33.57,9.2L414.5,190A.71.71,0,0,1,414.19,190.06Z"/><rect class="cls-3" x="329.89" y="479.5" width="97.24" height="4.73" transform="translate(757.02 963.72) rotate(-180)"/><polygon class="cls-3" points="442.2 484.23 460.44 415.87 384.51 415.87 368 484.23 442.2 484.23"/><path class="cls-26" d="M455,423.35H386.84L388,419h68.18Z"/><path class="cls-2" d="M447.67,421.19a.75.75,0,0,1-.75.74.74.74,0,0,1-.74-.74.75.75,0,0,1,.74-.75A.76.76,0,0,1,447.67,421.19Z"/><path class="cls-2" d="M450.23,421.19a.74.74,0,0,1-.74.74.75.75,0,0,1-.75-.74.76.76,0,0,1,.75-.75A.75.75,0,0,1,450.23,421.19Z"/><path class="cls-2" d="M452.8,421.19a.75.75,0,0,1-.75.74.74.74,0,0,1-.74-.74.75.75,0,0,1,.74-.75A.76.76,0,0,1,452.8,421.19Z"/><path class="cls-3" d="M404.73,451a17.76,17.76,0,0,0-2.13,2.14c-1.33,1.43-3.24,3.52-5.52,6.07l-.26.29.32.24A12.94,12.94,0,0,0,409.73,461a12.27,12.27,0,0,0,5.18-4.17,10.6,10.6,0,0,0,1.92-5.61l0-.38h-.37c-3.58,0-6.54,0-8.59,0a18.29,18.29,0,0,0-3.16.15,22,22,0,0,0,3.29.26c2.06.09,5,.2,8.44.29l-.35-.38a10.18,10.18,0,0,1-1.86,5.17,11.81,11.81,0,0,1-4.85,3.86,12.39,12.39,0,0,1-11.84-1l.06.53c2.17-2.53,3.95-4.66,5.2-6.18A20.25,20.25,0,0,0,404.73,451Z"/><path class="cls-3" d="M409.61,443.2a.68.68,0,1,1-.67-.68A.67.67,0,0,1,409.61,443.2Z"/><path class="cls-3" d="M413.9,437.85h-.18l-.12.12c-2.78,2.81-4.82,5.07-4.67,5.23s2.44-1.87,5.27-4.63l-.3.12H415c4.46,0,8.07-.16,8.07-.39"/><path class="cls-3" d="M421.44,446.4l.37.46q.54-2.73,1.12-5.75c.2-1,.39-2,.6-3.08l.3-1.58.15-.8.08-.4,0-.21,0-.1v-.07h0l-.42.34h16.88l-.34-.41c-.64,3.58-1.13,6.57-1.47,8.68s-.51,3.35-.47,3.41a23.68,23.68,0,0,0,.78-3.15c.45-2.08,1.1-5.11,1.84-8.81l.08-.41h-.42l-16.87-.15-.42.35h0v.08l0,.1,0,.2-.08.4"/><path class="cls-3" d="M422.12,441c-.37,2-.73,3.94-1.06,5.76l-.09.46h.46c5.07,0,9.34-.08,12.3-.14l3.42-.09a5.16,5.16,0,0,0,1.16-.09,6.66,6.66,0,0,0-1.3-.11l-3.5-.12"/><path class="cls-3" d="M410.61,456.79a.68.68,0,1,1-1.35,0,.68.68,0,0,1,.68-.67A.67.67,0,0,1,410.61,456.79Z"/><path class="cls-3" d="M422.2,456.83c0-.23-2.74-.43-6.13-.45s-6.13.17-6.13.41,2.74.43,6.13.44S422.2,457.07,422.2,456.83Z"/><path class="cls-3" d="M438.25,462.16a13.38,13.38,0,0,0,.74-2.25c.45-1.51,1.09-3.73,1.84-6.5l.11-.39h-.42c-4.59-.08-10.71-.15-17.4-.17l-.42.32h0v.06l0,.07,0,.15-.08.29-.14.58-.3,1.15-.57,2.25c-.37,1.47-.73,2.9-1.08,4.27l-.12.5h.51c5.16,0,9.56-.07,12.63-.13l3.56-.1a4.49,4.49,0,0,0,1.21-.1,7.38,7.38,0,0,0-1.36-.11l-3.64-.13c-3.08-.08-7.39-.18-12.4-.23l.39.5c.35-1.37.73-2.79,1.11-4.26.19-.74.39-1.49.58-2.25l.3-1.15.15-.58.07-.29,0-.15,0-.07v-.06h0c.09-.07-.79.6-.41.32,6.69,0,12.8,0,17.4,0l-.31-.4c-.64,2.67-1.14,4.86-1.48,6.41A19,19,0,0,0,438.25,462.16Z"/><path class="cls-3" d="M437,438.52c0-.24-2.59-.44-5.78-.45s-5.77.17-5.77.4"/><path class="cls-3" d="M431,440.81c3.21,0,5.81-.17,5.81-.4s-2.6-.44-5.8-.45"/><path class="cls-3" d="M425.28,442.19c0,.23,2.51.43,5.6.44s5.61-.17,5.61-.4-2.51-.44-5.6-.45"/><path class="cls-3" d="M436.63,456.68c0-.23-2.46-.43-5.5-.45s-5.5.17-5.5.41,2.46.43,5.5.44S436.63,456.91,436.63,456.68Z"/><path class="cls-3" d="M436,458.77c0-.23-2.1-.43-4.69-.44s-4.69.17-4.7.4,2.1.44,4.7.45S436,459,436,458.77Z"/><polygon class="cls-27" points="372.7 472.98 439.94 474.81 452.8 427.16 384.7 426.08 372.7 472.98"/><polygon class="cls-28" points="542.29 484 542.29 492.97 536.42 492.97 536.42 674.46 524.38 674.46 524.38 492.97 460.45 492.97 460.45 674.46 448.4 674.46 448.4 492.97 171.08 492.97 171.08 674.41 159.04 674.41 159.04 492.97 153.82 492.97 153.82 484 542.29 484"/><path class="cls-3" d="M281.12,551.63c0,.18-3.51.33-7.84.33s-7.83-.15-7.83-.33,3.51-.33,7.83-.33S281.12,551.45,281.12,551.63Z"/><ellipse class="cls-29" cx="395.2" cy="553.27" rx="0.42" ry="0.21"/><polygon class="cls-30" points="370.16 664.21 370.16 669.07 390.88 677.83 343.36 678.72 344.25 664.12 370.16 664.21"/><polygon class="cls-30" points="284.72 655.73 282.44 658.54 291.54 671.42 256.35 652.63 264.54 643.54 284.72 655.73"/><path class="cls-31" d="M318.45,391.94l45-45.71,1-5c.19-.91.38-1.92.55-3.06a11.85,11.85,0,0,0-.07-4,17.76,17.76,0,0,0-1.39-4.79c-.75-1.33.46-2.92,1.71-2.38s3.43,4.15,3.9,9.08,4.68-1.61,6.26-4,6.79-9.43,7.87-9.51c1.6-.12,2,1.6.38,3.92s-6,9.62-4.79,10.4h.05a5.87,5.87,0,0,1,6.21,3.08c1.14,2.18,2.4,5.27,1.36,6.7a80.44,80.44,0,0,1-7.17,7.6l-1.51,1.29s-38.92,56.4-47.4,58.23c-5.28,1.14-86.84,7.91-86.84,7.91l-6.16-22.47Z"/><path class="cls-31" d="M386.8,345.77l-4.16,4a5.05,5.05,0,0,1-1.57,1.15,1.49,1.49,0,0,1-2.06-2,5,5,0,0,1,1-1.48l4-4.86"/><path class="cls-32" d="M384,342.61c-.09-.07-.87.7-2.06,2L379.89,347a7.5,7.5,0,0,0-1.14,1.55,2.22,2.22,0,0,0,.11,2.32,2,2,0,0,0,2.28.52,4.71,4.71,0,0,0,1.63-1.15L385,348a9.59,9.59,0,0,0,1.85-2.2,10.12,10.12,0,0,0-2.27,1.77l-2.3,2.08a4.13,4.13,0,0,1-1.36.93,1.24,1.24,0,0,1-1.34-.26,1.4,1.4,0,0,1,0-1.43,7.67,7.67,0,0,1,1-1.41l1.92-2.45A9.6,9.6,0,0,0,384,342.61Z"/><path class="cls-31" d="M383.85,342.86l-4.16,4a5.05,5.05,0,0,1-1.57,1.15,1.69,1.69,0,0,1-1.82-.3,1.66,1.66,0,0,1-.24-1.67,5,5,0,0,1,.95-1.48l4.05-4.86"/><path class="cls-32" d="M381.06,339.7c-.09-.07-.87.7-2.06,2L376.94,344a7.9,7.9,0,0,0-1.15,1.55,2.2,2.2,0,0,0,.12,2.32,2,2,0,0,0,2.27.52,4.53,4.53,0,0,0,1.63-1.15l2.18-2.22a9.84,9.84,0,0,0,1.86-2.2,9.87,9.87,0,0,0-2.27,1.77c-.75.67-1.51,1.37-2.31,2.08a3.89,3.89,0,0,1-1.36.93,1.24,1.24,0,0,1-1.34-.26,1.42,1.42,0,0,1,0-1.43,8.09,8.09,0,0,1,1-1.41l1.92-2.44A9.73,9.73,0,0,0,381.06,339.7Z"/><path class="cls-31" d="M380.61,340.48l-4.16,4a4.86,4.86,0,0,1-1.57,1.15,1.67,1.67,0,0,1-1.82-.29,1.69,1.69,0,0,1-.25-1.67,5,5,0,0,1,1-1.48l4.05-4.86"/><path class="cls-32" d="M372.08,345.06a7.36,7.36,0,0,0-1.56-3.48c-.64-.74-1.18-1-1.25-1s1.55,1.83,2,4.58a8.29,8.29,0,0,1,0,2.58l-.08.65.56-.24c1.31-.56,2.29-.63,2.29-.8s-1-.34-2.54.12l.48.41"/><path class="cls-31" d="M259.52,323.41,259.33,386l24.41,1.17,1-15S296.5,374,299,365.11c1.57-5.66,1.18-49.4,1.18-49.4Z"/><path class="cls-3" d="M306.21,321.88c-1.81,3.74-10.42,10.59-10.42,10.59l-3.9,10.43c-3.38-2.65-7.92-2.5-8.78,3.44-.62,4.3,4.72,5.17,4.72,5.17-3.11,5.28-5.21,9.56-9.74,14.59-4.89,5.44-7.64,6-12.95,6.08h-5.85s-12-10-9.62-36.38,26.08-18.68,31.74-25.27C290.62,299.8,312.25,309.39,306.21,321.88Z"/><path class="cls-31" d="M308.38,445.41l9.74,29.32c2.63,7.92,9.55,9.27,17.89,9.27h54.16V471.85l-49.48-7.06L328.9,434.66Z"/><path class="cls-31" d="M396.12,469.33l4.3-2s4.63-9,5.7-8.59,1.37,3-.49,7.11l5.71-1.64s12.38,5.72,11.83,6.49-1.56,2.6-4.26,1.22-6.23-3-6.23-3L406,470.79l8.6,1.09,8.09,7.36s-2.65,2-4.95-.12l-21,4.51-6.58.37V471.85Z"/><path class="cls-32" d="M417.75,479.12c-.08.05-.48-.57-1.23-1.39a6.23,6.23,0,0,0-1.53-1.18,6.45,6.45,0,0,0-2.27-.6c-3.5-.41-6.33-.89-6.3-1.07s2.87,0,6.38.42a6.21,6.21,0,0,1,2.49.72,5.67,5.67,0,0,1,1.58,1.41C417.59,478.39,417.82,479.08,417.75,479.12Z"/><path class="cls-32" d="M414.47,480c-.08,0-.15-.43-.74-.56s-1.55-.22-2.55-.33c-2-.2-3.67-.19-3.69-.37s1.67-.49,3.76-.28a11.11,11.11,0,0,1,2.64.54,1.07,1.07,0,0,1,.64.66C414.58,479.85,414.51,480,414.47,480Z"/><path class="cls-33" d="M303.79,439,308,453.13l26.43-12c-.95-3-5.32-16.11-13.69-37a35.88,35.88,0,0,0-27.4-22.09c-8.65-1.44-18.06-2.56-25.31-2.48-14.82.16-36.64,9.43-39.58,24-2.23,11.09-.08,30.67-.08,54.47l1.94,45.46,76,2.57Z"/><g class="cls-34"><path d="M228.41,447.5c9.25,1.89,18.74,0,28.16-.57,5.71-.34,12-1,16.56,2.55,3.58,2.79,5,7.47,6.06,11.88,3.94,16.84,4.65,28.12,5.54,45.39L239,509.52Z"/></g><path class="cls-3" d="M305.74,389.68c0,.06-.76.11-2,.6a10.54,10.54,0,0,0-4.37,3.54,14.77,14.77,0,0,0-2.62,7.92,49.82,49.82,0,0,0,.8,10.41,175.28,175.28,0,0,0,4.25,18.62c.62,2.28,1.14,4.17,1.53,5.6a13.26,13.26,0,0,1,.49,2.07,14.06,14.06,0,0,1-.73-2c-.43-1.3-1-3.19-1.74-5.54a143.44,143.44,0,0,1-4.45-18.64,48.1,48.1,0,0,1-.75-10.56,14.86,14.86,0,0,1,2.85-8.15,10.38,10.38,0,0,1,4.65-3.51,7.45,7.45,0,0,1,1.56-.35C305.55,389.66,305.74,389.65,305.74,389.68Z"/><path class="cls-3" d="M333.57,437.56a25.34,25.34,0,0,1-3.73,2.14c-2.34,1.23-5.63,2.84-9.32,4.51s-7.07,3.05-9.55,4a25.77,25.77,0,0,1-4.07,1.37,32.53,32.53,0,0,1,3.89-1.8c2.43-1.06,5.78-2.51,9.46-4.17s7-3.21,9.39-4.33A30.1,30.1,0,0,1,333.57,437.56Z"/><path class="cls-28" d="M345.68,509.52a27.08,27.08,0,0,1,11.05,36.26L290.62,659.29l-30.51-18.42,51.34-102.49-37.2-24.29"/><path class="cls-28" d="M265.18,503.89l90.76,3.21a27.08,27.08,0,0,1,26.11,27.48l-3.77,129.63-38.17-.09,1.27-122.56-76.2-2Z"/><path class="cls-29" d="M341.38,546a7.06,7.06,0,0,0-.11,1.2c0,.87-.08,2-.14,3.44-.12,3-.23,7.31-.34,12.66-.23,10.69-.39,25.45-.47,41.76s-.16,31-.21,41.77c0,5.28-.06,9.58-.07,12.66,0,1.43,0,2.57,0,3.44a6.16,6.16,0,0,0,.06,1.2,5.94,5.94,0,0,0,.11-1.2c0-.86.09-2,.15-3.43.11-3,.23-7.32.34-12.66.23-10.69.38-25.46.46-41.77s.16-31,.22-41.76c0-5.28.05-9.58.07-12.66,0-1.43,0-2.58,0-3.45A6.66,6.66,0,0,0,341.38,546Z"/><path class="cls-29" d="M225.86,421.63h27.46a20,20,0,0,1,20,20v95.8h54.86a13.85,13.85,0,0,1,13.86,13.86H216.79s0,0,0-.08a11.43,11.43,0,0,1-11-11.42V441.64A20,20,0,0,1,225.86,421.63Z"/><path class="cls-3" d="M265.35,424.79c-.23,0-.42,28.15-.42,62.87s.19,62.88.42,62.88.43-28.14.43-62.88S265.59,424.79,265.35,424.79Z"/><path class="cls-29" d="M268.82,651.85V551.35h8.93v100.5c5.45,10.74,18.26,18,33.87,24H232C248.2,669.25,262.78,664.21,268.82,651.85Z"/><g class="cls-35"><path class="cls-36" d="M510.91,303.93a.57.57,0,0,1-.46-.24c-.4-.6-.82-1.19-1.25-1.76a.55.55,0,0,1,.11-.77.55.55,0,0,1,.77.12c.43.58.86,1.19,1.28,1.79a.55.55,0,0,1-.15.76A.57.57,0,0,1,510.91,303.93Z"/><path class="cls-36" d="M465.14,389.62h0c-1.43,0-2.89-.08-4.32-.21a.55.55,0,0,1-.5-.59.54.54,0,0,1,.6-.49c1.4.12,2.82.19,4.23.2a.55.55,0,0,1,0,1.09Zm6.94-.39a.54.54,0,0,1-.54-.48.53.53,0,0,1,.47-.6c1.4-.17,2.81-.4,4.19-.67a.54.54,0,0,1,.64.42.55.55,0,0,1-.43.65c-1.4.28-2.84.51-4.27.68ZM483,386.77a.56.56,0,0,1-.52-.38.55.55,0,0,1,.34-.69c1.34-.44,2.68-.95,4-1.5a.55.55,0,0,1,.42,1c-1.32.56-2.68,1.07-4,1.53Zm10.22-4.63a.55.55,0,0,1-.47-.27.55.55,0,0,1,.19-.75c1.22-.71,2.42-1.47,3.58-2.27a.54.54,0,1,1,.62.89c-1.18.82-2.4,1.6-3.65,2.33A.52.52,0,0,1,493.25,382.14Zm9.05-6.61a.59.59,0,0,1-.4-.18.55.55,0,0,1,0-.78c1-.94,2.06-1.93,3-3a.55.55,0,0,1,.77,0,.54.54,0,0,1,0,.77c-1,1.05-2,2.06-3.09,3A.53.53,0,0,1,502.3,375.53Zm7.52-8.33a.55.55,0,0,1-.44-.87c.83-1.14,1.63-2.32,2.37-3.52a.54.54,0,1,1,.92.58c-.75,1.22-1.56,2.42-2.41,3.58A.54.54,0,0,1,509.82,367.2Zm5.67-9.69a.46.46,0,0,1-.23-.05.55.55,0,0,1-.27-.72c.59-1.28,1.13-2.6,1.61-3.92a.55.55,0,0,1,.7-.33.54.54,0,0,1,.32.7c-.49,1.35-1,2.69-1.64,4A.54.54,0,0,1,515.49,357.51Zm3.59-10.63H519a.56.56,0,0,1-.42-.66c.31-1.37.58-2.77.78-4.16a.55.55,0,1,1,1.08.15c-.21,1.42-.47,2.85-.79,4.25A.54.54,0,0,1,519.08,346.88Zm1.34-11.14h0a.56.56,0,0,1-.54-.56c0-.3,0-.6,0-.9,0-1.11,0-2.23-.1-3.34a.55.55,0,0,1,.51-.58.56.56,0,0,1,.58.51c.07,1.13.1,2.28.1,3.41v.92A.55.55,0,0,1,520.42,335.74Zm-1-11.19a.55.55,0,0,1-.54-.44c-.26-1.38-.58-2.77-1-4.13a.56.56,0,0,1,.39-.67.54.54,0,0,1,.67.38c.38,1.39.71,2.81,1,4.21a.55.55,0,0,1-.44.64Zm-3.22-10.75a.55.55,0,0,1-.5-.34c-.54-1.3-1.13-2.59-1.77-3.85a.54.54,0,0,1,1-.49c.65,1.28,1.26,2.6,1.81,3.93a.55.55,0,0,1-.3.71A.52.52,0,0,1,516.23,313.8Z"/><path class="cls-36" d="M454,388.36h-.12c-.71-.15-1.43-.33-2.14-.51a.55.55,0,1,1,.27-1.06c.7.18,1.41.35,2.1.5a.55.55,0,0,1,.42.65A.54.54,0,0,1,454,388.36Z"/><path class="cls-36" d="M419,363.62a.54.54,0,0,1-.47-.26c-.38-.62-.76-1.26-1.12-1.9a.54.54,0,0,1,.21-.74.54.54,0,0,1,.74.21c.36.63.73,1.25,1.1,1.86a.54.54,0,0,1-.18.75A.6.6,0,0,1,419,363.62Z"/><path class="cls-36" d="M414.89,355.58a.55.55,0,0,1-.51-.34c-.53-1.3-1-2.65-1.45-4a.55.55,0,0,1,.35-.69.55.55,0,0,1,.69.36c.42,1.32.9,2.64,1.42,3.92a.54.54,0,0,1-.29.71A.52.52,0,0,1,414.89,355.58ZM411.75,345a.54.54,0,0,1-.53-.44c-.27-1.39-.48-2.81-.64-4.21a.55.55,0,0,1,.49-.6.54.54,0,0,1,.6.48c.15,1.37.36,2.76.62,4.12a.55.55,0,0,1-.43.64Zm-.95-11h0a.55.55,0,0,1-.54-.56c0-1.41.1-2.84.23-4.25a.53.53,0,0,1,.59-.49.54.54,0,0,1,.49.59c-.12,1.38-.2,2.79-.22,4.17A.54.54,0,0,1,410.8,334Zm1.28-11-.12,0a.54.54,0,0,1-.42-.65c.31-1.37.67-2.76,1.08-4.11a.55.55,0,0,1,.68-.37.54.54,0,0,1,.36.68c-.4,1.33-.75,2.69-1.05,4A.55.55,0,0,1,412.08,323Zm3.45-10.49a.44.44,0,0,1-.22,0,.54.54,0,0,1-.28-.72c.58-1.29,1.21-2.57,1.88-3.82a.55.55,0,0,1,.74-.22.55.55,0,0,1,.22.74c-.66,1.22-1.28,2.48-1.84,3.75A.55.55,0,0,1,415.53,312.53Zm5.48-9.59a.55.55,0,0,1-.32-.1.54.54,0,0,1-.12-.76c.82-1.15,1.69-2.28,2.6-3.36a.53.53,0,0,1,.77-.07.54.54,0,0,1,.06.77c-.88,1.06-1.74,2.17-2.54,3.3A.55.55,0,0,1,421,302.94Zm7.28-8.29a.55.55,0,0,1-.37-.95c1-1,2.12-1.89,3.22-2.77a.55.55,0,0,1,.77.08.54.54,0,0,1-.09.77c-1.08.86-2.15,1.78-3.16,2.72A.53.53,0,0,1,428.29,294.65Zm8.8-6.67a.53.53,0,0,1-.46-.26.54.54,0,0,1,.18-.75c1.21-.73,2.46-1.43,3.72-2.07a.56.56,0,0,1,.73.24.55.55,0,0,1-.24.74c-1.24.62-2.46,1.31-3.64,2A.59.59,0,0,1,437.09,288Zm10-4.75a.55.55,0,0,1-.19-1.06c1.07-.38,2.16-.73,3.25-1.05l.81-.23a.54.54,0,1,1,.29,1.05l-.8.23c-1.07.31-2.14.65-3.18,1A.57.57,0,0,1,447.06,283.23Zm10.71-2.68a.54.54,0,0,1-.08-1.08c1.4-.2,2.82-.36,4.23-.45a.55.55,0,0,1,.08,1.09c-1.39.09-2.78.24-4.15.44Zm15.23-.07h-.08c-1.37-.19-2.77-.32-4.15-.41a.54.54,0,0,1,.06-1.08c1.41.08,2.84.22,4.24.41a.54.54,0,0,1-.07,1.08Z"/><path class="cls-36" d="M481.83,282.45a.51.51,0,0,1-.17,0c-.66-.21-1.36-.41-2.07-.6a.55.55,0,0,1-.39-.67.54.54,0,0,1,.67-.38c.73.19,1.44.4,2.12.61a.54.54,0,0,1,.36.68A.55.55,0,0,1,481.83,282.45Z"/><path class="cls-37" d="M483,295.93a.65.65,0,0,0-.76.07l-6.1,5.19a34.93,34.93,0,0,0-11.19-1.6l-4.41-6.67a.65.65,0,0,0-.71-.28l-9.3,2.4a.65.65,0,0,0-.49.58l-.64,8a34.71,34.71,0,0,0-9,6.79l-7.85-1.61a.68.68,0,0,0-.7.31L427,317.36a.66.66,0,0,0,.06.76l5.19,6.1a35.2,35.2,0,0,0-1.59,11.19L424,339.82a.65.65,0,0,0-.28.71l2.39,9.3a.66.66,0,0,0,.59.49l8,.64a34.74,34.74,0,0,0,6.8,9l-1.61,7.85a.66.66,0,0,0,.31.69l8.27,4.89a.66.66,0,0,0,.76-.07l6.1-5.19a34.9,34.9,0,0,0,11.18,1.6l4.41,6.67a.69.69,0,0,0,.72.28l9.3-2.4a.65.65,0,0,0,.49-.58l.64-8a34.87,34.87,0,0,0,9-6.79l7.84,1.61a.67.67,0,0,0,.7-.31l4.89-8.27a.66.66,0,0,0-.07-.76l-5.19-6.1a34.64,34.64,0,0,0,1.59-11.19l6.68-4.41a.66.66,0,0,0,.27-.71l-2.39-9.3a.65.65,0,0,0-.58-.49l-8-.64a34.71,34.71,0,0,0-6.79-9l1.6-7.85a.63.63,0,0,0-.31-.69Z"/><path class="cls-38" d="M465.74,344a9.34,9.34,0,0,1-4.49-17.55h0a9.35,9.35,0,0,1,12.68,3.73A9.34,9.34,0,0,1,465.74,344Zm0-17.06a7.64,7.64,0,0,0-3.68,1h0a7.7,7.7,0,1,0,5.87-.63A7.84,7.84,0,0,0,465.71,327Zm-4.07.23h0Z"/><path class="cls-38" d="M465.64,358.85a24,24,0,0,1-6-47.23l.48-.11a23.9,23.9,0,0,1,4.2-.61l.37,0,.07,1.64a22.14,22.14,0,0,0-4.71.69h0A22.32,22.32,0,1,0,481.36,319l1.15-1.16a24.09,24.09,0,0,1,6.36,11.08,24.35,24.35,0,0,1,.76,6,24,24,0,0,1-24,24Z"/><path class="cls-36" d="M543.3,268.37a.54.54,0,0,1-.46-.25c-.38-.61-.78-1.2-1.21-1.77a.53.53,0,0,1,.12-.76.54.54,0,0,1,.76.11c.44.59.86,1.21,1.26,1.84a.54.54,0,0,1-.18.75A.51.51,0,0,1,543.3,268.37Z"/><path class="cls-36" d="M521.66,311.42a.55.55,0,0,1-.54-.51.55.55,0,0,1,.5-.59,28,28,0,0,0,4.26-.67.55.55,0,0,1,.26,1.06,28,28,0,0,1-4.43.7Zm11-3.22a.56.56,0,0,1-.49-.29.55.55,0,0,1,.23-.74,27.61,27.61,0,0,0,3.64-2.31.53.53,0,0,1,.76.1.55.55,0,0,1-.11.77,28.13,28.13,0,0,1-3.78,2.41A.57.57,0,0,1,532.69,308.2Zm8.81-7.35a.53.53,0,0,1-.34-.11.56.56,0,0,1-.09-.77,28,28,0,0,0,2.41-3.58.55.55,0,1,1,.95.54,29.13,29.13,0,0,1-2.5,3.72A.57.57,0,0,1,541.5,300.85Zm5.16-10.25-.14,0a.55.55,0,0,1-.39-.67,27.77,27.77,0,0,0,.79-4.24.54.54,0,0,1,1.08.11,28.53,28.53,0,0,1-.81,4.41A.55.55,0,0,1,546.66,290.6Zm.63-11.46a.55.55,0,0,1-.54-.47,28.23,28.23,0,0,0-.79-3.6c-.06-.2-.12-.4-.19-.6a.54.54,0,0,1,.36-.68.55.55,0,0,1,.69.35l.18.63a28,28,0,0,1,.83,3.74.54.54,0,0,1-.45.62Z"/><path class="cls-36" d="M514.51,311.06h-.1c-.72-.13-1.45-.29-2.17-.48a.55.55,0,0,1,.28-1.06c.69.18,1.39.34,2.08.46a.54.54,0,0,1-.09,1.08Z"/><path class="cls-36" d="M495.5,298.15a.56.56,0,0,1-.47-.26c-.38-.63-.75-1.28-1.09-1.94a.55.55,0,0,1,1-.5c.33.63.68,1.26,1,1.86a.56.56,0,0,1-.17.76A.6.6,0,0,1,495.5,298.15Z"/><path class="cls-36" d="M492,289.65a.56.56,0,0,1-.54-.42,29.43,29.43,0,0,1-.66-4.36.56.56,0,0,1,.51-.59.55.55,0,0,1,.58.51,28.47,28.47,0,0,0,.64,4.19.55.55,0,0,1-.41.66Zm-.28-11.29h-.1a.56.56,0,0,1-.44-.64,28.85,28.85,0,0,1,1.12-4.27.54.54,0,0,1,.69-.33.54.54,0,0,1,.34.69,28.1,28.1,0,0,0-1.07,4.1A.55.55,0,0,1,491.74,278.36Zm4.19-10.48a.55.55,0,0,1-.46-.85,30.37,30.37,0,0,1,2.7-3.49.55.55,0,1,1,.81.73,27.07,27.07,0,0,0-2.59,3.36A.56.56,0,0,1,495.93,267.88Zm8-8a.52.52,0,0,1-.45-.24.55.55,0,0,1,.15-.76,28.38,28.38,0,0,1,3.85-2.14.54.54,0,0,1,.73.27.55.55,0,0,1-.27.72,28,28,0,0,0-3.71,2.06A.46.46,0,0,1,503.89,259.87Zm10.47-4.22a.54.54,0,0,1-.53-.44.55.55,0,0,1,.43-.64,28.31,28.31,0,0,1,4.39-.46.54.54,0,0,1,.56.53.55.55,0,0,1-.53.56,28.49,28.49,0,0,0-4.22.44Z"/><path class="cls-36" d="M527.78,256.45l-.16,0c-.68-.22-1.37-.4-2.06-.56a.55.55,0,0,1-.42-.65.54.54,0,0,1,.66-.41c.72.16,1.44.35,2.15.57a.55.55,0,0,1-.17,1.07Z"/><path class="cls-39" d="M528.41,263.11a.35.35,0,0,0-.39,0l-3.14,2.67a18.09,18.09,0,0,0-5.74-.82l-2.27-3.43a.34.34,0,0,0-.36-.14l-4.78,1.23a.34.34,0,0,0-.25.3l-.33,4.1a17.62,17.62,0,0,0-4.64,3.49l-4-.83a.34.34,0,0,0-.36.16l-2.51,4.25a.35.35,0,0,0,0,.39l2.67,3.13a18.15,18.15,0,0,0-.82,5.75l-3.43,2.26a.35.35,0,0,0-.14.37l1.23,4.78a.34.34,0,0,0,.3.25l4.1.33A17.78,17.78,0,0,0,507,296l-.83,4a.35.35,0,0,0,.16.36l4.25,2.51a.35.35,0,0,0,.39,0l3.13-2.66a17.82,17.82,0,0,0,5.75.81l2.26,3.43a.34.34,0,0,0,.37.14l4.78-1.23a.32.32,0,0,0,.25-.3l.33-4.09a18,18,0,0,0,4.64-3.49l4,.82a.34.34,0,0,0,.36-.16l2.5-4.24a.33.33,0,0,0,0-.39l-2.66-3.14a17.8,17.8,0,0,0,.81-5.74l3.43-2.27a.32.32,0,0,0,.14-.36l-1.23-4.78a.32.32,0,0,0-.3-.25l-4.09-.33A18,18,0,0,0,532,270l.82-4a.33.33,0,0,0-.16-.36Z"/><path class="cls-38" d="M519.52,288.21A5.4,5.4,0,0,1,518,288a5.2,5.2,0,0,1-1-9.55,5.2,5.2,0,1,1,2.5,9.76Zm0-8.76a3.48,3.48,0,0,0-1.7.44h0A3.45,3.45,0,0,0,516.1,282a3.56,3.56,0,0,0,5.12,4.13,3.56,3.56,0,0,0-1.71-6.69Zm-2.09-.28Z"/><path class="cls-38" d="M519.47,295.83a12.74,12.74,0,0,1-12.32-9.55,12.49,12.49,0,0,1-.41-3.2,12.72,12.72,0,0,1,9.56-12.29,12.28,12.28,0,0,1,2.25-.37h.17l.26,0L519,272a11.49,11.49,0,0,0-2.33.34h0a11.14,11.14,0,0,0-2.22.83h0l-.05,0a11,11,0,0,0-4.17,3.7l-.08.12-.26.42a11,11,0,0,0-1.54,5.62,11.51,11.51,0,0,0,.35,2.78,11.08,11.08,0,1,0,18.53-10.64l1.15-1.17a12.72,12.72,0,0,1,3.38,5.88,12.91,12.91,0,0,1,.4,3.19,12.73,12.73,0,0,1-9.55,12.3A12.87,12.87,0,0,1,519.47,295.83Z"/></g><path class="cls-26" d="M88.14,641.28a3.73,3.73,0,0,1,.21-.52c.18-.37.41-.87.71-1.5a38.35,38.35,0,0,0,2.07-6c1.36-5.34,1.84-13.5-.18-23.19a124,124,0,0,0-4.3-15.58C84.83,589,82.71,583.1,81,576.76a68.61,68.61,0,0,1-2.8-20.39c.26-7.22,2.4-14.41,4.75-21.58s4.76-14.19,5.49-21.25a32.37,32.37,0,0,0-3.9-19.62c-3.11-5.73-7-10.63-9.94-15.7a54.85,54.85,0,0,1-6-15.09,56.29,56.29,0,0,1-.38-23.38,43.41,43.41,0,0,1,2.44-8.26,4.06,4.06,0,0,1-.14.55c-.13.39-.29.92-.5,1.59a60.29,60.29,0,0,0-1.51,6.18,56.86,56.86,0,0,0,.6,23.2,54.57,54.57,0,0,0,6,14.9c2.92,5,6.85,9.89,10,15.68a33,33,0,0,1,4,20c-.73,7.18-3.17,14.24-5.51,21.41s-4.45,14.28-4.72,21.37a68.24,68.24,0,0,0,2.73,20.19c1.7,6.31,3.79,12.17,5.58,17.72A123.44,123.44,0,0,1,91.47,610c2,9.76,1.4,18-.06,23.36a34.8,34.8,0,0,1-2.22,6l-.77,1.48A3.11,3.11,0,0,1,88.14,641.28Z"/><path class="cls-26" d="M78.56,483.22s-5.94-19,4.72-30.13a.66.66,0,0,1,1.13.33C85,456.56,85.69,466.12,78.56,483.22Z"/><path class="cls-26" d="M82.12,459.43a17.63,17.63,0,0,1-.4,3.5c-.39,2.42-.85,5.25-1.35,8.38s-1,6-1.33,8.38a19.34,19.34,0,0,1-.63,3.47,14.37,14.37,0,0,1,.1-3.53c.2-2.17.58-5.16,1.12-8.44s1.11-6.23,1.57-8.35A16.2,16.2,0,0,1,82.12,459.43Z"/><path class="cls-26" d="M85.54,528s3.64-19.57,18.26-24.42a.66.66,0,0,1,.85.81C103.68,507.47,99.84,516.25,85.54,528Z"/><path class="cls-26" d="M99.82,508.67a17.46,17.46,0,0,1-2,2.91l-5.12,6.78-5.1,6.78a18.94,18.94,0,0,1-2.18,2.78,14.44,14.44,0,0,1,1.75-3.08c1.19-1.82,2.92-4.29,4.93-6.93s3.9-5,5.3-6.65A16.11,16.11,0,0,1,99.82,508.67Z"/><path class="cls-26" d="M81.59,577.15S79.38,557.36,92,548.48a.66.66,0,0,1,1,.53C93,552.2,91.85,561.72,81.59,577.15Z"/><path class="cls-26" d="M89.63,554.47a17.84,17.84,0,0,1-1.07,3.36c-.84,2.3-1.83,5-2.93,8s-2.06,5.68-2.9,8a19.73,19.73,0,0,1-1.28,3.28,14.69,14.69,0,0,1,.78-3.45c.61-2.09,1.55-5,2.71-8.06s2.27-5.91,3.13-7.91A15.68,15.68,0,0,1,89.63,554.47Z"/><path class="cls-26" d="M92.61,626.55s-1.5-19.86,11.4-28.29a.65.65,0,0,1,1,.57C104.88,602,103.41,611.49,92.61,626.55Z"/><path class="cls-26" d="M101.45,604.17a17.67,17.67,0,0,1-1.18,3.32c-.93,2.27-2,4.93-3.22,7.86s-2.27,5.6-3.18,7.87a19.91,19.91,0,0,1-1.4,3.23,14.64,14.64,0,0,1,.9-3.41c.68-2.07,1.73-4.9,3-8s2.48-5.82,3.42-7.79A16.34,16.34,0,0,1,101.45,604.17Z"/><path class="cls-26" d="M70,466.53s-17.65-9.22-18-24.62a.66.66,0,0,1,1-.57C55.68,443.15,63,449.4,70,466.53Z"/><path class="cls-26" d="M55.69,447.2a17.31,17.31,0,0,1,2.2,2.76l5,6.88,5,6.86a19.72,19.72,0,0,1,2,2.89A14.36,14.36,0,0,1,67.44,464c-1.39-1.67-3.24-4-5.18-6.75s-3.63-5.18-4.8-7A16.14,16.14,0,0,1,55.69,447.2Z"/><path class="cls-26" d="M89,507.34s-18.17-8.13-19.45-23.49a.66.66,0,0,1,1-.63C73.24,484.88,80.87,490.67,89,507.34Z"/><path class="cls-26" d="M73.5,488.91a17.77,17.77,0,0,1,2.36,2.62l5.38,6.57,5.4,6.55a18.5,18.5,0,0,1,2.18,2.76A14.92,14.92,0,0,1,86.25,505c-1.5-1.59-3.48-3.85-5.58-6.43s-3.94-4.95-5.23-6.71A15.23,15.23,0,0,1,73.5,488.91Z"/><path class="cls-26" d="M78.52,552.86S66,537.34,71.89,523.09a.66.66,0,0,1,1.17-.11C74.74,525.69,78.89,534.33,78.52,552.86Z"/><path class="cls-26" d="M73.13,529.41a17.78,17.78,0,0,1,.91,3.41c.52,2.39,1.13,5.19,1.8,8.29s1.3,5.9,1.83,8.29a19.72,19.72,0,0,1,.68,3.46,14.49,14.49,0,0,1-1.19-3.33c-.62-2.09-1.35-5-2-8.26s-1.25-6.2-1.59-8.35A15.52,15.52,0,0,1,73.13,529.41Z"/><path class="cls-26" d="M90.88,606.43s-18-8.43-19.06-23.81a.65.65,0,0,1,1-.61C75.52,583.7,83.06,589.63,90.88,606.43Z"/><path class="cls-26" d="M75.71,587.75A17.08,17.08,0,0,1,78,590.41l5.27,6.65c2,2.48,3.77,4.72,5.29,6.64a18.77,18.77,0,0,1,2.14,2.8A14.57,14.57,0,0,1,88.19,604c-1.47-1.61-3.42-3.91-5.47-6.52s-3.85-5-5.11-6.8A15.82,15.82,0,0,1,75.71,587.75Z"/><path class="cls-26" d="M126.8,528.15a1.15,1.15,0,0,1,0,.44c0,.34,0,.76,0,1.27q-.08,1.8-.21,4.83c-.23,4.24-.56,10.16-.94,17.24h0v0c-1.29,7.2-5,15.19-9.89,22.94-3.61,5.71-7.4,10.9-10.67,15.73a111.24,111.24,0,0,0-8,13.23,55.77,55.77,0,0,0-3.74,9.71c-.32,1.19-.56,2.12-.7,2.75a6.45,6.45,0,0,1-.26,1,4,4,0,0,1,.12-1c.09-.65.28-1.59.55-2.79a50.94,50.94,0,0,1,3.56-9.87,106.57,106.57,0,0,1,7.9-13.38c3.25-4.86,7-10.06,10.61-15.75,4.91-7.71,8.56-15.57,9.89-22.66v0c.49-7.07.91-13,1.21-17.23.16-2,.29-3.62.39-4.81.05-.51.09-.92.12-1.27A2,2,0,0,1,126.8,528.15Z"/><path class="cls-26" d="M116.06,573.43s7.64-18.39-2-30.43a.65.65,0,0,0-1.15.22C112.09,546.29,110.51,555.75,116.06,573.43Z"/><path class="cls-26" d="M114.67,549.41a15.89,15.89,0,0,1,.61,3.48c.27,2.16.57,5.15.81,8.46s.35,6.33.35,8.51a14.52,14.52,0,0,1-.22,3.52,19.12,19.12,0,0,1-.31-3.51c-.16-2.44-.35-5.3-.57-8.47l-.59-8.46A18.14,18.14,0,0,1,114.67,549.41Z"/><g class="cls-34"><path class="cls-26" d="M116.06,573.43s7.64-18.39-2-30.43a.65.65,0,0,0-1.15.22C112.09,546.29,110.51,555.75,116.06,573.43Z"/></g><path class="cls-26" d="M92.4,617.74s6.13-19-4.43-30.18a.66.66,0,0,0-1.13.32C86.24,591,85.44,600.56,92.4,617.74Z"/><path class="cls-26" d="M89.07,593.91a15.7,15.7,0,0,1,.88,3.41c.45,2.14,1,5.09,1.5,8.38s.86,6.27,1,8.44a14.56,14.56,0,0,1,.07,3.54,19.59,19.59,0,0,1-.6-3.48c-.36-2.41-.78-5.25-1.25-8.39s-.91-6-1.27-8.39A17.87,17.87,0,0,1,89.07,593.91Z"/><g class="cls-34"><path class="cls-26" d="M92.4,617.74s6.13-19-4.43-30.18a.66.66,0,0,0-1.13.32C86.24,591,85.44,600.56,92.4,617.74Z"/></g><path class="cls-26" d="M125.79,551s16.31-11.42,14.67-26.74a.66.66,0,0,0-1.1-.43C137,525.93,130.59,533.06,125.79,551Z"/><g class="cls-34"><path class="cls-26" d="M125.79,551s16.31-11.42,14.67-26.74a.66.66,0,0,0-1.1-.43C137,525.93,130.59,533.06,125.79,551Z"/></g><path class="cls-26" d="M137.5,529.94a15.12,15.12,0,0,1-1.35,3.26c-.93,2-2.28,4.66-3.86,7.58s-3.1,5.52-4.27,7.36A14.92,14.92,0,0,1,126,551a19.45,19.45,0,0,1,1.62-3.14l4.07-7.44c1.51-2.79,2.87-5.32,4-7.47A18.32,18.32,0,0,1,137.5,529.94Z"/><path class="cls-26" d="M99,599s19.67-3.06,24.94-17.54a.66.66,0,0,0-.79-.87C120.06,581.41,111.18,585,99,599Z"/><g class="cls-34"><path class="cls-26" d="M99,599s19.67-3.06,24.94-17.54a.66.66,0,0,0-.79-.87C120.06,581.41,111.18,585,99,599Z"/></g><path class="cls-26" d="M118.75,585.24a14.78,14.78,0,0,1-2.65,2.33c-1.7,1.36-4.1,3.18-6.8,5.11s-5.21,3.59-7.08,4.73a15.12,15.12,0,0,1-3.12,1.66,19.26,19.26,0,0,1,2.84-2.1l6.93-4.9,6.92-4.92A18.52,18.52,0,0,1,118.75,585.24Z"/><polygon class="cls-26" points="80.21 635.16 74.47 673.78 110.24 673.78 105.6 635.16 80.21 635.16"/><path class="cls-26" d="M107,647.13c0,.2-6.46.37-14.42.37s-14.42-.17-14.42-.37,6.45-.38,14.42-.38S107,646.92,107,647.13Z"/><path class="cls-26" d="M107.74,650.2c0,.2-6.67.37-14.89.37S78,650.4,78,650.2s6.67-.37,14.9-.37S107.74,650,107.74,650.2Z"/></svg>