<svg id="Layer_1" data-name="Layer 1" xmlns="http://www.w3.org/2000/svg" viewBox="0 0 880 700"><defs><style>.cls-1{fill:#385a65;}.cls-2{fill:#192e35;}.cls-3{opacity:0.3;}.cls-4{fill:#f0b943;}.cls-5{fill:#946a62;}.cls-6{fill:#e1e1e1;}.cls-7{fill:#6f4640;}.cls-8{fill:#4ea8b0;}.cls-9{opacity:0.6;}.cls-10{fill:#fff;}.cls-11{fill:#192f36;}.cls-12{fill:#d69f3b;}.cls-13{fill:#fafbfb;}.cls-14{opacity:0.2;}.cls-15{fill:#ebebeb;}.cls-16{fill:#010101;}.cls-17{opacity:0.4;}.cls-18{fill:#dd4d65;}</style></defs><rect class="cls-1" x="366" y="514.23" width="155.55" height="98.83"/><rect class="cls-1" x="345.13" y="511.41" width="189.95" height="34.69" rx="17"/><path class="cls-2" d="M521.76,545.62c0,.13-36.34.24-81.15.24s-81.16-.11-81.16-.24,36.33-.24,81.16-.24S521.76,545.49,521.76,545.62Z"/><path class="cls-2" d="M386.77,613.85c-.13,0-.24-15.07-.24-33.65s.11-33.64.24-33.64.25,15.06.25,33.64S386.91,613.85,386.77,613.85Z"/><path class="cls-2" d="M485.09,532.1c-.07,0-.23-1-.6-2.56a36.33,36.33,0,0,0-2-6,35.06,35.06,0,0,0-3.08-5.5,23.53,23.53,0,0,1-1.48-2.16,9.68,9.68,0,0,1,1.76,2,27.78,27.78,0,0,1,5.14,11.6A9.47,9.47,0,0,1,485.09,532.1Z"/><path class="cls-2" d="M493.45,526.91c-.08,0-.43-1-1.26-2.49a19.07,19.07,0,0,0-9.88-8.59c-1.61-.61-2.67-.81-2.65-.89s.27,0,.76.06a13,13,0,0,1,2,.51,17.51,17.51,0,0,1,10.08,8.75,13.28,13.28,0,0,1,.78,1.91A2.38,2.38,0,0,1,493.45,526.91Z"/><g class="cls-3"><path d="M400.73,512.12c6.21,34.28,17,69.65,32.25,101h7c2.86-4,1.91-9.48.13-14s-4.32-9-4.3-13.9c0-3,1-5.93,1.39-8.92,1.43-11.55-6.5-22.11-8.33-33.6-.66-4.15-.28-8.95,2.87-11.74,2.76-2.45,6.8-2.63,10.49-2.54,9.64.22,19.43,1.43,28.84-.69s18.66-8.55,20.6-18Z"/></g><path class="cls-4" d="M493.29,386,528,376.7s-7.44-22-13.22-37.87c-5.09-14-13.67-19.84-18.12-23a13.44,13.44,0,0,0-6.08-2.41c-8.2-1.1-30.62-4-41.75-5-13.76-1.15-42.5,6.43-42.5,6.43s-25.2,14-33.7,19.62a11.76,11.76,0,0,0-4.55,5.72c-1.57,4.23-3.57,11.49-6,20.89-1.53,6-6.57,25.74-6.57,25.74l29.56-.91c5.95,18.09,11.47,34.33,11.47,34.33l-5.35,33.26s40.4,16.16,50.72,15S499,449.32,499,449.32s-5.35-52.77-5.35-54.3C493.65,394.45,493.49,390.62,493.29,386Z"/><g class="cls-3"><path d="M459.2,350.86c-2.17-2.76-6-3.89-9.45-3.54a21.32,21.32,0,0,0-9.63,4c-9,6.08-15.32,15.25-20.95,24.5a294.37,294.37,0,0,0-24.62,50.85l.23,4.52c7.35-.92,12.14-7.12,15.33-13.8s4.56-14.09,7.37-20.94a54,54,0,0,1,29.09-29.09c4.38.45,9.08-1,11.95-4.3S461.92,354.32,459.2,350.86Z"/></g><path class="cls-2" d="M493.62,391.78c-.16,0-1.14-9.58-2.19-21.43s-1.76-21.48-1.6-21.49,1.14,9.58,2.19,21.43S493.78,391.77,493.62,391.78Z"/><path class="cls-2" d="M377.19,348.86a7.76,7.76,0,0,1,.43,1.49c.26,1.08.58,2.46,1,4.1.8,3.48,1.86,8.29,3,13.6s2.13,10.15,2.82,13.64c.32,1.67.58,3.06.79,4.15a8.09,8.09,0,0,1,.21,1.54,8.13,8.13,0,0,1-.44-1.49c-.25-1.08-.58-2.46-1-4.11-.79-3.47-1.85-8.28-3-13.6s-2.12-10.14-2.82-13.64c-.31-1.66-.58-3.05-.78-4.15A7.19,7.19,0,0,1,377.19,348.86Z"/><path class="cls-2" d="M488.34,313.83c.17,0-.83,3.89-1.51,8.72s-.83,8.81-1,8.8a9.55,9.55,0,0,1-.11-2.61,52.51,52.51,0,0,1,.53-6.27,51.06,51.06,0,0,1,1.26-6.17A10.11,10.11,0,0,1,488.34,313.83Z"/><path class="cls-5" d="M493.29,386c-.31.09,8.81,31.43,8.81,31.43l-26.8-2.18L462.51,431l45.67,16.82s28.3-12.62,28.3-13.77-10.18-56.88-10.18-56.88Z"/><path class="cls-2" d="M473.57,389.68A2,2,0,0,0,475,389a2.34,2.34,0,0,0,.58-1.72A2.22,2.22,0,0,0,474,385.5a3,3,0,0,0-3,.54,4.46,4.46,0,0,0-1.12,1.43,4.73,4.73,0,0,0-.34.91c-.09.31-.18.66,0,.87a.74.74,0,0,0,.78.2,1.55,1.55,0,0,0,.8-.55,2.22,2.22,0,0,0,.31-2,3,3,0,0,0-4-1.32,5.47,5.47,0,0,0-2,1.6,2.38,2.38,0,0,0-.51,1.15.74.74,0,0,0,.56.83,1.4,1.4,0,0,0,1.13-.39,1.8,1.8,0,0,0,.51-1.17,2.73,2.73,0,0,0-1.19-2.41,3.52,3.52,0,0,0-2.85-.37,3.35,3.35,0,0,0-2.3,1.84,1.74,1.74,0,0,0-.07,1.39,1.18,1.18,0,0,0,1.14.64,1.53,1.53,0,0,0,1.37-2.12,2.41,2.41,0,0,0-2.5-1.59,4.85,4.85,0,0,0-3.05,1.44,7.71,7.71,0,0,0-1.19,1.31,1.69,1.69,0,0,0-.33,1.48.85.85,0,0,0,1.21.3,1.37,1.37,0,0,0,.7-1.31,3.69,3.69,0,0,0-1.79-2.91,3.79,3.79,0,0,0-3.48-.29,3.73,3.73,0,0,0-1.47,1.06,2.13,2.13,0,0,0-.53,1.61c.12,1.15,2,1.38,2.61.41a2.22,2.22,0,0,0-.78-3.07,4,4,0,0,0-3.57-.19,8.71,8.71,0,0,0-1.7.85,4.27,4.27,0,0,0-1.35,1.2,1.5,1.5,0,0,0-.1,1.54.83.83,0,0,0,1.2.39,1.33,1.33,0,0,0,.61-1.34,2.88,2.88,0,0,0-.69-1.54,3.5,3.5,0,0,0-3-1.26,3.46,3.46,0,0,0-2.68,1.79,1.8,1.8,0,0,0-.09,1.48,1,1,0,0,0,1.18.56,1.45,1.45,0,0,0,1.13-.83,1.9,1.9,0,0,0,0-1.46A3.16,3.16,0,0,0,441,384.4a6.44,6.44,0,0,0-3.12.09,2.7,2.7,0,0,0-2,1.91,2,2,0,0,0,1.1,2.24,1.66,1.66,0,0,0,1.93-1.29,2.72,2.72,0,0,0-.71-2.41,4.22,4.22,0,0,0-2.19-1.31,5,5,0,0,0-4.53,1.12,3.7,3.7,0,0,0-1.11,1.88,1.8,1.8,0,0,0,.59,1.8,1.24,1.24,0,0,0,1.65-.05,1.75,1.75,0,0,0,.55-1.57,3.41,3.41,0,0,0-1.83-2.46,3.75,3.75,0,0,0-2.48-.38,3.93,3.93,0,0,0-1.69.83,4.7,4.7,0,0,0-1,1.21,1.48,1.48,0,0,1,.16-.37,3.77,3.77,0,0,1,.76-.94,4,4,0,0,1,1.73-.91,3.89,3.89,0,0,1,2.64.35,3.68,3.68,0,0,1,2,2.63,2.07,2.07,0,0,1-.64,1.85,1.57,1.57,0,0,1-2.08.08,2.16,2.16,0,0,1-.73-2.14,4,4,0,0,1,1.2-2.09,5.42,5.42,0,0,1,4.91-1.27,4.76,4.76,0,0,1,2.43,1.43,3.2,3.2,0,0,1,.82,2.85,2.41,2.41,0,0,1-.9,1.32,1.85,1.85,0,0,1-1.63.32,2,2,0,0,1-1.24-1.14,2.9,2.9,0,0,1-.23-1.67A3.2,3.2,0,0,1,437.7,384a7,7,0,0,1,3.4-.12,3.67,3.67,0,0,1,2.82,2.08,2.45,2.45,0,0,1,0,1.9,2,2,0,0,1-1.57,1.17,1.64,1.64,0,0,1-1.78-.87,2.31,2.31,0,0,1,.09-2,4,4,0,0,1,3.13-2.13,4.13,4.13,0,0,1,3.58,1.47,3.64,3.64,0,0,1,.83,1.86,1.94,1.94,0,0,1-.92,1.93,1.4,1.4,0,0,1-1.17.14,1.54,1.54,0,0,1-.87-.77,2.1,2.1,0,0,1,.12-2.15,4.76,4.76,0,0,1,1.54-1.4,9.71,9.71,0,0,1,1.82-.92,4.63,4.63,0,0,1,4.11.26,2.84,2.84,0,0,1,1,4,2.16,2.16,0,0,1-2.09.84,2.11,2.11,0,0,1-1.07-.47,1.82,1.82,0,0,1-.57-1,2.73,2.73,0,0,1,.65-2.1,4.46,4.46,0,0,1,1.72-1.24,4.4,4.4,0,0,1,4.05.34,4.26,4.26,0,0,1,2.07,3.43,2,2,0,0,1-1,1.86,1.72,1.72,0,0,1-1.12.15,1.35,1.35,0,0,1-.91-.75,2.21,2.21,0,0,1,.38-2.05,7.73,7.73,0,0,1,1.29-1.43,5.38,5.38,0,0,1,3.43-1.58,3.48,3.48,0,0,1,1.88.46,2.91,2.91,0,0,1,1.19,1.53,2.1,2.1,0,0,1-1.89,2.86,1.71,1.71,0,0,1-1.66-1,2.21,2.21,0,0,1,.06-1.85,3.86,3.86,0,0,1,2.67-2.13,4,4,0,0,1,3.27.45,3.24,3.24,0,0,1,1.4,2.88,2,2,0,0,1-2.25,2,1.21,1.21,0,0,1-.92-1.34,2.77,2.77,0,0,1,.62-1.39,5.91,5.91,0,0,1,2.22-1.73,3.37,3.37,0,0,1,4.57,1.61,2.6,2.6,0,0,1-.4,2.39,1.91,1.91,0,0,1-1,.67,1.08,1.08,0,0,1-1.16-.37,1.45,1.45,0,0,1,0-1.14,5.08,5.08,0,0,1,.39-1,4.58,4.58,0,0,1,1.21-1.52,3.31,3.31,0,0,1,3.25-.54,2.3,2.3,0,0,1,1,3.84A1.62,1.62,0,0,1,473.57,389.68Z"/><polygon class="cls-1" points="425.91 386.39 410.27 445.51 460 447.07 475.64 388.69 425.91 386.39"/><polygon class="cls-6" points="425.91 386.39 423.92 386.58 408.14 441.18 410.54 444.48 425.91 386.39"/><path class="cls-5" d="M458.84,401.47H475a3.79,3.79,0,0,1,3.57,2.33,10.77,10.77,0,0,1,.93,4.65,6,6,0,0,1,1.09,3.27,85.28,85.28,0,0,1,0,8.85c-.16.46-1.86.93-1.86.93s1.08,2.49.15,4.35a4.58,4.58,0,0,1-2.33,2.33s-2.17,5-4.35,5.59-4.19,0-5.28,0-18.64-9-18.64-9v-2s-6.21.62-6.36-2.79,4-3.22,4-3.22h9.47s-10.41.42-11.34-1.13-2.17-5.28,1-5.9,17.55-.62,17.55-.62l7.84,1.29h1.25l-1-3.45s-8.24,0-9.46-.17-3.55-.47-3.55-2.64S458.84,401.47,458.84,401.47Z"/><path class="cls-7" d="M467.92,417.69a14,14,0,0,1-3,.2c-1.87,0-4.45,0-7.29-.2s-5.41-.47-7.25-.74a13.72,13.72,0,0,1-3-.59,16.26,16.26,0,0,1,3,.15c1.85.16,4.41.38,7.24.56s5.4.3,7.25.38A16.57,16.57,0,0,1,467.92,417.69Z"/><path class="cls-7" d="M466.45,426.42a10.94,10.94,0,0,1-2.69-.09c-1.66-.14-3.93-.41-6.43-.82s-4.74-.87-6.36-1.25a11.1,11.1,0,0,1-2.57-.77,11.65,11.65,0,0,1,2.66.34l6.37,1.07,6.38,1A12.16,12.16,0,0,1,466.45,426.42Z"/><path class="cls-7" d="M480,414.19s.24.07.57.35a3.69,3.69,0,0,1,1,1.54,3.86,3.86,0,0,1-.06,2.87,4.16,4.16,0,0,1-2.79,2.35l.19-.45a5.1,5.1,0,0,1-2.34,7.26l.18-.2a10,10,0,0,1-3.49,5.3,8.63,8.63,0,0,1-1.57,1c-.39.17-.62.24-.63.21s.81-.45,2-1.46a10.24,10.24,0,0,0,3.16-5.17l0-.14.15-.06a4.59,4.59,0,0,0,2.05-6.39l-.23-.36.41-.09a3.65,3.65,0,0,0,2.46-2,3.5,3.5,0,0,0,.17-2.54A5.5,5.5,0,0,0,480,414.19Z"/><path class="cls-5" d="M441.9,337.35l10-20.11-3.09-8.8s15-7.76,9.85-23.61c-2.47-7.65-8.83-23-14.76-36.82a31,31,0,0,0-38.41-17.19l-1.52.51c-16.1,6.48-19.59,23.78-12.66,39.69l20.24,59.14Z"/><path class="cls-7" d="M448.8,308.43a38.76,38.76,0,0,1-22.54,1.07s8.68,9.72,23.95,3Z"/><path class="cls-2" d="M444.4,260.5a2.38,2.38,0,0,1-1.41,3,2.27,2.27,0,0,1-3-1.26,2.38,2.38,0,0,1,1.4-3A2.28,2.28,0,0,1,444.4,260.5Z"/><path class="cls-2" d="M443,256c-.18.39-2.31-.3-4.73.52s-3.8,2.63-4.16,2.43c-.17-.09-.07-.72.52-1.54a6.49,6.49,0,0,1,3.2-2.31,6.23,6.23,0,0,1,3.9,0C442.69,255.34,443.13,255.78,443,256Z"/><path class="cls-2" d="M422.09,267.91a2.39,2.39,0,0,1-1.41,3,2.28,2.28,0,0,1-3-1.26,2.38,2.38,0,0,1,1.41-3A2.28,2.28,0,0,1,422.09,267.91Z"/><path class="cls-2" d="M419.47,263.15c-.14.4-2.33,0-4.65,1s-3.49,3-3.87,2.86c-.18-.07-.15-.7.35-1.59a6.6,6.6,0,0,1,2.94-2.64,6.27,6.27,0,0,1,3.86-.47C419.07,262.56,419.55,263,419.47,263.15Z"/><path class="cls-2" d="M434.24,280.37c-.06-.14,1.36-.91,3.7-2,.6-.27,1.14-.59,1.1-1.05s-.49-1.08-1-1.7l-3.42-4.1c-4.8-5.86-8.49-10.76-8.26-11s4.33,4.4,9.13,10.26l3.35,4.16a3.71,3.71,0,0,1,1.13,2.32,1.64,1.64,0,0,1-.71,1.25,4.65,4.65,0,0,1-1,.5C435.81,280,434.29,280.5,434.24,280.37Z"/><path class="cls-2" d="M416.18,254.69c0,.74-2.55,1.24-5.28,2.54s-4.77,2.85-5.34,2.39c-.27-.23-.08-1,.64-1.93a9.63,9.63,0,0,1,3.61-2.81,9.82,9.82,0,0,1,4.48-.95C415.48,254,416.18,254.34,416.18,254.69Z"/><path class="cls-2" d="M440.14,249.44c-.24.69-2.1.68-4.12,1.33s-3.59,1.62-4.17,1.17c-.27-.22-.18-.86.38-1.63a6.27,6.27,0,0,1,6.69-2C439.82,248.62,440.24,249.11,440.14,249.44Z"/><path class="cls-5" d="M396.5,282.27c-.31,0-11.93.44-7.95,11.11s13.87,4.49,13.77,4.18S396.5,282.27,396.5,282.27Z"/><path class="cls-7" d="M397.55,294.72c-.05,0-.13.2-.39.47a2,2,0,0,1-1.38.54c-1.28,0-2.9-1.43-3.67-3.33a6.57,6.57,0,0,1-.47-2.86,2.31,2.31,0,0,1,.87-2,1,1,0,0,1,1.29.1c.25.25.26.49.32.48s.17-.26-.08-.67a1.3,1.3,0,0,0-.67-.51,1.51,1.51,0,0,0-1.13.11,2.81,2.81,0,0,0-1.33,2.38,6.68,6.68,0,0,0,.47,3.21c.86,2.13,2.71,3.73,4.42,3.6a2.12,2.12,0,0,0,1.6-.91C397.63,295,397.6,294.73,397.55,294.72Z"/><path class="cls-2" d="M427.66,284.44c.39-.15,1.28,2.48,4.16,3.59s5.59-.12,5.73.24c.1.15-.45.72-1.62,1.15a6.93,6.93,0,0,1-4.74-.05,6,6,0,0,1-3.32-3.06C427.4,285.24,427.48,284.49,427.66,284.44Z"/><path class="cls-2" d="M447.73,224.67a6.55,6.55,0,0,0-5.13-3.59,11,11,0,0,0-.79-1.73c-2-3.31-6.37-5.1-9.95-3.67a8.19,8.19,0,0,0-14.48.71,9.79,9.79,0,0,0-10.42,2,2.51,2.51,0,0,0-.76,1.17,1.18,1.18,0,0,0,.18.88,6.2,6.2,0,0,0-5.59-1.17,6.13,6.13,0,0,0-1.8.92,7,7,0,0,0-3.66,3.74,9.88,9.88,0,0,0-9.68,8.85,9.4,9.4,0,0,0-5.79,8.75,6.87,6.87,0,0,0-1.39,11.81s-7,4.25-2.75,10.34c2.16,3.11,6.58.95,6.58.95l13.12,19.86c-.06.14,2.26,2.2,3.37,1.21s1.41-2.58,1.76-4a16.46,16.46,0,0,0,.83-5c-.14-1.7-1.22-3.48-2.91-3.74a5.91,5.91,0,0,0,1.92-5.6,17.12,17.12,0,0,0-2.3-5.73l-4.4-8a11.38,11.38,0,0,0,7.26-9.24,6.51,6.51,0,0,0,8.22-5.21,8.48,8.48,0,0,0,11.45,1.69c.32,2.38,5,3.1,7.43,2.95s4.62-2.62,4.62-2.62a13.36,13.36,0,0,0,4.89.1h0l.24-.06c3.15-.73,5.2-4.49,5.77-7.67a5.91,5.91,0,0,0,2.25-1A6.55,6.55,0,0,0,447.73,224.67Z"/><path class="cls-5" d="M359.08,386.73s-6.92,25-8.45,31.17-1.51,20.33,1.93,24.54,14.91,6.88,14.91,6.88,22.47-11,30.12-24.36,28.56-49.78,28.56-49.78L419.52,357,384.7,390.25l.36-4.32Z"/><path class="cls-1" d="M431.82,299.68h0a2.44,2.44,0,0,1,3.29,1.08l20,39.91L450,343l-19.29-40A2.45,2.45,0,0,1,431.82,299.68Z"/><path class="cls-5" d="M418.41,358.15l18.74-19.32h18L466.61,354s-5.45,1-7.41-1.91l-2.53-3.61s2.53,5.56,1.17,8.29c0,0-2.69,6.35-3.13,7-.81,1.28-1.43,2.1-3.78,1.71s-6-2.3-5.59-3.66a2.25,2.25,0,0,1,1.76-1.56l-5.46-.78s-5.51,10-8.83,12.31a26.05,26.05,0,0,1-6.66,3.35Z"/><path class="cls-7" d="M385.4,389.67c0,.09-1.52.82-3.9,2.21a53.51,53.51,0,0,0-16,14.24c-1.65,2.21-2.54,3.67-2.63,3.62a4.81,4.81,0,0,1,.53-1.08,33,33,0,0,1,1.77-2.79,46.54,46.54,0,0,1,7.21-8.12,47,47,0,0,1,8.89-6.24c1.22-.65,2.24-1.14,3-1.43A5.16,5.16,0,0,1,385.4,389.67Z"/><path class="cls-7" d="M441.26,344.44a11.75,11.75,0,0,1,2.64-.44c1.63-.2,3.89-.44,6.39-.66a7.47,7.47,0,0,1,1.89,0,4.14,4.14,0,0,1,1.69.67,5.91,5.91,0,0,1,1.89,2.3,7.44,7.44,0,0,1,.85,2.55c-.1,0-.44-.95-1.21-2.36a6,6,0,0,0-1.84-2,3.51,3.51,0,0,0-1.46-.56,7.44,7.44,0,0,0-1.76,0c-2.5.22-4.76.39-6.41.48A12.42,12.42,0,0,1,441.26,344.44Z"/><path class="cls-7" d="M455.57,362.83c-.1,0,.08-1.36,0-3.53a23.45,23.45,0,0,0-.52-3.77c-.31-1.37-.74-3-2.12-3.8a7.8,7.8,0,0,0-2.2-.78l-2.22-.5a27.44,27.44,0,0,0-3.77-.59,34.32,34.32,0,0,0-3.51.09,2.63,2.63,0,0,1,.91-.29,11.36,11.36,0,0,1,2.62-.21,22.8,22.8,0,0,1,3.86.46c.72.14,1.46.3,2.24.47a8.19,8.19,0,0,1,2.38.84,4.19,4.19,0,0,1,1.68,2,10.58,10.58,0,0,1,.66,2.23,19.85,19.85,0,0,1,.4,3.87,17.3,17.3,0,0,1-.16,2.62A2.41,2.41,0,0,1,455.57,362.83Z"/><path class="cls-7" d="M449.07,356.35a12.51,12.51,0,0,1,.28,3.6v.35l-.36-.07a3.81,3.81,0,0,0-.6-.06,3.65,3.65,0,0,0-2.49,1.1c-.5.53-.66,1-.75,1s-.05-.54.43-1.22a3.6,3.6,0,0,1,2.81-1.42,3.38,3.38,0,0,1,.72.08l-.35.29A12.07,12.07,0,0,1,449.07,356.35Z"/><path class="cls-7" d="M449.09,357a22.73,22.73,0,0,1-3.64-.18,21.32,21.32,0,0,1-3.64-.21,11.83,11.83,0,0,1,7.28.39Z"/><path class="cls-7" d="M442.1,356a10.47,10.47,0,0,1-2.92,7c-.14-.1.77-1.53,1.56-3.44S441.93,356,442.1,356Z"/><path class="cls-8" d="M513.9,574.53,512.28,626l64,2.34c-.15-6.13-32.82-19.62-32.82-19.62l2.4-32.93Z"/><g class="cls-9"><path class="cls-10" d="M523.78,605.21a2.61,2.61,0,0,0-1.91,2.92,2.51,2.51,0,0,0,2.87,1.93,2.76,2.76,0,0,0,2-3.1c-.38-1.23-2-2.24-3.21-1.67"/></g><g class="cls-9"><path class="cls-10" d="M512.28,626l.36-5.18L573.88,625s2.81,1.35,2.41,3.34Z"/></g><path class="cls-2" d="M544.52,608.43c0,.31-1.59.39-3.16,1.34s-2.44,2.23-2.73,2.1.25-1.92,2.18-3S544.6,608.14,544.52,608.43Z"/><path class="cls-2" d="M551.14,611.45c.06.3-1.32.79-2.43,2.07s-1.46,2.67-1.77,2.64-.45-1.8,1-3.37S551.14,611.15,551.14,611.45Z"/><path class="cls-2" d="M554.66,619.62c-.29.06-.67-1.52.2-3.2s2.35-2.31,2.47-2-.81,1.15-1.5,2.54S555,619.6,554.66,619.62Z"/><path class="cls-2" d="M544.24,600.86c-.14.28-1.56-.2-3.33-.15s-3.17.56-3.33.29,1.22-1.34,3.3-1.38S544.4,600.62,544.24,600.86Z"/><path class="cls-2" d="M543,593.21c0,.13-1.24.28-3.21-.14a13.8,13.8,0,0,1-3.31-1.15,15.24,15.24,0,0,1-1.81-1,4,4,0,0,1-.94-.79,1.37,1.37,0,0,1-.08-1.67,1.7,1.7,0,0,1,1.4-.66,4,4,0,0,1,1.19.21,11.19,11.19,0,0,1,2,.75,11.4,11.4,0,0,1,2.89,2c1.43,1.43,1.89,2.62,1.79,2.67s-.84-.9-2.31-2.09a12.22,12.22,0,0,0-2.8-1.72A11.79,11.79,0,0,0,536,589c-.67-.2-1.25-.22-1.43.07-.07.11-.08.16.06.36a3.27,3.27,0,0,0,.69.58,16.64,16.64,0,0,0,1.66,1,18.14,18.14,0,0,0,3.05,1.3C541.8,592.91,543,593,543,593.21Z"/><path class="cls-2" d="M542.57,593.64c-.12.05-.69-1.1-.74-3.13a10.73,10.73,0,0,1,.57-3.49,10.61,10.61,0,0,1,.89-1.92,2.66,2.66,0,0,1,2.1-1.54,1.49,1.49,0,0,1,1.31.94,4.51,4.51,0,0,1,.28,1.19,7,7,0,0,1-.07,2.16,7.31,7.31,0,0,1-1.49,3.26c-1.31,1.61-2.63,1.94-2.65,1.83s1-.72,2-2.28a7.47,7.47,0,0,0,1.13-3,6.81,6.81,0,0,0,0-1.86c-.08-.68-.31-1.24-.57-1.18s-.88.47-1.16,1a11,11,0,0,0-.86,1.71,11.67,11.67,0,0,0-.74,3.17C542.45,592.42,542.74,593.6,542.57,593.64Z"/><path class="cls-8" d="M417.87,574.9l16.21,48.87-60.7,20.48c-1.6-5.92,25.88-28.15,25.88-28.15l-11.67-30.89Z"/><g class="cls-9"><path class="cls-10" d="M417.14,607.13a2.62,2.62,0,0,1,2.67,2.25,2.53,2.53,0,0,1-2.21,2.67,2.76,2.76,0,0,1-2.81-2.4c0-1.29,1.33-2.73,2.6-2.52"/></g><g class="cls-9"><path class="cls-10" d="M434.08,623.77l-1.82-4.86-57.52,21.45s-2.3,2.09-1.36,3.89Z"/></g><path class="cls-2" d="M398.17,616.12c.11.29,1.64-.07,3.42.39s3,1.44,3.21,1.23-.79-1.77-2.95-2.29S398,615.87,398.17,616.12Z"/><path class="cls-2" d="M392.69,620.9c0,.31,1.48.38,2.91,1.29s2.17,2.15,2.46,2-.08-1.85-1.88-3S392.6,620.61,392.69,620.9Z"/><path class="cls-2" d="M391.65,629.74c.29,0,.2-1.65-1.11-3s-2.91-1.54-3-1.25,1.1.87,2.16,2S391.34,629.81,391.65,629.74Z"/><path class="cls-2" d="M396.29,608.78c.22.23,1.44-.63,3.15-1.09s3.2-.36,3.27-.67-1.55-.94-3.56-.38S396.07,608.6,396.29,608.78Z"/><path class="cls-2" d="M395.31,601.1c0,.12,1.27-.09,3-1.05a14.12,14.12,0,0,0,2.85-2,16.06,16.06,0,0,0,1.44-1.51,4.37,4.37,0,0,0,.67-1,1.35,1.35,0,0,0-.39-1.62,1.72,1.72,0,0,0-1.53-.24,4.43,4.43,0,0,0-1.09.54,11.71,11.71,0,0,0-1.67,1.29,11.14,11.14,0,0,0-2.18,2.79c-1,1.77-1.08,3-1,3.07s.54-1.11,1.61-2.67a12.68,12.68,0,0,1,2.2-2.44,12.49,12.49,0,0,1,1.56-1.13c.59-.38,1.13-.57,1.39-.34.1.09.12.13.05.36a3,3,0,0,1-.5.75,15.43,15.43,0,0,1-1.29,1.46,18.55,18.55,0,0,1-2.56,2.12C396.36,600.47,395.25,600.94,395.31,601.1Z"/><path class="cls-2" d="M395.84,601.39c.12,0,.35-1.25-.19-3.21a10.41,10.41,0,0,0-1.54-3.19,10.72,10.72,0,0,0-1.4-1.58,2.63,2.63,0,0,0-2.45-.88,1.52,1.52,0,0,0-1,1.28,4.34,4.34,0,0,0,.07,1.22,7,7,0,0,0,.68,2,7.43,7.43,0,0,0,2.36,2.71c1.72,1.17,3.08,1.11,3.07,1s-1.18-.41-2.6-1.61a7.36,7.36,0,0,1-1.92-2.54,6.4,6.4,0,0,1-.54-1.77c-.12-.68-.06-1.28.21-1.3a1.88,1.88,0,0,1,1.4.64,11.33,11.33,0,0,1,1.31,1.39,11.57,11.57,0,0,1,1.61,2.84C395.6,600.18,395.66,601.4,395.84,601.39Z"/><path class="cls-11" d="M403.26,458.81S379.48,437.72,369,437.9s-44.66-2.09-30.31,45.33c14.48,47.82,40.39,120.95,41.09,118.32l44.6-19.6-18.12-68s60.79.68,72.53-.86,33.7-17,33.7-17L509,582l46.61-2.6s6.54-103.24,8.43-124.45c1.64-18.48-19.13-39.21-40.29-34.54-13.83,3.06-63.27,38-63.27,38Z"/><path class="cls-1" d="M514.12,450.37a11.06,11.06,0,0,1,0,2.25c-.08,1.59-.18,3.65-.31,6.12-.24,5.17-.41,12.31-.53,20.21s-.28,15.05-.55,20.23c-.13,2.59-.28,4.68-.42,6.12a11.79,11.79,0,0,1-.3,2.24,13.17,13.17,0,0,1,0-2.26c0-1.59.1-3.65.17-6.12.08-5.32.19-12.4.32-20.23s.37-15.05.76-20.22c.18-2.59.38-4.68.56-6.11A13.82,13.82,0,0,1,514.12,450.37Z"/><path class="cls-1" d="M512.24,490.62a9.84,9.84,0,0,1-2.06-2.49,27.78,27.78,0,0,1-4.58-14.71,9.64,9.64,0,0,1,.28-3.21c.26,0-.1,4.94,1.71,10.66S512.45,490.47,512.24,490.62Z"/><path class="cls-1" d="M448.82,508c-.08,0-.18-1.18-.54-3.28a42.08,42.08,0,0,0-2.44-8.65,44.32,44.32,0,0,0-6.74-11.45,42.6,42.6,0,0,0-12.47-10.35c-10.11-5.86-19-11.59-25.22-16.08-3.1-2.25-5.54-4.16-7.16-5.57-.82-.69-1.42-1.27-1.83-1.66a3.79,3.79,0,0,1-.59-.62c0-.05.94.72,2.62,2s4.15,3.18,7.28,5.35c6.27,4.36,15.2,10,25.29,15.86a43.72,43.72,0,0,1,7.07,4.86,44.63,44.63,0,0,1,5.57,5.72,43.19,43.19,0,0,1,6.69,11.7,39,39,0,0,1,2.24,8.81,23.38,23.38,0,0,1,.22,2.46A4.33,4.33,0,0,1,448.82,508Z"/><path class="cls-1" d="M465.26,457.68a11.38,11.38,0,0,1-.77,2c-.56,1.25-1.31,3.09-2.17,5.38a96.74,96.74,0,0,0-6.17,37.46c.08,2.44.2,4.42.33,5.79a10.4,10.4,0,0,1,.09,2.13,11.39,11.39,0,0,1-.39-2.1c-.22-1.36-.43-3.34-.58-5.8a87,87,0,0,1,6.21-37.69c.93-2.27,1.76-4.09,2.4-5.3A11,11,0,0,1,465.26,457.68Z"/><path class="cls-1" d="M375.85,451.49a4.4,4.4,0,0,1,.65.42c.45.33,1,.77,1.78,1.3l1.29,1c.46.36.91.81,1.42,1.26a34.35,34.35,0,0,1,3.31,3.25l1.8,2c.59.74,1.16,1.53,1.77,2.34l.92,1.23c.3.43.57.89.86,1.35.56.91,1.18,1.84,1.75,2.82a86.06,86.06,0,0,1,6,13.5c1.76,4.94,3.09,9.75,4.28,14.12l3.1,11.63c.91,3.3,1.63,6,2.19,7.81.25.88.44,1.58.6,2.12a3.91,3.91,0,0,1,.17.75,4,4,0,0,1-.28-.72l-.7-2.09c-.61-1.82-1.4-4.48-2.36-7.77s-2-7.24-3.21-11.6-2.56-9.15-4.31-14.07A88.45,88.45,0,0,0,391,468.67c-.55-1-1.16-1.9-1.71-2.81-.28-.45-.55-.91-.84-1.34s-.6-.83-.9-1.23c-.6-.81-1.16-1.6-1.73-2.34l-1.76-2a37.44,37.44,0,0,0-3.23-3.28c-.5-.46-.93-.92-1.38-1.29l-1.25-1L376.43,452A3.93,3.93,0,0,1,375.85,451.49Z"/><path class="cls-12" d="M402.77,458.38c8.48,5.6,17.83,6.92,27.81,8.83,5.76,1.1,11.79,2.1,17.42.44,12.05-3.56,23.71-17.28,31.46-22.18l-32.35,8.19Z"/><polygon class="cls-6" points="176.13 48.22 300.03 48.22 300.03 227.84 176.98 227.84 176.13 48.22"/><rect class="cls-10" x="166.84" y="49.06" width="122.76" height="177.94" transform="translate(456.45 276.06) rotate(180)"/><path class="cls-6" d="M290.45,48.22V227.84H166V48.22Zm-1.69,177.94V49.9H167.69V226.16Z"/><rect class="cls-10" x="182.09" y="68.33" width="92.26" height="139.4"/><path class="cls-6" d="M182.09,68.33s0,.24,0,.69,0,1.13,0,2c0,1.77,0,4.33.05,7.66,0,6.69.06,16.43.11,28.72,0,24.59.12,59.38.2,100.35l-.41-.4,92.25,0h0l-.44.44c0-52.59.07-101.07.09-139.4l.35.35-67.12-.18-18.57-.09-4.87,0c-1.11,0-1.7,0-1.7,0l1.62,0,4.81,0L207,68.17,274.35,68h.35v.35c0,38.33.06,86.81.09,139.4v.44h-.45l-92.25,0h-.4v-.4c.08-41.08.15-76,.2-100.61,0-12.26.08-22,.11-28.64,0-3.29,0-5.82.05-7.57,0-.84,0-1.48,0-1.94S182.09,68.33,182.09,68.33Z"/><path class="cls-6" d="M166.5,227a14.51,14.51,0,0,1,2-3.06c1.31-1.82,3.18-4.3,5.32-7s4.17-5,5.69-6.69a14.13,14.13,0,0,1,2.6-2.55c.19.16-3.34,4.44-7.61,9.79S166.7,227.16,166.5,227Z"/><path class="cls-6" d="M166.84,49.06c.19-.15,3.76,4,8,9.36s7.47,9.76,7.28,9.91-3.76-4-8-9.36S166.65,49.21,166.84,49.06Z"/><path class="cls-10" d="M289.62,49.2,273.54,69"/><path class="cls-6" d="M273.54,69c-.19-.15,3.26-4.72,7.7-10.2s8.19-9.79,8.38-9.64-3.26,4.72-7.7,10.2S273.73,69.19,273.54,69Z"/><path class="cls-6" d="M289.6,227c-.19.15-3.72-4-7.88-9.26s-7.39-9.66-7.2-9.81,3.72,4,7.89,9.26S289.8,226.85,289.6,227Z"/><path class="cls-6" d="M234.17,140.06H217.94L216,144.54a10,10,0,0,0-.94,3.69,3.06,3.06,0,0,0,1.55,2.85,13.21,13.21,0,0,0,4.51.81v1.26H205.84v-1.26a6.83,6.83,0,0,0,4.06-2q1.6-1.68,3.94-6.93l16.43-36.67h.65l16.57,37.69q2.37,5.35,3.9,6.74a5.3,5.3,0,0,0,3.25,1.22v1.26H232.41v-1.26h.91a7.08,7.08,0,0,0,3.77-.74,1.82,1.82,0,0,0,.74-1.56,4.35,4.35,0,0,0-.2-1.26c0-.2-.39-1.05-1-2.54Zm-1.15-2.5-6.85-15.83-7,15.83Z"/><rect class="cls-10" x="452.85" y="47.28" width="233.01" height="156.01"/><path class="cls-6" d="M685.86,203.29s0-1,0-2.83,0-4.63,0-8.23c0-7.23,0-17.82-.09-31.38,0-27.11-.1-66.07-.17-113.57l.33.33-233,.09h0l.42-.42c0,55.58,0,108.43,0,156l-.38-.38,167.87.19,48,.1,12.76.05,3.29,0,1.13,0s-.36,0-1.08,0l-3.26,0-12.68,0-47.87.1-168.12.19h-.38v-.39c0-47.58,0-100.43,0-156v-.42h.44l233,.09h.34v.33c-.08,47.59-.14,86.62-.18,113.78,0,13.53-.07,24.09-.09,31.3,0,3.57,0,6.31,0,8.17S685.86,203.29,685.86,203.29Z"/><path class="cls-6" d="M452.85,61.2c0-.23,52.12-.41,116.4-.41s116.42.18,116.42.41-52.11.42-116.42.42S452.85,61.43,452.85,61.2Z"/><g class="cls-3"><path class="cls-6" d="M462,54.18a1.87,1.87,0,1,1-1.86-1.87A1.87,1.87,0,0,1,462,54.18Z"/></g><g class="cls-3"><path class="cls-6" d="M468.44,54.18a1.87,1.87,0,1,1-1.86-1.87A1.87,1.87,0,0,1,468.44,54.18Z"/></g><g class="cls-3"><path class="cls-6" d="M474.75,54.18a1.87,1.87,0,1,1-1.87-1.87A1.87,1.87,0,0,1,474.75,54.18Z"/></g><rect class="cls-6" x="472.88" y="77.47" width="62.15" height="62.15"/><path class="cls-6" d="M653.91,95c0,.23-24.24.42-54.14.42s-54.14-.19-54.14-.42,24.23-.42,54.14-.42S653.91,94.81,653.91,95Z"/><path class="cls-6" d="M653.91,106.59c0,.23-24.24.42-54.14.42s-54.14-.19-54.14-.42,24.23-.42,54.14-.42S653.91,106.36,653.91,106.59Z"/><path class="cls-6" d="M653.91,118.14c0,.23-24.24.42-54.14.42s-54.14-.19-54.14-.42,24.23-.42,54.14-.42S653.91,117.91,653.91,118.14Z"/><path class="cls-6" d="M609.62,129.69a13.6,13.6,0,0,1-2.51.17l-6.86.13c-5.79.07-13.79.12-22.62.12s-16.84-.05-22.63-.12l-6.86-.13a13.6,13.6,0,0,1-2.51-.17,14.36,14.36,0,0,1,2.51-.16l6.86-.13c5.79-.08,13.79-.12,22.63-.12s16.83,0,22.62.12l6.86.13A14.36,14.36,0,0,1,609.62,129.69Z"/><rect class="cls-6" x="476.77" y="160.58" width="29.21" height="29.21"/><rect class="cls-6" x="529.75" y="160.58" width="29.21" height="29.21"/><rect class="cls-6" x="582.72" y="160.58" width="29.21" height="29.21"/><rect class="cls-6" x="635.69" y="160.58" width="29.21" height="29.21"/><circle class="cls-13" cx="362.86" cy="169.2" r="43.32" transform="translate(-37.3 156.22) rotate(-23.14)"/><circle class="cls-10" cx="362.83" cy="169.2" r="43.46" transform="translate(116.15 484.52) rotate(-76.96)"/><path class="cls-2" d="M407.65,190.9s-.46.13-1.19.54a5.81,5.81,0,0,0-2.32,2.55,5.5,5.5,0,0,0-.52,2.32,4.65,4.65,0,0,0,.8,2.57,5.19,5.19,0,0,0,9.56-1.77,4.78,4.78,0,0,0-.18-2.69,5.38,5.38,0,0,0-1.32-2,5.75,5.75,0,0,0-3.08-1.56c-.82-.12-1.29,0-1.3-.08l.34-.07a2.37,2.37,0,0,1,.41,0,3.89,3.89,0,0,1,.57,0,5.65,5.65,0,0,1,3.25,1.5,5.52,5.52,0,0,1,1.44,2.06,5,5,0,0,1,.23,2.89,5.91,5.91,0,0,1-1.47,2.83,5.51,5.51,0,0,1-3,1.7,5.44,5.44,0,0,1-3.39-.52,5.94,5.94,0,0,1-2.39-2.12,5.06,5.06,0,0,1-.82-2.77,5.84,5.84,0,0,1,3.11-5,5.26,5.26,0,0,1,.52-.23,2.4,2.4,0,0,1,.4-.12C407.53,190.9,407.64,190.88,407.65,190.9Z"/><path class="cls-2" d="M406.34,167.16s0-.24-.08-.7-.13-1.16-.22-2.06c-.05-.46-.1-1-.16-1.52s-.23-1.16-.36-1.81-.27-1.35-.43-2.11a7.41,7.41,0,0,0-.3-1.14l-.37-1.21a41.55,41.55,0,0,0-5.35-11.34,43.19,43.19,0,0,0-11.59-11.81l-1.94-1.32c-.68-.4-1.39-.76-2.1-1.15l-1.07-.59a11.2,11.2,0,0,0-1.1-.54l-2.3-1-1.17-.49-1.23-.38-2.48-.78c-.84-.24-1.72-.37-2.59-.57l-1.31-.27c-.22,0-.44-.1-.66-.13l-.68-.07a39.93,39.93,0,0,0-5.51-.39c-.94,0-1.89,0-2.83,0l-2.87.28c-.48.06-1,.08-1.44.16l-1.44.29c-.95.2-1.93.36-2.89.61a45.32,45.32,0,0,0-5.71,2l-1.41.59c-.24.1-.48.19-.71.3l-.68.37-2.74,1.48c-.89.54-1.74,1.16-2.62,1.74-.43.3-.9.57-1.3.91l-1.24,1a48.81,48.81,0,0,0-4.72,4.4l-2.09,2.53-.53.64c-.16.22-.31.45-.47.68l-.93,1.37-.94,1.38L325,148l-.81,1.47-.4.74c-.12.26-.23.52-.34.78-.44,1-.88,2.08-1.33,3.12s-.68,2.17-1,3.27a43,43,0,0,0,1.25,27.35l1.33,3.16,1.61,3,.4.74.48.7.93,1.39.94,1.39,1.06,1.29,1.05,1.28.53.64.58.58,2.32,2.33a47.78,47.78,0,0,0,5.11,3.95l1.32.9c.44.3.92.52,1.38.79.93.49,1.84,1,2.77,1.48l2.87,1.23.71.3c.24.09.49.16.73.24l1.46.46a45.87,45.87,0,0,0,5.86,1.43c1,.15,2,.22,2.94.34l1.46.15c.48,0,1,0,1.45,0l2.88,0c.95,0,1.89-.17,2.82-.24a40.63,40.63,0,0,0,5.46-.89l.66-.13.65-.2,1.28-.39c.85-.27,1.71-.49,2.53-.8l2.4-1,1.18-.5,1.12-.59,2.2-1.19a8,8,0,0,0,1-.64l1-.68c.67-.45,1.35-.88,2-1.35l1.81-1.48a43.25,43.25,0,0,0,10.46-12.83c.29-.54.6-1.06.87-1.59s.46-1.07.68-1.6l.67-1.54c.1-.25.22-.5.31-.75l.24-.76.91-2.87c.27-.93.41-1.83.6-2.67.09-.42.18-.84.27-1.23a8.37,8.37,0,0,0,.19-1.17c.08-.77.16-1.48.24-2.14s.15-1.27.18-1.83,0-1.07,0-1.53q0-1.35,0-2.07c0-.47,0-.71,0-.71s0,.24,0,.71,0,1.17,0,2.07c0,.46,0,1,0,1.53s-.11,1.18-.17,1.84-.14,1.38-.22,2.15a8.37,8.37,0,0,1-.19,1.17c-.08.4-.16.81-.25,1.24-.19.84-.33,1.75-.59,2.68s-.58,1.89-.9,2.89l-.24.77a7.92,7.92,0,0,1-.31.75l-.65,1.56c-.23.52-.46,1.06-.69,1.61s-.57,1.06-.86,1.6a43.45,43.45,0,0,1-10.48,12.94l-1.82,1.5c-.64.47-1.32.9-2,1.36l-1,.68a8.81,8.81,0,0,1-1.05.66l-2.22,1.19-1.12.61-1.19.5-2.42,1c-.82.32-1.69.54-2.54.82l-1.29.4c-.22.06-.44.14-.66.19l-.67.13a39.3,39.3,0,0,1-5.49.91c-.94.08-1.89.22-2.85.25h-2.9c-.48,0-1,0-1.46,0l-1.47-.15c-1-.12-2-.19-3-.34a45,45,0,0,1-5.91-1.44l-1.47-.46c-.25-.08-.5-.15-.74-.24l-.72-.3L344,208.68c-1-.46-1.86-1-2.8-1.5-.46-.27-.95-.49-1.39-.79l-1.34-.91a48.52,48.52,0,0,1-5.15-4L331,199.15l-.59-.59-.53-.64-1.07-1.29-1.07-1.3-.94-1.4-.95-1.41-.48-.7-.41-.75-1.62-3c-.45-1.06-.89-2.12-1.34-3.19a43.4,43.4,0,0,1-1.27-27.6c.35-1.1.7-2.2,1-3.3l1.35-3.15c.11-.26.22-.52.34-.78l.41-.75.81-1.49.82-1.48.94-1.39.94-1.38c.16-.23.31-.47.47-.69l.54-.64,2.11-2.55a49.78,49.78,0,0,1,4.77-4.44l1.24-1c.42-.34.88-.61,1.32-.92.89-.58,1.75-1.2,2.65-1.74l2.76-1.49.69-.37.71-.31,1.43-.6a47.75,47.75,0,0,1,5.76-2c1-.24,2-.4,2.92-.6l1.44-.29c.49-.09,1-.11,1.46-.16l2.89-.28c.95,0,1.91,0,2.85,0a40.66,40.66,0,0,1,5.56.39l.68.08c.22,0,.44.09.66.13l1.33.28c.87.2,1.76.34,2.6.58s1.68.52,2.5.79l1.23.38,1.18.5,2.32,1a8.81,8.81,0,0,1,1.11.55l1.07.59c.71.4,1.43.77,2.11,1.18l1.95,1.32a43.5,43.5,0,0,1,11.62,11.93,41.36,41.36,0,0,1,5.31,11.42c.13.41.25.82.37,1.21a8.42,8.42,0,0,1,.29,1.15c.15.76.28,1.46.41,2.12s.26,1.26.34,1.81.1,1.07.14,1.53q.12,1.35.18,2.07C406.34,166.92,406.34,167.16,406.34,167.16Z"/><path class="cls-4" d="M378.78,165.24a15.91,15.91,0,1,0-22.68,14.38v4H370s.08-2.26.11-4.27A15.89,15.89,0,0,0,378.78,165.24Z"/><path class="cls-2" d="M365,183.57s0-.07,0-.2,0-.32.07-.57c.06-.5.15-1.25.29-2.2s.33-2.12.63-3.46a23.52,23.52,0,0,1,1.44-4.42,15.16,15.16,0,0,1,1.31-2.38,2.87,2.87,0,0,1,1.09-1,1.65,1.65,0,0,1,1.51,0,1.06,1.06,0,0,1,.5.63,1.07,1.07,0,0,1-.07.82,2.22,2.22,0,0,1-1.22,1A4.36,4.36,0,0,1,365,169a3.28,3.28,0,0,1-.1-1.84,1.43,1.43,0,0,1,1.45-1.1,1,1,0,0,1,.81.56,1.44,1.44,0,0,1,.12,1,3.12,3.12,0,0,1-1.11,1.58,4.72,4.72,0,0,1-3.71,1.07,4.13,4.13,0,0,1-3.08-2.29,2.42,2.42,0,0,1-.1-1.92,1.18,1.18,0,0,1,.69-.71,1.24,1.24,0,0,1,1,.09,1.56,1.56,0,0,1,.67.7,2.53,2.53,0,0,1,.25.92A4.75,4.75,0,0,1,356.1,172a2.48,2.48,0,0,1-1.43-.76,1.24,1.24,0,0,1-.09-1.53,1.06,1.06,0,0,1,.72-.35,1.55,1.55,0,0,1,.76.15,2.27,2.27,0,0,1,1,1.09c.4.86.72,1.7,1.05,2.5,1.27,3.21,2.17,5.85,2.77,7.68.31.91.53,1.63.68,2.11l.16.55a1.47,1.47,0,0,1,.05.2,1.94,1.94,0,0,0-.07-.19l-.18-.55-.71-2.1c-.62-1.82-1.55-4.45-2.83-7.65-.33-.79-.66-1.64-1.05-2.48a2.16,2.16,0,0,0-.91-1,1,1,0,0,0-1.19,1.49,2.45,2.45,0,0,0,1.34.7,4.71,4.71,0,0,0,3.17-.45,4.54,4.54,0,0,0,2.15-2.57,4.45,4.45,0,0,0,.23-1.74,1.72,1.72,0,0,0-.82-1.46,1,1,0,0,0-.82-.08,1.09,1.09,0,0,0-.59.6,2.23,2.23,0,0,0,.11,1.77,3.92,3.92,0,0,0,2.93,2.18,4.51,4.51,0,0,0,3.55-1,2.92,2.92,0,0,0,1.05-1.47,1.24,1.24,0,0,0-.1-.85.83.83,0,0,0-.66-.46,1.09,1.09,0,0,0-.79.25,1.38,1.38,0,0,0-.46.72,3.25,3.25,0,0,0,.09,1.72,4.24,4.24,0,0,0,2.15,2.55,4.16,4.16,0,0,0,3.16.23,2,2,0,0,0,1.14-1,.93.93,0,0,0-.37-1.24,1.49,1.49,0,0,0-1.36-.05,2.79,2.79,0,0,0-1,.93,14.75,14.75,0,0,0-1.3,2.34,23.54,23.54,0,0,0-1.46,4.4c-.32,1.33-.51,2.49-.67,3.44s-.25,1.68-.32,2.19c0,.25-.07.44-.09.58Z"/><path class="cls-2" d="M369,186.22H357a.9.9,0,0,1-.9-.9h0a.9.9,0,0,1,.9-.9h12a.9.9,0,0,1,.9.9h0A.9.9,0,0,1,369,186.22Z"/><path class="cls-2" d="M369,187H357a.9.9,0,1,0,0,1.8h1.31l1.74,3.31a1.16,1.16,0,0,0,1,.62h4.28a1.16,1.16,0,0,0,1-.63l1.69-3.3H369a.9.9,0,1,0,0-1.8Z"/><g class="cls-14"><path class="cls-10" d="M352.66,155.1a11.74,11.74,0,0,1,3.18-2.11,8.42,8.42,0,0,1,2.45-.71c.6-.07.95,0,1,.12.07.29-1.14.71-2.76,1.8a13.06,13.06,0,0,0-6,12.84c.22,1.94.67,3.14.4,3.27-.11.06-.38-.16-.72-.66a8.64,8.64,0,0,1-1-2.33,11.82,11.82,0,0,1-.44-3.8,12.39,12.39,0,0,1,1.12-4.6"/></g><g class="cls-14"><path class="cls-10" d="M363.09,153.08c-1,0-1.9-.28-2-.82,0-.26.14-.54.51-.76a3.19,3.19,0,0,1,3,0c.36.23.55.51.5.78"/></g><path class="cls-1" d="M366.15,192.39s-.31-.11-.82-.26a7.1,7.1,0,0,0-2-.25,6.56,6.56,0,0,0-2,.37c-.5.17-.79.33-.81.3a2.36,2.36,0,0,1,.76-.43,5.81,5.81,0,0,1,4.13-.12A2.26,2.26,0,0,1,366.15,192.39Z"/><path class="cls-1" d="M368.1,188.84s-2.17.09-4.84.09-4.83,0-4.83-.09,2.16-.1,4.83-.1S368.1,188.78,368.1,188.84Z"/><path class="cls-1" d="M367.35,190.26a8.4,8.4,0,0,1-1.18.12c-.73,0-1.74.08-2.86.1s-2.12,0-2.85,0a6.64,6.64,0,0,1-1.18-.09,7.2,7.2,0,0,1,1.18-.05l2.85,0,2.85,0A7.14,7.14,0,0,1,367.35,190.26Z"/><rect class="cls-15" x="715.05" y="137.47" width="49.24" height="61.6" transform="translate(557.33 904.6) rotate(-88.91)"/><path class="cls-2" d="M770.94,144.24h-1.16l-3.35,0-12.61-.2-44.47-.77.16-.16c-.27,14.66-.58,31.46-.92,49.23h0l-.17-.18,61.58,1.2-.15.15c.32-14.83.58-27.12.76-35.71.1-4.3.17-7.67.23-10,0-1.15,0-2,.06-2.63s0-.91,0-.91v.88c0,.6,0,1.47,0,2.6,0,2.3-.09,5.66-.16,9.95-.14,8.62-.35,20.94-.6,35.8v.15H770l-61.59-1.15h-.18v-.18h0c.34-17.78.67-34.58,1-49.23v-.16h.16l44.57.93,12.57.28,3.31.09.85,0Z"/><g class="cls-3"><polygon class="cls-16" points="710.6 189.24 731.11 162.87 743.17 179.84 751.75 171.05 767.86 190.33 710.6 189.24"/></g><g class="cls-3"><path class="cls-16" d="M748.82,159.93a4.51,4.51,0,1,1-4.43-4.6A4.51,4.51,0,0,1,748.82,159.93Z"/></g><rect class="cls-15" x="635.56" y="172.5" width="93.07" height="74.41" transform="translate(-20.79 86.51) rotate(-7.15)"/><path class="cls-2" d="M723.64,167l-.45.07-1.29.17-5,.66L698,170.33l-66.67,8.49.21-.27c2.76,22,5.93,47.16,9.28,73.82h0l-.31-.23,92.36-11.54-.2.25c-2.74-22.23-5-40.67-6.6-53.56-.78-6.45-1.39-11.51-1.82-15-.2-1.72-.36-3-.47-3.95s-.14-1.37-.14-1.37.07.43.19,1.31.29,2.21.51,3.91c.45,3.45,1.1,8.48,1.93,14.91,1.65,12.91,4,31.38,6.85,53.67l0,.22-.23,0-92.34,11.63-.27,0,0-.27h0c-3.33-26.65-6.48-51.85-9.23-73.82l0-.24.24,0,66.85-8.26L717,167.77l5-.59,1.28-.15Z"/><g class="cls-17"><polygon class="cls-16" points="643.15 247.36 668.11 203.49 689.83 226.25 700.75 211.26 729.01 236.59 643.15 247.36"/></g><g class="cls-17"><path class="cls-16" d="M694,195.25a6.81,6.81,0,1,1-7.61-5.91A6.81,6.81,0,0,1,694,195.25Z"/></g><polygon class="cls-6" points="642.87 168.26 626.3 189.88 630.17 195.79 649.63 170.94 642.87 168.26"/><polygon class="cls-6" points="734.95 224.08 718.38 245.71 722.25 251.61 741.72 226.76 734.95 224.08"/><path class="cls-18" d="M252.64,586a2.56,2.56,0,0,1,.19-.46l.62-1.32a32.74,32.74,0,0,0,1.81-5.28c1.21-4.7,1.63-11.87-.15-20.4a110.8,110.8,0,0,0-3.78-13.7c-1.61-4.86-3.46-10-5-15.6a60,60,0,0,1-2.46-17.93c.23-6.35,2.11-12.68,4.17-19s4.19-12.49,4.83-18.69a28.48,28.48,0,0,0-3.42-17.27c-2.74-5-6.18-9.34-8.75-13.8a48,48,0,0,1-5.26-13.28,49.4,49.4,0,0,1-.33-20.56,38.07,38.07,0,0,1,2.14-7.26,3.13,3.13,0,0,1-.12.48c-.11.34-.26.8-.44,1.39a51,51,0,0,0-1.33,5.44,50,50,0,0,0,.53,20.41,47.75,47.75,0,0,0,5.28,13.1c2.56,4.41,6,8.7,8.81,13.8a29,29,0,0,1,3.53,17.61c-.64,6.31-2.79,12.52-4.85,18.83s-3.92,12.56-4.15,18.8a59.78,59.78,0,0,0,2.4,17.75c1.49,5.55,3.33,10.71,4.91,15.59a107.15,107.15,0,0,1,3.72,13.78c1.74,8.59,1.24,15.84-.05,20.55a31.32,31.32,0,0,1-1.94,5.28c-.29.54-.52,1-.68,1.29A2.92,2.92,0,0,1,252.64,586Z"/><path class="cls-18" d="M244.21,447s-5.22-16.72,4.15-26.5a.58.58,0,0,1,1,.28C249.86,423.5,250.48,431.91,244.21,447Z"/><path class="cls-18" d="M247.35,426a15.88,15.88,0,0,1-.36,3.08c-.34,2.12-.74,4.62-1.19,7.37s-.83,5.25-1.17,7.37a18,18,0,0,1-.55,3,12.37,12.37,0,0,1,.09-3.1c.17-1.91.51-4.54,1-7.42s1-5.48,1.38-7.36A13.63,13.63,0,0,1,247.35,426Z"/><path class="cls-18" d="M250.35,486.38s3.2-17.22,16.07-21.48a.57.57,0,0,1,.74.71C266.31,468.29,262.93,476,250.35,486.38Z"/><path class="cls-18" d="M262.91,469.34a15,15,0,0,1-1.75,2.56l-4.5,6-4.49,6a16.51,16.51,0,0,1-1.91,2.44,12.92,12.92,0,0,1,1.53-2.7c1.05-1.61,2.58-3.77,4.34-6.1s3.43-4.39,4.67-5.85A14.07,14.07,0,0,1,262.91,469.34Z"/><path class="cls-18" d="M246.88,529.58s-1.94-17.41,9.13-25.23a.58.58,0,0,1,.92.48C256.89,507.63,255.9,516,246.88,529.58Z"/><path class="cls-18" d="M254,509.63a15.87,15.87,0,0,1-.94,3c-.74,2-1.61,4.39-2.58,7s-1.81,5-2.55,7a15.54,15.54,0,0,1-1.13,2.89,13.35,13.35,0,0,1,.69-3c.53-1.84,1.36-4.36,2.38-7.1s2-5.19,2.76-7A13.26,13.26,0,0,1,254,509.63Z"/><path class="cls-18" d="M256.57,573s-1.32-17.47,10-24.88a.58.58,0,0,1,.9.5C267.36,551.45,266.07,559.79,256.57,573Z"/><path class="cls-18" d="M264.35,553.34a15.7,15.7,0,0,1-1,2.93c-.82,2-1.77,4.33-2.83,6.91s-2,4.93-2.8,6.92a18.2,18.2,0,0,1-1.23,2.85,12.59,12.59,0,0,1,.79-3c.6-1.82,1.52-4.3,2.63-7s2.19-5.12,3-6.85A13.56,13.56,0,0,1,264.35,553.34Z"/><path class="cls-18" d="M236.7,432.27s-15.52-8.11-15.83-21.66a.58.58,0,0,1,.91-.5C224.09,411.71,230.48,417.21,236.7,432.27Z"/><path class="cls-18" d="M224.1,415.27A16,16,0,0,1,226,417.7l4.38,6.05c1.64,2.25,3.12,4.3,4.39,6a17.91,17.91,0,0,1,1.77,2.55,12.4,12.4,0,0,1-2.13-2.26c-1.23-1.47-2.86-3.57-4.56-5.94s-3.19-4.56-4.23-6.17A13.25,13.25,0,0,1,224.1,415.27Z"/><path class="cls-18" d="M253.37,468.17s-16-7.15-17.11-20.66a.58.58,0,0,1,.87-.55C239.53,448.41,246.25,453.51,253.37,468.17Z"/><path class="cls-18" d="M239.76,452a16.42,16.42,0,0,1,2.08,2.31l4.73,5.77,4.75,5.76a16.3,16.3,0,0,1,1.92,2.44,13.3,13.3,0,0,1-2.26-2.13c-1.32-1.39-3.07-3.39-4.92-5.65s-3.46-4.36-4.59-5.91A13.69,13.69,0,0,1,239.76,452Z"/><path class="cls-18" d="M244.17,508.21s-11-13.65-5.83-26.18a.58.58,0,0,1,1-.1C240.85,484.32,244.51,491.91,244.17,508.21Z"/><path class="cls-18" d="M239.43,487.58a15.65,15.65,0,0,1,.8,3c.46,2.1,1,4.57,1.59,7.3s1.14,5.19,1.61,7.29a17.36,17.36,0,0,1,.6,3,12.67,12.67,0,0,1-1.05-2.92c-.54-1.85-1.19-4.41-1.8-7.27s-1.1-5.46-1.4-7.35A13.66,13.66,0,0,1,239.43,487.58Z"/><path class="cls-18" d="M255.05,555.33s-15.87-7.42-16.77-20.94a.58.58,0,0,1,.88-.54C241.54,535.34,248.17,540.55,255.05,555.33Z"/><path class="cls-18" d="M241.71,538.9a15.2,15.2,0,0,1,2,2.34l4.63,5.85,4.66,5.84a15.71,15.71,0,0,1,1.87,2.47,13.51,13.51,0,0,1-2.23-2.17c-1.29-1.42-3-3.44-4.81-5.73s-3.39-4.42-4.49-6A13.6,13.6,0,0,1,241.71,538.9Z"/><path class="cls-18" d="M286.65,486.47a1.81,1.81,0,0,1,0,.39c0,.31,0,.67,0,1.12-.05,1-.11,2.47-.19,4.25-.2,3.73-.49,8.93-.83,15.16v0c-1.14,6.33-4.36,13.36-8.7,20.18-3.18,5-6.51,9.59-9.39,13.84a99.66,99.66,0,0,0-7,11.63,49.45,49.45,0,0,0-3.29,8.54c-.28,1-.49,1.86-.61,2.42a4.29,4.29,0,0,1-.23.84,4.26,4.26,0,0,1,.1-.86c.08-.57.25-1.4.49-2.46a44.83,44.83,0,0,1,3.13-8.68A92.54,92.54,0,0,1,267,541.11c2.86-4.28,6.17-8.85,9.34-13.85,4.31-6.79,7.52-13.7,8.69-19.94v0c.44-6.22.8-11.42,1.06-15.15.15-1.77.26-3.19.35-4.24,0-.45.08-.81.11-1.12S286.63,486.47,286.65,486.47Z"/><path class="cls-18" d="M277.2,526.3s6.72-16.17-1.73-26.76a.58.58,0,0,0-1,.19C273.7,502.44,272.32,510.75,277.2,526.3Z"/><path class="cls-18" d="M276,505.17a14.44,14.44,0,0,1,.53,3.06c.24,1.9.5,4.54.71,7.45s.31,5.56.31,7.48a12.2,12.2,0,0,1-.19,3.1,17.26,17.26,0,0,1-.27-3.08c-.15-2.15-.32-4.67-.5-7.45s-.37-5.31-.52-7.45A15.27,15.27,0,0,1,276,505.17Z"/><g class="cls-3"><path class="cls-18" d="M277.2,526.3s6.72-16.17-1.73-26.76a.58.58,0,0,0-1,.19C273.7,502.44,272.32,510.75,277.2,526.3Z"/></g><path class="cls-18" d="M256.39,565.28s5.38-16.67-3.9-26.54a.57.57,0,0,0-1,.28C251,541.77,250.26,550.17,256.39,565.28Z"/><path class="cls-18" d="M253.46,544.32a13.67,13.67,0,0,1,.78,3c.39,1.88.87,4.48,1.31,7.37s.76,5.52.91,7.43a13.65,13.65,0,0,1,.07,3.11,16.45,16.45,0,0,1-.53-3.06c-.31-2.13-.69-4.62-1.1-7.38s-.8-5.26-1.12-7.39A15.4,15.4,0,0,1,253.46,544.32Z"/><g class="cls-3"><path class="cls-18" d="M256.39,565.28s5.38-16.67-3.9-26.54a.57.57,0,0,0-1,.28C251,541.77,250.26,550.17,256.39,565.28Z"/></g><path class="cls-18" d="M285.76,506.54s14.34-10,12.9-23.52a.59.59,0,0,0-1-.38C295.61,484.52,290,490.8,285.76,506.54Z"/><g class="cls-3"><path class="cls-18" d="M285.76,506.54s14.34-10,12.9-23.52a.59.59,0,0,0-1-.38C295.61,484.52,290,490.8,285.76,506.54Z"/></g><path class="cls-18" d="M296.06,488.05a13.83,13.83,0,0,1-1.19,2.87c-.82,1.73-2,4.09-3.39,6.67s-2.73,4.86-3.76,6.47a12.75,12.75,0,0,1-1.82,2.52,17.37,17.37,0,0,1,1.42-2.75l3.58-6.56,3.56-6.56A15.22,15.22,0,0,1,296.06,488.05Z"/><path class="cls-18" d="M262.17,548.76s17.31-2.7,21.94-15.44a.57.57,0,0,0-.69-.76C280.72,533.33,272.9,536.48,262.17,548.76Z"/><g class="cls-3"><path class="cls-18" d="M262.17,548.76s17.31-2.7,21.94-15.44a.57.57,0,0,0-.69-.76C280.72,533.33,272.9,536.48,262.17,548.76Z"/></g><path class="cls-18" d="M279.57,536.7a14.88,14.88,0,0,1-2.34,2c-1.49,1.19-3.6,2.79-6,4.49s-4.58,3.16-6.22,4.16a12.84,12.84,0,0,1-2.75,1.46,16.17,16.17,0,0,1,2.49-1.85l6.1-4.31,6.09-4.32A14.81,14.81,0,0,1,279.57,536.7Z"/><polygon class="cls-2" points="241.7 580.6 246.66 613.16 266.49 613.13 273.16 580.6 241.7 580.6"/><path class="cls-4" d="M270.26,593.16s-.05.05-.17.12a3.86,3.86,0,0,1-.52.3,7.3,7.3,0,0,1-2.22.66,8.12,8.12,0,0,1-3.64-.34,7.61,7.61,0,0,1-3.92-2.85,5.52,5.52,0,0,1-.92-2.72,3,3,0,0,1,1.35-2.8,3.2,3.2,0,0,1,3.32.28,4.84,4.84,0,0,1,1.9,3,12.81,12.81,0,0,1,.24,3.67,12.17,12.17,0,0,1-.8,3.76,8.21,8.21,0,0,1-2.3,3.28,6.35,6.35,0,0,1-3.81,1.59,6.94,6.94,0,0,1-4-1.15,11.65,11.65,0,0,1-3-2.67,6.54,6.54,0,0,1-1.5-3.58,4.14,4.14,0,0,1,1.41-3.45,3.23,3.23,0,0,1,3.51-.21,3.75,3.75,0,0,1,2,2.65,5.1,5.1,0,0,1-2.51,5.15,7,7,0,0,1-4.79.7,11,11,0,0,1-3.41-1.34,18,18,0,0,1-1.9-1.29,4.29,4.29,0,0,1-.62-.52,4.41,4.41,0,0,1,.68.43c.44.29,1.08.72,1.95,1.2a11.18,11.18,0,0,0,3.36,1.22,6.72,6.72,0,0,0,4.53-.73,4.68,4.68,0,0,0,2.26-4.73,3.29,3.29,0,0,0-1.8-2.32,2.73,2.73,0,0,0-3,.18,3.63,3.63,0,0,0-1.2,3,6,6,0,0,0,1.4,3.28,11.43,11.43,0,0,0,2.82,2.54,6.45,6.45,0,0,0,3.66,1.07,5.91,5.91,0,0,0,3.49-1.46,7.85,7.85,0,0,0,2.16-3.07,11.79,11.79,0,0,0,.78-3.59,12.48,12.48,0,0,0-.22-3.53,4.38,4.38,0,0,0-1.68-2.71,2.78,2.78,0,0,0-2.83-.28,2.56,2.56,0,0,0-1.15,2.39,5.16,5.16,0,0,0,.82,2.53,7.36,7.36,0,0,0,3.7,2.77,8,8,0,0,0,3.52.42A9.17,9.17,0,0,0,270.26,593.16Z"/><path class="cls-15" d="M617.35,326.14v-5.95L613,318.47l-.92-6.08,4.09-3.17-2.77-5.56-5.29,1.46-4-3.31,1.19-6.21-5.69-2.51-2.91,4.36-5.15-.26-2.51-5.42-6.08.66-.53,6.08-4.76,2.38L573.21,298l-4.5,5,3.44,4.23-2.38,5h-6.08l-.66,6.21,5.15,2,1.06,5.42L565,329.44l2.58,5.55,5.48-1.72,4,4-1.32,5.68,5.42,2.65,3.17-4h6l2,5,6.61-.79v-5.42l4.62-2.77,4.5,3,4.49-4.5-2.77-4.49,2.24-5.16Zm-27.16,5.22a12.16,12.16,0,1,1,12.16-12.16A12.16,12.16,0,0,1,590.19,331.36Z"/><path class="cls-15" d="M596.62,318.81s0-.57-.28-1.55a6.44,6.44,0,0,0-2.35-3.44,6.23,6.23,0,0,0-2.64-1.15,6.31,6.31,0,0,0-3.28.29,6.11,6.11,0,0,0-2.89,2.17,6.24,6.24,0,0,0,2.89,9.54,6.25,6.25,0,0,0,5.92-.86,6.49,6.49,0,0,0,2.35-3.45c.26-1,.23-1.55.28-1.55a1.34,1.34,0,0,1,0,.42,4.94,4.94,0,0,1-.14,1.17,6.51,6.51,0,0,1-5.09,4.9,6.65,6.65,0,0,1-3.48-.26,6.53,6.53,0,0,1-3.09-2.3,6.62,6.62,0,0,1,0-7.85,6.53,6.53,0,0,1,3.09-2.3,6.65,6.65,0,0,1,3.48-.27,6.51,6.51,0,0,1,2.76,1.26,6.4,6.4,0,0,1,2.33,3.64,5.06,5.06,0,0,1,.14,1.18A1.3,1.3,0,0,1,596.62,318.81Z"/><path class="cls-15" d="M608.38,310a55.68,55.68,0,0,1-6.09,3.31A56.78,56.78,0,0,1,596,316.2a56.6,56.6,0,0,1,6.1-3.32A59.16,59.16,0,0,1,608.38,310Z"/><path class="cls-15" d="M603,331.38c-.1.08-1.8-1.88-4.12-4.07s-4.35-3.81-4.27-3.91a6,6,0,0,1,1.43.93,35.48,35.48,0,0,1,3.13,2.67,33.79,33.79,0,0,1,2.82,3A6.13,6.13,0,0,1,603,331.38Z"/><path class="cls-15" d="M589.59,325.32a22.81,22.81,0,0,1-1.13,5,22.4,22.4,0,0,1-1.85,4.83c-.11,0,.63-2.23,1.44-4.95A51.12,51.12,0,0,1,589.59,325.32Z"/><path class="cls-15" d="M584.26,321.4a27.37,27.37,0,0,1-4.2,2.58,29.32,29.32,0,0,1-4.41,2.21,28,28,0,0,1,4.2-2.58A29.86,29.86,0,0,1,584.26,321.4Z"/><path class="cls-15" d="M593.78,303a27.9,27.9,0,0,1-.85,4.71,27.27,27.27,0,0,1-1.26,4.61,26.91,26.91,0,0,1,.85-4.71A26.52,26.52,0,0,1,593.78,303Z"/><path class="cls-15" d="M585.46,314.69a16.75,16.75,0,0,1-3.23-2,17.16,17.16,0,0,1-3-2.38,18.17,18.17,0,0,1,3.23,2A17.91,17.91,0,0,1,585.46,314.69Z"/><path class="cls-15" d="M595.21,318.81a5,5,0,1,1-5-5A5,5,0,0,1,595.21,318.81Z"/><path class="cls-15" d="M592.27,320.05a8.46,8.46,0,0,0-1.71-2,9.13,9.13,0,0,0-2.45-1s.31-.12.83-.07a4.11,4.11,0,0,1,1.87.74,4,4,0,0,1,1.27,1.55C592.3,319.72,592.32,320,592.27,320.05Z"/><path class="cls-15" d="M592,316.5c.06.12-.91.66-1.77,1.69s-1.23,2.07-1.35,2a3.52,3.52,0,0,1,1-2.3A3.57,3.57,0,0,1,592,316.5Z"/><path class="cls-15" d="M589.88,255.24l-4-7-6.3.93-5.2-6.54,2.68-6.5-7-4.67-5.24,5.29-6.91-1.21-2.8-8.12-8.39.89-.48,7.1-6.25,3.18-6.62-4.69-6.71,4.89,3.49,7.52-4,6-7.26-.39-1.89,9,6.9,2.66.6,7.52-7.16,4.11,3.42,7.77,7.41-1.16,4.91,5.67-2.57,7.07,6.79,4.79,5.3-5.73,7.35,2,2.29,7.58,8.17-.55,1-6.81,7-4,5.73,4.58,7.25-5.4-3.67-6.39,3.58-6.39,7.34.54,2.26-8.33L584.6,267l-.84-7.59Zm-28.46,24.51a16.51,16.51,0,1,1,6.09-22.54A16.51,16.51,0,0,1,561.42,279.75Z"/><path class="cls-15" d="M560.51,260.63a19.71,19.71,0,0,0-1.36-1.65,8.67,8.67,0,0,0-5.11-2.5,8.44,8.44,0,0,0-3.92.43,8.53,8.53,0,0,0-3.7,2.57,7.74,7.74,0,0,0-1.29,2.08,8.2,8.2,0,0,0-.66,2.47,8.49,8.49,0,0,0,5,8.74,8.42,8.42,0,0,0,4.91.61,8.57,8.57,0,0,0,4.09-1.9,8.4,8.4,0,0,0,2.34-3.17,8.66,8.66,0,0,0,.42-5.67,18.37,18.37,0,0,0-.74-2,6.92,6.92,0,0,1,.9,2,8.8,8.8,0,0,1-2.69,9.15,8.87,8.87,0,0,1-4.25,2,8.41,8.41,0,0,1-2.56.08,8.24,8.24,0,0,1-2.59-.7,8.86,8.86,0,0,1-5.26-9.17,8,8,0,0,1,.7-2.58,8.35,8.35,0,0,1,1.36-2.18,9,9,0,0,1,3.88-2.65,8.82,8.82,0,0,1,9.27,2.29A7,7,0,0,1,560.51,260.63Z"/><path class="cls-15" d="M568.36,242.24c.1.07-2.14,3.64-5,8S558.11,258,558,258s2.14-3.64,5-8S568.27,242.18,568.36,242.24Z"/><path class="cls-15" d="M576.48,271.14a13.8,13.8,0,0,1-2.23-.61c-1.36-.42-3.25-1-5.36-1.48s-4-.89-5.43-1.16a15.34,15.34,0,0,1-2.26-.47,10.12,10.12,0,0,1,2.31.18,50.93,50.93,0,0,1,5.48,1,52.86,52.86,0,0,1,5.35,1.6A11.68,11.68,0,0,1,576.48,271.14Z"/><path class="cls-15" d="M556.62,273.05a8.88,8.88,0,0,1,.72,1.93c.38,1.21.85,2.91,1.29,4.79s.76,3.62,1,4.87a8.52,8.52,0,0,1,.21,2.05,11.28,11.28,0,0,1-.5-2c-.27-1.24-.64-2.95-1.07-4.83s-.86-3.58-1.17-4.81A12.51,12.51,0,0,1,556.62,273.05Z"/><path class="cls-15" d="M547.7,272a51.82,51.82,0,0,1-3.27,5.84,54.64,54.64,0,0,1-3.63,5.62,50,50,0,0,1,3.27-5.84A54.64,54.64,0,0,1,547.7,272Z"/><path class="cls-15" d="M546.44,243.89a49.53,49.53,0,0,1,2.11,6.14,51.09,51.09,0,0,1,1.71,6.26,51.26,51.26,0,0,1-2.12-6.14A50.4,50.4,0,0,1,546.44,243.89Z"/><path class="cls-15" d="M544.57,263.33a31.33,31.33,0,0,1-5.16-.28,32.51,32.51,0,0,1-5.12-.7,63.3,63.3,0,0,1,10.28,1Z"/><circle class="cls-15" cx="552.93" cy="264.98" r="6.81" transform="translate(-56.72 199.63) rotate(-19.49)"/><path class="cls-15" d="M556.22,265a7.09,7.09,0,0,0-7-.75s.3-.32,1-.59a5.57,5.57,0,0,1,2.67-.37,5.66,5.66,0,0,1,2.53.93C556,264.65,556.26,265,556.22,265Z"/><path class="cls-15" d="M553.49,261a25.08,25.08,0,0,0-1,3.17,21.44,21.44,0,0,0-.14,3.33,5.42,5.42,0,0,1-.28-3.4A5.56,5.56,0,0,1,553.49,261Z"/><path class="cls-15" d="M616.47,275.1l-1.38-2.41-2.16.32-1.78-2.24.92-2.24-2.42-1.6-1.8,1.82-2.37-.42-1-2.79-2.88.31-.16,2.44-2.15,1.09-2.27-1.61-2.3,1.68L596,272l-1.37,2.07-2.49-.14-.65,3.08,2.37.91.2,2.58-2.45,1.41,1.17,2.67,2.55-.4,1.68,2-.88,2.42,2.33,1.65,1.82-2,2.52.68.79,2.61,2.8-.19.36-2.34,2.41-1.38,2,1.57,2.48-1.85-1.25-2.2,1.22-2.19,2.53.18.77-2.86-2.17-1.17-.28-2.6Zm-9.77,8.41a5.67,5.67,0,1,1,2.1-7.74A5.65,5.65,0,0,1,606.7,283.51Z"/><path class="cls-15" d="M606.39,277s-.17-.21-.5-.53a3,3,0,0,0-1.73-.8,2.87,2.87,0,0,0-2.51,1,2.82,2.82,0,1,0,4.76,2.92,3,3,0,0,0,.19-1.9c-.11-.45-.24-.68-.21-.7a1.43,1.43,0,0,1,.37.66,3,3,0,0,1-.07,2.05,3.15,3.15,0,0,1-2.35,1.93,3.18,3.18,0,0,1-3-5.21,3.15,3.15,0,0,1,2.84-1.06,3.07,3.07,0,0,1,1.81,1A1.5,1.5,0,0,1,606.39,277Z"/><path class="cls-15" d="M609.09,270.64a12.59,12.59,0,0,1-1.6,2.81,13.23,13.23,0,0,1-2,2.59,11.85,11.85,0,0,1,1.6-2.82A12.2,12.2,0,0,1,609.09,270.64Z"/><path class="cls-15" d="M611.87,280.56a14.65,14.65,0,0,1-2.63-.58,14.17,14.17,0,0,1-2.61-.7,6.55,6.55,0,0,1,2.71.28A6.35,6.35,0,0,1,611.87,280.56Z"/><path class="cls-15" d="M605.06,281.21a6.09,6.09,0,0,1,.82,2.28,6,6,0,0,1,.27,2.4,8.23,8.23,0,0,1-.68-2.31A8.44,8.44,0,0,1,605.06,281.21Z"/><path class="cls-15" d="M602,280.87a13,13,0,0,1-2.37,3.93,6.51,6.51,0,0,1,1-2.08A6.31,6.31,0,0,1,602,280.87Z"/><path class="cls-15" d="M601.56,271.2a6.05,6.05,0,0,1,.86,2.07,5.81,5.81,0,0,1,.45,2.19,6.16,6.16,0,0,1-.85-2.07A6,6,0,0,1,601.56,271.2Z"/><path class="cls-15" d="M600.92,277.87a3.8,3.8,0,0,1-1.78.05,4.12,4.12,0,0,1-1.75-.38,3.76,3.76,0,0,1,1.79,0A4,4,0,0,1,600.92,277.87Z"/><path class="cls-15" d="M605.82,277.28a2.34,2.34,0,1,1-3.19-.87A2.34,2.34,0,0,1,605.82,277.28Z"/><path class="cls-15" d="M604.92,278.46c-.08.09-.54-.24-1.17-.3s-1.15.14-1.22,0,.45-.55,1.26-.47S605,278.39,604.92,278.46Z"/><path class="cls-15" d="M604,277.09c.09.07-.12.53-.22,1.11s-.07,1.09-.19,1.12-.35-.5-.23-1.19S603.9,277,604,277.09Z"/></svg>