<svg id="a961523d-29d3-4ecf-95d5-8e7249ba799d" data-name="Layer 1" xmlns="http://www.w3.org/2000/svg" xmlns:xlink="http://www.w3.org/1999/xlink" viewBox="0 0 1980 780"><defs><linearGradient id="a0893d61-3628-4142-ac3c-05f66972b5b1" x1="1046.66" y1="393.92" x2="1979.27" y2="393.92" gradientUnits="userSpaceOnUse"><stop offset="0" stop-color="#4aa8b0"/><stop offset="0.02" stop-color="#4faab3"/><stop offset="0.17" stop-color="#77bdc7"/><stop offset="0.32" stop-color="#99ccd8"/><stop offset="0.48" stop-color="#b2d7e4"/><stop offset="0.64" stop-color="#c5dfee"/><stop offset="0.81" stop-color="#cfe4f3"/><stop offset="1" stop-color="#d3e6f5"/></linearGradient><linearGradient id="f64143bc-9517-491d-896b-a12948016623" x1="1081.45" y1="407.72" x2="1978.53" y2="407.72" xlink:href="#a0893d61-3628-4142-ac3c-05f66972b5b1"/><linearGradient id="bbf9cb84-c4e0-42c3-baf4-fb181c06dd71" x1="1664.09" y1="647.52" x2="1848.48" y2="647.52" gradientUnits="userSpaceOnUse"><stop offset="0" stop-color="#4aa8b0"/><stop offset="0.68" stop-color="#3479bd"/></linearGradient><linearGradient id="b1061f15-18a6-4461-b3ff-5ae49653e1ab" x1="1396.87" y1="625.8" x2="1621.69" y2="625.8" xlink:href="#bbf9cb84-c4e0-42c3-baf4-fb181c06dd71"/><linearGradient id="fb00c8c7-a59d-4e4a-892a-33fa00171ac2" x1="0.73" y1="669.74" x2="1580.07" y2="669.74" gradientUnits="userSpaceOnUse"><stop offset="0.31" stop-color="#4aa8b0"/><stop offset="0.42" stop-color="#439ab4"/><stop offset="0.6" stop-color="#3b87b9"/><stop offset="0.79" stop-color="#367dbc"/><stop offset="1" stop-color="#3479bd"/></linearGradient></defs><title>contact us</title><rect x="0.73" y="0.92" width="1978.54" height="780" fill="#e1e2e2"/><path d="M1979.27,3.92v780H1046.66c.41-23.49.81-46.94.81-46.95.3-17.69-1.72-33.39,2.48-51.32,1-4.33,2.19-8.6,3.51-12.81,13.42-42.82,42.26-80,74.55-110.43a482.93,482.93,0,0,1,60.56-48c6.22-4.22,12.83-8.25,19.61-12.26l.06,0c11.76-7,24-13.83,35.65-21.43l0,0c10.5-6.86,20.47-14.3,29.07-22.91,22.83-22.87,36.38-58.29,37-90.27a183.85,183.85,0,0,1,4.08-35.54c8.57-39.56,30.8-74.88,64.8-97.38,37.39-24.74,82-33.41,126.91-28.25,34.21,3.94,75.12,19.71,109.4,10.49a66,66,0,0,0,30.1-17.39c28.83-28.77,46.1-71.46,60.3-108.65,0,0,5.18-16.35,18.65-36.59,10.91-16.4,27.26-35.37,50.71-50.25Z" opacity="0.43" fill="url(#a0893d61-3628-4142-ac3c-05f66972b5b1)"/><path d="M1082.85,697.88c.27-15.44-1.49-29.15,2.17-44.8,9.86-42.12,37.18-78.4,68.15-107.59A421.71,421.71,0,0,1,1206,503.6c23.43-15.88,53.1-28.81,73.72-49.47,19.93-20,31.75-50.89,32.27-78.81a160.23,160.23,0,0,1,3.56-31c7.48-34.54,26.89-65.37,56.57-85,32.64-21.59,71.58-29.17,110.79-24.66s88.74,26.94,121.78-6c25.17-25.11,40.25-62.38,52.64-94.84,0,0,41.45-130.68,199.13-90.72,0,0,61.56,7.56,122,78.84V780H1081.45Z" fill="url(#f64143bc-9517-491d-896b-a12948016623)"/><circle cx="1624.08" cy="278.74" r="51.85" fill="#4aa8b0" stroke="#4aa8b0" stroke-miterlimit="10" stroke-width="4"/><path d="M1745.6,652c8.63-7.22,17.61-14.26,26.91-21.36,28.5-21.79,59.79-49.38,61.2-88-.6,16.33,11.08,39.51,13.18,57.14,2.63,22,2.34,44.81-3.53,66.35-6.13,22.49-40,62.69-32.84,86.33H1664.09c2.49,0,18.34-31.48,20.23-34.3C1701.91,691.79,1722.53,671.25,1745.6,652Z" fill="url(#bbf9cb84-c4e0-42c3-baf4-fb181c06dd71)"/><path d="M1607.77,749.78c80-239.7-210.9-248.87-210.9-248.87,25.15,35.34,11.38,49.83,13.86,89.31,1.28,20.39,9.69,39.34,18.65,57.4,6.66,13.4,12.07,28.5,21.42,40.72,9.75,12.75,24.67,17.39,39,23.06,26,10.31,52.34,20.14,78.92,29C1571.59,741.36,1606.31,754.14,1607.77,749.78Z" fill="url(#b1061f15-18a6-4461-b3ff-5ae49653e1ab)"/><path d="M1653.5,531.56s74.74-6.48,88.14,72.52c0,0,12.09,47-8.21,103.6,0,0-6.91,27.63-28.52,34.54,0,0-11.23,5.18-11.23,12.95L1628.44,753v-7.77l-75.6-.43V734L1539,732.72s-3.88-45.76,5.62-64.32c0,0-54.44,57.84-68.69,54L1470.32,652s19.87-18.14,29.38-35.4c0,0,41-60,62.64-68.21a93.33,93.33,0,0,1,36.31-10.74C1619.8,535.87,1653.5,531.56,1653.5,531.56Z" fill="#d32f53"/><path d="M1598.65,537.65l-10,176.51,57.89-19s6.91-165.33,6.91-163.6S1598.65,537.65,1598.65,537.65Z" fill="#fff"/><ellipse cx="1551.11" cy="454.29" rx="18.36" ry="26.12" fill="#dc4d65"/><path d="M1579.09,399.85a58.9,58.9,0,0,0-5.91,6.55c-8.79,11.34-11.31,27.82-12.34,41.74a126.28,126.28,0,0,0,1,27.27,123.84,123.84,0,0,0,2.83,13.89c.8,3,.59,7.37,2.53,10,4.31,5.76,18,8.7,24.36,11.42a17.7,17.7,0,0,1,6.18,3.74c2.74,2.94,3.14,7.36,2.65,11.34s-1.72,7.88-1.7,11.89c8.94,3.19,18.4,5.5,27.88,4.85s19-4.58,24.92-12a51.78,51.78,0,0,1-4-48.74c2.74-6.12,6.69-11.7,8.8-18.06a33.83,33.83,0,0,0,.54-19.35c-3.36-12.42-13.46-21.81-23.87-29.38-5.94-4.32-12.15-8.29-17.93-12.82-4.73-3.71-8.23-10.45-14.58-11.66C1593,389,1585.09,394.11,1579.09,399.85Z" fill="#f0b943"/><path d="M1612.6,500.91s23.62-6.36,33.13-18.57" fill="none" stroke="#231f20" stroke-miterlimit="10" stroke-width="3"/><path d="M1580.63,403.06s20.74,38.66,62.22,29.11c0,0-8.64-3.21-12.68-20.48,3.29,4.18,6.68,8.29,10.21,12.27,11.53,13,5.79,28.66,4,44.07-1.86,15.56-5,36,2,50.72,0,0,55.88,9.21,51.27-51.23,0,0,13.25,5.76,2.88,30.51.63-1.5,3.66-3.43,4.75-4.73a43.23,43.23,0,0,0,8.07-15.15c6.28-20.68-3-41.41-13.28-59.08-8.86-15.26-15.32-33.92-28.82-45.83-12.59-11.11-28.79-17.48-45.68-16.4-17.89,1.14-41.31,8.16-55.8,19a56.27,56.27,0,0,0-18.61,23.95c-4.36,10.83-4,22.43-4.1,33.88-.07,5.5.4,11.22-.84,16.63-1.47,6.46-6.26,10.68-7.21,17.64a100.35,100.35,0,0,0-1,16.34c.15,5.48.66,11.5,3.22,16.46a16,16,0,0,0,4.47,5.68c.67.5,6.24,2.49,6.26,2.51-5.77-7.29-5.39-33.56,5.61-35.85-.53.11,0,14.54.23,16.32a44.47,44.47,0,0,0,4.5,15.59c7.33,14,22.47,18.91,37.47,18.91C1599.64,523.93,1531.67,475,1580.63,403.06Z" fill="#192f35"/><ellipse cx="1664.09" cy="456.23" rx="18.36" ry="26.12" fill="#dc4d65"/><path d="M1664.09,432.51c-3.24-34.34-21.39-56.79-46.87-60.13-37.11-4.87-71.77,29-73.8,62.44" fill="none" stroke="#dc4d65" stroke-miterlimit="10" stroke-width="4"/><path d="M1609.72,505.41c5.79,0,5.8-9,0-9s-5.8,9,0,9Z" fill="#231f20"/><polygon points="1476.76 744.39 1628.44 745.24 1628.44 755.17 1477.52 755.17 1476.76 744.39" fill="#d3e6f5"/><polygon points="1199.29 582.64 1461.39 582.64 1477.52 752.43 1216.71 752.43 1199.29 582.64" fill="#d3e6f5"/><line x1="1122.1" y1="755.17" x2="1941.24" y2="755.17" fill="none" stroke="#231f20" stroke-miterlimit="10" stroke-width="10"/><ellipse cx="1332.07" cy="670.99" rx="25.06" ry="19.86" fill="#b4daf4"/><path d="M1357.13,582.64s-24.2-102.81,39.74-192.42" fill="none" stroke="#4aa8b0" stroke-miterlimit="10" stroke-width="4"/><path d="M1450.45,338.59s57-48.34,126.15-43.16" fill="none" stroke="#4aa8b0" stroke-miterlimit="10" stroke-width="4"/><path d="M1658,295s67.23-20.34,164,61.68" fill="none" stroke="#4aa8b0" stroke-miterlimit="10" stroke-width="4"/><path d="M1894.58,440.33s63.94,139.57-51.85,227.21" fill="none" stroke="#4aa8b0" stroke-miterlimit="10" stroke-width="4"/><ellipse cx="1870.93" cy="393.92" rx="60.42" ry="60.37" fill="#4aa8b0" stroke="#4aa8b0" stroke-miterlimit="10" stroke-width="4"/><ellipse cx="1412.17" cy="356.72" rx="47.78" ry="47.74" fill="#4aa8b0" stroke="#4aa8b0" stroke-miterlimit="10" stroke-width="4"/><path d="M1391.69,358.36c3.22,0,3.22-5,0-5s-3.22,5,0,5Z" fill="#fff"/><path d="M1409,359.22c3.22,0,3.22-5,0-5s-3.22,5,0,5Z" fill="#fff"/><path d="M1426.25,360.08c3.22,0,3.22-5,0-5s-3.22,5,0,5Z" fill="#fff"/><path d="M1622.23,304.12c-3.54-4.71-7.06-9.48-9.61-14.79-5-10.38-5.5-22.76,5.94-28.91,8.45-4.55,16.81,4.19,18.09,12.47.92,5.86-.8,11.89-3.67,17.08S1626.17,299.65,1622.23,304.12Z" fill="#fff"/><path d="M1623.08,284.64c7.08,0,7.09-11,0-11s-7.09,11,0,11Z" fill="#4aa8b0"/><path d="M1855.75,361.47v23s5.19,3.45,15.55,0v18.15s-11.52-3.76-15.55,3.72v21.08c0,1.11,12.4-1.36,13.18-1.63,18.76-6.69,21.71-40.63,11.06-55a27.39,27.39,0,0,0-9.55-8.61C1869,361.49,1855.75,358.33,1855.75,361.47Z" fill="#fdfefe"/><path d="M1580.07,776.92H.73V592.19c9.66-7.21,115.14-80,295.13,33.43,48.87,30.81,101.85,63.36,161.81,69.89s93.95-26.72,141.07-56.33C709.44,569.62,839.52,528.76,958.18,603c32.29,20.2,62.52,43.44,95.28,62.85,6,3.57,12.15,7,18.39,10.29q5.45,2.86,11,5.24c40.81,17.61,84.29,16.2,128.42,10.64,34.48-4.35,69.36-11.23,103.66-13.56,9.3-.64,18.56-.94,27.76-.76,2.43,0,4.86.11,7.3.2,41.7,1.4,84.34,8.1,123.29,22.6l1.55.58q9.1,3.43,17.92,7.47a244.4,244.4,0,0,1,48.58,29.21q6.38,5,12.41,10.42A208.4,208.4,0,0,1,1577,773C1578.05,774.29,1579.07,775.59,1580.07,776.92Z" stroke="#4aa8b0" stroke-miterlimit="10" stroke-width="4" fill="url(#fb00c8c7-a59d-4e4a-892a-33fa00171ac2)"/><path d="M160.72,266.47l-19.16,72.12h-9.15l-15.64-58.74-15.69,58.74H91.92L72.76,266.47h9.51l15,56.84,15-56.84h8.9l15,56.84,15-56.84Z" fill="#192f35"/><path d="M218.71,266.47v8.45H180V295h29.62v8.4H180V330.2h38.72v8.39H171V266.47Z" fill="#192f35"/><path d="M363.91,266.47l-19.16,72.12h-9.16L320,279.85l-15.69,58.74h-9.15l-19.17-72.12h9.51l15,56.84,15-56.84h8.91l15,56.84,15-56.84Z" fill="#192f35"/><path d="M394.38,266.47l28.77,72.12h-9L408.72,325H371l-5.43,13.57h-9l28.77-72.12Zm-20.11,50.25h31.18l-15.59-39.53Z" fill="#192f35"/><path d="M492,266.52v72.07h-5.28l-45.81-56.22v56.22h-9V266.52h5.23L483,322.8V266.52Z" fill="#192f35"/><path d="M563.22,266.47v8.4H536.46v63.72h-9V274.87H500.75v-8.4Z" fill="#192f35"/><path d="M681.51,266.47v8.4H654.75v63.72h-9V274.87H619v-8.4Z" fill="#192f35"/><path d="M714.4,266.47c21.67,0,36.56,17,36.56,36.06,0,21.38-17.25,36.06-36.56,36.06a36.06,36.06,0,0,1-36.51-36.06C677.89,281.56,694.94,266.47,714.4,266.47Zm0,63.88c15.59,0,27.26-12.38,27.26-27.82s-11.87-27.76-27.26-27.76-27.26,12.32-27.26,27.76C687.14,317.52,698.66,330.35,714.4,330.35Z" fill="#192f35"/><path d="M132.21,390.07V462.2h-9V427H84.38V462.2H75.43V390.07h8.95v28.47H123.2V390.07Z" fill="#192f35"/><path d="M192.86,390.07v8.45H154.13v20.07h29.63V427H154.13V453.8h38.73v8.4H145.13V390.07Z" fill="#192f35"/><path d="M235.51,390.07l28.77,72.13h-9l-5.43-13.58H212.12l-5.43,13.58h-9l28.77-72.13Zm-20.12,50.25h31.18L231,400.79Z" fill="#192f35"/><path d="M319.25,462.2l-18.56-31.89H282V462.2h-9V390.13h32.08c11.07,0,20.37,8.29,20.37,20.16,0,9.21-5.63,16.65-15.14,19.21l19.07,32.7ZM282,422.06h22.23c6.24,0,12.42-4.73,12.42-11.77,0-6.49-5.63-11.77-12.47-11.77H282Z" fill="#192f35"/><path d="M438.59,390.07v8.45H399.87v20.07h29.57V427H399.87V462.2h-9V390.07Z" fill="#192f35"/><path d="M493.11,462.2l-18.56-31.89H455.84V462.2h-8.95V390.13H479c11.06,0,20.37,8.29,20.37,20.16,0,9.21-5.64,16.65-15.14,19.21l19.06,32.7Zm-37.27-40.14h22.23c6.24,0,12.42-4.73,12.42-11.77,0-6.49-5.63-11.77-12.47-11.77H455.84Z" fill="#192f35"/><path d="M541.64,390.07c21.68,0,36.57,17,36.57,36.06,0,21.38-17.26,36.07-36.57,36.07a36.07,36.07,0,0,1-36.51-36.07C505.13,405.16,522.18,390.07,541.64,390.07Zm0,63.88c15.59,0,27.26-12.37,27.26-27.82S557,398.37,541.64,398.37s-27.26,12.33-27.26,27.76C514.38,441.12,525.9,454,541.64,454Z" fill="#192f35"/><path d="M660.74,390.13V462.2h-9v-56l-27.1,34.7-27.11-34.7v56h-9V390.13h5.23l30.88,39,30.88-39Z" fill="#192f35"/><path d="M779.48,390.13l-25.05,42.74V462.2h-9V432.82l-25-42.69h10.26L750,423.72l19.31-33.59Z" fill="#192f35"/><path d="M812.72,390.07c21.68,0,36.56,17,36.56,36.06,0,21.38-17.25,36.07-36.56,36.07a36.07,36.07,0,0,1-36.51-36.07C776.21,405.16,793.26,390.07,812.72,390.07Zm0,63.88c15.59,0,27.26-12.37,27.26-27.82s-11.87-27.76-27.26-27.76c-15.54,0-27.26,12.33-27.26,27.76C785.46,441.12,797,454,812.72,454Z" fill="#192f35"/><path d="M915,390.07v43.11c0,15.94-11.57,29-28.17,29-15.94,0-28.11-12.63-28.11-29V390.07h9v42.75c0,10.72,7.29,21,19.11,21,11.22,0,19.11-9.56,19.11-21V390.07Z" fill="#192f35"/><path d="M920,462.2a5.24,5.24,0,1,1,5.24-5.24A5.27,5.27,0,0,1,920,462.2Z" fill="#192f35"/><path d="M938.9,462.2a5.24,5.24,0,1,1,5.23-5.24A5.27,5.27,0,0,1,938.9,462.2Z" fill="#192f35"/><path d="M957.76,462.2A5.24,5.24,0,1,1,963,457,5.27,5.27,0,0,1,957.76,462.2Z" fill="#192f35"/></svg>