<?xml version="1.0" encoding="utf-8"?>
<!-- Generator: Adobe Illustrator 24.2.1, SVG Export Plug-In . SVG Version: 6.00 Build 0)  -->
<svg version="1.1" id="Layer_1" xmlns="http://www.w3.org/2000/svg" xmlns:xlink="http://www.w3.org/1999/xlink" x="0px" y="0px"
	 viewBox="0 0 1920 480" style="enable-background:new 0 0 1920 480;" xml:space="preserve">
<style type="text/css">
	.st0{fill:#FFFFFF;}
	.st1{fill:none;stroke:#DEE5F4;stroke-width:5;stroke-miterlimit:10;}
	.st2{fill:none;stroke:#DEE5F4;stroke-width:3.75;stroke-miterlimit:10;}
	.st3{fill:#F9C243;}
	.st4{fill:#243138;}
	.st5{opacity:0.3;fill:#703529;}
	.st6{opacity:0.6;fill:#FFFFFF;}
	.st7{opacity:0.1;fill:#703529;}
	.st8{opacity:0.3;}
	.st9{fill:#703529;}
	.st10{fill:#DEE5F4;}
	.st11{fill:#E38B6D;}
	.st12{fill:#F9B385;}
	.st13{fill:#142148;}
	.st14{fill:#F5887A;}
	.st15{fill:#4BA5AA;}
	.st16{fill:#427272;}
	.st17{fill:#AEBFE2;}
	.st18{fill:#164948;}
	.st19{fill:#0B2120;}
	.st20{opacity:0.15;fill:#9BB0DB;}
	.st21{opacity:0.2;fill:#AEBFE2;}
</style>
<rect class="st0" width="1920" height="480"/>
<g>
	<g>
		<path class="st1" d="M280.21,325.15h-59.13c-3.32,0-6-2.69-6-6v0c0-3.32,2.69-6,6-6h59.13c3.32,0,6.01,2.69,6.01,6l0,0
			C286.21,322.46,283.52,325.15,280.21,325.15z"/>
		<path class="st2" d="M319.84,325.03h-21.88c-3.32,0-6-2.69-6-6l0,0c0-3.32,2.69-6,6-6h21.88c3.32,0,6,2.69,6,6l0,0
			C325.85,322.34,323.16,325.03,319.84,325.03z"/>
		<path class="st1" d="M303.61,162.82h-21.88c-3.32,0-6-2.69-6-6v0c0-3.32,2.69-6,6-6h21.88c3.32,0,6,2.69,6,6v0
			C309.62,160.13,306.93,162.82,303.61,162.82z"/>
		<path class="st1" d="M343.7,162.82h-21.88c-3.32,0-6-2.69-6-6v0c0-3.32,2.69-6,6-6h21.88c3.32,0,6,2.69,6,6v0
			C349.71,160.13,347.02,162.82,343.7,162.82z"/>
		<path class="st1" d="M445.52,270.86h-21.88c-3.32,0-6-2.69-6-6l0,0c0-3.32,2.69-6,6-6h21.88c3.32,0,6,2.69,6,6l0,0
			C451.53,268.17,448.84,270.86,445.52,270.86z"/>
	</g>
	<g>
		<path class="st3" d="M847.21,66.74v1.91c0.64,0,1.36,0.17,1.85,1.46c0.53,1.42,0.55,3.66,0.07,6.3c-0.55,2.98-1.72,6.41-3.39,9.94
			c-3.45,7.26-8.81,14.51-15.29,20.74l-0.96-21.21l5.66-7.84h4.77c1.82,0,3.29-1.48,3.29-3.29v-4.47c0.03-0.04,0.15-0.2,0.51-0.41
			c1.73-1.01,2.85-1.22,3.49-1.22L847.21,66.74 M847.21,66.74c-1.22,0-2.71,0.47-4.45,1.48c-0.8,0.46-1.46,1.12-1.46,2.04v4.49
			c0,0.76-0.62,1.38-1.38,1.38h-5.75l-6.62,9.17l1.18,25.95C850.96,91.95,856.19,66.74,847.21,66.74L847.21,66.74z"/>
		<path class="st3" d="M778.77,66.74l0,1.91c0.63,0,1.75,0.21,3.49,1.22c0.36,0.21,0.48,0.37,0.51,0.41v4.47
			c0,1.82,1.48,3.29,3.29,3.29h4.77l5.66,7.84l-0.96,21.21c-6.48-6.23-11.84-13.48-15.29-20.74c-1.67-3.52-2.84-6.96-3.39-9.94
			c-0.48-2.65-0.46-4.88,0.07-6.3c0.48-1.29,1.2-1.46,1.85-1.46V66.74 M778.77,66.74c-8.98,0-3.75,25.21,18.49,44.51l1.18-25.95
			l-6.62-9.17h-5.75c-0.76,0-1.38-0.62-1.38-1.38v-4.49c0-0.92-0.66-1.58-1.46-2.04C781.47,67.21,779.99,66.74,778.77,66.74
			L778.77,66.74z"/>
		<rect x="794.27" y="157.31" class="st4" width="37.44" height="19.43"/>
		<path class="st3" d="M825.98,157.31H800v0c0-6.33,5.13-11.46,11.46-11.46h3.05C820.84,145.84,825.98,150.97,825.98,157.31
			L825.98,157.31z"/>
		<path class="st3" d="M821.07,145.84H804.9l0,0c0-3.94,3.2-7.14,7.14-7.14h1.9C817.88,138.7,821.07,141.9,821.07,145.84
			L821.07,145.84z"/>
		<path class="st3" d="M817.5,136.71l0.5,2h-10.03l0.5-2c0.67-2.65,0.67-5.32,0-7.97l-0.5-2H818l-0.5,2
			c-0.22,0.87-0.37,1.75-0.44,2.63C816.9,133.15,817.05,134.93,817.5,136.71z"/>
		<path class="st5" d="M818,126.74l-0.5,2c-0.22,0.87-0.37,1.75-0.44,2.63c-0.55-3.65-9.08-4.62-9.08-4.62H818z"/>
		<path class="st3" d="M821.07,119.6v3.94c0,0.33-0.05,0.64-0.14,0.94c-0.4,1.31-1.61,2.26-3.05,2.26h-9.79
			c-1.76,0-3.19-1.43-3.19-3.19v-3.94H821.07z"/>
		<path class="st5" d="M821.07,119.6v3.94c0,0.33-0.05,0.64-0.14,0.94c-4.32-3.97-15.29-4.09-16.03-4.09v-0.79H821.07z"/>
		<path class="st3" d="M838.1,71.94l-4.64,20.24l-5.14,22.47c-0.77,3.36-3.76,5.75-7.21,5.75h-16.25c-3.44,0-6.42-2.37-7.2-5.71
			c0-0.01,0-0.02-0.01-0.03l-9.78-42.71c-0.2-0.87,0.35-1.74,1.23-1.91c15.92-3.15,31.85-3.15,47.77,0
			C837.75,70.2,838.3,71.07,838.1,71.94z"/>
		<path class="st6" d="M802.33,84.13c0.36,2.92-0.23,5.39-1.3,5.52c-1.07,0.13-2.23-2.13-2.59-5.04c-0.36-2.92,0.23-5.39,1.3-5.52
			S801.98,81.21,802.33,84.13z"/>
		<path class="st7" d="M833.47,92.18l-5.14,22.47c-0.77,3.36-3.76,5.75-7.21,5.75h-16.25c-3.44,0-6.42-2.37-7.2-5.71
			C815.52,113.55,827.4,102.23,833.47,92.18z"/>
		<g class="st8">
			<path class="st9" d="M807.98,138.7c0.82-0.21,1.66-0.33,2.49-0.42c0.84-0.09,1.68-0.13,2.52-0.14c1.68,0,3.38,0.11,5.02,0.56
				c-0.85,0.02-1.68,0.02-2.51,0.03l-2.5,0.02C811.33,138.76,809.66,138.79,807.98,138.7z"/>
		</g>
		<g class="st8">
			<path class="st9" d="M804.9,145.84c2.68-0.36,5.38-0.5,8.08-0.55c1.35-0.01,2.7,0,4.05,0.07c1.35,0.07,2.71,0.19,4.03,0.47
				c-1.35-0.05-2.7-0.01-4.04,0l-4.04,0.06C810.3,145.93,807.61,145.96,804.9,145.84z"/>
		</g>
		<g>
			<path class="st3" d="M805.72,39.67l1.67,12.05c0.1,0.7-0.84,1.02-1.19,0.41l-6.08-10.54c-0.37-0.65-0.06-1.47,0.64-1.71l3.4-1.17
				C804.86,38.47,805.62,38.93,805.72,39.67z"/>
			<path class="st3" d="M822.54,32.46l-6.58,20.68c-0.38,1.2-2.14,1-2.23-0.26l-1.68-21.64c-0.1-1.33,1.03-2.41,2.35-2.26l6.36,0.74
				C822.08,29.87,822.94,31.19,822.54,32.46z"/>
			<path class="st3" d="M830.23,45.13l-7.85,7.49c-0.46,0.43-1.18-0.08-0.92-0.65l4.46-9.89c0.27-0.61,1.03-0.81,1.58-0.43
				l2.61,1.85C830.65,43.88,830.71,44.67,830.23,45.13z"/>
		</g>
	</g>
	<g>
		<g>
			<g>
				<path class="st10" d="M290.52,278.69l-0.44-4.95l7.9-0.7c41.01-3.63,75.52-31.35,87.9-70.62l10.11-32.05l4.74,1.5l-10.11,32.05
					c-12.99,41.19-49.18,70.27-92.2,74.07L290.52,278.69z"/>
			</g>
			<g>
				<polygon class="st10" points="398.48,200.78 396.32,177.18 380.29,195.77 376.52,192.52 400.21,165.07 403.43,200.32 				"/>
			</g>
		</g>
		<path class="st10" d="M214.6,106.69c0,0.85-0.32,1.66-0.92,2.43h-90.1c-0.35-0.77-0.53-1.58-0.53-2.43
			c0-4.52,5.25-8.18,11.73-8.18c2.06,0,3.98,0.37,5.66,1.02c0.88-6.42,9.68-11.46,20.4-11.46c11.18,0,20.26,5.48,20.48,12.27
			c3.51-1.14,7.99-1.83,12.86-1.83C205.47,98.51,214.6,102.17,214.6,106.69z"/>
		<path class="st10" d="M371.63,46.09c0,1.01-0.38,1.99-1.1,2.91H262.7c-0.41-0.92-0.63-1.89-0.63-2.91c0-5.41,6.29-9.8,14.04-9.8
			c2.46,0,4.77,0.44,6.78,1.22c1.06-7.68,11.59-13.72,24.42-13.72c13.38,0,24.25,6.55,24.51,14.69c4.2-1.37,9.56-2.19,15.4-2.19
			C360.7,36.29,371.63,40.68,371.63,46.09z"/>
	</g>
	<g>
		<g>
			<path class="st4" d="M230.11,96.1c8.17,5.09,16.83-1.49,17.78-7.08c1.41-8.32-6.16-17.9-17.78-10.79c0,0-10.07-11.77-19.85-0.12
				c0,0-16.69,8.4-7.43,23c9.24,14.56,20.89-5.27,20.89-5.27L230.11,96.1z"/>
			<path class="st11" d="M236.05,99.74c4.47,6.01,6.44,8.37,5.81,10.25c-0.63,1.88-5.1,2.03-5.1,2.03L236.05,99.74z"/>
			<polygon class="st12" points="229.1,118.3 226.54,124.7 216.63,149.49 200.64,130.56 215.73,108.25 224.74,115.02 			"/>
			<path class="st13" d="M229.1,118.3l-2.56,6.41c-3.49-3.46-6.9-7.97-8.28-9.97l6.48,0.28L229.1,118.3z"/>
			<path class="st12" d="M238.38,115.09c-0.14,3.37-0.81,6-2.46,7.17c-4.74,3.35-22.14-10.95-22.14-10.95l-1.19-20.13l24.46,1.74
				c0.05,3.23,0.4,6.87,0.73,10.46C238.16,107.57,238.53,111.7,238.38,115.09z"/>
			<path class="st4" d="M214.87,101.06c5.99,1.12,7.52-5.5,7.52-5.5c6.41-3.92,11.71,5.14,17.47,1.77l0.89-11.58l-25.36-1.3
				l-9.14,5.89l2.59,7.06L214.87,101.06z"/>
			<path class="st12" d="M218.61,101.19c-3.22-3.66-8.43-2.09-8.92,1.83c-0.5,3.93,2.75,10.55,8.01,6.71L218.61,101.19z"/>
			<path class="st14" d="M238.38,115.09c-0.51,0.15-1.06,0.23-1.62,0.23c-3.33,0-6.02-2.69-6.02-6.02c0-3.32,2.69-6.01,6.02-6.01
				c0.35,0,0.7,0.03,1.03,0.09C238.16,107.57,238.53,111.7,238.38,115.09z"/>
			<path class="st13" d="M216.42,103.8c-0.19-0.43-0.52-0.78-0.9-1.07c-0.38-0.28-0.79-0.52-1.23-0.63
				c-0.43-0.13-0.88-0.14-1.26,0.04c-0.39,0.16-0.71,0.51-0.99,0.93l-0.26-0.11c0.13-0.52,0.44-1.06,0.97-1.37
				c0.53-0.31,1.19-0.32,1.74-0.16c0.55,0.18,1.05,0.46,1.44,0.86c0.39,0.39,0.72,0.89,0.77,1.47L216.42,103.8z"/>
		</g>
		<g>
			<path class="st12" d="M239.86,164.57c5.28-6.14,5.81-14.91,7.81-16.71c3.73-3.35,2.03,6.89,2.03,6.89s2.43-6.9,8.25-8.46
				c3.82-1.02,4.5,2.53,4.17,5.5c-0.55,4.93-2.17,10.58-6.16,13.85c-1.7,1.4-3.87,2.46-5.09,4.34c-0.69,1.07-1.3,2.28-1.63,3.52
				L239.86,164.57z"/>
			<polygon class="st15" points="239.02,164.77 241.48,161.46 251.47,170.34 248.68,174.37 			"/>
			<path class="st16" d="M207.44,197.35l31.79-35.43l11.8,11.58c-8.44,19.19-19.62,31.51-37.54,40.92L207.44,197.35z"/>
			<path class="st11" d="M252.67,154.46c0.63-0.13,1.24,0.02,1.8,0.2c0.57,0.18,1.09,0.44,1.59,0.73c0.5,0.29,0.98,0.63,1.42,1.01
				c0.43,0.41,0.87,0.75,1.14,1.42l-0.34,0.13c-0.31-0.29-0.86-0.6-1.29-0.89c-0.46-0.29-0.93-0.58-1.4-0.86
				c-0.47-0.28-0.94-0.54-1.42-0.8c-0.48-0.24-0.97-0.46-1.47-0.56L252.67,154.46z"/>
			<path class="st11" d="M249.63,156.61c0.64,0.25,1.29,0.62,1.74,1.24c0.46,0.61,0.63,1.43,0.54,2.18
				c-0.09,0.75-0.39,1.43-0.81,2.01c-0.42,0.57-0.93,1.11-1.69,1.33l-0.12-0.35c0.46-0.33,0.81-0.9,1.11-1.42
				c0.29-0.54,0.5-1.11,0.58-1.68c0.08-0.57-0.02-1.12-0.28-1.64c-0.27-0.51-0.75-0.92-1.24-1.34L249.63,156.61z"/>
		</g>
		<path class="st4" d="M139.49,197.35l-33.85-9.23l0,0c0.68-2.51,3.27-3.99,5.78-3.31l24.77,6.75
			C138.69,192.25,140.17,194.84,139.49,197.35L139.49,197.35z"/>
		<g>
			<path class="st16" d="M126.42,382.37c0,0,6.92,14.73,26.83,9.99l-9.6-12.74L126.42,382.37z"/>
			<g>
				<polygon class="st12" points="133.17,380.55 126.08,396.5 133.82,408.7 143.39,400.91 147.62,383.36 				"/>
			</g>
			<g>
				<g>
					<path class="st4" d="M126.08,396.5l17.31,4.41l9.82,24.29c0.92,2.27-1.44,4.49-3.65,3.42l-30.71-14.85
						c-2.22-1.07-3.18-3.73-2.16-5.97l0.27-0.6C118.94,402.85,122.1,399.14,126.08,396.5L126.08,396.5z"/>
				</g>
				<g>
					<path class="st4" d="M126.08,396.5l17.31,4.41l9.82,24.29c0.92,2.27-1.44,4.49-3.65,3.42l-30.71-14.85
						c-2.22-1.07-3.18-3.73-2.16-5.97l0.27-0.6C118.94,402.85,122.1,399.14,126.08,396.5L126.08,396.5z"/>
				</g>
			</g>
			<g>
				
					<rect x="142.16" y="409.97" transform="matrix(0.8724 -0.4888 0.4888 0.8724 -182.186 123.0778)" class="st17" width="4.92" height="0.94"/>
				
					<rect x="144.3" y="415.35" transform="matrix(0.8719 -0.4897 0.4897 0.8719 -184.8252 125.1363)" class="st17" width="4.92" height="0.94"/>
			</g>
			<path class="st18" d="M149.46,217.97c-3.35,7.88-7.89,20-0.28,34.55c3.1,5.92,4.14,12.71,2.65,19.22l-25.41,110.62l26.83,9.99
				l54.91-160.19L149.46,217.97z"/>
		</g>
		<g>
			<path class="st18" d="M221.26,138.31c5.42,15.57,5.58,42.15-4.73,70.19l-15.89,4.53l6.39-51.94L221.26,138.31z"/>
			<path class="st18" d="M203.81,124.95l4.35-9.63c0,0,12.33,8.6,18.81,18.84l-7.55,14.22L203.81,124.95z"/>
		</g>
		<path class="st15" d="M207.02,206.45c-42.22-1.36-64.32,22.31-64.16,21.38c6.79-23.04,13.19-40.27,18.92-53.13
			c10.38-23.33,18.54-32.34,22.78-35.73c2.07-1.67,3.21-1.99,3.21-1.99l19.23-16.1c1.67,0.86,3.25,2.08,4.68,3.43
			c5.42,5.09,8.52,12.11,9.25,19.5C223.81,172.73,207.02,206.45,207.02,206.45z"/>
		<path class="st15" d="M194.83,139.88c-6.16,3.27-16.86,20.35-33.05,34.82c10.38-23.33,18.54-32.34,22.78-35.73L194.83,139.88z"/>
		<g>
			<path class="st12" d="M125.41,175.74l-6.79,9.65c0,0-0.84,3.95-2.66,5.51c0,0,0.81,4.04,3.99,5.46
				c3.63,1.62,8.11,1.53,11.01-2.61c2.9-4.14,3.28-16.43,3.28-16.43L125.41,175.74z"/>
			<path class="st15" d="M120.73,177.72c0,0.63-1.26,4.08-1.26,4.08l14.77,2.04v-6.52L120.73,177.72z"/>
			<path class="st16" d="M206.99,120.89c0,0-28.12-4.22-50.97,7.62c-3.22,1.67-6.16,3.84-8.77,6.36
				c-11.03,10.69-20.88,21.21-28.34,43.56l17.56,2.87l17.7-26.17c1.53-2.24,3.84-3.82,6.48-4.42c9.38-2.14,31.85-7.4,35.38-9.45
				L206.99,120.89z"/>
		</g>
		<g>
			<path class="st16" d="M231.64,289.1c0,0,10.58,14.09,28.09,7.01l-11.68-12.42L231.64,289.1z"/>
			<g>
				<polygon class="st12" points="238.12,285.4 231.03,301.34 238.76,313.54 248.33,305.75 252.56,288.21 				"/>
			</g>
			<g>
				<path class="st4" d="M231.03,301.34l17.31,4.41l9.82,24.29c0.92,2.27-1.44,4.49-3.65,3.42l-30.71-14.85
					c-2.22-1.07-3.18-3.73-2.16-5.97l0.27-0.6C223.89,307.7,227.05,303.99,231.03,301.34L231.03,301.34z"/>
			</g>
			<g>
				
					<rect x="247.03" y="314.38" transform="matrix(0.8724 -0.4888 0.4888 0.8724 -122.0715 162.1451)" class="st17" width="4.92" height="0.94"/>
			</g>
			<g>
				
					<rect x="249.17" y="319.76" transform="matrix(0.8719 -0.4897 0.4897 0.8719 -124.579 164.2471)" class="st17" width="4.92" height="0.94"/>
			</g>
			<path class="st18" d="M149.46,217.97c5.77-3.99,42.57-13.64,65.93-12.94c25.96,0.78,46.8,3.73,55.27,22.75
				c8.47,19.01-10.93,68.32-10.93,68.32l-28.09-7.01l6.77-45.71c0,0-35.58,4.49-52.53,4.67L149.46,217.97z"/>
			<path class="st19" d="M208.16,246.84c-2.89,0.01-5.67,0.74-8.53,1.33c-2.86,0.59-5.81,0.82-8.73,0.79
				c-2.92-0.06-5.83-0.33-8.72-0.72c-1.44-0.21-2.87-0.46-4.31-0.69c-1.42-0.29-2.85-0.57-4.27-0.88l0.07-0.36
				c1.44,0.18,2.87,0.39,4.31,0.59c1.44,0.18,2.87,0.37,4.31,0.52c2.87,0.31,5.75,0.55,8.63,0.6c2.88,0.08,5.74-0.16,8.58-0.63
				c1.42-0.23,2.84-0.53,4.3-0.73c1.46-0.19,2.93-0.24,4.39-0.18L208.16,246.84z"/>
		</g>
		<path class="st17" d="M154.51,219.5l-8.92,32.73l-1.05,3.82c-1.1,4.03-5.27,6.41-9.31,5.31l-58.43-15.93
			c-4.04-1.1-6.42-5.27-5.32-9.31l5.88-21.54l4.09-15c1.1-4.04,5.27-6.42,9.3-5.32l58.44,15.93
			C153.23,211.29,155.6,215.46,154.51,219.5z"/>
		<path class="st4" d="M100.43,207.21l5.18-19.02c0.68-2.51,3.27-3.99,5.78-3.31v0l-6.42,23.56L100.43,207.21z"/>
		<path class="st4" d="M130.07,214.01l6.12-22.45l0,0c2.51,0.68,3.99,3.27,3.31,5.78l-4.88,17.9L130.07,214.01z"/>
		<circle class="st13" cx="102.37" cy="209.06" r="4.06"/>
		<circle class="st13" cx="132.06" cy="215.63" r="4.06"/>
		<path class="st20" d="M145.59,252.23l-1.05,3.82c-1.1,4.03-5.27,6.41-9.31,5.31l-58.43-15.93c-4.04-1.1-6.42-5.27-5.32-9.31
			l7.8-28.6C77.32,234.58,119.47,252.14,145.59,252.23z"/>
	</g>
	<g>
		<polygon class="st21" points="525.26,309.51 525.26,340.79 182.01,471.52 101.39,471.52 101.39,441.43 181.29,441.43 
			181.38,424.85 181.47,408.23 261.73,408.23 261.73,375.04 341.63,375.04 341.63,342.68 421.54,342.68 421.54,309.48 		"/>
		<path class="st17" d="M340.77,375.9h-78.8c-0.88,0-1.6-0.72-1.6-1.6l0,0c0-0.88,0.72-1.6,1.6-1.6h78.8c0.88,0,1.6,0.72,1.6,1.6
			l0,0C342.37,375.18,341.65,375.9,340.77,375.9z"/>
		<path class="st17" d="M420.83,343.97h-78.8c-0.88,0-1.6-0.72-1.6-1.6l0,0c0-0.88,0.72-1.6,1.6-1.6h78.8c0.88,0,1.6,0.72,1.6,1.6
			l0,0C422.44,343.25,421.72,343.97,420.83,343.97z"/>
		<path class="st17" d="M525.31,310.34H421.39c-0.88,0-1.6-0.72-1.6-1.6l0,0c0-0.88,0.72-1.6,1.6-1.6h103.92
			c0.88,0,1.6,0.72,1.6,1.6l0,0C526.91,309.62,526.19,310.34,525.31,310.34z"/>
		<path class="st17" d="M260.8,408.9H182c-0.88,0-1.6-0.72-1.6-1.6l0,0c0-0.88,0.72-1.6,1.6-1.6h78.8c0.88,0,1.6,0.72,1.6,1.6l0,0
			C262.41,408.18,261.68,408.9,260.8,408.9z"/>
		<path class="st17" d="M180.53,442.1h-78.8c-0.88,0-1.6-0.72-1.6-1.6l0,0c0-0.88,0.72-1.6,1.6-1.6h78.8c0.88,0,1.6,0.72,1.6,1.6
			l0,0C182.13,441.38,181.41,442.1,180.53,442.1z"/>
	</g>
	<g>
		<polyline class="st21" points="524.4,311.14 524.48,294.57 524.58,277.94 604.84,277.94 604.84,244.75 684.74,244.75 
			684.74,212.39 764.64,212.39 764.64,179.19 868.36,179.22 868.36,210.51 525.12,341.24 		"/>
		<path class="st17" d="M683.87,245.61h-78.8c-0.88,0-1.6-0.72-1.6-1.6l0,0c0-0.88,0.72-1.6,1.6-1.6h78.8c0.88,0,1.6,0.72,1.6,1.6
			l0,0C685.48,244.89,684.76,245.61,683.87,245.61z"/>
		<path class="st17" d="M763.94,213.68h-78.8c-0.88,0-1.6-0.72-1.6-1.6l0,0c0-0.88,0.72-1.6,1.6-1.6h78.8c0.88,0,1.6,0.72,1.6,1.6
			l0,0C765.54,212.96,764.82,213.68,763.94,213.68z"/>
		<path class="st17" d="M868.42,180.06H764.5c-0.88,0-1.6-0.72-1.6-1.6l0,0c0-0.88,0.72-1.6,1.6-1.6h103.92c0.88,0,1.6,0.72,1.6,1.6
			l0,0C870.02,179.34,869.3,180.06,868.42,180.06z"/>
		<path class="st17" d="M603.91,278.62h-78.8c-0.88,0-1.6-0.72-1.6-1.6l0,0c0-0.88,0.72-1.6,1.6-1.6h78.8c0.88,0,1.6,0.72,1.6,1.6
			l0,0C605.51,277.9,604.79,278.62,603.91,278.62z"/>
	</g>
</g>
<rect x="1194.47" y="215.66" class="st3" width="126.56" height="66.23"/>
<rect x="1567.91" y="212.53" class="st15" width="250.69" height="66.23"/>
<g>
	<path class="st4" d="M962.75,261.99v-34.16h11.71c1.85,0,3.5,0.18,4.97,0.55s2.71,0.93,3.73,1.68c1.02,0.75,1.79,1.71,2.33,2.87
		c0.54,1.17,0.81,2.55,0.81,4.14c0,1.56-0.42,2.97-1.27,4.22s-2.08,2.22-3.71,2.91c0.99,0.27,1.84,0.65,2.57,1.16
		c0.73,0.51,1.33,1.11,1.81,1.79c0.48,0.69,0.83,1.45,1.07,2.28c0.24,0.83,0.35,1.69,0.35,2.58c0,1.64-0.27,3.08-0.81,4.33
		c-0.54,1.24-1.32,2.28-2.35,3.12c-1.02,0.84-2.27,1.47-3.73,1.89c-1.46,0.42-3.12,0.63-4.96,0.63H962.75z M968.68,242.22h5.82
		c1.85,0,3.29-0.42,4.33-1.26c1.04-0.84,1.56-2.02,1.56-3.55c0-1.69-0.48-2.91-1.44-3.66c-0.96-0.75-2.46-1.13-4.49-1.13h-5.77
		V242.22z M968.68,246.58v10.67h6.59c0.97,0,1.83-0.13,2.57-0.38c0.74-0.25,1.36-0.61,1.86-1.07c0.5-0.46,0.88-1.01,1.13-1.65
		c0.25-0.64,0.38-1.35,0.38-2.14c0-1.69-0.45-3.02-1.34-3.99c-0.89-0.97-2.34-1.45-4.34-1.45H968.68z"/>
	<path class="st4" d="M991.44,249.07c0-1.84,0.27-3.55,0.81-5.13c0.54-1.57,1.31-2.94,2.32-4.09c1.01-1.16,2.24-2.06,3.7-2.72
		c1.45-0.66,3.1-0.99,4.95-0.99c1.86,0,3.53,0.33,5,0.99c1.47,0.66,2.71,1.56,3.72,2.72c1.01,1.16,1.78,2.52,2.31,4.09
		c0.53,1.57,0.8,3.28,0.8,5.13v0.49c0,1.85-0.27,3.56-0.8,5.14c-0.53,1.58-1.3,2.94-2.31,4.09s-2.24,2.05-3.71,2.7
		c-1.46,0.65-3.12,0.97-4.96,0.97c-1.86,0-3.52-0.32-4.99-0.97c-1.46-0.65-2.7-1.55-3.71-2.7s-1.78-2.51-2.32-4.09
		c-0.54-1.58-0.81-3.29-0.81-5.14V249.07z M997.14,249.56c0,1.14,0.12,2.22,0.35,3.24s0.6,1.9,1.1,2.66s1.14,1.36,1.91,1.79
		c0.77,0.44,1.69,0.66,2.76,0.66c1.05,0,1.96-0.22,2.73-0.66c0.77-0.44,1.41-1.04,1.9-1.79c0.49-0.76,0.86-1.65,1.1-2.66
		c0.24-1.02,0.36-2.1,0.36-3.24v-0.49c0-1.13-0.12-2.19-0.36-3.2c-0.24-1.01-0.61-1.89-1.11-2.65c-0.5-0.76-1.14-1.36-1.91-1.82
		c-0.77-0.45-1.69-0.68-2.76-0.68c-1.06,0-1.97,0.23-2.73,0.68c-0.76,0.45-1.39,1.06-1.89,1.82s-0.87,1.64-1.1,2.65
		s-0.35,2.08-0.35,3.2V249.56z"/>
	<path class="st4" d="M1018.79,249.07c0-1.84,0.27-3.55,0.81-5.13c0.54-1.57,1.31-2.94,2.32-4.09c1.01-1.16,2.24-2.06,3.7-2.72
		c1.45-0.66,3.1-0.99,4.95-0.99c1.86,0,3.53,0.33,5,0.99c1.47,0.66,2.71,1.56,3.72,2.72c1.01,1.16,1.78,2.52,2.31,4.09
		c0.53,1.57,0.8,3.28,0.8,5.13v0.49c0,1.85-0.27,3.56-0.8,5.14c-0.53,1.58-1.3,2.94-2.31,4.09s-2.24,2.05-3.71,2.7
		c-1.46,0.65-3.12,0.97-4.96,0.97c-1.86,0-3.52-0.32-4.99-0.97c-1.46-0.65-2.7-1.55-3.71-2.7s-1.78-2.51-2.32-4.09
		c-0.54-1.58-0.81-3.29-0.81-5.14V249.07z M1024.49,249.56c0,1.14,0.12,2.22,0.35,3.24s0.6,1.9,1.1,2.66s1.14,1.36,1.91,1.79
		c0.77,0.44,1.69,0.66,2.76,0.66c1.05,0,1.96-0.22,2.73-0.66c0.77-0.44,1.41-1.04,1.9-1.79c0.49-0.76,0.86-1.65,1.1-2.66
		c0.24-1.02,0.36-2.1,0.36-3.24v-0.49c0-1.13-0.12-2.19-0.36-3.2c-0.24-1.01-0.61-1.89-1.11-2.65c-0.5-0.76-1.14-1.36-1.91-1.82
		c-0.77-0.45-1.69-0.68-2.76-0.68c-1.06,0-1.97,0.23-2.73,0.68c-0.76,0.45-1.39,1.06-1.89,1.82s-0.87,1.64-1.1,2.65
		s-0.35,2.08-0.35,3.2V249.56z"/>
	<path class="st4" d="M1061.44,255.1c0-0.41-0.07-0.79-0.2-1.14c-0.13-0.35-0.4-0.68-0.79-0.99c-0.39-0.3-0.94-0.59-1.65-0.86
		c-0.71-0.27-1.64-0.52-2.78-0.75c-1.36-0.28-2.6-0.63-3.72-1.06c-1.12-0.42-2.08-0.93-2.87-1.54c-0.8-0.6-1.42-1.31-1.87-2.12
		c-0.45-0.81-0.67-1.75-0.67-2.82c0-1.03,0.23-2.01,0.68-2.94c0.45-0.93,1.11-1.75,1.96-2.45c0.85-0.7,1.88-1.26,3.1-1.68
		c1.21-0.41,2.57-0.62,4.07-0.62c1.58,0,3,0.21,4.26,0.62c1.26,0.41,2.33,0.99,3.2,1.71c0.88,0.73,1.54,1.58,2.01,2.57
		c0.46,0.99,0.69,2.05,0.69,3.19h-5.7c0-0.49-0.09-0.96-0.28-1.42c-0.19-0.46-0.47-0.87-0.84-1.23c-0.38-0.36-0.84-0.65-1.4-0.86
		c-0.55-0.21-1.2-0.32-1.93-0.32c-0.72,0-1.35,0.09-1.88,0.27c-0.53,0.18-0.97,0.41-1.33,0.7c-0.35,0.29-0.61,0.63-0.79,1.01
		c-0.17,0.38-0.26,0.79-0.26,1.21s0.08,0.8,0.24,1.13c0.16,0.33,0.43,0.63,0.83,0.89c0.4,0.27,0.93,0.51,1.61,0.74
		c0.67,0.23,1.52,0.45,2.53,0.67c1.47,0.31,2.79,0.68,3.95,1.1c1.17,0.42,2.15,0.94,2.96,1.55s1.42,1.33,1.84,2.16
		c0.42,0.83,0.63,1.81,0.63,2.96c0,1.13-0.24,2.16-0.73,3.1c-0.49,0.94-1.18,1.75-2.08,2.43c-0.9,0.68-1.98,1.21-3.25,1.58
		s-2.67,0.56-4.22,0.56c-1.74,0-3.27-0.25-4.61-0.74c-1.34-0.49-2.46-1.14-3.37-1.94c-0.91-0.8-1.59-1.7-2.05-2.71
		c-0.46-1.01-0.69-2.04-0.69-3.08h5.54c0.05,0.78,0.23,1.44,0.54,1.97c0.31,0.53,0.71,0.96,1.2,1.29c0.48,0.33,1.03,0.57,1.64,0.71
		c0.61,0.15,1.24,0.22,1.88,0.22c1.5,0,2.64-0.29,3.42-0.86C1061.05,256.77,1061.44,256.02,1061.44,255.1z"/>
	<path class="st4" d="M1079.16,230.44v6.17h4.48v4.22h-4.48V255c0,0.58,0.06,1.05,0.19,1.41s0.3,0.64,0.54,0.83
		c0.23,0.2,0.51,0.33,0.83,0.4s0.68,0.11,1.07,0.11c0.39,0,0.77-0.03,1.14-0.08s0.65-0.11,0.86-0.15v4.41
		c-0.46,0.13-0.98,0.25-1.58,0.36c-0.6,0.12-1.33,0.18-2.17,0.18c-0.94,0-1.81-0.13-2.62-0.38c-0.8-0.25-1.5-0.66-2.09-1.22
		c-0.59-0.56-1.04-1.3-1.37-2.21c-0.33-0.91-0.49-2.02-0.49-3.33v-14.5h-4.18v-4.22h4.18v-6.17H1079.16z"/>
	<path class="st4" d="M1108.83,253.83l5.16-17.22h6.08l-10.09,29.23c-0.23,0.64-0.54,1.33-0.93,2.08c-0.38,0.74-0.88,1.43-1.5,2.08
		c-0.62,0.64-1.37,1.18-2.26,1.61c-0.89,0.43-1.96,0.65-3.19,0.65c-0.49,0-0.97-0.04-1.44-0.13c-0.48-0.09-0.91-0.18-1.3-0.29v-4.41
		c0.14,0.03,0.32,0.05,0.55,0.06c0.23,0.01,0.4,0.01,0.53,0.01c0.7,0,1.32-0.06,1.84-0.18s0.98-0.31,1.37-0.59
		c0.39-0.27,0.73-0.63,1.01-1.06c0.28-0.43,0.53-0.97,0.75-1.61l0.82-2.18l-8.92-25.27h6.15L1108.83,253.83z"/>
	<path class="st4" d="M1121.92,249.07c0-1.84,0.27-3.55,0.81-5.13c0.54-1.57,1.31-2.94,2.32-4.09c1.01-1.16,2.24-2.06,3.7-2.72
		c1.45-0.66,3.1-0.99,4.95-0.99c1.86,0,3.53,0.33,5,0.99c1.47,0.66,2.71,1.56,3.72,2.72c1.01,1.16,1.78,2.52,2.31,4.09
		c0.53,1.57,0.8,3.28,0.8,5.13v0.49c0,1.85-0.27,3.56-0.8,5.14c-0.53,1.58-1.3,2.94-2.31,4.09s-2.24,2.05-3.71,2.7
		c-1.46,0.65-3.12,0.97-4.96,0.97c-1.86,0-3.52-0.32-4.99-0.97c-1.46-0.65-2.7-1.55-3.71-2.7s-1.78-2.51-2.32-4.09
		c-0.54-1.58-0.81-3.29-0.81-5.14V249.07z M1127.62,249.56c0,1.14,0.12,2.22,0.35,3.24s0.6,1.9,1.1,2.66
		c0.5,0.76,1.14,1.36,1.91,1.79c0.77,0.44,1.69,0.66,2.76,0.66c1.05,0,1.96-0.22,2.73-0.66c0.77-0.44,1.41-1.04,1.9-1.79
		c0.49-0.76,0.86-1.65,1.1-2.66s0.36-2.1,0.36-3.24v-0.49c0-1.13-0.12-2.19-0.36-3.2s-0.61-1.89-1.11-2.65
		c-0.5-0.76-1.14-1.36-1.91-1.82c-0.77-0.45-1.69-0.68-2.76-0.68s-1.97,0.23-2.73,0.68c-0.76,0.45-1.39,1.06-1.89,1.82
		c-0.5,0.76-0.87,1.64-1.1,2.65s-0.35,2.08-0.35,3.2V249.56z"/>
	<path class="st4" d="M1165.72,259.51c-0.8,0.94-1.78,1.67-2.96,2.18c-1.17,0.52-2.57,0.77-4.18,0.77c-1.25,0-2.39-0.18-3.41-0.53
		c-1.02-0.35-1.9-0.91-2.64-1.67c-0.74-0.76-1.31-1.74-1.71-2.93c-0.41-1.2-0.61-2.63-0.61-4.31v-16.42h5.7v16.47
		c0,0.92,0.11,1.69,0.33,2.29c0.22,0.6,0.51,1.09,0.88,1.45c0.37,0.37,0.79,0.63,1.28,0.77c0.48,0.15,0.99,0.22,1.52,0.22
		c1.47,0,2.66-0.27,3.57-0.8c0.91-0.53,1.59-1.26,2.04-2.18v-18.23h5.7v25.38h-5.37L1165.72,259.51z"/>
	<path class="st4" d="M1190.33,241.82c-0.38-0.06-0.75-0.11-1.14-0.14c-0.38-0.03-0.78-0.05-1.18-0.05c-1.38,0-2.5,0.27-3.36,0.8
		c-0.86,0.53-1.5,1.27-1.92,2.21v17.36h-5.7v-25.38h5.44l0.14,2.84c0.64-1.03,1.44-1.84,2.38-2.43c0.95-0.59,2.06-0.88,3.34-0.88
		c0.33,0,0.7,0.04,1.11,0.11s0.72,0.15,0.9,0.22L1190.33,241.82z"/>
	<path class="st4" d="M1220.13,255.1c0-0.41-0.07-0.79-0.2-1.14c-0.13-0.35-0.4-0.68-0.79-0.99c-0.39-0.3-0.94-0.59-1.65-0.86
		c-0.71-0.27-1.64-0.52-2.78-0.75c-1.36-0.28-2.6-0.63-3.72-1.06c-1.12-0.42-2.08-0.93-2.87-1.54c-0.8-0.6-1.42-1.31-1.87-2.12
		c-0.45-0.81-0.67-1.75-0.67-2.82c0-1.03,0.23-2.01,0.68-2.94c0.45-0.93,1.11-1.75,1.96-2.45c0.85-0.7,1.88-1.26,3.1-1.68
		c1.21-0.41,2.57-0.62,4.07-0.62c1.58,0,3,0.21,4.26,0.62c1.26,0.41,2.33,0.99,3.2,1.71c0.88,0.73,1.54,1.58,2.01,2.57
		c0.46,0.99,0.69,2.05,0.69,3.19h-5.7c0-0.49-0.09-0.96-0.28-1.42c-0.19-0.46-0.47-0.87-0.84-1.23c-0.38-0.36-0.84-0.65-1.4-0.86
		s-1.2-0.32-1.94-0.32c-0.72,0-1.34,0.09-1.88,0.27c-0.53,0.18-0.97,0.41-1.33,0.7s-0.61,0.63-0.79,1.01
		c-0.17,0.38-0.26,0.79-0.26,1.21s0.08,0.8,0.23,1.13c0.16,0.33,0.43,0.63,0.83,0.89c0.4,0.27,0.93,0.51,1.61,0.74
		c0.67,0.23,1.52,0.45,2.53,0.67c1.47,0.31,2.79,0.68,3.95,1.1c1.17,0.42,2.15,0.94,2.96,1.55s1.42,1.33,1.84,2.16
		c0.42,0.83,0.63,1.81,0.63,2.96c0,1.13-0.24,2.16-0.73,3.1c-0.49,0.94-1.18,1.75-2.08,2.43c-0.9,0.68-1.98,1.21-3.25,1.58
		c-1.27,0.38-2.67,0.56-4.22,0.56c-1.74,0-3.27-0.25-4.61-0.74c-1.34-0.49-2.46-1.14-3.37-1.94s-1.59-1.7-2.05-2.71
		c-0.46-1.01-0.69-2.04-0.69-3.08h5.54c0.05,0.78,0.23,1.44,0.54,1.97c0.31,0.53,0.71,0.96,1.2,1.29c0.48,0.33,1.03,0.57,1.64,0.71
		c0.61,0.15,1.24,0.22,1.88,0.22c1.5,0,2.64-0.29,3.43-0.86C1219.74,256.77,1220.13,256.02,1220.13,255.1z"/>
	<path class="st4" d="M1238.94,251.11l-2.53,2.6v8.28h-5.7v-36.03h5.7v20.79l1.78-2.23l7.01-7.91h6.85l-9.43,10.58l10.44,14.8h-6.59
		L1238.94,251.11z"/>
	<path class="st4" d="M1255.79,230.02c0-0.88,0.28-1.6,0.83-2.18c0.55-0.58,1.35-0.87,2.38-0.87s1.83,0.29,2.39,0.87
		c0.56,0.58,0.84,1.31,0.84,2.18c0,0.86-0.28,1.58-0.84,2.15c-0.56,0.57-1.36,0.86-2.39,0.86s-1.83-0.29-2.38-0.86
		C1256.06,231.59,1255.79,230.88,1255.79,230.02z M1261.84,261.99h-5.7v-25.38h5.7V261.99z"/>
	<path class="st4" d="M1274.11,261.99h-5.7v-36.03h5.7V261.99z"/>
	<path class="st4" d="M1286.38,261.99h-5.7v-36.03h5.7V261.99z"/>
	<path class="st4" d="M1306.81,255.1c0-0.41-0.07-0.79-0.2-1.14c-0.13-0.35-0.4-0.68-0.79-0.99c-0.39-0.3-0.94-0.59-1.65-0.86
		c-0.71-0.27-1.64-0.52-2.78-0.75c-1.36-0.28-2.6-0.63-3.72-1.06c-1.12-0.42-2.08-0.93-2.87-1.54c-0.8-0.6-1.42-1.31-1.87-2.12
		c-0.45-0.81-0.67-1.75-0.67-2.82c0-1.03,0.23-2.01,0.68-2.94c0.45-0.93,1.11-1.75,1.96-2.45c0.85-0.7,1.88-1.26,3.1-1.68
		c1.21-0.41,2.57-0.62,4.07-0.62c1.58,0,3,0.21,4.26,0.62c1.26,0.41,2.33,0.99,3.2,1.71c0.88,0.73,1.54,1.58,2.01,2.57
		c0.46,0.99,0.69,2.05,0.69,3.19h-5.7c0-0.49-0.09-0.96-0.28-1.42c-0.19-0.46-0.47-0.87-0.84-1.23c-0.38-0.36-0.84-0.65-1.4-0.86
		s-1.2-0.32-1.94-0.32c-0.72,0-1.34,0.09-1.88,0.27c-0.53,0.18-0.97,0.41-1.33,0.7s-0.61,0.63-0.79,1.01
		c-0.17,0.38-0.26,0.79-0.26,1.21s0.08,0.8,0.23,1.13c0.16,0.33,0.43,0.63,0.83,0.89c0.4,0.27,0.93,0.51,1.61,0.74
		c0.67,0.23,1.52,0.45,2.53,0.67c1.47,0.31,2.79,0.68,3.95,1.1c1.17,0.42,2.15,0.94,2.96,1.55s1.42,1.33,1.84,2.16
		c0.42,0.83,0.63,1.81,0.63,2.96c0,1.13-0.24,2.16-0.73,3.1c-0.49,0.94-1.18,1.75-2.08,2.43c-0.9,0.68-1.98,1.21-3.25,1.58
		c-1.27,0.38-2.67,0.56-4.22,0.56c-1.74,0-3.27-0.25-4.61-0.74c-1.34-0.49-2.46-1.14-3.37-1.94s-1.59-1.7-2.05-2.71
		c-0.46-1.01-0.69-2.04-0.69-3.08h5.54c0.05,0.78,0.23,1.44,0.54,1.97c0.31,0.53,0.71,0.96,1.2,1.29c0.48,0.33,1.03,0.57,1.64,0.71
		c0.61,0.15,1.24,0.22,1.88,0.22c1.5,0,2.64-0.29,3.43-0.86C1306.42,256.77,1306.81,256.02,1306.81,255.1z"/>
	<path class="st4" d="M1336.49,230.44v6.17h4.48v4.22h-4.48V255c0,0.58,0.06,1.05,0.19,1.41s0.3,0.64,0.54,0.83
		c0.23,0.2,0.51,0.33,0.83,0.4c0.32,0.07,0.68,0.11,1.07,0.11c0.39,0,0.77-0.03,1.14-0.08c0.37-0.05,0.65-0.11,0.86-0.15v4.41
		c-0.45,0.13-0.98,0.25-1.58,0.36c-0.6,0.12-1.33,0.18-2.17,0.18c-0.94,0-1.81-0.13-2.62-0.38s-1.5-0.66-2.09-1.22
		c-0.59-0.56-1.04-1.3-1.37-2.21c-0.33-0.91-0.49-2.02-0.49-3.33v-14.5h-4.18v-4.22h4.18v-6.17H1336.49z"/>
	<path class="st4" d="M1343.55,249.07c0-1.84,0.27-3.55,0.81-5.13c0.54-1.57,1.31-2.94,2.32-4.09c1.01-1.16,2.24-2.06,3.7-2.72
		c1.45-0.66,3.1-0.99,4.95-0.99c1.86,0,3.53,0.33,5,0.99c1.47,0.66,2.71,1.56,3.72,2.72c1.01,1.16,1.78,2.52,2.31,4.09
		c0.53,1.57,0.8,3.28,0.8,5.13v0.49c0,1.85-0.27,3.56-0.8,5.14c-0.53,1.58-1.3,2.94-2.31,4.09s-2.24,2.05-3.71,2.7
		c-1.46,0.65-3.12,0.97-4.96,0.97c-1.86,0-3.52-0.32-4.99-0.97c-1.46-0.65-2.7-1.55-3.71-2.7s-1.78-2.51-2.32-4.09
		c-0.54-1.58-0.81-3.29-0.81-5.14V249.07z M1349.25,249.56c0,1.14,0.12,2.22,0.35,3.24s0.6,1.9,1.1,2.66
		c0.5,0.76,1.14,1.36,1.91,1.79c0.77,0.44,1.69,0.66,2.76,0.66c1.05,0,1.96-0.22,2.73-0.66c0.77-0.44,1.41-1.04,1.9-1.79
		c0.49-0.76,0.86-1.65,1.1-2.66s0.36-2.1,0.36-3.24v-0.49c0-1.13-0.12-2.19-0.36-3.2s-0.61-1.89-1.11-2.65
		c-0.5-0.76-1.14-1.36-1.91-1.82c-0.77-0.45-1.69-0.68-2.76-0.68s-1.97,0.23-2.73,0.68c-0.76,0.45-1.39,1.06-1.89,1.82
		c-0.5,0.76-0.87,1.64-1.1,2.65s-0.35,2.08-0.35,3.2V249.56z"/>
	<path class="st4" d="M1410.67,257.56c-0.36,0.47-0.86,0.99-1.5,1.56c-0.64,0.57-1.47,1.1-2.48,1.6c-1.01,0.49-2.22,0.91-3.64,1.24
		c-1.42,0.34-3.08,0.5-4.99,0.5c-2.14,0-4.11-0.37-5.9-1.1c-1.79-0.73-3.33-1.8-4.61-3.19c-1.28-1.39-2.28-3.1-2.99-5.14
		c-0.71-2.03-1.07-4.36-1.07-6.97v-2.25c0-2.6,0.32-4.91,0.96-6.96c0.64-2.04,1.56-3.77,2.77-5.17s2.67-2.48,4.41-3.21
		c1.74-0.73,3.71-1.1,5.91-1.1c2.08,0,3.89,0.27,5.44,0.81c1.55,0.54,2.85,1.29,3.92,2.26c1.06,0.97,1.9,2.12,2.51,3.46
		c0.61,1.34,1.02,2.8,1.22,4.4h-5.82c-0.14-0.89-0.38-1.71-0.7-2.46c-0.33-0.75-0.78-1.4-1.35-1.95c-0.57-0.55-1.28-0.98-2.11-1.29
		c-0.84-0.31-1.83-0.47-2.99-0.47c-1.39,0-2.6,0.26-3.62,0.77c-1.02,0.52-1.88,1.27-2.56,2.26c-0.68,0.99-1.19,2.21-1.52,3.66
		c-0.34,1.45-0.5,3.09-0.5,4.94v2.3c0,1.88,0.2,3.54,0.61,4.98c0.41,1.45,0.99,2.66,1.75,3.65c0.76,0.99,1.68,1.74,2.77,2.25
		c1.09,0.52,2.32,0.77,3.7,0.77c1.02,0,1.89-0.07,2.62-0.2c0.73-0.13,1.34-0.3,1.84-0.5c0.5-0.2,0.91-0.43,1.23-0.67
		c0.32-0.24,0.58-0.47,0.79-0.69v-6.69h-7.04v-4.5h12.95V257.56z"/>
	<path class="st4" d="M1427.82,262.46c-1.88,0-3.57-0.31-5.07-0.94c-1.5-0.63-2.78-1.49-3.82-2.58s-1.85-2.39-2.42-3.89
		c-0.56-1.5-0.84-3.12-0.84-4.86v-0.94c0-2,0.3-3.81,0.89-5.43c0.59-1.62,1.41-2.99,2.44-4.13c1.03-1.13,2.25-2.01,3.65-2.63
		c1.4-0.62,2.91-0.93,4.52-0.93c1.85,0,3.45,0.31,4.81,0.93s2.49,1.48,3.38,2.59c0.89,1.11,1.56,2.43,1.99,3.96
		c0.44,1.53,0.66,3.21,0.66,5.04v2.44h-16.59c0.08,0.99,0.29,1.89,0.62,2.72s0.79,1.54,1.37,2.15c0.58,0.6,1.26,1.08,2.05,1.42
		c0.79,0.34,1.68,0.52,2.69,0.52c1.41,0,2.63-0.28,3.67-0.84c1.04-0.56,1.94-1.34,2.71-2.32l3.07,2.93
		c-0.41,0.61-0.91,1.2-1.51,1.77c-0.6,0.57-1.31,1.08-2.11,1.52s-1.72,0.81-2.73,1.08S1429.09,262.46,1427.82,262.46z
		 M1427.14,240.72c-1.56,0-2.83,0.55-3.79,1.64c-0.96,1.09-1.58,2.62-1.84,4.57h10.86v-0.42c-0.05-0.75-0.17-1.47-0.36-2.17
		s-0.5-1.31-0.9-1.85s-0.93-0.97-1.58-1.29C1428.87,240.88,1428.08,240.72,1427.14,240.72z"/>
	<path class="st4" d="M1449.57,230.44v6.17h4.48v4.22h-4.48V255c0,0.58,0.06,1.05,0.19,1.41s0.3,0.64,0.54,0.83
		c0.23,0.2,0.51,0.33,0.83,0.4c0.32,0.07,0.68,0.11,1.07,0.11c0.39,0,0.77-0.03,1.14-0.08c0.37-0.05,0.65-0.11,0.86-0.15v4.41
		c-0.45,0.13-0.98,0.25-1.58,0.36c-0.6,0.12-1.33,0.18-2.17,0.18c-0.94,0-1.81-0.13-2.62-0.38s-1.5-0.66-2.09-1.22
		c-0.59-0.56-1.04-1.3-1.37-2.21c-0.33-0.91-0.49-2.02-0.49-3.33v-14.5h-4.18v-4.22h4.18v-6.17H1449.57z"/>
	<path class="st4" d="M1479.25,253.83l5.16-17.22h6.08l-10.09,29.23c-0.23,0.64-0.54,1.33-0.93,2.08c-0.38,0.74-0.88,1.43-1.5,2.08
		c-0.62,0.64-1.37,1.18-2.26,1.61c-0.89,0.43-1.96,0.65-3.19,0.65c-0.49,0-0.97-0.04-1.44-0.13c-0.48-0.09-0.91-0.18-1.3-0.29v-4.41
		c0.14,0.03,0.32,0.05,0.55,0.06c0.23,0.01,0.4,0.01,0.53,0.01c0.7,0,1.32-0.06,1.84-0.18s0.98-0.31,1.37-0.59
		c0.39-0.27,0.73-0.63,1.01-1.06c0.28-0.43,0.53-0.97,0.75-1.61l0.82-2.18l-8.92-25.27h6.15L1479.25,253.83z"/>
	<path class="st4" d="M1492.34,249.07c0-1.84,0.27-3.55,0.81-5.13c0.54-1.57,1.31-2.94,2.32-4.09c1.01-1.16,2.24-2.06,3.7-2.72
		c1.45-0.66,3.1-0.99,4.95-0.99c1.86,0,3.53,0.33,5,0.99c1.47,0.66,2.71,1.56,3.72,2.72c1.01,1.16,1.78,2.52,2.31,4.09
		c0.53,1.57,0.8,3.28,0.8,5.13v0.49c0,1.85-0.27,3.56-0.8,5.14c-0.53,1.58-1.3,2.94-2.31,4.09s-2.24,2.05-3.71,2.7
		c-1.46,0.65-3.12,0.97-4.96,0.97c-1.86,0-3.52-0.32-4.99-0.97c-1.46-0.65-2.7-1.55-3.71-2.7s-1.78-2.51-2.32-4.09
		c-0.54-1.58-0.81-3.29-0.81-5.14V249.07z M1498.04,249.56c0,1.14,0.12,2.22,0.35,3.24s0.6,1.9,1.1,2.66
		c0.5,0.76,1.14,1.36,1.91,1.79c0.77,0.44,1.69,0.66,2.76,0.66c1.05,0,1.96-0.22,2.73-0.66c0.77-0.44,1.41-1.04,1.9-1.79
		c0.49-0.76,0.86-1.65,1.1-2.66s0.36-2.1,0.36-3.24v-0.49c0-1.13-0.12-2.19-0.36-3.2s-0.61-1.89-1.11-2.65
		c-0.5-0.76-1.14-1.36-1.91-1.82c-0.77-0.45-1.69-0.68-2.76-0.68s-1.97,0.23-2.73,0.68c-0.76,0.45-1.39,1.06-1.89,1.82
		c-0.5,0.76-0.87,1.64-1.1,2.65s-0.35,2.08-0.35,3.2V249.56z"/>
	<path class="st4" d="M1536.14,259.51c-0.8,0.94-1.78,1.67-2.96,2.18c-1.17,0.52-2.57,0.77-4.18,0.77c-1.25,0-2.39-0.18-3.41-0.53
		c-1.02-0.35-1.9-0.91-2.64-1.67c-0.74-0.76-1.31-1.74-1.71-2.93c-0.41-1.2-0.61-2.63-0.61-4.31v-16.42h5.7v16.47
		c0,0.92,0.11,1.69,0.33,2.29c0.22,0.6,0.51,1.09,0.88,1.45c0.37,0.37,0.79,0.63,1.28,0.77c0.48,0.15,0.99,0.22,1.52,0.22
		c1.47,0,2.66-0.27,3.57-0.8c0.91-0.53,1.59-1.26,2.04-2.18v-18.23h5.7v25.38h-5.37L1536.14,259.51z"/>
	<path class="st4" d="M1560.75,241.82c-0.38-0.06-0.75-0.11-1.14-0.14c-0.38-0.03-0.78-0.05-1.18-0.05c-1.38,0-2.5,0.27-3.36,0.8
		c-0.86,0.53-1.5,1.27-1.92,2.21v17.36h-5.7v-25.38h5.44l0.14,2.84c0.64-1.03,1.44-1.84,2.38-2.43c0.95-0.59,2.06-0.88,3.34-0.88
		c0.33,0,0.7,0.04,1.11,0.11s0.72,0.15,0.9,0.22L1560.75,241.82z"/>
	<path class="st4" d="M1576.86,261.99v-34.16h10.09c2.28,0,4.37,0.38,6.25,1.15c1.88,0.77,3.5,1.86,4.86,3.27
		c1.35,1.42,2.41,3.12,3.16,5.13c0.75,2,1.13,4.24,1.13,6.71v1.69c0,2.47-0.37,4.7-1.11,6.7c-0.74,1.99-1.8,3.69-3.17,5.1
		c-1.37,1.41-3.02,2.49-4.95,3.26s-4.08,1.15-6.44,1.15H1576.86z M1582.8,232.62v24.63h3.87c1.61,0,3.03-0.26,4.25-0.79
		c1.22-0.52,2.23-1.28,3.04-2.26s1.41-2.19,1.82-3.61c0.41-1.42,0.61-3.03,0.61-4.81v-1.74c0-3.71-0.81-6.54-2.42-8.49
		c-1.61-1.96-3.95-2.93-7.01-2.93H1582.8z"/>
	<path class="st4" d="M1620.99,241.82c-0.38-0.06-0.75-0.11-1.14-0.14c-0.38-0.03-0.78-0.05-1.18-0.05c-1.38,0-2.5,0.27-3.36,0.8
		c-0.86,0.53-1.5,1.27-1.92,2.21v17.36h-5.7v-25.38h5.44l0.14,2.84c0.64-1.03,1.44-1.84,2.38-2.43c0.95-0.59,2.06-0.88,3.34-0.88
		c0.33,0,0.7,0.04,1.11,0.11s0.72,0.15,0.9,0.22L1620.99,241.82z"/>
	<path class="st4" d="M1635.33,262.46c-1.88,0-3.57-0.31-5.07-0.94c-1.5-0.63-2.78-1.49-3.82-2.58s-1.85-2.39-2.42-3.89
		c-0.56-1.5-0.84-3.12-0.84-4.86v-0.94c0-2,0.3-3.81,0.89-5.43c0.59-1.62,1.41-2.99,2.44-4.13c1.03-1.13,2.25-2.01,3.65-2.63
		c1.4-0.62,2.91-0.93,4.52-0.93c1.85,0,3.45,0.31,4.81,0.93s2.49,1.48,3.38,2.59c0.89,1.11,1.56,2.43,1.99,3.96
		c0.44,1.53,0.66,3.21,0.66,5.04v2.44h-16.59c0.08,0.99,0.29,1.89,0.62,2.72s0.79,1.54,1.37,2.15c0.58,0.6,1.26,1.08,2.05,1.42
		c0.79,0.34,1.68,0.52,2.69,0.52c1.41,0,2.63-0.28,3.67-0.84c1.04-0.56,1.94-1.34,2.71-2.32l3.07,2.93
		c-0.41,0.61-0.91,1.2-1.51,1.77c-0.6,0.57-1.31,1.08-2.11,1.52s-1.72,0.81-2.73,1.08S1636.59,262.46,1635.33,262.46z
		 M1634.64,240.72c-1.56,0-2.83,0.55-3.79,1.64c-0.96,1.09-1.58,2.62-1.84,4.57h10.86v-0.42c-0.05-0.75-0.17-1.47-0.36-2.17
		s-0.5-1.31-0.9-1.85s-0.93-0.97-1.58-1.29C1636.38,240.88,1635.58,240.72,1634.64,240.72z"/>
	<path class="st4" d="M1665.1,261.99c-0.16-0.3-0.29-0.65-0.39-1.06c-0.1-0.41-0.19-0.84-0.27-1.31c-0.38,0.39-0.79,0.76-1.25,1.1
		c-0.46,0.34-0.97,0.64-1.53,0.9c-0.55,0.26-1.16,0.46-1.81,0.61c-0.65,0.15-1.34,0.22-2.08,0.22c-1.27,0-2.43-0.19-3.5-0.57
		s-1.97-0.92-2.73-1.6c-0.76-0.68-1.35-1.48-1.78-2.4c-0.43-0.92-0.65-1.92-0.65-3c0-1.36,0.26-2.56,0.77-3.61
		c0.52-1.05,1.27-1.92,2.25-2.63s2.19-1.24,3.63-1.61c1.43-0.37,3.06-0.55,4.89-0.55h3.59v-1.67c0-1.31-0.37-2.37-1.1-3.16
		c-0.74-0.79-1.85-1.18-3.35-1.18c-0.67,0-1.28,0.09-1.83,0.27c-0.55,0.18-1.01,0.42-1.4,0.73c-0.38,0.3-0.68,0.67-0.89,1.09
		c-0.21,0.42-0.32,0.88-0.32,1.36h-5.7c0-1,0.25-1.97,0.74-2.9c0.49-0.93,1.19-1.76,2.1-2.49c0.91-0.73,2.01-1.31,3.3-1.75
		c1.29-0.44,2.73-0.66,4.33-0.66c1.42,0,2.74,0.18,3.94,0.55c1.2,0.37,2.24,0.92,3.12,1.64c0.88,0.73,1.56,1.63,2.04,2.72
		c0.48,1.09,0.73,2.36,0.73,3.81v11.26c0,2.28,0.32,4.11,0.96,5.47v0.4H1665.1z M1658.83,257.89c0.66,0,1.27-0.09,1.84-0.26
		c0.57-0.17,1.09-0.4,1.55-0.68c0.46-0.28,0.86-0.61,1.21-0.97c0.34-0.37,0.62-0.74,0.82-1.11v-4.79h-3.07
		c-2.11,0-3.7,0.37-4.76,1.1s-1.59,1.77-1.59,3.12c0,0.52,0.09,0.99,0.26,1.43c0.17,0.44,0.43,0.82,0.77,1.14
		c0.34,0.32,0.76,0.57,1.25,0.75C1657.6,257.8,1658.18,257.89,1658.83,257.89z"/>
	<path class="st4" d="M1681.28,236.61l0.16,2.65c0.84-0.99,1.87-1.75,3.08-2.3s2.62-0.82,4.24-0.82c1.55,0,2.93,0.31,4.15,0.93
		c1.22,0.62,2.16,1.61,2.81,2.97c0.84-1.19,1.91-2.14,3.2-2.84c1.29-0.7,2.82-1.06,4.59-1.06c1.31,0,2.49,0.18,3.52,0.53
		s1.9,0.91,2.62,1.67c0.71,0.76,1.26,1.73,1.64,2.92c0.38,1.19,0.57,2.62,0.57,4.29v16.45h-5.7v-16.47c0-0.94-0.11-1.71-0.32-2.31
		c-0.21-0.6-0.52-1.08-0.91-1.44c-0.4-0.36-0.88-0.61-1.43-0.75c-0.56-0.14-1.18-0.21-1.89-0.21c-1.3,0-2.36,0.35-3.18,1.04
		c-0.82,0.7-1.4,1.61-1.72,2.73c0,0.08,0,0.16,0.01,0.25s0.01,0.17,0.01,0.25v16.91h-5.7v-16.4c0-0.89-0.11-1.64-0.32-2.25
		c-0.21-0.61-0.52-1.1-0.92-1.48c-0.4-0.38-0.88-0.64-1.44-0.81c-0.56-0.16-1.2-0.25-1.9-0.25c-1.22,0-2.22,0.25-3.01,0.75
		c-0.79,0.5-1.4,1.18-1.84,2.04v18.39h-5.7v-25.38H1681.28z"/>
	<path class="st4" d="M1744.23,227.84h5.91v23.95c0,1.69-0.28,3.2-0.83,4.53c-0.55,1.33-1.33,2.45-2.32,3.35s-2.17,1.6-3.53,2.08
		c-1.36,0.48-2.85,0.71-4.46,0.71c-1.63,0-3.12-0.2-4.49-0.61c-1.37-0.41-2.55-1.03-3.53-1.88s-1.76-1.91-2.31-3.19
		c-0.56-1.28-0.83-2.79-0.83-4.53h5.91c0,0.99,0.13,1.83,0.39,2.52c0.26,0.7,0.62,1.26,1.08,1.69c0.46,0.43,1.01,0.75,1.65,0.95
		c0.64,0.2,1.35,0.3,2.13,0.3c0.77,0,1.47-0.13,2.11-0.39c0.64-0.26,1.19-0.64,1.65-1.14c0.46-0.5,0.82-1.12,1.08-1.85
		s0.39-1.59,0.39-2.56V227.84z"/>
	<path class="st4" d="M1755.3,249.07c0-1.84,0.27-3.55,0.81-5.13c0.54-1.57,1.31-2.94,2.32-4.09c1.01-1.16,2.24-2.06,3.7-2.72
		c1.45-0.66,3.1-0.99,4.95-0.99c1.86,0,3.53,0.33,5,0.99c1.47,0.66,2.71,1.56,3.72,2.72c1.01,1.16,1.78,2.52,2.31,4.09
		c0.53,1.57,0.8,3.28,0.8,5.13v0.49c0,1.85-0.27,3.56-0.8,5.14c-0.53,1.58-1.3,2.94-2.31,4.09s-2.24,2.05-3.71,2.7
		c-1.46,0.65-3.12,0.97-4.96,0.97c-1.86,0-3.52-0.32-4.99-0.97c-1.46-0.65-2.7-1.55-3.71-2.7s-1.78-2.51-2.32-4.09
		c-0.54-1.58-0.81-3.29-0.81-5.14V249.07z M1761,249.56c0,1.14,0.12,2.22,0.35,3.24s0.6,1.9,1.1,2.66c0.5,0.76,1.14,1.36,1.91,1.79
		c0.77,0.44,1.69,0.66,2.76,0.66c1.05,0,1.96-0.22,2.73-0.66c0.77-0.44,1.41-1.04,1.9-1.79c0.49-0.76,0.86-1.65,1.1-2.66
		s0.36-2.1,0.36-3.24v-0.49c0-1.13-0.12-2.19-0.36-3.2s-0.61-1.89-1.11-2.65c-0.5-0.76-1.14-1.36-1.91-1.82
		c-0.77-0.45-1.69-0.68-2.76-0.68s-1.97,0.23-2.73,0.68c-0.76,0.45-1.39,1.06-1.89,1.82c-0.5,0.76-0.87,1.64-1.1,2.65
		s-0.35,2.08-0.35,3.2V249.56z"/>
	<path class="st4" d="M1806,249.56c0,1.88-0.21,3.61-0.65,5.18c-0.43,1.58-1.06,2.94-1.89,4.08s-1.86,2.03-3.1,2.67
		c-1.24,0.64-2.66,0.96-4.27,0.96c-1.55,0-2.89-0.28-4.04-0.83c-1.14-0.56-2.11-1.35-2.91-2.38l-0.28,2.74h-5.16v-36.03h5.7v13.09
		c0.8-0.94,1.74-1.66,2.83-2.16c1.09-0.5,2.36-0.75,3.81-0.75c1.64,0,3.08,0.32,4.32,0.95s2.27,1.52,3.11,2.66
		c0.84,1.14,1.47,2.51,1.89,4.09c0.42,1.59,0.63,3.33,0.63,5.22V249.56z M1800.3,249.07c0-1.11-0.09-2.17-0.27-3.17
		c-0.18-1-0.49-1.88-0.93-2.63c-0.44-0.75-1.02-1.35-1.75-1.79c-0.73-0.45-1.64-0.67-2.73-0.67c-1.33,0-2.42,0.29-3.26,0.88
		c-0.84,0.59-1.49,1.37-1.95,2.36v10.46c0.45,0.99,1.11,1.78,1.96,2.39c0.85,0.61,1.95,0.92,3.3,0.92c1.05,0,1.93-0.21,2.65-0.65
		c0.72-0.43,1.3-1.02,1.75-1.76s0.76-1.62,0.95-2.62s0.28-2.08,0.28-3.24V249.07z"/>
</g>
</svg>
