<?xml version="1.0" encoding="utf-8"?>
<!-- Generator: Adobe Illustrator 24.2.1, SVG Export Plug-In . SVG Version: 6.00 Build 0)  -->
<svg version="1.1" id="Layer_1" xmlns="http://www.w3.org/2000/svg" xmlns:xlink="http://www.w3.org/1999/xlink" x="0px" y="0px"
	 viewBox="0 0 1920 480" style="enable-background:new 0 0 1920 480;" xml:space="preserve">
<style type="text/css">
	.st0{fill:#FFFFFF;}
	.st1{fill:#EBEBEB;}
	.st2{fill:#DCDBDB;}
	.st3{fill:#A6A5A5;}
	.st4{fill:#1A2F36;}
	.st5{fill:#263238;}
	.st6{fill:#F3BB45;}
	.st7{fill:#EEBCA7;}
	.st8{opacity:0.3;}
	.st9{fill:#D0957B;}
	.st10{fill:#455B64;}
	.st11{display:none;}
	.st12{display:inline;fill:#455B64;}
	.st13{display:inline;}
	.st14{fill:#37474F;}
	.st15{fill:#DE4E65;}
	.st16{opacity:0.6;fill:#DCDBDB;}
</style>
<rect class="st0" width="1920" height="480"/>
<g>
	<path class="st1" d="M1015.68,385.99l-17.53,0.37l-8.9,0.15c-2.97,0.06-5.96,0.05-8.94,0.07l-0.59,0l0-0.6l-0.07-14.95l0-0.67
		l0.67,0l17.68,0.08c5.89,0.01,11.79,0.15,17.68,0.22l0.37,0l0,0.36c-0.03,2.54-0.11,5.06-0.17,7.55L1015.68,385.99z
		 M1015.68,385.99l-0.19-7.55c-0.06-2.49-0.15-4.95-0.17-7.39l0.36,0.36c-5.89,0.07-11.79,0.21-17.68,0.22l-17.68,0.08l0.67-0.67
		l-0.07,14.95l-0.6-0.6c2.91,0.02,5.82,0.01,8.74,0.07l8.79,0.15L1015.68,385.99z"/>
	<path class="st1" d="M995.95,404.83l-17.53,0.37l-8.9,0.15c-2.97,0.06-5.96,0.05-8.94,0.07l-0.59,0l0-0.6l-0.07-14.95l0-0.67
		l0.67,0l17.68,0.08c5.89,0.01,11.79,0.15,17.68,0.22l0.37,0l0,0.36c-0.02,2.54-0.11,5.06-0.17,7.55L995.95,404.83z M995.95,404.83
		l-0.19-7.55c-0.06-2.49-0.15-4.95-0.17-7.39l0.36,0.36c-5.89,0.07-11.79,0.21-17.68,0.22l-17.68,0.08l0.67-0.67l-0.07,14.95
		l-0.6-0.6c2.91,0.02,5.82,0.01,8.74,0.07l8.79,0.15L995.95,404.83z"/>
	<path class="st1" d="M1035.41,404.83l-17.53,0.37l-8.9,0.15c-2.97,0.06-5.96,0.05-8.94,0.07l-0.59,0l0-0.6l-0.07-14.95l0-0.67
		l0.67,0l17.68,0.08c5.89,0.01,11.79,0.15,17.68,0.22l0.37,0l0,0.36c-0.03,2.54-0.11,5.06-0.17,7.55L1035.41,404.83z
		 M1035.41,404.83l-0.19-7.55c-0.06-2.49-0.15-4.95-0.17-7.39l0.36,0.36c-5.89,0.07-11.79,0.21-17.68,0.22l-17.68,0.08l0.67-0.67
		l-0.07,14.95l-0.6-0.6c2.91,0.02,5.82,0.01,8.74,0.07l8.79,0.15L1035.41,404.83z"/>
	<path class="st1" d="M511.36,208.13l-17.53,0.37l-8.9,0.15c-2.97,0.06-5.96,0.05-8.94,0.07l-0.59,0l0-0.6l-0.07-14.95l0-0.67
		l0.67,0l17.68,0.08c5.89,0.01,11.79,0.15,17.68,0.22l0.37,0l0,0.36c-0.02,2.54-0.11,5.06-0.17,7.55L511.36,208.13z M511.36,208.13
		l-0.19-7.55c-0.06-2.49-0.15-4.95-0.17-7.39l0.36,0.36c-5.89,0.07-11.79,0.21-17.68,0.22l-17.68,0.08l0.67-0.67l-0.07,14.95
		l-0.6-0.6c2.91,0.02,5.82,0.01,8.74,0.07l8.79,0.15L511.36,208.13z"/>
	<path class="st1" d="M491.63,226.98l-17.53,0.37l-8.9,0.15c-2.97,0.06-5.96,0.05-8.94,0.07l-0.59,0l0-0.6l-0.07-14.95l0-0.67
		l0.67,0l17.68,0.08c5.89,0.01,11.79,0.15,17.68,0.22l0.37,0l0,0.36c-0.02,2.54-0.11,5.06-0.17,7.55L491.63,226.98z M491.63,226.98
		l-0.19-7.55c-0.06-2.49-0.15-4.95-0.17-7.39l0.36,0.36c-5.89,0.07-11.79,0.21-17.68,0.22l-17.68,0.08l0.67-0.67l-0.07,14.95
		l-0.6-0.6c2.91,0.02,5.82,0.01,8.74,0.07l8.79,0.15L491.63,226.98z"/>
	<path class="st1" d="M531.09,226.98l-17.53,0.37l-8.9,0.15c-2.97,0.06-5.96,0.05-8.94,0.07l-0.59,0l0-0.6l-0.07-14.95l0-0.67
		l0.67,0l17.68,0.08c5.89,0.01,11.79,0.15,17.68,0.22l0.37,0l0,0.36c-0.02,2.54-0.11,5.06-0.17,7.55L531.09,226.98z M531.09,226.98
		l-0.19-7.55c-0.06-2.49-0.15-4.95-0.17-7.39l0.36,0.36c-5.89,0.07-11.79,0.21-17.68,0.22l-17.68,0.08l0.67-0.67l-0.07,14.95
		l-0.6-0.6c2.91,0.02,5.82,0.01,8.74,0.07l8.79,0.15L531.09,226.98z"/>
	<path class="st1" d="M222.98,307.02l-17.53,0.37l-8.9,0.15c-2.97,0.06-5.96,0.05-8.94,0.07l-0.59,0l0-0.6l-0.07-14.95l0-0.67
		l0.67,0l17.68,0.08c5.89,0.01,11.79,0.15,17.68,0.22l0.37,0l0,0.36c-0.02,2.54-0.11,5.06-0.17,7.55L222.98,307.02z M222.98,307.02
		l-0.19-7.55c-0.06-2.49-0.15-4.95-0.17-7.39l0.36,0.36c-5.89,0.07-11.79,0.21-17.68,0.22l-17.68,0.08l0.67-0.67l-0.07,14.95
		l-0.6-0.6c2.91,0.02,5.82,0.01,8.74,0.07l8.79,0.15L222.98,307.02z"/>
	<path class="st1" d="M809.31,208.12l-17.53,0.37l-8.9,0.15c-2.97,0.06-5.96,0.05-8.94,0.07l-0.59,0l0-0.6l-0.07-14.95l0-0.67
		l0.67,0l17.68,0.08c5.89,0.01,11.79,0.15,17.68,0.22l0.37,0l0,0.36c-0.02,2.54-0.11,5.06-0.17,7.55L809.31,208.12z M809.31,208.12
		l-0.19-7.55c-0.06-2.49-0.15-4.95-0.17-7.39l0.36,0.36c-5.89,0.07-11.79,0.21-17.68,0.22l-17.68,0.08l0.67-0.67l-0.07,14.95
		l-0.6-0.6c2.91,0.02,5.82,0.01,8.74,0.07l8.79,0.15L809.31,208.12z"/>
	<path class="st1" d="M1013.63,62.96l-17.53,0.37l-8.9,0.15c-2.97,0.06-5.96,0.05-8.94,0.07l-0.59,0l0-0.6l-0.07-14.95l0-0.67
		l0.67,0l17.68,0.08c5.89,0.01,11.79,0.15,17.68,0.22l0.37,0l0,0.36c-0.02,2.54-0.11,5.06-0.17,7.55L1013.63,62.96z M1013.63,62.96
		l-0.19-7.55c-0.06-2.49-0.15-4.95-0.17-7.39l0.36,0.36c-5.89,0.07-11.79,0.21-17.68,0.22l-17.68,0.08l0.67-0.67l-0.07,14.95
		l-0.6-0.6c2.91,0.02,5.82,0.01,8.74,0.07l8.79,0.15L1013.63,62.96z"/>
	<path class="st1" d="M1033.36,81.81l-17.53,0.37l-8.9,0.15c-2.97,0.06-5.96,0.05-8.94,0.07l-0.59,0l0-0.6l-0.07-14.95l0-0.67
		l0.67,0l17.68,0.08c5.89,0.01,11.79,0.15,17.68,0.22l0.37,0l0,0.36c-0.03,2.54-0.11,5.06-0.17,7.55L1033.36,81.81z M1033.36,81.81
		l-0.19-7.55c-0.06-2.49-0.15-4.95-0.17-7.39l0.36,0.36c-5.89,0.07-11.79,0.21-17.68,0.22l-17.68,0.08l0.67-0.67l-0.07,14.95
		l-0.6-0.6c2.91,0.02,5.82,0.01,8.74,0.07l8.79,0.15L1033.36,81.81z"/>
	<path class="st1" d="M183.52,62.98l-17.53,0.37l-8.9,0.15c-2.97,0.06-5.96,0.05-8.94,0.07l-0.59,0l0-0.6l-0.07-14.95l0-0.67l0.67,0
		l17.68,0.08c5.89,0.01,11.79,0.15,17.68,0.22l0.37,0l0,0.36c-0.02,2.54-0.11,5.06-0.17,7.55L183.52,62.98z M183.52,62.98
		l-0.19-7.55c-0.06-2.49-0.15-4.95-0.17-7.39l0.36,0.36c-5.89,0.07-11.79,0.21-17.68,0.22l-17.68,0.08l0.67-0.67l-0.07,14.95
		l-0.6-0.6c2.91,0.02,5.82,0.01,8.74,0.07l8.79,0.15L183.52,62.98z"/>
</g>
<g>
	<polygon class="st2" points="54.68,462.87 297.33,462.87 248.95,181.43 67.5,181.43 	"/>
	<polygon class="st3" points="54.68,462.87 75.95,462.87 87.89,181.43 67.5,181.43 	"/>
</g>
<polygon class="st4" points="54.56,462.32 181.45,462.08 308.33,461.99 562.1,461.83 815.87,461.99 942.75,462.08 1069.64,462.32 
	942.75,462.57 815.87,462.66 562.1,462.82 308.33,462.66 181.45,462.57 "/>
<g>
	<g>
		<path class="st5" d="M261.36,135.86l62.27-22.36c-4.07,48.61-8.04,98.41,4.89,145.44c1.4,5.09,2.63,11.46-1.42,14.85
			c-2.42,2.03-5.88,2.09-9.04,2c-6.46-0.2-12.92-0.67-19.34-1.42c-6.84-0.79-14.14-2.13-19.01-7c-4.08-4.08-5.73-9.94-7.11-15.55
			C263.34,213.96,259.54,174.78,261.36,135.86z"/>
	</g>
	<g>
		<g>
			<path class="st6" d="M363.37,336.47l-7.38-9.68l-4.94-25.88l-11.23-62.95c0,0-4.95-23.68-20.22-30.47l-3.24,62.91l31.15,79.04
				L363.37,336.47z"/>
		</g>
		<g>
			<path class="st6" d="M296.41,190.39l9.18,10.87l14,6.22c0,0,30.82,58.89,31.64,59.44c0.83,0.55,5.78,17.34,3.03,31.64
				c-2.75,14.31-4.68,33.02-4.4,46.5c0.28,13.48,17.89,57.79,18.99,67.97c1.1,10.18,4.68,49.53,4.68,49.53l-155.75-1.18
				c0,0,1.38-11.2,5.78-29.36c0,0,0.55-39.07,6.33-46.5c0,0-4.4-10.18-3.85-15.96c0.55-5.78-23.11-36.6-27.79-47.33
				c-4.68-10.73-23.11-35.22-23.39-52.83c-0.28-17.61,2.48-32.47,11.28-44.58c8.81-12.11,24.77-20.36,31.37-24.77l12.93-16.51
				L296.41,190.39z"/>
		</g>
		<g>
			<g>
				<path class="st5" d="M351.93,462.57c0.01,0,0.01-0.16,0-0.47c-0.01-0.34-0.03-0.8-0.05-1.38c-0.05-1.25-0.13-3.03-0.23-5.3
					c-0.19-4.64-0.47-11.29-0.81-19.5c-0.14-4.12-0.29-8.63-0.35-13.47c-0.03-2.42-0.03-4.92,0.05-7.49
					c0.09-2.61-0.25-5.29-0.8-7.97c-1.1-5.37-3.1-10.77-5.09-16.34c-0.98-2.79-2.02-5.63-2.69-8.58c-0.34-1.46-0.44-2.99-0.6-4.54
					c-0.15-1.54-0.31-3.1-0.47-4.66c-0.63-6.26-1.24-12.36-1.83-18.26c-0.3-2.95-0.59-5.85-0.88-8.68
					c-0.25-2.84-0.65-5.61-0.74-8.33c-0.63-10.9-2.35-20.6-3.92-28.69c-1.59-8.09-3.05-14.6-3.99-19.11
					c-0.47-2.23-0.83-3.97-1.08-5.19c-0.12-0.57-0.22-1.02-0.29-1.35c-0.07-0.3-0.11-0.46-0.12-0.46c-0.01,0,0.01,0.16,0.06,0.47
					c0.06,0.34,0.13,0.79,0.23,1.36c0.23,1.23,0.55,2.98,0.97,5.22c0.87,4.53,2.26,11.05,3.79,19.14
					c1.51,8.09,3.18,17.77,3.78,28.64c0.08,2.73,0.47,5.5,0.72,8.34c0.28,2.84,0.57,5.74,0.86,8.69c0.59,5.9,1.2,12.01,1.82,18.27
					c0.16,1.56,0.31,3.12,0.47,4.66c0.16,1.53,0.26,3.09,0.62,4.62c0.69,3.02,1.73,5.86,2.72,8.66c1.99,5.58,4,10.94,5.1,16.26
					c0.55,2.65,0.89,5.28,0.81,7.83c-0.08,2.59-0.06,5.1-0.02,7.52c0.08,4.85,0.26,9.36,0.42,13.48c0.35,8.23,0.73,14.89,1,19.49
					c0.15,2.27,0.27,4.05,0.35,5.3c0.05,0.58,0.08,1.04,0.11,1.38C351.9,462.41,351.92,462.57,351.93,462.57z"/>
			</g>
		</g>
		<g>
			<path class="st7" d="M327.69,282.3c0-1.26-5.52-22.6-17.08-40.43c-11.55-17.83-14.06-33.4-14.06-33.4l-0.18-23.02l-0.99,2.97
				l-58.55-8.49l-1.77,8.46l39.12,35.41c0,0,18.1,3.52,18.86,4.02C293.79,228.31,327.69,282.3,327.69,282.3z"/>
		</g>
		<g>
			<g>
				<path class="st5" d="M217.51,200.06c-0.02,0.01,0.16,0.29,0.52,0.82c0.36,0.52,0.88,1.3,1.58,2.27
					c1.39,1.96,3.45,4.77,6.08,8.18c2.62,3.41,5.81,7.42,9.24,11.94c1.72,2.26,3.49,4.66,5.29,7.17c0.45,0.62,0.89,1.29,1.47,1.88
					c0.57,0.58,1.34,1.11,2.25,1.17c0.91,0.06,1.74-0.3,2.46-0.7c0.72-0.42,1.39-0.87,2.08-1.31c2.76-1.77,5.45-3.5,8.06-5.18
					c1.3-0.83,2.58-1.68,3.83-2.45c1.24-0.75,2.6-1.32,3.94-1.15c1.34,0.15,2.52,0.9,3.59,1.68c1.06,0.8,2.11,1.62,3.21,2.28
					c2.19,1.33,4.42,2.22,6.53,2.72c4.23,1.02,7.82,0.74,10.17,0.23c0.59-0.12,1.11-0.24,1.56-0.38c0.45-0.12,0.82-0.24,1.12-0.36
					c0.6-0.22,0.9-0.35,0.9-0.37c-0.01-0.02-0.33,0.07-0.93,0.25c-0.3,0.1-0.68,0.19-1.13,0.3c-0.45,0.12-0.97,0.23-1.56,0.32
					c-2.34,0.43-5.88,0.64-10.02-0.42c-2.06-0.52-4.25-1.42-6.37-2.73c-1.06-0.66-2.07-1.46-3.15-2.29
					c-1.09-0.79-2.33-1.62-3.84-1.81c-1.53-0.2-3.02,0.45-4.3,1.21c-1.29,0.78-2.54,1.61-3.85,2.44c-2.61,1.67-5.3,3.4-8.07,5.17
					c-1.38,0.83-2.71,2-4.16,1.92c-0.71-0.05-1.34-0.46-1.86-0.99c-0.53-0.53-0.96-1.17-1.42-1.8c-1.81-2.51-3.6-4.91-5.33-7.16
					c-3.46-4.51-6.69-8.49-9.35-11.87c-2.67-3.37-4.78-6.13-6.23-8.05c-0.7-0.92-1.26-1.66-1.67-2.21
					C217.73,200.3,217.52,200.04,217.51,200.06z"/>
			</g>
		</g>
		<g>
			<g>
				<path class="st5" d="M305.59,267.23c0.04-0.02-0.28-0.61-0.87-1.66c-0.59-1.05-1.49-2.55-2.64-4.39
					c-2.29-3.67-5.62-8.64-9.6-13.9c-3.99-5.26-7.86-9.82-10.77-13.02c-1.45-1.6-2.65-2.87-3.51-3.73
					c-0.85-0.86-1.33-1.32-1.36-1.29c-0.03,0.03,0.39,0.55,1.19,1.46c0.86,0.99,1.99,2.29,3.36,3.86c2.82,3.27,6.63,7.85,10.61,13.1
					c3.97,5.25,7.35,10.17,9.72,13.77c1.14,1.74,2.08,3.18,2.8,4.28C305.18,266.7,305.56,267.25,305.59,267.23z"/>
			</g>
		</g>
		<g>
			<g>
				<path class="st5" d="M300.54,271.74c0-0.01-0.08,0-0.23,0.03c-0.17,0.04-0.39,0.08-0.67,0.14c-0.62,0.13-1.48,0.32-2.6,0.56
					c-2.28,0.49-5.61,1.22-9.88,2.08c-2.13,0.43-4.49,0.89-7.07,1.33c-1.29,0.22-2.63,0.42-4.04,0.63c-1.4,0.24-2.84,0.56-4.31,0.94
					c-2.94,0.76-6.02,1.74-9.23,2.86c-1.6,0.57-3.24,1.17-4.91,1.82c-0.83,0.33-1.67,0.66-2.51,1.02c-0.42,0.19-0.84,0.37-1.27,0.56
					l-0.63,0.31c-0.11,0.05-0.21,0.11-0.32,0.17c-0.05,0.03-0.11,0.06-0.17,0.11l-0.09,0.06c-0.05,0.03-0.14,0.18-0.14,0.27l0,0.03
					l0.01,0.05c3.62,11.56,7.81,24.92,12.28,39.2l0.01,0.03l0.01,0.02c0.64,1.23,1.42,2.43,2.3,3.58c0.9,1.14,1.88,2.26,3.1,3.17
					c0.43,0.31,0.91,0.59,1.43,0.78l1.46,0.49c0.97,0.33,1.93,0.65,2.89,0.98c1.92,0.65,3.83,1.29,5.71,1.92
					c3.77,1.27,7.45,2.51,11.02,3.71l0.17,0.06l0.13-0.12c3.98-3.69,7.83-7.27,11.53-10.69c0.92-0.86,1.84-1.7,2.74-2.54
					c0.89-0.84,1.82-1.64,2.62-2.58c0.81-0.93,1.39-2.1,1.56-3.31c0.19-1.2,0.09-2.4-0.08-3.53c-1.57-9.01-3.35-16.9-4.96-23.44
					c-1.62-6.54-3.09-11.71-4.14-15.25c-0.54-1.74-0.95-3.1-1.25-4.05c-0.14-0.44-0.26-0.78-0.34-1.04
					C300.59,271.86,300.55,271.74,300.54,271.74c-0.01,0,0.02,0.13,0.08,0.36c0.07,0.26,0.17,0.61,0.29,1.05
					c0.27,0.96,0.66,2.32,1.15,4.07c0.99,3.55,2.41,8.74,3.97,15.28c1.55,6.54,3.29,14.45,4.82,23.42c0.16,1.11,0.25,2.26,0.07,3.38
					c-0.17,1.12-0.69,2.16-1.45,3.04c-0.76,0.89-1.69,1.68-2.58,2.53c-0.9,0.84-1.82,1.68-2.75,2.53
					c-3.7,3.42-7.56,6.98-11.55,10.67l0.3-0.06c-3.57-1.21-7.25-2.45-11.01-3.72c-1.88-0.64-3.79-1.28-5.71-1.93
					c-0.96-0.32-1.93-0.65-2.89-0.98l-1.46-0.49c-0.45-0.16-0.86-0.4-1.27-0.69c-1.14-0.85-2.11-1.94-2.98-3.05
					c-0.87-1.12-1.63-2.29-2.24-3.48l0.02,0.05c-4.5-14.27-8.71-27.62-12.35-39.17l-0.23,0.08c6.8-2.82,13.27-5.21,19.1-6.76
					c1.46-0.39,2.88-0.72,4.27-0.96c1.39-0.22,2.75-0.43,4.04-0.66c2.58-0.46,4.94-0.95,7.07-1.4c4.26-0.9,7.58-1.68,9.85-2.22
					c1.11-0.27,1.97-0.49,2.58-0.64c0.27-0.07,0.49-0.13,0.66-0.18C300.47,271.78,300.54,271.75,300.54,271.74z"/>
			</g>
		</g>
		<g class="st8">
			<g>
				<path d="M299.25,407.52c13.62-2.06,32.53-7.74,48.05-10.98c5.54-1.16,10.33-2.5,15.88-3.65l1,3.08
					c-15.89,3.5-30.77,8.73-45.26,16.14c-8.61,4.41-17.14,9.56-26.72,10.96c-10.71,1.57-21.47-1.72-31.79-4.98
					c-5.82-1.84-11.92-3.85-16.08-8.32c-2.93-3.16-4.6-7.25-6.13-11.27c-4.06-10.64-7.62-21.47-10.65-32.45
					C246.03,386.8,271.77,411.68,299.25,407.52z"/>
			</g>
		</g>
		<g>
			<g>
				<path class="st6" d="M235.06,273.53l39.12,71.95c0,0,9.09,1.83,9.09,11.43c0,0,3.16-2.53,7.75,0.2
					c2.95,1.75,11.27,4.09,15.86,6.55c2.27,1.21,3.39,3.82,2.71,6.3l-12.14,44.12c0,0-14.76,0-16.07-3.66l-20.22-6.33
					c0,0-13.07-3.46-18.1-12.15c-5.03-8.69-35.2-53.64-35.2-53.64"/>
			</g>
			<g>
				<g>
					<path class="st5" d="M207.86,338.3c0,0,0.08,0.16,0.27,0.45c0.2,0.31,0.48,0.74,0.84,1.3c0.76,1.15,1.86,2.83,3.29,5
						c2.89,4.37,7.07,10.72,12.33,18.68c2.62,4,5.51,8.4,8.63,13.16c3.1,4.78,6.46,9.91,9.82,15.47c1.74,2.82,4.28,5.18,7.18,7.05
						c2.89,1.91,6.14,3.39,9.57,4.55c6.88,2.16,14.06,4.41,21.5,6.74l-0.19-0.18c0.3,0.75,0.93,1.22,1.54,1.57
						c0.63,0.35,1.29,0.6,1.97,0.81c1.35,0.42,2.75,0.67,4.16,0.88c2.83,0.39,5.73,0.57,8.67,0.61l0.23,0l0.06-0.22
						c2.21-8.01,4.51-16.37,6.85-24.89c1.23-4.49,2.45-8.92,3.66-13.3c0.59-2.21,1.23-4.32,1.76-6.57c0.41-2.35-0.83-4.83-2.88-5.94
						c-3.97-2.07-8.13-3.33-12.09-4.87c-0.99-0.38-1.97-0.77-2.9-1.22c-0.91-0.43-1.83-1.04-2.86-1.38
						c-2.03-0.71-4.39-0.57-6.19,0.7l0.47,0.22c-0.03-2.76-0.82-5.59-2.63-7.63c-1.76-2.08-4.16-3.43-6.69-4.07l0.19,0.14
						c-11.69-21.4-21.5-39.36-28.4-52c-3.45-6.29-6.18-11.24-8.05-14.65c-0.93-1.68-1.65-2.97-2.15-3.86
						c-0.24-0.42-0.43-0.75-0.56-0.99c-0.13-0.22-0.2-0.33-0.2-0.33s0.05,0.12,0.16,0.35c0.13,0.24,0.3,0.58,0.52,1.01
						c0.48,0.9,1.17,2.21,2.07,3.9c1.84,3.42,4.52,8.41,7.92,14.72c6.85,12.66,16.6,30.66,28.2,52.1l0.06,0.1l0.13,0.03
						c2.38,0.6,4.72,1.92,6.37,3.89c1.71,1.94,2.46,4.62,2.49,7.27l0.01,0.55l0.46-0.32c1.57-1.1,3.77-1.27,5.65-0.59
						c0.96,0.31,1.8,0.88,2.79,1.35c0.96,0.46,1.95,0.86,2.95,1.24c3.96,1.55,8.14,2.83,12,4.85c1.84,1,2.94,3.22,2.58,5.32
						c-0.5,2.11-1.17,4.32-1.75,6.5c-1.21,4.38-2.43,8.82-3.66,13.3c-2.35,8.53-4.64,16.88-6.85,24.9l0.29-0.22
						c-2.91-0.03-5.8-0.21-8.59-0.59c-1.39-0.2-2.77-0.45-4.07-0.85c-0.65-0.2-1.28-0.44-1.85-0.76c-0.56-0.31-1.07-0.73-1.28-1.25
						l-0.06-0.14l-0.13-0.04c-7.44-2.32-14.63-4.56-21.51-6.7c-3.39-1.14-6.61-2.6-9.46-4.47c-2.86-1.84-5.35-4.14-7.04-6.87
						c-3.38-5.57-6.76-10.68-9.88-15.45c-3.14-4.75-6.05-9.14-8.69-13.13c-5.32-7.92-9.55-14.23-12.47-18.59
						c-1.46-2.14-2.59-3.8-3.37-4.94c-0.38-0.55-0.67-0.97-0.88-1.27C207.97,338.44,207.86,338.3,207.86,338.3z"/>
				</g>
			</g>
		</g>
		<g>
			<g>
				<path class="st0" d="M229.03,368.37c0.02,0,0.1-0.23,0.22-0.69c0.13-0.52,0.31-1.19,0.52-2.01c0.45-1.83,1.07-4.34,1.83-7.41
					c1.54-6.25,3.72-14.88,6.28-24.37c2.57-9.49,5.03-18.04,6.85-24.22c0.89-3.03,1.62-5.51,2.15-7.32c0.23-0.82,0.42-1.48,0.57-2
					c0.12-0.46,0.18-0.7,0.16-0.71c-0.02-0.01-0.11,0.22-0.28,0.67c-0.18,0.51-0.4,1.16-0.68,1.96c-0.58,1.71-1.38,4.19-2.34,7.26
					c-1.93,6.15-4.46,14.69-7.03,24.18c-2.57,9.49-4.68,18.14-6.11,24.43c-0.72,3.14-1.28,5.69-1.64,7.45
					c-0.17,0.83-0.3,1.51-0.4,2.04C229.05,368.12,229.01,368.37,229.03,368.37z"/>
			</g>
		</g>
		<g>
			<g>
				<path class="st0" d="M243.3,390.86c0.17,0.03,3.43-17.01,7.29-38.07c3.86-21.06,6.86-38.15,6.69-38.18
					c-0.17-0.03-3.43,17.01-7.3,38.07C246.13,373.74,243.13,390.83,243.3,390.86z"/>
			</g>
		</g>
		<g>
			<g>
				<path class="st0" d="M307.7,291c-0.1,0.14,5.64,4.21,12.8,9.08c7.17,4.88,13.05,8.71,13.15,8.57c0.1-0.14-5.64-4.2-12.8-9.08
					C313.68,294.7,307.79,290.86,307.7,291z"/>
			</g>
		</g>
		<g>
			<g>
				<path class="st0" d="M311.5,306.36c-0.03,0.03,0.27,0.35,0.85,0.89c0.57,0.54,1.41,1.31,2.47,2.25
					c2.11,1.87,5.08,4.38,8.45,7.06c3.37,2.68,6.49,5.01,8.78,6.64c1.15,0.82,2.09,1.47,2.74,1.9c0.66,0.43,1.03,0.66,1.06,0.62
					c0.02-0.03-0.3-0.32-0.92-0.82c-0.73-0.57-1.6-1.25-2.63-2.05c-2.23-1.72-5.3-4.1-8.66-6.77c-3.36-2.67-6.37-5.13-8.55-6.91
					c-1.01-0.82-1.87-1.52-2.59-2.1C311.89,306.58,311.53,306.33,311.5,306.36z"/>
			</g>
		</g>
		<g>
			<g>
				<path class="st0" d="M337.07,308.02c0.14,0.1,4.23-5.27,9.13-11.99c4.91-6.72,8.78-12.25,8.64-12.35
					c-0.14-0.1-4.23,5.27-9.13,11.99C340.8,302.39,336.93,307.92,337.07,308.02z"/>
			</g>
		</g>
		<g>
			<g>
				<path class="st0" d="M339.12,328.63c0.06,0.06,0.87-0.62,2.09-1.81c1.22-1.19,2.84-2.89,4.52-4.88
					c1.68-1.99,3.09-3.87,4.05-5.28c0.97-1.4,1.5-2.31,1.43-2.36c-0.07-0.05-0.73,0.77-1.78,2.1c-1.05,1.33-2.51,3.16-4.17,5.14
					c-1.67,1.97-3.23,3.72-4.37,4.98C339.75,327.78,339.05,328.57,339.12,328.63z"/>
			</g>
		</g>
		<g>
			<g>
				<path class="st0" d="M232.19,218.27c0.05,0.07,1.14-0.7,2.89-1.95c1.9-1.37,4.22-3.06,6.8-4.92c2.64-1.94,5.02-3.73,6.7-5.07
					c1.68-1.34,2.68-2.23,2.63-2.29c-0.05-0.07-1.14,0.7-2.89,1.95c-1.9,1.37-4.22,3.06-6.8,4.92c-2.64,1.94-5.01,3.73-6.7,5.07
					C233.13,217.31,232.14,218.2,232.19,218.27z"/>
			</g>
		</g>
		<g>
			<g>
				<path class="st0" d="M226.83,210.85c0.11,0.13,3.91-2.85,8.49-6.65c4.58-3.8,8.21-6.99,8.1-7.12c-0.11-0.13-3.91,2.85-8.49,6.65
					C230.35,207.53,226.72,210.72,226.83,210.85z"/>
			</g>
		</g>
		<g>
			<g>
				<path class="st0" d="M283.32,285.39c-0.17,0.03,1.93,11.71,4.68,26.08c2.75,14.38,5.12,26,5.29,25.97
					c0.17-0.03-1.93-11.71-4.68-26.08C285.85,296.99,283.48,285.36,283.32,285.39z"/>
			</g>
		</g>
		<g>
			<g>
				<path class="st5" d="M253.55,372.94c0.02,0.04,0.38-0.14,1.02-0.48c0.64-0.34,1.54-0.88,2.62-1.59c2.17-1.42,5.03-3.6,7.83-6.4
					c2.8-2.81,4.99-5.66,6.41-7.83c0.71-1.08,1.25-1.98,1.59-2.62c0.34-0.64,0.51-1,0.48-1.02c-0.09-0.05-0.92,1.31-2.42,3.4
					c-1.5,2.09-3.71,4.87-6.48,7.64c-2.77,2.77-5.56,4.98-7.65,6.48C254.86,372.01,253.5,372.85,253.55,372.94z"/>
			</g>
		</g>
		<g>
			<g>
				<path class="st5" d="M252.27,350.36c-0.01,0.07,1.25,0.38,3.34,0.61c2.08,0.23,5,0.32,8.19-0.02c3.19-0.34,6.03-1.04,8.02-1.7
					c1.99-0.66,3.16-1.23,3.14-1.29c-0.03-0.09-1.26,0.33-3.26,0.88c-2,0.55-4.81,1.17-7.96,1.51c-3.15,0.33-6.02,0.31-8.09,0.19
					C253.56,350.43,252.28,350.27,252.27,350.36z"/>
			</g>
		</g>
		<g>
			<g>
				<path class="st5" d="M336.33,238.6c-0.01,0,0.02,0.1,0.09,0.28c0.08,0.21,0.18,0.48,0.31,0.8c0.26,0.71,0.71,1.72,1.31,3.02
					c1.2,2.6,3.21,6.22,5.82,10.62c2.56,4.4,5.78,9.6,8.09,15.92c0.14,0.4,0.28,0.79,0.43,1.19c0.11,0.41,0.23,0.82,0.34,1.23
					c0.23,0.83,0.46,1.67,0.69,2.51c0.27,0.84,0.41,1.72,0.55,2.6c0.15,0.88,0.3,1.78,0.45,2.68c0.21,1.81,0.33,3.67,0.44,5.55
					c0,0.94,0,1.9-0.01,2.85c0.01,0.96,0,1.92-0.09,2.89c-0.44,7.76-1.85,15.06-3.02,21.71c-1.2,6.65-2.12,12.68-2.42,17.79
					c-0.24,2.55-0.12,4.87-0.15,6.91c0.16,2.03,0.25,3.78,0.43,5.2c0.24,1.37,0.44,2.45,0.58,3.24c0.07,0.34,0.12,0.61,0.16,0.84
					c0.04,0.19,0.07,0.28,0.08,0.28c0.01,0,0.01-0.1-0.02-0.29c-0.03-0.23-0.06-0.51-0.1-0.85c-0.11-0.79-0.27-1.88-0.46-3.25
					c-0.14-1.42-0.2-3.16-0.33-5.18c0.07-2.02-0.02-4.33,0.24-6.87c0.35-5.08,1.31-11.09,2.54-17.72c1.2-6.64,2.63-13.96,3.07-21.78
					c0.09-0.97,0.1-1.95,0.09-2.91c0-0.97,0-1.93,0-2.88c-0.11-1.9-0.23-3.78-0.45-5.61c-0.15-0.91-0.31-1.81-0.46-2.71
					c-0.14-0.9-0.29-1.78-0.56-2.63c-0.24-0.86-0.47-1.7-0.71-2.54c-0.12-0.42-0.24-0.83-0.35-1.25c-0.15-0.4-0.29-0.81-0.44-1.2
					c-2.36-6.38-5.64-11.58-8.25-15.95c-2.65-4.36-4.71-7.94-5.97-10.5c-0.63-1.28-1.11-2.28-1.41-2.97
					c-0.15-0.31-0.27-0.57-0.36-0.77C336.39,238.69,336.34,238.6,336.33,238.6z"/>
			</g>
		</g>
		<g>
			<g>
				<path class="st5" d="M296.41,190.39c-0.01,0.01,0.04,0.09,0.14,0.25c0.13,0.18,0.28,0.41,0.47,0.69
					c0.42,0.61,1.08,1.46,1.97,2.55c1.77,2.17,4.47,5.21,7.86,8.94c1.69,1.88,3.54,3.93,5.53,6.14c1.96,2.23,4.07,4.63,6.05,7.33
					c3.85,5.46,6.47,12.61,7.61,20.35l0.58-0.17c-0.85-1.79-2.09-3.43-3.3-5.11c-0.63-0.87-1.26-1.72-1.86-2.59
					c-0.3-0.43-0.58-0.87-0.85-1.32l-0.39-0.67l-0.18-0.34l-0.09-0.17l-0.04-0.09c-0.02-0.03,0.02,0.02-0.07-0.11
					c-0.08-0.09-0.22-0.13-0.32-0.11c-0.11,0.02-0.21,0.09-0.26,0.19l-0.03,0.06l-0.04,0.09l-0.07,0.19l-0.14,0.38
					c-0.1,0.25-0.18,0.5-0.24,0.76c-0.15,0.51-0.26,1.03-0.34,1.55c-0.17,1.04-0.22,2.08-0.2,3.1c0.1,4.11,1.16,7.92,1.93,11.54
					c1.38,7.34,3.89,13.61,5.38,19.01c1.57,5.39,2.18,9.91,2.18,13.05c0.02,1.57-0.09,2.78-0.17,3.6c-0.04,0.38-0.08,0.69-0.11,0.93
					c-0.02,0.21-0.03,0.32-0.02,0.32c0,0,0.47-1.7,0.53-4.86c0.07-3.16-0.48-7.74-2-13.16c-1.45-5.45-3.91-11.7-5.25-19.01
					c-0.75-3.64-1.79-7.43-1.88-11.43c-0.02-1,0.03-2,0.2-3c0.07-0.5,0.18-0.99,0.33-1.48c0.06-0.25,0.14-0.49,0.23-0.72l0.13-0.36
					l0.07-0.18l0.03-0.09l0.01-0.02c-0.1-0.05,0.23,0.08-0.22-0.12c-0.01,0,0,0,0,0l0,0c0.2-0.09-0.28,0.13-0.23,0.12l0.01,0.02
					l0.05,0.09l0.09,0.18l0.18,0.36l0.4,0.69c0.28,0.46,0.57,0.9,0.87,1.34c0.6,0.88,1.23,1.74,1.87,2.61
					c1.21,1.67,2.44,3.31,3.25,5l0.88,1.83l-0.3-2c-1.16-7.83-3.82-15.04-7.77-20.58c-2.02-2.73-4.14-5.11-6.13-7.34
					c-1.99-2.22-3.88-4.25-5.59-6.09c-3.43-3.69-6.17-6.68-7.99-8.8c-0.91-1.06-1.6-1.89-2.05-2.47c-0.21-0.26-0.38-0.48-0.52-0.65
					C296.48,190.46,296.42,190.39,296.41,190.39z"/>
			</g>
		</g>
		<g>
			<g>
				<path class="st5" d="M293.97,358.19c-0.02-0.01-0.16,0.12-0.41,0.4c-0.3,0.33-0.66,0.74-1.09,1.23
					c-0.48,0.53-1.04,1.2-1.64,2.03c-0.6,0.82-1.33,1.72-2,2.81c-0.71,1.07-1.47,2.25-2.18,3.58c-0.77,1.29-1.45,2.76-2.19,4.28
					c-1.38,3.1-2.66,6.61-3.61,10.41c-0.91,3.81-1.4,7.52-1.61,10.9c-0.05,1.69-0.13,3.3-0.04,4.81c0.01,1.51,0.15,2.91,0.28,4.18
					c0.09,1.28,0.32,2.42,0.48,3.42c0.14,1.01,0.34,1.86,0.51,2.55c0.16,0.64,0.29,1.16,0.4,1.6c0.1,0.36,0.16,0.55,0.18,0.55
					c0.02-0.01,0-0.2-0.06-0.57c-0.08-0.44-0.17-0.97-0.29-1.62c-0.14-0.7-0.3-1.55-0.41-2.56c-0.12-1-0.32-2.14-0.38-3.41
					c-0.11-1.27-0.21-2.65-0.2-4.15c-0.07-1.49,0.03-3.09,0.1-4.77c0.24-3.35,0.74-7.02,1.64-10.79c0.94-3.76,2.2-7.24,3.53-10.32
					c0.72-1.52,1.37-2.98,2.12-4.27c0.68-1.33,1.42-2.51,2.1-3.59c0.64-1.1,1.35-2.01,1.92-2.85c0.56-0.84,1.1-1.53,1.55-2.08
					c0.4-0.52,0.73-0.95,1-1.3C293.88,358.37,293.99,358.2,293.97,358.19z"/>
			</g>
		</g>
		<g>
			<g>
				<path class="st5" d="M256.64,294.15c0.02,0.04,0.65-0.18,1.78-0.6c1.23-0.45,2.84-1.05,4.79-1.76c4.05-1.46,9.7-3.33,16.05-5.02
					c6.35-1.68,12.18-2.86,16.43-3.6c2.04-0.34,3.74-0.63,5.03-0.85c1.19-0.19,1.85-0.32,1.84-0.36c-0.01-0.04-0.67,0-1.87,0.13
					c-1.2,0.12-2.93,0.34-5.07,0.65c-4.27,0.63-10.14,1.75-16.51,3.44c-6.37,1.7-12.02,3.64-16.04,5.2
					c-2.01,0.78-3.63,1.45-4.73,1.95C257.23,293.82,256.63,294.11,256.64,294.15z"/>
			</g>
		</g>
		<g class="st8">
			<g>
				<path d="M263.01,377.07c0.77-1.63,2.05-2.95,3.32-4.24c5.77-5.87,11.12-11.32,16.89-17.19l0.06,1.27
					c-3.76,2.55-4.56,7.72-5.64,12.13c-1.08,4.41-2.02,9.13-5.09,12.47c-1.24,1.35-2.85,2.43-4.66,2.7
					c-1.81,0.26-3.82-0.43-4.82-1.97C262.08,380.73,262.24,378.7,263.01,377.07z"/>
			</g>
		</g>
		<g class="st8">
			<g>
				<path d="M286.21,336.3c1.86,0.67,3.85,1.36,5.77,0.91c1.7-0.4,3.07-1.62,4.36-2.8c4.68-4.27,9.36-8.54,14.04-12.81
					c-4.02,5.92-7.24,11.91-11.26,17.82c-1.08,1.59-2.28,3.28-4.08,3.93c-1.9,0.69-4,0.08-5.89-0.64
					c-6.73-2.58-12.89-6.65-17.9-11.83C276.24,332.69,281.23,334.49,286.21,336.3z"/>
			</g>
		</g>
		<g class="st8">
			<g>
				<path d="M303.86,263.69c-13.13-6.3-17.86-23.76-30.89-30.27c-7.44-3.72-16.92-2.96-23.68,1.9c-2.26,1.62-4.76,3.79-7.43,3.02
					c-2.02-0.58-3.19-2.63-4.14-4.5c-3.26-6.39-6.52-12.77-9.78-19.16c4.28,5.04,8.55,10.07,12.83,15.11
					c0.93,1.09,1.94,2.24,3.32,2.59c2.58,0.66,4.45-2.23,6.84-3.42c7.44-3.71,12.65-8.37,16.8-5.24c0,0,7.22,4.97,10.12,5.49
					l26.01,33.97"/>
			</g>
		</g>
		<g class="st8">
			<g>
				<path d="M326.22,276.48c1.09-5.79-0.2-12.17-2.59-17.55c-2.39-5.38-5.38-10.55-6.86-16.25c-1.17-4.54-1.34-9.34-0.48-13.95
					c0.4-2.16,1.03-4.37,0.56-6.51c-0.3-1.38-1.02-2.62-1.77-3.81c-2.96-4.75-6.4-9.2-10.24-13.28l-8.2-12.34
					c0,0-0.35,14.34-0.09,15.7c0.13,0.68,1.26,6.11,3.58,12.5c2.33,6.41,5.86,13.79,9.32,19.05c6.91,10.54,11.56,21.7,11.56,21.7
					L326.22,276.48z"/>
			</g>
		</g>
	</g>
	<g>
		<g>
			<g>
				<g>
					<g>
						<g>
							<g>
								<g>
									<g>
										<g>
											<g>
												<g>
													<g>
														<g>
															<path class="st7" d="M274.18,223.79c16.66-3.93,21.78-12.22,21.98-26.87c0.25-18.64,0.25-18.64,0.25-18.64
																s18.44-0.96,22.74-28.43c2.14-13.66,4-35.74,2.8-54.04c-1.07-16.47-18.19-45.52-34.6-43.74L242.29,74
																c-4.99,0.54-8.73,4.8-8.62,9.81l0,0l3.5,106.48"/>
														</g>
													</g>
												</g>
											</g>
										</g>
									</g>
								</g>
							</g>
						</g>
					</g>
				</g>
				<g>
					<g>
						<g>
							<g>
								<g>
									<g>
										<g>
											<g>
												<g>
													<g>
														<g>
															<g>
																<path class="st5" d="M314.91,116c0.07,1.86-1.45,3.45-3.39,3.56c-1.94,0.11-3.57-1.31-3.64-3.17
																	c-0.07-1.86,1.45-3.45,3.38-3.56C313.21,112.72,314.84,114.14,314.91,116z"/>
															</g>
														</g>
													</g>
												</g>
											</g>
										</g>
									</g>
								</g>
							</g>
						</g>
					</g>
				</g>
				<g>
					<g>
						<g>
							<g>
								<g>
									<g>
										<g>
											<g>
												<g>
													<g>
														<g>
															<g>
																<g>
																	<path class="st5" d="M317.1,108.41c-0.38,0.34-3.15-0.04-6.83,0.87c-3.68,0.88-6.2,2.54-6.64,2.4
																		c-0.21-0.06,0.14-0.59,1.23-1.33c1.08-0.73,2.97-1.65,5.26-2.21c2.29-0.55,4.3-0.58,5.49-0.4
																		C316.83,107.92,317.29,108.26,317.1,108.41z"/>
																</g>
															</g>
														</g>
													</g>
												</g>
											</g>
										</g>
									</g>
								</g>
							</g>
						</g>
					</g>
				</g>
				<g>
					<g>
						<g>
							<g>
								<g>
									<g>
										<g>
											<g>
												<g>
													<g>
														<g>
															<g>
																<path class="st5" d="M279.64,117.06c0.07,1.86-1.45,3.45-3.39,3.56c-1.94,0.11-3.57-1.31-3.64-3.17
																	c-0.07-1.86,1.45-3.45,3.38-3.56C277.94,113.78,279.57,115.2,279.64,117.06z"/>
															</g>
														</g>
													</g>
												</g>
											</g>
										</g>
									</g>
								</g>
							</g>
						</g>
					</g>
				</g>
				<g>
					<g>
						<g>
							<g>
								<g>
									<g>
										<g>
											<g>
												<g>
													<g>
														<g>
															<g>
																<g>
																	<path class="st5" d="M279.78,111.36c-0.55,0.14-2.98-1.73-6.96-2.78c-3.96-1.09-7.25-0.76-7.59-1.14
																		c-0.17-0.17,0.44-0.52,1.88-0.68c1.42-0.16,3.71-0.08,6.18,0.59c2.48,0.67,4.4,1.72,5.43,2.54
																		C279.78,110.73,280.04,111.31,279.78,111.36z"/>
																</g>
															</g>
														</g>
													</g>
												</g>
											</g>
										</g>
									</g>
								</g>
							</g>
						</g>
					</g>
				</g>
				<g>
					<g>
						<g>
							<g>
								<g>
									<g>
										<g>
											<g>
												<g>
													<g>
														<g>
															<g>
																<path class="st5" d="M293.69,136.33c-0.02-0.22,2.34-0.63,6.15-1.12c0.97-0.1,1.88-0.3,2.04-0.96
																	c0.23-0.7-0.18-1.74-0.65-2.87c-0.92-2.34-1.87-4.79-2.88-7.36c-4-10.48-6.89-19.1-6.47-19.26
																	c0.42-0.16,4.01,8.21,8,18.69c0.96,2.59,1.88,5.05,2.76,7.41c0.37,1.1,1,2.34,0.51,3.8
																	c-0.26,0.72-0.97,1.25-1.59,1.42c-0.62,0.19-1.16,0.2-1.64,0.23C296.09,136.52,293.71,136.55,293.69,136.33z"/>
															</g>
														</g>
													</g>
												</g>
											</g>
										</g>
									</g>
								</g>
							</g>
						</g>
					</g>
				</g>
				<g>
					<g>
						<g>
							<g>
								<g>
									<g>
										<g>
											<g>
												<g>
													<g>
														<g>
															<path class="st9" d="M296.41,178.54c0,0-18.47,1.23-36.79-9.73c0,0,9.32,19.36,36.79,16.73V178.54z"/>
														</g>
													</g>
												</g>
											</g>
										</g>
									</g>
								</g>
							</g>
						</g>
					</g>
				</g>
				<g>
					<g>
						<g>
							<g>
								<g>
									<g>
										<g>
											<g>
												<g>
													<g>
														<g>
															<path class="st9" d="M293.09,145.54c-1.88-2.81-4.72-4.69-7.28-4.81c-1.78-0.08-3.45,0.7-4.27,2.38
																c-0.82,1.68-0.66,4.32,0.61,6.3c1.43,2.23,3.85,3.13,5.74,2.78c1.89-0.36,3.36-1.72,4.74-3.09
																c0.38-0.38,0.77-0.78,0.96-1.36c0.19-0.58,0.13-1.4-0.3-1.99"/>
														</g>
													</g>
												</g>
											</g>
										</g>
									</g>
								</g>
							</g>
						</g>
					</g>
				</g>
				<g>
					<g>
						<g>
							<g>
								<g>
									<g>
										<g>
											<g>
												<g>
													<g>
														<g>
															<g>
																<path class="st5" d="M282.55,138.98c0.62-0.04,0.63,4.08,4.16,6.99c3.52,2.92,7.9,2.45,7.94,3.02
																	c0.06,0.26-0.97,0.8-2.82,0.86c-1.82,0.07-4.47-0.51-6.63-2.29c-2.15-1.79-3.08-4.17-3.22-5.86
																	C281.81,139.97,282.27,138.95,282.55,138.98z"/>
															</g>
														</g>
													</g>
												</g>
											</g>
										</g>
									</g>
								</g>
							</g>
						</g>
					</g>
				</g>
				<g>
					<g>
						<g>
							<g>
								<g>
									<g>
										<g>
											<g>
												<path class="st5" d="M282.86,94.8c-0.47,0.99-4.19,0.13-8.67,0.23c-4.48,0.01-8.18,0.95-8.67-0.03
													c-0.22-0.47,0.5-1.37,2.04-2.22c1.53-0.85,3.9-1.57,6.59-1.6c2.68-0.03,5.07,0.63,6.62,1.45
													C282.33,93.44,283.07,94.33,282.86,94.8z"/>
											</g>
										</g>
									</g>
								</g>
							</g>
						</g>
					</g>
				</g>
				<g>
					<g>
						<g>
							<g>
								<g>
									<g>
										<g>
											<g>
												<path class="st5" d="M318.26,100.07c-0.83,0.86-4.07-0.04-7.97-0.09c-3.9-0.16-7.2,0.57-7.96-0.34
													c-0.33-0.44,0.19-1.3,1.63-2.11c1.42-0.81,3.8-1.47,6.48-1.4c2.68,0.07,5,0.86,6.35,1.74
													C318.17,98.76,318.62,99.65,318.26,100.07z"/>
											</g>
										</g>
									</g>
								</g>
							</g>
						</g>
					</g>
				</g>
				<g>
					<path class="st5" d="M194.23,198.27c5.99-9.68,10.88-33.78,12.96-46.01c2.08-12.23,8.56-51.41,18.97-72
						c10.41-20.59,22.68-28.92,34.71-32.16c12.03-3.24,21.06,1.16,26.49,6.02c5.44,4.86,7.29,19.01,7.29,19.01
						s-29.03,6.45-38.8,23.01c-11.23,19.01-13.95,28.58-13.95,28.58l-3.63,10.4c0,0,3.4,20.13,4.65,30.08
						c1.25,9.95-0.74,19.19-8.93,23.23l-16.47,11.64c0,0-21.54,14.64-22.53,15.39c-4.6,3.51-13.61,16.89-13.61,16.89
						S181.99,218.06,194.23,198.27z"/>
				</g>
				<g>
					<path class="st5" d="M295.47,73.3c0,0,16.6-1.8,22.73,16.95c2.77,8.48,4.89,32.97,4.89,32.97s2.43-19.44,1.53-30.54
						c-0.9-11.1-6.43-25.13-14.94-32.91c-8.27-7.56-15.25-11.1-30.04-10.21c0,0,6.89,2.38,10.67,7.98
						C292.21,60.35,293.03,62.75,295.47,73.3z"/>
				</g>
			</g>
			<g>
				<g>
					<g>
						<g>
							<g>
								<g>
									<g>
										<g>
											<g>
												<g>
													<g>
														<g>
															<g>
																<g>
																	<g>
																		<g>
																			<g>
																				<path class="st7" d="M242.1,126.15c-0.3-6.08-6.92-10.13-12.19-7.09c-2.89,1.67-5.1,5.03-4.84,11.48
																					c0.71,17.21,17.84,12.94,17.85,12.45C242.92,142.69,242.45,133.27,242.1,126.15z"/>
																			</g>
																		</g>
																	</g>
																</g>
															</g>
														</g>
													</g>
												</g>
											</g>
										</g>
									</g>
								</g>
							</g>
						</g>
					</g>
				</g>
				<g>
					<g>
						<g>
							<g>
								<g>
									<g>
										<g>
											<g>
												<g>
													<g>
														<g>
															<g>
																<g>
																	<g>
																		<g>
																			<g>
																				<g>
																					<path class="st9" d="M237.39,136.69c-0.08-0.05-0.29,0.22-0.79,0.48c-0.48,0.25-1.33,0.44-2.24,0.14
																						c-1.85-0.59-3.49-3.41-3.71-6.51c-0.11-1.56,0.16-3.07,0.66-4.33c0.47-1.28,1.25-2.19,2.16-2.39
																						c0.9-0.25,1.57,0.27,1.8,0.75c0.25,0.47,0.16,0.82,0.25,0.85c0.05,0.04,0.36-0.3,0.19-1.01
																						c-0.08-0.34-0.3-0.74-0.72-1.05c-0.43-0.32-1.04-0.46-1.68-0.37c-1.32,0.15-2.47,1.42-3.02,2.8
																						c-0.63,1.39-0.96,3.08-0.84,4.84c0.25,3.46,2.16,6.63,4.68,7.25c1.22,0.27,2.22-0.14,2.72-0.57
																						C237.38,137.11,237.45,136.72,237.39,136.69z"/>
																				</g>
																			</g>
																		</g>
																	</g>
																</g>
															</g>
														</g>
													</g>
												</g>
											</g>
										</g>
									</g>
								</g>
							</g>
						</g>
					</g>
				</g>
			</g>
		</g>
		<g>
			<g>
				<path class="st10" d="M267.76,47.01c-0.01,0.13,2.36,0.06,6.1,0.55c1.85,0.28,4.06,0.78,6.28,1.87c2.23,1.07,4.4,2.78,6.3,4.91
					c3.87,4.27,5.99,9.16,6.97,12.78c1,3.64,1.12,6,1.24,5.99c0.04,0,0.03-0.59-0.06-1.65c-0.1-1.06-0.31-2.59-0.77-4.45
					c-0.88-3.69-2.99-8.72-6.94-13.08c-1.95-2.18-4.2-3.94-6.51-5.01c-2.3-1.11-4.58-1.56-6.47-1.8c-1.9-0.21-3.44-0.23-4.5-0.22
					C268.34,46.93,267.76,46.97,267.76,47.01z"/>
			</g>
		</g>
		<g>
			<g>
				<path class="st10" d="M226.17,138.59c0.01,0,0-0.1-0.03-0.28c-0.04-0.22-0.09-0.48-0.15-0.81c-0.07-0.37-0.16-0.8-0.26-1.3
					c-0.08-0.53-0.16-1.13-0.26-1.79c-0.35-2.7-0.59-6.67,0.16-11.49c0.75-4.79,2.47-10.45,5.95-15.86
					c3.45-5.43,8.77-10.32,15.1-14.18c3.16-1.95,6.42-3.58,9.61-5.03c3.19-1.47,6.38-2.61,9.34-3.95c5.91-2.69,10.9-5.75,14.99-8.43
					c4.08-2.71,7.26-5.08,9.41-6.76c1.07-0.85,1.9-1.51,2.45-1.98c0.25-0.21,0.46-0.39,0.62-0.53c0.14-0.12,0.21-0.19,0.2-0.2
					c-0.01-0.01-0.09,0.04-0.24,0.15c-0.18,0.13-0.4,0.29-0.66,0.48c-0.62,0.46-1.46,1.09-2.52,1.88c-2.2,1.62-5.41,3.94-9.5,6.59
					c-4.11,2.62-9.11,5.63-14.99,8.28c-2.93,1.31-6.15,2.45-9.36,3.92c-3.21,1.45-6.49,3.09-9.68,5.05
					c-6.39,3.89-11.78,8.87-15.26,14.4c-3.51,5.51-5.21,11.26-5.91,16.1c-0.69,4.88-0.39,8.88,0.04,11.59
					c0.12,0.67,0.22,1.27,0.32,1.79c0.12,0.5,0.23,0.93,0.31,1.3c0.08,0.32,0.15,0.58,0.21,0.79
					C226.13,138.5,226.16,138.59,226.17,138.59z"/>
			</g>
		</g>
		<g>
			<g>
				<path class="st10" d="M222.19,132.09c0.01,0,0.02-0.1,0.02-0.28c0-0.22,0-0.49-0.01-0.82c0-0.72-0.08-1.79-0.05-3.16
					c0.03-2.74,0.22-6.71,1.12-11.53c0.9-4.8,2.55-10.44,5.33-16.28c2.83-5.8,6.77-11.82,12.02-17.13
					c5.24-5.32,11.21-9.31,16.83-12.51c5.63-3.21,10.92-5.7,15.33-7.85c4.42-2.13,7.99-3.89,10.42-5.18
					c1.22-0.63,2.15-1.16,2.78-1.51c0.29-0.17,0.52-0.3,0.71-0.41c0.16-0.1,0.24-0.15,0.23-0.16c-0.01-0.01-0.09,0.03-0.26,0.1
					c-0.2,0.1-0.44,0.21-0.74,0.36c-0.69,0.34-1.64,0.81-2.83,1.41c-2.46,1.22-6.05,2.92-10.49,5c-4.44,2.1-9.76,4.55-15.42,7.75
					c-5.66,3.19-11.69,7.19-16.99,12.57c-5.31,5.36-9.27,11.45-12.09,17.31c-2.77,5.91-4.39,11.6-5.24,16.45
					c-0.85,4.86-0.98,8.86-0.93,11.6c0.01,1.38,0.13,2.44,0.17,3.16c0.03,0.33,0.05,0.6,0.07,0.82
					C222.16,132,222.18,132.09,222.19,132.09z"/>
			</g>
		</g>
		<g>
			<g>
				<path class="st10" d="M222.69,196.4c0.02,0.01,0.11-0.17,0.26-0.52c0.18-0.42,0.39-0.92,0.65-1.53
					c0.28-0.67,0.61-1.49,0.91-2.47c0.32-0.98,0.72-2.08,1.03-3.34c0.17-0.63,0.34-1.28,0.52-1.96c0.17-0.69,0.3-1.41,0.47-2.15
					c0.35-1.48,0.56-3.1,0.84-4.79c0.45-3.39,0.76-7.15,0.84-11.09c0.13-7.9-0.49-15.02-1-20.16c-0.26-2.57-0.5-4.64-0.69-6.07
					c-0.09-0.66-0.17-1.2-0.23-1.65c-0.06-0.38-0.1-0.57-0.12-0.57c-0.02,0-0.02,0.2,0,0.58c0.03,0.45,0.07,1,0.11,1.66
					c0.12,1.53,0.29,3.59,0.49,6.09c0.4,5.14,0.95,12.25,0.82,20.11c-0.08,3.93-0.37,7.66-0.79,11.03
					c-0.26,1.68-0.46,3.28-0.78,4.76c-0.15,0.74-0.27,1.46-0.43,2.14c-0.17,0.68-0.33,1.33-0.48,1.96
					c-0.28,1.26-0.65,2.36-0.93,3.34c-0.27,0.99-0.56,1.82-0.81,2.49c-0.21,0.63-0.39,1.14-0.54,1.57
					C222.72,196.19,222.67,196.39,222.69,196.4z"/>
			</g>
		</g>
	</g>
	<g>
		<g>
			<path class="st7" d="M440.34,354.32c0,0-18.7,23.98-25.4,25.89c-6.7,1.91-32.08,8.17-32.08,8.17l-83.3,19.26l9.81-35.71
				l78.88-1.08L440.34,354.32z"/>
		</g>
		<g class="st11">
			<path class="st12" d="M547.44,232.19c-6.25,15.48-37.71,86.32-45,102.72c-0.96,2.16-2.8,3.81-5.06,4.52l-99.01,31.43l-98.24,7.34
				v-3.24l79.42-24.06l25.09-2.94l37.46-92.9c1.72-4.26,5.49-7.34,10.01-8.17l93.36-17.11
				C546.85,229.53,547.96,230.89,547.44,232.19z"/>
		</g>
		<g class="st11">
			<g class="st13">
				<path class="st5" d="M300.13,374.96c0,0.01,0.11,0.01,0.31,0c0.24-0.02,0.54-0.04,0.91-0.07c0.85-0.08,2.02-0.18,3.51-0.32
					c3.09-0.31,7.48-0.75,12.88-1.29c5.45-0.57,11.92-1.24,19.09-1.99c7.19-0.72,15.09-1.52,23.39-2.35
					c8.3-0.82,16.21-1.44,23.42-1.85c3.6-0.23,7.03-0.44,10.24-0.65c0.81-0.06,1.6-0.14,2.38-0.3c0.39-0.09,0.78-0.19,1.15-0.37
					c0.39-0.17,0.71-0.54,0.89-0.87c0.76-1.37,1.08-2.76,1.62-4.01c1.92-5.08,3.48-9.2,4.58-12.1c0.52-1.4,0.92-2.5,1.22-3.3
					c0.12-0.35,0.22-0.64,0.3-0.86c0.06-0.2,0.09-0.3,0.08-0.3c-0.01,0-0.06,0.09-0.14,0.28c-0.09,0.22-0.21,0.5-0.36,0.84
					c-0.32,0.79-0.76,1.88-1.32,3.26c-1.14,2.89-2.76,6.99-4.76,12.04c-0.54,1.25-0.91,2.68-1.62,3.92
					c-0.19,0.31-0.38,0.54-0.7,0.68c-0.31,0.15-0.67,0.25-1.04,0.32c-0.74,0.15-1.52,0.22-2.31,0.27c-3.2,0.15-6.63,0.38-10.24,0.59
					c-7.22,0.38-15.15,0.99-23.45,1.81c-8.29,0.85-16.19,1.66-23.38,2.4c-7.17,0.8-13.63,1.51-19.08,2.12
					c-5.39,0.62-9.77,1.13-12.86,1.48c-1.48,0.18-2.65,0.33-3.49,0.43c-0.37,0.05-0.67,0.09-0.91,0.13
					C300.24,374.93,300.13,374.95,300.13,374.96z"/>
			</g>
		</g>
		<g>
			<g>
				<path class="st7" d="M350.9,355.99c0,0-1.42-9.34,0-11.18c1.42-1.84,11.43-10.84,11.43-10.84l5.67-5.34l12.52-1.92
					c1.51-0.23,3.01,0.46,3.82,1.76l1.28,2.06l3.39-0.57l3-4.34h8.34l6.17,6.67v9.01c0,0-0.83,2.5-3,0.67
					c-2.17-1.84-2.3-6.91-2.3-6.91l-3.7,3.41l3.93,12.02c0,0-2.77,2.51-4.77,0c-2-2.51-4.84-6.18-4.84-6.18s-3.34,9-9.01,11.68
					c-5.67,2.67-19.35,5.11-22.19,4.47C357.83,359.83,351.44,360.98,350.9,355.99z"/>
			</g>
			<g>
				<g>
					<path class="st9" d="M370.71,335.51c-0.01,0.01,0.04,0.14,0.23,0.34c0.18,0.2,0.5,0.45,0.98,0.63
						c0.48,0.17,1.11,0.28,1.82,0.25c0.72-0.01,1.51-0.18,2.37-0.26c0.85-0.08,1.83-0.09,2.64,0.42c0.82,0.5,1.39,1.47,2.19,2.36
						c1.55,1.74,3.83,3.48,6.69,3.64c2.24,0.12,4.47-0.88,5.58-2.6l0.13-0.19l-0.16-0.16c-2.68-2.8-4.7-5.45-6.05-7.38
						c-1.36-1.93-2.08-3.12-2.15-3.08c-0.03,0.02,0.12,0.33,0.43,0.9c0.31,0.57,0.78,1.38,1.42,2.38c1.28,2,3.26,4.73,5.93,7.58
						l-0.03-0.36c-0.99,1.5-3.01,2.41-5.07,2.3c-2.61-0.13-4.79-1.74-6.3-3.4c-0.77-0.82-1.37-1.83-2.35-2.42
						c-0.99-0.58-2.08-0.52-2.95-0.41c-0.89,0.12-1.66,0.31-2.34,0.35c-0.68,0.05-1.27-0.01-1.73-0.14
						C371.06,335.97,370.75,335.46,370.71,335.51z"/>
				</g>
			</g>
			<g>
				<g>
					<path class="st9" d="M360.88,355.5c0.07,0.01,0.14-0.53,0.51-1.41c0.35-0.89,1.07-2.09,2.17-3.42c1.08-1.34,2.57-2.8,3.92-4.71
						c0.66-0.96,1.26-2.08,1.56-3.35c0.33-1.26,0.28-2.65-0.07-3.98c-0.35-1.33-0.99-2.54-1.79-3.54c-0.41-0.5-0.88-0.98-1.51-1.26
						c-0.62-0.3-1.39-0.25-1.95,0.06c-1.17,0.6-1.66,1.79-1.99,2.73c-0.33,0.98-0.67,1.83-1.11,2.56c-0.87,1.47-1.91,2.44-2.66,3.03
						c-0.76,0.6-1.23,0.85-1.21,0.9c0.01,0.03,0.53-0.15,1.35-0.71c0.81-0.55,1.93-1.49,2.89-3c0.48-0.74,0.88-1.66,1.22-2.61
						c0.35-0.93,0.82-1.94,1.77-2.4c0.46-0.23,0.98-0.26,1.46-0.03c0.48,0.22,0.91,0.63,1.27,1.1c0.75,0.95,1.34,2.09,1.67,3.33
						c0.32,1.24,0.37,2.52,0.08,3.68c-0.27,1.17-0.82,2.23-1.44,3.17c-1.28,1.87-2.74,3.36-3.79,4.76
						c-1.08,1.39-1.76,2.67-2.05,3.61c-0.17,0.46-0.23,0.84-0.26,1.1C360.87,355.36,360.86,355.49,360.88,355.5z"/>
				</g>
			</g>
			<g>
				<g>
					<path class="st9" d="M392.7,332.41c-0.01,0.09,0.9-0.15,1.81,0.74c0.91,0.87,1.57,2.55,2.24,4.43
						c0.67,1.88,1.26,3.59,1.75,4.82c0.48,1.23,0.87,1.95,0.95,1.92c0.08-0.04-0.17-0.8-0.54-2.06c-0.38-1.25-0.9-2.99-1.58-4.88
						c-0.67-1.87-1.42-3.64-2.53-4.54c-0.54-0.46-1.13-0.61-1.52-0.59C392.87,332.25,392.68,332.38,392.7,332.41z"/>
				</g>
			</g>
			<g>
				<g>
					<path class="st9" d="M391.8,332.27c0,0.07,0.51,0.18,1.37,0.07c0.85-0.11,2.06-0.5,3.14-1.39l-0.39,0
						c0.25,0.22,0.51,0.44,0.77,0.66c2.4,2.04,4.43,3.59,4.54,3.46c0.11-0.13-1.74-1.89-4.14-3.93c-0.26-0.22-0.52-0.44-0.78-0.65
						l-0.2-0.17l-0.19,0.17c-0.97,0.83-2.04,1.26-2.83,1.47C392.31,332.15,391.8,332.18,391.8,332.27z"/>
				</g>
			</g>
			<g>
				<g>
					<path class="st9" d="M378.54,353.76c0.07-0.03-0.22-0.87-0.89-2.13c-0.66-1.26-1.74-2.92-3.18-4.56
						c-1.44-1.64-2.95-2.92-4.12-3.74c-1.16-0.82-1.95-1.22-1.99-1.15c-0.11,0.16,2.84,2.07,5.65,5.3
						C376.86,350.68,378.37,353.85,378.54,353.76z"/>
				</g>
			</g>
		</g>
		<g class="st11">
			<g class="st13">
				<path class="st5" d="M449.13,248.4c-0.01,0-0.06,0.1-0.15,0.3c-0.1,0.24-0.23,0.54-0.39,0.91c-0.35,0.85-0.84,2.03-1.46,3.54
					c-1.26,3.12-3.05,7.57-5.25,13.05c-4.39,11.08-10.43,26.31-17.1,43.13c-6.61,16.86-12.59,32.11-16.94,43.21
					c-2.13,5.51-3.85,9.98-5.07,13.12c-0.57,1.52-1.02,2.72-1.35,3.58c-0.14,0.38-0.25,0.69-0.34,0.94c-0.07,0.21-0.1,0.32-0.1,0.33
					c0.01,0,0.06-0.1,0.15-0.3c0.1-0.24,0.23-0.54,0.39-0.91c0.35-0.85,0.84-2.03,1.46-3.54c1.26-3.12,3.05-7.57,5.25-13.05
					c4.39-11.08,10.43-26.31,17.1-43.14c6.61-16.85,12.59-32.11,16.94-43.2c2.13-5.51,3.85-9.98,5.07-13.12
					c0.57-1.52,1.02-2.72,1.35-3.58c0.14-0.38,0.25-0.69,0.34-0.94C449.11,248.52,449.14,248.41,449.13,248.4z"/>
			</g>
		</g>
		<g>
			
				<ellipse transform="matrix(0.586 -0.8103 0.8103 0.586 -42.8737 507.1529)" class="st0" cx="474.86" cy="295.53" rx="7.72" ry="5.66"/>
		</g>
	</g>
</g>
<g>
	<g>
		<rect x="295.68" y="450.8" class="st10" width="200.23" height="8.98"/>
		<rect x="295.68" y="450.8" class="st5" width="100.78" height="8.98"/>
	</g>
	<g>
		<g>
			<polygon class="st14" points="394.13,459.77 589.27,459.77 616.84,327.23 421.7,327.23 			"/>
		</g>
		<path class="st0" d="M490.36,396.46c-0.75,7.18,4.46,13.01,11.64,13.01c7.18,0,13.62-5.82,14.37-13.01
			c0.76-7.18-4.46-13.01-11.64-13.01C497.55,383.46,491.11,389.28,490.36,396.46z"/>
	</g>
</g>
<path class="st1" d="M989.11,197.23l11.91-19.19l-5.91-3.66c-1.72-1.07-2.63-3.03-2.46-5.05c0.09-1.09,0.13-2.19,0.11-3.29
	c-0.04-2.05,0.99-3.97,2.8-4.93l6.09-3.27l-10.68-19.91l-6.09,3.27c-1.75,0.94-3.89,0.84-5.52-0.3c-0.99-0.69-2.01-1.32-3.06-1.89
	c-1.75-0.95-2.8-2.83-2.73-4.82l0.22-6.91l-22.58-0.7l-0.21,6.94c-0.06,2-1.25,3.78-3.06,4.63c-0.53,0.25-1.05,0.51-1.57,0.79
	c-0.52,0.28-1.03,0.57-1.52,0.87c-1.7,1.04-3.84,1.04-5.53-0.01l-5.92-3.67l-11.91,19.19l5.93,3.68c1.72,1.07,2.62,3.03,2.45,5.04
	c-0.09,1.09-0.13,2.19-0.11,3.29c0.04,2.05-1,3.96-2.8,4.93l-6.09,3.27l10.68,19.91l6.09-3.27c1.8-0.97,3.97-0.77,5.66,0.39
	c0.9,0.63,1.84,1.2,2.8,1.73c1.78,0.97,2.91,2.8,2.85,4.83l-0.21,6.98l22.57,0.7l0.22-6.93c0.06-2.03,1.3-3.79,3.14-4.65
	c0.5-0.24,1-0.49,1.5-0.76c0.49-0.26,0.97-0.54,1.45-0.82c1.74-1.05,3.9-1.11,5.63-0.04L989.11,197.23z M972.05,181.7
	c-9.95,7.07-23.72,2.91-28.09-8.48c-2.98-7.75-0.27-16.76,6.5-21.58c9.94-7.07,23.75-2.91,28.12,8.49
	C981.55,167.88,978.82,176.89,972.05,181.7z"/>
<path class="st1" d="M914.97,268.08l13.7-7.91l-2.42-4.19c-0.71-1.23-0.64-2.75,0.13-3.94c0.43-0.66,0.83-1.34,1.18-2.05
	c0.64-1.27,1.92-2.08,3.34-2.08h4.84v-15.83h-4.84c-1.42,0-2.7-0.81-3.34-2.08c-0.36-0.71-0.75-1.39-1.18-2.05
	c-0.78-1.19-0.85-2.71-0.13-3.94l2.42-4.19l-13.7-7.91l-2.43,4.21c-0.71,1.24-2.07,1.92-3.49,1.84c-0.39-0.02-0.77-0.03-1.16-0.03
	s-0.78,0.01-1.16,0.03c-1.42,0.07-2.77-0.6-3.48-1.83l-2.44-4.22l-13.7,7.91l2.43,4.21c0.71,1.23,0.64,2.75-0.14,3.94
	c-0.43,0.66-0.82,1.34-1.18,2.04c-0.64,1.26-1.92,2.08-3.34,2.08h-4.84v15.83h4.84c1.42,0,2.7,0.81,3.34,2.08
	c0.36,0.7,0.75,1.38,1.18,2.04c0.78,1.19,0.85,2.71,0.14,3.95l-2.43,4.21l13.7,7.91l2.43-4.21c0.71-1.23,2.06-1.91,3.48-1.84
	c0.39,0.02,0.78,0.03,1.17,0.03c0.39,0,0.78-0.01,1.16-0.03c1.42-0.07,2.78,0.61,3.49,1.84L914.97,268.08z M907.89,252.95
	c-7.16,0-12.95-5.8-12.95-12.95c0-7.16,5.8-12.97,12.95-12.97s12.97,5.81,12.97,12.97C920.86,247.16,915.05,252.95,907.89,252.95z"
	/>
<g>
	<g>
		<g>
			<rect x="768.86" y="40.03" class="st0" width="193.45" height="130.36"/>
			<path class="st1" d="M963.13,171.2H768.04V39.21h195.08V171.2z M769.68,169.57h191.82V40.84H769.68V169.57z"/>
		</g>
	</g>
	<g>
		<path class="st14" d="M787.55,49.89c0,2.46-1.99,4.46-4.46,4.46c-2.46,0-4.46-1.99-4.46-4.46c0-2.46,1.99-4.45,4.46-4.45
			C785.56,45.44,787.55,47.43,787.55,49.89z"/>
		<path class="st1" d="M805.74,49.89c0,2.46-1.99,4.46-4.46,4.46c-2.46,0-4.45-1.99-4.45-4.46c0-2.46,1.99-4.45,4.45-4.45
			C803.75,45.44,805.74,47.43,805.74,49.89z"/>
		<path class="st15" d="M823.94,49.89c0,2.46-1.99,4.46-4.46,4.46c-2.46,0-4.46-1.99-4.46-4.46c0-2.46,1.99-4.45,4.46-4.45
			C821.94,45.44,823.94,47.43,823.94,49.89z"/>
	</g>
	<rect x="768.86" y="58.85" class="st1" width="193.45" height="1.63"/>
</g>
<g>
	<g>
		<g>
			<rect x="642.83" y="151.6" class="st0" width="103.1" height="65.77"/>
			<path class="st1" d="M746.58,218.02h-104.4v-67.07h104.4V218.02z M643.48,216.72h101.79v-64.46H643.48V216.72z"/>
		</g>
		<g>
			<rect x="642.83" y="151.6" class="st15" width="103.1" height="12.44"/>
			<path class="st1" d="M746.58,164.69h-104.4v-13.74h104.4V164.69z M643.48,163.39h101.79v-11.13H643.48V163.39z"/>
		</g>
	</g>
	<g>
		<path class="st3" d="M654.5,157.91c0,1.73-1.4,3.13-3.13,3.13c-1.73,0-3.13-1.4-3.13-3.13c0-1.73,1.4-3.13,3.13-3.13
			C653.1,154.78,654.5,156.18,654.5,157.91z"/>
		<path class="st1" d="M667.29,157.91c0,1.73-1.4,3.13-3.13,3.13c-1.73,0-3.13-1.4-3.13-3.13c0-1.73,1.4-3.13,3.13-3.13
			C665.89,154.78,667.29,156.18,667.29,157.91z"/>
		<path class="st0" d="M680.07,157.91c0,1.73-1.4,3.13-3.13,3.13c-1.73,0-3.13-1.4-3.13-3.13c0-1.73,1.4-3.13,3.13-3.13
			C678.67,154.78,680.07,156.18,680.07,157.91z"/>
	</g>
	<g>
		<path class="st1" d="M662.08,188.63c0.03-6.86,5.78-12.44,12.71-12.47c3.05,0,5.82,1,8,2.7c0.83,0.69,0.97,1.91,0.35,2.77
			c-0.69,0.87-1.98,1-2.77,0.38c-1.52-1.25-3.43-1.91-5.58-1.91c-2.39,0-4.61,0.97-6.23,2.49c-1.56,1.59-2.53,3.67-2.53,6.03
			c0,2.36,0.97,4.5,2.53,6.03c1.63,1.52,3.84,2.49,6.23,2.49c2.15,0,4.02-0.66,5.58-1.91c0.8-0.59,2.08-0.45,2.77,0.38
			c0.62,0.87,0.48,2.11-0.35,2.77c-2.18,1.7-4.95,2.7-8,2.7C667.86,201.1,662.11,195.53,662.08,188.63z"/>
		<path class="st1" d="M695.3,190.82h-4.92c-1.04,0-1.91-0.83-1.91-1.91c0-1.04,0.87-1.91,1.91-1.91h4.92v-4.81
			c0-1.11,0.87-1.97,1.98-1.97c1.07,0,1.97,0.87,1.97,1.97v4.81h4.92c1.04,0,1.9,0.87,1.9,1.91c0,1.07-0.87,1.91-1.9,1.91h-4.92
			v4.82c0,1.11-0.9,1.97-1.97,1.97c-1.11,0-1.98-0.87-1.98-1.97V190.82z"/>
		<path class="st1" d="M716.77,190.82h-4.92c-1.04,0-1.91-0.83-1.91-1.91c0-1.04,0.87-1.91,1.91-1.91h4.92v-4.81
			c0-1.11,0.87-1.97,1.97-1.97c1.07,0,1.98,0.87,1.98,1.97v4.81h4.92c1.04,0,1.91,0.87,1.91,1.91c0,1.07-0.87,1.91-1.91,1.91h-4.92
			v4.82c0,1.11-0.9,1.97-1.98,1.97c-1.11,0-1.97-0.87-1.97-1.97V190.82z"/>
	</g>
</g>
<g>
	<g>
		<path class="st16" d="M749.88,415.41c0,0,28.39-13.08,28.39-30.61c0-17.53-36.82-28.82-36.82-42.52
			c0-13.7,16.06-21.77,16.06-21.77s-25.36,8.67-25.36,26c0,17.33,24.27,29.08,26.6,40.11C761.96,401.93,749.88,415.41,749.88,415.41
			z"/>
		<path class="st16" d="M751.28,415.41c0,0-28.39-10.28-28.39-24.07c0-13.79,36.82-22.66,36.82-33.43
			c0-10.78-16.06-17.11-16.06-17.11s25.36,6.81,25.36,20.44c0,13.63-27.87,23-29.87,34.07
			C737.19,406.16,751.28,415.41,751.28,415.41z"/>
	</g>
	<g>
		<rect x="736.67" y="459.5" class="st14" width="27.01" height="4.22"/>
		<rect x="736.67" y="459.5" class="st5" width="27.01" height="2.78"/>
	</g>
	<g>
		<path class="st14" d="M704.61,448.17c3.19,4.49,8.85,7.7,15.21,6.5c0.9-0.17,1.81-0.42,2.74-0.79c1.26-0.49,2.53-1.14,3.82-2.01
			l-3.43-5.09c-0.7,0.48-1.37,0.86-2.03,1.15c-6.43,2.92-10.5-2.16-11.3-3.31c-3.7-5.2-5.03-17.09-1.28-21.66
			c0.25-0.34,1.33-0.87,5.68,0.05c0.8,0.18,1.71,0.38,2.74,0.67c1.14,0.32,1.82,0.51,2.47,0.53l0.11-3.05l0.3-3.05
			c-0.28-0.05-0.72-0.18-1.29-0.34c-1.64-0.44-3.85-1.04-6.14-1.27c-3.2-0.33-6.56,0.05-8.61,2.58
			C697.51,426.55,699.98,441.65,704.61,448.17z"/>
		<path class="st5" d="M722.95,446.79c-0.7,0.48-1.37,0.86-2.03,1.15l1.64,5.94c1.26-0.49,2.53-1.14,3.82-2.01L722.95,446.79z"/>
		<path class="st5" d="M712.21,416.51l1.81,6.52c0.8,0.18,1.71,0.38,2.74,0.67c1.14,0.32,1.82,0.51,2.47,0.53l0.11-3.05l0.3-3.05
			c-0.28-0.05-0.72-0.18-1.29-0.34C716.71,417.34,714.5,416.74,712.21,416.51z"/>
	</g>
	<g>
		<path class="st14" d="M786.1,408.54c0,0-3.24,27.52-8.84,39.12c-5.6,11.57-13.41,12.87-18.26,12.87c-4.85,0-4.41,0-8.82,0
			c-4.43,0-3.97,0-8.84,0c-4.85,0-12.66-1.3-18.26-12.87c-5.6-11.59-8.84-39.12-8.84-39.12H786.1z"/>
		<g>
			<path class="st10" d="M782.26,431.41c-0.56,2.53-1.17,5.04-1.84,7.4h-60.48c-0.68-2.36-1.29-4.87-1.84-7.4H782.26z"/>
			<path class="st10" d="M779.59,441.61c-0.42,1.31-0.84,2.56-1.3,3.7h-56.22c-0.45-1.14-0.88-2.39-1.3-3.7H779.59z"/>
			<path class="st10" d="M783.65,424.45c-0.22,1.21-0.45,2.44-0.71,3.7h-65.52c-0.26-1.26-0.49-2.49-0.71-3.7H783.65z"/>
		</g>
	</g>
</g>
<g>
	<path class="st14" d="M1197.44,303.05l3.15-13.68h4.34l-5.4,19.82h-3.66l-4.25-13.61l-4.18,13.61h-3.66l-5.42-19.82h4.34
		l3.21,13.54l4.07-13.54h3.35L1197.44,303.05z"/>
	<path class="st14" d="M1207.92,284.22c0-0.68,0.22-1.25,0.65-1.7c0.43-0.45,1.05-0.68,1.86-0.68c0.81,0,1.43,0.23,1.87,0.68
		c0.44,0.45,0.66,1.02,0.66,1.7c0,0.67-0.22,1.23-0.66,1.68c-0.44,0.45-1.06,0.67-1.87,0.67c-0.81,0-1.43-0.22-1.86-0.67
		C1208.14,285.45,1207.92,284.89,1207.92,284.22z M1212.65,309.19h-4.45v-19.82h4.45V309.19z"/>
	<path class="st14" d="M1223.07,284.55v4.82h3.5v3.3h-3.5v11.06c0,0.45,0.05,0.82,0.15,1.1c0.1,0.28,0.24,0.5,0.42,0.65
		c0.18,0.15,0.4,0.26,0.65,0.31c0.25,0.06,0.53,0.08,0.83,0.08s0.6-0.02,0.89-0.06s0.51-0.08,0.67-0.12v3.44
		c-0.35,0.1-0.77,0.19-1.24,0.28c-0.47,0.09-1.03,0.14-1.69,0.14c-0.73,0-1.41-0.1-2.04-0.29s-1.17-0.51-1.63-0.95
		c-0.46-0.44-0.81-1.01-1.07-1.72c-0.26-0.71-0.38-1.58-0.38-2.6v-11.32h-3.26v-3.3h3.26v-4.82H1223.07z"/>
	<path class="st14" d="M1234.36,291.53c0.68-0.79,1.49-1.41,2.42-1.86c0.93-0.45,1.96-0.67,3.1-0.67c0.96,0,1.84,0.13,2.64,0.4
		s1.47,0.7,2.03,1.29c0.56,0.59,1,1.36,1.3,2.31c0.31,0.95,0.46,2.09,0.46,3.43v12.75h-4.45V296.4c0-1.37-0.3-2.34-0.89-2.9
		c-0.59-0.57-1.46-0.85-2.61-0.85c-0.93,0-1.72,0.21-2.39,0.64c-0.67,0.43-1.2,1.01-1.6,1.74v14.16h-4.45v-28.14h4.45V291.53z"/>
	<path class="st14" d="M1259.31,299.1c0-1.44,0.21-2.78,0.63-4c0.42-1.23,1.03-2.29,1.81-3.2c0.79-0.9,1.75-1.61,2.88-2.13
		c1.14-0.51,2.42-0.77,3.87-0.77c1.45,0,2.75,0.26,3.9,0.77c1.15,0.51,2.12,1.22,2.9,2.13c0.79,0.9,1.39,1.97,1.8,3.2
		c0.42,1.23,0.62,2.56,0.62,4v0.38c0,1.44-0.21,2.78-0.62,4.01c-0.42,1.23-1.02,2.3-1.8,3.2c-0.79,0.9-1.75,1.6-2.89,2.11
		c-1.14,0.51-2.43,0.76-3.87,0.76c-1.45,0-2.75-0.25-3.89-0.76c-1.14-0.51-2.11-1.21-2.89-2.11c-0.79-0.9-1.39-1.96-1.81-3.2
		s-0.63-2.57-0.63-4.01V299.1z M1263.76,299.48c0,0.89,0.09,1.73,0.27,2.53c0.18,0.79,0.47,1.49,0.86,2.08s0.89,1.06,1.49,1.4
		s1.32,0.51,2.15,0.51c0.82,0,1.53-0.17,2.13-0.51s1.1-0.81,1.48-1.4s0.67-1.29,0.86-2.08s0.28-1.64,0.28-2.53v-0.38
		c0-0.88-0.09-1.71-0.28-2.5c-0.19-0.79-0.48-1.48-0.87-2.07c-0.39-0.59-0.89-1.07-1.49-1.42c-0.6-0.35-1.32-0.53-2.15-0.53
		c-0.83,0-1.54,0.18-2.13,0.53c-0.59,0.35-1.08,0.83-1.47,1.42c-0.39,0.59-0.68,1.28-0.86,2.07c-0.18,0.79-0.27,1.62-0.27,2.5
		V299.48z"/>
	<path class="st14" d="M1293.51,307.25c-0.62,0.73-1.39,1.3-2.31,1.7s-2,0.6-3.26,0.6c-0.98,0-1.87-0.14-2.67-0.41
		c-0.8-0.27-1.49-0.71-2.06-1.3c-0.57-0.59-1.02-1.36-1.34-2.29c-0.32-0.93-0.48-2.05-0.48-3.36v-12.82h4.45v12.86
		c0,0.72,0.09,1.32,0.26,1.79s0.4,0.85,0.69,1.14s0.62,0.49,1,0.6c0.38,0.12,0.78,0.17,1.19,0.17c1.15,0,2.08-0.21,2.78-0.62
		c0.71-0.42,1.24-0.98,1.59-1.7v-14.23h4.45v19.82h-4.19L1293.51,307.25z"/>
	<path class="st14" d="M1312.72,293.44c-0.29-0.05-0.59-0.08-0.89-0.11c-0.3-0.02-0.61-0.04-0.92-0.04c-1.08,0-1.95,0.21-2.62,0.62
		s-1.17,0.99-1.5,1.72v13.56h-4.45v-19.82h4.25l0.11,2.22c0.5-0.81,1.12-1.44,1.86-1.9c0.74-0.46,1.61-0.69,2.61-0.69
		c0.26,0,0.55,0.03,0.87,0.08c0.32,0.05,0.56,0.11,0.71,0.17L1312.72,293.44z"/>
	<path class="st14" d="M1330.2,309.19h-4.62v-26.67h4.62V309.19z"/>
	<path class="st14" d="M1339.59,289.37l0.13,2.29c0.7-0.84,1.53-1.5,2.51-1.96c0.98-0.46,2.06-0.7,3.26-0.7
		c0.95,0,1.82,0.13,2.59,0.39c0.78,0.26,1.44,0.69,1.99,1.27c0.55,0.59,0.97,1.35,1.27,2.29c0.3,0.94,0.45,2.08,0.45,3.43v12.8
		h-4.45v-12.84c0-0.68-0.08-1.26-0.23-1.73c-0.15-0.47-0.38-0.85-0.67-1.14c-0.29-0.29-0.66-0.5-1.09-0.63
		c-0.43-0.13-0.93-0.19-1.49-0.19c-0.92,0-1.71,0.22-2.39,0.66s-1.22,1.03-1.62,1.78v14.11h-4.45v-19.82H1339.59z"/>
	<path class="st14" d="M1355.5,299.13c0-1.5,0.18-2.88,0.54-4.12c0.36-1.25,0.88-2.31,1.56-3.21s1.5-1.58,2.46-2.07
		c0.96-0.49,2.05-0.73,3.26-0.73c1.1,0,2.07,0.19,2.9,0.57c0.84,0.38,1.57,0.92,2.19,1.63v-10.15h4.45v28.14h-4.03l-0.22-2.05
		c-0.64,0.77-1.39,1.37-2.26,1.79s-1.9,0.63-3.07,0.63c-1.2,0-2.27-0.25-3.23-0.76c-0.96-0.51-1.77-1.21-2.45-2.1
		s-1.19-1.95-1.56-3.18c-0.37-1.23-0.55-2.56-0.55-4V299.13z M1359.95,299.52c0,0.88,0.08,1.71,0.25,2.48
		c0.17,0.78,0.43,1.46,0.79,2.04s0.82,1.05,1.38,1.38s1.25,0.5,2.05,0.5c1,0,1.82-0.22,2.46-0.67c0.64-0.45,1.15-1.03,1.53-1.77
		v-8.46c-0.38-0.73-0.89-1.31-1.54-1.74c-0.65-0.43-1.45-0.64-2.42-0.64c-0.81,0-1.49,0.17-2.06,0.51
		c-0.57,0.34-1.03,0.81-1.39,1.39c-0.36,0.59-0.63,1.27-0.8,2.06c-0.17,0.79-0.26,1.63-0.26,2.52V299.52z"/>
	<path class="st14" d="M1389.51,307.25c-0.62,0.73-1.39,1.3-2.31,1.7s-2,0.6-3.26,0.6c-0.98,0-1.87-0.14-2.67-0.41
		c-0.8-0.27-1.49-0.71-2.06-1.3c-0.57-0.59-1.02-1.36-1.34-2.29c-0.32-0.93-0.48-2.05-0.48-3.36v-12.82h4.45v12.86
		c0,0.72,0.09,1.32,0.26,1.79s0.4,0.85,0.69,1.14s0.62,0.49,1,0.6c0.38,0.12,0.78,0.17,1.19,0.17c1.15,0,2.08-0.21,2.78-0.62
		c0.71-0.42,1.24-0.98,1.59-1.7v-14.23h4.45v19.82h-4.19L1389.51,307.25z"/>
	<path class="st14" d="M1409.46,303.8c0-0.32-0.05-0.61-0.16-0.89c-0.1-0.27-0.31-0.53-0.61-0.77c-0.3-0.24-0.74-0.46-1.29-0.67
		s-1.28-0.4-2.17-0.59c-1.06-0.22-2.03-0.5-2.9-0.83c-0.87-0.33-1.62-0.73-2.24-1.2s-1.11-1.02-1.46-1.66
		c-0.35-0.63-0.52-1.37-0.52-2.2c0-0.81,0.18-1.57,0.53-2.3s0.86-1.36,1.53-1.91c0.67-0.55,1.47-0.99,2.42-1.31
		c0.95-0.32,2.01-0.49,3.18-0.49c1.23,0,2.34,0.16,3.33,0.49c0.98,0.32,1.82,0.77,2.5,1.34c0.68,0.57,1.21,1.24,1.57,2.01
		s0.54,1.6,0.54,2.49h-4.45c0-0.38-0.07-0.75-0.22-1.11c-0.15-0.36-0.37-0.68-0.66-0.96c-0.29-0.28-0.66-0.5-1.09-0.67
		c-0.43-0.17-0.94-0.25-1.51-0.25c-0.56,0-1.05,0.07-1.47,0.21c-0.42,0.14-0.76,0.32-1.03,0.55c-0.28,0.23-0.48,0.49-0.61,0.79
		c-0.13,0.3-0.2,0.61-0.2,0.94c0,0.33,0.06,0.62,0.18,0.88s0.34,0.49,0.65,0.7s0.73,0.4,1.25,0.58s1.18,0.35,1.98,0.52
		c1.15,0.25,2.18,0.53,3.09,0.86c0.91,0.33,1.68,0.73,2.31,1.21s1.11,1.04,1.44,1.69s0.49,1.42,0.49,2.31
		c0,0.88-0.19,1.69-0.57,2.42c-0.38,0.73-0.92,1.37-1.62,1.9s-1.55,0.94-2.54,1.24s-2.09,0.44-3.3,0.44c-1.36,0-2.55-0.19-3.6-0.58
		c-1.04-0.38-1.92-0.89-2.63-1.51c-0.71-0.62-1.24-1.33-1.6-2.12c-0.36-0.79-0.54-1.59-0.54-2.41h4.32
		c0.04,0.61,0.18,1.12,0.42,1.54s0.56,0.75,0.93,1.01c0.38,0.26,0.81,0.44,1.28,0.56s0.96,0.17,1.47,0.17
		c1.17,0,2.06-0.22,2.67-0.67C1409.16,305.11,1409.46,304.53,1409.46,303.8z"/>
	<path class="st14" d="M1423.29,284.55v4.82h3.5v3.3h-3.5v11.06c0,0.45,0.05,0.82,0.15,1.1c0.1,0.28,0.24,0.5,0.42,0.65
		c0.18,0.15,0.4,0.26,0.65,0.31c0.25,0.06,0.53,0.08,0.83,0.08s0.6-0.02,0.89-0.06s0.51-0.08,0.67-0.12v3.44
		c-0.35,0.1-0.77,0.19-1.24,0.28c-0.47,0.09-1.03,0.14-1.69,0.14c-0.73,0-1.41-0.1-2.04-0.29s-1.17-0.51-1.63-0.95
		c-0.46-0.44-0.81-1.01-1.07-1.72c-0.26-0.71-0.38-1.58-0.38-2.6v-11.32h-3.26v-3.3h3.26v-4.82H1423.29z"/>
	<path class="st14" d="M1440.57,293.44c-0.29-0.05-0.59-0.08-0.89-0.11c-0.3-0.02-0.61-0.04-0.92-0.04c-1.08,0-1.95,0.21-2.62,0.62
		s-1.17,0.99-1.5,1.72v13.56h-4.45v-19.82h4.25l0.11,2.22c0.5-0.81,1.12-1.44,1.86-1.9c0.74-0.46,1.61-0.69,2.61-0.69
		c0.26,0,0.55,0.03,0.87,0.08c0.32,0.05,0.56,0.11,0.71,0.17L1440.57,293.44z"/>
	<path class="st14" d="M1443.39,284.22c0-0.68,0.22-1.25,0.65-1.7c0.43-0.45,1.05-0.68,1.86-0.68c0.81,0,1.43,0.23,1.87,0.68
		c0.44,0.45,0.66,1.02,0.66,1.7c0,0.67-0.22,1.23-0.66,1.68c-0.44,0.45-1.06,0.67-1.87,0.67c-0.81,0-1.43-0.22-1.86-0.67
		C1443.6,285.45,1443.39,284.89,1443.39,284.22z M1448.11,309.19h-4.45v-19.82h4.45V309.19z"/>
	<path class="st14" d="M1464.8,309.19c-0.12-0.23-0.22-0.51-0.3-0.82s-0.15-0.66-0.21-1.03c-0.29,0.31-0.62,0.59-0.98,0.86
		c-0.36,0.27-0.76,0.5-1.19,0.71c-0.43,0.2-0.9,0.36-1.41,0.48s-1.05,0.17-1.62,0.17c-0.99,0-1.9-0.15-2.73-0.45
		c-0.83-0.3-1.54-0.71-2.13-1.25c-0.59-0.53-1.06-1.16-1.39-1.88c-0.34-0.72-0.5-1.5-0.5-2.34c0-1.06,0.2-2,0.6-2.82
		c0.4-0.82,0.99-1.5,1.76-2.05c0.77-0.55,1.71-0.97,2.83-1.25s2.39-0.43,3.82-0.43h2.8v-1.3c0-1.03-0.29-1.85-0.86-2.46
		c-0.57-0.62-1.45-0.92-2.62-0.92c-0.53,0-1,0.07-1.43,0.21c-0.43,0.14-0.79,0.33-1.09,0.57c-0.3,0.24-0.53,0.52-0.7,0.85
		c-0.17,0.33-0.25,0.68-0.25,1.06h-4.45c0-0.78,0.19-1.54,0.58-2.26c0.38-0.73,0.93-1.37,1.64-1.94c0.71-0.57,1.57-1.02,2.57-1.36
		s2.13-0.51,3.38-0.51c1.11,0,2.14,0.14,3.08,0.43c0.94,0.29,1.75,0.71,2.44,1.28c0.68,0.57,1.21,1.28,1.59,2.13
		c0.38,0.85,0.57,1.84,0.57,2.98v8.79c0,1.78,0.25,3.21,0.75,4.27v0.31H1464.8z M1459.91,305.98c0.51,0,0.99-0.07,1.44-0.2
		c0.45-0.13,0.85-0.31,1.21-0.53c0.36-0.22,0.67-0.47,0.94-0.76c0.27-0.29,0.48-0.58,0.64-0.87v-3.74h-2.4
		c-1.65,0-2.89,0.29-3.72,0.86c-0.83,0.57-1.25,1.39-1.25,2.44c0,0.4,0.07,0.78,0.2,1.12c0.13,0.34,0.34,0.64,0.6,0.89
		c0.27,0.25,0.59,0.45,0.98,0.59S1459.4,305.98,1459.91,305.98z"/>
	<path class="st14" d="M1477.99,309.19h-4.45v-28.14h4.45V309.19z"/>
	<path class="st14" d="M1510.78,286.26h-8.32v22.93h-4.6v-22.93h-8.24v-3.74h21.16V286.26z"/>
	<path class="st14" d="M1523.04,293.44c-0.29-0.05-0.59-0.08-0.89-0.11c-0.3-0.02-0.61-0.04-0.92-0.04c-1.08,0-1.95,0.21-2.62,0.62
		s-1.17,0.99-1.5,1.72v13.56h-4.45v-19.82h4.25l0.11,2.22c0.5-0.81,1.12-1.44,1.86-1.9c0.74-0.46,1.61-0.69,2.61-0.69
		c0.26,0,0.55,0.03,0.87,0.08c0.32,0.05,0.56,0.11,0.71,0.17L1523.04,293.44z"/>
	<path class="st14" d="M1537.14,309.19c-0.12-0.23-0.22-0.51-0.3-0.82s-0.15-0.66-0.21-1.03c-0.29,0.31-0.62,0.59-0.98,0.86
		c-0.36,0.27-0.76,0.5-1.19,0.71c-0.43,0.2-0.9,0.36-1.41,0.48s-1.05,0.17-1.62,0.17c-0.99,0-1.9-0.15-2.73-0.45
		c-0.83-0.3-1.54-0.71-2.13-1.25c-0.59-0.53-1.06-1.16-1.39-1.88c-0.34-0.72-0.5-1.5-0.5-2.34c0-1.06,0.2-2,0.6-2.82
		c0.4-0.82,0.99-1.5,1.76-2.05c0.77-0.55,1.71-0.97,2.83-1.25s2.39-0.43,3.82-0.43h2.8v-1.3c0-1.03-0.29-1.85-0.86-2.46
		c-0.57-0.62-1.45-0.92-2.62-0.92c-0.53,0-1,0.07-1.43,0.21c-0.43,0.14-0.79,0.33-1.09,0.57c-0.3,0.24-0.53,0.52-0.7,0.85
		c-0.17,0.33-0.25,0.68-0.25,1.06h-4.45c0-0.78,0.19-1.54,0.58-2.26c0.38-0.73,0.93-1.37,1.64-1.94c0.71-0.57,1.57-1.02,2.57-1.36
		s2.13-0.51,3.38-0.51c1.11,0,2.14,0.14,3.08,0.43c0.94,0.29,1.75,0.71,2.44,1.28c0.68,0.57,1.21,1.28,1.59,2.13
		c0.38,0.85,0.57,1.84,0.57,2.98v8.79c0,1.78,0.25,3.21,0.75,4.27v0.31H1537.14z M1532.25,305.98c0.51,0,0.99-0.07,1.44-0.2
		c0.45-0.13,0.85-0.31,1.21-0.53c0.36-0.22,0.67-0.47,0.94-0.76c0.27-0.29,0.48-0.58,0.64-0.87v-3.74h-2.4
		c-1.65,0-2.89,0.29-3.72,0.86c-0.83,0.57-1.25,1.39-1.25,2.44c0,0.4,0.07,0.78,0.2,1.12c0.13,0.34,0.34,0.64,0.6,0.89
		c0.27,0.25,0.59,0.45,0.98,0.59S1531.74,305.98,1532.25,305.98z"/>
	<path class="st14" d="M1545.6,284.22c0-0.68,0.22-1.25,0.65-1.7c0.43-0.45,1.05-0.68,1.86-0.68c0.81,0,1.43,0.23,1.87,0.68
		c0.44,0.45,0.66,1.02,0.66,1.7c0,0.67-0.22,1.23-0.66,1.68c-0.44,0.45-1.06,0.67-1.87,0.67c-0.81,0-1.43-0.22-1.86-0.67
		C1545.82,285.45,1545.6,284.89,1545.6,284.22z M1550.33,309.19h-4.45v-19.82h4.45V309.19z"/>
	<path class="st14" d="M1559.31,289.37l0.13,2.29c0.7-0.84,1.53-1.5,2.51-1.96c0.98-0.46,2.06-0.7,3.26-0.7
		c0.95,0,1.82,0.13,2.59,0.39c0.78,0.26,1.44,0.69,1.99,1.27c0.55,0.59,0.97,1.35,1.27,2.29c0.3,0.94,0.45,2.08,0.45,3.43v12.8
		h-4.45v-12.84c0-0.68-0.08-1.26-0.23-1.73c-0.15-0.47-0.38-0.85-0.67-1.14c-0.29-0.29-0.66-0.5-1.09-0.63
		c-0.43-0.13-0.93-0.19-1.49-0.19c-0.92,0-1.71,0.22-2.39,0.66s-1.22,1.03-1.62,1.78v14.11h-4.45v-19.82H1559.31z"/>
	<path class="st14" d="M1576.05,284.22c0-0.68,0.22-1.25,0.65-1.7c0.43-0.45,1.05-0.68,1.86-0.68c0.81,0,1.43,0.23,1.87,0.68
		c0.44,0.45,0.66,1.02,0.66,1.7c0,0.67-0.22,1.23-0.66,1.68c-0.44,0.45-1.06,0.67-1.87,0.67c-0.81,0-1.43-0.22-1.86-0.67
		C1576.27,285.45,1576.05,284.89,1576.05,284.22z M1580.78,309.19h-4.45v-19.82h4.45V309.19z"/>
	<path class="st14" d="M1589.75,289.37l0.13,2.29c0.7-0.84,1.53-1.5,2.51-1.96c0.98-0.46,2.06-0.7,3.26-0.7
		c0.95,0,1.82,0.13,2.59,0.39c0.78,0.26,1.44,0.69,1.99,1.27c0.55,0.59,0.97,1.35,1.27,2.29c0.3,0.94,0.45,2.08,0.45,3.43v12.8
		h-4.45v-12.84c0-0.68-0.08-1.26-0.23-1.73c-0.15-0.47-0.38-0.85-0.67-1.14c-0.29-0.29-0.66-0.5-1.09-0.63
		c-0.43-0.13-0.93-0.19-1.49-0.19c-0.92,0-1.71,0.22-2.39,0.66s-1.22,1.03-1.62,1.78v14.11h-4.45v-19.82H1589.75z"/>
	<path class="st14" d="M1605.71,299.13c0-1.5,0.18-2.88,0.55-4.12c0.37-1.25,0.89-2.31,1.58-3.21c0.69-0.89,1.52-1.58,2.5-2.07
		c0.98-0.49,2.08-0.73,3.3-0.73c1.2,0,2.23,0.2,3.1,0.61c0.87,0.41,1.61,0.99,2.23,1.75l0.2-2h4.01v19.27
		c0,1.33-0.22,2.52-0.66,3.55s-1.05,1.91-1.84,2.62c-0.79,0.71-1.73,1.25-2.84,1.62c-1.11,0.37-2.32,0.56-3.64,0.56
		c-0.55,0-1.16-0.06-1.83-0.17c-0.67-0.12-1.35-0.31-2.03-0.57c-0.68-0.26-1.34-0.6-1.96-1.02s-1.15-0.92-1.59-1.52l2.11-2.67
		c0.73,0.87,1.53,1.49,2.39,1.87c0.86,0.38,1.75,0.57,2.67,0.57c1.48,0,2.64-0.4,3.5-1.2s1.28-1.98,1.28-3.53v-1.34
		c-0.62,0.7-1.36,1.23-2.2,1.59c-0.84,0.37-1.82,0.55-2.93,0.55c-1.21,0-2.3-0.25-3.27-0.76c-0.97-0.51-1.8-1.21-2.49-2.1
		c-0.69-0.89-1.22-1.95-1.58-3.18c-0.37-1.23-0.55-2.56-0.55-4V299.13z M1610.14,299.52c0,0.88,0.09,1.71,0.27,2.48
		c0.18,0.78,0.45,1.46,0.83,2.04s0.85,1.05,1.43,1.38s1.26,0.5,2.07,0.5c1,0,1.82-0.21,2.45-0.63c0.64-0.42,1.15-0.98,1.54-1.68
		v-8.72c-0.39-0.7-0.91-1.25-1.55-1.65c-0.64-0.4-1.44-0.6-2.41-0.6c-0.81,0-1.5,0.17-2.09,0.51s-1.07,0.81-1.44,1.39
		c-0.37,0.59-0.65,1.27-0.83,2.06c-0.18,0.79-0.27,1.63-0.27,2.52V299.52z"/>
	<path class="st14" d="M1642.16,299.28v9.91h-4.63v-26.67h10.2c1.55,0,2.93,0.21,4.13,0.63c1.2,0.42,2.22,1.01,3.05,1.77
		c0.83,0.76,1.46,1.65,1.9,2.69s0.65,2.17,0.65,3.39c0,1.29-0.22,2.46-0.65,3.48c-0.43,1.03-1.07,1.89-1.9,2.6
		c-0.83,0.71-1.85,1.25-3.05,1.63c-1.2,0.38-2.58,0.57-4.13,0.57H1642.16z M1642.16,295.56h5.57c0.89,0,1.66-0.11,2.3-0.33
		c0.64-0.22,1.17-0.53,1.58-0.93c0.42-0.4,0.72-0.88,0.91-1.44c0.19-0.56,0.28-1.16,0.28-1.82c0-0.62-0.09-1.22-0.28-1.8
		c-0.19-0.57-0.49-1.08-0.91-1.53c-0.42-0.45-0.94-0.8-1.58-1.06c-0.64-0.26-1.41-0.39-2.3-0.39h-5.57V295.56z"/>
	<path class="st14" d="M1671.45,293.44c-0.29-0.05-0.59-0.08-0.89-0.11c-0.3-0.02-0.61-0.04-0.92-0.04c-1.08,0-1.95,0.21-2.62,0.62
		s-1.17,0.99-1.5,1.72v13.56h-4.45v-19.82h4.25l0.11,2.22c0.5-0.81,1.12-1.44,1.86-1.9c0.74-0.46,1.61-0.69,2.61-0.69
		c0.26,0,0.55,0.03,0.87,0.08c0.32,0.05,0.56,0.11,0.71,0.17L1671.45,293.44z"/>
	<path class="st14" d="M1672.77,299.1c0-1.44,0.21-2.78,0.63-4c0.42-1.23,1.03-2.29,1.81-3.2c0.79-0.9,1.75-1.61,2.88-2.13
		c1.14-0.51,2.42-0.77,3.87-0.77c1.45,0,2.75,0.26,3.9,0.77c1.15,0.51,2.12,1.22,2.9,2.13c0.79,0.9,1.39,1.97,1.8,3.2
		c0.42,1.23,0.62,2.56,0.62,4v0.38c0,1.44-0.21,2.78-0.62,4.01c-0.42,1.23-1.02,2.3-1.8,3.2c-0.79,0.9-1.75,1.6-2.89,2.11
		c-1.14,0.51-2.43,0.76-3.87,0.76c-1.45,0-2.75-0.25-3.89-0.76c-1.14-0.51-2.11-1.21-2.89-2.11c-0.79-0.9-1.39-1.96-1.81-3.2
		s-0.63-2.57-0.63-4.01V299.1z M1677.22,299.48c0,0.89,0.09,1.73,0.27,2.53c0.18,0.79,0.47,1.49,0.86,2.08s0.89,1.06,1.49,1.4
		s1.32,0.51,2.15,0.51c0.82,0,1.53-0.17,2.13-0.51s1.1-0.81,1.48-1.4s0.67-1.29,0.86-2.08s0.28-1.64,0.28-2.53v-0.38
		c0-0.88-0.09-1.71-0.28-2.5c-0.19-0.79-0.48-1.48-0.87-2.07c-0.39-0.59-0.89-1.07-1.49-1.42c-0.6-0.35-1.32-0.53-2.15-0.53
		c-0.83,0-1.54,0.18-2.13,0.53c-0.59,0.35-1.08,0.83-1.47,1.42c-0.39,0.59-0.68,1.28-0.86,2.07c-0.18,0.79-0.27,1.62-0.27,2.5
		V299.48z"/>
	<path class="st14" d="M1694.19,299.13c0-1.5,0.18-2.88,0.55-4.12c0.37-1.25,0.89-2.31,1.58-3.21c0.69-0.89,1.52-1.58,2.5-2.07
		c0.98-0.49,2.08-0.73,3.3-0.73c1.2,0,2.23,0.2,3.1,0.61c0.87,0.41,1.61,0.99,2.23,1.75l0.2-2h4.01v19.27
		c0,1.33-0.22,2.52-0.66,3.55s-1.05,1.91-1.84,2.62c-0.79,0.71-1.73,1.25-2.84,1.62c-1.11,0.37-2.32,0.56-3.64,0.56
		c-0.55,0-1.16-0.06-1.83-0.17c-0.67-0.12-1.35-0.31-2.03-0.57c-0.68-0.26-1.34-0.6-1.96-1.02s-1.15-0.92-1.59-1.52l2.11-2.67
		c0.73,0.87,1.53,1.49,2.39,1.87c0.86,0.38,1.75,0.57,2.67,0.57c1.48,0,2.64-0.4,3.5-1.2s1.28-1.98,1.28-3.53v-1.34
		c-0.62,0.7-1.36,1.23-2.2,1.59c-0.84,0.37-1.82,0.55-2.93,0.55c-1.21,0-2.3-0.25-3.27-0.76c-0.97-0.51-1.8-1.21-2.49-2.1
		c-0.69-0.89-1.22-1.95-1.58-3.18c-0.37-1.23-0.55-2.56-0.55-4V299.13z M1698.62,299.52c0,0.88,0.09,1.71,0.27,2.48
		c0.18,0.78,0.45,1.46,0.83,2.04s0.85,1.05,1.43,1.38s1.26,0.5,2.07,0.5c1,0,1.82-0.21,2.45-0.63c0.64-0.42,1.15-0.98,1.54-1.68
		v-8.72c-0.39-0.7-0.91-1.25-1.55-1.65c-0.64-0.4-1.44-0.6-2.41-0.6c-0.81,0-1.5,0.17-2.09,0.51s-1.07,0.81-1.44,1.39
		c-0.37,0.59-0.65,1.27-0.83,2.06c-0.18,0.79-0.27,1.63-0.27,2.52V299.52z"/>
	<path class="st14" d="M1726.61,293.44c-0.29-0.05-0.59-0.08-0.89-0.11c-0.3-0.02-0.61-0.04-0.92-0.04c-1.08,0-1.95,0.21-2.62,0.62
		s-1.17,0.99-1.5,1.72v13.56h-4.45v-19.82h4.25l0.11,2.22c0.5-0.81,1.12-1.44,1.86-1.9c0.74-0.46,1.61-0.69,2.61-0.69
		c0.26,0,0.55,0.03,0.87,0.08c0.32,0.05,0.56,0.11,0.71,0.17L1726.61,293.44z"/>
	<path class="st14" d="M1740.71,309.19c-0.12-0.23-0.22-0.51-0.3-0.82s-0.15-0.66-0.21-1.03c-0.29,0.31-0.62,0.59-0.98,0.86
		c-0.36,0.27-0.76,0.5-1.19,0.71c-0.43,0.2-0.9,0.36-1.41,0.48s-1.05,0.17-1.62,0.17c-0.99,0-1.9-0.15-2.73-0.45
		c-0.83-0.3-1.54-0.71-2.13-1.25c-0.59-0.53-1.06-1.16-1.39-1.88c-0.34-0.72-0.5-1.5-0.5-2.34c0-1.06,0.2-2,0.6-2.82
		c0.4-0.82,0.99-1.5,1.76-2.05c0.77-0.55,1.71-0.97,2.83-1.25s2.39-0.43,3.82-0.43h2.8v-1.3c0-1.03-0.29-1.85-0.86-2.46
		c-0.57-0.62-1.45-0.92-2.62-0.92c-0.53,0-1,0.07-1.43,0.21c-0.43,0.14-0.79,0.33-1.09,0.57c-0.3,0.24-0.53,0.52-0.7,0.85
		c-0.17,0.33-0.25,0.68-0.25,1.06h-4.45c0-0.78,0.19-1.54,0.58-2.26c0.38-0.73,0.93-1.37,1.64-1.94c0.71-0.57,1.57-1.02,2.57-1.36
		s2.13-0.51,3.38-0.51c1.11,0,2.14,0.14,3.08,0.43c0.94,0.29,1.75,0.71,2.44,1.28c0.68,0.57,1.21,1.28,1.59,2.13
		c0.38,0.85,0.57,1.84,0.57,2.98v8.79c0,1.78,0.25,3.21,0.75,4.27v0.31H1740.71z M1735.82,305.98c0.51,0,0.99-0.07,1.44-0.2
		c0.45-0.13,0.85-0.31,1.21-0.53c0.36-0.22,0.67-0.47,0.94-0.76c0.27-0.29,0.48-0.58,0.64-0.87v-3.74h-2.4
		c-1.65,0-2.89,0.29-3.72,0.86c-0.83,0.57-1.25,1.39-1.25,2.44c0,0.4,0.07,0.78,0.2,1.12c0.13,0.34,0.34,0.64,0.6,0.89
		c0.27,0.25,0.59,0.45,0.98,0.59S1735.31,305.98,1735.82,305.98z"/>
	<path class="st14" d="M1753.35,289.37l0.13,2.07c0.66-0.77,1.46-1.37,2.41-1.79c0.95-0.43,2.05-0.64,3.31-0.64
		c1.21,0,2.29,0.24,3.24,0.72c0.95,0.48,1.68,1.25,2.2,2.32c0.66-0.93,1.49-1.67,2.5-2.22c1.01-0.55,2.2-0.82,3.58-0.82
		c1.03,0,1.94,0.14,2.75,0.41c0.81,0.27,1.49,0.71,2.04,1.3c0.55,0.59,0.98,1.35,1.28,2.28c0.3,0.93,0.45,2.05,0.45,3.35v12.84
		h-4.45v-12.86c0-0.73-0.08-1.33-0.25-1.8c-0.17-0.47-0.4-0.85-0.71-1.13c-0.31-0.28-0.68-0.48-1.12-0.59
		c-0.43-0.11-0.92-0.17-1.47-0.17c-1.01,0-1.84,0.27-2.48,0.82c-0.64,0.54-1.09,1.25-1.35,2.13c0,0.06,0,0.13,0.01,0.19
		c0.01,0.07,0.01,0.13,0.01,0.19v13.21h-4.45v-12.8c0-0.7-0.08-1.28-0.25-1.76c-0.17-0.48-0.4-0.86-0.71-1.15
		c-0.31-0.29-0.69-0.5-1.13-0.63c-0.44-0.13-0.93-0.19-1.48-0.19c-0.95,0-1.74,0.2-2.35,0.59c-0.62,0.39-1.1,0.92-1.44,1.59v14.36
		h-4.45v-19.82H1753.35z"/>
</g>
<g>
	<path class="st15" d="M1189.43,254.88h24.89v7.61h-34.41v-54.82h9.53V254.88z"/>
	<path class="st15" d="M1238.68,263.24c-3.01,0-5.72-0.5-8.13-1.51c-2.41-1-4.46-2.38-6.14-4.14c-1.68-1.76-2.97-3.84-3.88-6.25
		s-1.36-5.01-1.36-7.79v-1.51c0-3.21,0.48-6.12,1.43-8.72c0.95-2.6,2.26-4.81,3.92-6.63c1.66-1.82,3.61-3.23,5.85-4.22
		c2.25-0.99,4.66-1.49,7.25-1.49c2.96,0,5.54,0.5,7.72,1.49c2.18,0.99,3.99,2.38,5.42,4.16c1.43,1.78,2.5,3.9,3.2,6.36
		c0.7,2.46,1.05,5.16,1.05,8.09v3.92h-26.62c0.13,1.58,0.46,3.04,1,4.37c0.54,1.33,1.27,2.48,2.2,3.45
		c0.93,0.97,2.03,1.73,3.29,2.28c1.27,0.55,2.7,0.83,4.31,0.83c2.26,0,4.22-0.45,5.89-1.36c1.67-0.9,3.12-2.15,4.35-3.73l4.93,4.71
		c-0.65,0.98-1.46,1.93-2.43,2.84c-0.97,0.92-2.1,1.73-3.39,2.45c-1.29,0.72-2.75,1.29-4.39,1.73
		C1242.55,263.02,1240.71,263.24,1238.68,263.24z M1237.59,228.34c-2.51,0-4.54,0.88-6.08,2.64c-1.54,1.76-2.53,4.2-2.96,7.34h17.43
		v-0.68c-0.08-1.21-0.27-2.37-0.58-3.48c-0.31-1.12-0.8-2.11-1.45-2.97c-0.65-0.87-1.5-1.56-2.54-2.07
		C1240.37,228.6,1239.1,228.34,1237.59,228.34z"/>
	<path class="st15" d="M1286.46,262.49c-0.25-0.48-0.46-1.04-0.62-1.69c-0.16-0.65-0.31-1.36-0.43-2.11
		c-0.6,0.63-1.27,1.22-2.01,1.77c-0.74,0.55-1.56,1.04-2.45,1.45c-0.89,0.41-1.86,0.74-2.9,0.98c-1.04,0.24-2.15,0.36-3.33,0.36
		c-2.03,0-3.9-0.31-5.61-0.92c-1.71-0.62-3.17-1.47-4.39-2.56s-2.17-2.38-2.86-3.86c-0.69-1.48-1.04-3.09-1.04-4.82
		c0-2.18,0.41-4.12,1.24-5.8s2.03-3.09,3.62-4.22c1.58-1.13,3.52-1.99,5.82-2.58c2.3-0.59,4.91-0.88,7.85-0.88h5.76v-2.67
		c0-2.11-0.59-3.8-1.77-5.06c-1.18-1.27-2.97-1.9-5.38-1.9c-1.08,0-2.06,0.15-2.94,0.43c-0.88,0.29-1.63,0.68-2.24,1.17
		c-0.62,0.49-1.09,1.07-1.43,1.75s-0.51,1.41-0.51,2.18h-9.15c0-1.61,0.4-3.16,1.19-4.65c0.79-1.49,1.91-2.82,3.37-3.99
		c1.46-1.17,3.22-2.1,5.29-2.81c2.07-0.7,4.39-1.05,6.95-1.05c2.28,0,4.39,0.3,6.33,0.88c1.93,0.59,3.6,1.47,5.01,2.64
		c1.41,1.17,2.5,2.62,3.28,4.37c0.78,1.75,1.17,3.78,1.17,6.12v18.07c0,3.67,0.51,6.59,1.54,8.77v0.64H1286.46z M1276.41,255.9
		c1.05,0,2.04-0.14,2.96-0.41c0.92-0.28,1.74-0.64,2.49-1.09c0.74-0.45,1.39-0.97,1.94-1.56c0.55-0.59,0.99-1.19,1.32-1.79v-7.68
		h-4.93c-3.39,0-5.94,0.59-7.64,1.77c-1.71,1.18-2.56,2.85-2.56,5.01c0,0.83,0.14,1.59,0.41,2.3c0.28,0.7,0.69,1.31,1.24,1.83
		s1.22,0.92,2.01,1.21C1274.43,255.76,1275.35,255.9,1276.41,255.9z"/>
	<path class="st15" d="M1325.17,230.11c-0.6-0.1-1.21-0.18-1.83-0.23c-0.62-0.05-1.25-0.08-1.9-0.08c-2.21,0-4,0.43-5.38,1.28
		c-1.38,0.85-2.41,2.03-3.09,3.54v27.86h-9.15v-40.74h8.74l0.23,4.56c1.03-1.66,2.3-2.96,3.82-3.9c1.52-0.94,3.31-1.41,5.37-1.41
		c0.53,0,1.12,0.06,1.79,0.17c0.66,0.11,1.15,0.23,1.45,0.36L1325.17,230.11z"/>
	<path class="st15" d="M1339.44,221.75l0.26,4.71c1.43-1.73,3.15-3.07,5.16-4.03c2.01-0.95,4.24-1.43,6.7-1.43
		c1.96,0,3.73,0.27,5.33,0.81c1.59,0.54,2.96,1.41,4.09,2.62c1.13,1.21,2,2.77,2.62,4.71c0.62,1.93,0.92,4.28,0.92,7.04v26.32h-9.15
		V236.1c0-1.41-0.16-2.59-0.47-3.56c-0.31-0.97-0.77-1.75-1.37-2.35s-1.35-1.04-2.24-1.3c-0.89-0.26-1.92-0.4-3.07-0.4
		c-1.88,0-3.52,0.45-4.91,1.36c-1.39,0.9-2.5,2.12-3.33,3.65v28.99h-9.15v-40.74H1339.44z"/>
	<path class="st15" d="M1422.57,248.37c0-1.1-0.16-2.09-0.49-2.96c-0.33-0.87-0.92-1.66-1.79-2.39c-0.87-0.73-2.06-1.42-3.58-2.09
		s-3.47-1.36-5.85-2.09c-2.61-0.78-5.02-1.67-7.23-2.67c-2.21-1-4.11-2.17-5.7-3.5c-1.59-1.33-2.84-2.86-3.75-4.59
		s-1.36-3.71-1.36-5.95c0-2.21,0.47-4.24,1.41-6.1c0.94-1.86,2.26-3.46,3.97-4.82s3.75-2.41,6.14-3.16
		c2.38-0.75,5.02-1.13,7.91-1.13c3.09,0,5.86,0.45,8.32,1.34c2.46,0.89,4.54,2.1,6.23,3.63c1.69,1.53,2.99,3.31,3.9,5.33
		c0.9,2.02,1.36,4.17,1.36,6.46h-9.49c0-1.33-0.21-2.55-0.62-3.67c-0.41-1.12-1.05-2.08-1.9-2.9c-0.85-0.82-1.93-1.45-3.24-1.9
		c-1.31-0.45-2.85-0.68-4.63-0.68c-1.68,0-3.14,0.19-4.37,0.56c-1.23,0.38-2.25,0.9-3.07,1.58c-0.82,0.68-1.42,1.48-1.81,2.41
		c-0.39,0.93-0.58,1.93-0.58,3.01c0,2.03,0.96,3.73,2.88,5.08s4.85,2.61,8.79,3.77c3.09,0.9,5.76,1.91,8.02,3.01
		c2.26,1.1,4.13,2.35,5.63,3.75c1.49,1.39,2.6,2.96,3.33,4.71c0.73,1.75,1.09,3.71,1.09,5.89c0,2.31-0.46,4.39-1.37,6.23
		c-0.92,1.84-2.22,3.41-3.92,4.71c-1.69,1.29-3.75,2.28-6.16,2.97c-2.41,0.69-5.1,1.04-8.06,1.04c-2.63,0-5.23-0.36-7.79-1.07
		c-2.56-0.72-4.86-1.79-6.89-3.24s-3.67-3.24-4.91-5.4c-1.24-2.16-1.86-4.69-1.86-7.61h9.53c0,1.73,0.31,3.22,0.92,4.46
		s1.46,2.26,2.52,3.05c1.07,0.79,2.33,1.37,3.78,1.73c1.46,0.36,3.02,0.55,4.71,0.55c3.31,0,5.8-0.67,7.47-2.01
		C1421.74,252.35,1422.57,250.58,1422.57,248.37z"/>
	<path class="st15" d="M1457.51,263.24c-3.01,0-5.72-0.5-8.13-1.51c-2.41-1-4.46-2.38-6.14-4.14c-1.68-1.76-2.97-3.84-3.88-6.25
		s-1.36-5.01-1.36-7.79v-1.51c0-3.21,0.48-6.12,1.43-8.72c0.95-2.6,2.26-4.81,3.92-6.63c1.66-1.82,3.61-3.23,5.85-4.22
		c2.25-0.99,4.66-1.49,7.25-1.49c2.96,0,5.54,0.5,7.72,1.49c2.18,0.99,3.99,2.38,5.42,4.16c1.43,1.78,2.5,3.9,3.2,6.36
		c0.7,2.46,1.05,5.16,1.05,8.09v3.92h-26.62c0.13,1.58,0.46,3.04,1,4.37c0.54,1.33,1.27,2.48,2.2,3.45
		c0.93,0.97,2.03,1.73,3.29,2.28c1.27,0.55,2.7,0.83,4.31,0.83c2.26,0,4.22-0.45,5.89-1.36c1.67-0.9,3.12-2.15,4.35-3.73l4.93,4.71
		c-0.65,0.98-1.46,1.93-2.43,2.84c-0.97,0.92-2.1,1.73-3.39,2.45c-1.29,0.72-2.75,1.29-4.39,1.73
		C1461.38,263.02,1459.54,263.24,1457.51,263.24z M1456.42,228.34c-2.51,0-4.54,0.88-6.08,2.64c-1.54,1.76-2.53,4.2-2.96,7.34h17.43
		v-0.68c-0.08-1.21-0.27-2.37-0.58-3.48c-0.31-1.12-0.8-2.11-1.45-2.97c-0.65-0.87-1.5-1.56-2.54-2.07
		C1459.2,228.6,1457.93,228.34,1456.42,228.34z"/>
	<path class="st15" d="M1505.29,262.49c-0.25-0.48-0.46-1.04-0.62-1.69c-0.16-0.65-0.31-1.36-0.43-2.11
		c-0.6,0.63-1.27,1.22-2.01,1.77c-0.74,0.55-1.56,1.04-2.45,1.45c-0.89,0.41-1.86,0.74-2.9,0.98c-1.04,0.24-2.15,0.36-3.33,0.36
		c-2.03,0-3.9-0.31-5.61-0.92c-1.71-0.62-3.17-1.47-4.39-2.56s-2.17-2.38-2.86-3.86c-0.69-1.48-1.04-3.09-1.04-4.82
		c0-2.18,0.41-4.12,1.24-5.8s2.03-3.09,3.62-4.22c1.58-1.13,3.52-1.99,5.82-2.58c2.3-0.59,4.91-0.88,7.85-0.88h5.76v-2.67
		c0-2.11-0.59-3.8-1.77-5.06c-1.18-1.27-2.97-1.9-5.38-1.9c-1.08,0-2.06,0.15-2.94,0.43c-0.88,0.29-1.63,0.68-2.24,1.17
		c-0.62,0.49-1.09,1.07-1.43,1.75s-0.51,1.41-0.51,2.18h-9.15c0-1.61,0.4-3.16,1.19-4.65c0.79-1.49,1.91-2.82,3.37-3.99
		c1.46-1.17,3.22-2.1,5.29-2.81c2.07-0.7,4.39-1.05,6.95-1.05c2.28,0,4.39,0.3,6.33,0.88c1.93,0.59,3.6,1.47,5.01,2.64
		c1.41,1.17,2.5,2.62,3.28,4.37c0.78,1.75,1.17,3.78,1.17,6.12v18.07c0,3.67,0.51,6.59,1.54,8.77v0.64H1505.29z M1495.24,255.9
		c1.05,0,2.04-0.14,2.96-0.41c0.92-0.28,1.74-0.64,2.49-1.09c0.74-0.45,1.39-0.97,1.94-1.56c0.55-0.59,0.99-1.19,1.32-1.79v-7.68
		H1499c-3.39,0-5.94,0.59-7.64,1.77c-1.71,1.18-2.56,2.85-2.56,5.01c0,0.83,0.14,1.59,0.41,2.3c0.28,0.7,0.69,1.31,1.24,1.83
		s1.22,0.92,2.01,1.21C1493.26,255.76,1494.18,255.9,1495.24,255.9z"/>
	<path class="st15" d="M1531.27,221.75l0.26,4.25c1.36-1.58,3.01-2.81,4.95-3.69c1.94-0.88,4.21-1.32,6.8-1.32
		c2.49,0,4.71,0.5,6.66,1.49c1.96,0.99,3.46,2.58,4.52,4.76c1.36-1.91,3.07-3.43,5.14-4.56c2.07-1.13,4.52-1.69,7.36-1.69
		c2.11,0,3.99,0.28,5.65,0.85c1.66,0.56,3.06,1.46,4.2,2.67c1.14,1.22,2.02,2.78,2.64,4.69c0.61,1.91,0.92,4.2,0.92,6.89v26.39
		h-9.15v-26.43c0-1.51-0.17-2.74-0.51-3.71s-0.83-1.74-1.47-2.32c-0.64-0.58-1.41-0.98-2.3-1.2c-0.89-0.23-1.9-0.34-3.03-0.34
		c-2.08,0-3.78,0.56-5.1,1.68c-1.32,1.12-2.24,2.58-2.77,4.39c0,0.13,0.01,0.26,0.02,0.4c0.01,0.14,0.02,0.27,0.02,0.4v27.15h-9.15
		v-26.32c0-1.43-0.17-2.64-0.51-3.61s-0.83-1.77-1.47-2.37c-0.64-0.6-1.41-1.04-2.32-1.3c-0.9-0.26-1.92-0.4-3.05-0.4
		c-1.96,0-3.57,0.4-4.84,1.2c-1.27,0.8-2.25,1.9-2.96,3.28v29.52h-9.15v-40.74H1531.27z"/>
	<path class="st15" d="M1599.49,262.49h-9.15v-57.83h9.15V262.49z"/>
	<path class="st15" d="M1627.39,263.24c-3.01,0-5.72-0.5-8.13-1.51c-2.41-1-4.46-2.38-6.14-4.14c-1.68-1.76-2.97-3.84-3.88-6.25
		s-1.36-5.01-1.36-7.79v-1.51c0-3.21,0.48-6.12,1.43-8.72c0.95-2.6,2.26-4.81,3.92-6.63c1.66-1.82,3.61-3.23,5.85-4.22
		c2.25-0.99,4.66-1.49,7.25-1.49c2.96,0,5.54,0.5,7.72,1.49c2.18,0.99,3.99,2.38,5.42,4.16c1.43,1.78,2.5,3.9,3.2,6.36
		c0.7,2.46,1.05,5.16,1.05,8.09v3.92h-26.62c0.13,1.58,0.46,3.04,1,4.37c0.54,1.33,1.27,2.48,2.2,3.45
		c0.93,0.97,2.03,1.73,3.29,2.28c1.27,0.55,2.7,0.83,4.31,0.83c2.26,0,4.22-0.45,5.89-1.36c1.67-0.9,3.12-2.15,4.35-3.73l4.93,4.71
		c-0.65,0.98-1.46,1.93-2.43,2.84c-0.97,0.92-2.1,1.73-3.39,2.45c-1.29,0.72-2.75,1.29-4.39,1.73
		C1631.26,263.02,1629.43,263.24,1627.39,263.24z M1626.3,228.34c-2.51,0-4.54,0.88-6.08,2.64c-1.54,1.76-2.53,4.2-2.96,7.34h17.43
		v-0.68c-0.08-1.21-0.27-2.37-0.58-3.48c-0.31-1.12-0.8-2.11-1.45-2.97c-0.65-0.87-1.5-1.56-2.54-2.07
		C1629.08,228.6,1627.81,228.34,1626.3,228.34z"/>
	<path class="st15" d="M1673.67,251.42c0-0.65-0.11-1.26-0.32-1.83c-0.21-0.56-0.63-1.09-1.26-1.58c-0.63-0.49-1.51-0.95-2.65-1.37
		s-2.63-0.83-4.46-1.21c-2.18-0.45-4.17-1.02-5.97-1.69c-1.79-0.68-3.33-1.5-4.61-2.47c-1.28-0.97-2.28-2.1-2.99-3.41
		c-0.71-1.3-1.07-2.81-1.07-4.52c0-1.66,0.36-3.23,1.09-4.73c0.73-1.49,1.78-2.81,3.14-3.93c1.37-1.13,3.02-2.03,4.97-2.69
		c1.95-0.66,4.12-1,6.53-1c2.53,0,4.81,0.33,6.83,1c2.02,0.67,3.73,1.58,5.14,2.75c1.41,1.17,2.48,2.54,3.22,4.12
		s1.11,3.29,1.11,5.12h-9.15c0-0.78-0.15-1.54-0.45-2.28c-0.3-0.74-0.75-1.4-1.36-1.98c-0.6-0.58-1.35-1.04-2.24-1.37
		s-1.93-0.51-3.11-0.51c-1.16,0-2.16,0.14-3.01,0.43s-1.56,0.67-2.13,1.13c-0.57,0.46-0.99,1-1.26,1.62
		c-0.28,0.62-0.41,1.26-0.41,1.94s0.13,1.28,0.38,1.81c0.25,0.53,0.7,1,1.34,1.43c0.64,0.43,1.5,0.82,2.58,1.19
		c1.08,0.36,2.43,0.72,4.07,1.07c2.36,0.5,4.47,1.09,6.34,1.77c1.87,0.68,3.45,1.51,4.74,2.48c1.29,0.98,2.28,2.13,2.96,3.46
		c0.68,1.33,1.02,2.91,1.02,4.74c0,1.81-0.39,3.46-1.17,4.97c-0.78,1.51-1.89,2.8-3.33,3.9c-1.44,1.09-3.18,1.94-5.21,2.54
		s-4.29,0.9-6.78,0.9c-2.79,0-5.25-0.39-7.4-1.19c-2.15-0.79-3.95-1.83-5.4-3.11c-1.46-1.28-2.55-2.73-3.29-4.35
		s-1.11-3.27-1.11-4.95h8.89c0.08,1.26,0.36,2.31,0.87,3.16s1.14,1.54,1.92,2.07c0.78,0.53,1.66,0.91,2.63,1.15
		c0.98,0.24,1.98,0.36,3.01,0.36c2.41,0,4.24-0.46,5.5-1.37C1673.04,254.1,1673.67,252.9,1673.67,251.42z"/>
	<path class="st15" d="M1713.46,251.42c0-0.65-0.11-1.26-0.32-1.83c-0.21-0.56-0.63-1.09-1.26-1.58c-0.63-0.49-1.51-0.95-2.65-1.37
		s-2.63-0.83-4.46-1.21c-2.18-0.45-4.17-1.02-5.97-1.69c-1.79-0.68-3.33-1.5-4.61-2.47c-1.28-0.97-2.28-2.1-2.99-3.41
		c-0.71-1.3-1.07-2.81-1.07-4.52c0-1.66,0.36-3.23,1.09-4.73c0.73-1.49,1.78-2.81,3.14-3.93c1.37-1.13,3.02-2.03,4.97-2.69
		c1.95-0.66,4.12-1,6.53-1c2.53,0,4.81,0.33,6.83,1c2.02,0.67,3.73,1.58,5.14,2.75c1.41,1.17,2.48,2.54,3.22,4.12
		s1.11,3.29,1.11,5.12h-9.15c0-0.78-0.15-1.54-0.45-2.28c-0.3-0.74-0.75-1.4-1.36-1.98c-0.6-0.58-1.35-1.04-2.24-1.37
		s-1.93-0.51-3.11-0.51c-1.16,0-2.16,0.14-3.01,0.43s-1.56,0.67-2.13,1.13c-0.57,0.46-0.99,1-1.26,1.62
		c-0.28,0.62-0.41,1.26-0.41,1.94s0.13,1.28,0.38,1.81c0.25,0.53,0.7,1,1.34,1.43c0.64,0.43,1.5,0.82,2.58,1.19
		c1.08,0.36,2.43,0.72,4.07,1.07c2.36,0.5,4.47,1.09,6.34,1.77c1.87,0.68,3.45,1.51,4.74,2.48c1.29,0.98,2.28,2.13,2.96,3.46
		c0.68,1.33,1.02,2.91,1.02,4.74c0,1.81-0.39,3.46-1.17,4.97c-0.78,1.51-1.89,2.8-3.33,3.9c-1.44,1.09-3.18,1.94-5.21,2.54
		s-4.29,0.9-6.78,0.9c-2.79,0-5.25-0.39-7.4-1.19c-2.15-0.79-3.95-1.83-5.4-3.11c-1.46-1.28-2.55-2.73-3.29-4.35
		s-1.11-3.27-1.11-4.95h8.89c0.08,1.26,0.36,2.31,0.87,3.16s1.14,1.54,1.92,2.07c0.78,0.53,1.66,0.91,2.63,1.15
		c0.98,0.24,1.98,0.36,3.01,0.36c2.41,0,4.24-0.46,5.5-1.37C1712.84,254.1,1713.46,252.9,1713.46,251.42z"/>
	<path class="st15" d="M1740.16,262.49h-9.15v-57.83h9.15V262.49z"/>
	<path class="st15" d="M1764.37,249.39l8.28-27.64h9.75l-16.19,46.91c-0.38,1.03-0.87,2.14-1.49,3.33s-1.42,2.3-2.41,3.33
		c-0.99,1.03-2.2,1.89-3.63,2.58s-3.14,1.04-5.12,1.04c-0.78,0-1.55-0.07-2.32-0.21c-0.77-0.14-1.46-0.3-2.09-0.47v-7.08
		c0.23,0.05,0.52,0.08,0.88,0.09c0.36,0.01,0.65,0.02,0.85,0.02c1.13,0,2.12-0.09,2.96-0.28s1.58-0.5,2.2-0.94
		c0.63-0.44,1.17-1,1.62-1.69c0.45-0.69,0.85-1.55,1.21-2.58l1.32-3.5l-14.31-40.55h9.86L1764.37,249.39z"/>
</g>
</svg>
