<svg id="Layer_1" data-name="Layer 1" xmlns="http://www.w3.org/2000/svg" viewBox="0 0 880 700"><defs><style>.cls-1{fill:#db4d65;}.cls-2{fill:#fff;}.cls-3{fill:#ebebeb;}.cls-4{fill:#e0e0e0;}.cls-5{fill:#f5f5f5;}.cls-6{fill:#e1e2e2;}.cls-7{fill:#455b64;}.cls-8{fill:#fafbfb;}.cls-9{fill:#263238;}.cls-10{fill:#de4e67;}.cls-11{opacity:0.3;}.cls-12{fill:#fbbd9d;}.cls-13{fill:#e7515b;}.cls-14{opacity:0.5;}.cls-15{opacity:0.4;}.cls-16{fill:#f0b942;}.cls-17{fill:#231f20;}.cls-18{fill:#162318;}.cls-19{fill:#d48a28;}.cls-20{fill:#b45126;}.cls-21{fill:#f8f0e1;}.cls-22{fill:#f0b943;}.cls-23{fill:#554930;}</style></defs><g id="Plants"><path class="cls-1" d="M738,388.29c-21.5,23.51-60.93,62.2-83.85,99.56a1.56,1.56,0,0,0-.16.28c-9,14.65-15.36,29.08-17.12,42.31l-1.62,23.88-9.81-5.67-1.65-1-4-2.32h0A19.38,19.38,0,0,1,610,529.13c-1.58-58.24,14-107.74,29-137.7,20.6-40.92,59.19-82.65,92.74-78.56C763,316.68,767.93,355.52,738,388.29Z"/><path class="cls-2" d="M722.12,335.45c-41.07,26-99.71,116.43-98.38,212.24l-4-2.32C619.35,449,678.48,358.28,720,332a2,2,0,0,1,2.17,3.41Z"/><path class="cls-1" d="M762.3,465.05c-7.16,19.42-48,36.27-78.12,64.3a195.21,195.21,0,0,0-20.67,22.47,19,19,0,0,1-24.46,4.7h0l-3.6-2.08-.25-.12-9.81-5.67c5.82-21.93,16.29-42.71,28.55-60.52a1.56,1.56,0,0,1,.16-.28c19.95-28.93,44.57-49.84,61.76-54.58C749.66,424,770.88,441.73,762.3,465.05Z"/><path class="cls-2" d="M733.58,453.37c-24.69,7-72.51,37.08-94.53,103.15l-3.6-2.08c22.34-66.87,69.88-97.29,97-104.94a2,2,0,1,1,1.08,3.87Z"/></g><path class="cls-3" d="M48.34,611.72V650h8.84s-.85-7.62,0-12.14,10.44-16.15,10.16-26.14Z"/><path class="cls-4" d="M119.07,611.72V650h8.84s-.85-7.62,0-12.14,10.44-16.15,10.16-26.14Z"/><path class="cls-3" d="M188.29,611.72V650h-8.84s.84-7.62,0-12.14S169,621.71,169.29,611.72Z"/><path class="cls-4" d="M249.51,611.72V650h-8.84s.85-7.62,0-12.14-10.44-16.15-10.16-26.14Z"/><rect class="cls-5" x="42.32" y="422.73" width="211.83" height="190.23"/><polygon class="cls-4" points="197.08 422.73 198.66 612.96 254.15 612.96 254.15 422.73 197.08 422.73"/><rect class="cls-3" x="51.86" y="436.73" width="136" height="48.4"/><rect class="cls-3" x="51.86" y="494.78" width="136" height="48.4"/><rect class="cls-3" x="51.86" y="552.83" width="136" height="48.4"/><polygon class="cls-4" points="103.99 368.07 98.12 422.51 173.28 422.51 179.51 368.07 103.99 368.07"/><polygon class="cls-2" points="107.08 371.98 101.37 419.62 169.2 419.62 174.69 371.98 107.08 371.98"/><polygon class="cls-3" points="118.49 379.99 114.98 411.6 157.79 411.6 159.98 379.99 118.49 379.99"/><polyline class="cls-3" points="176.83 391.51 192.35 422.73 173.28 422.51 176.83 391.51"/><path class="cls-4" d="M124.83,463.46a5,5,0,1,1-5-5A5,5,0,0,1,124.83,463.46Z"/><path class="cls-4" d="M124.83,522.09a5,5,0,1,1-5-5A5,5,0,0,1,124.83,522.09Z"/><path class="cls-4" d="M124.83,580.71a5,5,0,1,1-5-5A5,5,0,0,1,124.83,580.71Z"/><path class="cls-6" d="M639.66,286.86a29.58,29.58,0,0,0,4.83,6.47l-6.14,10.45,11.45,6.72,5.87-10a29.4,29.4,0,0,0,8.56,1.71l3.41,13.13L680.49,312l-3.15-12.11a29.75,29.75,0,0,0,9.35-6.22l10.45,6.14,6.72-11.45-10-5.87a29.61,29.61,0,0,0,1.73-10.18l10.9-2.83-3.34-12.85-10.53,2.74a30,30,0,0,0-7.23-9.47l5.87-10-11.45-6.72-6.14,10.45a29.52,29.52,0,0,0-8-1.06l-3.23-12.41-12.85,3.34,3.13,12a29.81,29.81,0,0,0-9.46,7.24l-10-5.88-6.72,11.45L637,264.49a29.93,29.93,0,0,0-1,9.61l-12,3.13,3.34,12.85Zm15.61-20.62a12.16,12.16,0,1,1,4.33,16.66A12.17,12.17,0,0,1,655.27,266.24Z"/><path class="cls-6" d="M696,216a16.13,16.13,0,0,0,2.62,3.55l-3.37,5.7,6.24,3.7,3.23-5.45a16.59,16.59,0,0,0,4.67.95l1.84,7.18,7-1.8-1.7-6.62a16.24,16.24,0,0,0,5.12-3.38l5.7,3.38,3.7-6.25-5.45-3.23a16.2,16.2,0,0,0,1-5.56l6-1.52-1.8-7L725,201.11a16.29,16.29,0,0,0-3.93-5.18l3.23-5.46-6.25-3.7-3.37,5.7a16.32,16.32,0,0,0-4.37-.59l-1.74-6.79-7,1.8,1.69,6.58a16.11,16.11,0,0,0-5.19,3.94l-5.45-3.23-3.7,6.24,5.69,3.37a16.27,16.27,0,0,0-.58,5.26l-6.59,1.68,1.8,7Zm8.57-11.23a6.65,6.65,0,1,1,2.33,9.11A6.66,6.66,0,0,1,704.56,204.79Z"/><rect class="cls-7" x="319.22" y="113.88" width="332.47" height="455.58"/><polygon class="cls-4" points="638.55 542.36 576.97 542.36 346.9 542.36 346.9 132.29 638.55 132.29 638.55 491.35 638.55 542.36"/><polygon class="cls-3" points="633.94 534.75 572.92 534.75 344.92 534.75 344.92 126.87 633.94 126.87 633.94 484.01 633.94 534.75"/><polygon class="cls-8" points="602.88 503.01 569.6 530.12 339.53 530.12 339.53 127.9 631.17 127.9 631.17 480.08 602.88 503.01"/><path class="cls-9" d="M602.88,503l1.78-1.48,5.34-4.36L631.1,480l0,.09c0-57.85-.11-186.39-.21-352.18l.32.33-289.1,0h-2.54l.35-.36c0,151.22-.05,290.71-.07,402.22l-.28-.29L569.6,530l-.08,0,25-20.28,6.26-5.06,2.1-1.67s-.68.58-2.06,1.72l-6.22,5.11-24.93,20.37,0,0h0l-230.07.16h-.29v-.28c0-111.51,0-251-.07-402.22v-.35h2.9l289.1,0h.33v.32c-.1,165.79-.18,294.33-.21,352.18v.05l0,0-21.17,17.09-5.37,4.32C603.5,502.54,602.88,503,602.88,503Z"/><path class="cls-1" d="M440.53,99.79H531a14.15,14.15,0,0,1,14.15,14.15v26.76a0,0,0,0,1,0,0H425.77a0,0,0,0,1,0,0V114.55A14.76,14.76,0,0,1,440.53,99.79Z"/><polygon class="cls-10" points="455.01 99.79 450.64 77.72 519.37 77.72 515.55 99.79 455.01 99.79"/><polygon class="cls-4" points="578.74 463.52 546.77 529.74 569.6 529.74 578.74 463.52"/><polygon class="cls-8" points="569.6 530.12 578.74 463.9 631.17 480.08 569.6 530.12"/><path class="cls-9" d="M569.6,530.12l17.63-14.51L631,479.81l.12.6-20.24-6.24-32.19-9.95.43-.28c-2.74,19.24-5.08,35.72-6.75,47.43-1.66,11.39-2.51,17.26-2.72,18.75a1.18,1.18,0,0,1,0-.3c0-.23.06-.53.11-.91.11-.86.27-2.06.47-3.61.43-3.21,1-7.84,1.8-13.65,1.58-11.8,3.8-28.41,6.4-47.8l.05-.39.38.12,32.2,9.91,20.24,6.26.62.19-.51.41-44.25,35.7-12.92,10.38-3.45,2.77-.88.7Z"/><g class="cls-11"><polyline points="514.62 77.72 510.83 99.79 515.55 99.79 519.37 77.72 513.36 77.72"/></g><circle class="cls-6" cx="545.33" cy="459.55" r="38.3" transform="translate(-165.23 520.2) rotate(-45)"/><path class="cls-6" d="M545.26,492.31a32.76,32.76,0,1,1,23.18-9.55A32.58,32.58,0,0,1,545.26,492.31Z"/><path class="cls-6" d="M545.57,438.8c10.48,0,17.59,6.32,19.2,15.69l-13.12,0a6.76,6.76,0,0,0-6.33-4.16c-4.21,0-6.79,3.4-6.8,8.67s2.56,8.7,6.76,8.71a6.78,6.78,0,0,0,6.35-4.14l13.12,0c-1.65,9.36-8.78,15.63-19.27,15.6-12.17,0-19.61-8.39-19.58-20.23S533.4,438.77,545.57,438.8Z"/><rect class="cls-6" x="383.84" y="453.26" width="91.11" height="11.57" rx="2.21" transform="translate(2.02 -1.88) rotate(0.25)"/><path class="cls-6" d="M580.32,243.38l-192.44-.85a5.79,5.79,0,0,1-5.76-5.81h0a5.8,5.8,0,0,1,5.82-5.76l192.43.85a5.79,5.79,0,0,1,5.76,5.81h0A5.8,5.8,0,0,1,580.32,243.38Z"/><path class="cls-6" d="M580.17,276.61l-192.43-.84A5.78,5.78,0,0,1,382,270h0a5.78,5.78,0,0,1,5.81-5.76l192.43.84a5.78,5.78,0,0,1,5.76,5.81h0A5.77,5.77,0,0,1,580.17,276.61Z"/><path class="cls-6" d="M580,309.85,387.59,309a5.8,5.8,0,0,1-5.76-5.81h0a5.78,5.78,0,0,1,5.81-5.76l192.44.84a5.79,5.79,0,0,1,5.76,5.81h0A5.79,5.79,0,0,1,580,309.85Z"/><path class="cls-6" d="M579.88,343.09l-192.43-.85a5.77,5.77,0,0,1-5.76-5.81h0a5.79,5.79,0,0,1,5.81-5.76l192.43.85a5.78,5.78,0,0,1,5.76,5.81h0A5.79,5.79,0,0,1,579.88,343.09Z"/><path class="cls-6" d="M579.73,376.32l-192.43-.84a5.79,5.79,0,0,1-5.76-5.81h0a5.78,5.78,0,0,1,5.81-5.76l192.43.84a5.78,5.78,0,0,1,5.76,5.81h0A5.77,5.77,0,0,1,579.73,376.32Z"/><path class="cls-6" d="M579.59,409.56l-192.43-.84a5.79,5.79,0,0,1-5.76-5.82h0a5.77,5.77,0,0,1,5.81-5.75l192.43.84a5.79,5.79,0,0,1,5.76,5.81h0A5.8,5.8,0,0,1,579.59,409.56Z"/><path class="cls-12" d="M266.63,301.06h0A13.36,13.36,0,0,0,281,288.25c.28-7.27.52-14.63.52-14.63s11-1,11.82-11.94.44-36.08.44-36.08h0a38,38,0,0,0-38.41,2.47l.68,38.38v20.66C256.12,294,259.72,300.53,266.63,301.06Z"/><path class="cls-9" d="M282.47,248.37c-1.88-2.33-4.94-3.26-7.45-1.63a6.34,6.34,0,0,0-2.11,7.93,8.34,8.34,0,0,0,5.35,4,4.19,4.19,0,0,1,3.28,4.51,14.06,14.06,0,0,1-3.83,7.6c-3.2,3.52-7.9,5.42-12.63,6s-10-.42-12.67-4.24c-2-2.77-2.11-6.41-2.18-9.81q-.24-12.06-.5-24.12a34.82,34.82,0,0,1,.55-8.66,11.65,11.65,0,0,1,4.57-7.16c2.65-1.74,6-1.89,9-2.87,3.77-1.22,7-3.73,10.52-5.54s7.86-2.89,11.41-1.1c2.55,1.27,4.26,3.82,6.73,5.22,3.53,2,8.33,1.56,10,6.74a8.78,8.78,0,0,1-.06,5.55c-2.39,7.05-11.13,9.9-17.42,6.85-.13,1.19,1.05,3.85-.21,7.63-.4,1.2-.54,3-2.43,3.08"/><path class="cls-9" d="M252.37,225.92c1.55-3.53,3.12-7.13,3.51-11s-.59-8-3.44-10.59a10.31,10.31,0,0,0-7.19-2.54,12.14,12.14,0,0,0-11,8.68,13.1,13.1,0,0,0,4.41,13.42,14.18,14.18,0,0,0,14.13,1.84"/><path class="cls-13" d="M254.52,221.94c.2,0,0,1.94-1.61,3.52s-3.57,1.73-3.56,1.53,1.59-.66,3-2.08S254.3,221.88,254.52,221.94Z"/><path class="cls-9" d="M250.93,224.6a10.32,10.32,0,0,1-3,2.17,8.72,8.72,0,0,1-3.91,1.11,5.45,5.45,0,0,1-4.55-2,6.11,6.11,0,0,1-.81-4.93,9.63,9.63,0,0,1,1.84-3.61,10.93,10.93,0,0,1,2.58-2.6,35.92,35.92,0,0,1-2.14,2.92,9.84,9.84,0,0,0-1.58,3.45,5.53,5.53,0,0,0,.73,4.32,4.83,4.83,0,0,0,3.93,1.78,8.55,8.55,0,0,0,3.66-.88C249.71,225.32,250.85,224.49,250.93,224.6Z"/><path class="cls-9" d="M232.39,236.92a4.94,4.94,0,0,1,.53,1.21,12.36,12.36,0,0,0,1.61,3.11,4.5,4.5,0,0,0,4.27,2,5.84,5.84,0,0,0,4.11-4.13,41.4,41.4,0,0,0,1.11-6.34,9.77,9.77,0,0,1,2.09-5,5.4,5.4,0,0,1,3.17-1.81,2.08,2.08,0,0,1,1.34.12c0,.07-.49,0-1.28.18a5.4,5.4,0,0,0-2.82,1.87,9.64,9.64,0,0,0-1.79,4.75,38.28,38.28,0,0,1-1.09,6.48,6.51,6.51,0,0,1-4.72,4.59,4.31,4.31,0,0,1-2.95-.58,6,6,0,0,1-1.88-1.77,10.9,10.9,0,0,1-1.46-3.33A4.2,4.2,0,0,1,232.39,236.92Z"/><path class="cls-12" d="M227,328.55s-5.56,40.73,0,45.89,10.91,3.45,10.91,3.45L248.53,369l2.08-40.49Z"/><path class="cls-12" d="M375.27,216.29,365,222.87c-.47-4.05-3.56-8.07-3.4-6s0,12.59,0,12.59l-18.28,38.46c-2.48,6.09-7.51,9.92-11.27,10.82L315,283.78l6.67,22.56,23.71-7.86a20.45,20.45,0,0,0,13-13l16.35-49.79a77.39,77.39,0,0,0,2.64-9.81C378.1,221.69,375.27,216.29,375.27,216.29Z"/><path class="cls-13" d="M291.31,636.88l-.26-11.41-21.36.34.2,16.69,1.32.06c5.9.24,30,.77,33.94-.48C309.52,640.67,291.31,636.88,291.31,636.88Z"/><g class="cls-14"><path class="cls-2" d="M277.63,642.21a7.39,7.39,0,0,0-2.8-4.51,7.21,7.21,0,0,0-5-1.48l.09,6Z"/></g><g class="cls-15"><path class="cls-2" d="M300.21,639.05s6.39,1.73,5.62,2.79-25.17,1.44-35.94.66l0-.48,28.46-.19S299,639.12,300.21,639.05Z"/></g><path class="cls-9" d="M269.58,642a1.3,1.3,0,0,0,.37,0l1.05.05,3.89.1c3.28.07,7.81.1,12.82,0s9.54-.24,12.82-.4l3.88-.22,1-.08a1.61,1.61,0,0,0,.37,0h-.37l-1.06,0-3.88.14c-3.28.11-7.81.25-12.81.32s-9.54.07-12.82,0L271,642h-1.42Z"/><path class="cls-9" d="M298.37,642.16a8.74,8.74,0,0,1,.69-1.87,9,9,0,0,1,1.3-1.5,2.86,2.86,0,0,0-1.52,1.37A2.83,2.83,0,0,0,298.37,642.16Z"/><path class="cls-9" d="M292,639.06c.07,0,.36-.34.67-.83s.5-.93.44-1-.36.34-.67.83S292,639,292,639.06Z"/><path class="cls-9" d="M290.27,638.17c.05.05.38-.18.75-.51s.61-.65.57-.71-.39.18-.75.52S290.22,638.12,290.27,638.17Z"/><path class="cls-9" d="M289.15,636.17a2.52,2.52,0,0,0,1.11.13,2.64,2.64,0,0,0,1.12-.14,2.47,2.47,0,0,0-1.12-.12A2.52,2.52,0,0,0,289.15,636.17Z"/><path class="cls-9" d="M288.75,634.75a2.08,2.08,0,0,0,1.25.35,2.31,2.31,0,0,0,1.28-.19,5.88,5.88,0,0,0-1.27-.07A7.21,7.21,0,0,0,288.75,634.75Z"/><path class="cls-9" d="M292.71,637.18a3.78,3.78,0,0,0,1.37,0,7.35,7.35,0,0,0,1.46-.34,4.17,4.17,0,0,0,.83-.36.7.7,0,0,0,.33-.43.54.54,0,0,0-.21-.55,2.52,2.52,0,0,0-3.1.79,2.49,2.49,0,0,0-.44.92.87.87,0,0,0,0,.37,4.12,4.12,0,0,1,.61-1.18,2.51,2.51,0,0,1,1.16-.78,2.13,2.13,0,0,1,1.64.09c.22.16.14.41-.1.56a3.76,3.76,0,0,1-.77.34,9.27,9.27,0,0,1-1.41.39C293.23,637.13,292.71,637.14,292.71,637.18Z"/><path class="cls-9" d="M293.07,637.25a1.41,1.41,0,0,0,.14-1,2.25,2.25,0,0,0-.39-1,1.38,1.38,0,0,0-1.15-.68.55.55,0,0,0-.42.64,1.4,1.4,0,0,0,.25.61,3.86,3.86,0,0,0,.66.82,2,2,0,0,0,.79.55s-.28-.25-.66-.68a4.73,4.73,0,0,1-.59-.81c-.19-.29-.33-.81,0-.87s.7.29.92.56a2.39,2.39,0,0,1,.4.89A6.39,6.39,0,0,1,293.07,637.25Z"/><path class="cls-9" d="M269.92,636.16c0,.05.61-.07,1.58,0a7,7,0,0,1,3.47,1.37,6.89,6.89,0,0,1,2.2,3c.34.91.38,1.52.43,1.52a1.43,1.43,0,0,0,0-.43,5.91,5.91,0,0,0-.25-1.15,6.5,6.5,0,0,0-5.82-4.5,5.77,5.77,0,0,0-1.18,0A1.46,1.46,0,0,0,269.92,636.16Z"/><path class="cls-9" d="M272,627.24a39.08,39.08,0,0,0-.12,4.39A35,35,0,0,0,272,636a38,38,0,0,0,.11-4.39A36.17,36.17,0,0,0,272,627.24Z"/><path class="cls-9" d="M280.29,640.08a11.79,11.79,0,0,0,3.12.27,12,12,0,0,0,3.12-.3c0-.08-1.4,0-3.12,0S280.29,640,280.29,640.08Z"/><path class="cls-9" d="M276.1,640.14c-.05.06.12.3.26.61s.23.61.31.6.1-.34-.07-.71S276.14,640.09,276.1,640.14Z"/><path class="cls-9" d="M274.49,638.2c-.05,0,.09.27.32.5s.44.35.49.3-.09-.27-.31-.49S274.54,638.15,274.49,638.2Z"/><path class="cls-9" d="M272.22,637.34c0,.07.3.07.61.17s.55.27.6.22-.12-.34-.52-.46S272.2,637.28,272.22,637.34Z"/><path class="cls-9" d="M270.61,636.94c0,.07.09.18.27.24s.35.07.37,0-.1-.17-.28-.24S270.63,636.88,270.61,636.94Z"/><path class="cls-13" d="M215.92,633.23l7.24-8.81-16.41-13.68L196,623.52l1,.91c4.32,4,22.25,20.16,26,21.77C227.25,648,215.92,633.23,215.92,633.23Z"/><g class="cls-14"><path class="cls-2" d="M202.07,628.35a7.38,7.38,0,0,0,.82-5.24,7.15,7.15,0,0,0-2.84-4.39l-3.82,4.58Z"/></g><g class="cls-15"><path class="cls-2" d="M221.26,640.68s3.71,5.48,2.43,5.78-20-15.32-27.68-22.94l.34-.34L218,641.59S220.27,639.93,221.26,640.68Z"/></g><path class="cls-9" d="M196.1,623s.08.1.25.27l.77.72,2.88,2.62c2.44,2.19,5.86,5.17,9.7,8.38s7.39,6,10,8.06l3.09,2.36.85.63a1.68,1.68,0,0,0,.3.2l-.27-.24-.82-.67-3-2.43c-2.56-2.05-6.08-4.9-9.92-8.11s-7.28-6.16-9.75-8.32l-2.93-2.55-.8-.69Z"/><path class="cls-9" d="M217.83,641.84a8.33,8.33,0,0,1,1.74-1,9.17,9.17,0,0,1,2-.3,2.9,2.9,0,0,0-2,0A2.82,2.82,0,0,0,217.83,641.84Z"/><path class="cls-9" d="M215,635.34a2.31,2.31,0,0,0,1.05-.19c.55-.18,1-.38,1-.45s-.49,0-1,.2A2.46,2.46,0,0,0,215,635.34Z"/><path class="cls-9" d="M214.29,633.53c0,.07.41.12.9.1s.89-.09.89-.16-.4-.12-.9-.1S214.29,633.46,214.29,633.53Z"/><path class="cls-9" d="M214.74,631.28c0,.06.3.43.77.83s.88.68.93.62-.3-.42-.76-.82S214.79,631.23,214.74,631.28Z"/><path class="cls-9" d="M215.36,630a2.27,2.27,0,0,0,.73,1.08,2.23,2.23,0,0,0,1.09.69c0-.07-.42-.4-.91-.88S215.43,629.91,215.36,630Z"/><path class="cls-9" d="M216.78,634.38a4.3,4.3,0,0,0,1.06.87,9,9,0,0,0,1.33.69,4,4,0,0,0,.87.27.75.75,0,0,0,.53-.11.53.53,0,0,0,.19-.56,2.51,2.51,0,0,0-2.86-1.42,2.39,2.39,0,0,0-.93.41c-.19.15-.28.25-.27.26a4.19,4.19,0,0,1,1.23-.49,2.48,2.48,0,0,1,1.39.16,2.13,2.13,0,0,1,1.19,1.13c.06.27-.17.41-.45.37a6.08,6.08,0,0,1-.8-.24,9.65,9.65,0,0,1-1.32-.63C217.21,634.68,216.81,634.34,216.78,634.38Z"/><path class="cls-9" d="M217,634.66a1.4,1.4,0,0,0,.74-.63,2.41,2.41,0,0,0,.35-1,1.36,1.36,0,0,0-.43-1.27.54.54,0,0,0-.73.21,1.31,1.31,0,0,0-.21.62,3.9,3.9,0,0,0,0,1.06,2,2,0,0,0,.25.93s-.05-.37-.07-1a5.43,5.43,0,0,1,.09-1c0-.34.28-.82.58-.65s.34.68.32,1a2.26,2.26,0,0,1-.27.93A5.36,5.36,0,0,1,217,634.66Z"/><path class="cls-9" d="M200.18,618.74s.5.35,1.17,1a6.67,6.67,0,0,1,1.44,7c-.33.92-.7,1.41-.66,1.44a1.92,1.92,0,0,0,.27-.34,5.1,5.1,0,0,0,.56-1,6.48,6.48,0,0,0-1.48-7.2,5,5,0,0,0-.92-.73A1.55,1.55,0,0,0,200.18,618.74Z"/><path class="cls-9" d="M207.57,613.33a36.8,36.8,0,0,0-2.95,3.25,40.48,40.48,0,0,0-2.76,3.42,35.05,35.05,0,0,0,2.95-3.25A37.06,37.06,0,0,0,207.57,613.33Z"/><path class="cls-9" d="M205.47,628.47a12,12,0,0,0,2.2,2.24,12.63,12.63,0,0,0,2.56,1.81c0-.07-1.08-.89-2.39-2S205.53,628.42,205.47,628.47Z"/><path class="cls-9" d="M202.26,625.79c-.07,0-.1.3-.2.63s-.21.61-.15.65.3-.19.4-.58S202.33,625.78,202.26,625.79Z"/><path class="cls-9" d="M202.31,623.27c-.07,0-.11.26-.08.58s.1.56.17.55.11-.26.08-.58S202.38,623.26,202.31,623.27Z"/><path class="cls-9" d="M201.15,621.13c0,.07.18.25.35.53s.24.56.31.56.13-.34-.09-.69S201.17,621.07,201.15,621.13Z"/><path class="cls-9" d="M200.18,619.78c-.06,0,0,.19.06.36s.21.27.28.24,0-.2-.06-.36S200.25,619.74,200.18,619.78Z"/><path class="cls-9" d="M260.38,394.58s-7.11,30.09-5.1,36.05,15,9.39,15,9.39l-.44,82.41-72.07,89.09,26.62,21.77s78-89.25,84.89-105.41-4.38-134.64-4.38-134.64Z"/><path class="cls-9" d="M297.19,382.31l3.53,250.3-36.67.18-18.4-203.85h0c-3.89-3.72-9.36-10.07-8.6-24.25l.89-16.48Z"/><path class="cls-7" d="M258.53,536.37a1.54,1.54,0,0,1,.21-.37l.7-1,2.72-3.86,9.95-13.77-.06.19c-.8-8.69-1.77-19.22-2.81-30.58-1.33-14.89-2.41-28.38-3-38.15-.33-4.89-.54-8.85-.66-11.58,0-1.31-.08-2.36-.11-3.15a5.94,5.94,0,0,1,0-1.11,6.12,6.12,0,0,1,.14,1.1c.06.79.15,1.84.25,3.14.22,2.81.53,6.74.9,11.56.78,9.76,1.94,23.24,3.27,38.12,1,11.4,2,21.92,2.68,30.65v.1l-.07.09-10.16,13.61-2.87,3.75c-.3.39-.56.71-.77,1A1.66,1.66,0,0,1,258.53,536.37Z"/><path class="cls-7" d="M269.79,433c0,.21-4.41-.32-9.71-1.44s-9.52-2.38-9.47-2.58,4.34.71,9.63,1.82S269.82,432.75,269.79,433Z"/><path class="cls-7" d="M294.9,518.42c-.1.24-4.21-2.17-9.9-2.58s-10.13,1.24-10.19,1a8.58,8.58,0,0,1,2.86-1.12,22.28,22.28,0,0,1,7.39-.64,22.51,22.51,0,0,1,7.19,1.8A8.48,8.48,0,0,1,294.9,518.42Z"/><path class="cls-7" d="M307.83,530c.17.13-10.14,14-23,30.92s-23.48,30.57-23.65,30.44,10.14-14,23-30.91S307.66,529.89,307.83,530Z"/><path class="cls-7" d="M302.86,400.9a6.07,6.07,0,0,1-2.06,2.72,10.21,10.21,0,0,1-14.94-1.57,6.1,6.1,0,0,1-1.45-3.1,31.75,31.75,0,0,0,1.87,2.75,10.2,10.2,0,0,0,14.18,1.5A29.67,29.67,0,0,0,302.86,400.9Z"/><path class="cls-9" d="M252.77,272.11A32,32,0,0,1,251,227.52"/><path class="cls-13" d="M232.18,295.46s-8,9-9.62,43.42c0,0,22.69,4.3,23.1,3.06S232.18,295.46,232.18,295.46Z"/><path class="cls-16" d="M232.18,295.46s-8,9-9.62,43.42c0,0,22.69,4.3,23.1,3.06S232.18,295.46,232.18,295.46Z"/><path class="cls-13" d="M235.85,395.69h69.64l-1.12-10.88s-8-41.38-7.9-41.93l1.25-2.63a26.28,26.28,0,0,0,.31-21.91h0l34.1-11.66-8.35-28.13c-15.48,2.61-38.87,5.52-38.87,5.52l-3.48.3s-24.14,1.25-24.66,1.32c-10.1,1.22-21.85,2-26.15,12.8-2.29,5.78-.11,14.46,3.64,23.4l8.93,27.48c3.56,15.1-2.13,14.38-5.25,29.58C237.47,381.25,235.8,393.58,235.85,395.69Z"/><path class="cls-16" d="M235.85,395.69h69.64l-1.12-10.88s-8-41.38-7.9-41.93l1.25-2.63a26.28,26.28,0,0,0,.31-21.91h0l34.1-11.66-8.35-28.13c-15.48,2.61-38.87,5.52-38.87,5.52l-3.48.3s-24.14,1.25-24.66,1.32c-10.1,1.22-21.85,2-26.15,12.8-2.29,5.78-.11,14.46,3.64,23.4l8.93,27.48c3.56,15.1-2.13,14.38-5.25,29.58C237.47,381.25,235.8,393.58,235.85,395.69Z"/><path class="cls-9" d="M331.81,307.14a7.56,7.56,0,0,1-1.52.64c-1,.36-2.43.86-4.21,1.46-3.56,1.2-8.52,2.8-14,4.54s-10.35,3.49-13.82,4.92c-1.75.71-3.13,1.33-4.1,1.75a7.47,7.47,0,0,1-1.52.6,6.08,6.08,0,0,1,1.39-.87c.93-.5,2.29-1.21,4-2a131.55,131.55,0,0,1,13.8-5.15c5.48-1.75,10.45-3.26,14.06-4.33,1.8-.54,3.27-1,4.28-1.23A7,7,0,0,1,331.81,307.14Z"/><path class="cls-8" d="M327.76,292.16c0,.21-20.59.39-46,.39s-46-.18-46-.39,20.58-.39,46-.39S327.76,292,327.76,292.16Z"/><path class="cls-8" d="M329.88,305.84c0,.21-22.91.38-51.17.38s-51.17-.17-51.17-.38,22.9-.39,51.17-.39S329.88,305.62,329.88,305.84Z"/><path class="cls-8" d="M233.23,321.4c0,.21-1.9.39-4.26.39s-4.26-.18-4.26-.39,1.9-.39,4.26-.39S233.23,321.19,233.23,321.4Z"/><path class="cls-8" d="M300.17,321.87c0,.22-15,.39-33.47.39s-33.47-.17-33.47-.39,15-.38,33.47-.38S300.17,321.66,300.17,321.87Z"/><path class="cls-8" d="M298.69,337.91c0,.21-13.45.39-30,.39s-30-.18-30-.39,13.45-.39,30-.39S298.69,337.7,298.69,337.91Z"/><path class="cls-8" d="M298.26,352.77c0,.21-12.19.38-27.23.38s-27.22-.17-27.22-.38,12.18-.39,27.22-.39S298.26,352.55,298.26,352.77Z"/><path class="cls-8" d="M300.64,364.79c0,.22-13,.39-29.12.39s-29.13-.17-29.13-.39,13-.38,29.13-.38S300.64,364.58,300.64,364.79Z"/><path class="cls-8" d="M304.41,380.12c0,.21-14.83.39-33.13.39s-33.13-.18-33.13-.39,14.83-.39,33.13-.39S304.41,379.91,304.41,380.12Z"/><path class="cls-9" d="M242.77,348.08a5.51,5.51,0,0,1-.62-1.37c-.4-1.06-.89-2.32-1.46-3.8-1.23-3.21-2.95-7.64-4.75-12.57s-3.28-9.47-4.21-12.79c-.47-1.66-.82-3-1-3.95a5.92,5.92,0,0,1-.24-1.48c.11,0,.71,2,1.78,5.27s2.62,7.75,4.42,12.68,3.44,9.39,4.53,12.66c.56,1.63,1,3,1.24,3.89A5.78,5.78,0,0,1,242.77,348.08Z"/><path class="cls-17" d="M377.61,166.94a38.79,38.79,0,0,1,5.78-.44c3.91,0,6.7.91,8.54,2.63a9.7,9.7,0,0,1,3,7.57,11.16,11.16,0,0,1-3,8.2c-2,2-5.22,3-9.32,3a43,43,0,0,1-4.94-.25Zm2.72,18.65a17.91,17.91,0,0,0,2.75.15c5.82,0,9-3.25,9-8.94,0-5-2.79-8.14-8.54-8.14a15.93,15.93,0,0,0-3.19.28Z"/><path class="cls-17" d="M400,180.67c.06,3.73,2.44,5.26,5.19,5.26a10,10,0,0,0,4.2-.78l.46,2a12.15,12.15,0,0,1-5,.94c-4.66,0-7.45-3.07-7.45-7.64s2.69-8.16,7.11-8.16c4.94,0,6.25,4.35,6.25,7.13a10.62,10.62,0,0,1-.09,1.28Zm8.07-2c0-1.75-.72-4.47-3.81-4.47-2.79,0-4,2.57-4.23,4.47Z"/><path class="cls-17" d="M413.76,184.93a7.28,7.28,0,0,0,3.63,1.09c2,0,2.94-1,2.94-2.25s-.78-2-2.81-2.78c-2.72-1-4-2.47-4-4.29,0-2.44,2-4.44,5.23-4.44a7.55,7.55,0,0,1,3.72.94l-.69,2a5.92,5.92,0,0,0-3.09-.88c-1.63,0-2.54.94-2.54,2.07s.91,1.81,2.88,2.56c2.63,1,4,2.32,4,4.57,0,2.66-2.06,4.54-5.66,4.54a8.55,8.55,0,0,1-4.25-1Z"/><path class="cls-17" d="M429.59,168.35a1.71,1.71,0,0,1-3.41,0,1.68,1.68,0,0,1,1.72-1.72A1.64,1.64,0,0,1,429.59,168.35Zm-3.06,19.39V172.6h2.75v15.14Z"/><path class="cls-17" d="M446.89,172.6c-.06,1.1-.13,2.32-.13,4.16v8.79c0,3.48-.68,5.6-2.15,6.92a8.06,8.06,0,0,1-5.51,1.81,9.83,9.83,0,0,1-5-1.25l.69-2.1a8.5,8.5,0,0,0,4.44,1.19c2.82,0,4.88-1.47,4.88-5.28v-1.69H444a5.39,5.39,0,0,1-4.82,2.53c-3.75,0-6.44-3.19-6.44-7.38,0-5.13,3.35-8,6.82-8a5,5,0,0,1,4.72,2.63h.07l.12-2.29Zm-2.85,6a4,4,0,0,0-.15-1.25,4,4,0,0,0-3.85-2.91c-2.63,0-4.51,2.22-4.51,5.72,0,3,1.51,5.45,4.48,5.45a4,4,0,0,0,3.81-2.82,4.68,4.68,0,0,0,.22-1.47Z"/><path class="cls-17" d="M451.14,176.7c0-1.56,0-2.84-.12-4.1h2.44l.15,2.51h.07a5.56,5.56,0,0,1,5-2.85c2.1,0,5.35,1.25,5.35,6.44v9h-2.75V179c0-2.44-.91-4.48-3.51-4.48a3.92,3.92,0,0,0-3.69,2.82,4.08,4.08,0,0,0-.18,1.28v9.1h-2.76Z"/><path class="cls-17" d="M475.42,187.74v-13h-2.13v-2.1h2.13v-.72c0-2.12.46-4.06,1.75-5.28a5.27,5.27,0,0,1,3.69-1.41,6.31,6.31,0,0,1,2.34.44l-.37,2.13a4.07,4.07,0,0,0-1.75-.35c-2.35,0-2.94,2.07-2.94,4.38v.81h3.66v2.1h-3.66v13Z"/><path class="cls-17" d="M497.56,180.05c0,5.6-3.88,8-7.54,8-4.09,0-7.25-3-7.25-7.79,0-5.07,3.31-8,7.5-8C494.62,172.26,497.56,175.42,497.56,180.05Zm-12,.16c0,3.31,1.91,5.81,4.6,5.81s4.6-2.47,4.6-5.88c0-2.56-1.29-5.82-4.54-5.82S485.55,177.33,485.55,180.21Z"/><path class="cls-17" d="M501,177.33c0-1.79,0-3.32-.12-4.73h2.41l.09,3h.13a4.52,4.52,0,0,1,4.19-3.32,3.1,3.1,0,0,1,.78.09V175a4.28,4.28,0,0,0-.94-.09c-1.94,0-3.31,1.47-3.69,3.53a8,8,0,0,0-.13,1.28v8.07H501Z"/><path class="cls-17" d="M518,166.91a31.28,31.28,0,0,1,5.22-.41c2.69,0,4.66.63,5.91,1.76a5.65,5.65,0,0,1,1.85,4.41,6.16,6.16,0,0,1-1.63,4.5,8.74,8.74,0,0,1-6.44,2.32,9.65,9.65,0,0,1-2.19-.19v8.44H518Zm2.72,10.17a9.38,9.38,0,0,0,2.25.22c3.29,0,5.29-1.6,5.29-4.51s-2-4.13-5-4.13a11.66,11.66,0,0,0-2.56.22Z"/><path class="cls-17" d="M542.1,187.74l-.22-1.9h-.09a5.65,5.65,0,0,1-4.63,2.25,4.32,4.32,0,0,1-4.63-4.35c0-3.66,3.26-5.66,9.1-5.63v-.31c0-1.25-.34-3.51-3.44-3.51a7.56,7.56,0,0,0-3.94,1.13l-.62-1.81a9.32,9.32,0,0,1,5-1.35c4.63,0,5.76,3.16,5.76,6.19v5.67a21,21,0,0,0,.25,3.62Zm-.4-7.72c-3-.06-6.41.47-6.41,3.41a2.43,2.43,0,0,0,2.59,2.63,3.78,3.78,0,0,0,3.66-2.54,3,3,0,0,0,.16-.87Z"/><path class="cls-17" d="M552,168.26v4.34h3.94v2.1H552v8.16c0,1.88.53,2.94,2.06,2.94a6.45,6.45,0,0,0,1.6-.18l.12,2.06a6.67,6.67,0,0,1-2.44.38,3.82,3.82,0,0,1-3-1.16c-.78-.81-1.06-2.16-1.06-3.94V174.7H547v-2.1h2.35V169Z"/><path class="cls-17" d="M560.37,180.67c.06,3.73,2.44,5.26,5.19,5.26a9.91,9.91,0,0,0,4.19-.78l.47,2a12.18,12.18,0,0,1-5,.94c-4.66,0-7.45-3.07-7.45-7.64s2.69-8.16,7.1-8.16c4.95,0,6.26,4.35,6.26,7.13a10.62,10.62,0,0,1-.09,1.28Zm8.07-2c0-1.75-.72-4.47-3.81-4.47-2.79,0-4,2.57-4.23,4.47Z"/><path class="cls-17" d="M574.51,176.7c0-1.56,0-2.84-.13-4.1h2.44l.16,2.51H577a5.57,5.57,0,0,1,5-2.85c2.09,0,5.35,1.25,5.35,6.44v9h-2.76V179c0-2.44-.9-4.48-3.5-4.48a3.92,3.92,0,0,0-3.69,2.82,3.79,3.79,0,0,0-.19,1.28v9.1h-2.75Z"/><path class="cls-17" d="M595.06,168.26v4.34H599v2.1h-3.94v8.16c0,1.88.53,2.94,2.06,2.94a6.38,6.38,0,0,0,1.6-.18l.12,2.06a6.67,6.67,0,0,1-2.44.38,3.82,3.82,0,0,1-3-1.16c-.78-.81-1.06-2.16-1.06-3.94V174.7H590v-2.1h2.35V169Z"/><polygon class="cls-4" points="764.48 35.45 674.71 34.58 677.21 151.57 766.98 151.9 764.48 35.45"/><polygon class="cls-8" points="758.69 40.67 680.1 38.63 682.38 144.74 760.94 145.7 758.69 40.67"/><polygon class="cls-3" points="745.27 56.52 693.13 55.65 694.72 129.82 746.82 128.7 745.27 56.52"/><polygon class="cls-5" points="694.72 129.82 746 90.6 693.13 55.65 694.72 129.82"/><path class="cls-18" d="M713.25,363.78H700.33v-.06h0a31.63,31.63,0,0,0-61.92-8.4,31.92,31.92,0,0,0-1.33,8.4h0v.06H624.16a.13.13,0,0,1,0-.06h0a44.54,44.54,0,0,1,89.07,0h0A.13.13,0,0,1,713.25,363.78Z"/><rect class="cls-16" x="610.65" y="366.28" width="116.11" height="86.11"/><path class="cls-19" d="M732.3,446.9v.16a5.5,5.5,0,0,1-5.49,5.33H610.28a5.5,5.5,0,0,1-5.49-5.33v-.16a5.5,5.5,0,0,1,5.49-5.48H726.81A5.5,5.5,0,0,1,732.3,446.9Z"/><path class="cls-18" d="M661.47,431.82l2.94-22.07-2.28-1.55a11.62,11.62,0,1,1,13,0l-2.28,1.55,2.93,22.07Z"/><path class="cls-20" d="M621.41,433.9a2.83,2.83,0,1,1-2.83-2.83A2.84,2.84,0,0,1,621.41,433.9Z"/><path class="cls-20" d="M621.41,381.61a2.83,2.83,0,1,1-2.83-2.84A2.83,2.83,0,0,1,621.41,381.61Z"/><path class="cls-20" d="M721.18,433.9a2.83,2.83,0,1,1-2.83-2.83A2.84,2.84,0,0,1,721.18,433.9Z"/><path class="cls-20" d="M721.18,381.61a2.83,2.83,0,1,1-2.83-2.84A2.83,2.83,0,0,1,721.18,381.61Z"/><path class="cls-19" d="M732.46,369.2v.08a5.5,5.5,0,0,1-5.49,5.41H610.44a5.5,5.5,0,0,1-5.49-5.41v-.08a5.51,5.51,0,0,1,5.49-5.49H727A5.51,5.51,0,0,1,732.46,369.2Z"/><path class="cls-6" d="M318.65,91.18v2.51h-3.18v-2.4a13.25,13.25,0,0,1-5.8-1.57l1.71-3.88a10.85,10.85,0,0,0,5.21,1.44c1.52,0,2.06-.32,2.06-.86,0-2-8.73-.38-8.73-6.27,0-2.55,1.85-4.69,5.55-5.21V72.48h3.18V74.9a11.7,11.7,0,0,1,4.58,1.3l-1.61,3.86a9.69,9.69,0,0,0-4.39-1.17c-1.56,0-2.06.45-2.06,1,0,1.9,8.73.32,8.73,6.14C323.9,88.45,322.14,90.57,318.65,91.18Z"/><path class="cls-6" d="M316.79,100.33A17.25,17.25,0,1,1,334,83.08,17.27,17.27,0,0,1,316.79,100.33Zm0-31.84a14.6,14.6,0,1,0,14.59,14.59A14.62,14.62,0,0,0,316.79,68.49Z"/><path class="cls-6" d="M129.22,65.91l0,31.36a2.68,2.68,0,0,0,2.68,2.68l20.3,0h11.91a2.69,2.69,0,0,0,2.68-2.68l0-31.36a2.68,2.68,0,0,0-2.68-2.68l-32.22,0A2.69,2.69,0,0,0,129.22,65.91Z"/><polygon class="cls-21" points="141.82 92.5 136.35 84.92 139.63 82.56 142.26 86.2 155.5 72.41 158.42 75.21 141.82 92.5"/><path class="cls-6" d="M129.22,115.15l0,31.36a2.68,2.68,0,0,0,2.68,2.68l20.3,0h11.91a2.68,2.68,0,0,0,2.68-2.68l0-31.36a2.68,2.68,0,0,0-2.68-2.67l-32.22,0A2.68,2.68,0,0,0,129.22,115.15Z"/><path class="cls-21" d="M137.54,132.61a10.5,10.5,0,1,1,11.85,8.95A10.51,10.51,0,0,1,137.54,132.61Zm2.26-.32a8.22,8.22,0,1,0,7-9.28A8.22,8.22,0,0,0,139.8,132.29Z"/><path class="cls-21" d="M155.47,137.86a1.11,1.11,0,0,0,.75-.44,1.15,1.15,0,0,0-.22-1.6l-14.75-11.14a1.14,1.14,0,1,0-1.37,1.81l14.75,11.15A1.12,1.12,0,0,0,155.47,137.86Z"/><path class="cls-22" d="M261.78,71.58a34.45,34.45,0,0,1-4.62,17.29c-5.22,9-10.21,18.22-14.74,27.63l-2.56,5.3h-25.4l-3.74-7.72C206.59,105.54,202,97.21,197.24,89a34.64,34.64,0,0,1,29.07-52c.33,0,.67,0,1,0A34.62,34.62,0,0,1,261.78,71.58Z"/><path class="cls-19" d="M261.78,71.58a34.45,34.45,0,0,1-4.62,17.29c-5.22,9-10.21,18.22-14.74,27.63l-2.56,5.3H217c14.75-1.48,36.11-27.79,32.41-55C246,42,227.43,37.21,226.31,37c.33,0,.67,0,1,0A34.62,34.62,0,0,1,261.78,71.58Z"/><path class="cls-20" d="M239.12,87.41a.55.55,0,0,1-.48-.29l-1.14-2.18-1.13,2.18a.54.54,0,0,1-1,0l-1.13-2.18-1.14,2.18a.54.54,0,0,1-.48.29h0a.52.52,0,0,1-.47-.29l-1.14-2.18-1.14,2.18a.54.54,0,0,1-.48.29h0a.52.52,0,0,1-.47-.29l-1.14-2.18-1.14,2.18a.52.52,0,0,1-.47.29.54.54,0,0,1-.48-.29l-1.14-2.18-1.13,2.18a.55.55,0,0,1-.48.29h0a.55.55,0,0,1-.48-.29l-1.13-2.18-1.14,2.18a.54.54,0,0,1-.48.29.52.52,0,0,1-.47-.29l-1.14-2.18L217,87.12a.52.52,0,0,1-.47.29h0a.54.54,0,0,1-.48-.29L214.44,84a.53.53,0,0,1,.95-.49l1.14,2.18,1.13-2.18a.54.54,0,0,1,1,0l1.13,2.18,1.14-2.18a.54.54,0,0,1,.48-.29.52.52,0,0,1,.47.29L223,85.71l1.14-2.18a.52.52,0,0,1,.47-.29.54.54,0,0,1,.48.29l1.14,2.18,1.14-2.18a.52.52,0,0,1,.47-.29.55.55,0,0,1,.48.29l1.13,2.18,1.14-2.18a.55.55,0,0,1,.48-.29h0a.52.52,0,0,1,.47.29l1.14,2.18,1.14-2.18a.54.54,0,0,1,.48-.29.52.52,0,0,1,.47.29l1.14,2.18L237,83.53a.52.52,0,0,1,.47-.29.54.54,0,0,1,.48.29l1.14,2.18,1.14-2.18a.52.52,0,0,1,.72-.23.53.53,0,0,1,.23.72l-1.62,3.1A.52.52,0,0,1,239.12,87.41Z"/><polygon class="cls-18" points="220.54 121.79 213.32 85.07 214.38 84.86 221.63 121.8 220.54 121.79"/><circle class="cls-18" cx="213.85" cy="84.97" r="2.34"/><polygon class="cls-18" points="235.38 121.79 242.6 85.07 241.54 84.86 234.29 121.79 235.38 121.79"/><path class="cls-18" d="M239.72,85a2.35,2.35,0,1,0,2.35-2.35A2.35,2.35,0,0,0,239.72,85Z"/><path class="cls-23" d="M214.75,121.83h24.82a1.75,1.75,0,0,1,1.75,1.75v3.74a1.75,1.75,0,0,1-1.75,1.75H214.75a1.75,1.75,0,0,1-1.75-1.75v-3.74a1.74,1.74,0,0,1,1.74-1.74Z"/><path class="cls-18" d="M241.31,125.1v2.21a1.74,1.74,0,0,1-1.74,1.75H214.75a1.75,1.75,0,0,1-1.75-1.75V125.1Z"/><path class="cls-23" d="M241.31,130.8v3.74a1.73,1.73,0,0,1-1.45,1.72,1.43,1.43,0,0,1-.29,0H214.75a1.36,1.36,0,0,1-.29,0,1.73,1.73,0,0,1-1.46-1.72V130.8a1.74,1.74,0,0,1,1.75-1.74h24.82A1.74,1.74,0,0,1,241.31,130.8Z"/><path class="cls-18" d="M241.31,132.31v2.23a1.73,1.73,0,0,1-1.45,1.72h-25.4a1.73,1.73,0,0,1-1.46-1.72v-2.23Z"/><path class="cls-23" d="M241.31,138v3.74a1.73,1.73,0,0,1-1.46,1.72,1.27,1.27,0,0,1-.28,0H214.75a1.36,1.36,0,0,1-.29,0,1.73,1.73,0,0,1-1.46-1.72V138a1.74,1.74,0,0,1,1.75-1.74h24.82A1.74,1.74,0,0,1,241.31,138Z"/><path class="cls-18" d="M241.31,139.54v2.23a1.73,1.73,0,0,1-1.46,1.72H214.46a1.73,1.73,0,0,1-1.46-1.72v-2.23Z"/><path class="cls-18" d="M220.39,143.52a7,7,0,0,0,13.9,0Z"/></svg>