<svg id="Layer_1" data-name="Layer 1" xmlns="http://www.w3.org/2000/svg" viewBox="0 0 100.31 80.14"><defs><style>.cls-1{fill:#333;}.cls-2{fill:#f2f2f2;}.cls-3{fill:#e6e6e6;}.cls-4{fill:#b2b2b2;}.cls-5{fill:#adadad;}.cls-6{fill:#4d4d4d;}.cls-7{fill:#f2b58c;}.cls-8{fill:#e5a377;}.cls-9{fill:#e8721b;}.cls-10{fill:#f9b256;}.cls-11{fill:#2c3e50;}.cls-12{fill:#f0851d;}.cls-13{fill:#fec197;}.cls-14{fill:#f2af81;}.cls-15{fill:#fff6e5;}.cls-16{fill:#e0d1bd;}.cls-17{fill:#34495e;}.cls-18{fill:#f9cdaf;}.cls-19{fill:#eda87a;}</style></defs><path class="cls-1" d="M698.88,827.75V778.41a2.25,2.25,0,0,0-2.25-2.25H624.37a2.25,2.25,0,0,0-2.25,2.25v49.34Z" transform="translate(-610.34 -751.81)"/><rect class="cls-2" x="15.72" y="28.5" width="68.87" height="43.97"/><path class="cls-3" d="M610.34,830a1,1,0,0,0,.41.59,7.51,7.51,0,0,0,3.58,1.34h92.36a8.81,8.81,0,0,0,3.59-1.34.92.92,0,0,0,.38-.59Z" transform="translate(-610.34 -751.81)"/><path class="cls-4" d="M710.66,830v-2a.28.28,0,0,0-.3-.24H610.65a.28.28,0,0,0-.31.24v2Z" transform="translate(-610.34 -751.81)"/><path class="cls-5" d="M666.81,827.75l-.14.84c0,.15-.11.3-.24.3H654.56c-.14,0-.2-.15-.25-.3l-.12-.83Z" transform="translate(-610.34 -751.81)"/><rect class="cls-6" x="87.37" y="76.52" width="2.33" height="1.13" rx="0.5"/><path class="cls-6" d="M702.2,828.88a.57.57,0,1,1-.57-.57A.57.57,0,0,1,702.2,828.88Z" transform="translate(-610.34 -751.81)"/><path class="cls-7" d="M656.46,811.65s4.87,3.57,6,4.54c1,.89,3.18,1.18,4.22,2.62s5.06,4,5.06,4l2.64.25-6.95-9.69L666,801.82s-1-3.11-2.63.17S656.46,811.65,656.46,811.65Z" transform="translate(-610.34 -751.81)"/><path class="cls-8" d="M663.41,802c-1.65,3.28-6.95,9.66-6.95,9.66L659.6,814l6.29-11.66.15-.5S665.06,798.71,663.41,802Z" transform="translate(-610.34 -751.81)"/><path class="cls-9" d="M686.69,777.93h0s-15.13-5.54-22.41-8.88c-4.7-2.16-6.77-3.32-12.62-8-6.44-5.21-7.6-8.89-10.24-8.34-2.15.45-7.63,32.13-8.85,35.51-.13.35,11.2-1.09,15-1,2.15.05,7.19.24,11.68.77l0,.31a2.79,2.79,0,0,0,2.06,2.23l-10.45,19.22a1.56,1.56,0,0,0,.54,2c.28.21,5.28,2.81,5.28,2.81a1.11,1.11,0,0,0,1.43-.39l11.73-18.77c.26.09.54.05.78.15,1.76.75,3.8-3.28,3.89-3.43,3.5,1.2,6.46,2.25,6.46,2.25h0c.8.16,6.75-1.93,8.11-5.87l.54-1.55C691,782.91,688,778.39,686.69,777.93Z" transform="translate(-610.34 -751.81)"/><path class="cls-10" d="M656.88,811c-1.49-.78-3-1.55-3.72-2l14.38-18.6-5.4-3.08c-.64-.24-.66-.4-.68-.5l-.27-2-1.67-.2c-5.39-.63-11.23-.77-11.88-.78a86.62,86.62,0,0,0-11.1,1.29l-1.3.2c.43-1.9,1-4.55,1.72-8,1.51-7.19,4.19-19.91,5.69-24,.38.42.85,1,1.25,1.51a39.83,39.83,0,0,0,6.43,6.65c5.86,4.72,8,6,13.08,8.32,6.74,3.1,19.84,8,22.22,8.82l.26.11a5.45,5.45,0,0,1,2.73,6.94l-.54,1.56a5.66,5.66,0,0,1-5.29,3.92h0a4.17,4.17,0,0,1-1.16-.17l-.12,0c-.78-.28-3.32-1.18-6.22-2.17l-1.64-.57-.94,1.53-.07.13a8.21,8.21,0,0,1-1.6,2.24c-.21-.05-.38-.07-.51-.09h0s0,0,0,0l-1.55-.52Z" transform="translate(-610.34 -751.81)"/><path class="cls-9" d="M656.83,813.17c-1.48-.77-3-1.55-3.71-2l11.31-20.81-2.34-.88c-.63-.24-.66-.39-.67-.5l-.28-2-1.66-.19c-5.4-.63-11.24-.77-11.88-.78a85,85,0,0,0-11.11,1.29l-1.3.19c.43-1.9,1-4.54,1.72-8,1.52-7.2,4.2-19.92,5.69-24,.39.41.85,1,1.26,1.51a40.22,40.22,0,0,0,6.43,6.65c5.85,4.72,8.05,6,13.07,8.32,6.74,3.09,19.84,7.94,22.22,8.82l.26.1a5.47,5.47,0,0,1,2.73,7l-.54,1.55a5.65,5.65,0,0,1-5.29,3.93h0a4.58,4.58,0,0,1-1.16-.17l-.11,0c-.79-.28-3.32-1.18-6.23-2.18l-1.64-.56-.94,1.53-.07.13a8.08,8.08,0,0,1-1.6,2.23,3.23,3.23,0,0,0-.51-.08h0s0,0,0,0l-1.55-.53Z" transform="translate(-610.34 -751.81)"/><path class="cls-11" d="M651.29,774.32a40.62,40.62,0,0,0,1-12.82l-.64-.5c-6.44-5.21-7.33-9.65-10-9.1-2.15.45-8.14,33.7-9.36,37.08-.11.31,8.74-1.38,13.49-1.75A39.87,39.87,0,0,0,651.29,774.32Z" transform="translate(-610.34 -751.81)"/><path class="cls-11" d="M635.46,774.78l2.72-9.19L644,766.7c1.47-7.83.69-13.43-1.78-14.21-3-1-6.91,6.31-9.8,16.55s-2.89,18.17.12,19.13c2.46.78,5.58-3.3,8.4-10.65Z" transform="translate(-610.34 -751.81)"/><path class="cls-11" d="M665.06,788.4c-1.1-.25-.66-.18-2.06-.47-1.93-.4-2.35-.1-2.39.18-.13.77,2.11,1.37,3.23,1.88a11.09,11.09,0,0,1,5,3.15,2.83,2.83,0,0,0,1.83,1.13c1,0,1.73-1.27,2.61-2.52s-.69-1.7-.69-1.7S666.87,788.82,665.06,788.4Z" transform="translate(-610.34 -751.81)"/><path class="cls-11" d="M687,778.09a27.85,27.85,0,0,1-1.28,8.86,24.19,24.19,0,0,1-4.41,7.39,7.65,7.65,0,0,0,8.77-5.2l.54-1.55A7.67,7.67,0,0,0,687,778.09Z" transform="translate(-610.34 -751.81)"/><polygon class="cls-12" points="30.46 25.69 33.52 14.87 27.66 13.77 24.94 22.96 30.46 25.69"/><path class="cls-9" d="M642.48,751.87c-3-.84-7.79,6.78-10.63,17s-2.68,19.22.35,20.06,7.8-6.78,10.64-17S645.52,752.71,642.48,751.87Zm1.07,6.53a48.46,48.46,0,0,1-2,13.18c-2.87,10.33-6.91,15.71-8.74,16.09a.44.44,0,0,1-.28,0c-.54-.14-1.36-1.67-1.42-5.26a48.46,48.46,0,0,1,2-13.18c2.86-10.33,6.91-15.71,8.74-16.09a.44.44,0,0,1,.28,0C642.67,753.28,643.49,754.81,643.55,758.4Z" transform="translate(-610.34 -751.81)"/><path class="cls-10" d="M638,765.56c-.75-.24-1.95,1.64-2.67,4.2s-.7,4.82.06,5.06,2-1.64,2.67-4.2.7-4.82-.06-5.06Z" transform="translate(-610.34 -751.81)"/><path class="cls-13" d="M652.58,806.34s-.87.19-1.07.86a3.72,3.72,0,0,0,0,1.52s.83,1.73,1.73,2.11,2.74,1,3.26.15-.34-1.57-1.06-2.31A35.73,35.73,0,0,0,652.58,806.34Z" transform="translate(-610.34 -751.81)"/><path class="cls-14" d="M655.41,808.67a35.73,35.73,0,0,0-2.83-2.33.87.87,0,0,0-.62.27,3.4,3.4,0,0,0,1.06,1.66,8.78,8.78,0,0,0,1.84,1,9.22,9.22,0,0,1,1.58.55C656.18,809.15,656,809.25,655.41,808.67Z" transform="translate(-610.34 -751.81)"/><path class="cls-13" d="M654,802.75s-1.29,0-1.58.28a8.49,8.49,0,0,0-.79,1.31,2.49,2.49,0,0,0,.2,1,4.55,4.55,0,0,0,1.27,2.23c.62.43,1,.76,2,1.34,1.53.94,3.62,2,4.29,1,.81-1.23.18-2-1.87-3.48A16.05,16.05,0,0,1,654,802.75Z" transform="translate(-610.34 -751.81)"/><path class="cls-14" d="M657.45,806.49a16.05,16.05,0,0,1-3.49-3.74,3.62,3.62,0,0,0-.62,0c.11.52.24.88.28,1.16a.93.93,0,0,0,.18.45c.3.32,1,1.08,1.29,1.29s2.9,1.55,3.86,2A13.57,13.57,0,0,0,657.45,806.49Z" transform="translate(-610.34 -751.81)"/><path class="cls-13" d="M656,799l-1.42.1a3.86,3.86,0,0,0-.84.59c-.11.17-.74,1-.67,1.44a23.82,23.82,0,0,0,.77,2.32,1.66,1.66,0,0,0,.36.58c.34.36.94,1,1.19,1.19s4.24,2.38,4.24,2.38,1.29.37,1.73-.63-.23-2.23-1.2-3.12-1.76-1.23-2.09-2A22.93,22.93,0,0,0,656,799Z" transform="translate(-610.34 -751.81)"/><path class="cls-14" d="M659.05,802.92a2.79,2.79,0,0,1-1-1A22.93,22.93,0,0,0,656,799h-.45a6,6,0,0,0,.88,2.23,15.1,15.1,0,0,0,2.24,1.64A1.31,1.31,0,0,0,659.05,802.92Z" transform="translate(-610.34 -751.81)"/><path class="cls-13" d="M659.11,795.25l-2,.15s-.9.24-1.08.88a5,5,0,0,0-.39,2.06,3.67,3.67,0,0,0,.8,1.9,26.74,26.74,0,0,0,2.52,2.17c.26.09,2,.21,1.6-1.84a5,5,0,0,0-1.34-2.26,15.51,15.51,0,0,0-.06-3Z" transform="translate(-610.34 -751.81)"/><path class="cls-13" d="M659.66,793.15s-1.37-1-1.74-.12.3,4.31,4.89,6.39l2.23,2.65s-2.82,7.27,2.43,11.65l7,9.76,3.65-8.4s-4-4.74-4.33-6.66a64.29,64.29,0,0,0-2.23-6.65,6.81,6.81,0,0,0-2.22-3.14c-.94-.63-3.7-2.5-3.88-2.68a5,5,0,0,0-2.56-.88A13.69,13.69,0,0,1,659.66,793.15Z" transform="translate(-610.34 -751.81)"/><path class="cls-14" d="M659.19,795.3l-.08,0-1.28.1a6.75,6.75,0,0,0,1.45,2.16A8.91,8.91,0,0,0,659.19,795.3Z" transform="translate(-610.34 -751.81)"/><path class="cls-13" d="M659.66,793.15s-1.37-1-1.74-.12.3,4.31,4.89,6.39l2.23,2.65s-2.82,7.27,2.43,11.65l7,9.76,3.65-8.4s-4-4.74-4.33-6.66a64.29,64.29,0,0,0-2.23-6.65,6.81,6.81,0,0,0-2.22-3.14c-.94-.63-3.7-2.5-3.88-2.68a5,5,0,0,0-2.56-.88A13.69,13.69,0,0,1,659.66,793.15Z" transform="translate(-610.34 -751.81)"/><path class="cls-15" d="M675.54,810.22s-2.32,1.44-9.21,9.43l3.1,3.66,8.77-10.5Z" transform="translate(-610.34 -751.81)"/><path class="cls-16" d="M677.19,811.76a99.48,99.48,0,0,0-9.43,9.57l2.23,2.54,8.42-11Z" transform="translate(-610.34 -751.81)"/><path class="cls-17" d="M693.42,824.27l-15.29-13s-5.3,4.84-10.78,10.86l1.92,2.1Z" transform="translate(-610.34 -751.81)"/><path class="cls-18" d="M660.64,793.88s-.18.41-.38.32-2.12-1.47-2.12-1.47S658.68,792.21,660.64,793.88Z" transform="translate(-610.34 -751.81)"/><path class="cls-18" d="M657.89,800.85l.21-.38a.75.75,0,0,1,.8-.49c.64.13,1.17,1.13,1.17,1.13s.42,1.07-.89,1.21a.42.42,0,0,1-.22-.09c-.22-.21-.72-.69-.86-.84C657.76,801,657.89,800.85,657.89,800.85Z" transform="translate(-610.34 -751.81)"/><path class="cls-18" d="M658.55,806a2.59,2.59,0,0,1,.48-.84.68.68,0,0,1,.54-.29,2.87,2.87,0,0,1,1.57.91,1.11,1.11,0,0,1-.74,1.69.36.36,0,0,1-.27-.05c-.3-.18-1-.61-1.17-.75C658.49,806.34,658.53,806.24,658.55,806Z" transform="translate(-610.34 -751.81)"/><path class="cls-18" d="M656.54,808.81a2.48,2.48,0,0,1,.4-.89.67.67,0,0,1,.51-.35,3.06,3.06,0,0,1,1.69.77.46.46,0,0,1,.25.34,1.37,1.37,0,0,1-.86,1.4.44.44,0,0,1-.27,0c-.31-.16-1-.52-1.24-.64C656.52,809.14,656.55,809,656.54,808.81Z" transform="translate(-610.34 -751.81)"/><path class="cls-18" d="M654.31,810.55a2,2,0,0,1,.14-.68.46.46,0,0,1,.3-.31,2.21,2.21,0,0,1,1.3.26.39.39,0,0,1,.22.23.94.94,0,0,1-.38,1.07.27.27,0,0,1-.19,0l-1-.25C654.35,810.78,654.35,810.7,654.31,810.55Z" transform="translate(-610.34 -751.81)"/><path class="cls-19" d="M659.18,793.47l.77.53.29.17a.11.11,0,0,0,.07,0h0l0,0,.08-.11.15-.25.16.12-.22.21-.11.09,0,0h-.08l-.07,0-.29-.19C659.54,793.76,659.18,793.47,659.18,793.47Z" transform="translate(-610.34 -751.81)"/><path class="cls-19" d="M658,801.31l-.11-.12a.44.44,0,0,1-.08-.15.2.2,0,0,1,0-.09.14.14,0,0,1,0-.09.34.34,0,0,1,0-.08l0-.08c.1-.18.2-.36.32-.54h0l.09-.08.1-.06.11,0,.11,0h.22l.11,0,.09,0-.1,0h-.2l-.1,0-.09,0-.08,0a.61.61,0,0,0-.15.12h0c-.11.18-.21.36-.33.54s-.07.09-.08.12a.14.14,0,0,0,0,.06.17.17,0,0,0,0,.07A.86.86,0,0,0,658,801.31Z" transform="translate(-610.34 -751.81)"/><path class="cls-19" d="M658.86,806.6l-.1-.05a.91.91,0,0,1-.23-.22.43.43,0,0,1-.06-.21.25.25,0,0,1,0-.12v0h0v0l0,0,.1-.21a2.39,2.39,0,0,0,.13-.21c0-.07.1-.14.14-.21l.15-.2a.62.62,0,0,1,.19-.14l.1,0a.19.19,0,0,1,.1,0h.25l.06,0,.1,0-.11,0h-.2l-.08,0a.13.13,0,0,0-.08,0,.14.14,0,0,0-.08,0,.47.47,0,0,0-.15.13l-.13.19-.13.21-.13.2-.12.2,0,0h0v0a.15.15,0,0,0,0,.09.32.32,0,0,0,0,.17,1.27,1.27,0,0,0,.16.23A.32.32,0,0,0,658.86,806.6Z" transform="translate(-610.34 -751.81)"/><path class="cls-19" d="M656.87,809.33a1.18,1.18,0,0,1-.19-.11.69.69,0,0,1-.16-.18.37.37,0,0,1,0-.24.27.27,0,0,1,0-.12l0-.1c.06-.14.13-.27.19-.4a3.84,3.84,0,0,1,.22-.39h0a1,1,0,0,1,.17-.14l.09,0a.29.29,0,0,1,.1,0l.1,0h.1a1.18,1.18,0,0,1,.2,0h-.19l-.1,0-.08,0-.08.05-.08,0-.13.13h0l-.1.19-.1.19c-.06.14-.13.27-.19.4l-.06.09s0,.06,0,.09a.28.28,0,0,0,0,.18A.75.75,0,0,0,656.87,809.33Z" transform="translate(-610.34 -751.81)"/><path class="cls-19" d="M654.63,810.87a.62.62,0,0,1-.29-.15.32.32,0,0,1-.09-.16.16.16,0,0,1,0-.1l0-.08c0-.1,0-.2.07-.3s.06-.21.1-.31h0a.69.69,0,0,1,.11-.13.43.43,0,0,1,.13-.09l.07,0h.08a.76.76,0,0,1,.15,0c-.05,0-.1,0-.14,0l-.06,0-.06,0-.06,0,0,.05a.44.44,0,0,0-.08.11h0c0,.1-.06.2-.08.3l-.09.3,0,.07a.06.06,0,0,0,0,.06.21.21,0,0,0,0,.12A.93.93,0,0,0,654.63,810.87Z" transform="translate(-610.34 -751.81)"/></svg>