<svg id="Layer_1" data-name="Layer 1" xmlns="http://www.w3.org/2000/svg" viewBox="0 0 99.49 79.49"><defs><style>.cls-1{fill:#243038;}.cls-2{fill:#f2f2f2;}.cls-3{fill:#e6e6e6;}.cls-4{fill:#b2b2b2;}.cls-5{fill:#adadad;}.cls-6{fill:#4d4d4d;}.cls-7{fill:#f2b58c;}.cls-8{fill:#e5a377;}.cls-9{fill:#dc4d65;}.cls-10{fill:#f9b256;}.cls-11{fill:#e5a93e;}.cls-12{fill:#fec197;}.cls-13{fill:#f2af81;}.cls-14{fill:#fff6e5;}.cls-15{fill:#e0d1bd;}.cls-16{fill:#44a0a5;}.cls-17{fill:#f9cdaf;}.cls-18{fill:#eda87a;}</style></defs><path class="cls-1" d="M87.81,85.83V36.9a2.23,2.23,0,0,0-2.23-2.23H13.91a2.23,2.23,0,0,0-2.23,2.23V85.83Z" transform="translate(0 -10.51)"/><rect class="cls-2" x="15.59" y="28.26" width="68.3" height="43.61"/><path class="cls-3" d="M0,88.08a1,1,0,0,0,.4.59A7.42,7.42,0,0,0,4,90H95.56a8.65,8.65,0,0,0,3.55-1.33.92.92,0,0,0,.38-.59Z" transform="translate(0 -10.51)"/><path class="cls-4" d="M99.49,88.08v-2a.28.28,0,0,0-.3-.24H.3a.27.27,0,0,0-.3.24v2Z" transform="translate(0 -10.51)"/><path class="cls-5" d="M56,85.83l-.14.83c0,.15-.11.3-.25.3H43.85c-.13,0-.2-.15-.24-.3l-.12-.82Z" transform="translate(0 -10.51)"/><rect class="cls-6" x="86.65" y="75.89" width="2.31" height="1.12" rx="0.5"/><path class="cls-6" d="M91.1,87a.57.57,0,1,1-.56-.56A.56.56,0,0,1,91.1,87Z" transform="translate(0 -10.51)"/><path class="cls-7" d="M45.74,69.86s4.83,3.54,6,4.51c.95.88,3.15,1.17,4.18,2.59s5,4,5,4l2.62.25-6.89-9.61L55.24,60.11s-1-3.08-2.61.17S45.74,69.86,45.74,69.86Z" transform="translate(0 -10.51)"/><path class="cls-8" d="M52.63,60.28c-1.63,3.25-6.89,9.58-6.89,9.58l3.11,2.31,6.24-11.56.15-.5S54.26,57,52.63,60.28Z" transform="translate(0 -10.51)"/><path class="cls-9" d="M75.72,36.42h0s-15-5.49-22.23-8.81c-4.65-2.13-6.71-3.29-12.51-8-6.39-5.17-7.54-8.81-10.16-8.27-2.13.44-7.57,31.87-8.77,35.21-.13.36,11.1-1.08,14.86-1,2.13,0,7.13.24,11.59.76l0,.31a2.78,2.78,0,0,0,2.05,2.21L40.23,67.92a1.53,1.53,0,0,0,.54,2C41,70.08,46,72.66,46,72.66a1.1,1.1,0,0,0,1.42-.39L59.06,53.66c.26.09.53.05.77.15,1.75.74,3.77-3.25,3.86-3.41,3.47,1.19,6.4,2.24,6.4,2.24h0c.79.16,6.69-1.92,8-5.82l.54-1.54C80,41.36,77,36.88,75.72,36.42Z" transform="translate(0 -10.51)"/><path class="cls-10" d="M46.15,69.23c-1.47-.77-2.93-1.54-3.68-2L56.73,48.83l-5.36-3.06c-.63-.24-.66-.39-.67-.5l-.27-2-1.65-.19c-5.36-.63-11.15-.76-11.79-.78a85,85,0,0,0-11,1.28l-1.29.2c.43-1.88,1-4.51,1.7-7.92C27.9,28.77,30.56,16.16,32,12.14c.38.41.84,1,1.24,1.49a39.65,39.65,0,0,0,6.38,6.59c5.81,4.69,8,6,13,8.26,6.68,3.07,19.68,7.88,22,8.74l.26.11a5.42,5.42,0,0,1,2.71,6.89l-.54,1.54a5.62,5.62,0,0,1-5.24,3.9h0a4.92,4.92,0,0,1-1.15-.17l-.11,0c-.78-.28-3.3-1.16-6.18-2.15l-1.63-.56-.93,1.51-.07.13a7.8,7.8,0,0,1-1.59,2.22,3,3,0,0,0-.5-.08h0L58.16,50Z" transform="translate(0 -10.51)"/><path class="cls-11" d="M46.1,71.37c-1.47-.76-2.93-1.53-3.68-2L53.64,48.78l-2.31-.86c-.64-.24-.66-.39-.67-.5l-.28-2-1.65-.19c-5.35-.62-11.14-.76-11.78-.77a85.15,85.15,0,0,0-11,1.28L24.64,46c.43-1.88,1-4.5,1.71-7.92,1.5-7.13,4.16-19.75,5.65-23.77.38.41.84,1,1.24,1.5a39.24,39.24,0,0,0,6.38,6.59c5.8,4.69,8,6,13,8.26,6.69,3.07,19.68,7.87,22,8.74l.26.11a5.4,5.4,0,0,1,2.7,6.88l-.53,1.55a5.63,5.63,0,0,1-5.25,3.9h0a4.38,4.38,0,0,1-1.14-.18l-.12,0c-.78-.28-3.3-1.17-6.18-2.15l-1.62-.56-.93,1.51-.07.13a8.2,8.2,0,0,1-1.59,2.22,3.23,3.23,0,0,0-.51-.08h0l-1.54-.52Z" transform="translate(0 -10.51)"/><path class="cls-1" d="M40.61,32.84a40.49,40.49,0,0,0,1-12.71l-.63-.5c-6.39-5.17-7.27-9.57-9.89-9C29,11.05,23,44,21.82,47.38c-.12.31,8.66-1.37,13.37-1.74A39.3,39.3,0,0,0,40.61,32.84Z" transform="translate(0 -10.51)"/><path class="cls-1" d="M24.91,33.3l2.7-9.12,5.81,1.1c1.46-7.77.68-13.31-1.77-14.09-3-.95-6.85,6.26-9.71,16.41s-2.87,18,.12,19c2.43.78,5.52-3.27,8.32-10.56Z" transform="translate(0 -10.51)"/><path class="cls-1" d="M54.27,46.81c-1.09-.26-.66-.19-2-.47-1.92-.4-2.33-.1-2.38.17-.12.77,2.1,1.37,3.2,1.87a10.93,10.93,0,0,1,5,3.13,2.87,2.87,0,0,0,1.82,1.11c1,0,1.71-1.26,2.59-2.49s-.69-1.69-.69-1.69S56.06,47.23,54.27,46.81Z" transform="translate(0 -10.51)"/><path class="cls-1" d="M76.05,36.58a27.36,27.36,0,0,1-1.28,8.78A24.14,24.14,0,0,1,70.4,52.7a7.6,7.6,0,0,0,8.7-5.16L79.64,46A7.61,7.61,0,0,0,76.05,36.58Z" transform="translate(0 -10.51)"/><polygon class="cls-11" points="30.21 25.48 33.25 14.75 27.44 13.65 24.74 22.77 30.21 25.48"/><path class="cls-9" d="M31.87,10.58c-3-.84-7.73,6.72-10.54,16.87s-2.66,19.06.35,19.89,7.73-6.72,10.55-16.87S34.89,11.41,31.87,10.58Zm1.07,6.47a48.36,48.36,0,0,1-2,13.07c-2.84,10.24-6.86,15.58-8.67,16a.54.54,0,0,1-.28,0c-.53-.15-1.35-1.66-1.41-5.23a48.29,48.29,0,0,1,2-13.06c2.84-10.25,6.85-15.59,8.67-16a.66.66,0,0,1,.28,0C32.06,12,32.87,13.49,32.94,17.05Z" transform="translate(0 -10.51)"/><path class="cls-9" d="M27.47,24.15c-.75-.24-1.93,1.62-2.65,4.16s-.69,4.79.06,5,1.93-1.63,2.64-4.16.7-4.79-.05-5Z" transform="translate(0 -10.51)"/><path class="cls-12" d="M41.88,64.59s-.86.19-1.06.86a3.87,3.87,0,0,0,0,1.51s.83,1.71,1.72,2.09,2.72,1,3.24.15-.34-1.56-1-2.29A35.33,35.33,0,0,0,41.88,64.59Z" transform="translate(0 -10.51)"/><path class="cls-13" d="M44.7,66.91a35.33,35.33,0,0,0-2.82-2.32.87.87,0,0,0-.6.28,3.38,3.38,0,0,0,1,1.64,9.4,9.4,0,0,0,1.83,1,8.82,8.82,0,0,1,1.57.55C45.46,67.38,45.25,67.48,44.7,66.91Z" transform="translate(0 -10.51)"/><path class="cls-12" d="M43.25,61s-1.27,0-1.56.28a8.64,8.64,0,0,0-.78,1.29,2.5,2.5,0,0,0,.19,1,4.58,4.58,0,0,0,1.26,2.22c.62.42,1,.75,2,1.32,1.51.93,3.59,2,4.25,1,.81-1.22.19-2-1.85-3.45A15.93,15.93,0,0,1,43.25,61Z" transform="translate(0 -10.51)"/><path class="cls-13" d="M46.72,64.75A15.93,15.93,0,0,1,43.25,61a2.54,2.54,0,0,0-.61,0c.11.51.24.87.28,1.15a.94.94,0,0,0,.17.44c.31.32,1,1.07,1.29,1.28s2.87,1.54,3.83,2A13.2,13.2,0,0,0,46.72,64.75Z" transform="translate(0 -10.51)"/><path class="cls-12" d="M45.3,57.32l-1.41.1a3.73,3.73,0,0,0-.83.58c-.11.17-.74,1-.67,1.43a23.71,23.71,0,0,0,.77,2.3,1.84,1.84,0,0,0,.35.58c.34.36.94,1,1.18,1.17s4.21,2.37,4.21,2.37,1.28.36,1.71-.63-.22-2.21-1.18-3.1-1.75-1.21-2.08-2A22.16,22.16,0,0,0,45.3,57.32Z" transform="translate(0 -10.51)"/><path class="cls-13" d="M48.3,61.21a2.92,2.92,0,0,1-.95-1.05,22.16,22.16,0,0,0-2.05-2.84h-.44a6,6,0,0,0,.87,2.21A15.11,15.11,0,0,0,48,61.17,1.17,1.17,0,0,0,48.3,61.21Z" transform="translate(0 -10.51)"/><path class="cls-12" d="M48.37,53.6l-2,.14s-.89.24-1.07.88a5.22,5.22,0,0,0-.39,2,3.7,3.7,0,0,0,.79,1.89,27.74,27.74,0,0,0,2.51,2.15c.25.09,2,.21,1.58-1.83a4.94,4.94,0,0,0-1.33-2.24,15.21,15.21,0,0,0-.06-3Z" transform="translate(0 -10.51)"/><path class="cls-12" d="M48.91,51.51s-1.35-1-1.73-.11.3,4.27,4.86,6.33l2.2,2.64s-2.79,7.2,2.41,11.55l7,9.67,3.62-8.33s-4-4.7-4.3-6.6a61.91,61.91,0,0,0-2.21-6.6A6.71,6.71,0,0,0,58.52,57c-.93-.62-3.67-2.48-3.85-2.65a5,5,0,0,0-2.54-.88A13.31,13.31,0,0,1,48.91,51.51Z" transform="translate(0 -10.51)"/><path class="cls-13" d="M48.44,53.65l-.07,0-1.27.09a6.69,6.69,0,0,0,1.43,2.15A8.24,8.24,0,0,0,48.44,53.65Z" transform="translate(0 -10.51)"/><path class="cls-12" d="M48.91,51.51s-1.35-1-1.73-.11.3,4.27,4.86,6.33l2.2,2.64s-2.79,7.2,2.41,11.55l7,9.67,3.62-8.33s-4-4.7-4.3-6.6a61.91,61.91,0,0,0-2.21-6.6A6.71,6.71,0,0,0,58.52,57c-.93-.62-3.67-2.48-3.85-2.65a5,5,0,0,0-2.54-.88A13.31,13.31,0,0,1,48.91,51.51Z" transform="translate(0 -10.51)"/><path class="cls-14" d="M64.66,68.44s-2.3,1.43-9.14,9.36l3.08,3.63L67.3,71Z" transform="translate(0 -10.51)"/><path class="cls-15" d="M66.3,70a100,100,0,0,0-9.36,9.49L59.16,82,67.51,71.1Z" transform="translate(0 -10.51)"/><path class="cls-16" d="M82.39,82.38,67.23,69.53S62,74.33,56.54,80.29l1.9,2.09Z" transform="translate(0 -10.51)"/><path class="cls-17" d="M49.88,52.24s-.18.4-.37.32-2.1-1.46-2.1-1.46S47.94,50.58,49.88,52.24Z" transform="translate(0 -10.51)"/><path class="cls-17" d="M47.15,59.15l.22-.38a.73.73,0,0,1,.78-.48c.64.13,1.17,1.12,1.17,1.12s.41,1.06-.89,1.2a.4.4,0,0,1-.21-.09c-.22-.21-.72-.68-.86-.83C47,59.33,47.15,59.15,47.15,59.15Z" transform="translate(0 -10.51)"/><path class="cls-17" d="M47.81,64.27a2.38,2.38,0,0,1,.48-.83.66.66,0,0,1,.53-.29,2.83,2.83,0,0,1,1.56.9,1.1,1.1,0,0,1-.74,1.68.39.39,0,0,1-.26,0c-.3-.18-1-.61-1.17-.75C47.75,64.6,47.79,64.5,47.81,64.27Z" transform="translate(0 -10.51)"/><path class="cls-17" d="M45.82,67a2.69,2.69,0,0,1,.39-.88.66.66,0,0,1,.5-.34,3,3,0,0,1,1.69.76.48.48,0,0,1,.25.33,1.39,1.39,0,0,1-.86,1.4.43.43,0,0,1-.26,0l-1.24-.62C45.8,67.37,45.83,67.26,45.82,67Z" transform="translate(0 -10.51)"/><path class="cls-17" d="M43.61,68.77a1.7,1.7,0,0,1,.13-.67.46.46,0,0,1,.3-.31,2.18,2.18,0,0,1,1.29.26.39.39,0,0,1,.22.23,1,1,0,0,1-.38,1.06.33.33,0,0,1-.19,0L44,69.12C43.64,69,43.65,68.92,43.61,68.77Z" transform="translate(0 -10.51)"/><path class="cls-18" d="M48.43,51.83s.38.27.77.52a2.2,2.2,0,0,0,.28.18l.07,0h0l0,0,.07-.11.16-.25.15.12-.21.2-.12.1,0,0h-.07l-.08,0-.28-.2C48.79,52.12,48.43,51.83,48.43,51.83Z" transform="translate(0 -10.51)"/><path class="cls-18" d="M47.29,59.61l-.11-.12a.71.71,0,0,1-.08-.15.2.2,0,0,1,0-.09.14.14,0,0,1,0-.09.29.29,0,0,1,0-.08l0-.07c.1-.19.21-.37.32-.54h0a.31.31,0,0,1,.09-.07.47.47,0,0,1,.09-.06l.11,0,.11,0h.22l.1,0,.1.05-.11,0H48l-.1,0-.09,0-.08,0a.61.61,0,0,0-.15.12h0a5.84,5.84,0,0,1-.33.53.91.91,0,0,0-.08.13.43.43,0,0,0,0,0v.07A.86.86,0,0,0,47.29,59.61Z" transform="translate(0 -10.51)"/><path class="cls-18" d="M48.11,64.86,48,64.8a1,1,0,0,1-.22-.21.47.47,0,0,1-.06-.21.25.25,0,0,1,0-.12v-.07l0,0,.1-.21a2.39,2.39,0,0,0,.13-.21,1.43,1.43,0,0,1,.14-.2,2.43,2.43,0,0,1,.14-.2.77.77,0,0,1,.19-.14l.1,0,.1,0h.25l.06,0,.1,0-.11,0h-.2l-.08,0-.08,0-.08,0-.15.14-.13.19-.12.2L48,64l-.12.2,0,0h0v0a.15.15,0,0,0,0,.09.32.32,0,0,0,0,.17,1.27,1.27,0,0,0,.16.23Z" transform="translate(0 -10.51)"/><path class="cls-18" d="M46.14,67.56a.52.52,0,0,1-.19-.11.5.5,0,0,1-.15-.17.39.39,0,0,1,0-.24.5.5,0,0,1,0-.12l0-.1.18-.4c.06-.13.15-.25.22-.38h0l.16-.13.09-.05.1,0,.1,0a.34.34,0,0,1,.1,0c.07,0,.13,0,.2,0h-.2l-.09,0-.08,0-.08,0-.08.06a.68.68,0,0,0-.12.12h0l-.1.19c0,.06-.07.12-.1.19s-.12.26-.19.38l0,.1,0,.08a.41.41,0,0,0,0,.19A.88.88,0,0,0,46.14,67.56Z" transform="translate(0 -10.51)"/><path class="cls-18" d="M43.92,69.09a.73.73,0,0,1-.29-.15.28.28,0,0,1-.09-.16.14.14,0,0,1,0-.09v-.08c0-.1.05-.2.07-.3s.07-.21.1-.31h0a.45.45,0,0,1,.1-.13.6.6,0,0,1,.13-.09l.07,0h.08a.39.39,0,0,1,.15,0,.59.59,0,0,0-.14,0l-.06,0-.06,0,0,0-.05,0a.41.41,0,0,0-.07.11h0c0,.1-.06.19-.08.29s0,.21-.08.31l0,.07v.06a.21.21,0,0,0,0,.12A1.14,1.14,0,0,0,43.92,69.09Z" transform="translate(0 -10.51)"/></svg>