<?xml version="1.0" encoding="utf-8"?>
<!-- Generator: Adobe Illustrator 19.0.0, SVG Export Plug-In . SVG Version: 6.00 Build 0)  -->
<svg version="1.1" id="Layer_1" xmlns="http://www.w3.org/2000/svg" xmlns:xlink="http://www.w3.org/1999/xlink" x="0px" y="0px"
	 viewBox="0 0 1980 700" style="enable-background:new 0 0 1980 700;" xml:space="preserve">
<style type="text/css">
	.st0{clip-path:url(#XMLID_9_);fill:#F4F4F4;}
	.st1{clip-path:url(#XMLID_9_);fill:#E8E8E8;}
	.st2{fill:#F5F5F5;}
	.st3{fill:#FAFAFA;}
	.st4{fill:#ECECEC;}
	.st5{fill:#E1E1E1;}
	.st6{fill:#ADC548;}
	.st7{fill:#1A2E35;}
	.st8{fill:#375A64;}
	.st9{fill:#FF4F5B;}
	.st10{opacity:0.8;}
	.st11{fill:#FFFFFF;}
	.st12{opacity:0.6;}
	.st13{opacity:0.3;}
	.st14{fill:#D94D65;}
	.st15{fill:#F1B844;}
	.st16{fill:#50A6B1;}
	.st17{fill:#FFBF9D;}
	.st18{fill:#FF9A6C;}
</style>
<g id="XMLID_5_">
	<defs>
		<rect id="XMLID_4_" width="1980" height="700"/>
	</defs>
	<clipPath id="XMLID_9_">
		<use xlink:href="#XMLID_4_"  style="overflow:visible;"/>
	</clipPath>
	<rect id="XMLID_2_" class="st0" width="1980" height="700"/>
	<circle id="XMLID_3_" class="st1" cx="1679.9" cy="250.8" r="633.1"/>
</g>
<g id="XMLID_768_">
	<g id="XMLID_1003_">
		<g id="XMLID_1004_">
			<path id="XMLID_1005_" class="st2" d="M1639.6,264.2c-15.9-23.1-53-27.6-74-8.9c-0.4-18.8-12.9-36.8-30.3-43.8
				c-17.4-7-38.9-2.7-52.2,10.6c3-10.5-8-20.8-19-21.3c-10.9-0.6-21,5.3-30.4,10.9c-9.4,5.6-19.5,11.4-30.5,10.7
				c-11.8-0.8-21.6-9-32.7-13.3c-27-10.4-61.2,8.1-67.2,36.4c-29.9-12.1-68.3,7.7-75.8,39.1l438,5.1
				C1662.6,277.2,1652.1,266.9,1639.6,264.2z"/>
		</g>
	</g>
	<g id="XMLID_999_">
		<g id="XMLID_1000_">
			<g id="XMLID_1001_">
				<path id="XMLID_1002_" class="st3" d="M1622,123.2c0.8-5.5-7-10-12.8-10.5c-2.8-0.2-5.7,0.2-8.3-0.7c-5.7-2-8-9.4-13.6-11.7
					c-4.2-1.8-9-0.2-13,1.8c-4,2-8,4.6-12.5,4.9c-3.9,0.3-8.2-1.2-11.6,0.7c-2.6,1.4-3.9,4.4-6.3,6.1c-2.3,1.7-5.3,2.1-8.2,2.2
					c-2.9,0.2-5.8,0.2-8.4,1.4c-2.6,1.2-4.8,4-4.2,6.8L1622,123.2z"/>
			</g>
		</g>
	</g>
	<g id="XMLID_995_">
		<g id="XMLID_996_">
			<g id="XMLID_997_">
				<path id="XMLID_998_" class="st3" d="M1240.7,77.9c0.4-3.1-3.9-5.6-7.2-5.9c-1.6-0.1-3.2,0.1-4.6-0.4c-3.2-1.1-4.5-5.2-7.6-6.5
					c-2.3-1-5-0.1-7.3,1c-2.3,1.1-4.5,2.6-7,2.7c-2.2,0.1-4.6-0.7-6.5,0.4c-1.4,0.8-2.2,2.4-3.5,3.4c-1.3,0.9-3,1.2-4.6,1.2
					s-3.3,0.1-4.7,0.8c-1.5,0.7-2.7,2.2-2.4,3.8L1240.7,77.9z"/>
			</g>
		</g>
	</g>
	<g id="XMLID_991_">
		<g id="XMLID_992_">
			<g id="XMLID_993_">
				<path id="XMLID_994_" class="st4" d="M1692.2,179.3c0.9-6.3-8.1-11.5-14.8-12.1c-3.2-0.3-6.5,0.2-9.6-0.8
					c-6.6-2.3-9.2-10.8-15.6-13.5c-4.8-2-10.3-0.2-14.9,2.1c-4.6,2.3-9.2,5.3-14.4,5.6c-4.5,0.3-9.4-1.4-13.4,0.8
					c-2.9,1.6-4.5,5-7.2,7c-2.7,2-6.1,2.4-9.4,2.6s-6.7,0.2-9.7,1.6c-3,1.4-5.5,4.5-4.9,7.8L1692.2,179.3z"/>
			</g>
		</g>
	</g>
	<g id="XMLID_987_">
		<g id="XMLID_988_">
			<g id="XMLID_989_">
				<path id="XMLID_990_" class="st4" d="M1679.9,70.8c0.6-4.5-5.7-8.1-10.4-8.5c-2.3-0.2-4.6,0.2-6.7-0.6c-4.6-1.6-6.5-7.6-11-9.5
					c-3.4-1.4-7.3-0.2-10.5,1.5c-3.3,1.6-6.5,3.7-10.2,3.9c-3.2,0.2-6.6-1-9.4,0.6c-2.1,1.2-3.2,3.5-5.1,5c-1.9,1.4-4.3,1.7-6.6,1.8
					c-2.3,0.1-4.7,0.1-6.8,1.1c-2.1,1-3.9,3.2-3.4,5.5L1679.9,70.8z"/>
			</g>
		</g>
	</g>
	<g id="XMLID_983_">
		<g id="XMLID_984_">
			<g id="XMLID_985_">
				<path id="XMLID_986_" class="st4" d="M1258.8,177.1c0.5-3.3-4.2-6-7.7-6.3c-1.7-0.1-3.4,0.1-5-0.4c-3.4-1.2-4.8-5.6-8.2-7.1
					c-2.5-1.1-5.4-0.1-7.8,1.1c-2.4,1.2-4.8,2.8-7.6,2.9c-2.4,0.2-4.9-0.7-7,0.4c-1.5,0.9-2.3,2.6-3.8,3.7c-1.4,1-3.2,1.2-4.9,1.3
					c-1.7,0.1-3.5,0.1-5.1,0.8c-1.6,0.7-2.9,2.4-2.5,4.1L1258.8,177.1z"/>
			</g>
		</g>
	</g>
	<g id="XMLID_979_">
		<g id="XMLID_980_">
			<g id="XMLID_981_">
				<path id="XMLID_982_" class="st2" d="M1382.4,126.3c1-7-8.9-12.8-16.3-13.4c-3.5-0.3-7.2,0.3-10.6-0.9
					c-7.3-2.5-10.2-11.9-17.3-14.9c-5.3-2.2-11.4-0.2-16.5,2.3c-5.1,2.6-10.2,5.8-16,6.2c-5,0.3-10.4-1.5-14.8,0.9
					c-3.3,1.8-5,5.6-8,7.8c-2.9,2.2-6.8,2.6-10.4,2.8c-3.6,0.2-7.4,0.2-10.7,1.8s-6.1,5-5.4,8.6L1382.4,126.3z"/>
			</g>
		</g>
	</g>
	<g id="XMLID_944_">
		<g id="XMLID_976_">
			<g id="XMLID_977_">
				<g id="XMLID_978_">
					<path id="XMLID_1626_" class="st4" d="M1180.7,377.6c0,0-10.2,1.5-4.4,23.9c5.8,22.4,10.7,34,10.7,34s0.8,5.1-3.3,4.9
						c-4.1-0.1-12.5-3.4-15.3,1c-2.9,4.6-0.3,10.1,6.1,15.9c6.4,5.8,20.1,18.9,21.3,20.1c1.2,1.2,2.1,3.7-0.7,4
						c-2.8,0.3-22.8-1.9-23.3,7.6c-0.5,9.5,20.1,22.6,22.3,24.1c2.2,1.5,2.6,2.6,2.1,3.9c-0.5,1.3-7.1-0.1-12.8-0.5
						c-5.7-0.4-12.4,0.1-12.2,5.6c0.2,5.5,11,19.5,42.5,29.8l14.9,3.8l11-10.9c22.1-24.7,24.5-42.2,21.8-47.1
						c-2.6-4.9-8.7-2-13.4,1.3c-4.7,3.2-9.8,7.8-10.8,6.9c-1.1-0.9-1.4-2-0.2-4.4c1.2-2.4,12.4-24.1,7.2-32.1c-5.2-8-21.3,4-24,5.1
						c-2.6,1.1-3.1-1.5-2.6-3.1c0.5-1.7,5.7-19.9,8.4-28.1c2.7-8.2,2.1-14.3-2.7-16.8c-4.7-2.4-10.2,4.6-13.7,6.8
						c-3.5,2.2-5.3-2.6-5.3-2.6s-1.6-12.5-7.8-34.8c-6.2-22.3-16-18.3-16-18.3"/>
				</g>
			</g>
		</g>
		<g id="XMLID_972_">
			<g id="XMLID_973_">
				<g id="XMLID_974_">
					<g id="XMLID_975_">
						<path id="XMLID_1622_" class="st5" d="M1228.7,559.4c-4.5-16.4-12-45.7-18.6-70.8c-6.6-25.1-12.6-47.9-17-64.3
							c-2.2-8.2-4-14.8-5.3-19.5c-0.6-2.3-1.1-4.1-1.4-5.3c-0.2-0.6-0.3-1.1-0.4-1.4c-0.1-0.3-0.1-0.5-0.1-0.5s0.1,0.2,0.2,0.5
							c0.1,0.3,0.2,0.8,0.4,1.4c0.4,1.2,0.9,3,1.5,5.3c1.3,4.6,3.2,11.2,5.4,19.4c4.5,16.4,10.6,39.1,17.1,64.3
							c6.6,25.1,14.1,54.4,18.5,70.9"/>
					</g>
				</g>
			</g>
		</g>
		<g id="XMLID_968_">
			<g id="XMLID_969_">
				<g id="XMLID_970_">
					<g id="XMLID_971_">
						<path id="XMLID_1617_" class="st5" d="M1179.9,446.4c0,0,0.4,0.2,1,0.5c0.6,0.4,1.5,0.9,2.6,1.6c2.2,1.4,5.1,3.4,8.3,5.6
							c3.1,2.2,6,4.2,8.1,5.8c1,0.7,1.8,1.3,2.5,1.7c0.6,0.4,0.9,0.6,0.9,0.7s-0.4-0.2-1-0.5c-0.6-0.4-1.5-0.9-2.6-1.6
							c-2.1-1.4-5-3.4-8.2-5.7c-3.2-2.2-6-4.2-8.2-5.7c-1-0.7-1.8-1.3-2.5-1.7C1180.2,446.7,1179.9,446.5,1179.9,446.4z"/>
					</g>
				</g>
			</g>
		</g>
		<g id="XMLID_964_">
			<g id="XMLID_965_">
				<g id="XMLID_966_">
					<g id="XMLID_967_">
						
							<ellipse id="XMLID_1612_" transform="matrix(-0.5359 0.8443 -0.8443 -0.5359 2241.5759 -336.423)" class="st5" cx="1213.3" cy="447.9" rx="16.3" ry="0.2"/>
					</g>
				</g>
			</g>
		</g>
		<g id="XMLID_960_">
			<g id="XMLID_961_">
				<g id="XMLID_962_">
					<g id="XMLID_963_">
						<path id="XMLID_1607_" class="st5" d="M1212.9,500.7c0,0,0.3-0.3,0.8-0.8c0.6-0.5,1.4-1.2,2.3-2c2-1.7,4.6-4.1,7.5-6.9
							c2.9-2.7,5.4-5.3,7.2-7.2c0.9-0.9,1.6-1.6,2.1-2.2c0.5-0.5,0.8-0.8,0.8-0.8c0,0-0.2,0.3-0.7,0.9c-0.5,0.6-1.2,1.4-2,2.3
							c-1.7,1.9-4.2,4.6-7.1,7.3c-2.9,2.8-5.6,5.1-7.6,6.8c-1,0.8-1.8,1.5-2.4,1.9C1213.3,500.5,1212.9,500.7,1212.9,500.7z"/>
					</g>
				</g>
			</g>
		</g>
		<g id="XMLID_956_">
			<g id="XMLID_957_">
				<g id="XMLID_958_">
					<g id="XMLID_959_">
						<path id="XMLID_1602_" class="st5" d="M1187.6,491.8c0,0,0.4,0.1,1,0.2c0.7,0.2,1.7,0.5,2.7,0.8c2.3,0.7,5.5,1.8,9,2.9
							c3.5,1.2,6.6,2.3,8.9,3.1c1.1,0.4,2,0.7,2.7,1c0.6,0.2,1,0.4,1,0.4c0,0-0.4-0.1-1-0.2c-0.7-0.2-1.7-0.5-2.7-0.8
							c-2.3-0.7-5.5-1.8-9-2.9c-3.5-1.2-6.6-2.3-8.9-3.1c-1.1-0.4-2-0.7-2.7-1C1188,492,1187.6,491.9,1187.6,491.8z"/>
					</g>
				</g>
			</g>
		</g>
		<g id="XMLID_951_">
			<g id="XMLID_952_">
				<g id="XMLID_953_">
					<g id="XMLID_954_">
						<path id="XMLID_1597_" class="st5" d="M1190.7,527.2c0,0,0.5,0.1,1.3,0.3c0.9,0.3,2.1,0.6,3.5,1.1c3,0.9,7,2.2,11.5,3.7
							c4.5,1.5,8.5,2.8,11.5,3.8c1.4,0.5,2.6,0.9,3.5,1.2c0.8,0.3,1.3,0.5,1.2,0.5c0,0-0.5-0.1-1.3-0.3c-0.9-0.3-2.1-0.6-3.5-1.1
							c-3-0.9-7-2.2-11.5-3.7c-4.5-1.5-8.5-2.8-11.5-3.8c-1.4-0.5-2.6-0.9-3.5-1.2C1191.1,527.4,1190.7,527.3,1190.7,527.2z"/>
					</g>
				</g>
			</g>
		</g>
		<g id="XMLID_946_">
			<g id="XMLID_947_">
				<g id="XMLID_948_">
					<g id="XMLID_949_">
						<path id="XMLID_1592_" class="st5" d="M1222.5,537.3c0,0,0.3-0.4,1-1c0.7-0.7,1.7-1.6,2.8-2.7c2.4-2.3,5.7-5.4,9.3-9
							c3.6-3.6,6.7-6.9,8.9-9.3c1.1-1.2,2-2.1,2.7-2.9c0.6-0.7,1-1,1-1c0,0-0.3,0.4-0.9,1.1c-0.6,0.7-1.5,1.7-2.6,3
							c-2.2,2.5-5.3,5.9-8.9,9.5c-3.6,3.6-6.9,6.7-9.4,8.9c-1.2,1.1-2.2,2-3,2.6C1222.9,537,1222.5,537.3,1222.5,537.3z"/>
					</g>
				</g>
			</g>
		</g>
	</g>
	<g id="XMLID_897_">
		<g id="XMLID_937_">
			<g id="XMLID_938_">
				<g id="XMLID_939_">
					<g id="XMLID_941_">
						<g id="XMLID_942_">
							<g id="XMLID_943_">
								<path id="XMLID_1586_" class="st6" d="M1654.8,560.6c-24.9-13.8-34.3-44.5-37.2-72.8c-0.5-4.7-1.6-9.6-0.1-14.1
									c1.5-4.4,6.1-7.9,10.3-6.5c3.5,1.2,5.5,5.1,7.8,8.2c3,4.1,7.2,7.3,11.8,9.1c3,1.2,6.6,1.6,9.2-0.4c3.5-2.8,3.2-8.4,2.5-13.1
									c-1.2-8.7-2.5-17.5-3.7-26.2c-0.7-4.7-1.3-9.5-0.6-14.1c0.8-4.6,3.2-9.2,7.2-11c4-1.8,9.5,0,11,4.5c0.6,1.9,0.5,3.9,0.9,5.8
									c0.4,1.9,1.5,4,3.3,4.3c1.8,0.3,3.4-1.3,4.5-2.8c3.9-5.4,6.1-11.9,8.2-18.3c2.1-6.5,4-13,7.4-18.8
									c3.4-5.7,8.5-10.6,14.8-11.8c6.2-1.2,13.5,2,15.9,8.3c2.5,6.4-0.2,13.6-3.4,19.5c-4.8,8.7-10.7,16.7-17.6,23.6
									c-1.2,1.2-2.6,2.6-2.9,4.4c-0.5,3.3,2.7,6,5.7,6.6c3.4,0.7,6.9-0.1,10.4-0.2c3.5,0,7.4,1.1,9.2,4.3
									c2.4,4.5-0.6,10.1-3.9,13.9c-6.5,7.6-14.2,14-22.7,18.7c-3.1,1.7-6.3,3.3-8.6,6.1c-2.3,2.8-3.3,7.2-1.3,10.3
									c2,3.1,6.2,3.6,9.5,2.5c3.3-1.1,6-3.5,9.1-5.3c5.7-3.3,13.5-3.9,18.1,1.1c3,3.3,3.9,8.4,3.2,12.9c-0.7,4.5-2.8,8.7-5.1,12.5
									c-8,13.4-19.1,24.9-32.3,32C1682.1,560.9,1669.4,564.1,1654.8,560.6"/>
							</g>
						</g>
					</g>
				</g>
			</g>
		</g>
		<g id="XMLID_929_">
			<g id="XMLID_930_">
				<g id="XMLID_931_">
					<g id="XMLID_932_">
						<g id="XMLID_933_">
							<g id="XMLID_934_">
								<g id="XMLID_935_">
									<path id="XMLID_1579_" class="st5" d="M1659.2,542c2-14.8,5.4-30.8,9.5-47.4c1-4.1,2.1-8.2,3.1-12.3c1-4,2-8,3.3-11.8
										c2.4-7.7,5.3-14.9,8.2-21.6c2.9-6.7,5.9-13,8.8-18.8c2.9-5.8,5.6-11.2,8.3-16c5.4-9.6,10.6-16.8,14.4-21.5
										c1.9-2.4,3.4-4.2,4.4-5.4c0.5-0.6,0.9-1,1.2-1.4c0.3-0.3,0.4-0.5,0.4-0.4c0,0-0.1,0.2-0.4,0.5c-0.3,0.4-0.7,0.8-1.1,1.4
										c-1,1.2-2.5,3.1-4.3,5.5c-3.7,4.8-8.8,12-14.1,21.6c-2.7,4.8-5.4,10.2-8.2,16c-2.8,5.8-5.8,12.1-8.7,18.8
										c-2.9,6.7-5.7,13.9-8.1,21.5c-1.2,3.8-2.2,7.8-3.2,11.8c-1,4-2,8.1-3.1,12.3c-4.1,16.6-7.5,32.5-9.5,47.2"/>
								</g>
							</g>
						</g>
					</g>
				</g>
			</g>
		</g>
		<g id="XMLID_921_">
			<g id="XMLID_922_">
				<g id="XMLID_923_">
					<g id="XMLID_924_">
						<g id="XMLID_926_">
							<g id="XMLID_927_">
								<g id="XMLID_928_">
									<path id="XMLID_1571_" class="st5" d="M1675.3,470.4c-0.1,0-0.3-0.7-0.7-1.9c-0.4-1.3-0.9-3.1-1.6-5.4
										c-1.2-4.6-2.8-11-4.4-18c-1.7-7-3.3-13.4-4.6-17.9c-0.6-2.3-1.2-4.1-1.6-5.4c-0.4-1.3-0.6-2-0.5-2c0.1,0,0.3,0.7,0.8,1.9
										c0.5,1.2,1.1,3,1.8,5.3c1.5,4.5,3.2,10.9,4.8,17.9c1.6,7,3.1,13.3,4.2,18.1c0.5,2.2,1,4,1.3,5.5
										C1675.2,469.7,1675.3,470.4,1675.3,470.4z"/>
								</g>
							</g>
						</g>
					</g>
				</g>
			</g>
		</g>
		<g id="XMLID_914_">
			<g id="XMLID_915_">
				<g id="XMLID_916_">
					<g id="XMLID_917_">
						<g id="XMLID_918_">
							<g id="XMLID_919_">
								<g id="XMLID_920_">
									<path id="XMLID_1563_" class="st5" d="M1730.1,451.4c0,0.1-0.8,0.3-2.2,0.6c-1.4,0.3-3.5,0.8-6,1.5c-5.1,1.3-12,3.4-19.6,6
										c-7.6,2.7-14.3,5.4-19.2,7.5c-2.4,1-4.4,1.9-5.7,2.6c-1.3,0.6-2.1,0.9-2.1,0.9c0-0.1,0.7-0.5,2-1.2
										c1.3-0.7,3.2-1.7,5.6-2.8c4.8-2.3,11.5-5.1,19.1-7.8c7.6-2.6,14.6-4.6,19.7-5.8c2.6-0.6,4.7-1,6.1-1.2
										C1729.3,451.5,1730.1,451.4,1730.1,451.4z"/>
								</g>
							</g>
						</g>
					</g>
				</g>
			</g>
		</g>
		<g id="XMLID_906_">
			<g id="XMLID_907_">
				<g id="XMLID_908_">
					<g id="XMLID_909_">
						<g id="XMLID_910_">
							<g id="XMLID_911_">
								<g id="XMLID_913_">
									<path id="XMLID_1555_" class="st5" d="M1659.7,540.8c0,0-0.2-0.2-0.5-0.7c-0.3-0.6-0.8-1.2-1.3-2c-1.1-1.8-2.6-4.4-4.4-7.7
										c-3.6-6.5-8.4-15.7-13.6-25.9c-5.1-10.2-9.8-19.4-13.3-26c-1.7-3.2-3.1-5.8-4.2-7.8c-0.5-0.9-0.8-1.6-1.1-2.1
										c-0.2-0.5-0.4-0.8-0.3-0.8c0,0,0.2,0.2,0.5,0.7c0.3,0.6,0.8,1.2,1.3,2c1.1,1.8,2.6,4.4,4.4,7.7c3.6,6.5,8.4,15.7,13.6,25.9
										c5.1,10.2,9.8,19.4,13.3,26c1.7,3.2,3.1,5.8,4.2,7.8c0.5,0.9,0.8,1.6,1.1,2.1C1659.7,540.5,1659.8,540.8,1659.7,540.8z"/>
								</g>
							</g>
						</g>
					</g>
				</g>
			</g>
		</g>
		<g id="XMLID_898_">
			<g id="XMLID_899_">
				<g id="XMLID_900_">
					<g id="XMLID_902_">
						<g id="XMLID_903_">
							<g id="XMLID_904_">
								<g id="XMLID_905_">
									<path id="XMLID_1547_" class="st5" d="M1731.1,504.6c0,0-0.2,0.2-0.7,0.4c-0.6,0.3-1.2,0.6-2.1,1.1c-1.9,1-4.5,2.3-7.6,3.9
										c-6.5,3.3-15.3,7.9-25.1,13.1c-9.8,5.1-18.7,9.7-25.2,12.8c-3.3,1.6-5.9,2.8-7.8,3.6c-0.9,0.4-1.6,0.7-2.1,0.9
										c-0.5,0.2-0.8,0.3-0.8,0.3c0,0,0.2-0.2,0.7-0.4c0.6-0.3,1.2-0.6,2.1-1.1c1.9-1,4.5-2.3,7.6-3.9c6.5-3.3,15.3-7.9,25.1-13.1
										c9.8-5.1,18.7-9.7,25.2-12.8c3.3-1.6,5.9-2.8,7.8-3.6c0.9-0.4,1.6-0.7,2.1-0.9C1730.9,504.7,1731.1,504.6,1731.1,504.6z"/>
								</g>
							</g>
						</g>
					</g>
				</g>
			</g>
		</g>
	</g>
	<g id="XMLID_893_">
		<g id="XMLID_894_">
			<g id="XMLID_895_">
				<path id="XMLID_896_" class="st7" d="M1730,588.5c0,0.2-126.9,0.3-283.4,0.3c-156.6,0-283.4-0.1-283.4-0.3
					c0-0.2,126.9-0.3,283.4-0.3C1603.1,588.2,1730,588.3,1730,588.5z"/>
			</g>
		</g>
	</g>
	<g id="XMLID_1452_">
		<g id="XMLID_808_">
			<g id="XMLID_809_">
				<g id="XMLID_810_">
					<g id="XMLID_864_">
						<g id="XMLID_886_">
							<g id="XMLID_887_">
								<g id="XMLID_889_">
									<g id="XMLID_890_">
										<g id="XMLID_891_">
											<g id="XMLID_892_">
												<path id="XMLID_1534_" class="st8" d="M1659.2,581.8h-429.8c-8,0-14.6-6.5-14.6-14.6V292.9c0-8,6.5-14.6,14.6-14.6
													h429.8c8,0,14.6,6.5,14.6,14.6v274.4C1673.7,575.3,1667.2,581.8,1659.2,581.8z"/>
											</g>
										</g>
									</g>
								</g>
							</g>
						</g>
						<g id="XMLID_880_">
							<g id="XMLID_881_">
								<g id="XMLID_882_">
									<g id="XMLID_883_">
										<g id="XMLID_884_">
											<g id="XMLID_885_">
												<path id="XMLID_1527_" class="st8" d="M1676.7,588.8h-462.4c-9.6,0-17.4-7.8-17.4-17.4v-9.1h497.2v9.1
													C1694.1,581,1686.3,588.8,1676.7,588.8z"/>
											</g>
										</g>
									</g>
								</g>
							</g>
						</g>
						<g id="XMLID_873_">
							<g id="XMLID_874_">
								<g id="XMLID_875_">
									<g id="XMLID_877_">
										<g id="XMLID_878_">
											<g id="XMLID_879_">
												<rect id="XMLID_1520_" x="1227.1" y="290.4" class="st7" width="433" height="256.3"/>
											</g>
										</g>
									</g>
								</g>
							</g>
						</g>
						<g id="XMLID_866_">
							<g id="XMLID_867_">
								<g id="XMLID_868_">
									<g id="XMLID_869_">
										<g id="XMLID_870_">
											<g id="XMLID_871_">
												<polygon id="XMLID_872_" class="st7" points="1399,559.4 1405.2,569.2 1492,569.2 1497.7,559.4 												"/>
											</g>
										</g>
									</g>
								</g>
							</g>
						</g>
					</g>
					<g id="XMLID_819_">
						<g id="XMLID_820_">
							<g id="XMLID_821_">
								<g id="XMLID_857_">
									<g id="XMLID_858_">
										<g id="XMLID_859_">
											<g id="XMLID_860_">
												<g id="XMLID_861_">
													<g id="XMLID_862_">
														<g id="XMLID_863_">
															<path id="XMLID_1505_" class="st4" d="M1648.8,545.9h-409.5c-1.8,0-3.3-1.5-3.3-3.3V302.4c0-1.8,1.5-3.3,3.3-3.3
																h409.5c1.8,0,3.3,1.5,3.3,3.3v240.3C1652.1,544.4,1650.6,545.9,1648.8,545.9z"/>
														</g>
													</g>
												</g>
											</g>
										</g>
									</g>
								</g>
								<g id="XMLID_848_">
									<g id="XMLID_849_">
										<g id="XMLID_850_">
											<g id="XMLID_851_">
												<g id="XMLID_852_">
													<g id="XMLID_853_">
														<g id="XMLID_855_">
															<polygon id="XMLID_856_" class="st3" points="1651.7,546.2 1235.6,546.2 1236,317.5 1651.7,317.5 															"/>
														</g>
													</g>
												</g>
											</g>
										</g>
									</g>
								</g>
								<g id="XMLID_840_">
									<g id="XMLID_841_">
										<g id="XMLID_842_">
											<g id="XMLID_843_">
												<g id="XMLID_844_">
													<g id="XMLID_845_">
														<g id="XMLID_846_">
															<circle id="XMLID_847_" class="st7" cx="1266.8" cy="308.6" r="3.3"/>
														</g>
													</g>
												</g>
											</g>
										</g>
									</g>
								</g>
								<g id="XMLID_831_">
									<g id="XMLID_832_">
										<g id="XMLID_833_">
											<g id="XMLID_834_">
												<g id="XMLID_835_">
													<g id="XMLID_836_">
														<g id="XMLID_837_">
															<circle id="XMLID_838_" class="st7" cx="1246.7" cy="308.6" r="3.3"/>
														</g>
													</g>
												</g>
											</g>
										</g>
									</g>
								</g>
								<g id="XMLID_822_">
									<g id="XMLID_823_">
										<g id="XMLID_824_">
											<g id="XMLID_825_">
												<g id="XMLID_826_">
													<g id="XMLID_827_">
														<g id="XMLID_829_">
															<circle id="XMLID_830_" class="st7" cx="1256.4" cy="308.6" r="3.3"/>
														</g>
													</g>
												</g>
											</g>
										</g>
									</g>
								</g>
							</g>
						</g>
					</g>
					<g id="XMLID_811_">
						<g id="XMLID_812_">
							<g id="XMLID_814_">
								<g id="XMLID_815_">
									<g id="XMLID_816_">
										<g id="XMLID_817_">
											<path id="XMLID_818_" class="st7" d="M1669.8,559.4c0,0.2-101.9,0.3-227.5,0.3c-125.7,0-227.5-0.1-227.5-0.3
												c0-0.2,101.8-0.3,227.5-0.3C1567.9,559.1,1669.8,559.2,1669.8,559.4z"/>
										</g>
									</g>
								</g>
							</g>
						</g>
					</g>
				</g>
			</g>
		</g>
	</g>
	<g id="XMLID_1437_">
		<g id="XMLID_1444_">
			<g id="XMLID_804_">
				<g id="XMLID_805_">
					<path id="XMLID_806_" class="st9" d="M1607.8,416c-11.7,9.8-17.1,26.5-13.3,41.3c-10.8-2.1-22.6,1.4-30.4,9.2
						c-7.8,7.8-11.4,19.5-9.4,30.3c-11.9-8.2-30.1-5.1-38.7,6.5c-0.2-7.7-0.5-15.8-4.5-22.4c-4-6.6-13.2-10.6-19.7-6.4
						c4.9-5.5,5.6-14.3,1.7-20.6c-3.9-6.3-12.1-9.5-19.2-7.6c-0.2-9.2-6-74.6-10.9-129.8h-40.9c-4.7,54.2-10.3,116.5-10.5,125.5
						c-7.1-1.9-15.3,1.4-19.2,7.6c-3.9,6.3-3.2,15.1,1.7,20.6c-6.5-4.2-15.7-0.1-19.7,6.4c-4,6.6-4.3,14.7-4.5,22.4
						c-8.6-11.7-26.8-14.7-38.7-6.5c2.1-10.8-1.5-22.6-9.4-30.3c-7.8-7.8-19.6-11.3-30.4-9.2c3.8-14.8-1.6-31.5-13.3-41.3
						c-11.7-9.8-29.2-12.1-43-5.7v140.2h415.2V410.3C1637,403.9,1619.5,406.2,1607.8,416z"/>
				</g>
			</g>
			<g id="XMLID_1445_" class="st10">
				<g id="XMLID_800_">
					<g id="XMLID_801_">
						<path id="XMLID_803_" class="st11" d="M1607.8,416c-11.7,9.8-17.1,26.5-13.3,41.3c-10.8-2.1-22.6,1.4-30.4,9.2
							c-7.8,7.8-11.4,19.5-9.4,30.3c-11.9-8.2-30.1-5.1-38.7,6.5c-0.2-7.7-0.5-15.8-4.5-22.4c-4-6.6-13.2-10.6-19.7-6.4
							c4.9-5.5,5.6-14.3,1.7-20.6c-3.9-6.3-12.1-9.5-19.2-7.6c-0.2-9.2-6-74.6-10.9-129.8h-40.9c-4.7,54.2-10.3,116.5-10.5,125.5
							c-7.1-1.9-15.3,1.4-19.2,7.6c-3.9,6.3-3.2,15.1,1.7,20.6c-6.5-4.2-15.7-0.1-19.7,6.4c-4,6.6-4.3,14.7-4.5,22.4
							c-8.6-11.7-26.8-14.7-38.7-6.5c2.1-10.8-1.5-22.6-9.4-30.3c-7.8-7.8-19.6-11.3-30.4-9.2c3.8-14.8-1.6-31.5-13.3-41.3
							c-11.7-9.8-29.2-12.1-43-5.7v140.2h415.2V410.3C1637,403.9,1619.5,406.2,1607.8,416z"/>
					</g>
				</g>
			</g>
		</g>
		<g id="XMLID_1441_">
			<g id="XMLID_798_">
				<path id="XMLID_799_" class="st9" d="M1605.3,518.2c-14.8-10-33.9-13.5-51.3-9.5c-17.4,4-33,15.5-42,31
					c-3.6-4.9-8.5-8.9-13.9-11.7c0.4-1,0.7-2.1,1-3.2c2.5-10.7-2.2-22.7-11.2-29c-6.4-4.5-14.7-5.9-22.3-4.2l-12.3-175.1h-16.1
					v160.9c-10,1.5-16.9,13.3-13.4,22.8c-6.9,1-13.2,5.7-16.2,12.1c-1,2.1-1.1,6.4-0.3,11.4c-12.1,0.2-24.1,6.2-31.3,16
					c-9-15.5-24.6-27-42-31c-17.4-4-36.5-0.5-51.3,9.5c-4.2-20.4-27.1-35-47.4-30.1v58.4l187.3-0.2c1.2,0.3,2.5,0.5,4,0.5l45.8-0.5
					l180.4,0.2V488C1632.4,483.2,1609.6,497.7,1605.3,518.2z"/>
			</g>
		</g>
		<g id="XMLID_1438_" class="st12">
			<g id="XMLID_795_">
				<path id="XMLID_797_" class="st11" d="M1605.3,518.2c-14.8-10-33.9-13.5-51.3-9.5c-17.4,4-33,15.5-42,31
					c-3.6-4.9-8.5-8.9-13.9-11.7c0.4-1,0.7-2.1,1-3.2c2.5-10.7-2.2-22.7-11.2-29c-6.4-4.5-14.7-5.9-22.3-4.2l-12.3-175.1h-16.1
					v160.9c-10,1.5-16.9,13.3-13.4,22.8c-6.9,1-13.2,5.7-16.2,12.1c-1,2.1-1.1,6.4-0.3,11.4c-12.1,0.2-24.1,6.2-31.3,16
					c-9-15.5-24.6-27-42-31c-17.4-4-36.5-0.5-51.3,9.5c-4.2-20.4-27.1-35-47.4-30.1v58.4l187.3-0.2c1.2,0.3,2.5,0.5,4,0.5l45.8-0.5
					l180.4,0.2V488C1632.4,483.2,1609.6,497.7,1605.3,518.2z"/>
			</g>
		</g>
	</g>
	<g id="XMLID_1308_">
		<g id="XMLID_1419_">
			<g id="XMLID_785_">
				<g id="XMLID_791_">
					<g id="XMLID_792_">
						<g id="XMLID_793_">
							<g id="XMLID_794_">
								<path id="XMLID_1436_" class="st9" d="M1427.7,261.7c-9.2,4.4-13.4,17-8.6,26.1c1.9,3.6,5,6.7,5.4,10.7
									c0.6,6.2-5.2,11-7,16.9c-2.1,6.9,2.5,15.2,9.5,17c3.2,0.8,6.9,0.7,9.1,3.2c2.7,3.2,0.8,8.5,3.1,11.9c2.1,3.1,7,3.3,10.1,1.2
									c3.1-2.1,4.9-5.7,6.1-9.3c1.2-3.6,2.2-7.3,4.3-10.4c2.4-3.4,6-5.7,8.8-8.7c6.9-7.2,9-18.1,7.4-27.9
									c-1.5-9.9-6.3-18.9-11.7-27.3"/>
							</g>
						</g>
					</g>
				</g>
				<g id="XMLID_1426_" class="st13">
					<g id="XMLID_786_">
						<g id="XMLID_787_">
							<g id="XMLID_788_">
								<g id="XMLID_789_">
									<path id="XMLID_1431_" class="st11" d="M1427.7,261.7c-9.2,4.4-13.4,17-8.6,26.1c1.9,3.6,5,6.7,5.4,10.7
										c0.6,6.2-5.2,11-7,16.9c-2.1,6.9,2.5,15.2,9.5,17c3.2,0.8,6.9,0.7,9.1,3.2c2.7,3.2,0.8,8.5,3.1,11.9
										c2.1,3.1,7,3.3,10.1,1.2c3.1-2.1,4.9-5.7,6.1-9.3c1.2-3.6,2.2-7.3,4.3-10.4c2.4-3.4,6-5.7,8.8-8.7c6.9-7.2,9-18.1,7.4-27.9
										c-1.5-9.9-6.3-18.9-11.7-27.3"/>
								</g>
							</g>
						</g>
					</g>
				</g>
			</g>
			<g id="XMLID_780_">
				<g id="XMLID_781_">
					<g id="XMLID_782_">
						<g id="XMLID_783_">
							<path id="XMLID_1424_" class="st9" d="M1435.8,266.9c-7.8,3.4-11.3,14.3-6.8,21.6c2.7,4.5,7.9,8.5,6.7,13.6
								c-0.9,3.4-4.5,5.5-5.6,8.9c-1.4,4.5,2.9,9.3,7.5,9.8c4.7,0.6,9.2-1.9,12.8-5c12.3-10.8,15.3-32,7.6-46.4"/>
						</g>
					</g>
				</g>
			</g>
		</g>
		<g id="XMLID_1414_">
			<g id="XMLID_776_">
				<g id="XMLID_777_">
					<g id="XMLID_779_">
						<path id="XMLID_1418_" class="st14" d="M1476.1,198.1c0,0,40.2,26.6,35.8,72.6l-37-16.6L1476.1,198.1z"/>
					</g>
				</g>
			</g>
		</g>
		<g id="XMLID_1411_">
			<g id="XMLID_774_">
				<polygon id="XMLID_775_" class="st7" points="1409.3,253.1 1418.4,268.3 1465.8,268.3 1475,254 				"/>
			</g>
		</g>
		<g id="XMLID_1408_">
			<g id="XMLID_772_">
				<path id="XMLID_773_" class="st9" d="M1439.7,100.4c-18.7,1.3-33.2,17-32.8,35.8l2.4,117.8h65.7l2.2-117.9
					C1477.5,115.5,1460.2,99,1439.7,100.4z"/>
			</g>
		</g>
		<g id="XMLID_1405_">
			<g id="XMLID_770_">
				<path id="XMLID_771_" class="st15" d="M1439.7,100.4c-18.7,1.3-33.2,17-32.8,35.8l2.4,117.8h65.7l2.2-117.9
					C1477.5,115.5,1460.2,99,1439.7,100.4z"/>
			</g>
		</g>
		<g id="XMLID_1400_">
			<g id="XMLID_210_">
				<g id="XMLID_211_">
					<g id="XMLID_769_">
						<path id="XMLID_1404_" class="st14" d="M1408.2,198.1c0,0-40.2,26.6-35.8,72.6l37-16.6L1408.2,198.1z"/>
					</g>
				</g>
			</g>
		</g>
		<g id="XMLID_1395_">
			<g id="XMLID_207_">
				<g id="XMLID_208_">
					<g id="XMLID_209_">
						<path id="XMLID_1399_" class="st14" d="M1407.3,132.3c13.9-12.2,57.5-11.9,69.2-2c-3-43.7-36.4-60.1-36.4-60.1
							C1405.9,93.8,1407.3,132.3,1407.3,132.3z"/>
					</g>
				</g>
			</g>
		</g>
		<g id="XMLID_1389_">
			<g id="XMLID_205_">
				<g id="XMLID_227_">
					<g id="XMLID_228_">
						<g id="XMLID_206_">
							<path id="XMLID_1394_" class="st7" d="M1440,70.2c0,0,0.1,0.1,0.4,0.4c0.3,0.2,0.6,0.6,1.1,1.1c0.5,0.5,1.1,1.1,1.8,1.7
								c0.4,0.3,0.7,0.7,1.2,1.1c0.4,0.4,0.8,0.9,1.2,1.3c0.9,1,1.9,2,2.9,3.2c1,1.2,2.1,2.6,3.2,4c0.5,0.7,1.1,1.5,1.6,2.3
								c0.5,0.8,1.2,1.6,1.7,2.5c1.1,1.8,2.3,3.6,3.3,5.7c2.1,4.1,4.1,8.8,5.4,14.1c0.7,2.6,1.2,5.4,1.6,8.3
								c0.2,1.4,0.3,2.9,0.5,4.4c0.2,1.5,0.1,3,0.2,4.5c0,12.2-0.2,25.6-0.3,39.7c-0.3,28.2-0.7,53.7-1,72.2
								c-0.2,9.2-0.3,16.7-0.4,21.9c-0.1,2.6-0.1,4.6-0.1,5.9c0,0.7,0,1.2,0,1.5c0,0.3,0,0.5,0,0.5s0-0.2,0-0.5c0-0.4,0-0.9,0-1.5
								c0-1.4,0-3.4,0.1-5.9c0.1-5.2,0.2-12.6,0.3-21.9c0.2-18.5,0.6-44,0.9-72.2c0.2-14.1,0.3-27.5,0.3-39.7c0-1.5,0-3-0.1-4.5
								c-0.2-1.5-0.3-2.9-0.5-4.4c-0.4-2.9-0.9-5.6-1.6-8.2c-1.3-5.3-3.2-10-5.4-14c-1-2.1-2.2-3.9-3.3-5.7
								c-0.5-0.9-1.1-1.7-1.7-2.5c-0.6-0.8-1.1-1.6-1.6-2.3c-1.1-1.4-2.2-2.8-3.2-4c-1-1.2-2-2.2-2.9-3.2c-0.4-0.5-0.8-0.9-1.2-1.4
								c-0.4-0.4-0.8-0.8-1.1-1.1c-0.7-0.7-1.3-1.3-1.8-1.8c-0.5-0.5-0.8-0.8-1.1-1.1C1440.2,70.3,1440,70.2,1440,70.2z"/>
						</g>
					</g>
				</g>
			</g>
		</g>
		<g id="XMLID_1377_">
			<g id="XMLID_230_">
				<g id="XMLID_202_">
					<g id="XMLID_203_">
						<g id="XMLID_204_">
							
								<ellipse id="XMLID_1388_" transform="matrix(0.2156 -0.9765 0.9765 0.2156 974.3704 1530.1979)" class="st3" cx="1439.7" cy="158.6" rx="17.3" ry="16.1"/>
						</g>
					</g>
				</g>
			</g>
			<g id="XMLID_234_">
				<g id="XMLID_235_">
					<g id="XMLID_236_">
						<g id="XMLID_237_">
							<g id="XMLID_238_">
								<path id="XMLID_1383_" class="st7" d="M1443.4,141.7c0,0-0.1,0-0.3,0c-0.2,0-0.5-0.1-0.8-0.1c-0.2,0-0.4-0.1-0.6-0.1
									c-0.2,0-0.5,0-0.7,0c-0.3,0-0.5,0-0.8,0c-0.3,0-0.6,0-0.9,0c-0.7,0-1.4,0.2-2.2,0.3c-0.8,0.2-1.6,0.4-2.5,0.8
									c-1.7,0.7-3.6,1.8-5.3,3.4c-1.7,1.6-3.3,3.7-4.3,6.3c-0.2,0.7-0.5,1.3-0.7,2c-0.1,0.3-0.2,0.7-0.3,1
									c-0.1,0.4-0.1,0.7-0.2,1.1l-0.1,0.5l0,0.6c0,0.4-0.1,0.7-0.1,1.1c0,0.4,0,0.8,0,1.1l0,0.6l0.1,0.6c0.3,3.1,1.4,6.3,3.6,8.9
									c2,2.7,5.2,4.7,8.7,5.5c3.5,0.7,7.2,0.2,10.2-1.4c3-1.5,5.4-3.9,7-6.6l0.3-0.5l0.3-0.5c0.2-0.3,0.3-0.7,0.5-1
									c0.1-0.4,0.3-0.7,0.4-1.1l0.2-0.5l0.1-0.5c0.1-0.4,0.2-0.7,0.3-1.1c0.1-0.4,0.1-0.7,0.2-1.1c0.2-0.7,0.2-1.4,0.2-2.1
									c0.2-2.8-0.4-5.4-1.2-7.6c-0.9-2.2-2.1-4-3.4-5.3c-0.6-0.7-1.3-1.2-1.9-1.7c-0.7-0.5-1.3-0.9-1.9-1.2
									c-0.3-0.2-0.6-0.3-0.8-0.4c-0.3-0.1-0.5-0.2-0.8-0.3c-0.2-0.1-0.5-0.2-0.7-0.3c-0.2-0.1-0.4-0.1-0.6-0.2
									c-0.3-0.1-0.6-0.2-0.8-0.2C1443.5,141.7,1443.4,141.7,1443.4,141.7c0,0,0.1,0,0.3,0.1c0.2,0,0.4,0.1,0.8,0.2
									c0.2,0,0.4,0.1,0.6,0.2c0.2,0.1,0.4,0.2,0.7,0.3c0.2,0.1,0.5,0.2,0.8,0.3c0.3,0.1,0.5,0.3,0.8,0.4c0.6,0.3,1.2,0.7,1.9,1.2
									c0.6,0.5,1.3,1,2,1.7c1.3,1.4,2.6,3.2,3.5,5.4c0.9,2.2,1.5,4.8,1.3,7.7c-0.1,0.7-0.1,1.4-0.2,2.1c-0.1,0.4-0.1,0.7-0.2,1.1
									c-0.1,0.4-0.2,0.7-0.3,1.1l-0.1,0.5l-0.2,0.5c-0.1,0.4-0.3,0.7-0.4,1.1c-0.2,0.3-0.3,0.7-0.5,1.1l-0.3,0.5l-0.3,0.5
									c-1.6,2.7-4,5.2-7.1,6.8c-3.1,1.6-6.8,2.1-10.4,1.4c-3.6-0.8-6.8-2.9-8.8-5.6c-2.1-2.7-3.3-6-3.6-9.1l-0.1-0.6l0-0.6
									c0-0.4,0-0.8,0-1.2c0-0.4,0.1-0.8,0.1-1.1l0-0.6l0.1-0.6c0.1-0.4,0.1-0.7,0.2-1.1c0.1-0.4,0.2-0.7,0.3-1.1
									c0.2-0.7,0.4-1.4,0.7-2c1-2.6,2.7-4.8,4.4-6.4c1.8-1.6,3.7-2.7,5.4-3.4c0.9-0.4,1.7-0.6,2.5-0.7c0.8-0.1,1.5-0.3,2.2-0.3
									c0.3,0,0.6,0,0.9,0c0.3,0,0.6,0,0.8,0.1c0.3,0,0.5,0,0.7,0c0.2,0,0.4,0.1,0.6,0.1c0.3,0.1,0.6,0.1,0.8,0.1
									C1443.3,141.7,1443.4,141.7,1443.4,141.7z"/>
							</g>
						</g>
					</g>
				</g>
			</g>
		</g>
		<g id="XMLID_1374_">
			<g id="XMLID_239_">
				<path id="XMLID_240_" class="st5" d="M1409.3,253.1"/>
			</g>
		</g>
		<g id="XMLID_1370_">
			<g id="XMLID_241_">
				<g id="XMLID_242_">
					<path id="XMLID_243_" class="st7" d="M1423,156c0,0.2-3.7,0.1-8.2,0.9c-4.5,0.8-7.9,2.1-8,2c0-0.1,0.8-0.5,2.2-1.1
						c1.4-0.5,3.4-1.1,5.7-1.6c2.3-0.4,4.4-0.5,5.9-0.5C1422.1,155.8,1423,155.9,1423,156z"/>
				</g>
			</g>
		</g>
		<g id="XMLID_1366_">
			<g id="XMLID_244_">
				<g id="XMLID_245_">
					<path id="XMLID_246_" class="st7" d="M1476.1,156c0,0.1-1.1,0-2.9-0.3c-1.8-0.2-4.3-0.5-7.1-0.7c-2.8-0.2-5.3-0.3-7.1-0.3
						c-1.8,0-3,0-3-0.1c0-0.1,1.1-0.2,3-0.3c1.8-0.1,4.4-0.1,7.2,0.1c2.8,0.2,5.3,0.6,7.1,0.9C1475,155.6,1476.1,155.9,1476.1,156z"
						/>
				</g>
			</g>
		</g>
		<g id="XMLID_1362_">
			<g id="XMLID_247_">
				<g id="XMLID_248_">
					<path id="XMLID_201_" class="st7" d="M1476.5,223.4c0,0-0.2,0-0.7,0c-0.5,0-1.2-0.1-2-0.1c-1.8-0.1-4.3-0.3-7.3-0.6
						c-6.2-0.4-14.7-0.9-24.1-0.8c-9.4,0-17.9,0.4-24.1,0.9c-3,0.2-5.5,0.4-7.3,0.6c-0.8,0.1-1.5,0.1-2,0.2c-0.5,0-0.7,0-0.7,0
						c0,0,0.2-0.1,0.7-0.1c0.5-0.1,1.2-0.2,2-0.3c1.7-0.2,4.2-0.5,7.3-0.8c6.2-0.6,14.7-1.1,24.1-1.1c9.4,0,18,0.5,24.1,1
						c3.1,0.3,5.6,0.5,7.3,0.8c0.8,0.1,1.4,0.2,2,0.3C1476.3,223.3,1476.5,223.4,1476.5,223.4z"/>
				</g>
			</g>
		</g>
		<g id="XMLID_1358_">
			<g id="XMLID_250_">
				<g id="XMLID_251_">
					<path id="XMLID_200_" class="st7" d="M1424.8,172.9c0,0.1-0.4,0.1-0.7,0.6c-0.1,0.2-0.2,0.5-0.1,0.8c0.1,0.3,0.4,0.5,0.7,0.5
						c0.4,0,0.7-0.1,0.8-0.4c0.1-0.3,0.1-0.6,0-0.8c-0.2-0.5-0.6-0.6-0.6-0.7c0-0.1,0.6-0.2,1,0.5c0.2,0.3,0.4,0.8,0.1,1.3
						c-0.2,0.5-0.8,0.9-1.4,0.8c-0.6,0-1.2-0.5-1.3-1c-0.1-0.6,0.1-1,0.4-1.3C1424.3,172.6,1424.8,172.8,1424.8,172.9z"/>
				</g>
			</g>
		</g>
		<g id="XMLID_1354_">
			<g id="XMLID_199_">
				<g id="XMLID_254_">
					<path id="XMLID_255_" class="st7" d="M1439.1,180.6c0,0.1-0.4,0.1-0.7,0.6c-0.1,0.2-0.2,0.5-0.1,0.8c0.1,0.3,0.4,0.5,0.7,0.5
						c0.4,0,0.7-0.1,0.8-0.4c0.1-0.3,0.1-0.6,0-0.8c-0.2-0.5-0.6-0.6-0.6-0.7c0-0.1,0.6-0.2,1,0.5c0.2,0.3,0.4,0.8,0.1,1.3
						c-0.2,0.5-0.8,0.9-1.4,0.8c-0.6,0-1.2-0.5-1.3-1c-0.1-0.6,0.1-1,0.4-1.3C1438.6,180.4,1439.1,180.5,1439.1,180.6z"/>
				</g>
			</g>
		</g>
		<g id="XMLID_1350_">
			<g id="XMLID_256_">
				<g id="XMLID_257_">
					<path id="XMLID_258_" class="st7" d="M1454.9,174c0,0.1-0.4,0.1-0.7,0.6c-0.1,0.2-0.2,0.5-0.1,0.8c0.1,0.3,0.4,0.5,0.7,0.5
						c0.4,0,0.7-0.1,0.8-0.4c0.1-0.3,0.1-0.6,0-0.8c-0.2-0.5-0.6-0.6-0.6-0.7c0-0.1,0.6-0.2,1,0.5c0.2,0.3,0.4,0.8,0.1,1.3
						c-0.2,0.5-0.8,0.9-1.4,0.8c-0.6,0-1.2-0.5-1.3-1c-0.1-0.6,0.1-1,0.4-1.3C1454.4,173.8,1454.9,174,1454.9,174z"/>
				</g>
			</g>
		</g>
		<g id="XMLID_1346_">
			<g id="XMLID_259_">
				<g id="XMLID_260_">
					<path id="XMLID_261_" class="st7" d="M1460,162.2c0,0.1-0.4,0.1-0.7,0.6c-0.1,0.2-0.2,0.5-0.1,0.8c0.1,0.3,0.4,0.5,0.7,0.5
						c0.4,0,0.7-0.1,0.8-0.4c0.1-0.3,0.1-0.6,0-0.8c-0.2-0.5-0.6-0.6-0.6-0.7c0-0.1,0.6-0.2,1,0.5c0.2,0.3,0.4,0.8,0.1,1.3
						c-0.2,0.5-0.8,0.9-1.4,0.8c-0.6,0-1.2-0.5-1.3-1c-0.1-0.6,0.1-1,0.4-1.3C1459.5,162,1460.1,162.2,1460,162.2z"/>
				</g>
			</g>
		</g>
		<g id="XMLID_1342_">
			<g id="XMLID_262_">
				<g id="XMLID_263_">
					<path id="XMLID_197_" class="st7" d="M1419.6,161.1c0,0.1-0.4,0.1-0.7,0.6c-0.1,0.2-0.2,0.5-0.1,0.8c0.1,0.3,0.4,0.5,0.7,0.5
						c0.4,0,0.7-0.1,0.8-0.4c0.1-0.3,0.1-0.6,0-0.8c-0.2-0.5-0.6-0.6-0.6-0.7c0-0.1,0.6-0.2,1,0.5c0.2,0.3,0.4,0.8,0.1,1.3
						c-0.2,0.5-0.8,0.9-1.4,0.8c-0.6,0-1.2-0.5-1.3-1c-0.1-0.6,0.1-1,0.4-1.3C1419.1,160.8,1419.6,161,1419.6,161.1z"/>
				</g>
			</g>
		</g>
		<g id="XMLID_1338_">
			<g id="XMLID_265_">
				<g id="XMLID_266_">
					<path id="XMLID_267_" class="st7" d="M1454.9,144.9c0-0.1,0.4-0.1,0.7-0.6c0.1-0.2,0.2-0.5,0.1-0.8c-0.1-0.3-0.4-0.5-0.7-0.5
						c-0.4,0-0.7,0.1-0.8,0.4c-0.1,0.3-0.1,0.6,0,0.8c0.2,0.5,0.6,0.6,0.6,0.7c0,0.1-0.6,0.2-1-0.5c-0.2-0.3-0.4-0.8-0.1-1.3
						c0.2-0.5,0.8-0.9,1.4-0.8c0.6,0,1.2,0.5,1.3,1c0.1,0.6-0.1,1-0.4,1.3C1455.4,145.2,1454.8,145,1454.9,144.9z"/>
				</g>
			</g>
		</g>
		<g id="XMLID_1334_">
			<g id="XMLID_194_">
				<g id="XMLID_195_">
					<path id="XMLID_196_" class="st7" d="M1439.1,137.9c0-0.1,0.4-0.1,0.7-0.6c0.1-0.2,0.2-0.5,0.1-0.8c-0.1-0.3-0.4-0.5-0.7-0.5
						c-0.4,0-0.7,0.1-0.8,0.4c-0.1,0.3-0.1,0.6,0,0.8c0.2,0.5,0.6,0.6,0.6,0.7c0,0.1-0.6,0.2-1-0.5c-0.2-0.3-0.4-0.8-0.1-1.3
						c0.2-0.5,0.8-0.9,1.4-0.8c0.6,0,1.2,0.5,1.3,1c0.1,0.6-0.1,1-0.4,1.3C1439.6,138.2,1439,138,1439.1,137.9z"/>
				</g>
			</g>
		</g>
		<g id="XMLID_1330_">
			<g id="XMLID_191_">
				<g id="XMLID_192_">
					<path id="XMLID_193_" class="st7" d="M1423.5,144.9c0-0.1,0.4-0.1,0.7-0.6c0.1-0.2,0.2-0.5,0.1-0.8c-0.1-0.3-0.4-0.5-0.7-0.5
						c-0.4,0-0.7,0.1-0.8,0.4c-0.1,0.3-0.1,0.6,0,0.8c0.2,0.5,0.6,0.6,0.6,0.7c0,0.1-0.6,0.2-1-0.5c-0.2-0.3-0.4-0.8-0.1-1.3
						c0.2-0.5,0.8-0.9,1.4-0.8c0.6,0,1.2,0.5,1.3,1c0.1,0.6-0.1,1-0.4,1.3C1424,145.2,1423.4,145,1423.5,144.9z"/>
				</g>
			</g>
		</g>
		<g id="XMLID_1317_">
			<g id="XMLID_185_">
				<g id="XMLID_186_">
					<g id="XMLID_188_">
						<g id="XMLID_189_">
							<g id="XMLID_190_">
								<path id="XMLID_1329_" class="st9" d="M1437.1,202.9l1.4,70.3c0,2,1.7,3.7,3.8,3.6l0,0c2,0,3.6-1.6,3.6-3.6
									c0.1-12.7,0.6-55.4,0.7-70.4c0-2.9-2.6-5.1-5.4-4.7l0,0C1438.8,198.5,1437,200.5,1437.1,202.9z"/>
							</g>
						</g>
					</g>
				</g>
			</g>
			<g id="XMLID_180_" class="st13">
				<g id="XMLID_181_">
					<g id="XMLID_182_">
						<g id="XMLID_183_">
							<g id="XMLID_184_">
								<path id="XMLID_1323_" d="M1437.1,202.9l1.4,70.3c0,2,1.7,3.7,3.8,3.6l0,0c2,0,3.6-1.6,3.6-3.6c0.1-12.7,0.6-55.4,0.7-70.4
									c0-2.9-2.6-5.1-5.4-4.7l0,0C1438.8,198.5,1437,200.5,1437.1,202.9z"/>
							</g>
						</g>
					</g>
				</g>
			</g>
		</g>
		<g id="XMLID_1313_">
			<g id="XMLID_178_">
				<g id="XMLID_179_">
					<path id="XMLID_286_" class="st11" d="M1439.3,74.2c0.2,0.2-2.1,2.5-5.5,6.5c-1.7,2-3.6,4.4-5.6,7.2c-2,2.8-4,6-5.9,9.5
						c-1.9,3.5-3.4,7-4.7,10.2c-1.2,3.2-2.2,6.2-2.9,8.7c-1.4,5-2,8.2-2.4,8.2c-0.2,0-0.1-3.3,1-8.5c0.5-2.6,1.4-5.7,2.6-9
						c1.2-3.3,2.7-6.9,4.7-10.5c1.9-3.6,4.1-6.8,6.2-9.6c2.1-2.8,4.2-5.2,6.1-7.1C1436.4,75.9,1439.1,74,1439.3,74.2z"/>
				</g>
			</g>
		</g>
		<g id="XMLID_1309_">
			<g id="XMLID_287_">
				<g id="XMLID_288_">
					<path id="XMLID_289_" class="st11" d="M1406.6,205.1c0.2,0.3-3.1,2.5-7.8,6.8c-0.6,0.5-1.2,1.1-1.8,1.7
						c-0.6,0.6-1.2,1.3-1.8,1.9c-1.3,1.3-2.5,2.9-3.9,4.5c-2.6,3.3-5.1,7.1-7.4,11.3c-2.2,4.3-3.9,8.5-5.2,12.5
						c-0.6,2-1.2,3.9-1.5,5.7c-0.2,0.9-0.4,1.8-0.6,2.6c-0.1,0.8-0.3,1.7-0.4,2.4c-0.9,6.3-0.8,10.2-1.2,10.2c-0.1,0-0.3-1-0.4-2.8
						c0-0.5-0.1-1-0.1-1.5c0-0.5,0-1.1,0-1.8c0-1.3,0-2.7,0.2-4.3c0.1-0.8,0.2-1.6,0.3-2.5c0.1-0.9,0.3-1.8,0.5-2.7
						c0.3-1.9,0.8-3.8,1.4-5.9c1.2-4.1,2.9-8.5,5.2-12.9c2.3-4.4,5-8.2,7.7-11.6c1.4-1.6,2.7-3.2,4.1-4.5c0.7-0.7,1.3-1.3,2-1.9
						c0.7-0.6,1.3-1.1,1.9-1.7c1.2-1.1,2.4-1.9,3.4-2.7c0.5-0.4,1-0.7,1.5-1c0.5-0.3,0.9-0.5,1.3-0.8
						C1405.7,205.4,1406.6,204.9,1406.6,205.1z"/>
				</g>
			</g>
		</g>
	</g>
	<g id="XMLID_1300_">
		<g id="XMLID_187_">
			<g id="XMLID_290_">
				<path id="XMLID_291_" class="st9" d="M1354.9,434.4c-3.2-1.8-5-5.7-4.4-9.4c0.6-3.6,3.6-6.7,7.2-7.4c3.3-0.6,7.4,0.3,9.5-2.4
					c1.9-2.4,0.5-5.6,1.3-9.4c0.8-3.7,4.1-5.7,7.8-5.6c3.6,0.1,7,2.4,8.8,5.6c1.8,3.2,3,8,2.5,11.7c-1,8.3-5.4,12.6-10.9,16.1
					C1371.2,437.1,1360.7,437.9,1354.9,434.4"/>
			</g>
		</g>
		<g id="XMLID_292_" class="st10">
			<g id="XMLID_293_">
				<g id="XMLID_294_">
					<path id="XMLID_295_" class="st11" d="M1354.9,434.4c-3.2-1.8-5-5.7-4.4-9.4c0.6-3.6,3.6-6.7,7.2-7.4c3.3-0.6,7.4,0.3,9.5-2.4
						c1.9-2.4,0.5-5.6,1.3-9.4c0.8-3.7,4.1-5.7,7.8-5.6c3.6,0.1,7,2.4,8.8,5.6c1.8,3.2,3,8,2.5,11.7c-1,8.3-5.4,12.6-10.9,16.1
						C1371.2,437.1,1360.7,437.9,1354.9,434.4"/>
				</g>
			</g>
		</g>
	</g>
	<g id="XMLID_1292_">
		<g id="XMLID_296_">
			<g id="XMLID_297_">
				<path id="XMLID_298_" class="st9" d="M1489.8,367.8c2.7-5.1,8.6-8.2,14.3-7.5c5.7,0.7,10.7,5.2,12,10.8c1.2,5.1,0,11.6,4.2,14.7
					c3.9,2.8,8.7,0.4,14.8,1.4c5.9,1,9.1,6.1,9.2,11.8c0.1,5.7-3.4,11.1-8.2,14.1c-4.8,3-12.4,5.1-18,4.7c-13-1-19.9-7.7-25.8-16.1
					S1484.7,377.1,1489.8,367.8"/>
			</g>
		</g>
		<g id="XMLID_1293_" class="st10">
			<g id="XMLID_169_">
				<g id="XMLID_170_">
					<path id="XMLID_171_" class="st11" d="M1489.8,367.8c2.7-5.1,8.6-8.2,14.3-7.5c5.7,0.7,10.7,5.2,12,10.8
						c1.2,5.1,0,11.6,4.2,14.7c3.9,2.8,8.7,0.4,14.8,1.4c5.9,1,9.1,6.1,9.2,11.8c0.1,5.7-3.4,11.1-8.2,14.1c-4.8,3-12.4,5.1-18,4.7
						c-13-1-19.9-7.7-25.8-16.1S1484.7,377.1,1489.8,367.8"/>
				</g>
			</g>
		</g>
	</g>
	<g id="XMLID_1284_">
		<g id="XMLID_299_">
			<g id="XMLID_155_">
				<path id="XMLID_156_" class="st9" d="M1392.6,350.8c-2.2,1-4.9,4.2-4.8,7.9c0.2,4.8,5.2,8.8,9.9,8c4.7-0.8,8-6.3,6.5-10.9
					C1402.8,351.2,1396.9,348.7,1392.6,350.8"/>
			</g>
		</g>
		<g id="XMLID_151_" class="st10">
			<g id="XMLID_152_">
				<g id="XMLID_153_">
					<path id="XMLID_154_" class="st11" d="M1392.6,350.8c-2.2,1-4.9,4.2-4.8,7.9c0.2,4.8,5.2,8.8,9.9,8c4.7-0.8,8-6.3,6.5-10.9
						C1402.8,351.2,1396.9,348.7,1392.6,350.8"/>
				</g>
			</g>
		</g>
	</g>
	<g id="XMLID_1276_">
		<g id="XMLID_146_">
			<g id="XMLID_147_">
				<path id="XMLID_311_" class="st9" d="M1520.4,451.6c-1.1,0.5-2.4,2.1-2.4,3.9c0.1,2.4,2.6,4.4,4.9,4c2.4-0.4,4-3.2,3.3-5.4
					C1525.5,451.8,1522.6,450.6,1520.4,451.6"/>
			</g>
		</g>
		<g id="XMLID_312_" class="st10">
			<g id="XMLID_313_">
				<g id="XMLID_143_">
					<path id="XMLID_315_" class="st11" d="M1520.4,451.6c-1.1,0.5-2.4,2.1-2.4,3.9c0.1,2.4,2.6,4.4,4.9,4c2.4-0.4,4-3.2,3.3-5.4
						C1525.5,451.8,1522.6,450.6,1520.4,451.6"/>
				</g>
			</g>
		</g>
	</g>
	<g id="XMLID_142_">
		<g id="XMLID_316_">
			<g id="XMLID_317_">
				<path id="XMLID_1275_" class="st9" d="M1491,469.5h-82.7c-10.9,0-19.7-8.8-19.7-19.7v-11.3c0-10.9,8.8-19.7,19.7-19.7h82.7
					c10.9,0,19.7,8.8,19.7,19.7v11.3C1510.7,460.7,1501.9,469.5,1491,469.5z"/>
			</g>
		</g>
		<g id="XMLID_318_">
			<g id="XMLID_319_">
				<path id="XMLID_320_" class="st11" d="M1425,447.5l0.8-1.8c0.9,0.6,2.2,1.1,3.5,1.1c1.4,0,2-0.5,2-1.1c0-2-6.1-0.6-6.1-4.5
					c0-1.8,1.4-3.3,4.4-3.3c1.3,0,2.7,0.3,3.7,0.9l-0.8,1.9c-1-0.6-2-0.8-2.9-0.8c-1.4,0-2,0.5-2,1.2c0,1.9,6.1,0.6,6.1,4.5
					c0,1.8-1.5,3.3-4.5,3.3C1427.6,448.7,1426,448.2,1425,447.5z"/>
			</g>
			<g id="XMLID_322_">
				<path id="XMLID_323_" class="st11" d="M1437.5,440h-3.4v-2h9.2v2h-3.4v8.6h-2.4V440z"/>
			</g>
			<g id="XMLID_325_">
				<path id="XMLID_326_" class="st11" d="M1451,446.3h-4.9l-0.9,2.3h-2.5l4.7-10.5h2.4l4.7,10.5h-2.6L1451,446.3z M1450.3,444.4
					l-1.7-4l-1.7,4H1450.3z"/>
			</g>
			<g id="XMLID_329_">
				<path id="XMLID_330_" class="st11" d="M1462.3,448.5l-2-2.9h-0.1h-2.1v2.9h-2.4V438h4.6c2.8,0,4.6,1.5,4.6,3.8
					c0,1.6-0.8,2.7-2.2,3.3l2.4,3.4H1462.3z M1460,440h-2v3.7h2c1.5,0,2.2-0.7,2.2-1.8C1462.3,440.6,1461.5,440,1460,440z"/>
			</g>
			<g id="XMLID_333_">
				<path id="XMLID_334_" class="st11" d="M1468.7,440h-3.4v-2h9.2v2h-3.4v8.6h-2.4V440z"/>
			</g>
		</g>
	</g>
	<g id="XMLID_336_">
		<g id="XMLID_337_">
			<g id="XMLID_338_">
				<g id="XMLID_339_">
					<g id="XMLID_340_">
						<g id="XMLID_341_">
							<g id="XMLID_342_">
								<path id="XMLID_1253_" class="st9" d="M1634.4,564.9l14.2,5l-0.2,13.7c-6.8,1.9-7.8,5.4-7.8,5.4l14.2-0.3l12.4-25.2
									l-9.8-6.4l-18.3-8"/>
							</g>
						</g>
					</g>
					<g id="XMLID_140_" class="st12">
						<g id="XMLID_141_">
							<g id="XMLID_345_">
								<polygon id="XMLID_1249_" class="st11" points="1667.3,563.5 1654.9,588.6 1640.7,588.9 1642.2,586.8 1653.8,585.9 
									1665.2,562.1 								"/>
							</g>
						</g>
					</g>
				</g>
				<g id="XMLID_133_">
					<g id="XMLID_135_">
						<g id="XMLID_136_">
							<g id="XMLID_137_">
								<path id="XMLID_1244_" class="st7" d="M1648.4,577.3c0.1,0.1,0.9-0.3,2-0.3c1.1,0,1.9,0.4,2,0.3c0.1-0.1-0.7-0.9-2-0.9
									C1649,576.4,1648.2,577.2,1648.4,577.3z"/>
							</g>
						</g>
					</g>
				</g>
				<g id="XMLID_125_">
					<g id="XMLID_128_">
						<g id="XMLID_129_">
							<g id="XMLID_132_">
								<path id="XMLID_1239_" class="st7" d="M1648.5,573.9c0.1,0.1,0.8-0.8,1.9-1c1.1-0.3,2,0.3,2.1,0.1c0-0.1-0.1-0.3-0.5-0.5
									c-0.4-0.2-1-0.4-1.7-0.2c-0.7,0.2-1.2,0.6-1.5,0.9C1648.5,573.6,1648.5,573.9,1648.5,573.9z"/>
							</g>
						</g>
					</g>
				</g>
				<g id="XMLID_122_">
					<g id="XMLID_355_">
						<g id="XMLID_356_">
							<g id="XMLID_124_">
								<path id="XMLID_1234_" class="st7" d="M1648.3,569.6c0.2,0.1,0.6-0.8,1.6-1.1c1-0.4,1.9-0.1,1.9-0.2c0-0.1-0.1-0.3-0.5-0.4
									c-0.4-0.1-1-0.2-1.6,0c-0.6,0.2-1,0.7-1.2,1C1648.3,569.3,1648.3,569.6,1648.3,569.6z"/>
							</g>
						</g>
					</g>
				</g>
				<g id="XMLID_358_">
					<g id="XMLID_359_">
						<g id="XMLID_360_">
							<g id="XMLID_121_">
								<path id="XMLID_1229_" class="st7" d="M1647.3,569.6c0.2,0,0.1-0.9,0.5-1.9c0.4-1,1.1-1.5,1-1.7c0-0.2-1.1,0.2-1.6,1.4
									C1646.7,568.6,1647.1,569.7,1647.3,569.6z"/>
							</g>
						</g>
					</g>
				</g>
				<g id="XMLID_115_">
					<g id="XMLID_116_">
						<g id="XMLID_364_">
							<g id="XMLID_365_">
								<path id="XMLID_1224_" class="st7" d="M1645.6,568c0.1,0,0.2-0.7,0.3-1.9c0.1-0.7,0.1-1.4,0.2-2.1c0-0.4,0.1-0.8,0-1.3
									c-0.1-0.3-0.2-0.5-0.5-0.7c-0.3-0.2-0.7-0.2-1,0c-0.5,0.4-0.6,0.8-0.8,1.3c-0.2,0.4-0.2,0.9-0.3,1.3c0,0.8,0.1,1.6,0.4,2.2
									c0.5,1.2,1.2,1.6,1.2,1.5c0.1-0.1-0.5-0.6-0.8-1.7c-0.2-0.5-0.3-1.2-0.2-2c0-0.4,0.1-0.7,0.3-1.1c0.1-0.4,0.3-0.8,0.6-1
									c0.1-0.1,0.2-0.1,0.3,0c0.1,0.1,0.2,0.2,0.2,0.3c0.1,0.3,0,0.7,0,1.1c0,0.7,0,1.4-0.1,2.1
									C1645.5,567.2,1645.5,568,1645.6,568z"/>
							</g>
						</g>
					</g>
				</g>
				<g id="XMLID_366_">
					<g id="XMLID_367_">
						<g id="XMLID_368_">
							<g id="XMLID_113_">
								<path id="XMLID_1219_" class="st7" d="M1645.4,568.6c0.1,0-0.4-0.7-1.5-1c-1.1-0.3-2.9-0.3-4,1.4c-0.1,0.2,0,0.4,0.1,0.6
									c0.1,0.2,0.3,0.3,0.4,0.3c0.3,0.1,0.5,0.1,0.7,0.1c0.4,0,0.8,0,1.2,0c0.7-0.1,1.4-0.3,1.9-0.5
									C1645,569.1,1645.5,568.6,1645.4,568.6c0-0.2-0.5,0.2-1.5,0.5c-0.5,0.2-1.1,0.3-1.8,0.3c-0.3,0-0.7,0-1.1,0
									c-0.2,0-0.4,0-0.5-0.1c-0.1-0.1-0.1-0.1-0.1-0.1c0-0.1,0.1-0.2,0.3-0.3c0.1-0.1,0.3-0.2,0.4-0.3c0.3-0.2,0.6-0.3,0.9-0.4
									c0.6-0.2,1.2-0.2,1.7-0.1C1644.8,568.2,1645.3,568.7,1645.4,568.6z"/>
							</g>
						</g>
					</g>
				</g>
				<g id="XMLID_370_" class="st12">
					<g id="XMLID_371_">
						<g id="XMLID_112_">
							<circle id="XMLID_1214_" class="st11" cx="1657.6" cy="563.2" r="1.7"/>
						</g>
					</g>
				</g>
			</g>
		</g>
		<g id="XMLID_373_">
			<g id="XMLID_374_">
				<g id="XMLID_375_">
					<g id="XMLID_376_">
						<g id="XMLID_377_">
							<path id="XMLID_1208_" class="st9" d="M1561.5,559.2l0.2,18.6c0,0-18.9,6.4-19.2,9.9l36.1,0.9l0.9-29L1561.5,559.2z"/>
						</g>
					</g>
				</g>
				<g id="XMLID_378_" class="st12">
					<g id="XMLID_379_">
						<g id="XMLID_380_">
							<g id="XMLID_381_">
								<path id="XMLID_1204_" class="st11" d="M1572.9,576.6c0.7,0.2,1.2,1,1,1.7c-0.2,0.7-1,1.2-1.7,1c-0.7-0.2-1.3-1.1-1-1.8
									c0.3-0.7,1.2-1.2,1.9-0.8"/>
							</g>
						</g>
					</g>
				</g>
				<g id="XMLID_382_" class="st12">
					<g id="XMLID_383_">
						<g id="XMLID_384_">
							<path id="XMLID_1199_" class="st11" d="M1578.6,588.7l0-2.9l-34.6,0.2c0,0-1.6,0.7-1.5,1.8L1578.6,588.7z"/>
						</g>
					</g>
				</g>
				<g id="XMLID_385_">
					<g id="XMLID_386_">
						<g id="XMLID_387_">
							<g id="XMLID_388_">
								<path id="XMLID_1195_" class="st7" d="M1561.1,577.6c0,0.2,0.9,0.3,1.7,0.9c0.9,0.6,1.3,1.3,1.5,1.3c0.2,0-0.1-1.1-1.1-1.8
									C1562.1,577.3,1561,577.5,1561.1,577.6z"/>
							</g>
						</g>
					</g>
				</g>
				<g id="XMLID_389_">
					<g id="XMLID_390_">
						<g id="XMLID_110_">
							<g id="XMLID_392_">
								<path id="XMLID_1190_" class="st7" d="M1557.2,579.1c0,0.2,0.7,0.5,1.3,1.3c0.6,0.7,0.7,1.6,0.9,1.6c0.2,0,0.3-1-0.4-1.9
									C1558.3,579,1557.2,578.9,1557.2,579.1z"/>
							</g>
						</g>
					</g>
				</g>
				<g id="XMLID_84_">
					<g id="XMLID_90_">
						<g id="XMLID_395_">
							<g id="XMLID_108_">
								<path id="XMLID_1185_" class="st7" d="M1555,583.6c0.2,0,0.4-0.8,0-1.8c-0.4-1-1.2-1.4-1.3-1.2c-0.1,0.1,0.4,0.7,0.8,1.5
									C1554.8,582.8,1554.8,583.6,1555,583.6z"/>
							</g>
						</g>
					</g>
				</g>
				<g id="XMLID_81_">
					<g id="XMLID_398_">
						<g id="XMLID_82_">
							<g id="XMLID_83_">
								<path id="XMLID_1180_" class="st7" d="M1561.5,573.4c0.1,0.2,0.9-0.1,1.9,0c1,0.1,1.8,0.4,1.9,0.3c0.1-0.1-0.6-0.8-1.8-0.9
									C1562.3,572.7,1561.4,573.3,1561.5,573.4z"/>
							</g>
						</g>
					</g>
				</g>
			</g>
			<g id="XMLID_80_" class="st13">
				<g id="XMLID_402_">
					<g id="XMLID_403_">
						<polygon id="XMLID_1174_" points="1561.5,562.9 1561.5,566.2 1579.3,566.5 1579.4,563.5 						"/>
					</g>
				</g>
			</g>
			<g id="XMLID_404_">
				<g id="XMLID_405_">
					<g id="XMLID_406_">
						<g id="XMLID_407_">
							<path id="XMLID_1170_" class="st7" d="M1561.5,569.6c0,0.1,0.7,0.2,1.8,0c0.6-0.1,1.2-0.2,1.9-0.5c0.3-0.1,0.7-0.3,1.1-0.5
								c0.2-0.1,0.4-0.2,0.6-0.4c0.2-0.2,0.3-0.6,0.1-0.9c-0.2-0.3-0.5-0.4-0.8-0.4c-0.3,0-0.5,0-0.7,0.1c-0.4,0.1-0.8,0.2-1.1,0.4
								c-0.7,0.3-1.3,0.7-1.7,1.1c-0.9,0.8-1.2,1.4-1.1,1.4c0.1,0.1,0.5-0.5,1.4-1.1c0.4-0.3,1-0.6,1.6-0.9c0.3-0.1,0.7-0.2,1-0.3
								c0.4-0.1,0.7-0.1,0.8,0.1c0,0.1,0,0.1,0,0.2c-0.1,0.1-0.2,0.2-0.4,0.3c-0.3,0.2-0.7,0.4-1,0.5c-0.6,0.3-1.2,0.5-1.8,0.6
								C1562.2,569.5,1561.5,569.5,1561.5,569.6z"/>
						</g>
					</g>
				</g>
			</g>
			<g id="XMLID_408_">
				<g id="XMLID_409_">
					<g id="XMLID_410_">
						<g id="XMLID_411_">
							<path id="XMLID_1165_" class="st7" d="M1561.7,569.9c0.1,0,0.4-0.6,0.5-1.7c0-0.6,0-1.3-0.2-2c-0.1-0.4-0.2-0.7-0.4-1.1
								c-0.2-0.4-0.4-0.8-1.1-0.9c-0.4,0-0.7,0.2-0.8,0.5c-0.1,0.2-0.2,0.5-0.2,0.7c-0.1,0.4-0.1,0.8,0,1.2c0.1,0.8,0.4,1.4,0.7,1.9
								c0.7,1,1.4,1.2,1.4,1.1c0.1-0.1-0.5-0.4-1.1-1.4c-0.3-0.5-0.5-1-0.5-1.7c0-0.3,0-0.7,0.1-1c0.1-0.4,0.2-0.7,0.4-0.6
								c0.2,0,0.5,0.3,0.6,0.6c0.2,0.3,0.3,0.7,0.4,1c0.2,0.7,0.3,1.3,0.3,1.8C1561.9,569.2,1561.7,569.9,1561.7,569.9z"/>
						</g>
					</g>
				</g>
			</g>
		</g>
		<g id="XMLID_63_">
			<g id="XMLID_413_">
				<g id="XMLID_79_">
					<g id="XMLID_415_">
						<g id="XMLID_416_">
							<polygon id="XMLID_1159_" class="st16" points="1645.4,549.7 1603.8,534.3 1647.5,528.1 1649.7,506.8 1568,514 1556.4,530.6 
								1559.5,551.4 1639.1,571.7 							"/>
						</g>
					</g>
				</g>
				<g id="XMLID_417_">
					<g id="XMLID_418_">
						<g id="XMLID_419_">
							<path id="XMLID_420_" class="st16" d="M1557.2,564.6l-4-76.1c0.2-7.4,4.3-14.2,10.7-17.9l0,0c5.3-3.1,11.7-3.7,17.5-1.8
								l53,17.7l29.1,7.5c0,0,5,12.2,2,21.7c-2.9,9.3-13,15.5-22,12.8c-11.1-3.3-62.3-25.3-62.3-25.3v62L1557.2,564.6z"/>
						</g>
					</g>
				</g>
				<g id="XMLID_421_">
					<g id="XMLID_422_">
						<g id="XMLID_423_">
							<g id="XMLID_424_">
								<path id="XMLID_425_" class="st8" d="M1642.8,528.8c0,0-0.1,0-0.3-0.1c-0.2-0.1-0.5-0.2-0.9-0.4c-0.8-0.3-2-0.8-3.5-1.4
									c-3-1.2-7.4-3-12.8-5.2c-10.8-4.4-25.6-10.6-42-17.3c-0.7-0.3-1.5-0.6-2.1-0.9l0.3-0.2c0,17.2-0.1,32.7-0.1,43.9
									c0,5.6-0.1,10.1-0.1,13.2c0,1.5,0,2.7,0,3.6c0,0.4,0,0.7,0,0.9c0,0.2,0,0.3,0,0.3s0-0.1,0-0.3c0-0.2,0-0.5,0-0.9
									c0-0.8,0-2.1,0-3.6c0-3.1,0-7.7-0.1-13.2c0-11.2,0-26.7-0.1-43.9l0-0.4l0.3,0.1c0.7,0.3,1.4,0.6,2.1,0.9
									c16.4,6.8,31.2,13,42,17.5c5.3,2.2,9.7,4.1,12.7,5.3c1.5,0.6,2.6,1.1,3.4,1.5c0.4,0.2,0.7,0.3,0.9,0.4
									C1642.7,528.7,1642.8,528.8,1642.8,528.8z"/>
							</g>
						</g>
					</g>
				</g>
				<g id="XMLID_65_">
					<g id="XMLID_427_">
						<g id="XMLID_428_">
							<g id="XMLID_66_">
								<path id="XMLID_71_" class="st8" d="M1593.8,528.9c0-0.1,2.6,0.3,5.4,1.9c2.8,1.6,4.6,3.5,4.5,3.6c-0.1,0.1-2-1.7-4.8-3.2
									C1596.3,529.7,1593.8,529,1593.8,528.9z"/>
							</g>
						</g>
					</g>
				</g>
			</g>
			<g id="XMLID_431_">
				<g id="XMLID_432_">
					<g id="XMLID_433_">
						<g id="XMLID_434_">
							<path id="XMLID_435_" class="st8" d="M1576.7,493c0.1-0.1,1.5,2.2,2.8,5.1c1.3,3,2.1,5.5,2,5.5c-0.1,0-1.1-2.4-2.4-5.3
								C1577.7,495.4,1576.6,493.1,1576.7,493z"/>
						</g>
					</g>
				</g>
			</g>
		</g>
		<g id="XMLID_436_">
			<g id="XMLID_437_">
				<polygon id="XMLID_62_" class="st17" points="1576.8,459.5 1567.4,457.7 1557.6,467.8 1559.4,474.2 1570.9,469.9 				"/>
			</g>
		</g>
		<g id="XMLID_439_">
			<g id="XMLID_58_">
				<g id="XMLID_59_">
					<g id="XMLID_60_">
						<path id="XMLID_1131_" class="st17" d="M1490.1,436.5l10.7-2.4l17.2,2.7l-0.7,10.9c0,0-5.3,0.8-7.2,0.1
							c-1.9-0.6-3.5-0.1-3.5-0.1s1,2.2-0.8,2.5c-1.8,0.4-4.7,1.1-5.3-1.5c0,0-1.4,0.2-2-1.5c0,0-1.4,0.5-2-1.9
							c-0.6-2.4-0.3-6.1,4.6-7.3c0.3-0.1,0.4-0.6-0.1-0.6l-7.6,1.4C1493.3,439,1488.2,439.2,1490.1,436.5z"/>
					</g>
				</g>
			</g>
			<g id="XMLID_54_">
				<g id="XMLID_444_">
					<g id="XMLID_445_">
						<g id="XMLID_446_">
							<path id="XMLID_1127_" class="st18" d="M1499.2,444.2c0-0.1,0.7-0.2,1.8-0.3c0.6-0.1,1.2-0.2,2-0.2c0.4,0,0.9,0.2,1.2,0.6
								c0.3,0.4,0.3,1,0.1,1.5c-0.5,0.9-1.5,1.1-2.2,1.3c-0.7,0.2-1.4,0.3-2,0.4c-1.1,0.2-1.9,0.1-1.9,0.1c0-0.1,0.7-0.1,1.8-0.4
								c0.5-0.1,1.2-0.3,1.9-0.5c0.4-0.1,0.7-0.2,1.1-0.4c0.3-0.2,0.7-0.4,0.8-0.8c0.2-0.3,0.2-0.7,0-1c-0.2-0.3-0.5-0.4-0.9-0.4
								c-0.7,0-1.4,0.1-2,0.1C1499.9,444.2,1499.2,444.2,1499.2,444.2z"/>
						</g>
					</g>
				</g>
			</g>
			<g id="XMLID_13_">
				<g id="XMLID_49_">
					<g id="XMLID_50_">
						<g id="XMLID_53_">
							<path id="XMLID_1122_" class="st18" d="M1501.1,441.8c0,0.1-0.5,0.4-0.9,1c-0.4,0.6-0.5,1.3-0.6,1.3c-0.1,0-0.3-0.8,0.2-1.5
								C1500.2,441.8,1501,441.7,1501.1,441.8z"/>
						</g>
					</g>
				</g>
			</g>
			<g id="XMLID_11_">
				<g id="XMLID_12_">
					<g id="XMLID_453_">
						<g id="XMLID_454_">
							<path id="XMLID_1117_" class="st18" d="M1504,445.7c0,0,0.1,0,0.3,0c0.2,0.1,0.4,0.3,0.5,0.6c0.2,0.3,0.3,0.7,0.2,1.2
								c-0.1,0.5-0.7,0.8-1.1,0.9c-0.9,0.2-1.7,0.5-2.3,0.5c-0.6,0.1-1,0-1-0.1c0-0.1,0.4-0.1,0.9-0.3c0.6-0.1,1.4-0.4,2.3-0.6
								c0.4-0.1,0.7-0.3,0.8-0.6c0.1-0.3,0.1-0.7-0.1-0.9c-0.1-0.3-0.2-0.5-0.3-0.6C1504.1,445.8,1504,445.7,1504,445.7z"/>
						</g>
					</g>
				</g>
			</g>
			<g id="XMLID_455_">
				<g id="XMLID_456_">
					<g id="XMLID_457_">
						<g id="XMLID_458_">
							<path id="XMLID_1112_" class="st18" d="M1504.7,447.6c0,0,0.1-0.2,0.5-0.3c0.3,0,0.8,0.1,1.2,0.3c0.5,0.3,0.6,0.8,0.6,1.1
								c0,0.3,0,0.5-0.1,0.5c-0.1,0-0.1-0.2-0.2-0.4c-0.1-0.3-0.2-0.6-0.5-0.8c-0.4-0.2-0.7-0.4-1-0.4
								C1504.9,447.6,1504.7,447.6,1504.7,447.6z"/>
						</g>
					</g>
				</g>
			</g>
			<g id="XMLID_1098_">
				<g id="XMLID_460_">
					<g id="XMLID_461_">
						<g id="XMLID_462_">
							<path id="XMLID_1107_" class="st17" d="M1510,439.1l-4.8,1.9l-4.5,3.2c0,0,0,1.1,2.6,0.7c2.6-0.4,4.5-1.8,4.5-1.8
								s3.4,2.1,6.3,1.6"/>
						</g>
					</g>
				</g>
				<g id="XMLID_463_">
					<g id="XMLID_464_">
						<g id="XMLID_465_">
							<g id="XMLID_466_">
								<path id="XMLID_1103_" class="st18" d="M1514.1,444.7c0,0-0.2,0.1-0.5,0.1c-0.3,0-0.8,0.1-1.4,0c-1.2-0.1-2.8-0.6-4.6-1.6
									l0.2,0c-1.5,1-3.4,1.8-5.7,1.9c-0.3,0-0.7,0-1-0.2c-0.3-0.1-0.7-0.4-0.7-0.9l0-0.1l0.1-0.1c1.7-1.2,3.2-2.2,4.6-3.2l0,0l0,0
									c1.5-0.6,2.7-1,3.5-1.3c0.9-0.3,1.3-0.5,1.3-0.4c0,0-0.4,0.3-1.3,0.6c-0.8,0.4-2,0.9-3.5,1.5l0,0c-1.3,0.9-2.9,2-4.5,3.2
									l0.1-0.2c0,0.1,0.2,0.3,0.5,0.4c0.3,0.1,0.5,0.1,0.8,0.1c2.1-0.1,4-0.9,5.4-1.8l0.1-0.1l0.1,0.1c1.7,1,3.3,1.5,4.4,1.7
									C1513.4,444.8,1514,444.7,1514.1,444.7z"/>
							</g>
						</g>
					</g>
				</g>
			</g>
			<g id="XMLID_459_">
				<g id="XMLID_467_">
					<g id="XMLID_468_">
						<g id="XMLID_469_">
							<path id="XMLID_1097_" class="st18" d="M1503,438.8c0,0.1-0.6,0.1-1.1-0.2c-0.6-0.3-0.8-0.8-0.7-0.9c0.1-0.1,0.5,0.2,1,0.5
								C1502.6,438.5,1503,438.7,1503,438.8z"/>
						</g>
					</g>
				</g>
			</g>
		</g>
		<g id="XMLID_470_">
			<g id="XMLID_471_">
				<g id="XMLID_472_">
					<g id="XMLID_473_">
						<g id="XMLID_474_">
							<path id="XMLID_1091_" class="st7" d="M1517.1,450.6l40.7,5.9c4,1.3,8.4,0.9,12.2-1l36.3-18.6l-10.9-23.9l0,0
								c-1.5,0.6-3.3,1.3-4.1,1.7l-29.8,21.5l-43.3-1.5L1517.1,450.6z"/>
						</g>
					</g>
				</g>
				<g id="XMLID_475_">
					<g id="XMLID_476_">
						<g id="XMLID_477_">
							<g id="XMLID_478_">
								<polygon id="XMLID_479_" class="st17" points="1662.8,493.8 1660.2,489.3 1632.4,482.3 1635.7,488 								"/>
							</g>
						</g>
					</g>
					<g id="XMLID_480_">
						<g id="XMLID_481_">
							<g id="XMLID_482_">
								<path id="XMLID_483_" class="st7" d="M1595.4,413c0,1-4.1,31.1-4.1,37.2c0,6.2,11.8,12.8,11.8,12.8l12.9,27.4h46l-15.7-29.5
									l-7.1-23.6c-2.7-9-2.4-13.6-9.1-20.1l-12.9-8.6L1595.4,413z"/>
							</g>
						</g>
					</g>
					<g id="XMLID_484_">
						<g id="XMLID_485_">
							<g id="XMLID_486_">
								<path id="XMLID_487_" class="st7" d="M1608.7,436.8l7.7,32.4l-38.9-11l-6.6,11.7l50.7,23.1c6.2,2.8,13.6,0.8,17.6-4.8l0,0
									c2.4-3.4,3.2-7.7,2.1-11.7l-11.3-44.3c-1.6-6.1-8-9.6-13.9-7.6l0,0C1610.9,426.3,1607.8,431.5,1608.7,436.8z"/>
							</g>
						</g>
					</g>
					<g id="XMLID_488_">
						<g id="XMLID_489_">
							<g id="XMLID_490_">
								<g id="XMLID_491_">
									<path id="XMLID_492_" class="st7" d="M1603.8,464.6c0,0-0.9-1.6-1.2-1.7c-0.3-0.1-0.7-0.4-1.2-0.7
										c-1.1-0.6-2.6-1.5-4.3-2.8c-1.7-1.3-3.7-3.1-5-5.7c-1.2-2.7-1.2-6-0.7-9.3c0.5-3.3,1.1-6.3,1.5-9.2
										c0.4-2.8,0.7-5.4,0.9-7.5c0.2-2.1,0.2-3.9,0.2-5.1c0-1.2,0-1.9,0-1.9c0,0,0,0.2,0.1,0.5c0,0.3,0.1,0.8,0.1,1.4
										c0.1,1.2,0.1,3,0,5.1c-0.1,2.2-0.4,4.7-0.8,7.5c-0.4,2.8-1,5.9-1.5,9.2c-0.5,3.2-0.5,6.4,0.6,9c1.2,2.5,3.2,4.3,4.8,5.6
										c1.7,1.3,3.1,2.3,4.2,2.9C1602.5,462.7,1603.8,464.6,1603.8,464.6z"/>
								</g>
							</g>
						</g>
					</g>
					<g id="XMLID_493_">
						<g id="XMLID_494_">
							<g id="XMLID_495_">
								<g id="XMLID_496_">
									<path id="XMLID_497_" class="st7" d="M1619.3,410.7c0,0-0.2,0.3-0.7,0.8c-0.5,0.5-1.2,1.2-2.1,2c-1.8,1.7-4.3,3.9-7.2,6.2
										c-2.9,2.3-5.6,4.3-7.6,5.6c-1,0.7-1.8,1.2-2.4,1.6c-0.6,0.4-0.9,0.5-0.9,0.5c0,0,0.3-0.3,0.8-0.7c0.6-0.5,1.4-1,2.3-1.7
										c1.9-1.4,4.6-3.4,7.5-5.7c2.9-2.3,5.4-4.5,7.2-6c0.8-0.7,1.6-1.4,2.2-1.9C1619,410.9,1619.3,410.7,1619.3,410.7z"/>
								</g>
							</g>
						</g>
					</g>
					<g id="XMLID_498_">
						<g id="XMLID_499_">
							<g id="XMLID_500_">
								<g id="XMLID_501_">
									<path id="XMLID_502_" class="st7" d="M1608.7,436.8c0,0,0.1,0.2,0.2,0.6c0.1,0.4,0.3,1,0.5,1.8c0.4,1.6,1,3.9,1.7,6.8
										c1.4,5.8,3.4,13.9,5.6,23.2l0.1,0.4l-0.4-0.1c-3.1-0.9-6.5-1.8-9.9-2.8c-11.3-3.2-21.5-6.1-29-8.2l0.2-0.1
										c-2.1,3.6-3.7,6.5-4.9,8.5c-0.6,1-1,1.7-1.4,2.3c-0.1,0.2-0.3,0.4-0.4,0.6c-0.1,0.1-0.1,0.2-0.1,0.2c0,0,0-0.1,0.1-0.2
										c0.1-0.2,0.2-0.4,0.3-0.6c0.3-0.6,0.7-1.4,1.3-2.4c1.2-2.1,2.8-5,4.8-8.6l0.1-0.1l0.1,0c7.5,2.1,17.8,5,29,8.1
										c3.4,1,6.8,1.9,9.9,2.8l-0.3,0.3c-2.2-9.3-4.1-17.4-5.4-23.2c-0.7-2.9-1.2-5.2-1.5-6.8c-0.2-0.8-0.3-1.4-0.4-1.8
										C1608.7,437,1608.7,436.8,1608.7,436.8z"/>
								</g>
							</g>
						</g>
					</g>
					<g id="XMLID_503_">
						<g id="XMLID_504_">
							<g id="XMLID_505_">
								<g id="XMLID_506_">
									<path id="XMLID_507_" class="st7" d="M1630.1,434.8c0,0,0.1,0.2,0.2,0.6c0.1,0.4,0.3,1,0.5,1.6c0.4,1.5,0.9,3.5,1.6,6
										c1.3,5.1,3,12.1,5,19.7c1,3.9,1.9,7.5,2.7,10.9c0.8,3.4,1.1,6.5,0.7,9.1c-0.4,2.6-1.3,4.6-2.2,5.8
										c-0.9,1.2-1.6,1.7-1.6,1.7c0,0,0.6-0.6,1.4-1.8c0.8-1.2,1.7-3.1,2-5.7c0.3-2.6,0-5.7-0.8-9c-0.8-3.3-1.7-7-2.7-10.9
										c-1.9-7.7-3.6-14.7-4.9-19.8c-0.6-2.5-1.1-4.5-1.4-6c-0.1-0.7-0.3-1.2-0.4-1.6C1630.1,435,1630,434.8,1630.1,434.8z"/>
								</g>
							</g>
						</g>
					</g>
					<g id="XMLID_508_" class="st13">
						<g id="XMLID_509_">
							<g id="XMLID_510_">
								<g id="XMLID_511_">
									<path id="XMLID_512_" d="M1637.1,490.5c5.7,0.5,9-2.7,9.6-7.2c0.3-2.5-0.5-4.9-1.3-7.2c-3.5-10.2-7-20.6-12.6-29.9
										c2.1,9.3,4.8,18.2,6.9,27.5c0.7,3,0.9,4.8,0.9,7.9S1639.2,488.1,1637.1,490.5"/>
								</g>
							</g>
						</g>
					</g>
				</g>
			</g>
			<g id="XMLID_513_">
				<g id="XMLID_514_">
					<g id="XMLID_515_">
						<path id="XMLID_516_" class="st3" d="M1590.4,443.8c-0.1,0-1-0.9-2.3-2.5c-1.3-1.7-2.9-4.1-4.3-7.1c-1.4-2.9-2.2-5.8-2.6-7.8
							c-0.4-2.1-0.5-3.4-0.4-3.4c0.1,0,0.3,1.3,0.9,3.3c0.5,2,1.4,4.8,2.7,7.7c1.3,2.9,2.9,5.4,4.1,7.1
							C1589.6,442.8,1590.5,443.8,1590.4,443.8z"/>
					</g>
				</g>
			</g>
			<g id="XMLID_517_">
				<g id="XMLID_518_">
					<g id="XMLID_519_">
						<path id="XMLID_520_" class="st3" d="M1579.2,450.4c-0.1,0-0.8-0.9-1.8-2.6c-1-1.7-2.4-4-3.9-6.6c-1.4-2.6-2.6-5.1-3.5-6.8
							c-0.8-1.8-1.3-2.9-1.2-2.9c0.1,0,0.7,1,1.6,2.7c1,1.9,2.3,4.2,3.6,6.7c1.4,2.5,2.6,4.8,3.7,6.7
							C1578.7,449.3,1579.3,450.4,1579.2,450.4z"/>
					</g>
				</g>
			</g>
			<g id="XMLID_521_">
				<g id="XMLID_522_">
					<g id="XMLID_523_">
						
							<ellipse id="XMLID_524_" transform="matrix(0.1604 0.987 -0.987 0.1604 1752.6199 -1166.9818)" class="st3" cx="1562.3" cy="446.8" rx="9.8" ry="0.3"/>
					</g>
				</g>
			</g>
			<g id="XMLID_525_">
				<g id="XMLID_526_">
					<g id="XMLID_527_">
						<path id="XMLID_528_" class="st3" d="M1550.2,455.5c-0.1,0-0.2-1-0.3-2.7c-0.1-1.7-0.2-4.1-0.1-6.7c0.1-2.6,0.2-5,0.4-6.7
							c0.2-1.7,0.4-2.7,0.4-2.7c0.1,0,0.1,1.1,0,2.8c-0.1,1.7-0.2,4-0.2,6.6c-0.1,2.6-0.1,4.9-0.1,6.6
							C1550.3,454.5,1550.3,455.5,1550.2,455.5z"/>
					</g>
				</g>
			</g>
			<g id="XMLID_529_">
				<g id="XMLID_530_">
					<g id="XMLID_531_">
						<path id="XMLID_532_" class="st3" d="M1536.5,435.6c0.1,0,0.2,1,0.3,2.6c0.1,1.6,0.2,3.8,0.2,6.2c0,2.4-0.2,4.6-0.4,6.2
							c-0.2,1.6-0.4,2.6-0.4,2.5c-0.2,0,0.1-3.9,0.2-8.8C1536.5,439.6,1536.4,435.6,1536.5,435.6z"/>
					</g>
				</g>
			</g>
			<g id="XMLID_533_">
				<g id="XMLID_534_">
					<g id="XMLID_535_">
						
							<ellipse id="XMLID_536_" transform="matrix(8.973190e-002 -0.996 0.996 8.973190e-002 945.269 1923.004)" class="st3" cx="1524.7" cy="444.4" rx="7.3" ry="0.3"/>
					</g>
				</g>
			</g>
			<g id="XMLID_537_">
				<g id="XMLID_538_">
					<g id="XMLID_539_">
						<path id="XMLID_540_" class="st3" d="M1593,425.9c-0.2,0.1-0.9-1.9-2.1-4.2c-1.2-2.3-2.5-4-2.3-4.1c0.1-0.1,1.6,1.5,2.9,3.8
							C1592.7,423.8,1593.2,425.9,1593,425.9z"/>
					</g>
				</g>
			</g>
			<g id="XMLID_541_">
				<g id="XMLID_542_">
					<g id="XMLID_543_">
						<path id="XMLID_544_" class="st3" d="M1614.2,458.7c0,0-0.3,0.1-0.9,0.1c-0.6,0-1.5,0-2.6-0.1c-2.2-0.2-5.2-0.7-8.3-1.8
							c-3.1-1.2-5.7-2.7-7.5-4.1c-0.9-0.7-1.5-1.2-2-1.7c-0.4-0.4-0.7-0.7-0.6-0.7c0.1-0.1,1.1,0.8,2.9,2c1.8,1.2,4.4,2.7,7.4,3.8
							c3.1,1.1,6,1.7,8.1,2C1612.8,458.5,1614.2,458.6,1614.2,458.7z"/>
					</g>
				</g>
			</g>
			<g id="XMLID_545_">
				<g id="XMLID_546_">
					<g id="XMLID_547_">
						<path id="XMLID_548_" class="st3" d="M1609.8,443.3c0,0.1-1,0-2.5-0.3c-1.5-0.3-3.6-0.8-5.9-1.6c-2.2-0.8-4.2-1.7-5.6-2.4
							c-1.4-0.7-2.2-1.3-2.1-1.3c0.1-0.2,3.5,1.6,7.9,3.1C1606,442.4,1609.8,443.1,1609.8,443.3z"/>
					</g>
				</g>
			</g>
			<g id="XMLID_549_">
				<g id="XMLID_550_">
					<g id="XMLID_551_">
						<path id="XMLID_552_" class="st3" d="M1607.2,432.3c0,0.1-3,0.4-6.4-1c-3.4-1.3-5.4-3.6-5.3-3.7c0.1-0.2,2.3,1.8,5.5,3.1
							C1604.3,432,1607.2,432.1,1607.2,432.3z"/>
					</g>
				</g>
			</g>
			<g id="XMLID_553_">
				<g id="XMLID_554_">
					<g id="XMLID_555_">
						<path id="XMLID_556_" class="st3" d="M1625.2,424.4c-0.1,0.1-1-0.5-2.7-1c-1.7-0.5-4.2-0.7-6.8,0.2c-2.5,0.9-4.3,2.8-5.3,4.2
							c-1,1.5-1.3,2.6-1.4,2.5c-0.1,0,0.1-1.2,1-2.8c0.9-1.6,2.7-3.6,5.4-4.6c2.7-1,5.4-0.7,7.1-0.1
							C1624.4,423.6,1625.3,424.4,1625.2,424.4z"/>
					</g>
				</g>
			</g>
			<g id="XMLID_557_">
				<g id="XMLID_558_">
					<g id="XMLID_559_">
						<path id="XMLID_560_" class="st3" d="M1627.3,439.2c0,0.1-0.7,0.6-2,1.1c-1.3,0.6-3.2,1.3-5.4,1.7c-2.2,0.4-4.2,0.5-5.6,0.5
							c-1.4,0-2.3-0.2-2.3-0.3c0-0.2,3.6,0,7.8-0.9C1624.1,440.5,1627.3,439,1627.3,439.2z"/>
					</g>
				</g>
			</g>
			<g id="XMLID_561_">
				<g id="XMLID_562_">
					<g id="XMLID_563_">
						
							<ellipse id="XMLID_564_" transform="matrix(0.9953 -9.706603e-002 9.706603e-002 0.9953 -36.8339 159.9)" class="st3" cx="1625" cy="458.5" rx="8.5" ry="0.3"/>
					</g>
				</g>
			</g>
			<g id="XMLID_565_">
				<g id="XMLID_566_">
					<g id="XMLID_567_">
						<path id="XMLID_568_" class="st3" d="M1638.9,483.4c0,0-0.4,0-1-0.2c-0.6-0.2-1.5-0.4-2.5-0.9c-2.1-0.8-4.9-2.2-7.7-4.1
							c-2.9-1.9-5.3-3.8-7-5.2c-1.7-1.4-2.7-2.4-2.7-2.4c0.1-0.1,1.2,0.7,3,2.1c1.8,1.3,4.2,3.2,7.1,5.1c2.8,1.9,5.5,3.3,7.6,4.2
							C1637.6,482.8,1639,483.3,1638.9,483.4z"/>
					</g>
				</g>
			</g>
			<g id="XMLID_569_">
				<g id="XMLID_570_">
					<g id="XMLID_571_">
						<path id="XMLID_572_" class="st3" d="M1609.8,487.3c-0.1,0-0.2-1-0.2-2.7c0-1.7,0.2-4,0.9-6.5c0.6-2.5,1.5-4.7,2.2-6.2
							c0.8-1.5,1.4-2.4,1.4-2.3c0.2,0.1-1.9,3.7-3.1,8.7C1609.8,483.1,1610,487.3,1609.8,487.3z"/>
					</g>
				</g>
			</g>
			<g id="XMLID_573_">
				<g id="XMLID_574_">
					<g id="XMLID_575_">
						<path id="XMLID_576_" class="st3" d="M1595.1,479.4c-0.1,0-0.5-3.4,0.8-7.4c1.2-4,3.4-6.7,3.5-6.6c0.2,0.1-1.8,2.9-2.9,6.8
							C1595.3,476.1,1595.3,479.4,1595.1,479.4z"/>
					</g>
				</g>
			</g>
			<g id="XMLID_577_">
				<g id="XMLID_578_">
					<g id="XMLID_579_">
						<path id="XMLID_580_" class="st3" d="M1586.9,460.2c0.1,0.1-2.5,2.6-4.5,6.5c-2,3.9-2.4,7.5-2.6,7.4c-0.1,0-0.1-0.9,0.2-2.3
							c0.3-1.4,0.8-3.4,1.8-5.4c1-2,2.2-3.6,3.3-4.7C1586.2,460.7,1586.9,460.2,1586.9,460.2z"/>
					</g>
				</g>
			</g>
			<g id="XMLID_581_">
				<g id="XMLID_582_">
					<g id="XMLID_583_">
						<path id="XMLID_584_" class="st3" d="M1641,443.4c0.1,0.1-1.2,1.6-3.4,2.5c-2.2,0.9-4.2,0.7-4.2,0.5c0-0.2,1.9-0.2,4-1.1
							C1639.4,444.6,1640.8,443.3,1641,443.4z"/>
					</g>
				</g>
			</g>
			<g id="XMLID_585_">
				<g id="XMLID_586_">
					<g id="XMLID_587_">
						<path id="XMLID_588_" class="st3" d="M1635.4,426.6c0.1,0.1-0.6,1.6-2.3,3c-1.6,1.3-3.3,1.8-3.4,1.6c-0.1-0.2,1.4-0.8,3-2.1
							C1634.3,427.8,1635.3,426.5,1635.4,426.6z"/>
					</g>
				</g>
			</g>
			<g id="XMLID_589_">
				<g id="XMLID_590_">
					<g id="XMLID_591_">
						<path id="XMLID_592_" class="st3" d="M1615.8,415.3c0.1-0.1,1.4,0.9,2.4,2.7c1,1.8,1.2,3.5,1,3.5c-0.2,0-0.6-1.5-1.5-3.2
							C1616.8,416.7,1615.7,415.5,1615.8,415.3z"/>
					</g>
				</g>
			</g>
			<g id="XMLID_593_">
				<g id="XMLID_594_">
					<g id="XMLID_595_">
						<path id="XMLID_596_" class="st3" d="M1645,459.3c0.1,0.1-1.5,1.2-3.7,1.8c-2.2,0.6-4.1,0.4-4.1,0.2c0-0.2,1.8-0.2,4-0.8
							C1643.3,460,1644.9,459.2,1645,459.3z"/>
					</g>
				</g>
			</g>
			<g id="XMLID_597_">
				<g id="XMLID_598_">
					<g id="XMLID_599_">
						
							<ellipse id="XMLID_600_" transform="matrix(0.9964 -8.426709e-002 8.426709e-002 0.9964 -34.1419 140.4616)" class="st3" cx="1646.8" cy="474.7" rx="6.6" ry="0.3"/>
					</g>
				</g>
			</g>
			<g id="XMLID_601_">
				<g id="XMLID_602_">
					<g id="XMLID_603_">
						
							<ellipse id="XMLID_604_" transform="matrix(0.9997 2.503502e-002 -2.503502e-002 0.9997 12.6786 -41.1445)" class="st3" cx="1649.6" cy="485.8" rx="9.7" ry="0.3"/>
					</g>
				</g>
			</g>
		</g>
		<g id="XMLID_605_">
			<g id="XMLID_606_">
				<g id="XMLID_607_">
					<g id="XMLID_608_">
						<g id="XMLID_609_">
							<path id="XMLID_955_" class="st7" d="M1616.7,366.7c0.8,4.1,6.7,5.7,7.2,9.8c0.2,1.8-0.6,3.5-0.5,5.3
								c0.1,2.4,1.7,4.4,2.6,6.6c1.8,4.6-0.2,10.1-3.9,13.3c-3.7,3.3-8.8,4.6-13.7,4.7"/>
						</g>
					</g>
				</g>
			</g>
			<g id="XMLID_610_">
				<g id="XMLID_611_">
					<g id="XMLID_612_">
						<g id="XMLID_613_">
							<g id="XMLID_614_">
								<path id="XMLID_950_" class="st7" d="M1583.5,370.9c0.5,2.2-0.6,4.4-1.8,6.3c-1.2,1.9-2.6,3.9-2.5,6.1c0.1,4,4.4,7,4.2,10.9
									c-0.1,2.1-1.5,4-1.5,6.2c0,2.1,1.4,3.8,3,5.2c1.6,1.3,3.1,0.8,4.5,2.3c1.5,1.5,3.8,3,5.8,3.7c4.6,1.7,9.2-2.5,11.1-3.4"/>
							</g>
						</g>
					</g>
				</g>
				<g id="XMLID_615_">
					<g id="XMLID_616_">
						<g id="XMLID_617_">
							<g id="XMLID_618_">
								<path id="XMLID_945_" class="st7" d="M1617.9,368.9c-0.3-2-2.3-3.3-4.3-3.7c-2-0.4-4.1-0.4-5.9-1.2
									c-1.6-0.8-2.9-2.1-4.3-3.2c-3.5-2.6-8.5-3.1-12.5-1.3c-4,1.8-6.9,5.9-7.3,10.2c-0.3,3,0.8,6.2,3.3,7.8
									c2.9,1.8,6.7,0.7,9.9-0.5c3.2-1.2,6.9-2.5,10-1c1.9,0.9,3.1,2.7,4.4,4.3c1.3,1.6,2.9,3.2,4.9,3.6c2,0.4,4.5-1.2,4.2-3.3"/>
							</g>
						</g>
					</g>
				</g>
				<g id="XMLID_619_">
					<g id="XMLID_620_">
						<g id="XMLID_621_">
							<g id="XMLID_622_">
								<g id="XMLID_623_">
									<g id="XMLID_624_">
										<g id="XMLID_625_">
											<g id="XMLID_626_">
												<g id="XMLID_627_">
													<g id="XMLID_628_">
														<path id="XMLID_940_" class="st17" d="M1618.6,411.5l-4.9-38.9c-0.2-1.7-1.8-3-3.5-2.9l-18.4-1.7
															c-5.8,0.3-8.5,7.9-7.9,13.6c0.6,6.4,1.6,14.2,3,18.8c3,9.3,10.5,9.3,10.5,9.3c0,0,1.4,13.7,1.9,17.1"/>
													</g>
												</g>
											</g>
											<g id="XMLID_629_">
												<g id="XMLID_630_">
													<g id="XMLID_631_">
														<g id="XMLID_632_">
															<g id="XMLID_633_">
																<g id="XMLID_634_">
																	<g id="XMLID_635_">
																		<g id="XMLID_636_">
																			<g id="XMLID_637_">
																				<g id="XMLID_638_">
																					<g id="XMLID_639_">
																						<path id="XMLID_936_" class="st7" d="M1586.4,388.6c0.1,0.6,0.7,1.1,1.4,1c0.7-0.1,1.2-0.6,1.1-1.3
																							c-0.1-0.6-0.7-1.1-1.4-1C1586.8,387.4,1586.3,388,1586.4,388.6z"/>
																					</g>
																				</g>
																			</g>
																		</g>
																	</g>
																</g>
															</g>
														</g>
													</g>
												</g>
												<g id="XMLID_640_">
													<g id="XMLID_641_">
														<g id="XMLID_642_">
															<g id="XMLID_643_">
																<g id="XMLID_644_">
																	<g id="XMLID_645_">
																		<g id="XMLID_646_">
																			<g id="XMLID_647_">
																				<g id="XMLID_648_">
																					<g id="XMLID_649_">
																						<g id="XMLID_650_">
																							<path id="XMLID_925_" class="st7" d="M1586,386.3c0.2,0.1,1-0.7,2.3-0.9c1.3-0.2,2.4,0.3,2.5,0.1
																								c0.1-0.1-0.1-0.3-0.6-0.6c-0.5-0.2-1.2-0.4-2-0.3c-0.8,0.1-1.5,0.5-1.8,0.9
																								C1586,385.9,1585.9,386.2,1586,386.3z"/>
																						</g>
																					</g>
																				</g>
																			</g>
																		</g>
																	</g>
																</g>
															</g>
														</g>
													</g>
												</g>
											</g>
											<g id="XMLID_651_">
												<g id="XMLID_652_">
													<g id="XMLID_653_">
														<g id="XMLID_654_">
															<g id="XMLID_655_">
																<g id="XMLID_656_">
																	<g id="XMLID_657_">
																		<g id="XMLID_658_">
																			<g id="XMLID_659_">
																				<g id="XMLID_660_">
																					<g id="XMLID_661_">
																						<path id="XMLID_912_" class="st7" d="M1599.6,386.7c0.1,0.6,0.7,1.1,1.4,1c0.7-0.1,1.2-0.6,1.1-1.3
																							c-0.1-0.6-0.7-1.1-1.4-1C1600,385.5,1599.5,386.1,1599.6,386.7z"/>
																					</g>
																				</g>
																			</g>
																		</g>
																	</g>
																</g>
															</g>
														</g>
													</g>
												</g>
												<g id="XMLID_662_">
													<g id="XMLID_663_">
														<g id="XMLID_664_">
															<g id="XMLID_665_">
																<g id="XMLID_666_">
																	<g id="XMLID_667_">
																		<g id="XMLID_668_">
																			<g id="XMLID_669_">
																				<g id="XMLID_670_">
																					<g id="XMLID_671_">
																						<g id="XMLID_672_">
																							<path id="XMLID_901_" class="st7" d="M1598.9,384.5c0.2,0.1,1-0.7,2.3-0.9c1.3-0.2,2.4,0.3,2.5,0.1
																								c0.1-0.1-0.1-0.3-0.6-0.6c-0.5-0.2-1.2-0.4-2-0.3c-0.8,0.1-1.5,0.5-1.8,0.9
																								C1599,384.1,1598.9,384.4,1598.9,384.5z"/>
																						</g>
																					</g>
																				</g>
																			</g>
																		</g>
																	</g>
																</g>
															</g>
														</g>
													</g>
												</g>
											</g>
											<g id="XMLID_673_">
												<g id="XMLID_674_">
													<g id="XMLID_675_">
														<g id="XMLID_676_">
															<g id="XMLID_677_">
																<g id="XMLID_678_">
																	<g id="XMLID_679_">
																		<g id="XMLID_680_">
																			<g id="XMLID_681_">
																				<g id="XMLID_682_">
																					<g id="XMLID_683_">
																						<path id="XMLID_888_" class="st7" d="M1595.7,395c0-0.1-0.8-0.1-2.2-0.1c-0.3,0-0.7,0-0.8-0.2
																							c-0.1-0.2,0-0.6,0.1-1c0.2-0.9,0.4-1.8,0.6-2.7c0.8-3.8,1.3-7,1.2-7c-0.2,0-0.9,3.1-1.7,6.9
																							c-0.2,0.9-0.4,1.8-0.5,2.7c-0.1,0.4-0.2,0.9,0,1.3c0.1,0.2,0.4,0.4,0.6,0.4c0.2,0,0.4,0,0.6,0
																							C1594.9,395.1,1595.7,395,1595.7,395z"/>
																					</g>
																				</g>
																			</g>
																		</g>
																	</g>
																</g>
															</g>
														</g>
													</g>
												</g>
											</g>
											<g id="XMLID_684_">
												<g id="XMLID_685_">
													<g id="XMLID_686_">
														<g id="XMLID_687_">
															<g id="XMLID_688_">
																<g id="XMLID_689_">
																	<g id="XMLID_690_">
																		<g id="XMLID_691_">
																			<g id="XMLID_692_">
																				<g id="XMLID_693_">
																					<path id="XMLID_876_" class="st18" d="M1597.3,409.7c0,0,6.4-0.4,12.1-5.2c-0.1,0-2.6,7.3-11.8,7.8
																						L1597.3,409.7z"/>
																				</g>
																			</g>
																		</g>
																	</g>
																</g>
															</g>
														</g>
													</g>
												</g>
											</g>
											<g id="XMLID_694_">
												<g id="XMLID_695_">
													<g id="XMLID_696_">
														<g id="XMLID_697_">
															<g id="XMLID_698_">
																<g id="XMLID_699_">
																	<g id="XMLID_700_">
																		<g id="XMLID_701_">
																			<g id="XMLID_702_">
																				<g id="XMLID_703_">
																					<path id="XMLID_865_" class="st18" d="M1596.7,398c0.4-0.7,1.1-1.2,2-1.2c0.6,0,1.2,0.2,1.6,0.6
																						c0.4,0.4,0.6,1.1,0.3,1.5c-0.3,0.6-1,0.8-1.7,0.7c-0.7-0.1-1.3-0.4-1.8-0.7c-0.2-0.1-0.3-0.2-0.4-0.3
																						C1596.7,398.4,1596.6,398.2,1596.7,398"/>
																				</g>
																			</g>
																		</g>
																	</g>
																</g>
															</g>
														</g>
													</g>
												</g>
											</g>
											<g id="XMLID_704_">
												<g id="XMLID_705_">
													<g id="XMLID_706_">
														<g id="XMLID_707_">
															<g id="XMLID_708_">
																<g id="XMLID_709_">
																	<g id="XMLID_710_">
																		<g id="XMLID_711_">
																			<g id="XMLID_712_">
																				<g id="XMLID_713_">
																					<g id="XMLID_714_">
																						<path id="XMLID_854_" class="st7" d="M1599.7,395.3c-0.2,0,0,1.4-1.1,2.6c-1.1,1.2-2.6,1.3-2.6,1.5
																							c0,0.1,0.4,0.2,1,0.1c0.6-0.1,1.5-0.4,2.2-1.2c0.6-0.7,0.8-1.6,0.8-2.2C1600,395.6,1599.8,395.2,1599.7,395.3
																							z"/>
																					</g>
																				</g>
																			</g>
																		</g>
																	</g>
																</g>
															</g>
														</g>
													</g>
												</g>
											</g>
										</g>
									</g>
								</g>
								<g id="XMLID_715_">
									<g id="XMLID_716_">
										<g id="XMLID_717_">
											<g id="XMLID_718_">
												<g id="XMLID_719_">
													<g id="XMLID_720_">
														<g id="XMLID_721_">
															<g id="XMLID_722_">
																<g id="XMLID_723_">
																	<g id="XMLID_724_">
																		<path id="XMLID_839_" class="st7" d="M1597.8,380.9c0.2,0.3,1.5,0,3-0.1c1.6-0.1,2.9,0.2,3-0.2
																			c0.1-0.2-0.2-0.5-0.8-0.7c-0.6-0.3-1.4-0.5-2.3-0.4c-0.9,0-1.8,0.3-2.3,0.6
																			C1597.9,380.4,1597.7,380.8,1597.8,380.9z"/>
																	</g>
																</g>
															</g>
														</g>
													</g>
												</g>
											</g>
										</g>
									</g>
								</g>
								<g id="XMLID_725_">
									<g id="XMLID_726_">
										<g id="XMLID_727_">
											<g id="XMLID_728_">
												<g id="XMLID_729_">
													<g id="XMLID_730_">
														<g id="XMLID_731_">
															<g id="XMLID_732_">
																<g id="XMLID_733_">
																	<g id="XMLID_734_">
																		<path id="XMLID_828_" class="st7" d="M1585.9,382.4c0.3,0.3,1.1-0.2,2.2-0.4c1.1-0.2,2-0.1,2.2-0.5
																			c0.1-0.2-0.1-0.4-0.6-0.7c-0.4-0.2-1.1-0.3-1.9-0.2c-0.7,0.1-1.3,0.5-1.7,0.9
																			C1585.9,381.9,1585.8,382.3,1585.9,382.4z"/>
																	</g>
																</g>
															</g>
														</g>
													</g>
												</g>
											</g>
										</g>
									</g>
								</g>
							</g>
						</g>
					</g>
				</g>
				<g id="XMLID_735_">
					<g id="XMLID_736_">
						<g id="XMLID_737_">
							<g id="XMLID_738_">
								<path id="XMLID_813_" class="st7" d="M1619.1,401.7c-2.5,0.9-3-0.4-5.2-1.9c-2.2-1.5-3.7-4.1-3.8-6.8c-0.1-2.4,0.8-5-0.3-7
									c-1.5-2.7-5.8-3-7.3-5.7c-0.9-1.6-0.6-3.7-1.6-5.2c-0.9-1.5-2.7-2.1-4.4-2.4c-1.7-0.3-3.5-0.5-5-1.3c-1.5-0.8-2.7-2.7-2-4.3
									c7.2-0.3,14.5,0.3,21.5,1.8c1.6,0.3,3.4,0.8,4.5,2c1.2,1.3,1.5,3.2,1.6,5c0.9,8.6,1.9,17.2,2.8,25.8"/>
							</g>
						</g>
					</g>
				</g>
			</g>
			<g id="XMLID_739_">
				<g id="XMLID_740_">
					<g id="XMLID_741_">
						<g id="XMLID_742_">
							<path id="XMLID_807_" class="st7" d="M1622,381.4c-0.2-3.2,1.9-6.4,4.9-7.4c3-1.1,6.6,0.1,8.5,2.7c1.7,2.5,1.8,5.8,1,8.7
								c-1,3.5-3.5,6.9-7.1,7.3c-3.4,0.4-6.5-2.1-8-5.2c-1.5-3-1.6-6.5-1.7-9.9"/>
						</g>
					</g>
				</g>
			</g>
			<g id="XMLID_743_">
				<g id="XMLID_744_">
					<g id="XMLID_745_">
						<g id="XMLID_746_">
							<g id="XMLID_747_">
								<path id="XMLID_802_" class="st8" d="M1625.9,394.1c0,0,0.2-0.2,0.4-0.6c0.2-0.4,0.4-1.1,0.4-2c0-0.9-0.2-1.9-0.6-3
									c-0.4-1.1-0.9-2.2-1.4-3.4c-0.5-1.2-0.8-2.4-0.8-3.5c0-1.1,0.4-2.1,0.5-2.9c0.1-0.9,0-1.6-0.3-2c-0.2-0.4-0.5-0.6-0.5-0.6
									c0,0,0.2,0.2,0.3,0.7c0.2,0.4,0.3,1.1,0.1,1.9c-0.1,0.8-0.5,1.8-0.6,3c-0.1,1.2,0.3,2.4,0.8,3.6c0.5,1.2,1.1,2.3,1.4,3.4
									c0.4,1,0.6,2,0.6,2.9C1626.5,393.2,1625.8,394.1,1625.9,394.1z"/>
							</g>
						</g>
					</g>
				</g>
			</g>
			<g id="XMLID_748_">
				<g id="XMLID_749_">
					<g id="XMLID_750_">
						<g id="XMLID_751_">
							<g id="XMLID_752_">
								<path id="XMLID_796_" class="st8" d="M1624.3,382.7c0,0,0.5,0.6,1.7,1.2c1.1,0.6,2.9,1.1,4.9,0.8c2-0.3,3.6-1.2,4.5-2.1
									c1-0.9,1.3-1.6,1.3-1.6c-0.1,0-0.5,0.6-1.5,1.4c-1,0.8-2.5,1.7-4.4,1.9c-1.9,0.3-3.6-0.2-4.7-0.6
									C1624.9,383.1,1624.3,382.6,1624.3,382.7z"/>
							</g>
						</g>
					</g>
				</g>
			</g>
			<g id="XMLID_753_">
				<g id="XMLID_754_">
					<g id="XMLID_755_">
						<g id="XMLID_756_">
							<g id="XMLID_757_">
								<path id="XMLID_790_" class="st8" d="M1625,384.1c0,0,0.3,0.6,1,1.4c0.7,0.8,1.9,1.7,3.5,2.3c1.5,0.6,3,0.8,4.1,0.8
									c1.1,0,1.7-0.2,1.7-0.3c0-0.1-0.7,0-1.7,0c-1,0-2.5-0.3-3.9-0.9c-1.5-0.6-2.6-1.4-3.4-2.1
									C1625.4,384.6,1625,384.1,1625,384.1z"/>
							</g>
						</g>
					</g>
				</g>
			</g>
			<g id="XMLID_758_">
				<g id="XMLID_759_">
					<g id="XMLID_760_">
						<g id="XMLID_761_">
							<g id="XMLID_762_">
								<path id="XMLID_784_" class="st8" d="M1624.7,397.6c0,0,0,0,0.1-0.1c0-0.1,0.1-0.2,0.2-0.4c0.2-0.4,0.3-1,0.4-1.8
									c0-0.8-0.1-1.8-0.6-2.8c-0.5-1-1.4-2-2.7-2.6c-1.3-0.6-2.8-0.9-3.9-2.1c-0.6-0.5-0.9-1.3-0.9-2.1c0-0.8,0.2-1.7,0.4-2.6
									c0.5-1.8,0.1-3.9-1-5.6c-0.6-0.8-1.3-1.6-2.3-2.1c-1-0.5-2-0.7-3.1-0.7c-1.1-0.1-2.1,0-3.1-0.2c-1-0.1-2-0.4-2.7-1
									c-0.8-0.6-1.2-1.4-1.5-2.3c-0.3-0.9-0.5-1.8-0.9-2.7c-0.7-1.7-1.9-3.1-3.3-4.1c-1.4-1-2.9-1.4-4.4-1.4
									c-1.4,0-2.7,0.5-3.6,1.1c-0.9,0.7-1.5,1.5-1.8,2.2c-0.3,0.7-0.5,1.3-0.5,1.7c0,0.4,0,0.6,0,0.6c0.1,0-0.1-0.9,0.6-2.3
									c0.4-0.7,0.9-1.4,1.8-2.1c0.9-0.6,2.1-1,3.4-1c1.4,0,2.8,0.4,4.1,1.4c1.3,0.9,2.4,2.3,3.1,4c0.4,0.8,0.6,1.7,0.9,2.7
									c0.3,0.9,0.8,1.9,1.6,2.5c0.8,0.6,1.9,0.9,2.9,1.1c1,0.1,2.1,0.1,3.1,0.2c1,0.1,2.1,0.2,2.9,0.7c0.9,0.5,1.6,1.2,2.2,1.9
									c1.1,1.6,1.4,3.6,1,5.3c-0.2,0.9-0.4,1.8-0.4,2.7c0,0.9,0.4,1.8,1,2.4c1.3,1.2,2.8,1.5,4.1,2.1c1.3,0.5,2.1,1.5,2.6,2.5
									c0.5,1,0.6,1.9,0.6,2.7C1625.1,396.8,1624.6,397.6,1624.7,397.6z"/>
							</g>
						</g>
					</g>
				</g>
			</g>
			<g id="XMLID_763_">
				<g id="XMLID_764_">
					<g id="XMLID_765_">
						<g id="XMLID_766_">
							<g id="XMLID_767_">
								<path id="XMLID_778_" class="st8" d="M1619.8,371.2c0,0,0.1-0.2,0-0.5c0-0.3-0.1-0.8-0.5-1.2c-0.4-0.4-1-0.9-1.8-1.1
									c-0.8-0.2-1.8,0-2.7,0.3c-1,0.3-1.9,0.9-3,1.3c-1.1,0.4-2.4,0.6-3.5,0c-1.1-0.6-1.8-1.9-2.6-3.1c-0.7-1.3-1.7-2.5-2.8-3.6
									c-2.3-2.1-5.2-3.3-7.9-3.5c-1.4-0.1-2.7,0.2-3.8,0.7c-1.1,0.5-2,1.3-2.5,2.2c-0.5,0.9-0.7,1.9-0.7,2.7
									c0.1,0.8,0.3,1.5,0.6,2c0.3,0.5,0.6,0.8,0.9,1c0.2,0.2,0.4,0.2,0.4,0.2c0,0-0.6-0.3-1.1-1.3c-0.3-0.5-0.5-1.1-0.5-1.9
									c0-0.8,0.1-1.7,0.7-2.5c0.5-0.8,1.3-1.6,2.4-2.1c1-0.5,2.3-0.7,3.6-0.6c2.6,0.2,5.4,1.4,7.7,3.4c1.1,1,2,2.2,2.7,3.5
									c0.7,1.2,1.5,2.5,2.7,3.2c0.6,0.3,1.3,0.5,2,0.4c0.7,0,1.3-0.2,1.8-0.4c1.1-0.4,2.1-1,3-1.4c0.9-0.4,1.8-0.5,2.6-0.4
									c0.8,0.1,1.4,0.5,1.7,0.9c0.4,0.4,0.5,0.8,0.6,1.1C1619.8,371,1619.8,371.2,1619.8,371.2z"/>
							</g>
						</g>
					</g>
				</g>
			</g>
		</g>
	</g>
</g>
</svg>
