<?xml version="1.0" encoding="utf-8"?>
<!-- Generator: Adobe Illustrator 19.0.0, SVG Export Plug-In . SVG Version: 6.00 Build 0)  -->
<svg version="1.1" id="Layer_1" xmlns="http://www.w3.org/2000/svg" xmlns:xlink="http://www.w3.org/1999/xlink" x="0px" y="0px"
	 viewBox="0 0 800 800" style="enable-background:new 0 0 800 800;" xml:space="preserve">
<style type="text/css">
	.st0{fill:#EBEBEB;}
	.st1{fill:#E6E6E6;}
	.st2{fill:#EFEFEF;}
	.st3{fill:#F9F9F9;}
	.st4{fill:#F4F4F4;}
	.st5{fill:#FFFFFF;}
	.st6{fill:#D74D65;}
	.st7{opacity:0.2;}
	.st8{clip-path:url(#XMLID_126_);}
	.st9{clip-path:url(#XMLID_127_);}
	.st10{clip-path:url(#XMLID_128_);}
	.st11{clip-path:url(#XMLID_129_);}
	.st12{clip-path:url(#XMLID_130_);}
	.st13{clip-path:url(#XMLID_131_);}
	.st14{clip-path:url(#XMLID_132_);}
	.st15{clip-path:url(#XMLID_133_);}
	.st16{clip-path:url(#XMLID_134_);}
	.st17{clip-path:url(#XMLID_135_);}
	.st18{clip-path:url(#XMLID_136_);}
	.st19{fill:#FFB570;}
	.st20{clip-path:url(#XMLID_137_);}
	.st21{fill:#1A2E35;}
	.st22{fill:#EFB645;}
	.st23{clip-path:url(#XMLID_138_);}
	.st24{clip-path:url(#XMLID_139_);}
	.st25{clip-path:url(#XMLID_140_);}
	.st26{clip-path:url(#XMLID_141_);}
	.st27{clip-path:url(#XMLID_142_);}
	.st28{fill:#FF8935;}
	.st29{fill:#52A4AF;}
</style>
<g>
	<rect id="XMLID_124_" x="25.7" y="611.6" class="st0" width="748.6" height="0.4"/>
	<rect id="XMLID_123_" x="104.2" y="625.9" class="st0" width="49.6" height="0.4"/>
	<rect id="XMLID_122_" x="255.4" y="621.8" class="st0" width="39.5" height="0.4"/>
	<rect id="XMLID_121_" x="160.4" y="634.7" class="st0" width="68.8" height="0.4"/>
	<rect id="XMLID_120_" x="667" y="637.3" class="st0" width="32.3" height="0.4"/>
	<rect id="XMLID_119_" x="611.8" y="637.3" class="st0" width="47.9" height="0.4"/>
	<rect id="XMLID_118_" x="440.7" y="631" class="st0" width="82.5" height="0.4"/>
	<g>
		<path class="st0" d="M380.6,544.9H91.4c-4.7,0-8.5-3.8-8.5-8.5V129.9c0-4.7,3.8-8.5,8.5-8.5h289.1c4.7,0,8.5,3.8,8.5,8.5v406.4
			C389.1,541,385.3,544.9,380.6,544.9 M91.4,121.7c-4.5,0-8.2,3.7-8.2,8.2v406.4c0,4.5,3.7,8.2,8.2,8.2h289.1c4.5,0,8.2-3.7,8.2-8.2
			V129.9c0-4.5-3.7-8.2-8.2-8.2H91.4z"/>
		<path class="st0" d="M704.4,544.9H415.3c-4.7,0-8.5-3.8-8.5-8.5V129.9c0-4.7,3.8-8.5,8.5-8.5h289.1c4.7,0,8.5,3.8,8.5,8.5v406.4
			C713,541,709.1,544.9,704.4,544.9 M415.3,121.7c-4.5,0-8.2,3.7-8.2,8.2v406.4c0,4.5,3.7,8.2,8.2,8.2h289.1c4.5,0,8.2-3.7,8.2-8.2
			V129.9c0-4.5-3.7-8.2-8.2-8.2H415.3z"/>
		<path id="XMLID_113_" class="st1" d="M614.6,438.3c-4-11.6-35.9,4.2-48.8,23.4c-8.6,12.8-13.9,26.4-16.3,44.8
			c0.3-20.9,0.6-43.4,1-64.6c2.6-5.3,8.6-17.5,12.9-27.1c14.3-32.2,48.3-44.2,60.1-64.6c15.4-26.7,15.3-66.7,2.2-81.1
			c-11.4-12.5-49.1,72.3-53.4,81.8c-14.6,32.6-18.9,56.8-21.6,80.2c0.3-19.9,0.6-38.2,0.9-52.3c0.8-46,1.8-60.8,2.3-65.4
			c1.6-2.2,3.4-4.8,4.5-6.2c9.1-11.8,29.4-25.8,39.5-42.9c14.8-25,12.4-54.8,2-66c-10.8-11.6-30,15.9-40.2,43.1
			c-10.2,27.2-5.8,53.3-8.7,75.9c-0.6,4.4-1.2,21.3-1.8,44.7c-3.1-25.1-9.2-42-20.6-57.7c-14-19.3-26.1-42.8-37.7-39.8
			c-11.6,3-5.3,34.2,3.8,56c8.1,19.5,48.3,38.9,54.2,54.5c-0.7,31.7-1.3,71.8-1.8,109.2c-3.2-19.3-1-20.9-14-50.5
			c-7.7-17.6-39.3-39.2-43.1-27.2c-3.7,11.8,2,34.9,13.9,50.9c9.6,12.9,31,12.9,35.9,20.9c1.2,1.9,5,9,7.1,13.1
			c-0.5,45.6-0.7,85.9-0.5,99.6l2.1,0.1c-0.1-3.5,0.2-26.8,0.6-57.5c5.2-16.3,40.1-25.9,50.9-42.9
			C611.3,473,619.4,452.2,614.6,438.3"/>
		<path id="XMLID_112_" class="st1" d="M581.7,611.6h-67c-3.7,0-6.8-2.6-7.5-6.2l-4.8-23.5H594l-4.8,23.5
			C588.5,609.1,585.4,611.6,581.7,611.6"/>
		<path id="XMLID_111_" class="st2" d="M595.9,591.1h-95.5c-2.3,0-4.2-1.7-4.5-4l-2-17.3c-0.3-2.7,1.8-5,4.5-5h99.4
			c2.7,0,4.8,2.3,4.5,5l-2,17.3C600.2,589.4,598.2,591.1,595.9,591.1"/>
		<path id="XMLID_110_" class="st2" d="M352,451.2L352,451.2c-0.8,0-1.5,0-2.3,0.1c-16.4,1.3-29.7,17-30.7,36.2
			c-0.2,4.4,0.1,8.6,1.1,12.6c3.8,16.5,5.2,33.5,5.2,50.6v49.7c0,3.6,2.5,6.5,5.6,6.5H352h-3.6h155.7V451.2H352z"/>
		<path id="XMLID_109_" class="st3" d="M537.2,490.1c0-22.3-16.1-40.3-35.4-38.7c-16.4,1.3-29.7,17-30.7,36.2
			c-0.2,4.4,0.1,8.6,1.1,12.6c3.8,16.5,5.2,33.5,5.2,50.6v49.7c0,3.6,2.5,6.5,5.6,6.5h42.5c3.1,0,5.6-2.9,5.6-6.5v-52.6
			c0-16,1.5-32,5.1-47.4C536.8,497.1,537.2,493.7,537.2,490.1"/>
		<rect id="XMLID_108_" x="279.1" y="518.9" class="st4" width="179.3" height="88"/>
		<path id="XMLID_107_" class="st1" d="M397.3,413.4H206.5c-15,0-27.1,12.2-27.1,27.1v93.2h245.1v-93.2
			C424.4,425.5,412.2,413.4,397.3,413.4"/>
		<path id="XMLID_106_" class="st4" d="M404.3,413.4H226.2c-14.8,0-26.8,12-26.8,26.8v93.6h231.6v-93.6
			C431.1,425.4,419.1,413.4,404.3,413.4"/>
		<path id="XMLID_105_" class="st0" d="M458.3,515.7H286.6c-1,0-1.7,0.8-1.7,1.7V535c0,1,0.8,1.7,1.7,1.7h171.8
			c3.2,0,5.8-2.6,5.8-5.8v-9.4C464.2,518.3,461.6,515.7,458.3,515.7"/>
		<path id="XMLID_104_" class="st1" d="M501.4,611.6H170.1c-2.4,0-4.4-2-4.4-4.4v-0.4h340v0.4C505.7,609.7,503.8,611.6,501.4,611.6"
			/>
		<path id="XMLID_103_" class="st2" d="M167.4,451.2L167.4,451.2c-0.8,0-1.5,0-2.3,0.1c-16.4,1.3-29.7,17-30.7,36.2
			c-0.2,4.4,0.1,8.6,1.1,12.6c3.8,16.5,5.2,33.5,5.2,50.6v49.7c0,3.6,2.5,6.5,5.6,6.5h21.2h21.2h92V451.2H167.4z"/>
		<path id="XMLID_102_" class="st3" d="M313.8,490.1c0-22.3-16.1-40.3-35.4-38.7c-16.4,1.3-29.7,17-30.7,36.2
			c-0.2,4.4,0.1,8.6,1.1,12.6c3.8,16.5,5.2,33.5,5.2,50.6v49.7c0,3.6,2.5,6.5,5.6,6.5h42.5c3.1,0,5.6-2.9,5.6-6.5v-52.6
			c0-16,1.5-32,5.1-47.4C313.4,497.1,313.8,493.7,313.8,490.1"/>
		<rect id="XMLID_101_" x="124.5" y="179" class="st1" width="120.2" height="132"/>
		<rect id="XMLID_100_" x="126.1" y="179" class="st4" width="128.9" height="132"/>
		<rect id="XMLID_99_" x="134.3" y="187.3" class="st5" width="112.5" height="115.5"/>
		<path id="XMLID_98_" class="st4" d="M173.7,286.1L173.7,286.1c-13.4-13.4-13.4-35.1,0-48.5l33.7-33.7c13.4,13.4,13.4,35.1,0,48.5
			L173.7,286.1z"/>
		<rect id="XMLID_97_" x="275.6" y="269.4" class="st1" width="71.1" height="80.3"/>
		<rect id="XMLID_96_" x="277.4" y="269.4" class="st4" width="79.7" height="80.3"/>
		<rect id="XMLID_95_" x="285.6" y="277.7" class="st5" width="63.3" height="63.9"/>
		<path id="XMLID_94_" class="st4" d="M322.9,322.5l7.2-7.2c3.2-3.2,3.2-8.3,0-11.4l-7.2-7.2c-3.2-3.2-8.3-3.2-11.4,0l-7.2,7.2
			c-3.2,3.2-3.2,8.3,0,11.4l7.2,7.2C314.7,325.7,319.8,325.7,322.9,322.5"/>
	</g>
	<g>
		<path id="XMLID_93_" class="st4" d="M690.3,662.3c0,9.4-130,17-290.3,17s-290.3-7.6-290.3-17c0-9.4,130-17,290.3-17
			S690.3,652.9,690.3,662.3"/>
	</g>
	<g>
		<path id="XMLID_92_" class="st6" d="M368.9,625.9h-93.1v32.6c0,2.1,1.7,3.8,3.8,3.8h89.3V625.9z"/>
		<polygon id="XMLID_91_" class="st6" points="368.9,625.9 275.8,625.9 307.7,607.5 358.3,607.5 		"/>
		<path id="XMLID_90_" class="st6" d="M368.9,625.9h34v32.6c0,2.1-1.7,3.8-3.8,3.8h-30.2V625.9z"/>
		<g class="st7">
			<g>
				<defs>
					<rect id="XMLID_88_" x="368.9" y="625.9" width="34" height="36.4"/>
				</defs>
				<clipPath id="XMLID_126_">
					<use xlink:href="#XMLID_88_"  style="overflow:visible;"/>
				</clipPath>
				<path id="XMLID_89_" class="st8" d="M368.9,625.9h34v32.6c0,2.1-1.7,3.8-3.8,3.8h-30.2V625.9z"/>
			</g>
		</g>
		<polygon id="XMLID_87_" class="st6" points="368.9,625.9 402.9,625.9 371.1,607.5 358.3,607.5 		"/>
		<g class="st7">
			<g>
				<defs>
					<rect id="XMLID_85_" x="358.3" y="607.5" width="44.6" height="18.3"/>
				</defs>
				<clipPath id="XMLID_127_">
					<use xlink:href="#XMLID_85_"  style="overflow:visible;"/>
				</clipPath>
				<polygon id="XMLID_86_" class="st9" points="368.9,625.9 402.9,625.9 371.1,607.5 358.3,607.5 				"/>
			</g>
		</g>
		<polygon id="XMLID_84_" class="st6" points="313.1,344.2 310.9,323.1 303,304.8 321.4,311.4 336.7,323.3 344.1,331.8 328.3,348.9 
					"/>
		<g class="st7">
			<g>
				<defs>
					<rect id="XMLID_82_" x="303" y="304.8" width="41.1" height="44.1"/>
				</defs>
				<clipPath id="XMLID_128_">
					<use xlink:href="#XMLID_82_"  style="overflow:visible;"/>
				</clipPath>
				<polygon id="XMLID_83_" class="st10" points="313.1,344.2 310.9,323.1 303,304.8 321.4,311.4 336.7,323.3 344.1,331.8 
					328.3,348.9 				"/>
			</g>
		</g>
		<polygon id="XMLID_81_" class="st6" points="325.4,329.4 330.8,304.8 382.6,315.6 407.3,347.5 413.5,392.8 408.5,432.9 
			396.5,461.1 367.5,353.3 		"/>
		<g class="st7">
			<g>
				<defs>
					<rect id="XMLID_79_" x="326.2" y="306" width="68.9" height="112.6"/>
				</defs>
				<clipPath id="XMLID_129_">
					<use xlink:href="#XMLID_79_"  style="overflow:visible;"/>
				</clipPath>
				<polygon id="XMLID_80_" class="st11" points="326.2,335.5 336.3,318.5 336,305.9 365.1,312 386,336.8 395.2,371.3 389.4,418.5 
					376.5,379.5 				"/>
			</g>
		</g>
		<polygon id="XMLID_78_" class="st6" points="307.7,607.5 277.7,584.9 264.7,550.6 275.8,514.2 310.1,485.6 319.4,422.5 
			311.3,396.9 376.5,341 399,476.3 402.9,569.1 371.1,607.5 		"/>
		<g class="st7">
			<g>
				<defs>
					<rect id="XMLID_76_" x="270.8" y="566.9" width="36.1" height="32.1"/>
				</defs>
				<clipPath id="XMLID_130_">
					<use xlink:href="#XMLID_76_"  style="overflow:visible;"/>
				</clipPath>
				<polygon id="XMLID_77_" class="st12" points="270.8,566.9 277.7,584.9 284.4,590 306.9,599.1 286.9,584.1 				"/>
			</g>
		</g>
		<g class="st7">
			<g>
				<defs>
					<rect id="XMLID_74_" x="316.2" y="400.7" width="46.2" height="43.5"/>
				</defs>
				<clipPath id="XMLID_131_">
					<use xlink:href="#XMLID_74_"  style="overflow:visible;"/>
				</clipPath>
				<polygon id="XMLID_75_" class="st13" points="319.4,422.5 316.2,444.2 344.4,437 360.6,418.8 362.4,400.7 				"/>
			</g>
		</g>
		<polygon id="XMLID_73_" class="st6" points="370,399.6 341.2,429.9 303.3,435.7 280.7,426.9 262.1,431.4 240.7,427.7 229.7,428.3 
			215.8,421.9 210.1,410.6 214.6,389.1 223.6,381.1 230.6,379.5 277.8,351 285,339.7 333.8,324.6 376.5,341 		"/>
		<g class="st7">
			<g>
				<defs>
					<rect id="XMLID_71_" x="212.6" y="415.7" width="28.1" height="12.6"/>
				</defs>
				<clipPath id="XMLID_132_">
					<use xlink:href="#XMLID_71_"  style="overflow:visible;"/>
				</clipPath>
				<polygon id="XMLID_72_" class="st14" points="212.6,415.7 228.5,417.8 240.7,427.7 229.7,428.3 215.8,421.9 				"/>
			</g>
		</g>
		<g class="st7">
			<g>
				<defs>
					<rect id="XMLID_69_" x="236.4" y="395.8" width="20.8" height="7.2"/>
				</defs>
				<clipPath id="XMLID_133_">
					<use xlink:href="#XMLID_69_"  style="overflow:visible;"/>
				</clipPath>
				<polygon id="XMLID_70_" class="st15" points="236.4,399.6 244.9,395.8 257.2,402.2 242.7,402.9 				"/>
			</g>
		</g>
		<g class="st7">
			<g>
				<defs>
					<rect id="XMLID_67_" x="307.7" y="476.3" width="95.3" height="131.2"/>
				</defs>
				<clipPath id="XMLID_134_">
					<use xlink:href="#XMLID_67_"  style="overflow:visible;"/>
				</clipPath>
				<polygon id="XMLID_68_" class="st16" points="399,476.3 389.6,502 383.3,566.6 354.5,600.6 336.7,599.6 307.7,607.5 
					371.1,607.5 402.9,569.1 				"/>
			</g>
		</g>
		<polygon id="XMLID_66_" class="st6" points="333.3,344.6 340.8,318.5 339,296.6 356.1,309.2 370.3,333 374.2,345.1 347.9,356.1 		
			"/>
		<g class="st7">
			<g>
				<defs>
					<rect id="XMLID_64_" x="339.4" y="309.5" width="18.6" height="30.1"/>
				</defs>
				<clipPath id="XMLID_135_">
					<use xlink:href="#XMLID_64_"  style="overflow:visible;"/>
				</clipPath>
				<polygon id="XMLID_65_" class="st17" points="339.4,332.4 350.3,339.6 358,332.4 355.6,320.1 342.9,309.5 345.1,320.1 				"/>
			</g>
		</g>
		<g class="st7">
			<g>
				<defs>
					<rect id="XMLID_62_" x="277.8" y="346.1" width="44.8" height="11.3"/>
				</defs>
				<clipPath id="XMLID_136_">
					<use xlink:href="#XMLID_62_"  style="overflow:visible;"/>
				</clipPath>
				<polygon id="XMLID_63_" class="st18" points="280.9,346.1 305.3,350.1 322.5,351.3 304.5,357.4 277.8,351 				"/>
			</g>
		</g>
	</g>
	<polygon id="XMLID_61_" class="st19" points="437.5,640 448.6,644 460.6,619.4 449.6,615.5 	"/>
	<g>
		<g class="st7">
			<g>
				<defs>
					<rect id="XMLID_59_" x="443.4" y="615.5" width="17.3" height="16.6"/>
				</defs>
				<clipPath id="XMLID_137_">
					<use xlink:href="#XMLID_59_"  style="overflow:visible;"/>
				</clipPath>
				<polygon id="XMLID_60_" class="st20" points="460.6,619.5 454.4,632.1 443.4,628.1 449.6,615.5 				"/>
			</g>
		</g>
		<path id="XMLID_58_" class="st21" d="M449,642.7l-12.1-4.3c-0.5-0.2-1,0-1.2,0.4l-5.7,9c-0.6,0.9-0.2,2.2,0.9,2.5
			c4.4,1.5,10.7,3.5,16.2,5.4c6.4,2.3,8.2,6.6,16.2,6.6c6.6,0,7.2-3.4,5.3-4.1c-8.8-3.3-11.5-6.4-17.3-13.7
			C450.7,643.7,449.9,643,449,642.7"/>
		<path id="XMLID_57_" class="st6" d="M502.1,513.2c1.4-35.7-23.7-130.5-23.7-130.5l-40.8,5.5c14.9,42.3,26.5,76.8,31.5,120.4
			c5.7,21.5-28.3,115.7-28.3,115.7l18.7,6.7C459.5,631,500.6,550.4,502.1,513.2"/>
		<path id="XMLID_56_" class="st22" d="M502.1,513.2c1.4-35.7-23.7-130.5-23.7-130.5l-40.8,5.5c14.9,42.3,26.5,76.8,31.5,120.4
			c5.7,21.5-28.3,115.7-28.3,115.7l18.7,6.7C459.5,631,500.6,550.4,502.1,513.2"/>
		<g class="st7">
			<g>
				<defs>
					<rect id="XMLID_54_" x="446.7" y="407.2" width="18.3" height="71.9"/>
				</defs>
				<clipPath id="XMLID_138_">
					<use xlink:href="#XMLID_54_"  style="overflow:visible;"/>
				</clipPath>
				<path id="XMLID_55_" class="st23" d="M452.5,407.2l-5.8,6.9c0.6,1.7,1.1,3.5,1.6,5.2c6.6,20.1,12.2,39.2,16.2,59.7c0,0,0,0,0,0
					C465,457.6,467.4,419.2,452.5,407.2"/>
			</g>
		</g>
		<polygon id="XMLID_53_" class="st21" points="461.7,632.3 439.4,624.3 442,617.1 464.5,624.8 		"/>
		<path class="st6" d="M449.5,644.6C449.5,644.6,449.5,644.6,449.5,644.6c1.7,1,4.7,2.6,6.3,1.9c0.5-0.2,0.8-0.6,0.9-1.1
			c0.1-0.3,0-0.6-0.2-0.9c-1.1-1.2-6.3-0.6-6.9-0.5c-0.1,0-0.2,0.1-0.2,0.2C449.4,644.4,449.4,644.5,449.5,644.6 M456,644.8
			C456.1,644.9,456.1,644.9,456,644.8c0.2,0.2,0.2,0.3,0.1,0.4c-0.1,0.4-0.3,0.6-0.6,0.7c-0.9,0.4-2.7-0.2-5-1.5
			C452.6,644.3,455.3,644.3,456,644.8"/>
		<path class="st6" d="M449.5,644.6c0.1,0,0.1,0.1,0.2,0.1c1.5-0.1,5-1.6,5.3-2.9c0.1-0.3,0-0.7-0.7-1.1c-0.5-0.2-1.1-0.3-1.6-0.1
			c-1.8,0.7-3.2,3.5-3.2,3.6C449.4,644.3,449.4,644.4,449.5,644.6C449.5,644.5,449.5,644.5,449.5,644.6 M454.3,641.3
			c0.2,0.2,0.2,0.3,0.2,0.3c-0.1,0.8-2.6,2-4.3,2.4c0.5-0.8,1.5-2.5,2.7-2.9c0.4-0.1,0.8-0.1,1.2,0
			C454.1,641.2,454.2,641.3,454.3,641.3"/>
		<polygon id="XMLID_48_" class="st19" points="424.4,650.3 436.1,650.3 437.1,623.2 425.3,623.2 		"/>
		<path id="XMLID_47_" class="st21" d="M437.1,649h-14.3c-0.5,0-0.9,0.3-1,0.8l-2.3,10.4c-0.2,1.1,0.6,2.1,1.7,2.1
			c4.6-0.1,8-0.3,13.7-0.3c3.6,0,14.3,0.4,19.2,0.4c4.8,0,5.6-4.9,3.5-5.3c-9-2-15.8-4.7-18.7-7.3C438.5,649.2,437.8,649,437.1,649"
			/>
		<path id="XMLID_46_" class="st19" d="M472.6,291.2l11.7,22.7c3.9,7.5,7.9,15.1,12.2,21.9l1.6,2.4c0.3,0.5,0.6,0.8,0.8,1.1
			c0.5,0.5,0.6,0.7,1.2,0.8c0.6,0.2,1.7,0.1,3.1-0.4c1.4-0.4,2.9-1.2,4.5-2.1c3.1-1.9,6.3-4.4,9.3-7.1c1.5-1.4,3-2.7,4.5-4.2
			c1.5-1.4,3-3,4.3-4.4l7.2,5c-1.2,2.1-2.3,4-3.6,5.9c-1.3,1.9-2.6,3.8-4,5.6c-2.8,3.6-6,7.1-9.9,10.3c-2,1.6-4.1,3.1-6.7,4.3
			c-2.6,1.2-5.7,2.3-9.5,2.2c-3.7,0-7.8-1.5-10.6-3.8c-1.4-1.1-2.6-2.4-3.6-3.6l-2.2-2.8c-5.5-7.5-9.9-15-14.3-22.7
			c-4.3-7.7-8.3-15.4-12.1-23.4L472.6,291.2z"/>
		<path id="XMLID_45_" class="st21" d="M451.5,292.3c-1.9,11,17.1,42,17.1,42l20-21.8c0,0-4.8-16.9-14.5-24.9
			C464.8,279.9,453.6,279.5,451.5,292.3"/>
		<g class="st7">
			<g>
				<defs>
					<rect id="XMLID_43_" x="453" y="302.5" width="24.5" height="31.8"/>
				</defs>
				<clipPath id="XMLID_139_">
					<use xlink:href="#XMLID_43_"  style="overflow:visible;"/>
				</clipPath>
				<path id="XMLID_44_" class="st24" d="M475.2,317.8c-4.4-9.9-13.7-15.5-22.1-15.3c4.4,13.5,15.6,31.8,15.6,31.8l8.9-9.7
					C476.9,322.3,476.1,319.9,475.2,317.8"/>
			</g>
		</g>
		<path id="XMLID_42_" class="st19" d="M523.8,324.6l5.3-7.9l12.4,8.8c0,0-10.2,8.5-16.5,4.9L523.8,324.6z"/>
		<polygon id="XMLID_41_" class="st19" points="543.8,315.2 553,318.9 541.4,325.5 529,316.7 		"/>
		<g class="st7">
			<g>
				<defs>
					<rect id="XMLID_39_" x="424.8" y="623.2" width="12.2" height="14"/>
				</defs>
				<clipPath id="XMLID_140_">
					<use xlink:href="#XMLID_39_"  style="overflow:visible;"/>
				</clipPath>
				<polygon id="XMLID_40_" class="st25" points="425.3,623.2 437.1,623.2 436.6,637.2 424.8,637.2 				"/>
			</g>
		</g>
		<path id="XMLID_38_" class="st21" d="M399,290.6c4.4,12.7,7.6,25.7,9.9,38c1.7,9,2.9,17.6,3.8,25.4c2.2,18.3,2.7,32.4,3.5,37.1
			c9.1-1.2,43.4-5.8,62.1-8.4c-1-68.4-14.2-100.3-14.2-100.3s-7-0.9-15.1-0.9c-1.1,0-2.1,0-3.2,0.1c-7.1,0.3-18.5,2.1-26.4,3.6
			c-1.7,0.3-3.3,0.7-5,1C406.3,288.1,399,290.6,399,290.6"/>
		<g class="st7">
			<g>
				<defs>
					<rect id="XMLID_36_" x="404.4" y="305.1" width="9.3" height="26.8"/>
				</defs>
				<clipPath id="XMLID_141_">
					<use xlink:href="#XMLID_36_"  style="overflow:visible;"/>
				</clipPath>
				<path id="XMLID_37_" class="st26" d="M412.9,305.1l-8.5,3.3c1.8,6.9,3.3,13.7,4.6,20.3c0.2,1.1,0.4,2.2,0.6,3.2
					C413.7,323.9,414.5,314.9,412.9,305.1"/>
			</g>
		</g>
		<path id="XMLID_35_" class="st19" d="M418.1,255.1c2.8,8.3,6.6,23.6,1.4,30.1c5,3.9,11.9,6.9,21.5,5.4c7.3-1.1,7-6.3,5-8.9
			c-9.8-1-10.5-8-9.7-14.9L418.1,255.1z"/>
		<polygon id="XMLID_34_" class="st6" points="435.3,291.6 435.8,292.4 440.2,290.6 438.1,289.3 		"/>
		<polygon id="XMLID_33_" class="st6" points="444.1,290.2 440.2,290.6 440.4,288.6 442.7,288.3 		"/>
		<path id="XMLID_32_" class="st5" d="M420.3,282.4c0,0,6.8,7,17.8,6.9c-2.5,1.6-2.9,7.7-2.9,7.7s-13.5-2.9-17.9-11.9
			C418.3,283.9,420.3,282.4,420.3,282.4"/>
		<path id="XMLID_31_" class="st5" d="M443.5,280.7c0,0,3.3,5.4-3,7.9c5,0.9,6.7,7.2,6.7,7.2s5.1-5.2,1.2-14.4
			C446.2,280.9,443.5,280.7,443.5,280.7"/>
		<g class="st7">
			<g>
				<defs>
					<rect id="XMLID_29_" x="425.4" y="259.9" width="10.8" height="11.7"/>
				</defs>
				<clipPath id="XMLID_142_">
					<use xlink:href="#XMLID_29_"  style="overflow:visible;"/>
				</clipPath>
				<path id="XMLID_30_" class="st27" d="M425.5,259.9l10.7,6.9c-0.2,1.6-0.3,3.2-0.2,4.8c-3.7,0-9.2-3.3-10.1-7.1
					C425.4,262.6,425.3,260.8,425.5,259.9"/>
			</g>
		</g>
		<path id="XMLID_28_" class="st19" d="M415.4,242.4c2.3,11.4,3,18.2,9.6,23.3c9.9,7.7,23.4,0.5,24.6-11.3
			c1.1-10.7-2.8-27.5-14.7-30.6C423.2,220.8,413.1,231,415.4,242.4"/>
		<path id="XMLID_27_" class="st21" d="M421.1,254c1-4.1,0.3-10.2-1.4-13.7c1.3-2.4,4.3-8.2,3.5-12c-4.9-1.5-15.3,0-15.3,0
			S401.3,245.4,421.1,254"/>
		<path id="XMLID_26_" class="st21" d="M414.2,232.5c5.4,0.8,27.1-1.6,31.7-11.1c1.7-3.5-4.1-0.2-7.2,0.3c-3.2,0.6-22.7-0.6-28,0.1
			C407.4,222.2,399.2,230.2,414.2,232.5"/>
		<path id="XMLID_25_" class="st21" d="M408.6,222.6c-2.8-7.9,18.9-1,25.2-4.6c9.5-5.4,12.9-3.5,10.6,0.2c-2.3,3.7-3.7,5-14.3,5
			C419.5,223.3,410.2,227.3,408.6,222.6"/>
		<path id="XMLID_24_" class="st19" d="M411.2,254.1c2,2.4,4.9,3.7,7.5,3.9c3.9,0.3,5.1-3.3,3.4-6.6c-1.5-2.9-5.4-6.6-8.9-5.4
			C409.6,247.2,408.9,251.3,411.2,254.1"/>
		<path id="XMLID_23_" class="st6" d="M456.4,385.7c0,0-1.2,101-3.9,135.2c-3,37.5-10.5,113.5-10.5,113.5h-21.5
			c0,0-0.5-69.7,1.7-106.3c2.4-41.7-5.9-137.1-5.9-137.1L456.4,385.7z"/>
		<path id="XMLID_22_" class="st22" d="M456.4,385.7c0,0-1.2,101-3.9,135.2c-3,37.5-10.5,113.5-10.5,113.5h-21.5
			c0,0-0.5-69.7,1.7-106.3c2.4-41.7-5.9-137.1-5.9-137.1L456.4,385.7z"/>
		<polygon id="XMLID_21_" class="st21" points="444.5,634.9 419.2,634.9 418.6,626.9 445.9,626.9 		"/>
		<path id="XMLID_20_" class="st21" d="M433.2,243.3c0.1,0.9,0.7,1.6,1.3,1.5c0.6-0.1,1-0.9,0.9-1.8c-0.1-0.9-0.7-1.6-1.3-1.5
			C433.5,241.5,433.1,242.4,433.2,243.3"/>
		<path id="XMLID_19_" class="st21" d="M443.8,241.9c0.1,0.9,0.7,1.6,1.3,1.5c0.6-0.1,1-0.9,0.9-1.8c-0.1-0.9-0.7-1.6-1.3-1.5
			C444.1,240.1,443.7,240.9,443.8,241.9"/>
		<path id="XMLID_18_" class="st28" d="M440.5,242.8c0,0,2.9,5.1,5.6,7.4c-1.4,1.8-4.4,1.4-4.4,1.4L440.5,242.8z"/>
		<path id="XMLID_17_" class="st21" d="M438.1,254.7c0.4,0,0.8,0,1.2-0.1c0.2,0,0.3-0.2,0.2-0.3c0-0.2-0.2-0.3-0.3-0.2
			c-4.1,0.5-6.4-2.1-6.4-2.1c-0.1-0.1-0.3-0.1-0.4,0c-0.1,0.1-0.1,0.3,0,0.4C432.5,252.4,434.5,254.7,438.1,254.7"/>
		<path id="XMLID_16_" class="st21" d="M429.5,240.3c0.2,0,0.4-0.1,0.5-0.3c1.2-2.2,3.3-2.3,3.3-2.3c0.3,0,0.5-0.3,0.5-0.6
			c0-0.3-0.3-0.5-0.6-0.5c-0.1,0-2.7,0.2-4.2,2.9c-0.2,0.3-0.1,0.6,0.2,0.8C429.3,240.3,429.4,240.3,429.5,240.3"/>
		<path id="XMLID_15_" class="st21" d="M447.9,237.6c0.1,0,0.2,0,0.3-0.1c0.3-0.2,0.3-0.5,0.2-0.8c-1.7-2.6-4.3-2.6-4.4-2.6
			c-0.3,0-0.6,0.3-0.6,0.6c0,0.3,0.3,0.6,0.6,0.6c0.1,0,2.1,0,3.4,2.1C447.5,237.5,447.7,237.6,447.9,237.6"/>
		<path class="st6" d="M441,651c0.9,0,1.7-0.2,2.3-0.6c0.4-0.4,0.6-0.8,0.6-1.5c0-0.5-0.3-0.7-0.5-0.8c-1.3-0.7-5.1,1.7-5.5,1.9
			c-0.1,0.1-0.1,0.2-0.1,0.3c0,0.1,0.1,0.2,0.2,0.2C438.8,650.8,439.9,651,441,651 M442.8,648.6c0.1,0,0.3,0,0.4,0.1
			c0.1,0,0.2,0.1,0.2,0.3c0,0.4-0.1,0.8-0.4,1c-0.6,0.5-2.2,0.6-4.2,0.2C440.1,649.5,441.9,648.6,442.8,648.6"/>
		<path class="st6" d="M438,650.6c0,0,0.1,0,0.1,0c1.2-0.7,3.6-3.2,3.3-4.5c0-0.2-0.2-0.6-0.9-0.7c-0.4,0-0.8,0.1-1.2,0.4
			c-1.4,1.1-1.6,4.5-1.7,4.6c0,0.1,0,0.2,0.1,0.3C437.9,650.6,438,650.6,438,650.6 M440.4,645.9c0,0,0.1,0,0.1,0
			c0.4,0,0.4,0.2,0.4,0.3c0.1,0.8-1.3,2.7-2.6,3.6c0.1-1,0.5-3,1.4-3.7C439.9,645.9,440.2,645.9,440.4,645.9"/>
		<path id="XMLID_10_" class="st19" d="M408.5,308.7l-3,4.4c-1,1.5-2,3-3,4.6c-1.9,3.1-3.9,6.1-5.6,9.3c-3.7,6.2-6.9,12.6-9.5,18.9
			l-0.9,2.4l-0.4,1c0-0.1,0-0.1,0-0.1c-0.1-0.1-0.2,0.7,0.2,1.7c0.7,2.1,2.6,4.9,4.7,7.5c2.1,2.6,4.6,5.2,7.1,7.8
			c1.3,1.3,2.6,2.6,3.9,3.8l4,3.7l-4.8,7.4c-7.2-3.6-13.8-7.7-20.1-13.2c-3.1-2.9-6.2-5.9-8.7-10.6c-1.2-2.4-2.4-5.4-2.2-9.2
			c0-1,0.2-1.9,0.4-2.9l0.1-0.5l0.1-0.4l0.2-0.8l0.9-3c2.5-7.8,5.8-15.2,9.5-22.1c1.9-3.5,3.8-6.9,6-10.2c1-1.7,2.1-3.3,3.2-4.9
			c1.1-1.7,2.2-3.2,3.5-4.9L408.5,308.7z"/>
		<path id="XMLID_9_" class="st21" d="M399,290.6c-10.6,3.7-22.3,32.4-22.3,32.4l25.9,12c0,0,7-10.4,9.7-24.6
			C415.4,294.9,411.8,286.1,399,290.6"/>
		<path id="XMLID_8_" class="st19" d="M407.4,374.8l2.9,7.9l-12.9,1.8c0,0-3.6-9.7,1.4-12.2l4.2,0.1
			C404.8,372.3,406.5,373.2,407.4,374.8"/>
		<polygon id="XMLID_7_" class="st19" points="409,391.8 399.1,393.3 397.5,384.4 410.4,382.6 		"/>
	</g>
	<g>
		<path id="XMLID_6_" class="st29" d="M575.2,263.9c-0.3-3.1-1.1-6.1-2.2-8.9l1.4-0.6c1.2,3,2,6.1,2.3,9.3L575.2,263.9z"/>
		<path id="XMLID_5_" class="st29" d="M569,247.8c-3.8-5.4-9.1-9.6-15.2-12l0.6-1.4c6.4,2.6,11.9,6.9,15.9,12.5L569,247.8z"/>
		<path id="XMLID_4_" class="st29" d="M541,303.6c-19.8,0-35.9-16.1-35.9-35.9h1.5c0,18.9,15.4,34.4,34.4,34.4V303.6z"/>
		<path id="XMLID_3_" class="st29" d="M571.6,267.7c0,16.9-13.7,30.6-30.6,30.6c-16.9,0-30.6-13.7-30.6-30.6
			c0-16.9,13.7-30.6,30.6-30.6C557.9,237.1,571.6,250.8,571.6,267.7"/>
		<path id="XMLID_2_" class="st5" d="M548.1,257.1l-3.9,1.4c1-1.8,1-5.5-1.1-9.2c-0.5-0.9-1.5-1.1-2.4-1.1c-1.3,0.1-2.2,1.2-2.2,2.5
			c0.1,3.5-0.7,10.5-7.7,11.8l-1.5,1.9l5.9,17l2.9-0.6c1.1-0.1,7.7-1,11.9-1.6c2.3-0.3,4.4-1.4,6-3.1c1.8-1.9,2.7-4.5,2.6-7.1
			l-0.8-7.8c-0.3-3.1-3.3-5.3-6.4-4.7L548.1,257.1z"/>
		<path id="XMLID_1_" class="st21" d="M530.1,284.6l5.5-1.6c0.8-0.2,1.3-1.1,1.1-2l-5.3-18.4c-0.2-0.8-1.1-1.3-2-1.1l-5.5,1.6
			c-0.8,0.2-1.3,1.1-1.1,2l5.3,18.4C528.4,284.4,529.3,284.9,530.1,284.6"/>
	</g>
</g>
</svg>
