<svg xmlns="http://www.w3.org/2000/svg" viewBox="0 0 100.49 68.27"><defs><style>.cls-1{isolation:isolate;}.cls-2,.cls-7{fill:#e6e6e6;}.cls-3{fill:#fff;}.cls-4{fill:#333;}.cls-5{fill:#a14723;}.cls-6{fill:#d65e2f;}.cls-7{mix-blend-mode:multiply;}.cls-8{fill:#659cd0;}</style></defs><g class="cls-1"><g id="Layer_1" data-name="Layer 1"><path class="cls-2" d="M576,573.7c0,1.18-11.87,2.13-26.72,2.13s-26.89-1-26.89-2.13,12-2.14,26.89-2.14S576,572.52,576,573.7Z" transform="translate(-490.47 -507.56)"/><path class="cls-3" d="M579.54,529.71c.54,1.44,1.22,3.24.38,4.69s-2.93,2.19-4.32,3.13l-.09.06q-1.35-5.33-3.1-10.53c1.31-.12,2.61-.3,3.92-.32a2.18,2.18,0,0,1,1.71.42A6.46,6.46,0,0,1,579.54,529.71Z" transform="translate(-490.47 -507.56)"/><path class="cls-2" d="M575.13,536.14c.13.48.26,1,.38,1.45l.09-.06c1.39-.94,3.45-1.61,4.32-3.13.71-1.23.33-2.71-.13-4C579.43,533.39,577.06,535.17,575.13,536.14Z" transform="translate(-490.47 -507.56)"/><path class="cls-3" d="M536.49,570.15c-1.3.78-2.57,1.68-3.92,2.36-.77.39-1.81.79-2.58.16a6.59,6.59,0,0,1-1.06-1.34,51.88,51.88,0,0,1-3.78-7.05,59.18,59.18,0,0,1-3.38-8.82q4.83-.84,9.59-2a44,44,0,0,0,4.51,9.09c.45.66.92,1.32,1.4,2a9.68,9.68,0,0,1,1.74,2.26C539.63,568.43,537.65,569.46,536.49,570.15Z" transform="translate(-490.47 -507.56)"/><path class="cls-3" d="M574.52,557.93l-.7-.19c-2.63-.67-5.24-1.4-7.85-2.15a120,120,0,0,0-13-3.28,57.34,57.34,0,0,0-14.69-.46c-1.21.11-2.42.26-3.63.42-1.84-6.17-3.62-12.36-5.16-18.61,9-4,16.46-10.93,23.25-17.89,1.23-1.25,2.43-2.52,3.65-3.78a26.5,26.5,0,0,1,2.38-2.24c.32-.26.65-.52,1-.76a43.84,43.84,0,0,1,3.42,7.43c1.35,3.38,2.61,6.8,3.82,10.23.81,2.28,1.64,4.57,2.31,6.89,1.09,3.74,2,7.55,2.83,11.35A106.78,106.78,0,0,1,574.52,557.93Z" transform="translate(-490.47 -507.56)"/><path class="cls-4" d="M586.87,530.68c1.29.12,2.59.19,3.89.35.27,0,.27.46,0,.43-1.3-.16-2.6-.23-3.89-.35C586.59,531.09,586.59,530.65,586.87,530.68Z" transform="translate(-490.47 -507.56)"/><path class="cls-4" d="M584.43,523.48l2.91-2.83a.22.22,0,0,1,.3.31c-1,.94-1.94,1.88-2.9,2.83C584.54,524,584.23,523.68,584.43,523.48Z" transform="translate(-490.47 -507.56)"/><path class="cls-4" d="M583.42,538.5a37.24,37.24,0,0,1,3.18,3c.19.2-.12.5-.31.3a40.36,40.36,0,0,0-3.17-3C582.9,538.63,583.21,538.33,583.42,538.5Z" transform="translate(-490.47 -507.56)"/><path class="cls-4" d="M577.9,515.47c-.11,1.66-.19,3.32-.31,5,0,.28-.45.28-.43,0,.12-1.66.2-3.32.31-5C577.49,515.19,577.92,515.19,577.9,515.47Z" transform="translate(-490.47 -507.56)"/><path class="cls-4" d="M523.69,543.54c.24-.12.81-.4.24-.82-.17-.12-.84.07-1.06.13-.49.13-1,.31-1.45.47a16.43,16.43,0,0,0-2.43.79c-.56.3-.72.79,0,.86a2.85,2.85,0,0,0,.69-.15c.45-.1.91-.23,1.35-.36A17.29,17.29,0,0,0,523.69,543.54Zm-2.39-.63c.51-.18,3.67-1.41,3.34.2-.1.53-.65.79-1.1,1-.81.31-1.66.57-2.49.82-.67.21-3.12,1.2-3-.32,0-.51.39-.7.82-.88C519.66,543.37,520.5,543.17,521.3,542.91Z" transform="translate(-490.47 -507.56)"/><path class="cls-4" d="M523.22,539.63c-.06-.08-.32-.08-.41-.09a7.82,7.82,0,0,0-2.77.71,5,5,0,0,0-2.21.9.36.36,0,0,0,.15.62c.1,0,.27,0,.37-.07.91-.18,1.81-.41,2.7-.67a13.54,13.54,0,0,0,1.47-.52,2,2,0,0,0,.46-.23C523.1,540.18,523.42,539.83,523.22,539.63Zm-3.29.2c.82-.27,3-1.33,3.79-.39s-2,1.84-2.56,2c-.73.22-1.48.41-2.23.58a3.35,3.35,0,0,1-1.13.19.73.73,0,0,1-.39-1.26A5.35,5.35,0,0,1,519.93,539.83Z" transform="translate(-490.47 -507.56)"/><path class="cls-4" d="M534,552.36h0l.17,0c-1.82-6.15-3.59-12.31-5.13-18.53q-5.65,1.35-11.27,2.87c-1.37.38-3.29.6-4.3,1.69s-.7,3.19-.54,4.57a21.62,21.62,0,0,0,2.92,8.65,15,15,0,0,0,2.62,3.5c.75.66,2.1.16,3,0l2.46-.44q5-1,10-2.27Zm2.53,17.79c1.16-.69,3.14-1.72,2.52-3.38a9.68,9.68,0,0,0-1.74-2.26c-.48-.64-.95-1.3-1.4-2a44,44,0,0,1-4.51-9.09q-4.75,1.15-9.59,2a59.18,59.18,0,0,0,3.38,8.82,51.88,51.88,0,0,0,3.78,7.05,6.59,6.59,0,0,0,1.06,1.34c.77.63,1.81.23,2.58-.16C533.92,571.83,535.19,570.93,536.49,570.15Zm37.33-12.41.7.19a106.78,106.78,0,0,0-2.39-13c-.85-3.8-1.74-7.61-2.83-11.35-.67-2.32-1.5-4.61-2.31-6.89-1.21-3.43-2.47-6.85-3.82-10.23a43.84,43.84,0,0,0-3.42-7.43c-.36.24-.69.5-1,.76a26.5,26.5,0,0,0-2.38,2.24c-1.22,1.26-2.42,2.53-3.65,3.78-6.79,7-14.26,13.89-23.25,17.89,1.54,6.25,3.32,12.44,5.16,18.61,1.21-.16,2.42-.31,3.63-.42a57.34,57.34,0,0,1,14.69.46,120,120,0,0,1,13,3.28C568.58,556.34,571.19,557.07,573.82,557.74Zm1.78-20.21c1.39-.94,3.45-1.61,4.32-3.13s.16-3.25-.38-4.69a6.46,6.46,0,0,0-1.5-2.55,2.18,2.18,0,0,0-1.71-.42c-1.31,0-2.61.2-3.92.32q1.74,5.21,3.1,10.53Zm4.77-3c-.87,1.69-3.06,2.42-4.55,3.42a.86.86,0,0,1-.2.13q.89,3.51,1.58,7c.51,2.55.88,5.11,1.22,7.68.21,1.61.55,3.94-.79,5.2a2.54,2.54,0,0,1-1.85.62,17.05,17.05,0,0,1-3.65-.82c-2.61-.69-5.2-1.44-7.79-2.18a90,90,0,0,0-13.72-3.17,63.26,63.26,0,0,0-16.55.37l-2.29.59c1.56,4,3.42,8.14,6.3,11.45.89,1,2,2.24,1.18,3.68-.68,1.16-2.27,1.88-3.39,2.52-1.42.82-2.86,2.13-4.52,2.39-1.32.2-2-.7-2.65-1.66a51.2,51.2,0,0,1-4.12-7.65,59.17,59.17,0,0,1-3.24-8.55h0a6.91,6.91,0,0,1-2.34.26,2.59,2.59,0,0,1-1.36-1.06,21.55,21.55,0,0,1-2.69-4,22.18,22.18,0,0,1-2.51-9c-.07-1.37-.15-2.93,1-3.9s2.89-1.21,4.28-1.59q5.72-1.56,11.47-2.93c1.2-.53,2.38-1.12,3.53-1.75,8.63-4.79,15.69-11.89,22.47-18.94a23.73,23.73,0,0,1,4.77-4.24c1.53-.92,3.45-1.39,4.65.24a35.75,35.75,0,0,1,3.74,7.47q2.16,5.17,4,10.53a30.72,30.72,0,0,1,4.78-.32c1.66.12,2.39,1.91,2.9,3.28S581.17,532.94,580.37,534.48Zm-2.27,21.46a12,12,0,0,0-.14-3.38c-.16-1.33-.34-2.66-.56-4-.42-2.54-.93-5.07-1.52-7.57A149.44,149.44,0,0,0,567,514.21c-.58-1.3-1.19-2.59-1.88-3.83s-1.33-2.53-2.85-2.41a4.93,4.93,0,0,0-2.17.79,49.3,49.3,0,0,1,3.91,8.63c1.33,3.39,2.57,6.8,3.77,10.24.79,2.25,1.58,4.5,2.2,6.79,1.12,4.07,2.1,8.19,3,12.31a98.56,98.56,0,0,1,2,11.3,3,3,0,0,0,1.95-.1A2.51,2.51,0,0,0,578.1,555.94Z" transform="translate(-490.47 -507.56)"/><path class="cls-5" d="M523.22,539.63c.2.2-.12.55-.24.65a2,2,0,0,1-.46.23,13.54,13.54,0,0,1-1.47.52c-.89.26-1.79.49-2.7.67-.1,0-.27.1-.37.07a.36.36,0,0,1-.15-.62,5,5,0,0,1,2.21-.9,7.82,7.82,0,0,1,2.77-.71C522.9,539.55,523.16,539.55,523.22,539.63Z" transform="translate(-490.47 -507.56)"/><path class="cls-5" d="M523.93,542.72c.57.42,0,.7-.24.82a17.29,17.29,0,0,1-2.65.92c-.44.13-.9.26-1.35.36a2.85,2.85,0,0,1-.69.15c-.73-.07-.57-.56,0-.86a16.43,16.43,0,0,1,2.43-.79c.48-.16,1-.34,1.45-.47C523.09,542.79,523.76,542.6,523.93,542.72Z" transform="translate(-490.47 -507.56)"/><path class="cls-6" d="M578,552.56a12,12,0,0,1,.14,3.38,2.51,2.51,0,0,1-1.19,2,3,3,0,0,1-1.95.1,98.56,98.56,0,0,0-2-11.3c-.89-4.12-1.87-8.24-3-12.31-.62-2.29-1.41-4.54-2.2-6.79-1.2-3.44-2.44-6.85-3.77-10.24a49.3,49.3,0,0,0-3.91-8.63,4.93,4.93,0,0,1,2.17-.79c1.52-.12,2.22,1.27,2.85,2.41s1.3,2.53,1.88,3.83A149.44,149.44,0,0,1,575.88,541c.59,2.5,1.1,5,1.52,7.57C577.62,549.9,577.8,551.23,578,552.56Z" transform="translate(-490.47 -507.56)"/><path class="cls-6" d="M534.18,552.33l-.17,0h-.1q-4.95,1.3-10,2.27l-2.46.44c-.88.16-2.23.66-3,0a15,15,0,0,1-2.62-3.5,21.62,21.62,0,0,1-2.92-8.65c-.16-1.38-.51-3.46.54-4.57s2.93-1.31,4.3-1.69q5.61-1.51,11.27-2.87C530.59,540,532.36,546.18,534.18,552.33Zm-9.54-9.22c.33-1.61-2.83-.38-3.34-.2-.8.26-1.64.46-2.43.79-.43.18-.78.37-.82.88-.12,1.52,2.33.53,3,.32.83-.25,1.68-.51,2.49-.82C524,543.9,524.54,543.64,524.64,543.11Zm-3.48-1.67c.53-.16,3.42-.94,2.56-2s-3,.12-3.79.39a5.35,5.35,0,0,0-2.52,1.12.73.73,0,0,0,.39,1.26,3.35,3.35,0,0,0,1.13-.19C519.68,541.85,520.43,541.66,521.16,541.44Z" transform="translate(-490.47 -507.56)"/><path class="cls-7" d="M575,558a3,3,0,0,0,1.95-.1,2.51,2.51,0,0,0,1.19-2,12,12,0,0,0-.14-3.38c-.1-.84-.21-1.68-.33-2.53q-2.08-.84-4.26-1.5A85.19,85.19,0,0,1,575,558Z" transform="translate(-490.47 -507.56)"/><path class="cls-2" d="M533.28,547.73c.44,1.51.89,3,1.34,4.54,1.21-.16,2.42-.31,3.63-.42a57.34,57.34,0,0,1,14.69.46,120,120,0,0,1,13,3.28c2.61.75,5.22,1.48,7.85,2.15l.7.19a86.35,86.35,0,0,0-1.61-9.54C560.51,544.79,545.88,545.62,533.28,547.73Z" transform="translate(-490.47 -507.56)"/><path class="cls-7" d="M518.48,555.08c.75.66,2.1.16,3,0l2.46-.44q5-1,10-2.27h.1l.17,0c-.44-1.51-.89-3-1.33-4.53-6.38,1.08-12.23,2.49-17,3.79A14.74,14.74,0,0,0,518.48,555.08Z" transform="translate(-490.47 -507.56)"/><path class="cls-2" d="M525.51,559.3c-.1-2.28,3.81-3.71,6.41-4.41-.19-.48-.38-.95-.56-1.43q-4.75,1.15-9.59,2a59.18,59.18,0,0,0,3.38,8.82,51.88,51.88,0,0,0,3.78,7.05,6.59,6.59,0,0,0,1.06,1.34,2.22,2.22,0,0,0,2.4-.08C530.11,569.07,525.62,561.85,525.51,559.3Z" transform="translate(-490.47 -507.56)"/><path class="cls-3" d="M516.44,545.92c.59.75-.23,1.54-.77,2a23.57,23.57,0,0,1-4.66,2.72c-1.28.63-2.62.34-4,.17-.94-.12-2.15-.44-2.87.34a6.73,6.73,0,0,0-1.5,4,7.41,7.41,0,0,0,0,1.7l0,.14a5.88,5.88,0,0,0,.39,1.37c.65,1.51,1.46,2.94,2.05,4.47a5.56,5.56,0,0,1,0,3.56,21.06,21.06,0,0,1-1.83,4,20.09,20.09,0,0,1-1.45,2.44,2.22,2.22,0,0,1-1.68,1c-.74,0-.79-.75-.7-1.31.33-2.29,2.08-4.23,2.26-6.55.09-1.14-.93-1.93-1.79-2.5s-1.65-1-2.49-1.42a6.74,6.74,0,0,1-2.3-1.63c-1.29-1.75-.64-3.64,0-5.5a26.51,26.51,0,0,1,2.52-5.56,6.34,6.34,0,0,1,1.41-1.68,4,4,0,0,1,1.83-.57,12.86,12.86,0,0,1,3.15.22c1.67.27,3.26,1,4.93,1.16s3.1-1,4.49-1.7C514.05,546.41,515.91,545.25,516.44,545.92Z" transform="translate(-490.47 -507.56)"/><path class="cls-3" d="M512.4,541.75c0-.08,0-.16,0-.23l-.39.33a16.69,16.69,0,0,1-3.6,2.39h0a5.36,5.36,0,0,1-1.95,3.09l.67.2a18.81,18.81,0,0,0,5.54-3.62C512.53,543.2,512.44,542.47,512.4,541.75Z" transform="translate(-490.47 -507.56)"/><path class="cls-3" d="M505.32,538.33c3.35,1.52,3.78,6.88.57,8.85a14.71,14.71,0,0,0-5-.54h-.12a6.16,6.16,0,0,0-.94.16c-2.5-1.3-2.53-4.6-1.13-6.73a5.34,5.34,0,0,1,5.81-2A4.5,4.5,0,0,1,505.32,538.33Zm.67,4.42c0,.28.45.16.41-.11a6,6,0,0,0-.32-1.26c-.1-.26-.52-.15-.42.12A5.36,5.36,0,0,1,506,542.75Z" transform="translate(-490.47 -507.56)"/><path class="cls-4" d="M506.08,541.38a6,6,0,0,1,.32,1.26c0,.27-.38.39-.41.11a5.36,5.36,0,0,0-.33-1.25C505.56,541.23,506,541.12,506.08,541.38Z" transform="translate(-490.47 -507.56)"/><path class="cls-8" d="M504.53,556.06c.07.38-.27.72-.53,1l-1-.44a8.15,8.15,0,0,1,.54-3.75A6.87,6.87,0,0,1,504,552a20,20,0,0,0,.16,2.57C504.25,555.06,504.44,555.55,504.53,556.06Z" transform="translate(-490.47 -507.56)"/><path class="cls-3" d="M499.5,563.58c-.16.73-.26,1.48-.49,2.2a6.59,6.59,0,0,1-1.66,2.56,25.68,25.68,0,0,1-4.6,3.85,2.54,2.54,0,0,1-1.17.53c-.63,0-.83-.69-.69-1.21a5,5,0,0,1,1.18-1.84c.91-1,2-1.94,2.89-3,1.16-1.43,1-3.29,1-5C497.11,562.34,498.39,562.85,499.5,563.58Z" transform="translate(-490.47 -507.56)"/><path class="cls-4" d="M516.55,545.41c-.57-.42-1.47.09-2,.32-.89.38-1.73.84-2.57,1.29a5.44,5.44,0,0,1-2.86,1,7.59,7.59,0,0,1-1.36-.25,19.12,19.12,0,0,0,4.81-3.15l.18-.16-.09-.5a18.81,18.81,0,0,1-5.54,3.62l-.67-.2a5.36,5.36,0,0,0,1.95-3.09h0a16.69,16.69,0,0,0,3.6-2.39l.39-.33c0-.17,0-.35,0-.52a22.77,22.77,0,0,1-3.9,2.73,5.36,5.36,0,0,0-1.58-4.8,5.65,5.65,0,0,0-1.42-.94,5.89,5.89,0,0,0-3.51-.46,5.48,5.48,0,0,0-4.28,3.52,5,5,0,0,0,1.59,6,3.24,3.24,0,0,0-.36.2l0,0a10.3,10.3,0,0,0-2.74,4c-.44.95-.83,1.91-1.19,2.89a16.94,16.94,0,0,0-1,3.18,4.36,4.36,0,0,0,1.62,4.06h0s0,0,0,0a21.8,21.8,0,0,1-.18,3.33,4.41,4.41,0,0,1-1.3,2.23,18.92,18.92,0,0,0-3.33,3.77c-.59,1.07-.33,2.87,1.27,2.31a9.2,9.2,0,0,0,2.42-1.54,32.25,32.25,0,0,0,2.51-2.17,9.22,9.22,0,0,0,2.22-2.79,14,14,0,0,0,.71-2.71,6,6,0,0,1,.81.7,1.66,1.66,0,0,1,.54,1.65,9.94,9.94,0,0,1-.59,1.77,32.83,32.83,0,0,0-1.49,3.82c-.21.79-.37,2,.59,2.32s2.07-.53,2.59-1.31a24.36,24.36,0,0,0,3.14-6.34c.09-.28.16-.57.22-.85a5.23,5.23,0,0,0-.41-3.56c-.65-1.54-1.57-3-2.08-4.61l-.07-.25.82.37a.23.23,0,0,0,.3-.07,7.2,7.2,0,0,1,.77-1,.21.21,0,0,0,.06-.21,13.16,13.16,0,0,1-.65-4.83.07.07,0,0,0,0-.05,1.11,1.11,0,0,1,.67-.34,8.82,8.82,0,0,1,1.92.13c1.29.16,2.72.49,3.94-.1a26.6,26.6,0,0,0,4.81-2.75C516.58,547.74,517.8,546.33,516.55,545.41Zm-17.87-5.33a5.34,5.34,0,0,1,5.81-2,4.5,4.5,0,0,1,.83.28c3.35,1.52,3.78,6.88.57,8.85a14.71,14.71,0,0,0-5-.54h-.12a6.16,6.16,0,0,0-.94.16C497.31,545.51,497.28,542.21,498.68,540.08Zm.33,25.7a6.59,6.59,0,0,1-1.66,2.56,25.68,25.68,0,0,1-4.6,3.85,2.54,2.54,0,0,1-1.17.53c-.63,0-.83-.69-.69-1.21a5,5,0,0,1,1.18-1.84c.91-1,2-1.94,2.89-3,1.16-1.43,1-3.29,1-5,1.11.7,2.39,1.21,3.5,1.94C499.34,564.31,499.24,565.06,499,565.78Zm5.52-9.72c.07.38-.27.72-.53,1l-1-.44a8.15,8.15,0,0,1,.54-3.75A6.87,6.87,0,0,1,504,552a20,20,0,0,0,.16,2.57C504.25,555.06,504.44,555.55,504.53,556.06Zm11.14-8.16a23.57,23.57,0,0,1-4.66,2.72c-1.28.63-2.62.34-4,.17-.94-.12-2.15-.44-2.87.34a6.73,6.73,0,0,0-1.5,4,7.41,7.41,0,0,0,0,1.7l0,.14a5.88,5.88,0,0,0,.39,1.37c.65,1.51,1.46,2.94,2.05,4.47a5.56,5.56,0,0,1,0,3.56,21.06,21.06,0,0,1-1.83,4,20.09,20.09,0,0,1-1.45,2.44,2.22,2.22,0,0,1-1.68,1c-.74,0-.79-.75-.7-1.31.33-2.29,2.08-4.23,2.26-6.55.09-1.14-.93-1.93-1.79-2.5s-1.65-1-2.49-1.42a6.74,6.74,0,0,1-2.3-1.63c-1.29-1.75-.64-3.64,0-5.5a26.51,26.51,0,0,1,2.52-5.56,6.34,6.34,0,0,1,1.41-1.68,4,4,0,0,1,1.83-.57,12.86,12.86,0,0,1,3.15.22c1.67.27,3.26,1,4.93,1.16s3.1-1,4.49-1.7c.57-.29,2.43-1.45,3-.78S516.21,547.46,515.67,547.9Z" transform="translate(-490.47 -507.56)"/></g></g></svg>