<svg id="Layer_1" data-name="Layer 1" xmlns="http://www.w3.org/2000/svg" viewBox="0 0 792.56 653.85"><defs><style>.cls-1{fill:#e0e0e0;}.cls-2{fill:#fafbfb;}.cls-3{fill:#ebebeb;}.cls-4{fill:#f5f5f5;}.cls-5{fill:#263238;}.cls-6{fill:#455b64;}.cls-7{fill:#e7515b;}.cls-8{opacity:0.5;}.cls-9{fill:#fbbd9d;}.cls-10{fill:#fff;}.cls-11{fill:#ec996f;}.cls-12{opacity:0.2;}.cls-13,.cls-14{opacity:0.4;}</style></defs><path class="cls-1" d="M293,661.51v-2.13a8.93,8.93,0,0,1,8.93-8.93h75.27a8.93,8.93,0,0,1,8.93,8.93v2.13Z" transform="translate(-41.32 -43.5)"/><path class="cls-1" d="M336.59,566l-27.23,84.42h58.17l-25.28-84.36A3,3,0,0,0,336.59,566Z" transform="translate(-41.32 -43.5)"/><polygon class="cls-2" points="286.4 550.02 309.15 550.02 318.99 582.85 275.82 582.85 286.4 550.02"/><path class="cls-3" d="M297.88,99.32l-7.48-13L278.69,88,269,75.86l5-12.1-13.06-8.67-9.75,9.84-12.84-2.25-5.21-15.11-15.61,1.65-.88,13.21L205,68.34l-12.31-8.72-12.48,9.1,6.49,14-7.43,11.19-13.5-.71-3.53,16.65,12.85,4.94,1.1,14-13.31,7.65,6.36,14.43L183,148.7l9.13,10.54-4.77,13.14L200,181.3l9.86-10.67,13.67,3.7,4.25,14.11,15.19-1,2-12.68,13-7.48,10.66,8.51,13.48-10.05-6.82-11.86,6.64-11.9,13.67,1,4.19-15.5-11.73-6.35L286.51,107ZM245,144.91A30.71,30.71,0,1,1,256.3,103,30.71,30.71,0,0,1,245,144.91Z" transform="translate(-41.32 -43.5)"/><path class="cls-3" d="M243.27,109.35a35.89,35.89,0,0,0-2.53-3.08,16.2,16.2,0,0,0-9.5-4.65,15.88,15.88,0,0,0-14.18,5.58,14.71,14.71,0,0,0-2.4,3.88,15.05,15.05,0,0,0-1.23,4.59,15.82,15.82,0,0,0,9.34,16.26,15.9,15.9,0,0,0,9.15,1.14,15.9,15.9,0,0,0,12-9.43,16.21,16.21,0,0,0,.78-10.55,36.63,36.63,0,0,0-1.39-3.74,12.69,12.69,0,0,1,1.67,3.65,16.11,16.11,0,0,1-.56,10.85A16.39,16.39,0,0,1,232,133.77a16.53,16.53,0,0,1-9.57-1.15,16.48,16.48,0,0,1-9.79-17,16.67,16.67,0,0,1,3.84-8.85,16.58,16.58,0,0,1,7.21-4.93,16.38,16.38,0,0,1,7.58-.73,16.19,16.19,0,0,1,9.65,5A12.75,12.75,0,0,1,243.27,109.35Z" transform="translate(-41.32 -43.5)"/><path class="cls-3" d="M257.88,75.15c.17.12-4,6.76-9.31,14.84s-9.77,14.53-9.95,14.41,4-6.76,9.31-14.83S257.7,75,257.88,75.15Z" transform="translate(-41.32 -43.5)"/><path class="cls-3" d="M273,128.9a29.78,29.78,0,0,1-4.14-1.16c-2.53-.76-6-1.78-10-2.74s-7.5-1.67-10.1-2.15a30.08,30.08,0,0,1-4.21-.88,20.16,20.16,0,0,1,4.29.34A100.38,100.38,0,0,1,269,127.23,19.73,19.73,0,0,1,273,128.9Z" transform="translate(-41.32 -43.5)"/><path class="cls-3" d="M236,132.45a17.56,17.56,0,0,1,1.33,3.59c.71,2.25,1.58,5.4,2.4,8.91s1.41,6.72,1.77,9.05a16.71,16.71,0,0,1,.39,3.81,21.39,21.39,0,0,1-.92-3.71c-.5-2.3-1.18-5.48-2-9s-1.6-6.65-2.17-8.93A21.84,21.84,0,0,1,236,132.45Z" transform="translate(-41.32 -43.5)"/><path class="cls-3" d="M219.46,130.57c.18.11-2.55,5-6.1,10.85s-6.57,10.56-6.75,10.45,2.55-5,6.09-10.85S219.27,130.46,219.46,130.57Z" transform="translate(-41.32 -43.5)"/><path class="cls-3" d="M217.1,78.22c.21-.06,2,5,3.92,11.41s3.39,11.58,3.19,11.64-2-5-3.92-11.41S216.9,78.28,217.1,78.22Z" transform="translate(-41.32 -43.5)"/><path class="cls-3" d="M213.63,114.37c0,.21-4.32,0-9.6-.53s-9.54-1.09-9.52-1.3,4.32,0,9.6.53S213.65,114.16,213.63,114.37Z" transform="translate(-41.32 -43.5)"/><path class="cls-3" d="M240.17,111.13a12.67,12.67,0,1,1-17.29-4.67A12.68,12.68,0,0,1,240.17,111.13Z" transform="translate(-41.32 -43.5)"/><path class="cls-1" d="M235.3,117.54c-.12.2-2.52-2-6.28-2.41s-6.57,1.23-6.65,1,.57-.6,1.76-1.1a10.46,10.46,0,0,1,9.68,1C234.88,116.83,235.37,117.47,235.3,117.54Z" transform="translate(-41.32 -43.5)"/><path class="cls-1" d="M230.23,110.11c.2.13-1.33,2.53-1.92,5.9s0,6.14-.25,6.19-1.16-2.77-.5-6.33S230.09,110,230.23,110.11Z" transform="translate(-41.32 -43.5)"/><path class="cls-1" d="M463.77,363.09l-9.68-16.86-15.16,2.23-12.51-15.72,6.45-15.66L416,305.87l-12.61,12.72-16.62-2.91L380,296.14l-20.2,2.13-1.14,17.09-15,7.64L327.7,311.73l-16.15,11.76,8.39,18.09-9.61,14.49-17.47-.93-4.56,21.54,16.62,6.4,1.43,18.1-17.23,9.89,8.23,18.68L315.19,427,327,440.62l-6.18,17,16.34,11.54,12.75-13.79,17.68,4.78,5.51,18.26,19.65-1.33,2.54-16.4L412.15,451l13.79,11,17.43-13-8.81-15.35,8.59-15.4,17.68,1.31,5.42-20.05-15.17-8.22-2-18.26Zm-68.48,59A39.74,39.74,0,1,1,410,367.83,39.74,39.74,0,0,1,395.29,422.08Z" transform="translate(-41.32 -43.5)"/><path class="cls-1" d="M393.11,376.07a37,37,0,0,0-3.24-4A21,21,0,0,0,377.56,366a20.66,20.66,0,0,0-18.44,7.22,20.76,20.76,0,0,0-4.72,11,20.54,20.54,0,0,0,12.14,21.15,20.62,20.62,0,0,0,11.9,1.48,20.83,20.83,0,0,0,16.51-26,38,38,0,0,0-1.84-4.82s.07.09.19.28l.48.88a8.48,8.48,0,0,1,.7,1.47,15.2,15.2,0,0,1,.76,2.1,19.9,19.9,0,0,1,.85,6.06,21.18,21.18,0,0,1-7.36,15.88,21.3,21.3,0,0,1-10.16,4.82,21.29,21.29,0,0,1-12.33-1.49,21.26,21.26,0,0,1-12.59-21.93,21.33,21.33,0,0,1,4.93-11.39,21.46,21.46,0,0,1,9.28-6.35,21.27,21.27,0,0,1,17.43,1.65,20.07,20.07,0,0,1,4.8,3.79,16.37,16.37,0,0,1,1.44,1.71,9.3,9.3,0,0,1,.92,1.35l.51.86A1.2,1.2,0,0,1,393.11,376.07Z" transform="translate(-41.32 -43.5)"/><path class="cls-1" d="M412,331.82c.18.12-5.25,8.68-12.13,19.13s-12.6,18.83-12.78,18.71,5.25-8.68,12.13-19.13S411.83,331.7,412,331.82Z" transform="translate(-41.32 -43.5)"/><path class="cls-1" d="M431.53,401.35a48.35,48.35,0,0,1-5.33-1.56c-3.27-1-7.81-2.34-12.89-3.58s-9.71-2.15-13.09-2.76a52.41,52.41,0,0,1-5.45-1.06,5.93,5.93,0,0,1,1.5.05c1,.08,2.34.24,4,.47,3.4.47,8.09,1.31,13.19,2.55s9.63,2.66,12.87,3.81c1.62.57,2.92,1.07,3.81,1.44A6,6,0,0,1,431.53,401.35Z" transform="translate(-41.32 -43.5)"/><path class="cls-1" d="M383.76,406a27.76,27.76,0,0,1,1.64,4.67c.89,2.92,2,7,3.07,11.53s1.84,8.69,2.33,11.7a28.76,28.76,0,0,1,.58,4.91,34.42,34.42,0,0,1-1.12-4.81c-.62-3-1.49-7.1-2.54-11.63s-2.09-8.6-2.84-11.55A36.83,36.83,0,0,1,383.76,406Z" transform="translate(-41.32 -43.5)"/><path class="cls-1" d="M362.3,403.52c.18.11-3.39,6.37-8,14s-8.46,13.69-8.64,13.58,3.39-6.37,8-14S362.12,403.41,362.3,403.52Z" transform="translate(-41.32 -43.5)"/><path class="cls-1" d="M359.26,335.79c.2-.07,2.42,6.56,5,14.8s4.43,15,4.23,15-2.43-6.56-5-14.8S359.05,335.85,359.26,335.79Z" transform="translate(-41.32 -43.5)"/><path class="cls-1" d="M354.76,382.56c0,.21-5.58-.15-12.4-.8S330,380.41,330,380.19s5.58.15,12.41.8S354.78,382.34,354.76,382.56Z" transform="translate(-41.32 -43.5)"/><circle class="cls-1" cx="374.88" cy="386.53" r="16.39" transform="translate(-109.32 649.29) rotate(-80.54)"/><path class="cls-3" d="M382.8,386.66a25.26,25.26,0,0,1-2.25-1.34,15.22,15.22,0,0,0-12-1.3,22.72,22.72,0,0,1-2.48.82,5.71,5.71,0,0,1,2.31-1.33,13.63,13.63,0,0,1,12.45,1.35C382.21,385.79,382.87,386.59,382.8,386.66Z" transform="translate(-41.32 -43.5)"/><path class="cls-3" d="M376.24,377.05c.21.12-1.83,3.22-2.59,7.61s0,8-.22,8-1.38-3.6-.54-8.17S376.11,376.91,376.24,377.05Z" transform="translate(-41.32 -43.5)"/><path class="cls-4" d="M469.43,78.06l-4.87-8.49-7.63,1.12-6.3-7.91,3.25-7.88-8.51-5.65L439,55.66l-8.36-1.47-3.39-9.83-10.16,1.07-.58,8.6L409,57.88l-8-5.68-8.13,5.93,4.23,9.1-4.84,7.29-8.79-.47-2.3,10.85,8.36,3.22.72,9.11-8.67,5,4.15,9.4,9-1.39,5.95,6.86-3.11,8.56,8.22,5.8,6.42-6.94,8.9,2.41,2.77,9.19,9.9-.67,1.27-8.25,8.49-4.87,6.94,5.54,8.78-6.55-4.44-7.73,4.32-7.75,8.9.66,2.73-10.09L463,92.25l-1-9.19ZM435,107.75a20,20,0,1,1,7.39-27.31A20,20,0,0,1,435,107.75Z" transform="translate(-41.32 -43.5)"/><path class="cls-4" d="M433.86,84.59a19.08,19.08,0,0,0-1.62-2,10.5,10.5,0,0,0-6.2-3,10.29,10.29,0,0,0-4.78.51,10.45,10.45,0,0,0-4.5,3.12,10.33,10.33,0,0,0-2.38,5.55,10.36,10.36,0,0,0,6.11,10.65,10.45,10.45,0,0,0,6,.74,10.47,10.47,0,0,0,5-2.32,10.3,10.3,0,0,0,2.85-3.86,10.54,10.54,0,0,0,.49-6.89,17.18,17.18,0,0,0-.93-2.43.68.68,0,0,1,.1.14l.25.44a6,6,0,0,1,.35.75,8.84,8.84,0,0,1,.38,1,10.13,10.13,0,0,1,.43,3,10.77,10.77,0,0,1-3.71,8,10.81,10.81,0,0,1-5.12,2.42,10.28,10.28,0,0,1-3.09.1,9.94,9.94,0,0,1-3.11-.85,10.69,10.69,0,0,1-6.34-11,10.91,10.91,0,0,1,2.48-5.74,10.91,10.91,0,0,1,4.68-3.2,10.64,10.64,0,0,1,8.77.84,10,10,0,0,1,2.42,1.9,8.2,8.2,0,0,1,.72.86,6.3,6.3,0,0,1,.46.68c.1.18.19.32.26.44S433.87,84.59,433.86,84.59Z" transform="translate(-41.32 -43.5)"/><path class="cls-4" d="M443.38,62.32c.09.06-2.65,4.37-6.11,9.63s-6.34,9.48-6.43,9.42S433.49,77,437,71.74,443.29,62.26,443.38,62.32Z" transform="translate(-41.32 -43.5)"/><path class="cls-4" d="M453.2,97.32a26.85,26.85,0,0,1-2.68-.79c-1.65-.51-3.93-1.18-6.48-1.8s-4.9-1.08-6.59-1.39a25.14,25.14,0,0,1-2.75-.54,3.65,3.65,0,0,1,.76,0c.48,0,1.17.12,2,.24,1.71.24,4.07.66,6.64,1.28s4.85,1.34,6.48,1.92c.81.29,1.47.54,1.91.72A2.59,2.59,0,0,1,453.2,97.32Z" transform="translate(-41.32 -43.5)"/><path class="cls-4" d="M429.16,99.63A14.14,14.14,0,0,1,430,102c.45,1.47,1,3.52,1.54,5.8s.93,4.38,1.17,5.9a14,14,0,0,1,.3,2.47,15.81,15.81,0,0,1-.57-2.42c-.31-1.51-.75-3.58-1.28-5.86s-1-4.33-1.43-5.81A18.41,18.41,0,0,1,429.16,99.63Z" transform="translate(-41.32 -43.5)"/><path class="cls-4" d="M418.36,98.41c.09,0-1.71,3.2-4,7s-4.26,6.9-4.35,6.84,1.71-3.21,4-7S418.27,98.35,418.36,98.41Z" transform="translate(-41.32 -43.5)"/><path class="cls-4" d="M416.83,64.31c.1,0,1.22,3.31,2.49,7.45s2.23,7.54,2.13,7.57S420.23,76,419,71.88A77.54,77.54,0,0,1,416.83,64.31Z" transform="translate(-41.32 -43.5)"/><path class="cls-4" d="M414.56,87.86a53,53,0,0,1-6.24-.41,51.2,51.2,0,0,1-6.21-.78,49.33,49.33,0,0,1,6.25.4A49.94,49.94,0,0,1,414.56,87.86Z" transform="translate(-41.32 -43.5)"/><path class="cls-4" d="M431.85,85.75a8.25,8.25,0,1,1-11.27-3A8.26,8.26,0,0,1,431.85,85.75Z" transform="translate(-41.32 -43.5)"/><path class="cls-3" d="M428.68,89.92a11.62,11.62,0,0,1-1.14-.67,7.87,7.87,0,0,0-3-1,8,8,0,0,0-3.08.29,12.32,12.32,0,0,1-1.26.42,2.83,2.83,0,0,1,1.17-.67,6.83,6.83,0,0,1,3.21-.43,7,7,0,0,1,3.06,1.1A3,3,0,0,1,428.68,89.92Z" transform="translate(-41.32 -43.5)"/><path class="cls-3" d="M425.37,85.09a19.84,19.84,0,0,0-1.3,3.82,19.76,19.76,0,0,0-.11,4,8.54,8.54,0,0,1,1.41-7.86Z" transform="translate(-41.32 -43.5)"/><path class="cls-4" d="M263.67,287l-12.26-21.36-19.21,2.82-15.86-19.92,8.18-19.84L203.1,214.48l-16,16.12-21.05-3.69-8.54-24.76-25.59,2.7-1.45,21.66-19.06,9.68L91.25,221.9,70.78,236.81l10.63,22.93L69.23,278.09,47.1,276.91l-5.78,27.3,21.06,8.11,1.81,22.94L42.36,347.79,52.8,371.46,75.39,368l15,17.28-7.83,21.54,20.7,14.62,16.16-17.48L141.8,410l7,23.14,24.91-1.68,3.22-20.78,21.36-12.27,17.47,13.95,22.1-16.47L226.66,376.4l10.88-19.51L260,358.54l6.87-25.4-19.23-10.41L245,299.58ZM176.9,361.74A50.35,50.35,0,1,1,195.49,293,50.36,50.36,0,0,1,176.9,361.74Z" transform="translate(-41.32 -43.5)"/><path class="cls-4" d="M174.13,303.44a45.08,45.08,0,0,0-4.1-5.09,26.52,26.52,0,0,0-15.6-7.69,26.23,26.23,0,0,0-23.37,9.15,26.28,26.28,0,0,0-6,14,26,26,0,0,0,15.39,26.8,26.13,26.13,0,0,0,15.08,1.88,26.41,26.41,0,0,0,20.91-32.92,46.15,46.15,0,0,0-2.33-6.1s.1.11.24.36l.62,1.11a12.27,12.27,0,0,1,.89,1.87,18.33,18.33,0,0,1,1,2.66,25.08,25.08,0,0,1,1.08,7.67,26.89,26.89,0,0,1-9.32,20.13,27,27,0,0,1-12.89,6.1,27.06,27.06,0,0,1-15.62-1.88,26.93,26.93,0,0,1-16-27.79,27.05,27.05,0,0,1,6.25-14.44,27.08,27.08,0,0,1,11.76-8.05,27,27,0,0,1,22.09,2.1,25.25,25.25,0,0,1,6.08,4.8,19.76,19.76,0,0,1,1.82,2.17,11.49,11.49,0,0,1,1.16,1.7l.65,1.1C174.08,303.3,174.15,303.43,174.13,303.44Z" transform="translate(-41.32 -43.5)"/><path class="cls-4" d="M198.09,247.36c.22.15-6.66,11-15.38,24.25s-16,23.86-16.19,23.71,6.66-11,15.38-24.25S197.86,247.22,198.09,247.36Z" transform="translate(-41.32 -43.5)"/><path class="cls-4" d="M222.82,335.48c0,.14-2.61-.71-6.76-2s-9.9-3-16.32-4.53-12.32-2.73-16.59-3.5a65.62,65.62,0,0,1-6.91-1.34,6.61,6.61,0,0,1,1.9.06c1.21.1,3,.3,5.12.6,4.31.6,10.25,1.65,16.71,3.23s12.21,3.37,16.31,4.83c2.05.72,3.7,1.35,4.82,1.82A7.52,7.52,0,0,1,222.82,335.48Z" transform="translate(-41.32 -43.5)"/><path class="cls-4" d="M162.29,341.3a37.78,37.78,0,0,1,2.08,5.92c1.13,3.7,2.55,8.86,3.89,14.61s2.33,11,2.94,14.83a36.85,36.85,0,0,1,.75,6.22c-.14,0-.64-2.32-1.43-6.1s-1.88-9-3.21-14.73-2.65-10.9-3.61-14.65A45,45,0,0,1,162.29,341.3Z" transform="translate(-41.32 -43.5)"/><path class="cls-4" d="M135.09,338.22c.24.14-4.29,8.07-10.11,17.71s-10.72,17.35-11,17.21,4.3-8.06,10.12-17.71S134.86,338.08,135.09,338.22Z" transform="translate(-41.32 -43.5)"/><path class="cls-4" d="M131.24,252.39c.25-.08,3.07,8.32,6.28,18.75s5.62,19,5.36,19.05-3.07-8.32-6.29-18.76S131,252.47,131.24,252.39Z" transform="translate(-41.32 -43.5)"/><path class="cls-4" d="M125.54,311.66c0,.27-7.07-.19-15.72-1s-15.65-1.72-15.63-2,7.07.19,15.72,1S125.56,311.39,125.54,311.66Z" transform="translate(-41.32 -43.5)"/><circle class="cls-4" cx="151.04" cy="316.7" r="20.77" transform="translate(-236.45 330.41) rotate(-73.89)"/><path class="cls-3" d="M161.07,316.85a28.26,28.26,0,0,1-2.85-1.69,19.29,19.29,0,0,0-15.2-1.64c-1.94.58-3.08,1.17-3.15,1s1-.92,2.92-1.7a17.33,17.33,0,0,1,15.79,1.71C160.33,315.75,161.15,316.77,161.07,316.85Z" transform="translate(-41.32 -43.5)"/><path class="cls-3" d="M152.75,304.69c.27.15-2.31,4.07-3.27,9.63s0,10.13-.29,10.17-1.75-4.55-.67-10.34S152.59,304.51,152.75,304.69Z" transform="translate(-41.32 -43.5)"/><path class="cls-4" d="M830.73,274l-12.27-21.36-19.2,2.82L783.4,235.58l8.17-19.84-21.41-14.21-16,16.12-21-3.69-8.53-24.76L699,191.9l-1.45,21.66-19.06,9.68L658.3,209l-20.47,14.9,10.64,22.93-12.18,18.35L614.16,264l-5.78,27.31,21.06,8.1,1.81,22.94-21.83,12.53,10.43,23.67,22.6-3.5,15,17.28-7.83,21.53,20.7,14.62L686.45,391,708.86,397l7,23.14,24.91-1.68L744,397.7l21.35-12.26,17.48,13.94,22.1-16.47-11.18-19.46L804.6,344,827,345.6l6.87-25.41-19.23-10.41-2.56-23.14ZM744,348.79a50.35,50.35,0,1,1,18.59-68.74A50.35,50.35,0,0,1,744,348.79Z" transform="translate(-41.32 -43.5)"/><path class="cls-4" d="M741.19,290.49a47.82,47.82,0,0,0-4.1-5.09,26.52,26.52,0,0,0-15.61-7.69,26.2,26.2,0,0,0-23.36,9.16,26.2,26.2,0,0,0-6,14,26.07,26.07,0,0,0,15.39,26.81,26.23,26.23,0,0,0,15.08,1.87A26.24,26.24,0,0,0,742.29,314a26.59,26.59,0,0,0,1.23-17.36,46.15,46.15,0,0,0-2.33-6.1,1.67,1.67,0,0,1,.24.36l.62,1.11a11.86,11.86,0,0,1,.88,1.87,18.71,18.71,0,0,1,1,2.66,25.13,25.13,0,0,1,1.08,7.67,26.89,26.89,0,0,1-9.32,20.13,27.13,27.13,0,0,1-12.89,6.11,27.18,27.18,0,0,1-15.62-1.89,26.91,26.91,0,0,1-15.95-27.79,27.07,27.07,0,0,1,6.24-14.43,27.09,27.09,0,0,1,11.77-8.05,26.92,26.92,0,0,1,22.09,2.09,25.25,25.25,0,0,1,6.08,4.8,18.52,18.52,0,0,1,1.81,2.17,12,12,0,0,1,1.17,1.71l.65,1.09A1.62,1.62,0,0,1,741.19,290.49Z" transform="translate(-41.32 -43.5)"/><path class="cls-4" d="M765.14,234.42c.23.14-6.66,11-15.37,24.24s-16,23.86-16.19,23.71,6.65-11,15.37-24.25S764.92,234.27,765.14,234.42Z" transform="translate(-41.32 -43.5)"/><path class="cls-4" d="M789.87,322.53c0,.14-2.6-.7-6.75-2s-9.9-3-16.33-4.53-12.31-2.73-16.58-3.5a65.62,65.62,0,0,1-6.91-1.34,7.08,7.08,0,0,1,1.9.06c1.21.1,3,.3,5.12.6,4.31.6,10.24,1.66,16.7,3.23s12.21,3.37,16.32,4.83c2,.73,3.7,1.35,4.82,1.82A7,7,0,0,1,789.87,322.53Z" transform="translate(-41.32 -43.5)"/><path class="cls-4" d="M729.35,328.36a36.37,36.37,0,0,1,2.07,5.91c1.14,3.7,2.56,8.86,3.89,14.61s2.34,11,3,14.83.87,6.2.74,6.22a46.11,46.11,0,0,1-1.42-6.09c-.79-3.78-1.89-9-3.22-14.74s-2.64-10.9-3.6-14.64S729.21,328.4,729.35,328.36Z" transform="translate(-41.32 -43.5)"/><path class="cls-4" d="M702.15,325.27c.23.14-4.3,8.07-10.11,17.72s-10.72,17.35-10.95,17.21,4.3-8.07,10.11-17.72S701.92,325.13,702.15,325.27Z" transform="translate(-41.32 -43.5)"/><path class="cls-4" d="M698.29,239.44c.26-.08,3.08,8.32,6.29,18.76s5.62,19,5.36,19-3.07-8.32-6.29-18.76S698,239.52,698.29,239.44Z" transform="translate(-41.32 -43.5)"/><path class="cls-4" d="M692.59,298.71c0,.27-7.06-.19-15.71-1s-15.65-1.72-15.63-2,7.06.18,15.72,1S692.62,298.44,692.59,298.71Z" transform="translate(-41.32 -43.5)"/><circle class="cls-4" cx="718.1" cy="303.75" r="20.77" transform="translate(193.89 872.41) rotate(-74.66)"/><path class="cls-3" d="M728.13,303.91a32.79,32.79,0,0,1-2.85-1.7,19.31,19.31,0,0,0-15.21-1.64c-1.94.58-3.07,1.17-3.14,1s1-.92,2.92-1.69a17.26,17.26,0,0,1,15.79,1.71C727.38,302.8,728.21,303.83,728.13,303.91Z" transform="translate(-41.32 -43.5)"/><path class="cls-3" d="M719.81,291.74c.27.15-2.31,4.07-3.28,9.63s0,10.13-.28,10.17-1.75-4.55-.68-10.34S719.65,291.56,719.81,291.74Z" transform="translate(-41.32 -43.5)"/><path class="cls-4" d="M604.31,406.09l-6-10.51L588.83,397l-7.8-9.8,4-9.75-10.53-7-7.86,7.93-10.35-1.82-4.2-12.17-12.58,1.33-.71,10.65-9.38,4.76-9.92-7-10.07,7.33,5.23,11.28-6,9-10.88-.58L495,414.56l10.35,4,.9,11.28L495.48,436l5.13,11.64,11.11-1.73,7.36,8.5L515.23,465l10.18,7.19,8-8.6,11,3,3.43,11.38,12.25-.83,1.58-10.21,10.5-6,8.59,6.85,10.87-8.1-5.5-9.57,5.36-9.59,11,.81,3.38-12.49-9.46-5.12-1.26-11.38Zm-42.67,36.75a24.76,24.76,0,1,1,9.14-33.8A24.76,24.76,0,0,1,561.64,442.84Z" transform="translate(-41.32 -43.5)"/><path class="cls-4" d="M560.28,414.18a23.06,23.06,0,0,0-2-2.51,13,13,0,0,0-19.16.72,12.34,12.34,0,0,0-2,3.15,11.89,11.89,0,0,0-1,3.72,12.8,12.8,0,0,0,7.56,13.18,11.86,11.86,0,0,0,3.72,1,12,12,0,0,0,3.7-.1,12.91,12.91,0,0,0,9.68-7.65,13,13,0,0,0,.6-8.53,22,22,0,0,0-1.14-3,.81.81,0,0,1,.11.17l.31.55a5.76,5.76,0,0,1,.43.92,8.53,8.53,0,0,1,.47,1.31,12.17,12.17,0,0,1,.53,3.77,13.21,13.21,0,0,1-4.58,9.9,13.33,13.33,0,0,1-6.34,3,13.22,13.22,0,0,1-7.68-.93,13.25,13.25,0,0,1-7.84-13.66,13.24,13.24,0,0,1,3.07-7.1,13.31,13.31,0,0,1,5.79-4,13.27,13.27,0,0,1,10.86,1,12.41,12.41,0,0,1,3,2.36,9.47,9.47,0,0,1,.89,1.07,5,5,0,0,1,.57.84c.13.21.24.39.32.54A1.14,1.14,0,0,1,560.28,414.18Z" transform="translate(-41.32 -43.5)"/><path class="cls-4" d="M572.06,386.6c.11.08-3.28,5.41-7.56,11.93s-7.86,11.73-8,11.66,3.28-5.42,7.56-11.93S572,386.53,572.06,386.6Z" transform="translate(-41.32 -43.5)"/><path class="cls-4" d="M584.22,429.93a29.05,29.05,0,0,1-3.32-1c-2-.64-4.87-1.46-8-2.24s-6.06-1.33-8.16-1.71a28.34,28.34,0,0,1-3.4-.67,3.55,3.55,0,0,1,.94,0c.59,0,1.45.14,2.52.29,2.12.3,5,.81,8.21,1.59s6,1.66,8,2.37c1,.36,1.82.67,2.37.9A3.69,3.69,0,0,1,584.22,429.93Z" transform="translate(-41.32 -43.5)"/><path class="cls-4" d="M554.45,432.8a17.1,17.1,0,0,1,1,2.91c.56,1.81,1.26,4.35,1.92,7.18s1.14,5.41,1.45,7.29a17.93,17.93,0,0,1,.36,3.06,22,22,0,0,1-.7-3c-.38-1.86-.92-4.42-1.58-7.24s-1.3-5.36-1.77-7.2A24.32,24.32,0,0,1,554.45,432.8Z" transform="translate(-41.32 -43.5)"/><path class="cls-4" d="M541.08,431.28c.11.07-2.11,4-5,8.71s-5.27,8.53-5.39,8.46,2.12-4,5-8.71S541,431.21,541.08,431.28Z" transform="translate(-41.32 -43.5)"/><path class="cls-4" d="M539.18,389.07c.13,0,1.51,4.1,3.1,9.23a97,97,0,0,1,2.63,9.36c-.13,0-1.51-4.09-3.09-9.22S539.06,389.11,539.18,389.07Z" transform="translate(-41.32 -43.5)"/><path class="cls-4" d="M536.38,418.22a62.72,62.72,0,0,1-7.73-.5,62,62,0,0,1-7.68-1,61.43,61.43,0,0,1,7.73.49A63.47,63.47,0,0,1,536.38,418.22Z" transform="translate(-41.32 -43.5)"/><circle class="cls-4" cx="548.92" cy="420.7" r="10.21" transform="translate(-60.88 771.05) rotate(-72.18)"/><path class="cls-3" d="M553.86,420.77a11.33,11.33,0,0,1-1.41-.83,10,10,0,0,0-3.65-1.18,9.78,9.78,0,0,0-3.82.37,13.69,13.69,0,0,1-1.55.51,3.57,3.57,0,0,1,1.44-.83,8.53,8.53,0,0,1,7.76.84A3.69,3.69,0,0,1,553.86,420.77Z" transform="translate(-41.32 -43.5)"/><path class="cls-3" d="M549.76,414.79a25.69,25.69,0,0,0-1.61,4.74,24.56,24.56,0,0,0-.14,5,10.61,10.61,0,0,1,1.75-9.74Z" transform="translate(-41.32 -43.5)"/><path class="cls-1" d="M676.2,110.46,666.52,93.6l-15.15,2.23L638.85,80.1l6.45-15.65L628.41,53.23,615.79,66,599.18,63,592.44,43.5l-20.19,2.14L571.1,62.73l-15,7.64L540.13,59.09,524,70.86,532.37,89l-9.61,14.48-17.47-.92-4.56,21.54,16.62,6.39,1.43,18.11-17.23,9.89,8.24,18.68,17.83-2.77L539.44,188l-6.18,17,16.33,11.54,12.75-13.79L580,207.51l5.5,18.26,19.66-1.33,2.54-16.4,16.85-9.68,13.79,11,17.44-13L647,181l8.59-15.39,17.68,1.3,5.43-20-15.18-8.22-2-18.26Zm-68.47,59A39.73,39.73,0,1,1,622.4,115.2,39.74,39.74,0,0,1,607.73,169.44Z" transform="translate(-41.32 -43.5)"/><path class="cls-1" d="M605.54,123.44a36.34,36.34,0,0,0-3.23-4A20.9,20.9,0,0,0,590,113.35a20.7,20.7,0,0,0-18.44,7.23,20.76,20.76,0,0,0-4.72,11A20.56,20.56,0,0,0,579,152.75a19.41,19.41,0,0,0,6,1.64,19.64,19.64,0,0,0,5.94-.16,20.87,20.87,0,0,0,9.87-4.6,20.66,20.66,0,0,0,5.66-7.68,21,21,0,0,0,1-13.7,35.57,35.57,0,0,0-1.84-4.81s.08.09.19.28l.49.88a10.25,10.25,0,0,1,.7,1.47,16.16,16.16,0,0,1,.75,2.1,19.88,19.88,0,0,1,.85,6.05,21.22,21.22,0,0,1-7.35,15.89A21.34,21.34,0,0,1,591,154.93a21.29,21.29,0,0,1-12.33-1.49,21.26,21.26,0,0,1-12.59-21.93,20.06,20.06,0,0,1,1.68-6.18,19.82,19.82,0,0,1,3.25-5.21,21.2,21.2,0,0,1,26.72-4.7,19.75,19.75,0,0,1,4.79,3.79,14.22,14.22,0,0,1,1.44,1.71,9.3,9.3,0,0,1,.92,1.35l.51.86A1.2,1.2,0,0,1,605.54,123.44Z" transform="translate(-41.32 -43.5)"/><path class="cls-1" d="M624.44,79.19c.18.11-5.25,8.68-12.13,19.13s-12.6,18.83-12.78,18.71,5.26-8.68,12.14-19.13S624.27,79.07,624.44,79.19Z" transform="translate(-41.32 -43.5)"/><path class="cls-1" d="M644,148.72a48.35,48.35,0,0,1-5.33-1.56c-3.27-1-7.81-2.34-12.88-3.59s-9.72-2.14-13.09-2.75a51.69,51.69,0,0,1-5.45-1.06,4.86,4.86,0,0,1,1.49.05c1,.07,2.34.23,4,.47a133.89,133.89,0,0,1,13.19,2.55c5.1,1.24,9.63,2.66,12.87,3.81,1.62.57,2.92,1.07,3.81,1.44A5.71,5.71,0,0,1,644,148.72Z" transform="translate(-41.32 -43.5)"/><path class="cls-1" d="M596.2,153.32a29.64,29.64,0,0,1,1.63,4.67c.9,2.92,2,7,3.08,11.53s1.84,8.69,2.32,11.7a28.19,28.19,0,0,1,.59,4.91,35.66,35.66,0,0,1-1.13-4.81c-.62-3-1.48-7.1-2.53-11.63s-2.09-8.6-2.85-11.56A33.48,33.48,0,0,1,596.2,153.32Z" transform="translate(-41.32 -43.5)"/><path class="cls-1" d="M574.73,150.89c.19.11-3.39,6.37-8,14s-8.45,13.69-8.64,13.58,3.39-6.37,8-14S574.55,150.78,574.73,150.89Z" transform="translate(-41.32 -43.5)"/><path class="cls-1" d="M571.69,83.15c.2-.06,2.42,6.57,5,14.8s4.43,15,4.23,15-2.43-6.56-5-14.8S571.49,83.22,571.69,83.15Z" transform="translate(-41.32 -43.5)"/><path class="cls-1" d="M567.19,129.92c0,.22-5.57-.14-12.4-.79s-12.35-1.36-12.33-1.57,5.57.15,12.4.8S567.21,129.71,567.19,129.92Z" transform="translate(-41.32 -43.5)"/><circle class="cls-1" cx="587.32" cy="133.9" r="16.39" transform="translate(-55.67 119.85) rotate(-15.65)"/><path class="cls-3" d="M595.24,134a19.46,19.46,0,0,1-2.26-1.33,15.58,15.58,0,0,0-5.86-1.89,15.76,15.76,0,0,0-6.13.59,22.4,22.4,0,0,1-2.49.82,5.71,5.71,0,0,1,2.31-1.33,13.57,13.57,0,0,1,12.46,1.35A5.8,5.8,0,0,1,595.24,134Z" transform="translate(-41.32 -43.5)"/><path class="cls-3" d="M588.67,124.42c.21.12-1.83,3.22-2.59,7.6s0,8-.22,8-1.38-3.59-.53-8.16S588.55,124.28,588.67,124.42Z" transform="translate(-41.32 -43.5)"/><path class="cls-3" d="M377.61,142.73l-2.51-4.37-3.93.58-3.24-4.08,1.67-4.06-4.38-2.9L362,131.19l-4.3-.75-1.75-5.06-5.23.55-.3,4.43-3.9,2-4.13-2.92-4.18,3.05,2.17,4.68-2.49,3.76-4.53-.24-1.18,5.58,4.31,1.66.37,4.69-4.47,2.57,2.14,4.84,4.62-.72,3.06,3.53-1.6,4.41,4.23,3,3.31-3.58,4.58,1.24,1.43,4.74,5.09-.35.66-4.25,4.37-2.51,3.57,2.86,4.52-3.37L370,161l2.23-4,4.58.33,1.4-5.19L374.32,150l-.52-4.73ZM359.86,158A10.3,10.3,0,1,1,363.67,144,10.3,10.3,0,0,1,359.86,158Z" transform="translate(-41.32 -43.5)"/><path class="cls-3" d="M359.3,146.09c-.06,0-.31-.38-.92-1a5.42,5.42,0,0,0-3.14-1.45,5.19,5.19,0,0,0-4.55,1.84,5.11,5.11,0,1,0,8.64,5.29,5.48,5.48,0,0,0,.34-3.44,10.87,10.87,0,0,1-.37-1.28,2.8,2.8,0,0,1,.65,1.2,5.4,5.4,0,0,1-.11,3.73,5.69,5.69,0,0,1-4.27,3.49,5.78,5.78,0,0,1-5.42-9.45,5.68,5.68,0,0,1,5.16-1.92,5.36,5.36,0,0,1,3.28,1.78A2.79,2.79,0,0,1,359.3,146.09Z" transform="translate(-41.32 -43.5)"/><path class="cls-3" d="M364.2,134.62c.17.12-1.13,2.41-2.91,5.12s-3.37,4.81-3.55,4.69,1.12-2.4,2.91-5.11S364,134.51,364.2,134.62Z" transform="translate(-41.32 -43.5)"/><path class="cls-3" d="M369.25,152.65c-.08.2-2.17-.43-4.78-1.06s-4.77-1.05-4.74-1.27,2.25-.13,4.92.52S369.33,152.46,369.25,152.65Z" transform="translate(-41.32 -43.5)"/><path class="cls-3" d="M356.87,153.84c.2-.06,1,1.77,1.5,4.13s.69,4.34.48,4.37-.68-1.86-1.23-4.19S356.67,153.9,356.87,153.84Z" transform="translate(-41.32 -43.5)"/><path class="cls-3" d="M351.31,153.21c.18.11-.63,1.8-1.82,3.77s-2.3,3.48-2.49,3.37.64-1.8,1.83-3.77S351.13,153.1,351.31,153.21Z" transform="translate(-41.32 -43.5)"/><path class="cls-3" d="M350.52,135.65c.21-.06.9,1.62,1.56,3.75s1,3.92.82,4-.9-1.61-1.56-3.75S350.32,135.71,350.52,135.65Z" transform="translate(-41.32 -43.5)"/><path class="cls-3" d="M349.36,147.77c0,.22-1.48.25-3.25.08s-3.18-.48-3.16-.69,1.47-.24,3.24-.08S349.38,147.56,349.36,147.77Z" transform="translate(-41.32 -43.5)"/><path class="cls-3" d="M358.26,146.69a4.25,4.25,0,1,1-5.8-1.57A4.26,4.26,0,0,1,358.26,146.69Z" transform="translate(-41.32 -43.5)"/><path class="cls-1" d="M356.62,148.84c-.14.16-1-.44-2.13-.55s-2.09.27-2.2.08.81-1,2.28-.85S356.8,148.72,356.62,148.84Z" transform="translate(-41.32 -43.5)"/><path class="cls-1" d="M354.92,146.35c.18.13-.2,1-.39,2s-.12,2-.34,2-.64-.91-.41-2.17S354.77,146.22,354.92,146.35Z" transform="translate(-41.32 -43.5)"/><path class="cls-3" d="M787.19,124.45l-4.08-7.1-6.38.94-5.27-6.62,2.71-6.6-7.11-4.72-5.32,5.36-7-1.23-2.83-8.23-8.51.9-.48,7.2-6.34,3.22-6.7-4.75-6.81,5,3.54,7.62-4.05,6.1-7.36-.39-1.92,9.08,7,2.69.6,7.63-7.25,4.16,3.46,7.87,7.52-1.17,5,5.75-2.6,7.15,6.88,4.86,5.37-5.81,7.45,2L749,173l8.28-.56,1.07-6.91,7.09-4.07,5.81,4.63,7.35-5.47-3.72-6.47,3.62-6.48,7.45.55,2.28-8.45-6.39-3.46-.85-7.69ZM758.35,149.3a16.74,16.74,0,1,1,6.18-22.85A16.74,16.74,0,0,1,758.35,149.3Z" transform="translate(-41.32 -43.5)"/><path class="cls-3" d="M757.42,129.92c-.06,0-.44-.66-1.42-1.63a8.82,8.82,0,0,0-5.15-2.46,8.52,8.52,0,1,0,6.8,11.82,8.89,8.89,0,0,0,.47-5.68c-.35-1.34-.77-2-.7-2.05s.14.15.33.47a6.7,6.7,0,0,1,.66,1.5,8.92,8.92,0,0,1-.26,6,9.17,9.17,0,1,1-7.22-12.58,8.84,8.84,0,0,1,5.29,2.79,6.53,6.53,0,0,1,1,1.32C757.37,129.73,757.45,129.91,757.42,129.92Z" transform="translate(-41.32 -43.5)"/><path class="cls-3" d="M765.39,111.28c.17.12-2,3.78-4.93,8.18s-5.39,7.88-5.57,7.76,2-3.78,4.93-8.18S765.21,111.16,765.39,111.28Z" transform="translate(-41.32 -43.5)"/><path class="cls-3" d="M773.61,140.57c-.08.21-3.47-.92-7.73-1.95s-7.78-1.61-7.75-1.83,3.62,0,7.94,1.08S773.68,140.38,773.61,140.57Z" transform="translate(-41.32 -43.5)"/><path class="cls-3" d="M753.49,142.5c.2-.06,1.31,2.94,2.2,6.78s1.21,7,1,7.05-.87-3.08-1.76-6.88S753.28,142.57,753.49,142.5Z" transform="translate(-41.32 -43.5)"/><path class="cls-3" d="M744.45,141.48c.18.11-1.24,2.8-3.17,6s-3.65,5.72-3.83,5.61,1.24-2.8,3.17-6S744.27,141.37,744.45,141.48Z" transform="translate(-41.32 -43.5)"/><path class="cls-3" d="M743.17,113c.2-.06,1.23,2.7,2.3,6.17s1.77,6.33,1.57,6.39-1.24-2.69-2.31-6.16S743,113,743.17,113Z" transform="translate(-41.32 -43.5)"/><path class="cls-3" d="M741.27,132.65c0,.21-2.37.16-5.24-.11s-5.2-.67-5.18-.88,2.37-.16,5.25.11S741.29,132.44,741.27,132.65Z" transform="translate(-41.32 -43.5)"/><path class="cls-3" d="M755.74,130.89a6.91,6.91,0,1,1-9.43-2.55A6.91,6.91,0,0,1,755.74,130.89Z" transform="translate(-41.32 -43.5)"/><path class="cls-1" d="M753.08,134.38c-.14.17-1.46-.94-3.44-1.14s-3.5.57-3.6.37,1.39-1.38,3.69-1.13S753.26,134.27,753.08,134.38Z" transform="translate(-41.32 -43.5)"/><path class="cls-1" d="M750.32,130.33c.19.13-.56,1.45-.87,3.25s-.1,3.29-.31,3.34-.81-1.5-.45-3.48S750.17,130.2,750.32,130.33Z" transform="translate(-41.32 -43.5)"/><path class="cls-3" d="M259.48,461.9l-4.07-7.1-6.39.94-5.27-6.62,2.72-6.59-7.12-4.73L234,443.16l-7-1.23-2.84-8.23-8.5.9-.49,7.2L208.88,445l-6.71-4.75-6.8,5,3.53,7.61L194.85,459l-7.35-.4-1.93,9.08,7,2.69.61,7.63-7.26,4.16,3.47,7.87,7.51-1.16,5,5.74-2.61,7.16,6.88,4.86,5.37-5.81,7.45,2,2.32,7.69,8.28-.56,1.07-6.9,7.1-4.08,5.81,4.64,7.34-5.48-3.71-6.47,3.62-6.48,7.44.55,2.29-8.45-6.39-3.46-.86-7.69Zm-28.84,24.85a16.74,16.74,0,1,1,6.18-22.85A16.74,16.74,0,0,1,230.64,486.75Z" transform="translate(-41.32 -43.5)"/><path class="cls-3" d="M229.72,467.37c-.07,0-.44-.66-1.42-1.63a8.85,8.85,0,0,0-5.15-2.46,8.52,8.52,0,1,0,6.79,11.83,8.85,8.85,0,0,0,.47-5.69c-.35-1.34-.76-2-.69-2.05a1.83,1.83,0,0,1,.32.47,6.92,6.92,0,0,1,.66,1.5,8.8,8.8,0,0,1-.26,6,9.12,9.12,0,0,1-12.13,4.89,9.14,9.14,0,0,1-5.43-9.46,9.13,9.13,0,0,1,10.34-8,8.81,8.81,0,0,1,5.29,2.79,7.1,7.1,0,0,1,1,1.32A1.76,1.76,0,0,1,229.72,467.37Z" transform="translate(-41.32 -43.5)"/><path class="cls-3" d="M237.68,448.73c.18.12-2,3.78-4.92,8.18s-5.39,7.88-5.57,7.76,2-3.78,4.92-8.18S237.5,448.62,237.68,448.73Z" transform="translate(-41.32 -43.5)"/><path class="cls-3" d="M245.9,478c-.08.21-3.46-.92-7.72-1.95s-7.79-1.6-7.76-1.83,3.63,0,7.94,1.08S246,477.83,245.9,478Z" transform="translate(-41.32 -43.5)"/><path class="cls-3" d="M225.78,480c.2-.07,1.32,2.93,2.2,6.77s1.22,7,1,7-.87-3.07-1.76-6.88S225.57,480,225.78,480Z" transform="translate(-41.32 -43.5)"/><path class="cls-3" d="M216.74,478.93c.19.11-1.23,2.8-3.17,6s-3.64,5.71-3.83,5.6,1.24-2.8,3.17-6S216.56,478.82,216.74,478.93Z" transform="translate(-41.32 -43.5)"/><path class="cls-3" d="M215.46,450.4c.2-.06,1.24,2.7,2.3,6.17s1.78,6.33,1.57,6.4-1.23-2.7-2.3-6.17S215.26,450.47,215.46,450.4Z" transform="translate(-41.32 -43.5)"/><path class="cls-3" d="M213.57,470.1c0,.21-2.37.16-5.25-.11s-5.19-.67-5.17-.88,2.37-.16,5.24.11S213.59,469.89,213.57,470.1Z" transform="translate(-41.32 -43.5)"/><path class="cls-3" d="M228,468.34a6.9,6.9,0,1,1-9.42-2.55A6.89,6.89,0,0,1,228,468.34Z" transform="translate(-41.32 -43.5)"/><path class="cls-1" d="M225.38,471.83c-.14.17-1.47-.93-3.44-1.14s-3.51.58-3.61.38,1.4-1.38,3.69-1.14S225.56,471.72,225.38,471.83Z" transform="translate(-41.32 -43.5)"/><path class="cls-1" d="M222.61,467.79c.19.12-.56,1.44-.87,3.24s-.09,3.29-.31,3.34-.81-1.5-.44-3.48S222.46,467.65,222.61,467.79Z" transform="translate(-41.32 -43.5)"/><path class="cls-5" d="M478.81,423.7V412.9l-7.93-3.13-1.68-11,7.45-5.76-5-10.09-9.6,2.64-7.2-6L457,368.23l-10.33-4.56-5.28,7.93-9.37-.48-4.56-9.85-11,1.2-1,11-8.65,4.32-8.16-5.28-8.17,9.12,6.25,7.68-4.32,9.13H381.32l-1.2,11.28,9.36,3.61,1.92,9.84-7.68,6.48,4.68,10.09,10-3.12,7.2,7.2-2.4,10.33L413,459l5.76-7.21h10.8l3.6,9.13,12-1.44v-9.85l8.4-5,8.17,5.52,8.16-8.16-5-8.16,4.08-9.37Zm-49.35,9.49a22.1,22.1,0,1,1,22.09-22.09A22.09,22.09,0,0,1,429.46,433.19Z" transform="translate(-41.32 -43.5)"/><path class="cls-5" d="M441.15,410.4c-.09,0,0-1-.52-2.82a11.58,11.58,0,0,0-4.26-6.25,11.34,11.34,0,0,0-4.81-2.09,11.51,11.51,0,0,0-6,.52,11.21,11.21,0,0,0-5.24,4,11.28,11.28,0,0,0,0,13.36,11.21,11.21,0,0,0,5.24,4,11.51,11.51,0,0,0,6,.52,11.34,11.34,0,0,0,4.81-2.09,11.57,11.57,0,0,0,4.26-6.26c.48-1.77.43-2.82.52-2.81a3.13,3.13,0,0,1,0,.75,9.68,9.68,0,0,1-.26,2.14,11.65,11.65,0,0,1-4.23,6.61,11.86,11.86,0,0,1-5,2.29,12.12,12.12,0,0,1-6.32-.48,12,12,0,0,1,6.32-23.1,11.8,11.8,0,0,1,5,2.29,11.62,11.62,0,0,1,4.23,6.61,9.68,9.68,0,0,1,.26,2.14A3.13,3.13,0,0,1,441.15,410.4Z" transform="translate(-41.32 -43.5)"/><path class="cls-5" d="M462.51,394.3c.1.19-4.86,2.88-11.07,6s-11.32,5.52-11.42,5.33,4.86-2.89,11.07-6S462.41,394.11,462.51,394.3Z" transform="translate(-41.32 -43.5)"/><path class="cls-5" d="M452.67,433.23c-.18.14-3.27-3.42-7.48-7.4s-7.9-6.92-7.76-7.1a11,11,0,0,1,2.6,1.69,67.59,67.59,0,0,1,10.82,10.29A11.19,11.19,0,0,1,452.67,433.23Z" transform="translate(-41.32 -43.5)"/><path class="cls-5" d="M428.37,422.22c.2,0-.55,4.19-2.05,9.16s-3.17,8.84-3.36,8.77,1.14-4,2.62-9S428.15,422.17,428.37,422.22Z" transform="translate(-41.32 -43.5)"/><path class="cls-5" d="M418.69,415.11c.11.18-3.31,2.28-7.63,4.68s-7.91,4.19-8,4,3.32-2.28,7.64-4.68S418.59,414.92,418.69,415.11Z" transform="translate(-41.32 -43.5)"/><path class="cls-5" d="M436,381.61c.2,0-.48,3.87-1.54,8.54s-2.08,8.43-2.29,8.38.48-3.87,1.54-8.55S435.77,381.56,436,381.61Z" transform="translate(-41.32 -43.5)"/><path class="cls-5" d="M420.86,402.91c-.12.17-2.75-1.47-5.86-3.68s-5.53-4.13-5.41-4.3,2.74,1.47,5.86,3.67S421,402.74,420.86,402.91Z" transform="translate(-41.32 -43.5)"/><path class="cls-5" d="M438.57,410.4a9.11,9.11,0,1,1-9.11-9.11A9.11,9.11,0,0,1,438.57,410.4Z" transform="translate(-41.32 -43.5)"/><path class="cls-6" d="M433.25,412.65c-.21.09-1-2.1-3.12-3.66s-4.47-1.62-4.45-1.84.57-.23,1.51-.13a7.31,7.31,0,0,1,3.39,1.35,7.21,7.21,0,0,1,2.32,2.81C433.29,412,433.34,412.62,433.25,412.65Z" transform="translate(-41.32 -43.5)"/><path class="cls-6" d="M432.74,406.2c.1.21-1.67,1.19-3.22,3.06s-2.24,3.77-2.46,3.7.17-2.19,1.87-4.19S432.68,406,432.74,406.2Z" transform="translate(-41.32 -43.5)"/><path class="cls-7" d="M428.89,294.91l-7.31-12.73-11.44,1.69L400.69,272l4.87-11.82-12.76-8.46-9.52,9.6-12.55-2.2-5.08-14.75L350.4,246l-.86,12.9-11.36,5.77-12-8.51L314,265l6.34,13.66L313,289.61l-13.19-.7-3.44,16.26L309,310,310,323.67l-13,7.47,6.22,14.1,13.46-2.09,8.92,10.3L321,366.28,333.3,375l9.62-10.41,13.36,3.61L360.43,382l14.84-1,1.92-12.38,12.73-7.31,10.41,8.31,13.16-9.81-6.65-11.6,6.48-11.62,13.35,1,4.1-15.14-11.46-6.21-1.53-13.78Zm-51.7,44.54a30,30,0,1,1,11.08-41A30,30,0,0,1,377.19,339.45Z" transform="translate(-41.32 -43.5)"/><path class="cls-5" d="M375.54,304.71a33.18,33.18,0,0,0-2.47-3,15.79,15.79,0,0,0-9.28-4.53A15.52,15.52,0,0,0,350,302.61a14.37,14.37,0,0,0-2.35,3.79,14.68,14.68,0,0,0-1.19,4.48,15.44,15.44,0,0,0,9.11,15.88A14.46,14.46,0,0,0,360,328a14.7,14.7,0,0,0,4.45-.12,15.59,15.59,0,0,0,11.69-9.21,15.82,15.82,0,0,0,.75-10.3,33.88,33.88,0,0,0-1.35-3.65,12.11,12.11,0,0,1,1.64,3.57,16,16,0,0,1-4.89,16.63,16.12,16.12,0,0,1-7.71,3.66,16.13,16.13,0,0,1-9.36-1.12,16.12,16.12,0,0,1-9.56-16.65,15.22,15.22,0,0,1,1.27-4.7,15.49,15.49,0,0,1,2.47-4,16.14,16.14,0,0,1,7.06-4.81,16,16,0,0,1,16.83,4.15A12.13,12.13,0,0,1,375.54,304.71Z" transform="translate(-41.32 -43.5)"/><path class="cls-5" d="M389.81,271.3c.18.12-3.89,6.61-9.08,14.5S371.18,300,371,299.88s3.88-6.61,9.08-14.5S389.64,271.18,389.81,271.3Z" transform="translate(-41.32 -43.5)"/><path class="cls-5" d="M404.55,323.8a26,26,0,0,1-4.05-1.12c-2.47-.75-5.9-1.74-9.73-2.67s-7.33-1.63-9.87-2.11a27.23,27.23,0,0,1-4.1-.87,19.57,19.57,0,0,1,4.19.33,97.74,97.74,0,0,1,10,1.9,95.06,95.06,0,0,1,9.71,2.91A20.07,20.07,0,0,1,404.55,323.8Z" transform="translate(-41.32 -43.5)"/><path class="cls-5" d="M368.49,327.27a17.42,17.42,0,0,1,1.3,3.51c.69,2.2,1.55,5.27,2.34,8.7s1.38,6.57,1.73,8.85a16.92,16.92,0,0,1,.38,3.72,19.43,19.43,0,0,1-.91-3.62c-.49-2.25-1.15-5.36-1.95-8.78s-1.56-6.49-2.12-8.72A19.29,19.29,0,0,1,368.49,327.27Z" transform="translate(-41.32 -43.5)"/><path class="cls-5" d="M352.28,325.44c.18.11-2.48,4.85-5.94,10.6s-6.43,10.31-6.61,10.2,2.48-4.85,5.95-10.6S352.1,325.33,352.28,325.44Z" transform="translate(-41.32 -43.5)"/><path class="cls-5" d="M350,274.3c.21-.07,1.92,4.92,3.84,11.14s3.3,11.31,3.1,11.38-1.92-4.93-3.84-11.15S349.78,274.36,350,274.3Z" transform="translate(-41.32 -43.5)"/><path class="cls-5" d="M346.59,309.61c0,.21-4.22,0-9.38-.51s-9.32-1.06-9.3-1.27,4.22,0,9.38.5S346.61,309.4,346.59,309.61Z" transform="translate(-41.32 -43.5)"/><circle class="cls-5" cx="361.78" cy="312.61" r="12.37" transform="translate(-124.88 95.09) rotate(-19.49)"/><path class="cls-6" d="M367.76,312.71c-.12.19-2.47-2-6.14-2.35s-6.41,1.2-6.49,1,.55-.59,1.72-1.08a10.17,10.17,0,0,1,9.46,1C367.35,312,367.83,312.64,367.76,312.71Z" transform="translate(-41.32 -43.5)"/><path class="cls-6" d="M362.8,305.45c.2.13-1.29,2.47-1.86,5.76s0,6-.26,6.05-1.14-2.71-.49-6.18S362.67,305.32,362.8,305.45Z" transform="translate(-41.32 -43.5)"/><path class="cls-5" d="M477.21,331l-2.51-4.37-3.93.58-3.24-4.08,1.67-4.06-4.38-2.9-3.27,3.29-4.3-.75-1.75-5.07-5.23.56-.3,4.43-3.9,2-4.13-2.93-4.18,3.05,2.17,4.69-2.49,3.76-4.53-.24-1.18,5.58,4.31,1.66.37,4.69-4.47,2.56,2.14,4.84,4.62-.71,3.06,3.53-1.6,4.41,4.23,3,3.31-3.58,4.58,1.24,1.43,4.73,5.09-.34.66-4.25,4.37-2.51,3.57,2.85,4.52-3.37-2.28-4,2.23-4,4.58.34,1.4-5.19-3.93-2.13-.52-4.74Zm-17.75,15.29a10.3,10.3,0,1,1,3.8-14.06A10.31,10.31,0,0,1,459.46,346.28Z" transform="translate(-41.32 -43.5)"/><path class="cls-5" d="M458.9,334.35c-.06,0-.31-.38-.92-1a5.42,5.42,0,0,0-3.14-1.45,5.19,5.19,0,0,0-4.55,1.84,5.1,5.1,0,0,0,4.76,8.29,5.19,5.19,0,0,0,3.88-3,5.4,5.4,0,0,0,.33-3.44,12.64,12.64,0,0,1-.36-1.28,2.8,2.8,0,0,1,.65,1.2,5.4,5.4,0,0,1-.11,3.73,5.69,5.69,0,0,1-4.27,3.49,5.78,5.78,0,0,1-5.43-9.45,5.69,5.69,0,0,1,5.17-1.92,5.36,5.36,0,0,1,3.28,1.78A2.79,2.79,0,0,1,458.9,334.35Z" transform="translate(-41.32 -43.5)"/><path class="cls-5" d="M463.79,322.88c.18.12-1.12,2.41-2.9,5.12s-3.37,4.81-3.55,4.69,1.12-2.41,2.9-5.12S463.62,322.77,463.79,322.88Z" transform="translate(-41.32 -43.5)"/><path class="cls-5" d="M468.85,340.9c-.08.21-2.17-.42-4.79-1s-4.76-1.05-4.73-1.27,2.25-.14,4.92.52S468.93,340.71,468.85,340.9Z" transform="translate(-41.32 -43.5)"/><path class="cls-5" d="M456.47,342.1c.2-.07.95,1.76,1.5,4.13s.68,4.34.48,4.37-.68-1.86-1.23-4.2S456.27,342.16,456.47,342.1Z" transform="translate(-41.32 -43.5)"/><path class="cls-5" d="M450.91,341.47c.18.11-.63,1.79-1.82,3.77s-2.31,3.48-2.49,3.37.64-1.8,1.83-3.77S450.73,341.36,450.91,341.47Z" transform="translate(-41.32 -43.5)"/><path class="cls-5" d="M450.12,323.91c.2-.06.9,1.62,1.56,3.75s1,3.92.82,4-.9-1.62-1.56-3.75S449.92,324,450.12,323.91Z" transform="translate(-41.32 -43.5)"/><path class="cls-5" d="M449,336c0,.21-1.48.25-3.25.08s-3.19-.48-3.16-.69,1.47-.25,3.24-.08S449,335.82,449,336Z" transform="translate(-41.32 -43.5)"/><path class="cls-5" d="M457.86,335a4.25,4.25,0,1,1-5.8-1.57A4.26,4.26,0,0,1,457.86,335Z" transform="translate(-41.32 -43.5)"/><path class="cls-6" d="M456.22,337.1c-.14.16-1-.44-2.13-.56s-2.09.27-2.2.09.81-1,2.28-.85S456.4,337,456.22,337.1Z" transform="translate(-41.32 -43.5)"/><path class="cls-6" d="M454.52,334.61c.18.12-.21.95-.39,2s-.12,2-.34,2-.65-.91-.42-2.17S454.37,334.47,454.52,334.61Z" transform="translate(-41.32 -43.5)"/><path class="cls-7" d="M567.76,92.78s-6.91-2.41-7-6.94,51.71-11,61.61,14.27c0,0-1.94,1.37-9.94.85" transform="translate(-41.32 -43.5)"/><g class="cls-8"><path d="M567.76,92.78s-6.91-2.41-7-6.94,51.71-11,61.61,14.27c0,0-1.94,1.37-9.94.85" transform="translate(-41.32 -43.5)"/></g><path class="cls-9" d="M610.77,166.07l-31.61-2.53c-.2-3.69.07-18,.07-18s-13.15-2.05-13.31-15.19S568,87.05,568,87.05h0A45.72,45.72,0,0,1,614,92.82l1.94,1.5Z" transform="translate(-41.32 -43.5)"/><path class="cls-5" d="M571.06,109.64a1.9,1.9,0,0,0,.13-2.69,1.91,1.91,0,1,0-.13,2.69Z" transform="translate(-41.32 -43.5)"/><path class="cls-5" d="M567.87,106.64c.21.23,1.5-.76,3.31-.77s3.12.92,3.32.69-.1-.51-.68-1a4.44,4.44,0,0,0-5.29.07C568,106.13,567.77,106.54,567.87,106.64Z" transform="translate(-41.32 -43.5)"/><path class="cls-5" d="M588.73,108.22a1.91,1.91,0,1,0,2.63.63A1.91,1.91,0,0,0,588.73,108.22Z" transform="translate(-41.32 -43.5)"/><path class="cls-5" d="M587.54,108.24c.21.23,1.5-.77,3.31-.78s3.12.93,3.32.7-.11-.52-.68-1a4.46,4.46,0,0,0-5.29.06C587.63,107.72,587.44,108.14,587.54,108.24Z" transform="translate(-41.32 -43.5)"/><path class="cls-5" d="M580.28,123.18c0-.15-1.11-.37-2.93-.62-.47-.06-.85-.16-.88-.42a2.62,2.62,0,0,1,.34-1.35l1.43-3.68c2-5.25,3.37-9.58,3.1-9.68s-2.08,4.07-4.06,9.31l-1.36,3.71a3.08,3.08,0,0,0-.26,2,1.28,1.28,0,0,0,.82.76,3.18,3.18,0,0,0,.81.1C579.12,123.35,580.27,123.32,580.28,123.18Z" transform="translate(-41.32 -43.5)"/><path class="cls-10" d="M586.16,125.18a34.36,34.36,0,0,1-8.88,2.58,5,5,0,0,0,5.91,2C587.12,128.31,586.16,125.18,586.16,125.18Z" transform="translate(-41.32 -43.5)"/><path class="cls-11" d="M579.21,145.39a30.63,30.63,0,0,0,17.14-4.87s-4.06,9.46-17.17,8.27Z" transform="translate(-41.32 -43.5)"/><path class="cls-5" d="M567.76,90.36s7.69,4.45,18.46,0c7.07-2.89,15.13-4,16.78-2.47s1.5,8.55,8.1,11.1c0,0-1.46,13.36,3.92,13.28s3.57-21.08,3.57-21.08L606,83.88l-14.06-3.75-13.57.9L567.76,83.1Z" transform="translate(-41.32 -43.5)"/><path class="cls-9" d="M614.27,107.94c.23-.1,9-2.67,8.75,6.31s-9.25,6.85-9.26,6.59S614.27,107.94,614.27,107.94Z" transform="translate(-41.32 -43.5)"/><path class="cls-11" d="M616.62,117.52s.15.12.41.25a1.55,1.55,0,0,0,1.17.06c1-.32,1.81-1.8,1.9-3.42a5.11,5.11,0,0,0-.36-2.25,1.83,1.83,0,0,0-1.14-1.24.8.8,0,0,0-.94.4c-.13.24-.08.42-.13.44s-.18-.16-.1-.53a1.05,1.05,0,0,1,.37-.55,1.17,1.17,0,0,1,.88-.2,2.21,2.21,0,0,1,1.59,1.45,5.41,5.41,0,0,1,.46,2.52c-.12,1.81-1.1,3.47-2.41,3.81a1.68,1.68,0,0,1-1.42-.29C616.63,117.74,616.58,117.54,616.62,117.52Z" transform="translate(-41.32 -43.5)"/><path class="cls-5" d="M620.38,80.08c-.08.3-1.41.18-2.9.67s-2.53,1.3-2.76,1.1.62-1.55,2.45-2.11S620.48,79.82,620.38,80.08Z" transform="translate(-41.32 -43.5)"/><path class="cls-5" d="M615.27,74.41c.25,0,.75,1.87.29,4.28s-2,3.9-2.21,3.69.76-1.74,1.17-3.9S614.94,74.42,615.27,74.41Z" transform="translate(-41.32 -43.5)"/><path class="cls-5" d="M576.68,103.69c-.3.52-2,.1-4.08,0s-3.81.15-4.05-.39,1.53-1.85,4.15-1.73S577,103.21,576.68,103.69Z" transform="translate(-41.32 -43.5)"/><path class="cls-5" d="M596.85,103.69c-.3.52-2,.1-4.08,0s-3.81.15-4-.39,1.53-1.85,4.15-1.73S597.16,103.21,596.85,103.69Z" transform="translate(-41.32 -43.5)"/><path class="cls-7" d="M589.23,84c-23.7-2.58-28.24,1.61-28.45,1.82a4.85,4.85,0,0,1-1.22-2.35c-.85-7,7.65-9,7.65-9,5.31-24.25,27.11-21.77,27.11-21.77l0-.18a3.92,3.92,0,0,1,4.59-3.11l3.41.65a3.92,3.92,0,0,1,3.1,4.59h0c25.57,8.52,17.08,32.15,17.08,32.15l3.74,4.52c3.31,6.71-3.88,8.75-3.88,8.75S613.54,86.67,589.23,84Z" transform="translate(-41.32 -43.5)"/><g class="cls-8"><path d="M601.16,75.74c-.29-.06.55-4.73,1.87-10.43s2.61-10.26,2.89-10.19-.55,4.74-1.86,10.43S601.45,75.81,601.16,75.74Z" transform="translate(-41.32 -43.5)"/></g><g class="cls-8"><path d="M588.42,72.59c-.29-.08.74-4.57,2.29-10s3-9.82,3.32-9.74-.75,4.57-2.3,10S588.7,72.67,588.42,72.59Z" transform="translate(-41.32 -43.5)"/></g><g class="cls-8"><path d="M568.27,75.53a8.1,8.1,0,0,1,2.07-.73,41.77,41.77,0,0,1,5.88-1.16,54.88,54.88,0,0,1,19.66,1.27,70.8,70.8,0,0,1,18.27,7.38c2.2,1.25,3.91,2.36,5.07,3.17a8.52,8.52,0,0,1,1.72,1.35c-.09.15-2.71-1.54-7.14-3.87a81.62,81.62,0,0,0-18.17-7,60.07,60.07,0,0,0-19.33-1.54C571.32,74.83,568.32,75.72,568.27,75.53Z" transform="translate(-41.32 -43.5)"/></g><g class="cls-12"><path class="cls-10" d="M600,80c0-.13,1.65.08,4.2.8a48,48,0,0,1,18,9.81c2,1.75,3,3,3,3.09-.23.25-4.94-4.27-11.94-8S599.93,80.35,600,80Z" transform="translate(-41.32 -43.5)"/></g><g class="cls-12"><path class="cls-10" d="M603.86,56.2c-.27-.12-.05-1.21-.32-2.48s-.86-2.2-.65-2.42,1.37.58,1.69,2.21S604.11,56.35,603.86,56.2Z" transform="translate(-41.32 -43.5)"/></g><g class="cls-12"><path class="cls-10" d="M620.31,83.34c-1.46-.3-.92-7.18-4.58-14S606.22,59,606.8,57.66c.26-.64,2.25-.65,5.06.71a20.24,20.24,0,0,1,10.73,20.39C622.12,81.84,621,83.49,620.31,83.34Z" transform="translate(-41.32 -43.5)"/></g><path class="cls-9" d="M430.59,252.44s-15.63-8-18.37-11.66-3.9-16.5-3.9-16.5l26.66,10Z" transform="translate(-41.32 -43.5)"/><path class="cls-9" d="M547,218.9c-.92.31-18.15,38.74-32,38.93s-84.39-5.39-84.39-5.39l4.39-18.2,67.66-2.18,22.17-30Z" transform="translate(-41.32 -43.5)"/><path class="cls-7" d="M671.25,657.56l3.14,13.16s21.52,28,28.16,26.59c4.35-.9-1-8.19-9.19-29.42l-1.71-8.77Z" transform="translate(-41.32 -43.5)"/><path class="cls-5" d="M703.42,693.18a1.19,1.19,0,0,1-.17.4,2.46,2.46,0,0,1-.9.84,3.53,3.53,0,0,1-1.92.42A5.1,5.1,0,0,1,698,694a105,105,0,0,1-10.85-10.11,137.57,137.57,0,0,1-9.62-11.27c-1.15-1.51-2-2.76-2.65-3.63l-.68-1a1.42,1.42,0,0,1-.22-.37,1.66,1.66,0,0,1,.29.32c.23.31.48.62.74,1l2.76,3.54c2.35,3,5.7,7,9.69,11.17a121.51,121.51,0,0,0,10.7,10.15,4,4,0,0,0,4.11.57A2.74,2.74,0,0,0,703.42,693.18Z" transform="translate(-41.32 -43.5)"/><path class="cls-5" d="M700.37,684.2c0,.07-.68-.07-1.74.08a10.51,10.51,0,0,0-3.87,1.47,8,8,0,0,0-2.9,2.9c-.51.94-.65,1.61-.73,1.59a3.82,3.82,0,0,1,.46-1.72,7.44,7.44,0,0,1,2.95-3.13,9.24,9.24,0,0,1,4.06-1.4A3.21,3.21,0,0,1,700.37,684.2Z" transform="translate(-41.32 -43.5)"/><path class="cls-5" d="M680,677.63c-.07,0,.22-.94.4-2.46a10.15,10.15,0,0,0-1.08-5.77,9.53,9.53,0,0,0-4.12-4.15,16.27,16.27,0,0,0-2.33-.85,1.7,1.7,0,0,1,.68,0,7.3,7.3,0,0,1,1.78.55,9.23,9.23,0,0,1,4.36,4.23,9.68,9.68,0,0,1,1,6,11,11,0,0,1-.43,1.81C680.12,677.42,680,677.64,680,677.63Z" transform="translate(-41.32 -43.5)"/><path class="cls-5" d="M672.62,659.8a13.13,13.13,0,0,1,1.2,4.12c.39,2.33.81,4.18.72,4.21A13.36,13.36,0,0,1,673.4,664C673,661.67,672.52,659.83,672.62,659.8Z" transform="translate(-41.32 -43.5)"/><path class="cls-5" d="M693.75,669.74c0,.13-1.23.09-2.67.43s-2.52.9-2.59.79a4.69,4.69,0,0,1,2.49-1.2A4.82,4.82,0,0,1,693.75,669.74Z" transform="translate(-41.32 -43.5)"/><path class="cls-5" d="M694.19,672c0,.12-1,0-2.23.31s-2.07.83-2.14.73a3.28,3.28,0,0,1,2-1.14A3.21,3.21,0,0,1,694.19,672Z" transform="translate(-41.32 -43.5)"/><path class="cls-5" d="M695.91,674.83a11,11,0,0,0-2.32.08,10.72,10.72,0,0,0-2.13.93,3.46,3.46,0,0,1,4.45-1Z" transform="translate(-41.32 -43.5)"/><path class="cls-5" d="M692.26,668.8a2,2,0,0,1-.72-.08,16.64,16.64,0,0,1-1.9-.51A17.08,17.08,0,0,1,687,667a16,16,0,0,1-1.48-.91,2.19,2.19,0,0,1-1.08-1.66,1.27,1.27,0,0,1,1.64-1,3.35,3.35,0,0,1,1.5,1,27.48,27.48,0,0,1,2,2.15c.53.65.92,1.19,1.18,1.58s.39.61.36.63-.67-.78-1.77-2c-.55-.61-1.22-1.33-2-2.07a3.11,3.11,0,0,0-1.32-.88c-.49-.13-1.12.14-1.12.64s.45,1,.89,1.3,1,.64,1.43.91a18.7,18.7,0,0,0,2.59,1.25C691.27,668.52,692.28,668.73,692.26,668.8Z" transform="translate(-41.32 -43.5)"/><path class="cls-5" d="M691.13,668.53a2.65,2.65,0,0,1,0-.66c0-.42,0-1,.13-1.79a9.56,9.56,0,0,1,.68-2.6,5.48,5.48,0,0,1,.85-1.38,1.45,1.45,0,0,1,1.72-.54,1.65,1.65,0,0,1,.6,1.71,6.1,6.1,0,0,1-.47,1.55,7.94,7.94,0,0,1-1.54,2.21,10,10,0,0,1-1.37,1.17,1.87,1.87,0,0,1-.58.33c0-.06.73-.6,1.73-1.7a8.47,8.47,0,0,0,1.4-2.17,5.69,5.69,0,0,0,.41-1.44c.07-.48,0-1.08-.38-1.29s-.89.08-1.21.45a5,5,0,0,0-.8,1.26,9.85,9.85,0,0,0-.74,2.49A19.14,19.14,0,0,1,691.13,668.53Z" transform="translate(-41.32 -43.5)"/><g class="cls-13"><path d="M674.39,670.72l-1.52-6.32s5.27,1,6.64,4.92a16.57,16.57,0,0,1,1,6.76L692,688.42s2.88-5.62,8.09-4.27c0,0,4.1,9,4,11.28-.14,2.48-2.75,2-3.69,1.56a46.43,46.43,0,0,1-10.26-8.1C684,682.59,677.33,674.59,674.39,670.72Z" transform="translate(-41.32 -43.5)"/></g><path class="cls-7" d="M564.26,664.21l-.1-17.55,32.88-.4.41,25.68-2,.15c-9.07.62-46.14,2.49-52.22.72C536.41,670.84,564.26,664.21,564.26,664.21Z" transform="translate(-41.32 -43.5)"/><g class="cls-13"><path d="M585.53,671.83a11.38,11.38,0,0,1,4.11-7.06,11.08,11.08,0,0,1,7.66-2.49l.11,9.19Z" transform="translate(-41.32 -43.5)"/></g><path class="cls-14" d="M550.66,667.94s-9.76,2.94-8.52,4.54,38.78,1.12,55.31-.54l-.06-.73-43.77.93S552.57,668,550.66,667.94Z" transform="translate(-41.32 -43.5)"/><path class="cls-5" d="M597.91,671.18a3.35,3.35,0,0,1-.57.07l-1.62.12-6,.33c-5,.24-12,.49-19.72.6s-14.69,0-19.74-.07l-6-.17-1.63-.08a3.48,3.48,0,0,1-.56-.05l.56,0h1.63l6,.05c5.05,0,12,0,19.72-.05s14.67-.31,19.72-.48l6-.21,1.63,0A2.28,2.28,0,0,1,597.91,671.18Z" transform="translate(-41.32 -43.5)"/><path class="cls-5" d="M553.63,672.65a8.68,8.68,0,0,0-3.21-5.1,5.3,5.3,0,0,1,3.21,5.1Z" transform="translate(-41.32 -43.5)"/><path class="cls-5" d="M563.27,667.6c-.09.06-.56-.5-1-1.25s-.81-1.4-.72-1.46.56.5,1,1.25S563.36,667.54,563.27,667.6Z" transform="translate(-41.32 -43.5)"/><path class="cls-5" d="M565.91,666.16c-.07.08-.59-.26-1.16-.76s-1-1-.91-1.06.6.26,1.17.76S566,666.08,565.91,666.16Z" transform="translate(-41.32 -43.5)"/><path class="cls-5" d="M567.56,663a4,4,0,0,1-1.71.24,4,4,0,0,1-1.73-.16,3.88,3.88,0,0,1,1.72-.24A3.94,3.94,0,0,1,567.56,663Z" transform="translate(-41.32 -43.5)"/><path class="cls-5" d="M568.11,660.84a4.84,4.84,0,0,1-3.89.34,10.8,10.8,0,0,1,1.95-.15A10.66,10.66,0,0,1,568.11,660.84Z" transform="translate(-41.32 -43.5)"/><path class="cls-5" d="M562.12,664.75a6.33,6.33,0,0,1-2.11,0,11.71,11.71,0,0,1-2.26-.47,6,6,0,0,1-1.29-.51,1.13,1.13,0,0,1-.53-.65.82.82,0,0,1,.31-.85,3.87,3.87,0,0,1,4.8,1.07,3.93,3.93,0,0,1,.71,1.41,1.19,1.19,0,0,1,.06.57,5.62,5.62,0,0,0-1-1.79,3.74,3.74,0,0,0-1.82-1.15,3.23,3.23,0,0,0-2.51.2c-.33.25-.2.65.18.86a6.21,6.21,0,0,0,1.19.49,13.76,13.76,0,0,0,2.18.54C561.31,664.69,562.12,664.68,562.12,664.75Z" transform="translate(-41.32 -43.5)"/><path class="cls-5" d="M561.57,664.86a2.06,2.06,0,0,1-.26-1.46,3.45,3.45,0,0,1,.56-1.55,2.1,2.1,0,0,1,1.74-1.1.84.84,0,0,1,.67,1,2.44,2.44,0,0,1-.35.95,6.47,6.47,0,0,1-1,1.29,3,3,0,0,1-1.2.87c0-.05.42-.38,1-1.06a7.28,7.28,0,0,0,.87-1.28c.28-.45.47-1.25-.06-1.34s-1.06.49-1.38.91a3.54,3.54,0,0,0-.58,1.39A7.94,7.94,0,0,0,561.57,664.86Z" transform="translate(-41.32 -43.5)"/><path class="cls-5" d="M597.12,662.19c0,.08-.94-.08-2.42.12a10.32,10.32,0,0,0-8.53,7c-.48,1.42-.52,2.36-.59,2.36a2.09,2.09,0,0,1,0-.67,8.31,8.31,0,0,1,.34-1.77,10,10,0,0,1,8.76-7.17,9.33,9.33,0,0,1,1.8,0A2.1,2.1,0,0,1,597.12,662.19Z" transform="translate(-41.32 -43.5)"/><path class="cls-5" d="M593.54,648.56a56.15,56.15,0,0,1,.37,6.74,53.44,53.44,0,0,1,0,6.76,61.46,61.46,0,0,1-.37-6.75A58.22,58.22,0,0,1,593.54,648.56Z" transform="translate(-41.32 -43.5)"/><path class="cls-5" d="M581.35,668.67a18.36,18.36,0,0,1-4.79.54,19.1,19.1,0,0,1-4.81-.32c0-.12,2.16,0,4.8-.08S581.34,668.56,581.35,668.67Z" transform="translate(-41.32 -43.5)"/><path class="cls-5" d="M587.8,668.58c.08.08-.17.46-.39.95s-.32.94-.44.93-.17-.52.08-1.09S587.73,668.5,587.8,668.58Z" transform="translate(-41.32 -43.5)"/><path class="cls-5" d="M590.19,665.53c.08.08-.13.42-.47.77s-.67.57-.75.49.13-.42.47-.77S590.11,665.45,590.19,665.53Z" transform="translate(-41.32 -43.5)"/><path class="cls-5" d="M593.64,664.1c0,.12-.45.12-.94.29s-.82.44-.91.37.18-.53.78-.74S593.68,664,593.64,664.1Z" transform="translate(-41.32 -43.5)"/><path class="cls-5" d="M596.11,663.42c0,.1-.15.27-.42.38s-.52.12-.56,0,.14-.28.41-.39S596.07,663.32,596.11,663.42Z" transform="translate(-41.32 -43.5)"/><path class="cls-7" d="M641.18,320.4,541.89,326c-.26-10.9,3.91-98.47,3.91-98.47l-5.47,10.25-28.41-25.34,24.83-33.55a49.17,49.17,0,0,1,32.88-19.45c3.86-.52,6.79-.78,8.69-1a55.85,55.85,0,0,0,33.7,0h0a45.68,45.68,0,0,1,14,2.68,57.43,57.43,0,0,1,22.26,14.41h0l29.73,50-36.05,22.68-5.21-15.72Z" transform="translate(-41.32 -43.5)"/><polyline class="cls-5" points="500.57 272.16 515.92 613.15 567.11 614.22 558.61 328.75 616.19 616.4 664.86 616.4 599.86 272.16"/><polygon class="cls-6" points="613.65 611.77 614.83 616.81 664.86 617.48 664.1 609.6 613.65 611.77"/><path class="cls-6" d="M599.59,654.75c.3,0,.57.66.61,1.5s-.16,1.53-.45,1.55-.56-.66-.61-1.5S599.3,654.77,599.59,654.75Z" transform="translate(-41.32 -43.5)"/><path class="cls-6" d="M599.09,642.41c.29,0,.58,1.36.65,3.07s-.13,3.09-.42,3.11-.58-1.37-.64-3.07S598.8,642.42,599.09,642.41Z" transform="translate(-41.32 -43.5)"/><path class="cls-6" d="M598.72,630.05c.3,0,.57,1.37.62,3.08s-.15,3.09-.44,3.1-.57-1.37-.62-3.07S598.43,630.06,598.72,630.05Z" transform="translate(-41.32 -43.5)"/><path class="cls-6" d="M598.42,617.69c.29,0,.56,1.37.6,3.08s-.16,3.1-.45,3.1-.57-1.37-.61-3.08S598.13,617.7,598.42,617.69Z" transform="translate(-41.32 -43.5)"/><path class="cls-6" d="M598.12,605.32c.29,0,.56,1.38.61,3.08s-.17,3.1-.46,3.11-.56-1.37-.6-3.08S597.83,605.33,598.12,605.32Z" transform="translate(-41.32 -43.5)"/><path class="cls-6" d="M597.77,593c.29,0,.57,1.36.62,3.07s-.14,3.1-.43,3.11-.57-1.37-.62-3.08S597.48,593,597.77,593Z" transform="translate(-41.32 -43.5)"/><path class="cls-6" d="M597.29,580.6c.3,0,.59,1.36.67,3.06s-.11,3.1-.41,3.12-.58-1.37-.65-3.07S597,580.61,597.29,580.6Z" transform="translate(-41.32 -43.5)"/><path class="cls-6" d="M596.79,568.25c.29,0,.58,1.36.65,3.06s-.11,3.1-.4,3.11-.59-1.36-.66-3.06S596.5,568.26,596.79,568.25Z" transform="translate(-41.32 -43.5)"/><path class="cls-6" d="M596.34,555.89c.3,0,.58,1.36.64,3.07s-.13,3.1-.42,3.11-.58-1.37-.64-3.07S596.05,555.9,596.34,555.89Z" transform="translate(-41.32 -43.5)"/><path class="cls-6" d="M596,543.53c.29,0,.57,1.37.63,3.07s-.15,3.1-.44,3.11-.57-1.37-.62-3.07S595.66,543.54,596,543.53Z" transform="translate(-41.32 -43.5)"/><path class="cls-6" d="M595.62,531.18c.29,0,.57,1.37.61,3.07s-.16,3.1-.45,3.11-.57-1.37-.61-3.08S595.33,531.18,595.62,531.18Z" transform="translate(-41.32 -43.5)"/><path class="cls-6" d="M595.35,518.82c.29,0,.56,1.37.59,3.08s-.17,3.09-.46,3.1-.56-1.38-.6-3.08S595.06,518.82,595.35,518.82Z" transform="translate(-41.32 -43.5)"/><path class="cls-6" d="M595.14,506.45c.3,0,.55,1.38.58,3.09s-.19,3.09-.48,3.1-.55-1.38-.58-3.09S594.85,506.46,595.14,506.45Z" transform="translate(-41.32 -43.5)"/><path class="cls-6" d="M595,494.09c.29,0,.54,1.38.56,3.09s-.2,3.09-.5,3.09-.54-1.37-.56-3.08S594.71,494.1,595,494.09Z" transform="translate(-41.32 -43.5)"/><path class="cls-6" d="M594.92,481.73c.3,0,.54,1.38.55,3.09s-.22,3.09-.52,3.09-.53-1.38-.54-3.09S594.63,481.73,594.92,481.73Z" transform="translate(-41.32 -43.5)"/><path class="cls-6" d="M594.92,469.37c.29,0,.52,1.38.52,3.09s-.24,3.09-.53,3.09-.53-1.39-.53-3.09S594.62,469.37,594.92,469.37Z" transform="translate(-41.32 -43.5)"/><path class="cls-6" d="M595,457c.3,0,.52,1.39.51,3.1s-.25,3.09-.54,3.08-.52-1.38-.51-3.09S594.68,457,595,457Z" transform="translate(-41.32 -43.5)"/><path class="cls-6" d="M595.1,444.64c.29,0,.51,1.39.49,3.1s-.27,3.09-.56,3.08-.52-1.39-.5-3.1S594.81,444.64,595.1,444.64Z" transform="translate(-41.32 -43.5)"/><path class="cls-6" d="M595.29,432.28c.3,0,.51,1.39.48,3.1s-.29,3.08-.58,3.08-.51-1.39-.48-3.1S595,432.28,595.29,432.28Z" transform="translate(-41.32 -43.5)"/><path class="cls-6" d="M595.55,419.92c.29,0,.5,1.39.46,3.1s-.31,3.09-.6,3.08-.5-1.4-.46-3.1S595.25,419.91,595.55,419.92Z" transform="translate(-41.32 -43.5)"/><path class="cls-6" d="M595.93,407.54c.29,0,.48,1.41.42,3.11s-.35,3.09-.64,3.08-.48-1.4-.42-3.11S595.63,407.53,595.93,407.54Z" transform="translate(-41.32 -43.5)"/><path class="cls-6" d="M596.58,395.19c.29,0,.45,1.42.34,3.12s-.42,3.07-.71,3.05-.45-1.41-.34-3.11S596.29,395.17,596.58,395.19Z" transform="translate(-41.32 -43.5)"/><path class="cls-6" d="M597.66,382.87c.3,0,.4,1.44.23,3.13s-.54,3.05-.83,3-.39-1.43-.22-3.13S597.37,382.84,597.66,382.87Z" transform="translate(-41.32 -43.5)"/><path class="cls-6" d="M598.84,373.73c.29,0,.43.75.31,1.58s-.45,1.47-.74,1.43-.43-.74-.31-1.58S598.55,373.68,598.84,373.73Z" transform="translate(-41.32 -43.5)"/><polygon class="cls-6" points="514.58 614.8 568.72 615.69 568.29 606.67 514.58 606.95 514.58 614.8"/><polygon class="cls-5" points="575.19 282.53 569.75 178.36 510.05 178.36 500.37 285.51 575.19 282.53"/><path class="cls-5" d="M629.46,162.5s-24.18,6.35-24.59,63.14h-9.75s-2.55-47.7,23.76-66.44C618.88,159.2,626.48,157.38,629.46,162.5Z" transform="translate(-41.32 -43.5)"/><path class="cls-5" d="M578.32,158.46s-17.18,8.14-17.59,64.93h-8.28s-.7-53.18,15.53-63.67C568,159.72,572.83,156.25,578.32,158.46Z" transform="translate(-41.32 -43.5)"/><path class="cls-6" d="M696,650.33c.28-.05.63.59.76,1.42s0,1.54-.27,1.59-.64-.59-.77-1.42S695.69,650.37,696,650.33Z" transform="translate(-41.32 -43.5)"/><path class="cls-6" d="M694,638.48c.29-.05.74,1.24,1,2.87s.25,3,0,3-.74-1.24-1-2.88S693.75,638.52,694,638.48Z" transform="translate(-41.32 -43.5)"/><path class="cls-6" d="M692.08,626.63c.29,0,.74,1.24,1,2.87s.25,3,0,3-.74-1.24-1-2.88S691.79,626.67,692.08,626.63Z" transform="translate(-41.32 -43.5)"/><path class="cls-6" d="M690.11,614.78c.29,0,.74,1.24,1,2.87s.26,3,0,3.05-.75-1.24-1-2.87S689.82,614.83,690.11,614.78Z" transform="translate(-41.32 -43.5)"/><path class="cls-6" d="M688.12,602.94c.28-.05.74,1.24,1,2.87s.26,3,0,3.05-.74-1.24-1-2.87S687.83,603,688.12,602.94Z" transform="translate(-41.32 -43.5)"/><path class="cls-6" d="M686.1,591.1c.29-.05.75,1.23,1,2.87s.27,3,0,3-.74-1.24-1-2.87S685.82,591.15,686.1,591.1Z" transform="translate(-41.32 -43.5)"/><path class="cls-6" d="M684.07,579.26c.29,0,.75,1.24,1,2.87s.28,3,0,3-.75-1.24-1-2.87S683.79,579.31,684.07,579.26Z" transform="translate(-41.32 -43.5)"/><path class="cls-6" d="M682,567.43c.28,0,.75,1.23,1,2.87s.28,3,0,3-.75-1.23-1-2.86S681.74,567.48,682,567.43Z" transform="translate(-41.32 -43.5)"/><path class="cls-6" d="M680,555.6c.29-.05.75,1.23,1,2.86s.28,3,0,3-.76-1.23-1-2.86S679.67,555.65,680,555.6Z" transform="translate(-41.32 -43.5)"/><path class="cls-6" d="M677.87,543.77c.29,0,.76,1.23,1,2.87s.29,3,0,3-.76-1.23-1-2.86S677.59,543.82,677.87,543.77Z" transform="translate(-41.32 -43.5)"/><path class="cls-6" d="M675.77,532c.29-.05.76,1.23,1.05,2.86s.29,3,0,3.05-.75-1.23-1-2.86S675.48,532,675.77,532Z" transform="translate(-41.32 -43.5)"/><path class="cls-6" d="M673.65,520.13c.29,0,.76,1.23,1.05,2.86s.3,3,0,3-.76-1.23-1.05-2.86S673.36,520.18,673.65,520.13Z" transform="translate(-41.32 -43.5)"/><path class="cls-6" d="M671.51,508.31c.29-.05.76,1.23,1,2.86s.31,3,0,3.05-.76-1.23-1.06-2.86S671.22,508.36,671.51,508.31Z" transform="translate(-41.32 -43.5)"/><path class="cls-6" d="M669.35,496.5c.29-.06.76,1.22,1.06,2.85s.31,3,0,3-.76-1.22-1.06-2.86S669.06,496.55,669.35,496.5Z" transform="translate(-41.32 -43.5)"/><path class="cls-6" d="M667.17,484.69c.29-.06.77,1.22,1.07,2.85s.31,3,0,3-.76-1.22-1.06-2.86S666.88,484.74,667.17,484.69Z" transform="translate(-41.32 -43.5)"/><path class="cls-6" d="M665,472.88c.29-.05.77,1.22,1.08,2.85s.31,3,0,3-.77-1.22-1.08-2.85S664.69,472.93,665,472.88Z" transform="translate(-41.32 -43.5)"/><path class="cls-6" d="M662.76,461.08c.29-.06.77,1.22,1.08,2.85s.32,3,0,3.05-.77-1.23-1.07-2.86S662.47,461.13,662.76,461.08Z" transform="translate(-41.32 -43.5)"/><path class="cls-6" d="M660.53,449.28c.28-.06.77,1.22,1.08,2.85s.32,3,0,3.05-.77-1.23-1.08-2.86S660.24,449.33,660.53,449.28Z" transform="translate(-41.32 -43.5)"/><path class="cls-6" d="M658.28,437.48c.28-.06.77,1.22,1.08,2.85s.33,3,0,3.05-.77-1.22-1.08-2.85S658,437.53,658.28,437.48Z" transform="translate(-41.32 -43.5)"/><path class="cls-6" d="M656,425.69c.28-.06.77,1.22,1.08,2.84s.34,3,0,3.05-.77-1.22-1.08-2.85S655.72,425.74,656,425.69Z" transform="translate(-41.32 -43.5)"/><path class="cls-6" d="M653.72,413.9c.29-.06.77,1.22,1.09,2.84s.34,3,.05,3.05-.77-1.22-1.09-2.84S653.43,414,653.72,413.9Z" transform="translate(-41.32 -43.5)"/><path class="cls-6" d="M651.41,402.11c.29-.05.78,1.22,1.1,2.85s.34,3,.06,3-.78-1.21-1.1-2.84S651.13,402.17,651.41,402.11Z" transform="translate(-41.32 -43.5)"/><path class="cls-6" d="M649.09,390.33c.28-.06.78,1.22,1.1,2.84s.35,3,.06,3.05-.78-1.22-1.1-2.84S648.8,390.39,649.09,390.33Z" transform="translate(-41.32 -43.5)"/><path class="cls-6" d="M646.74,378.55c.29-.06.79,1.22,1.11,2.84s.35,3,.07,3.05-.78-1.21-1.11-2.84S646.46,378.61,646.74,378.55Z" transform="translate(-41.32 -43.5)"/><path class="cls-6" d="M644.38,366.78c.29-.06.79,1.21,1.11,2.84s.36,3,.08,3-.79-1.21-1.11-2.84S644.1,366.83,644.38,366.78Z" transform="translate(-41.32 -43.5)"/><path class="cls-6" d="M642,355c.29-.06.79,1.21,1.12,2.83s.36,3,.07,3.05-.78-1.21-1.11-2.84S641.72,355.06,642,355Z" transform="translate(-41.32 -43.5)"/><path class="cls-6" d="M640.2,346.13c.28-.06.65.57.82,1.39s.07,1.54-.21,1.6-.66-.56-.83-1.39S639.91,346.19,640.2,346.13Z" transform="translate(-41.32 -43.5)"/><path class="cls-6" d="M561,220.5c.12,0,.45,1.1.51,3a7.23,7.23,0,0,1-.68,3.36,4.78,4.78,0,0,1-3.35,2.71,4.35,4.35,0,0,1-4-1.62,5.33,5.33,0,0,1-1.19-3.27c0-2,.61-3,.71-3s-.18,1.19,0,2.94a4.94,4.94,0,0,0,1.18,2.7,3.53,3.53,0,0,0,3.1,1.22,4,4,0,0,0,2.67-2.12,7.4,7.4,0,0,0,.79-2.94C560.88,221.69,560.82,220.51,561,220.5Z" transform="translate(-41.32 -43.5)"/><path class="cls-6" d="M556.68,222c-.06-.13.6-.4,1.31.25a1.73,1.73,0,0,1,.53,1.51,1.85,1.85,0,0,1-3.34.64,1.73,1.73,0,0,1,0-1.61c.42-.86,1.13-.85,1.12-.71s-.33.38-.42,1,.23,1.27,1,1.11a.87.87,0,0,0,.56-1.41C557.12,222.22,556.68,222.14,556.68,222Z" transform="translate(-41.32 -43.5)"/><path class="cls-6" d="M604.23,220.87c.12,0,.41,1,.4,2.85a6.46,6.46,0,0,1-.85,3.13,4.21,4.21,0,0,1-3.46,2.15,5.21,5.21,0,0,1-3.8-1.41,6.12,6.12,0,0,1-1.65-2.8c-.48-1.79-.2-2.91-.08-2.9s.18,1.1.78,2.66a6.27,6.27,0,0,0,1.6,2.32,4.46,4.46,0,0,0,3.09,1.07,3.34,3.34,0,0,0,2.69-1.6,6.48,6.48,0,0,0,.93-2.68C604.08,222,604.06,220.87,604.23,220.87Z" transform="translate(-41.32 -43.5)"/><path class="cls-6" d="M599.55,222c0-.13.53-.3,1.06.27a1.52,1.52,0,1,1-2.48,1.76,1.47,1.47,0,0,1-.11-1.32c.31-.71.89-.73.91-.6s-.18.38-.18.8.23.82.76.73.63-.53.48-1S599.54,222.12,599.55,222Z" transform="translate(-41.32 -43.5)"/><path class="cls-6" d="M602,247.15c0,.06-.46.41-1.4,1a39.9,39.9,0,0,1-4.11,2.18,61.84,61.84,0,0,1-29.91,5.7,42.53,42.53,0,0,1-4.62-.51,5.59,5.59,0,0,1-1.67-.4c0-.17,2.43.1,6.32.17a72.82,72.82,0,0,0,29.58-5.65C599.73,248.13,601.87,247,602,247.15Z" transform="translate(-41.32 -43.5)"/><polygon class="cls-7" points="607.81 294.92 498.98 285.51 498.98 297.9 607.81 307.16 607.81 294.92"/><path class="cls-6" d="M574.66,331.47a40.33,40.33,0,0,1-4.54-.14c-2.79-.15-6.69-.38-11.3-.72l.51-.56c.67,3.75,1.42,8,2.21,12.43.06.33.12.67.17,1l-.49-.43,14.45.94-.47.47c-.24-3.81-.39-7-.48-9.29a29.21,29.21,0,0,1-.06-3.69,21.75,21.75,0,0,1,.48,3.4c.25,2.25.6,5.53,1,9.52l0,.5-.51,0-14.46-.77-.42,0-.07-.42c-.06-.32-.11-.66-.17-1-.76-4.47-1.47-8.69-2.1-12.45l-.11-.61.61.06c4.79.45,8.78.88,11.54,1.21A30.19,30.19,0,0,1,574.66,331.47Z" transform="translate(-41.32 -43.5)"/><path class="cls-5" d="M553.83,334c0-.29,2.73-.34,6.06-.12s6,.65,6,.94-2.73.35-6.06.12S553.81,334.33,553.83,334Z" transform="translate(-41.32 -43.5)"/><path class="cls-5" d="M553.11,337.59c0-.29,2.93-.24,6.48.11s6.41.88,6.38,1.17-2.93.24-6.48-.12S553.08,337.88,553.11,337.59Z" transform="translate(-41.32 -43.5)"/><path class="cls-6" d="M431.65,224.34l-40.28-13.56L389.79,216s15.74,24.81,34.09,29.92Z" transform="translate(-41.32 -43.5)"/><path class="cls-6" d="M551.39,296.49s-62.19-43.64-65.92-45-30.42-1.38-37.1-.66-25.83-1.25-25.83-1.25l19.74-54.74-41.93-10.76,2.22-7.46s33.72-20.25,53.22-14.48,28.63,31.37,32.69,37.7,12.82,29,54.47,55.6l24.62,16.44Z" transform="translate(-41.32 -43.5)"/><path class="cls-5" d="M484.31,208.33a6.77,6.77,0,0,1-.25.63l-.73,1.71c-.67,1.55-1.61,3.71-2.79,6.45l-10.16,23.3-.4-.56a58.24,58.24,0,0,1,7.14-.08,20.2,20.2,0,0,1,7.58,1.58c4.64,2.62,9.18,5.79,14,9,9.65,6.56,20.07,13.86,30.94,21.56a9.45,9.45,0,0,0,4.54,2.18,7.55,7.55,0,0,0,6-13.14c-1.23-1-2.66-1.92-4-2.86l-7.78-5.56-26.88-19.25a22.07,22.07,0,0,1-4.81-4.79c-1.32-1.68-2.45-3.33-3.5-4.88-2.08-3.12-3.75-5.88-5.08-8.15s-2.33-4.06-3-5.28c-.29-.57-.53-1-.73-1.4a4.69,4.69,0,0,1-.21-.5,2.37,2.37,0,0,1,.31.45c.22.35.49.79.82,1.34.76,1.25,1.82,3,3.15,5.18s3.1,4.95,5.22,8c1.06,1.53,2.22,3.16,3.54,4.8a21.47,21.47,0,0,0,4.71,4.6l27,19.07,7.8,5.52c1.33,1,2.65,1.83,4,2.92a8.59,8.59,0,0,1-6.85,15,10.47,10.47,0,0,1-5-2.37c-10.85-7.69-21.26-15-30.88-21.61-4.82-3.25-9.41-6.48-13.89-9.05a19.63,19.63,0,0,0-7.22-1.53,56.57,56.57,0,0,0-7,0l-.67,0,.28-.59,10.74-23.39c1.23-2.67,2.21-4.76,2.9-6.27.31-.66.56-1.18.75-1.6A4.72,4.72,0,0,1,484.31,208.33Z" transform="translate(-41.32 -43.5)"/><path class="cls-6" d="M645.73,346.35h0A18.33,18.33,0,0,1,619.61,351l-83-64.78,14.73-25.08L641,321.16A18.34,18.34,0,0,1,645.73,346.35Z" transform="translate(-41.32 -43.5)"/><polygon class="cls-5" points="422.22 161.32 414.75 184.64 401.06 184.71 409.56 161.38 422.22 161.32"/><path class="cls-5" d="M441.51,223c0-.58,4.5-1.08,10.06-1.11s10.08.42,10.08,1-4.5,1.08-10.07,1.11S441.51,223.61,441.51,223Z" transform="translate(-41.32 -43.5)"/><path class="cls-5" d="M444.11,215.58c0-.59,4.5-1.08,10.07-1.11s10.07.42,10.08,1-4.51,1.09-10.07,1.11S444.11,216.16,444.11,215.58Z" transform="translate(-41.32 -43.5)"/><path class="cls-5" d="M445.72,208.47c0-.59,4.51-1.08,10.07-1.11s10.08.42,10.08,1-4.5,1.09-10.07,1.11S445.73,209.05,445.72,208.47Z" transform="translate(-41.32 -43.5)"/><path class="cls-5" d="M431.87,221.73c.28.07-.94,5.6-3.33,12.14s-4.72,11.67-5,11.57,1.61-5.42,4-11.92S431.58,221.65,431.87,221.73Z" transform="translate(-41.32 -43.5)"/><path class="cls-9" d="M690.1,273.58c.19-15.32-16.22-45.52-16.22-45.52l-29.42,18.5,4.77,12.5L583.4,286.15l-18,.83-11.55,16.5,14.78,13.57,38.65-10.67C631.69,302.23,689.88,290.57,690.1,273.58Z" transform="translate(-41.32 -43.5)"/></svg>