<svg id="Layer_1" data-name="Layer 1" xmlns="http://www.w3.org/2000/svg" viewBox="0 0 16 16"><defs><style>.cls-1{fill:#dc4d65;}.cls-2{fill:#cd4a67;}.cls-3{fill:#4faab3;}.cls-4{fill:#45a0a5;}.cls-5{fill:#f2bb46;}.cls-6{fill:#e5aa3e;}.cls-7{fill:#263138;}</style></defs><title>fevicon</title><polygon class="cls-1" points="2.7 2.98 4.4 5.33 8.03 5.3 6.3 2.98 2.7 2.98"/><polygon class="cls-2" points="0.9 5.33 2.7 2.98 4.4 5.33 2.7 7.79 0.9 5.33"/><polygon class="cls-3" points="6.23 7.66 7.97 9.85 11.53 9.85 9.8 7.75 6.23 7.66"/><polygon class="cls-4" points="4.47 10.01 6.23 7.66 7.97 9.85 6.23 12.37 4.47 10.01"/><polygon class="cls-5" points="9.8 2.98 11.5 5.27 15.1 5.27 13.37 2.98 9.8 2.98"/><polygon class="cls-6" points="6.23 7.66 9.8 2.98 11.5 5.27 9.8 7.75 6.23 7.66"/><polygon class="cls-7" points="8.03 5.3 4.4 5.33 2.7 7.79 4.47 10.01 8.03 5.3"/><polygon class="cls-7" points="6.23 12.37 8 14.63 11.53 9.85 7.97 9.85 6.23 12.37"/><polygon class="cls-7" points="11.5 5.27 15.1 5.27 11.53 9.85 9.8 7.75 11.5 5.27"/></svg>