<svg id="a45a2787-627a-4545-9b75-cc62457b130b" data-name="Layer 1" xmlns="http://www.w3.org/2000/svg" xmlns:xlink="http://www.w3.org/1999/xlink" viewBox="0 0 1980 780"><defs><linearGradient id="e68cd5eb-2d47-4815-a37b-782006d683cf" x1="1205.34" y1="543" x2="1226.54" y2="543" gradientUnits="userSpaceOnUse"><stop offset="0" stop-color="#dc4d65"/><stop offset="0" stop-color="#f0b943"/><stop offset="1" stop-color="#aec744"/></linearGradient><linearGradient id="b1ed457f-66f0-4171-8cd6-2ea6fb54f8f1" x1="1198.3" y1="67.25" x2="1219.5" y2="67.25" gradientTransform="matrix(0.8, 0.6, -0.6, 0.8, 310.47, -212.32)" xlink:href="#e68cd5eb-2d47-4815-a37b-782006d683cf"/><linearGradient id="a5c0ec88-1f60-451e-bed4-adec21893d98" x1="1226.71" y1="88.71" x2="1247.92" y2="88.71" gradientTransform="matrix(0.8, 0.6, -0.6, 0.8, 310.47, -212.32)" xlink:href="#e68cd5eb-2d47-4815-a37b-782006d683cf"/><linearGradient id="f6d4f53c-e6a2-476f-9c48-c0b0c3ddc4a0" x1="1406.1" y1="327.81" x2="1424.76" y2="327.81" gradientTransform="matrix(0.82, 0.32, -0.41, 1.04, 230.4, -165.88)" xlink:href="#e68cd5eb-2d47-4815-a37b-782006d683cf"/><linearGradient id="b261f7bc-c3d1-4cf7-86ac-fba95778227a" x1="394.68" y1="1132.92" x2="415.88" y2="1132.92" gradientTransform="matrix(-0.37, 0.93, 0.93, 0.37, 308.63, -230.72)" xlink:href="#e68cd5eb-2d47-4815-a37b-782006d683cf"/><linearGradient id="a1594bb9-d6e6-4b4b-9d56-dea1113c5d20" x1="423.09" y1="1154.37" x2="444.3" y2="1154.37" gradientTransform="matrix(-0.37, 0.93, 0.93, 0.37, 308.63, -230.72)" xlink:href="#e68cd5eb-2d47-4815-a37b-782006d683cf"/><linearGradient id="f9bd104b-c8c8-4667-a823-41d1addcf866" x1="204.35" y1="1057.97" x2="223.01" y2="1057.97" gradientTransform="matrix(-0.52, 0.7, 0.9, 0.67, 401.16, -233.22)" xlink:href="#e68cd5eb-2d47-4815-a37b-782006d683cf"/><linearGradient id="f6520a83-05a7-4016-9b66-db39e4171ba3" x1="-698.17" y1="547.2" x2="-676.97" y2="547.2" gradientTransform="matrix(-1, 0, 0, 1, 603.21, 0)" xlink:href="#e68cd5eb-2d47-4815-a37b-782006d683cf"/><linearGradient id="b8a64fda-4485-4d7f-acf0-90568bb1cee7" x1="-322.59" y1="1211.92" x2="-301.39" y2="1211.92" gradientTransform="matrix(-0.8, 0.6, 0.6, 0.8, 292.74, -212.32)" xlink:href="#e68cd5eb-2d47-4815-a37b-782006d683cf"/><linearGradient id="a79699f3-ceea-4035-8536-af963812d639" x1="-294.18" y1="1233.38" x2="-272.98" y2="1233.38" gradientTransform="matrix(-0.8, 0.6, 0.6, 0.8, 292.74, -212.32)" xlink:href="#e68cd5eb-2d47-4815-a37b-782006d683cf"/><linearGradient id="bbfc7e6b-8b05-4ea1-b27a-60751a12c65f" x1="-608.29" y1="958.64" x2="-589.63" y2="958.64" gradientTransform="matrix(-0.82, 0.32, 0.41, 1.04, 372.82, -165.88)" xlink:href="#e68cd5eb-2d47-4815-a37b-782006d683cf"/><linearGradient id="af06c2cd-94e6-4a1e-bedc-5c7e0455f7f8" x1="1096.3" y1="-636.58" x2="1117.5" y2="-636.58" gradientTransform="translate(294.58 -230.72) rotate(68.5)" xlink:href="#e68cd5eb-2d47-4815-a37b-782006d683cf"/><linearGradient id="aa895687-df53-4ed3-89d8-27c8334b1c5f" x1="1124.71" y1="-615.12" x2="1145.91" y2="-615.12" gradientTransform="translate(294.58 -230.72) rotate(68.5)" xlink:href="#e68cd5eb-2d47-4815-a37b-782006d683cf"/><linearGradient id="f1da41ce-f9d2-419e-89eb-9c870cc2aa9b" x1="1503.68" y1="-302.08" x2="1522.34" y2="-302.08" gradientTransform="matrix(0.52, 0.7, -0.9, 0.67, 202.05, -233.22)" xlink:href="#e68cd5eb-2d47-4815-a37b-782006d683cf"/><linearGradient id="bdf126f3-a359-4803-be70-e09304e3cc4a" x1="1805.35" y1="448.96" x2="1834.76" y2="448.96" xlink:href="#e68cd5eb-2d47-4815-a37b-782006d683cf"/><linearGradient id="fc048e66-a5fd-4c5b-b93f-bec733d0ec97" x1="1633.44" y1="-368.03" x2="1662.84" y2="-368.03" gradientTransform="matrix(0.8, 0.6, -0.6, 0.8, 310.47, -212.32)" xlink:href="#e68cd5eb-2d47-4815-a37b-782006d683cf"/><linearGradient id="a3278e8b-af52-4a22-81aa-1e5a8240fc02" x1="1672.85" y1="-338.27" x2="1702.25" y2="-338.27" gradientTransform="matrix(0.8, 0.6, -0.6, 0.8, 310.47, -212.32)" xlink:href="#e68cd5eb-2d47-4815-a37b-782006d683cf"/><linearGradient id="bf8e8285-d98a-4a83-ad32-ab73b3659b03" x1="2031.04" y1="75.85" x2="2056.92" y2="75.85" gradientTransform="matrix(0.82, 0.32, -0.41, 1.04, 230.4, -165.88)" xlink:href="#e68cd5eb-2d47-4815-a37b-782006d683cf"/><linearGradient id="f6ad00f3-b917-4a32-aa2a-428b431e3696" x1="88.61" y1="1662.52" x2="118.01" y2="1662.52" gradientTransform="matrix(-0.37, 0.93, 0.93, 0.37, 308.63, -230.72)" xlink:href="#e68cd5eb-2d47-4815-a37b-782006d683cf"/><linearGradient id="a9f08f8a-1a27-4825-b904-c89f5d3399f2" x1="128.02" y1="1692.28" x2="157.42" y2="1692.28" gradientTransform="matrix(-0.37, 0.93, 0.93, 0.37, 308.63, -230.72)" xlink:href="#e68cd5eb-2d47-4815-a37b-782006d683cf"/><linearGradient id="a4db6153-2521-4273-908b-5acbb8f574bd" x1="-273.75" y1="1463.96" x2="-247.87" y2="1463.96" gradientTransform="matrix(-0.52, 0.7, 0.9, 0.67, 401.16, -233.22)" xlink:href="#e68cd5eb-2d47-4815-a37b-782006d683cf"/><linearGradient id="ffc3489b-d06b-4b5c-b929-1fc717319de8" x1="-1335.35" y1="454.79" x2="-1305.94" y2="454.79" gradientTransform="matrix(-1, 0, 0, 1, 603.21, 0)" xlink:href="#e68cd5eb-2d47-4815-a37b-782006d683cf"/><linearGradient id="f7bd98d9-789e-4c50-97a3-8ad3898b9490" x1="-876.62" y1="1519.72" x2="-847.22" y2="1519.72" gradientTransform="matrix(-0.8, 0.6, 0.6, 0.8, 292.74, -212.32)" xlink:href="#e68cd5eb-2d47-4815-a37b-782006d683cf"/><linearGradient id="ac235721-8732-439e-9601-dff201ea605e" x1="-837.21" y1="1549.49" x2="-807.81" y2="1549.49" gradientTransform="matrix(-0.8, 0.6, 0.6, 0.8, 292.74, -212.32)" xlink:href="#e68cd5eb-2d47-4815-a37b-782006d683cf"/><linearGradient id="a73c94c7-3ce0-48af-91f7-d4c8bc0e1245" x1="-1293.07" y1="1115.78" x2="-1267.19" y2="1115.78" gradientTransform="matrix(-0.82, 0.32, 0.41, 1.04, 372.82, -165.88)" xlink:href="#e68cd5eb-2d47-4815-a37b-782006d683cf"/><linearGradient id="e01509c5-6658-425f-89f1-8d1876e28c9e" x1="1245.22" y1="-1257.46" x2="1274.62" y2="-1257.46" gradientTransform="translate(294.58 -230.72) rotate(68.5)" xlink:href="#e68cd5eb-2d47-4815-a37b-782006d683cf"/><linearGradient id="e6c55153-7587-431f-859f-4039f23bd8ea" x1="1284.62" y1="-1227.7" x2="1314.03" y2="-1227.7" gradientTransform="translate(294.58 -230.72) rotate(68.5)" xlink:href="#e68cd5eb-2d47-4815-a37b-782006d683cf"/><linearGradient id="a7fbe673-6e50-4a14-b72c-37aed575cbc5" x1="1869.07" y1="-780.64" x2="1894.95" y2="-780.64" gradientTransform="matrix(0.52, 0.7, -0.9, 0.67, 202.05, -233.22)" xlink:href="#e68cd5eb-2d47-4815-a37b-782006d683cf"/><linearGradient id="efb8e6b2-eb1a-423b-af85-85069bf3fd2c" x1="989.45" y1="694.56" x2="1073.34" y2="694.56" gradientUnits="userSpaceOnUse"><stop offset="0" stop-color="#182f57"/><stop offset="1" stop-color="#051d3a"/></linearGradient><linearGradient id="bd4ae8e1-bda5-4303-b434-04eda2900404" x1="1019.27" y1="623.23" x2="1081.25" y2="623.23" gradientUnits="userSpaceOnUse"><stop offset="0" stop-color="#dc4d65"/><stop offset="1" stop-color="#051d3a"/></linearGradient><linearGradient id="ad446f80-5807-4bc1-88e8-bb96164ec0ee" x1="958.41" y1="597.9" x2="1020.39" y2="597.9" xlink:href="#bd4ae8e1-bda5-4303-b434-04eda2900404"/><linearGradient id="b3fb00c9-485f-4068-9df7-ed9a83a61111" x1="883.83" y1="704.45" x2="1008.11" y2="704.45" xlink:href="#efb8e6b2-eb1a-423b-af85-85069bf3fd2c"/><linearGradient id="f8728bb8-f973-4d2f-9c13-e0f6cfd6333b" x1="928.01" y1="598.77" x2="1019.83" y2="598.77" xlink:href="#bd4ae8e1-bda5-4303-b434-04eda2900404"/><linearGradient id="b1544508-0cf5-4dfc-9fd2-570c41d59567" x1="837.85" y1="561.26" x2="929.67" y2="561.26" xlink:href="#bd4ae8e1-bda5-4303-b434-04eda2900404"/></defs><title>feedback</title><rect x="-0.6" width="1980" height="780" fill="#f8f8f8"/><ellipse cx="1367.86" cy="745.23" rx="563.9" ry="12.06" fill="#192f35" opacity="0.13"/><path d="M1224.76,563c-5.75-8.27-13.91-15.25-17.83-24.72-4.17-10.05-.11-19.89,11.75-13.15,6.76,3.84,8.11,10.74,7.82,17.94C1226.31,547.78,1222,559.06,1224.76,563Z" fill="url(#e68cd5eb-2d47-4815-a37b-782006d683cf)"/><path d="M1232.69,587.66c.36-10.06-2-20.55.55-30.47,2.69-10.54,11.84-16,17.29-3.48,3.11,7.13.06,13.46-4.49,19C1243.08,576.38,1232.86,582.82,1232.69,587.66Z" fill="url(#b1ed457f-66f0-4171-8cd6-2ea6fb54f8f1)"/><path d="M1242.57,621.88c.35-10.07-2-20.56.54-30.48,2.7-10.54,11.85-16,17.3-3.48,3.1,7.13,0,13.46-4.5,19C1253,610.59,1242.74,617,1242.57,621.88Z" fill="url(#a5c0ec88-1f60-451e-bed4-adec21893d98)"/><path d="M1247.68,655.19c-1.11-9.22-4.42-18-3.79-27.76.67-10.4,7.17-18.26,13.23-8.7,3.45,5.45,1.91,12.16-.93,18.67C1254.35,641.64,1247.14,650.75,1247.68,655.19Z" fill="url(#f6d4f53c-e6a2-476f-9c48-c0b0c3ddc4a0)"/><path d="M1229.56,577.17c-5.58-8.38-9.09-18.54-16.46-25.66-7.82-7.56-18.47-7.39-16.54,6.12,1.09,7.69,7,11.48,13.82,13.85C1214.8,573,1226.88,573.14,1229.56,577.17Z" fill="url(#b261f7bc-c3d1-4cf7-86ac-fba95778227a)"/><path d="M1239.11,611.47c-5.58-8.38-9.09-18.54-16.46-25.65-7.82-7.56-18.47-7.39-16.54,6.11,1.09,7.7,7,11.49,13.82,13.85C1224.35,607.32,1236.43,607.44,1239.11,611.47Z" fill="url(#a1594bb9-d6e6-4b4b-9d56-dea1113c5d20)"/><path d="M1252.24,642.51c-3.89-8.43-5.65-17.61-11.34-25.61-6-8.51-15.69-11.79-15.82-.47-.08,6.45,4.75,11.35,10.58,15.41C1239.45,634.48,1250.37,638.45,1252.24,642.51Z" fill="url(#f9bd104b-c8c8-4667-a823-41d1addcf866)"/><path d="M1222.5,560a290.84,290.84,0,0,1,15,36.47c4.24,12.45,7.93,25.1,10.94,37.91.81,3.18,1.46,6.41,2.15,9.63l1,4.82c.35,1.61.68,3.22.94,4.85l1.72,9.71c.61,3.24,1,6.51,1.45,9.76l.68,4.89.34,2.44.25,2.45,1,9.82c.34,3.26.47,6.55.66,9.83s.36,6.56.5,9.84c-1.7-13-3.4-26-5.72-38.91s-4.89-25.71-7.89-38.44l-2.31-9.54-2.51-9.48q-2.57-9.48-5.43-18.87C1231.39,584.65,1227.32,572.2,1222.5,560Z" fill="#39b54a"/><path d="M1282,567.24c5.75-8.26,13.91-15.25,17.84-24.72,4.16-10,.1-19.89-11.76-13.15-6.76,3.84-8.11,10.74-7.82,17.94C1280.41,552,1284.73,563.27,1282,567.24Z" fill="url(#f6520a83-05a7-4016-9b66-db39e4171ba3)"/><path d="M1274,591.87c-.36-10.07,2-20.56-.55-30.48-2.69-10.54-11.84-16-17.29-3.48-3.11,7.13,0,13.46,4.49,19C1263.64,580.58,1273.86,587,1274,591.87Z" fill="url(#b8a64fda-4485-4d7f-acf0-90568bb1cee7)"/><path d="M1264.15,626.08c-.35-10.07,2-20.56-.54-30.48-2.7-10.54-11.84-16-17.29-3.48-3.11,7.13-.06,13.46,4.49,19C1253.76,614.8,1264,621.23,1264.15,626.08Z" fill="url(#a79699f3-ceea-4035-8536-af963812d639)"/><path d="M1259,659.39c1.11-9.22,4.43-18,3.79-27.76-.67-10.4-7.17-18.26-13.23-8.7-3.45,5.45-1.9,12.16.93,18.68C1252.37,645.84,1259.58,655,1259,659.39Z" fill="url(#bbfc7e6b-8b05-4ea1-b27a-60751a12c65f)"/><path d="M1277.16,581.37c5.58-8.38,9.09-18.54,16.46-25.66,7.82-7.56,18.47-7.39,16.54,6.12-1.09,7.7-7,11.48-13.82,13.85C1291.92,577.22,1279.85,577.34,1277.16,581.37Z" fill="url(#af06c2cd-94e6-4a1e-bedc-5c7e0455f7f8)"/><path d="M1267.61,615.67c5.58-8.38,9.09-18.54,16.46-25.65,7.82-7.56,18.47-7.39,16.54,6.11-1.09,7.7-7,11.49-13.82,13.85C1282.37,611.52,1270.29,611.64,1267.61,615.67Z" fill="url(#aa895687-df53-4ed3-89d8-27c8334b1c5f)"/><path d="M1254.48,646.71c3.89-8.43,5.66-17.61,11.34-25.61,6-8.5,15.69-11.79,15.82-.47.08,6.45-4.75,11.35-10.58,15.41C1267.27,638.68,1256.35,642.65,1254.48,646.71Z" fill="url(#f1da41ce-f9d2-419e-89eb-9c870cc2aa9b)"/><path d="M1284.22,564.18c-4.82,12.22-8.89,24.67-12.74,37.18q-2.85,9.4-5.42,18.87l-2.52,9.48-2.31,9.54c-3,12.73-5.71,25.54-7.89,38.45s-4,25.87-5.72,38.9c.14-3.28.3-6.56.5-9.84s.32-6.57.67-9.83l1-9.82.25-2.45.34-2.44.68-4.89c.47-3.25.85-6.52,1.45-9.76l1.72-9.71c.27-1.63.59-3.24.94-4.84l1-4.83c.7-3.22,1.34-6.44,2.15-9.63,3-12.81,6.7-25.46,10.94-37.91A290.84,290.84,0,0,1,1284.22,564.18Z" fill="#39b54a"/><polygon points="1212.95 678.19 1296.48 678.19 1280.18 747.93 1232.05 747.93 1212.95 678.19" fill="#192f35"/><path d="M1832.29,476.76c-8-11.46-19.29-21.16-24.73-34.28-5.78-13.94-.15-27.59,16.3-18.24,9.37,5.33,11.25,14.89,10.85,24.87C1834.44,455.6,1828.46,471.25,1832.29,476.76Z" fill="url(#bdf126f3-a359-4803-be70-e09304e3cc4a)"/><path d="M1843.29,510.91c.49-14-2.76-28.5.76-42.27,3.73-14.62,16.42-22.16,24-4.82,4.31,9.88.08,18.66-6.23,26.41C1857.7,495.27,1843.53,504.2,1843.29,510.91Z" fill="url(#fc048e66-a5fd-4c5b-b93f-bec733d0ec97)"/><path d="M1857,558.36c.49-14-2.76-28.51.76-42.27,3.73-14.62,16.42-22.17,24-4.82,4.3,9.88.07,18.66-6.23,26.41C1871.4,542.71,1857.22,551.64,1857,558.36Z" fill="url(#a3278e8b-af52-4a22-81aa-1e5a8240fc02)"/><path d="M1864.08,604.55c-1.55-12.78-6.14-24.9-5.26-38.49.93-14.42,10-25.33,18.34-12.07,4.79,7.56,2.65,16.87-1.27,25.9C1873.33,585.77,1863.33,598.4,1864.08,604.55Z" fill="url(#bf8e8285-d98a-4a83-ad32-ab73b3659b03)"/><path d="M1839,496.35c-7.74-11.62-12.61-25.71-22.83-35.58-10.85-10.48-25.61-10.24-22.94,8.48,1.52,10.68,9.73,15.93,19.16,19.21C1818.47,490.6,1835.22,490.76,1839,496.35Z" fill="url(#f6ad00f3-b917-4a32-aa2a-428b431e3696)"/><path d="M1852.2,543.93c-7.75-11.62-12.62-25.71-22.83-35.58-10.85-10.49-25.62-10.25-22.95,8.48,1.52,10.67,9.73,15.93,19.17,19.21C1831.72,538.17,1848.47,538.34,1852.2,543.93Z" fill="url(#a9f08f8a-1a27-4825-b904-c89f5d3399f2)"/><path d="M1870.41,587c-5.4-11.69-7.85-24.42-15.73-35.52-8.37-11.79-21.76-16.34-22-.65-.11,9,6.6,15.75,14.68,21.38C1852.67,575.84,1867.81,581.34,1870.41,587Z" fill="url(#a4db6153-2521-4273-908b-5acbb8f574bd)"/><path d="M1829.15,472.52q3,6.12,5.71,12.41,1.38,3.12,2.67,6.29c.86,2.11,1.75,4.2,2.59,6.32,3.31,8.49,6.49,17,9.36,25.69,5.79,17.28,10.87,34.82,15,52.57,1.12,4.42,2,8.89,3,13.35l1.43,6.68.71,3.35.62,3.36,2.42,13.46c.84,4.48,1.38,9,2.06,13.51l1,6.77.48,3.38.37,3.4,1.45,13.59c.52,4.52.74,9.08,1,13.62s.59,9.09.84,13.63q-.86-6.78-1.63-13.55c-.53-4.52-1-9-1.72-13.53l-1.94-13.49-.48-3.38-.57-3.36-1.14-6.71c-2.93-17.93-6.67-35.71-10.83-53.39l-3.21-13.23-3.51-13.16q-3.6-13.14-7.62-26.15C1841.84,506.61,1836,489.37,1829.15,472.52Z" fill="#39b54a"/><path d="M1911.62,482.59c8-11.47,19.29-21.16,24.73-34.28,5.78-13.94.15-27.59-16.3-18.24-9.37,5.33-11.25,14.89-10.85,24.87C1909.47,461.43,1915.45,477.07,1911.62,482.59Z" fill="url(#ffc3489b-d06b-4b5c-b929-1fc717319de8)"/><path d="M1900.62,516.74c-.49-14,2.76-28.51-.76-42.27-3.73-14.62-16.42-22.17-24-4.83-4.31,9.89-.08,18.67,6.23,26.42C1886.21,501.09,1900.38,510,1900.62,516.74Z" fill="url(#f7bd98d9-789e-4c50-97a3-8ad3898b9490)"/><path d="M1886.92,564.19c-.49-14,2.76-28.51-.76-42.27-3.73-14.62-16.42-22.17-24-4.83-4.3,9.89-.07,18.67,6.23,26.41C1872.51,548.54,1886.69,557.47,1886.92,564.19Z" fill="url(#ac235721-8732-439e-9601-dff201ea605e)"/><path d="M1879.83,610.38c1.55-12.79,6.14-24.9,5.26-38.49-.93-14.42-9.95-25.33-18.34-12.07-4.79,7.56-2.65,16.86,1.27,25.9C1870.58,591.59,1880.58,604.23,1879.83,610.38Z" fill="url(#a73c94c7-3ce0-48af-91f7-d4c8bc0e1245)"/><path d="M1905,502.18c7.74-11.62,12.61-25.71,22.83-35.58,10.85-10.48,25.61-10.25,22.94,8.48-1.52,10.67-9.73,15.93-19.16,19.21C1925.44,496.43,1908.69,496.59,1905,502.18Z" fill="url(#e01509c5-6658-425f-89f1-8d1876e28c9e)"/><path d="M1891.71,549.76c7.75-11.63,12.62-25.71,22.83-35.59,10.86-10.48,25.62-10.24,23,8.48-1.52,10.68-9.73,15.93-19.17,19.22C1912.19,544,1895.44,544.16,1891.71,549.76Z" fill="url(#e6c55153-7587-431f-859f-4039f23bd8ea)"/><path d="M1873.5,592.8c5.4-11.7,7.85-24.42,15.73-35.52,8.37-11.79,21.76-16.34,22-.65.11,9-6.6,15.74-14.68,21.37C1891.24,581.66,1876.1,587.17,1873.5,592.8Z" fill="url(#a7fbe673-6e50-4a14-b72c-37aed575cbc5)"/><path d="M1914.76,478.35c-6.89,16.85-12.69,34.09-18.11,51.42q-4,13-7.62,26.16l-3.51,13.16-3.21,13.23c-4.16,17.67-7.9,35.45-10.83,53.38l-1.14,6.72-.57,3.36-.48,3.37-1.94,13.5c-.74,4.48-1.19,9-1.72,13.52s-1.06,9-1.63,13.56c.25-4.55.52-9.09.84-13.63s.53-9.1,1.05-13.62l1.45-13.59.37-3.4.48-3.38,1-6.77c.68-4.5,1.22-9,2.06-13.52l2.42-13.45.62-3.37.71-3.34,1.43-6.69c1-4.45,1.86-8.93,3-13.34,4.17-17.76,9.25-35.29,15-52.58,2.87-8.65,6-17.2,9.36-25.68.84-2.12,1.73-4.22,2.59-6.33s1.75-4.2,2.67-6.29Q1911.72,484.47,1914.76,478.35Z" fill="#39b54a"/><polygon points="1815.9 636.45 1931.76 636.45 1909.15 733.17 1842.39 733.17 1815.9 636.45" fill="#192f35"/><g opacity="0.39"><path d="M1007.33,669.86h45.32s44.81,21.9,2.54,49.39h-47.86S967.1,696.34,1007.33,669.86Z" fill="url(#efb8e6b2-eb1a-423b-af85-85069bf3fd2c)"/><path d="M1019.27,661.71V615s0-45.2,62-25.19c-3.8-1.17-11.53,41.49-58.37,27.41Z" fill="url(#bd4ae8e1-bda5-4303-b434-04eda2900404)"/><path d="M1020.39,636.39V589.72s0-45.2-62-25.19c3.81-1.17,11.53,41.49,58.38,27.41Z" fill="url(#ad446f80-5807-4bc1-88e8-bb96164ec0ee)"/><path d="M1019,669.86V637.78s0-31.06,43.79-17.31c-2.69-.8-8.15,28.51-41.24,18.84Z" fill="#dc4d65"/><path d="M1019.83,652.46V620.38s0-31.06-43.79-17.32c2.69-.79,8.15,28.52,41.25,18.85Z" fill="#dc4d65"/></g><rect x="1267.37" y="49.99" width="340.04" height="687.14" rx="37.9" fill="#192f35" stroke="#fff" stroke-miterlimit="10" stroke-width="12"/><path d="M1360,42.86V74.75s5.78,24.61,29.45,27.4h96.4s29.08-1.68,29.64-29.64V42.86Z" fill="#102749" stroke="#fff" stroke-miterlimit="10" stroke-width="10"/><rect x="1430.79" y="65.52" width="13.98" height="13.98" rx="6" fill="#102749" stroke="#fff" stroke-miterlimit="10" stroke-width="4"/><polygon points="1127.54 141.13 1129.1 118.4 1145.11 117.02 1156.62 141.13 1168.35 162.13 1145.11 173.79 1127.54 170.68 1129.88 155.52 1127.54 141.13" fill="#f0b943"/><path d="M1153.11,115.85s32.16-21.57,12-37.91c-6-4.82-13.09,3.45-18.6,4.51-7.92,1.54-14.72-5-22.29-3.21-5.77,1.33-6.67,6.3-9.75,10.75-3.74,5.38-8.37,8.84-12.12,13.66-11.37,14.59,6.28,23.17,12.17,35.48,1.68,3.52,6.44,18,11.41,18.31,11.69.78,3.85-24.1,5.14-29.61,4.1-17.49,18,6.6,20.5,12.68,2.18,5.29,2.15,12.91,7.08,16.9,7.86,6.35,8.89.67,16.7-.72,8.75-1.56,22.64-7.52,13.07-17.58-4.39-4.62-17.14-3.77-23.31-4.59Z" fill="#192f35"/><path d="M1166.82,102c-.34.41-.77,1.06-1.28,1.19-3.21.81-6.48,1.65-9.27,3.44-7.24,4.66-5.69,11.43-4,18.56,1.1,4.67,2.22,15.2,6.29,18.28,3.43,2.6,11.94.16,16.45-1.91,4.3-2,4.3-1.71,7-5.75.4-.62,3.71-9.39,3.88-9.34a94.45,94.45,0,0,0-13-20.88c-.92-1.12-3.48-4.06-4.88-4.46C1167.2,100.9,1167.8,100.83,1166.82,102Z" fill="#f0b943"/><polygon points="1127.54 170.68 1122.86 170.68 1122.86 179.24 1145.11 173.79 1127.54 170.68" fill="#e1e2e2"/><path d="M1181.81,199.27s32.79,42,23.42,120.74l.53,44.93-19.92-56.23s7.09-26,3-49.36l-11.71-55.61Z" fill="#192f35"/><path d="M1120.64,374.6v16l3.19,16.33-20.49,123.66-3.38,29-2.2,18.86c-1.15,9.87-9.65,15.15-15.36,22.78-9,12-15.79,25.66-21.23,39.6L1026,707.9l25.19,20.41,44.5-66.49a291.22,291.22,0,0,0,43.92-74.66c4.79-11.65,6.55-24.3,10-36.38.88-3.1,3.88-15.61,8.61-15.12,10.85,1.16,7.41,31.25,7,36.73-.69,10.59.56,125.59.73,125.59-1.18,0,.52,30.33.52,30.33h29.34l7.61-93.91c3.64-44.86,3.44-89.77,3.44-134.74l-5.78-92.16-.69-24.69-28-23.14h-31.63Z" fill="#192f35"/><path d="M1097.38,210.74c-.82.18-2.08,7-2.26,7.77a133.46,133.46,0,0,0-3.56,21c-1.53,17.39,2.18,34.17,9.14,50.07,3.86,8.82,8.1,17.53,11,26.73,2.29,7.3,3.08,14.91,4.07,22.46.61,4.56,1.3,9.21.89,13.82-.37,4.28-2.56,7.81-3.15,12-1.24,8.86,6.91,10.89,14,10.63,0,0,22.64-9.72,38.26-6.23,0,0,21.86,2.34,30.84,12.45,0,0,17.18,8.16,11.32-9.33q-4.93-16.29-10.22-32.45c-2.67-8.19-5.39-16.36-8.33-24.46-2-5.56-5.28-10.62-7.05-16.28-2-6.47-3.32-14.36-1.34-21,1.73-5.81,6.82-9.86,8.69-15.61,2.74-8.41,1.7-18-.88-26.3l-8.41-30.59-50.93-1.68Z" fill="#cdebef"/><path d="M1115,178.25a32.54,32.54,0,0,0-8.68,4.48,33.35,33.35,0,0,0-12.8,32.65s8.6,43,63.94,8.82l73.87-32.41-9.1-30.66-80,12.61C1133.4,175.15,1123.63,175.26,1115,178.25Z" fill="#cdebef"/><polygon points="1211.02 159.6 1232.88 193.43 1248.11 183.1 1234.44 147.94 1211.02 159.6" fill="#e1e2e2"/><path d="M1091.22,234.07c1.15,2-1.65,9.27-2.08,11.27-1.7,7.89-3.52,15.75-5.34,23.61s-3.67,15.72-5.53,23.57c-2.13,9-5.87,18-5,27.37.79,8.75,4.86,17,10.19,23.84L1117,383.35l3.64-44.57-13.79-11,2.14-19.08Z" fill="#cdebef"/><path d="M1054.48,657.5c.5-.67,1-1.32,1.56-2,5-5.95,12-9.31,18.93-12.41,14.15-6.33,31.29-15.59,41.39-27.63,3.75-4.48,6.5-10.51,9.59-15.49,5.13-8.23,5.1-20.47,6.67-30l3.12-45.11V488.77c0-12.67-1.29-23.28,3.8-35.26-1.51,6,3.34,11.77,4.45,17.47,1.67,8.59,2.54,17.35,5.63,25.6,3.8,10.13,8.66,19.81,12.81,29.79,3.62,8.73,4.64,24,12.06,30.4,3.89,3.33,8.81,2.82,13.21,4.55-4.09,2.48-11.1.89-14.14,5.11-4.58,6.35-2.37,17.27-2.9,24.63-.92,13-.73,27.8-3.69,40.43l-2.73,11.66V589.88l1.56-27.22-2-11.28-6.25-22.16L1147.84,565l-14.44,40.83-9.76,17.11-25,36.56-26.55,40.44-20.3,26.83L1026.43,710l7.41-11.67C1042,685.55,1045.3,669.7,1054.48,657.5Z" fill="#191819"/><path d="M1233.91,153.6l43-20.55,24.17-13.2c3.48-1.9,8.69-4.49,11.38-7.33,7.34-7.75,5.33-23.64,16.38-27.88,5.86-2.25,17.16,1.36,21.32,5.84,1.8,1.94,4.73,4.24,2.85,7.18-3.5,5.48-6.82-2.88-10.26-4s-7,10.79-7.91,12.79c-3.33,7.42-5.79,7.18-11.08,12.33-20,19.48-41.16,35.18-64,51.16l-15.36,10.58Z" fill="#f0b943"/><path d="M1032,693.5s-9.78,14.57-9.82,14.65c-19.43,38.11,89.85,51.61,32.39,4Z" fill="#f0b943"/><path d="M1165.75,728s1.65,15.78,1.67,15.86c8.58,37.75,92.21-15.86,24.8-15.86Z" fill="#f0b943"/><polygon points="1355.47 288.84 1342.81 281.99 1329.99 288.54 1332.59 274.38 1322.4 264.22 1336.67 262.31 1343.19 249.48 1349.41 262.46 1363.63 264.7 1353.2 274.62 1355.47 288.84" fill="#f0b943"/><polygon points="1401.91 288.84 1389.25 281.99 1376.43 288.54 1379.03 274.38 1368.84 264.22 1383.11 262.31 1389.63 249.48 1395.85 262.46 1410.07 264.7 1399.64 274.62 1401.91 288.84" fill="#f0b943"/><polygon points="1448.35 288.84 1435.69 281.99 1422.87 288.54 1425.47 274.38 1415.28 264.22 1429.55 262.31 1436.07 249.48 1442.29 262.46 1456.51 264.7 1446.08 274.62 1448.35 288.84" fill="#f0b943"/><polygon points="1494.79 287.28 1482.13 280.43 1469.31 286.98 1471.91 272.82 1461.72 262.66 1475.99 260.75 1482.51 247.92 1488.73 260.9 1502.95 263.14 1492.52 273.06 1494.79 287.28" fill="#f0b943"/><polygon points="1516.51 171.62 1503.85 164.77 1491.03 171.32 1493.63 157.16 1483.44 147 1497.71 145.09 1504.22 132.26 1510.45 145.24 1524.66 147.47 1514.24 157.4 1516.51 171.62" fill="#f0b943"/><polygon points="1542.31 286.78 1529.65 279.93 1516.83 286.48 1519.43 272.32 1509.24 262.16 1523.51 260.25 1530.03 247.42 1536.25 260.4 1550.47 262.64 1540.04 272.56 1542.31 286.78" fill="#939598"/><rect x="1322.4" y="332.48" width="223.52" height="166.32" fill="none" stroke="#cdebef" stroke-miterlimit="10" stroke-width="3"/><text transform="translate(1338.56 439.4)" font-size="12" fill="#cdebef" font-family="MyriadPro-Regular, Myriad Pro" letter-spacing="-0.01em">C<tspan x="6.88" y="0" letter-spacing="0.01em">OMMEN</tspan><tspan x="49.08" y="0" letter-spacing="0.01em">T</tspan><tspan x="55.14" y="0" letter-spacing="0.01em">S</tspan></text><line x1="1363.63" y1="449.12" x2="1509.24" y2="450.2" fill="none" stroke="#cdebef" stroke-miterlimit="10" stroke-width="2"/><line x1="1363.63" y1="457.95" x2="1509.24" y2="459.03" fill="none" stroke="#cdebef" stroke-miterlimit="10" stroke-width="2"/><line x1="1363.63" y1="466.78" x2="1509.24" y2="467.86" fill="none" stroke="#cdebef" stroke-miterlimit="10" stroke-width="2"/><line x1="1363.63" y1="475.62" x2="1509.24" y2="476.7" fill="none" stroke="#cdebef" stroke-miterlimit="10" stroke-width="2"/><line x1="1363.63" y1="484.45" x2="1509.24" y2="485.53" fill="none" stroke="#cdebef" stroke-miterlimit="10" stroke-width="2"/><path d="M1411,408.75H1269.5a14,14,0,0,1-14-14V359.42a14,14,0,0,1,14-14H1411a14,14,0,0,1,14,14v35.35A14,14,0,0,1,1411,408.75Z" fill="#cdebef"/><polygon points="1415.96 424.64 1415.96 407.86 1398.68 408.75 1415.96 424.64" fill="#cdebef"/><rect x="1443.32" y="345.44" width="72.36" height="63.31" rx="8.64" fill="#cdebef"/><path d="M1457.17,378.18c2.58,4.1,6.67,7.42,10,10.82l11.88,12c5.23-5.23,10.82-10.08,16-15.35,5-5,11.35-12.35,8.08-20-2.59-6-10.9-10-17.16-7.8-.69.24-6.41,3.31-5.61,4-5.23-4.69-14.44-6.72-20.6-2.71-4,2.62-5.47,7.33-5.09,11.93A15.52,15.52,0,0,0,1457.17,378.18Z" fill="#dc4d65"/><rect x="1321.8" y="522" width="223.52" height="166.32" fill="none" stroke="#cdebef" stroke-miterlimit="10" stroke-width="3"/><text transform="translate(1337.96 628.92)" font-size="12" fill="#cdebef" font-family="MyriadPro-Regular, Myriad Pro" letter-spacing="-0.01em">C<tspan x="6.88" y="0" letter-spacing="0.01em">OMMEN</tspan><tspan x="49.08" y="0" letter-spacing="0.01em">T</tspan><tspan x="55.14" y="0" letter-spacing="0.01em">S</tspan></text><line x1="1363.03" y1="638.64" x2="1508.64" y2="639.72" fill="none" stroke="#cdebef" stroke-miterlimit="10" stroke-width="2"/><line x1="1363.03" y1="647.47" x2="1508.64" y2="648.55" fill="none" stroke="#cdebef" stroke-miterlimit="10" stroke-width="2"/><line x1="1363.03" y1="656.3" x2="1508.64" y2="657.38" fill="none" stroke="#cdebef" stroke-miterlimit="10" stroke-width="2"/><line x1="1363.03" y1="665.13" x2="1508.64" y2="666.21" fill="none" stroke="#cdebef" stroke-miterlimit="10" stroke-width="2"/><line x1="1363.03" y1="673.97" x2="1508.64" y2="675.05" fill="none" stroke="#cdebef" stroke-miterlimit="10" stroke-width="2"/><path d="M1410.44,598.27H1268.9a14,14,0,0,1-14-14V548.94a14,14,0,0,1,14-14h141.54a14,14,0,0,1,14,14v35.35A14,14,0,0,1,1410.44,598.27Z" fill="#cdebef"/><polygon points="1415.36 614.16 1415.36 597.38 1398.08 598.27 1415.36 614.16" fill="#cdebef"/><rect x="1442.72" y="534.96" width="72.36" height="63.31" rx="8.64" fill="#cdebef"/><path d="M1456.57,567.7c2.58,4.1,6.67,7.41,10,10.81l11.88,12c5.23-5.23,10.82-10.08,16-15.36,5-5,11.35-12.34,8.08-20-2.59-6-10.9-10-17.16-7.81-.69.25-6.41,3.32-5.61,4-5.23-4.68-14.44-6.71-20.6-2.7-4,2.61-5.47,7.33-5.09,11.93A15.56,15.56,0,0,0,1456.57,567.7Z" fill="#dc4d65"/><path d="M1354.87,163.93c5.15-3.85,12.13-5,14.07-12.27,1-3.76-.06-7.73-.15-11.62s.94-8.11,3.64-11,7.28-4.21,10.82-2.42c12,6.07,7.33,31.55,3.74,41-1.11,2.91-2.71,6-5.59,7.17-2.23.93-4.77.56-7.12,0C1367.82,173.1,1358.82,169.54,1354.87,163.93Z" fill="#4aa8b0" stroke="#f1f2f2" stroke-miterlimit="10" stroke-width="5"/><rect x="1382.77" y="163.58" width="35.28" height="14.76" rx="7.38" fill="#4aa8b0" stroke="#f1f2f2" stroke-miterlimit="10" stroke-width="5"/><rect x="1378.29" y="178.62" width="35.28" height="14.76" rx="7.38" fill="#4aa8b0" stroke="#f1f2f2" stroke-miterlimit="10" stroke-width="5"/><rect x="1374.05" y="193.38" width="35.28" height="14.76" rx="7.38" fill="#4aa8b0" stroke="#f1f2f2" stroke-miterlimit="10" stroke-width="5"/><rect x="1368.1" y="207.04" width="35.28" height="14.76" rx="7.38" fill="#4aa8b0" stroke="#f1f2f2" stroke-miterlimit="10" stroke-width="5"/><rect x="1319.63" y="166.02" width="63.13" height="54.72" rx="10.08" fill="#4aa8b0" stroke="#f1f2f2" stroke-miterlimit="10" stroke-width="5"/><path d="M1707.26,677.17c-2.26,6.55-3.88,14.14-3.51,21.08.34,6.53,4.52,14.69-.23,20.35-8.9,10.59-72.1,23.2-60.17-5,3.37-8,30.27-41.38,40.09-39.94Z" fill="#dc4d65"/><path d="M1746.19,612.46c3.79,0,9-1,12.63,0,10.55,3,8.53,24.39,8.31,32.25-.25,8.94,1,19.77-3.4,28-3.44,6.33-12.77,15.63-20.61,15.47s-19.35-7.64-18-16.49c1-6.86,12.05-15.17,16.57-20.35Z" fill="#dc4d65"/><path d="M1739.17,414.26l-8.29,202.37-1.52,37.07c-.16,3.85.36,8.51-.5,12.27,0,12.9-40.06,14.17-45.42,7.7-5.23-6.32,1.74-41.2,2.14-49.17,1.48-29.58-.35-61.54,4.53-90.77-2.45,14.68-1.92,29.7-3.81,44.45-.85,6.64,5.91,27.84-.22,31.73-8.65,5.5-31.73-24.93-37.48-31.36-7-7.83-16-14.1-17.64-25.24-.75-5.18,0-11,0-16.27V398.33h92.25Z" fill="#192f35"/><path d="M1671.41,207.54c-2.52-7.17,3.85-17,4.34-24.4.66-9.91.41-20.51,5.82-28.84A29.7,29.7,0,0,1,1693.76,144a38.34,38.34,0,0,1,53.16,46.12c-2.05,6.5-5.89,13-4.38,19.66,2.56,11.3,17.22,13.57,28.63,15.56,67.5,11.77,115.14,110.74,49.88,156.8-27.74,19.58-70.17,15.31-92.24-10.49-12.25-14.32-17.78-35.58-9.55-52.53,2.73-5.64,6.86-10.67,8.45-16.73,1.32-5,.79-10.26.06-15.37-2.57-18-7.84-36-18.43-50.7-8-11.16-20-16.9-32-22.78C1674,212,1672.24,209.9,1671.41,207.54Z" fill="#f0b943"/><path d="M1717.35,216.49a34.6,34.6,0,0,1,4,1.33c43.15,17.55,53.15,81.33,63.94,119.8,8,28.61,17.77,59.75,16.18,89.79h-25.06l-21.23-52.5c-8-19.78-14.18-47.13-26.7-64.17-25.23,25,.17,61.65,15.84,81.58,0,0,16.42,20.89-26.89,30-24.8,5.21-72.9,2.24-93.07-13.66-7.27-5.72,9.13-56.83,10.38-66.73,2.46-19.57,5.19-43.19-.68-62.32-7.9-25.73-37.13-6.37-55.2-.61,0,0-23.06,10-35.09-23.06l-9-81.22h16c2.79,11.13,10.94,69.08,20,70.94,2.54.53,12.61-7.26,15-8.51a251.59,251.59,0,0,1,27-12.23c20.19-7.69,42.57-13.33,64.28-10.09C1689.82,216.73,1704.11,212.84,1717.35,216.49Z" fill="#4aa8b0"/><path d="M1718.61,176.1c-1.12-2.7.1-3.89-1.27-8.19-3.81-12-12.13-11.64-23.73-7.22-13.23,5.06-10.31,21.5-6.39,31.94,1.86,4.93,6,9.2,4.22,13.57-3.7,8.9-23.16,6-9.74,18.6,11.74,11,26.7.88,35.68-8.47V199.79c0-.95,8.79-5.4,9.74-7.24,4.62-9-3.35-8.64-7.06-13.91A13.6,13.6,0,0,1,1718.61,176.1Z" fill="#dc4d65"/><path d="M1731.61,598.84c-.09,2.46,12.55,11.73,14.58,13.62,7.38,6.89,8.18,24,7.71,33.44-.94,18.9-8.15,17.28-24.53,13.16Z" fill="#192f35"/><path d="M1796.91,427.41c0,6,14.24,21.59,19,25.26,4.11,3.18,12.16,4.92,13.81,10.38,4.06,13.54-28.93,15.85-32.76,9-6.16-11-20-31.46-17.34-44.41C1779.77,426.81,1795.26,427.19,1796.91,427.41Z" fill="#dc4d65"/><path d="M1547.23,174.72s-8.17-23.05-8.52-24.05c-2.77-7.81-30.93-31.14-39.59-27-4.5,2.17-3.77,9.29-3.37,13.31,1.11,11.31,12.62,14.44,19.89,20.87l19,16.85Z" fill="#dc4d65"/><path d="M910.31,667.86h67.14s66.39,32.44,3.78,73.18H910.31S850.72,707.09,910.31,667.86Z" fill="url(#b3fb00c9-485f-4068-9df7-ed9a83a61111)"/><path d="M928,655.79V586.64s0-67,91.82-37.32c-5.64-1.72-17.08,61.47-86.48,40.61Z" fill="url(#f8728bb8-f973-4d2f-9c13-e0f6cfd6333b)"/><path d="M929.67,618.28V549.13s0-67-91.82-37.32c5.63-1.73,17.08,61.46,86.48,40.61Z" fill="url(#b1544508-0cf5-4dfc-9fd2-570c41d59567)"/><path d="M927.67,667.86V620.33s0-46,64.87-25.64c-4-1.19-12.07,42.24-61.1,27.91Z" fill="#dc4d65"/><path d="M928.84,642.08V594.55s0-46-64.88-25.65c4-1.18,12.07,42.25,61.11,27.91Z" fill="#dc4d65"/><path d="M113.64,292.87l-25,42.75v29.32h-9V335.57l-25.05-42.7H64.8l19.32,33.59,19.31-33.59Z" fill="#192f35"/><path d="M148.32,292.82c21.68,0,36.57,17,36.57,36.06,0,21.37-17.25,36.06-36.57,36.06a36.06,36.06,0,0,1-36.51-36.06C111.81,307.91,128.86,292.82,148.32,292.82Zm0,63.87c15.59,0,27.26-12.37,27.26-27.81s-11.87-27.76-27.26-27.76-27.26,12.32-27.26,27.76C121.06,343.86,132.58,356.69,148.32,356.69Z" fill="#192f35"/><path d="M252,292.82v43.1c0,15.94-11.57,29-28.16,29-15.95,0-28.12-12.63-28.12-29v-43.1h9v42.75c0,10.71,7.29,21,19.11,21,11.21,0,19.11-9.56,19.11-21V292.82Z" fill="#192f35"/><path d="M311.34,364.94l-18.56-31.89H274.07v31.89h-8.95V292.87h32.09c11.06,0,20.37,8.3,20.37,20.17,0,9.2-5.64,16.64-15.14,19.21l19.06,32.69ZM274.07,324.8H296.3c6.24,0,12.43-4.72,12.43-11.76,0-6.49-5.64-11.77-12.48-11.77H274.07Z" fill="#192f35"/><path d="M435,292.82v8.45H396.29v20.06h29.57v8.4H396.29v35.21h-9V292.82Z" fill="#192f35"/><path d="M492.63,292.82v8.45H453.91v20.06h29.62v8.4H453.91v26.81h38.72v8.4H444.9V292.82Z" fill="#192f35"/><path d="M550.6,292.82v8.45H511.88v20.06H541.5v8.4H511.88v26.81H550.6v8.4H502.87V292.82Z" fill="#192f35"/><path d="M618.18,328.93c0,19.76-16.4,36-36.36,36h-21V292.87h21C601.53,292.87,618.18,308.76,618.18,328.93Zm-9.25,0c0-14.84-11.22-27.76-27.11-27.76h-12v55.52h12C596.7,356.69,608.93,344.62,608.93,328.93Z" fill="#192f35"/><path d="M668.51,326.92c7.64,2.51,13.68,9,13.68,17.85,0,11.52-8.91,20.17-20.37,20.17H629.73V292.87h25.4c11.06,0,20.32,8.35,20.32,20.17A17.82,17.82,0,0,1,668.51,326.92Zm-29.83-25.85v23.68h16.55c6-.2,11.87-4.93,11.87-11.87,0-6.48-5.53-11.81-12.42-11.81Zm22.18,55.62c6.29,0,12.47-4.83,12.47-12.07a12.25,12.25,0,0,0-12.42-12.07H638.68v24.14Z" fill="#192f35"/><path d="M723.21,292.82,752,364.94h-9l-5.43-13.58H699.82l-5.43,13.58h-9l28.77-72.12Zm-20.12,50.24h31.18l-15.59-39.53Z" fill="#192f35"/><path d="M822.32,339.64c-4.58,15.44-19,25.3-35,25.3a36.09,36.09,0,1,1,35-46.83l-8.6,2.62a27.51,27.51,0,0,0-26.3-19.66c-15.14,0-27.26,12.12-27.26,27.81,0,15,11.51,27.81,27.26,27.81A27.19,27.19,0,0,0,813.72,337Z" fill="#192f35"/><path d="M882.6,292.82l-21.67,22.63,28.82,49.49h-9.86l-25.1-43.1-12.27,12.82v30.28h-9V292.82h9V323l29.07-30.22Z" fill="#192f35"/><path d="M127.82,463.24c-4.58,15.44-19,25.3-34.95,25.3a36.09,36.09,0,1,1,34.95-46.83l-8.6,2.62a27.51,27.51,0,0,0-26.3-19.66c-15.14,0-27.26,12.12-27.26,27.81,0,15,11.52,27.81,27.26,27.81a27.19,27.19,0,0,0,26.3-19.71Z" fill="#192f35"/><path d="M173.17,416.42c21.67,0,36.56,17,36.56,36.06,0,21.37-17.25,36.06-36.56,36.06a36.06,36.06,0,0,1-36.51-36.06C136.66,431.51,153.7,416.42,173.17,416.42Zm0,63.87c15.59,0,27.26-12.37,27.26-27.81,0-15.59-11.87-27.76-27.26-27.76S145.91,437,145.91,452.48C145.91,467.46,157.43,480.29,173.17,480.29Z" fill="#192f35"/><path d="M276.86,416.42v43.1c0,15.94-11.57,29-28.17,29-15.94,0-28.11-12.63-28.11-29v-43.1h9v42.75c0,10.71,7.29,21,19.11,21,11.22,0,19.11-9.56,19.11-21V416.42Z" fill="#192f35"/><path d="M350.07,416.47v72.07h-5.28L299,432.31v56.23h-9V416.47h5.23L341,472.75V416.47Z" fill="#192f35"/><path d="M422.72,416.42v8.4H396v63.72h-9V424.82h-26.7v-8.4Z" fill="#192f35"/><path d="M435.78,469.68c8.2,7.49,17.25,10.51,25,10.51,10.76.05,18.91-5.43,18.91-12.88,0-17.8-48.33-4.12-48.33-30.22,0-13.83,11.46-20.67,25.49-20.72A46.06,46.06,0,0,1,483.31,425l-5.18,6.44a37.34,37.34,0,0,0-21.22-6.84c-9.36,0-16.65,3.77-16.65,11.92,0,18.1,48.28,3.62,48.28,30.77,0,12.28-12.07,21.23-27.61,21.23-9.61-.05-20.52-3.72-30.73-12.63Z" fill="#192f35"/><path d="M497.22,488.54a5.23,5.23,0,1,1,5.23-5.23A5.27,5.27,0,0,1,497.22,488.54Z" fill="#192f35"/><path d="M517.53,488.54a5.23,5.23,0,1,1,5.23-5.23A5.26,5.26,0,0,1,517.53,488.54Z" fill="#192f35"/><path d="M537.58,488.54a5.23,5.23,0,1,1,5.23-5.23A5.26,5.26,0,0,1,537.58,488.54Zm4-16.85h-8.05l-.5-55.27h9.05Z" fill="#192f35"/></svg>