<svg id="Layer_1" data-name="Layer 1" xmlns="http://www.w3.org/2000/svg" viewBox="0 0 87.14 104.81"><defs><style>.cls-1{fill:#ff9831;}.cls-2{fill:#fff;}.cls-3{opacity:0.3;}.cls-4{fill:#000072;}.cls-5{opacity:0.55;}.cls-6{fill:#1fbdc9;}.cls-7{fill:#eb2f7b;}.cls-8{fill:#25c1d6;}.cls-9{fill:#ffbb4c;}.cls-10{fill:#d326cb;}.cls-11{fill:#2de24f;}.cls-12{fill:#ff4a1a;}.cls-13{fill:#eaef18;}.cls-14{opacity:0.7;}</style></defs><path class="cls-1" d="M424.25,375c4.09.63,7,5.8-.32,6.12h-6.74a4.94,4.94,0,0,1-4.68-3.3,12.08,12.08,0,0,1-.19-5.66h0a32.73,32.73,0,0,1-12.89-.31h0c.56,6.05-2.32,8.81-7.6,9.26h-7.64a2.47,2.47,0,0,1-2.48-2.53,4.42,4.42,0,0,1,4.91-4.16A24.28,24.28,0,0,1,383,362.48a31.56,31.56,0,0,1,.23-5.17,65.19,65.19,0,0,1,3.73-13.71,2.51,2.51,0,0,0-1.7-3.25c-7.76-2.15-13.66-6.4-17.31-13.19a2.53,2.53,0,0,0,2.74-1.15,4.18,4.18,0,0,0,.33-.67,9.84,9.84,0,0,0,.54-3.91,1.89,1.89,0,0,1-.12-1.36,1.39,1.39,0,0,1,1.51-.87,2.28,2.28,0,0,1,1.7,1c.13.18.26.37.4.55a15.2,15.2,0,0,0,2.18,2.33h0c3.83,3.3,8.67,4,12.2,1.86l.43-.28a7.46,7.46,0,0,0,.1.95,6.88,6.88,0,0,0,1.66,3.25h0l.27.3h0c-.56,7.22,14.83,10.93,24.55,8.14,4.09-1.17,7.17-3.49,7.66-7.17a6,6,0,0,0,1.34-1.69,18.63,18.63,0,0,1,3.62,3,15.33,15.33,0,0,1,2.74,4,18.64,18.64,0,0,1-3.78,2.36l-.87.39c-3.92,1-6.54,3.64-6.81,6.48a5.25,5.25,0,0,0,.54,2.86,10.31,10.31,0,0,0,5.08,4.47h0C429.1,358.4,430,369,424.25,375Z" transform="translate(-363.59 -276.99)"/><path class="cls-1" d="M383.49,355.33l-.54,6.85c-7.43.25-13.36-5.77-13.38-12a23.34,23.34,0,0,0-.26-3.74,11.84,11.84,0,0,0-1.31-4,3.36,3.36,0,0,1,5.24-4.09,9.6,9.6,0,0,1,2.47,5.05h0a18,18,0,0,1,.36,3.71C376.07,353.12,379.7,355.9,383.49,355.33Z" transform="translate(-363.59 -276.99)"/><path class="cls-2" d="M375.71,343.38h0c-.2,4.32-5.44,5.47-6.4,3a11.84,11.84,0,0,0-1.31-4,3.36,3.36,0,0,1,5.24-4.09A9.6,9.6,0,0,1,375.71,343.38Z" transform="translate(-363.59 -276.99)"/><g class="cls-3"><path class="cls-4" d="M383.49,355.33l-.1,1.3c-4.93,2.45-9.1-2.87-9.1-8.68a19.42,19.42,0,0,0-.36-3.7h0a9.6,9.6,0,0,0-2.47-5.05,3.21,3.21,0,0,0-2.79-.93,3.25,3.25,0,0,1,4.57.06,9.6,9.6,0,0,1,2.47,5.05h0a18,18,0,0,1,.36,3.71C376.07,353.12,379.7,355.9,383.49,355.33Z" transform="translate(-363.59 -276.99)"/></g><g class="cls-5"><path class="cls-2" d="M383.06,360.83l-.11,1.35c-7.43.25-13.36-5.77-13.38-12a23.34,23.34,0,0,0-.26-3.74,11.84,11.84,0,0,0-1.31-4,3.34,3.34,0,0,1,1.39-4.66,3.25,3.25,0,0,0,0,3.33,12.07,12.07,0,0,1,1.3,4,22.24,22.24,0,0,1,.26,3.74C371,354.71,376.24,360.4,383.06,360.83Z" transform="translate(-363.59 -276.99)"/></g><path class="cls-1" d="M425.42,324.06c-6.67,4.74-16.95,6.26-26.65,3.27A25.07,25.07,0,0,1,390,322.7c-8.83-7.36-8.39-17.65-2.23-26a31.25,31.25,0,0,1,3.59-4h0a34.7,34.7,0,0,1,4.22-3.38.57.57,0,0,0,.22-.65,51.11,51.11,0,0,0-2.33-5.82c-1.25-2.45-2.39-3.12-3.83-1.27,2.33-6.28,6.63-5.28,11.7,5.33h0a23.87,23.87,0,0,1,15.92,1c6.76-8.46,10.61-9.85,12.2-5.76h0c-1.07-.59-2.37.57-3.59,2.61a27.78,27.78,0,0,0-2.47,5.77,1.59,1.59,0,0,0,.34,1.52,48.54,48.54,0,0,1,3.43,4.21,36,36,0,0,1,2.34,3.67C435.46,310.52,432.44,319.07,425.42,324.06Z" transform="translate(-363.59 -276.99)"/><g class="cls-3"><path class="cls-4" d="M386,318.17a20.79,20.79,0,0,0,3.19,3.26,25,25,0,0,0,8.72,4.63c9.71,3,20,1.47,26.66-3.27,7-5,10-13.54,4.14-24.13a37.7,37.7,0,0,0-2.34-3.66h0c-.94-1.57-1.9-3.05-2.87-4.46l-.36,4.36a4.3,4.3,0,0,0,.46,2.29q.49.63.93,1.29h0c3.11,4,4.67,9.19,2.4,14.33a17.86,17.86,0,0,1-5.18,5.55c-6.67,4.74-16.95,6.26-26.66,3.27a25.12,25.12,0,0,1-8.72-4.63,20.11,20.11,0,0,1-1.89-1.77,16.58,16.58,0,0,0,1.9,3.49Z" transform="translate(-363.59 -276.99)"/></g><g class="cls-5"><path class="cls-2" d="M400.81,327.74c.79.24,1.58.46,2.37.64a34.83,34.83,0,0,1-4.41-1.05A25.07,25.07,0,0,1,390,322.7c-8.83-7.36-8.39-17.65-2.23-26a31.25,31.25,0,0,1,3.59-4h0a34.7,34.7,0,0,1,4.22-3.38.57.57,0,0,0,.22-.65,51.11,51.11,0,0,0-2.33-5.82,8.3,8.3,0,0,0-1-1.62c1.1-.79,2.06,0,3.08,2a53,53,0,0,1,2.33,5.82.57.57,0,0,1-.22.65,34.77,34.77,0,0,0-4.22,3.39h0a30.6,30.6,0,0,0-3.59,4c-6.16,8.32-6.6,18.62,2.23,26A25.12,25.12,0,0,0,400.81,327.74Z" transform="translate(-363.59 -276.99)"/></g><g class="cls-5"><path class="cls-2" d="M428.35,280.42c-1.87.39-4.41,2.44-7.73,6.36a2.83,2.83,0,0,1-3.06.85h0C422.88,281,426.37,278.87,428.35,280.42Z" transform="translate(-363.59 -276.99)"/></g><path class="cls-1" d="M429.56,299.93a36,36,0,0,0-2.34-3.67c-.71-1-1.49-2-2.35-3q-.53-.61-1.08-1.23a1.59,1.59,0,0,1-.34-1.52,27.78,27.78,0,0,1,2.47-5.77c1-1.61,2-2.67,2.89-2.76h0a1.16,1.16,0,0,1,.67.15h0l0,.06C430.7,285.3,430.62,291.43,429.56,299.93Z" transform="translate(-363.59 -276.99)"/><path class="cls-1" d="M395.63,289.32a34.7,34.7,0,0,0-4.22,3.38h0a31.25,31.25,0,0,0-3.59,4c0-6.76.68-11.91,1.88-15.14,1.44-1.85,2.58-1.18,3.83,1.27a51.11,51.11,0,0,1,2.33,5.82A.57.57,0,0,1,395.63,289.32Z" transform="translate(-363.59 -276.99)"/><g class="cls-5"><path class="cls-2" d="M392.05,280.81a3.49,3.49,0,0,0-.77.77c-1.08,2.91-1.74,7.38-1.86,13.17-.57.64-1.11,1.3-1.61,2,0-6.76.68-11.91,1.88-15.14C390.55,280.47,391.31,280.27,392.05,280.81Z" transform="translate(-363.59 -276.99)"/></g><path class="cls-4" d="M419.33,289.4a9.09,9.09,0,0,1-1.24-.43l-1.19-.5a.72.72,0,0,1,.53-1.33.66.66,0,0,1,.27.19h0a20.75,20.75,0,0,0,1.72,1.88.11.11,0,0,1,0,.15A.09.09,0,0,1,419.33,289.4Z" transform="translate(-363.59 -276.99)"/><path class="cls-4" d="M401.74,287.51l-1,.29c-.33.11-.67.25-1,.38a.11.11,0,0,1-.14-.06.12.12,0,0,1,0-.1c.21-.29.42-.58.67-.87s.5-.56.75-.83a.72.72,0,0,1,1,0,.74.74,0,0,1,0,1,.75.75,0,0,1-.34.2Z" transform="translate(-363.59 -276.99)"/><path class="cls-4" d="M409,329.56a35.11,35.11,0,0,1-10.4-1.57,25.77,25.77,0,0,1-9-4.75c-4.32-3.61-6.73-8.15-7-13.13a21.52,21.52,0,0,1,4.64-13.8,30.71,30.71,0,0,1,3.68-4.11l0,0a35.61,35.61,0,0,1,4.2-3.37,52.28,52.28,0,0,0-2.26-5.64c-.84-1.64-1.36-1.92-1.6-1.94s-.64.26-1.06.79a.7.7,0,0,1-.89.18.69.69,0,0,1-.31-.85c1-2.8,2.46-4.27,4.23-4.35,2.63-.12,5.48,2.95,8.49,9.11a24.63,24.63,0,0,1,15.33,1c4.61-5.68,7.89-8.15,10.32-7.78a3.61,3.61,0,0,1,2.75,2.62.67.67,0,0,1-.07.64.71.71,0,0,1-.58.31.66.66,0,0,1-.33-.09c-.58-.31-1.62.61-2.66,2.36a27,27,0,0,0-2.4,5.62.87.87,0,0,0,.19.84,52.2,52.2,0,0,1,3.48,4.27,39.37,39.37,0,0,1,2.38,3.74c5.48,9.85,3.86,19.21-4.34,25a27.7,27.7,0,0,1-12.51,4.65A33.14,33.14,0,0,1,409,329.56Zm-17.11-36.32a30.11,30.11,0,0,0-3.48,3.9c-5.15,6.95-7.3,17.18,2.12,25a24.15,24.15,0,0,0,8.48,4.49c9.14,2.82,19.37,1.58,26-3.17h0c7.68-5.45,9.11-13.92,3.94-23.22a37.3,37.3,0,0,0-2.3-3.6,49.65,49.65,0,0,0-3.38-4.15,2.28,2.28,0,0,1-.49-2.2,28.84,28.84,0,0,1,2.53-5.92c1.15-1.93,2.17-2.76,3-3a1.75,1.75,0,0,0-1.12-.73c-1.3-.2-4,1-9.35,7.69a.68.68,0,0,1-.82.2,23.28,23.28,0,0,0-15.46-1,.71.71,0,0,1-.61-.12.67.67,0,0,1-.22-.28c-3.85-8.08-6.47-8.84-7.41-8.81a2.77,2.77,0,0,0-2,1.44h.11c1,.09,1.8.93,2.71,2.7a54,54,0,0,1,2.37,5.91,1.25,1.25,0,0,1-.49,1.46,34.51,34.51,0,0,0-4.14,3.31Z" transform="translate(-363.59 -276.99)"/><path class="cls-4" d="M429.56,300.62a.71.71,0,0,1-.61-.35,35.33,35.33,0,0,0-2.29-3.6,49.65,49.65,0,0,0-3.38-4.15,2.28,2.28,0,0,1-.49-2.2,28.84,28.84,0,0,1,2.53-5.92c2-3.3,3.53-3.39,4.5-2.88a.71.71,0,0,1,.34.38c1.2,3.08,1.23,9,.1,18.11a.71.71,0,0,1-.56.6Zm-.63-17.92c-.6,0-1.5.9-2.41,2.42a27,27,0,0,0-2.4,5.62.87.87,0,0,0,.19.84,52.2,52.2,0,0,1,3.48,4.27c.46.65.91,1.31,1.32,2,.82-7.35.77-12.43-.14-15.11Z" transform="translate(-363.59 -276.99)"/><path class="cls-4" d="M387.81,297.42a.76.76,0,0,1-.21,0,.7.7,0,0,1-.48-.67c0-6.67.66-12,1.92-15.38a.64.64,0,0,1,.1-.18,2.67,2.67,0,0,1,2.29-1.33c1,.09,1.8.93,2.71,2.7a54,54,0,0,1,2.37,5.91,1.26,1.26,0,0,1-.48,1.46h0a33.85,33.85,0,0,0-4.15,3.31l0,0a30.11,30.11,0,0,0-3.48,3.9A.69.69,0,0,1,387.81,297.42Zm2.5-15.49c-1.05,2.89-1.66,7.28-1.78,12.78a29.78,29.78,0,0,1,2.4-2.51l0,0a35.61,35.61,0,0,1,4.2-3.37,52.28,52.28,0,0,0-2.26-5.64c-.84-1.64-1.36-1.92-1.6-1.94S390.7,281.45,390.31,281.93Zm1.1,10.77Z" transform="translate(-363.59 -276.99)"/><path class="cls-4" d="M427,296a42.56,42.56,0,0,0-3.22-3.92,1.59,1.59,0,0,1-.34-1.52,27.78,27.78,0,0,1,2.47-5.77C427.58,284.77,427.83,289.12,427,296Z" transform="translate(-363.59 -276.99)"/><path class="cls-4" d="M395.63,289.32a34.7,34.7,0,0,0-4.22,3.38h0c.08-4.11.69-7.53,2.12-9.85a51.11,51.11,0,0,1,2.33,5.82A.57.57,0,0,1,395.63,289.32Z" transform="translate(-363.59 -276.99)"/><path class="cls-4" d="M411.13,320.49c-2-3.3-5.52-3.3-8.5-1.35l-.25-2.19,1.59-3,3.89-1.86,3.27,2.67.72,2.9Z" transform="translate(-363.59 -276.99)"/><path class="cls-6" d="M425.6,328.44a6,6,0,0,1-1.34,1.69c-.67,5-6.2,7.52-12.49,8a32.32,32.32,0,0,1-11.59-1.24c-3-.93-5.51-2.32-6.92-4.08a5.08,5.08,0,0,1-1.21-3.66h0a6.8,6.8,0,0,1-2-4.5,6.38,6.38,0,0,1,.22-2,25.12,25.12,0,0,0,8.72,4.63,34.33,34.33,0,0,0,15.75,1.07,26.51,26.51,0,0,0,10.91-4.34A4.92,4.92,0,0,1,425.6,328.44Z" transform="translate(-363.59 -276.99)"/><g class="cls-5"><path class="cls-2" d="M396.44,335.35a10.45,10.45,0,0,1-3.18-2.53,5.08,5.08,0,0,1-1.21-3.66h0a6.8,6.8,0,0,1-2-4.5,6.38,6.38,0,0,1,.22-2,22.6,22.6,0,0,0,2.73,1.95,8.78,8.78,0,0,0-.23,2,6.84,6.84,0,0,0,2,4.49h0a5.16,5.16,0,0,0,1.21,3.66C396.12,335,396.28,335.18,396.44,335.35Z" transform="translate(-363.59 -276.99)"/></g><path class="cls-2" d="M400.62,313l1.27,3.17a.56.56,0,0,0,1,0l1.22-2.59" transform="translate(-363.59 -276.99)"/><path class="cls-4" d="M402.41,316.6h0a.65.65,0,0,1-.59-.4L400.54,313l.17-.07,1.26,3.18a.47.47,0,0,0,.86,0l1.22-2.59.17.07-1.23,2.6A.64.64,0,0,1,402.41,316.6Z" transform="translate(-363.59 -276.99)"/><path class="cls-2" d="M411,314.33l.47,2.54a.6.6,0,0,0,1.11.2l1.56-2.6" transform="translate(-363.59 -276.99)"/><path class="cls-4" d="M412.09,317.46H412a.69.69,0,0,1-.56-.56l-.47-2.54.18,0,.47,2.55a.5.5,0,0,0,.41.41.53.53,0,0,0,.54-.24l1.56-2.61.15.1-1.56,2.6A.68.68,0,0,1,412.09,317.46Z" transform="translate(-363.59 -276.99)"/><path class="cls-7" d="M411.13,320.49c-2.35,4.72-7.31,4.16-8.5-1.36C405.61,317.19,409.16,317.19,411.13,320.49Z" transform="translate(-363.59 -276.99)"/><path class="cls-4" d="M406.94,323.78l-.45,0c-1.9-.24-3.38-2-3.95-4.6v-.06l.05,0a6.9,6.9,0,0,1,5.28-1.2,5.3,5.3,0,0,1,3.35,2.59l0,0,0,0C410.18,322.59,408.61,323.78,406.94,323.78Zm-4.21-4.6c.57,2.52,2,4.16,3.79,4.39s3.42-.93,4.5-3.07a5,5,0,0,0-3.2-2.47A6.72,6.72,0,0,0,402.73,319.18Z" transform="translate(-363.59 -276.99)"/><path class="cls-4" d="M410.79,309.49c-.09,1.08-1.41,1.87-3,1.75s-2.73-1.09-2.65-2.18,1.35-1.15,2.9-1S410.87,308.41,410.79,309.49Z" transform="translate(-363.59 -276.99)"/><path class="cls-4" d="M398.06,310.3a10.71,10.71,0,0,0,2.17,1.7,6.75,6.75,0,0,0,1.16.54,5.4,5.4,0,0,0,1.24.27,6.23,6.23,0,0,0,2.5-.26,7.25,7.25,0,0,0,2.26-1.2h0a.67.67,0,0,1,.93,0,.18.18,0,0,1,.05.07l.08.09a6.43,6.43,0,0,0,1.77,1.61,5.7,5.7,0,0,0,2.23.77,6.48,6.48,0,0,0,2.43-.19,7.32,7.32,0,0,0,1.2-.45,9.12,9.12,0,0,0,1.15-.68h0a.11.11,0,0,1,.15,0,.09.09,0,0,1,0,.1,4.25,4.25,0,0,1-.87,1.16,5.27,5.27,0,0,1-1.22.86,5.86,5.86,0,0,1-3,.65,6,6,0,0,1-5.06-3.1l1.05.13h0a6.65,6.65,0,0,1-2.69,1.72,6.53,6.53,0,0,1-3.22.26,6.11,6.11,0,0,1-2.93-1.31,4.76,4.76,0,0,1-1.6-2.64.11.11,0,0,1,.17-.1Z" transform="translate(-363.59 -276.99)"/><path class="cls-4" d="M402.41,317h0a1,1,0,0,1-.94-.66l-1.27-3.18a.5.5,0,0,1,.28-.65.5.5,0,0,1,.64.28l1.27,3.18a.06.06,0,0,0,0,0s.05,0,.06,0l1.22-2.6a.51.51,0,0,1,.67-.23.49.49,0,0,1,.23.66l-1.22,2.59A1,1,0,0,1,402.41,317Z" transform="translate(-363.59 -276.99)"/><path class="cls-4" d="M412.09,317.87l-.2,0A1.08,1.08,0,0,1,411,317l-.47-2.54a.5.5,0,0,1,1-.18l.47,2.54a.1.1,0,0,0,.08.09.12.12,0,0,0,.12-.05l1.56-2.61a.5.5,0,0,1,.68-.17.51.51,0,0,1,.17.69l-1.56,2.6A1.09,1.09,0,0,1,412.09,317.87Z" transform="translate(-363.59 -276.99)"/><path class="cls-4" d="M406.92,324.38a4.19,4.19,0,0,1-.5,0c-2.17-.27-3.84-2.17-4.47-5.07a12.68,12.68,0,0,1-.28-2.77h1.39a11.8,11.8,0,0,0,.25,2.47c.5,2.31,1.73,3.79,3.28,4s3-.86,3.91-2.79a10.92,10.92,0,0,0,.93-2.94l1.37.25a12.13,12.13,0,0,1-1.05,3.31C410.63,323.05,408.82,324.38,406.92,324.38Z" transform="translate(-363.59 -276.99)"/><path class="cls-4" d="M411.13,321a.51.51,0,0,1-.43-.24,4.71,4.71,0,0,0-3-2.32,6.38,6.38,0,0,0-4.82,1.12.5.5,0,1,1-.54-.83,7.32,7.32,0,0,1,5.59-1.26,5.71,5.71,0,0,1,3.6,2.78.49.49,0,0,1-.17.68A.47.47,0,0,1,411.13,321Z" transform="translate(-363.59 -276.99)"/><path class="cls-4" d="M429.5,308.23a.7.7,0,0,1-.2-1.37l5.25-1.53a.7.7,0,0,1,.86.48.69.69,0,0,1-.47.86l-5.25,1.53A.63.63,0,0,1,429.5,308.23Z" transform="translate(-363.59 -276.99)"/><path class="cls-4" d="M434.74,315.79l-.22,0-4.78-1.6a.7.7,0,1,1,.44-1.32l4.78,1.59a.7.7,0,0,1,.44.89A.69.69,0,0,1,434.74,315.79Z" transform="translate(-363.59 -276.99)"/><path class="cls-4" d="M431.09,323.89a.7.7,0,0,1-.43-.15l-4-3.09a.7.7,0,1,1,.86-1.1l4,3.09a.7.7,0,0,1,.12,1A.67.67,0,0,1,431.09,323.89Z" transform="translate(-363.59 -276.99)"/><path class="cls-4" d="M387.81,301.19a.64.64,0,0,1-.37-.11l-4.53-2.92a.69.69,0,1,1,.75-1.17l4.53,2.92a.69.69,0,0,1-.38,1.28Z" transform="translate(-363.59 -276.99)"/><path class="cls-4" d="M386.06,306.7h-5.27a.7.7,0,1,1,0-1.39h5.27a.7.7,0,1,1,0,1.39Z" transform="translate(-363.59 -276.99)"/><path class="cls-4" d="M381.58,316.55a.7.7,0,0,1-.66-.47.71.71,0,0,1,.43-.89l4.48-1.55a.7.7,0,0,1,.89.43.7.7,0,0,1-.43.89l-4.48,1.55A.93.93,0,0,1,381.58,316.55Z" transform="translate(-363.59 -276.99)"/><path class="cls-4" d="M401.18,333.21a19.44,19.44,0,0,1-5.15-.92,13.63,13.63,0,0,1-2.46-1.06,11,11,0,0,1-2.22-1.59.7.7,0,0,1,0-1,.69.69,0,0,1,1,0l.06.05h0a11.65,11.65,0,0,0,4,2.87A19.4,19.4,0,0,0,401.2,333a.09.09,0,0,1,.09.11A.1.1,0,0,1,401.18,333.21Z" transform="translate(-363.59 -276.99)"/><path class="cls-4" d="M373.22,324.06a.7.7,0,0,1-.41-.14,5.7,5.7,0,0,1-1.93-2.21.7.7,0,0,1,1.28-.55,4.26,4.26,0,0,0,1.47,1.63.7.7,0,0,1,.15,1A.67.67,0,0,1,373.22,324.06Z" transform="translate(-363.59 -276.99)"/><path class="cls-4" d="M424.52,330.65a10.83,10.83,0,0,1-3.22,1.58,18.29,18.29,0,0,1-3.4.68.1.1,0,0,1-.11-.08.11.11,0,0,1,.08-.11,18,18,0,0,0,3.13-1.23,9.2,9.2,0,0,0,2.59-1.89.71.71,0,0,1,1,0,.7.7,0,0,1,0,1l-.09.08Z" transform="translate(-363.59 -276.99)"/><path class="cls-4" d="M409.24,338.93a32.91,32.91,0,0,1-9.47-1.37c-3.31-1-5.82-2.51-7.25-4.31a5.8,5.8,0,0,1-1.38-3.83,7.44,7.44,0,0,1-2-4.73,7.07,7.07,0,0,1,.25-2.17.67.67,0,0,1,.46-.48.67.67,0,0,1,.66.13,24.15,24.15,0,0,0,8.48,4.49c9.14,2.82,19.37,1.58,26-3.17a.69.69,0,0,1,.59-.1.68.68,0,0,1,.45.39,5.62,5.62,0,0,1,0,5,6.15,6.15,0,0,1-1.31,1.71,8.25,8.25,0,0,1-4,5.7C417.67,338.12,413.46,338.93,409.24,338.93Zm-18.71-15a5,5,0,0,0,0,.66,6.17,6.17,0,0,0,1.84,4,.7.7,0,0,1,.2.49.43.43,0,0,0,0,0,4.44,4.44,0,0,0,1.07,3.17c1.25,1.58,3.53,2.91,6.58,3.85,6.85,2.13,15.36,1.6,19.77-1.23a6.92,6.92,0,0,0,3.41-5,.75.75,0,0,1,.22-.43,5,5,0,0,0,1.19-1.48h0a4,4,0,0,0,.29-3,28.19,28.19,0,0,1-11.75,4.14A34.93,34.93,0,0,1,398.56,328,26,26,0,0,1,390.53,324Z" transform="translate(-363.59 -276.99)"/><path class="cls-4" d="M367.66,334.34h0a.94.94,0,0,1-.74-1.08L373,301.91l2.6.54-6.86,31.19A.94.94,0,0,1,367.66,334.34Z" transform="translate(-363.59 -276.99)"/><path class="cls-8" d="M374.46,302.7c-5.72-1.29-4.43-10.55,3.74-12.09a10.25,10.25,0,0,0,.4,6.11C380.14,300.91,377.35,303.28,374.46,302.7Z" transform="translate(-363.59 -276.99)"/><path class="cls-4" d="M375.33,302.88a4.46,4.46,0,0,1-.88-.09h0a4.5,4.5,0,0,1-3.58-4.71c.06-3,2.37-6.63,7.32-7.56l.13,0,0,.13a10.11,10.11,0,0,0,.39,6.07c.73,2,.57,3.71-.45,4.91A3.75,3.75,0,0,1,375.33,302.88Zm-.85-.27a3.71,3.71,0,0,0,3.61-1.13c1-1.14,1.12-2.82.42-4.72a10.41,10.41,0,0,1-.43-6c-4.76,1-7,4.47-7,7.36A4.31,4.31,0,0,0,374.48,302.61Z" transform="translate(-363.59 -276.99)"/><path class="cls-9" d="M378.89,300.12a3.65,3.65,0,0,1-4.43,2.58c-3.12-.71-4.15-3.79-3.12-6.69a8.67,8.67,0,0,1,6.86-5.4,10.25,10.25,0,0,0,.4,6.11A5.67,5.67,0,0,1,378.89,300.12Z" transform="translate(-363.59 -276.99)"/><path class="cls-4" d="M375.33,302.88a4.46,4.46,0,0,1-.88-.09,4.35,4.35,0,0,1-3-2.17,5.67,5.67,0,0,1-.2-4.64,8.8,8.8,0,0,1,6.92-5.46l.13,0,0,.13a10.11,10.11,0,0,0,.39,6.07,5.78,5.78,0,0,1,.3,3.45A3.67,3.67,0,0,1,375.33,302.88Zm2.75-12.16a8.61,8.61,0,0,0-6.65,5.32,5.47,5.47,0,0,0,.19,4.49,4.17,4.17,0,0,0,2.86,2.08,3.59,3.59,0,0,0,4.33-2.52h0a5.63,5.63,0,0,0-.3-3.33A10.42,10.42,0,0,1,378.08,290.72Z" transform="translate(-363.59 -276.99)"/><path class="cls-10" d="M378.89,300.12c-1.76.57-3.41-.29-3.11-1.68,0-1.34-.37-2.25-1.63-2-1.28.48-2.29.46-2.81-.44a8.67,8.67,0,0,1,6.86-5.4,10.25,10.25,0,0,0,.4,6.11A5.67,5.67,0,0,1,378.89,300.12Z" transform="translate(-363.59 -276.99)"/><path class="cls-4" d="M377.79,300.39a2.44,2.44,0,0,1-1.65-.56,1.39,1.39,0,0,1-.45-1.4,2.25,2.25,0,0,0-.51-1.73,1.18,1.18,0,0,0-1-.17c-1.45.55-2.41.39-2.9-.48l0,0v0a8.8,8.8,0,0,1,6.92-5.46l.13,0,0,.13a10.11,10.11,0,0,0,.39,6.07,5.78,5.78,0,0,1,.3,3.45v.05h-.05A3.53,3.53,0,0,1,377.79,300.39Zm-3.25-4.07a1.14,1.14,0,0,1,.75.24,2.34,2.34,0,0,1,.58,1.88h0a1.23,1.23,0,0,0,.39,1.24,2.69,2.69,0,0,0,2.56.34,5.63,5.63,0,0,0-.31-3.28,10.42,10.42,0,0,1-.43-6,8.64,8.64,0,0,0-6.64,5.28c.46.76,1.31.87,2.68.36A2.12,2.12,0,0,1,374.54,296.32Z" transform="translate(-363.59 -276.99)"/><g class="cls-5"><path class="cls-2" d="M378.2,290.61a14.37,14.37,0,0,0-.23,1.44,8.34,8.34,0,0,0-4.88,4.83,5.12,5.12,0,0,0,1.19,5.78c-3-.79-3.95-3.81-2.94-6.65A8.67,8.67,0,0,1,378.2,290.61Z" transform="translate(-363.59 -276.99)"/></g><path class="cls-4" d="M375.31,303.48a4.66,4.66,0,0,1-1-.1h0a5.07,5.07,0,0,1-4.05-5.32c.05-3.22,2.52-7.14,7.81-8.14a.71.71,0,0,1,.63.2.69.69,0,0,1,.18.63,9.56,9.56,0,0,0,.36,5.71v0c1.09,2.95.11,4.72-.56,5.51A4.41,4.41,0,0,1,375.31,303.48Zm-.7-1.46a3.12,3.12,0,0,0,3-.94c.82-1,.93-2.42.32-4.1a10.54,10.54,0,0,1-.62-5.45c-3.83,1.11-5.64,4.09-5.68,6.56A3.69,3.69,0,0,0,374.61,302Z" transform="translate(-363.59 -276.99)"/><path class="cls-4" d="M377.79,300.84a2.9,2.9,0,0,1-2-.67,1.9,1.9,0,0,1-.61-1.78c0-.89-.19-1.22-.34-1.34a.71.71,0,0,0-.59-.08c-1.67.61-2.82.38-3.43-.7a.54.54,0,0,1,.21-.74.54.54,0,0,1,.74.21c.14.24.47.82,2.14.2l.08,0a1.8,1.8,0,0,1,1.54.3,2.89,2.89,0,0,1,.74,2.22.49.49,0,0,1,0,.12.8.8,0,0,0,.26.81,2.25,2.25,0,0,0,2.15.24.54.54,0,1,1,.34,1A4,4,0,0,1,377.79,300.84Z" transform="translate(-363.59 -276.99)"/><path class="cls-1" d="M370.65,326a2.53,2.53,0,0,1-2.74,1.15,2.49,2.49,0,0,1-.9-.4c-5.78-4-1.14-11.69,2.66-9.73a3.08,3.08,0,0,1,1.55,2.05q.11.46.18,1a1.89,1.89,0,0,0,.12,1.36A8.66,8.66,0,0,1,370.65,326Z" transform="translate(-363.59 -276.99)"/><g class="cls-5"><path class="cls-2" d="M368,327.17h-.07a2.49,2.49,0,0,1-.9-.4c-5.78-4-1.14-11.69,2.66-9.73a3.15,3.15,0,0,1,.66.47C366.82,316.79,363.21,323.33,368,327.17Z" transform="translate(-363.59 -276.99)"/></g><path class="cls-4" d="M368.49,327.92a3.63,3.63,0,0,1-.73-.08,3.4,3.4,0,0,1-1.15-.51,6.42,6.42,0,0,1-2.07-8.81c1.33-2.21,3.57-3.08,5.45-2.11a3.75,3.75,0,0,1,1.91,2.51c.08.35.14.7.19,1.06a.58.58,0,0,1,0,.32,1.2,1.2,0,0,0,.1.85.76.76,0,0,1,.06.26,9.65,9.65,0,0,1-1,5h0A3.19,3.19,0,0,1,368.49,327.92Zm-.09-10.51a3.45,3.45,0,0,0-2.67,1.83,5,5,0,0,0,1.68,6.95,1.78,1.78,0,0,0,.66.29,1.82,1.82,0,0,0,2-.82h0a7.82,7.82,0,0,0,.78-4.06,2.55,2.55,0,0,1-.14-1.57c0-.27-.09-.53-.15-.79a2.33,2.33,0,0,0-1.19-1.58A2.09,2.09,0,0,0,368.4,317.41Z" transform="translate(-363.59 -276.99)"/><g class="cls-5"><path class="cls-2" d="M385.25,357.31a31.57,31.57,0,0,0-.22,5.17,24.07,24.07,0,0,0,3.66,11.93,4.43,4.43,0,0,0-4.92,4.16,2.48,2.48,0,0,0,2.48,2.53h-2.06a2.47,2.47,0,0,1-2.48-2.53,4.42,4.42,0,0,1,4.91-4.16A24.28,24.28,0,0,1,383,362.48a31.56,31.56,0,0,1,.23-5.17,65.19,65.19,0,0,1,3.73-13.71,2.51,2.51,0,0,0-1.7-3.25l-.87-.25c.17-.17.34-.34.5-.52.79.29,1.6.54,2.43.77A2.5,2.5,0,0,1,389,343.6,64.56,64.56,0,0,0,385.25,357.31Z" transform="translate(-363.59 -276.99)"/></g><path class="cls-9" d="M449.68,342.24c-2.49,8.89-10.76,13.67-21.24,10.82a20.45,20.45,0,0,1-2.51-1h0c-9-4.33-6.22-11.82,1.19-13.81a19.17,19.17,0,0,0,4.65-2.75,13.54,13.54,0,0,0,2.72-3,8.26,8.26,0,0,1,1.4-1.61C441.87,325.69,452.1,331.66,449.68,342.24Z" transform="translate(-363.59 -276.99)"/><path class="cls-4" d="M434.29,354a17.42,17.42,0,0,1-8.4-1.85h0c-3.86-1.87-5.93-4.56-5.66-7.4s3-5.53,6.88-6.58a19.23,19.23,0,0,0,4.61-2.73,13.77,13.77,0,0,0,2.7-2.93,8.36,8.36,0,0,1,1.42-1.63,8,8,0,0,1,9.51-.7c3.07,1.84,5.84,6,4.43,12.11h0A15.38,15.38,0,0,1,434.29,354ZM426,352a22.25,22.25,0,0,0,2.49,1c10.06,2.74,18.55-1.58,21.12-10.75,1.38-6-1.34-10.11-4.35-11.91a7.81,7.81,0,0,0-9.3.68,8,8,0,0,0-1.39,1.59,13.87,13.87,0,0,1-2.73,3,19.52,19.52,0,0,1-4.67,2.76c-3.85,1-6.49,3.55-6.76,6.43s1.77,5.39,5.57,7.22Z" transform="translate(-363.59 -276.99)"/><g class="cls-3"><path class="cls-4" d="M449.68,342.24c-2.49,8.89-10.76,13.67-21.24,10.82a20.45,20.45,0,0,1-2.51-1h0a10.34,10.34,0,0,1-5.08-4.46,12.76,12.76,0,0,0,3.84,2.69h0a19.83,19.83,0,0,0,2.51,1c10.48,2.85,18.75-1.93,21.23-10.82a11.72,11.72,0,0,0-.93-8.4C449.56,334.41,450.66,337.94,449.68,342.24Z" transform="translate(-363.59 -276.99)"/></g><g class="cls-5"><path class="cls-2" d="M445.38,330.29a7.71,7.71,0,0,0-7.71,1.48,8,8,0,0,0-1.4,1.61,13.73,13.73,0,0,1-2.72,2.94,19.32,19.32,0,0,1-4.65,2.76c-7.2,1.93-10,9.06-1.92,13.43-.37-.15-.72-.31-1.05-.47h0c-9-4.33-6.22-11.82,1.19-13.81a19.17,19.17,0,0,0,4.65-2.75,13.54,13.54,0,0,0,2.72-3,8.26,8.26,0,0,1,1.4-1.61A7.89,7.89,0,0,1,445.38,330.29Z" transform="translate(-363.59 -276.99)"/></g><g class="cls-5"><path class="cls-2" d="M419.25,381.1h-2.06a4.94,4.94,0,0,1-4.68-3.3,11.66,11.66,0,0,1-.24-5.35c.72-.08,1.42-.18,2.11-.31h0a11.93,11.93,0,0,0,.2,5.66A4.93,4.93,0,0,0,419.25,381.1Z" transform="translate(-363.59 -276.99)"/></g><path class="cls-4" d="M418.67,370a16.68,16.68,0,0,1-3,1.66,24.53,24.53,0,0,1-3.25,1.14h0a.7.7,0,1,1-.37-1.35l.12,0a23.51,23.51,0,0,0,3.24-.52,16.19,16.19,0,0,0,3.14-1.08.1.1,0,0,1,.1.17Z" transform="translate(-363.59 -276.99)"/><path class="cls-4" d="M399.27,372.51a22.5,22.5,0,0,1-5.19-2.47.1.1,0,0,1,.09-.18,21.73,21.73,0,0,0,5.42,1.29.71.71,0,0,1-.17,1.4l-.14,0Z" transform="translate(-363.59 -276.99)"/><path class="cls-4" d="M419.76,376.59a4.39,4.39,0,0,1,1.93-1.7,4.5,4.5,0,0,1,1.3-.37,3.82,3.82,0,0,1,1.35.1.55.55,0,0,1,.37.68.53.53,0,0,1-.52.39h0c-.37,0-.73,0-1.08,0a5.67,5.67,0,0,0-1.08.12,5.57,5.57,0,0,0-1.08.33,9,9,0,0,0-1.07.55h0a.09.09,0,0,1-.11,0A.08.08,0,0,1,419.76,376.59Z" transform="translate(-363.59 -276.99)"/><path class="cls-4" d="M390.19,376.16a9,9,0,0,0-1.07-.55,6,6,0,0,0-1.07-.34,8.3,8.3,0,0,0-1.08-.12h-1.11a.54.54,0,0,1-.54-.55.55.55,0,0,1,.39-.52,3.42,3.42,0,0,1,1.35-.1,4.21,4.21,0,0,1,1.3.37,4.41,4.41,0,0,1,1.94,1.7.08.08,0,0,1,0,.11Z" transform="translate(-363.59 -276.99)"/><path class="cls-4" d="M434.33,354.58a23.19,23.19,0,0,1-6.08-.85h0a24.93,24.93,0,0,1-2.59-1.05l0,0c-4.09-2-6.28-4.89-6-8s3.16-6,7.28-7.09a18.81,18.81,0,0,0,4.44-2.63,13.32,13.32,0,0,0,2.58-2.8,8.87,8.87,0,0,1,1.52-1.74,8.61,8.61,0,0,1,10.23-.77,10.35,10.35,0,0,1,4.22,5,12.79,12.79,0,0,1,.48,7.79v0a16.33,16.33,0,0,1-8,10.24A17.11,17.11,0,0,1,434.33,354.58Zm-5.69-2.19c9.71,2.63,17.89-1.51,20.36-10.32,1.3-5.71-1.25-9.55-4.07-11.24a7.21,7.21,0,0,0-8.59.62,7.72,7.72,0,0,0-1.29,1.47,14.33,14.33,0,0,1-2.85,3.1,20.52,20.52,0,0,1-4.81,2.85l-.1,0c-3.58,1-6.05,3.27-6.3,5.89s1.62,4.89,5.24,6.62l0,0A21.06,21.06,0,0,0,428.64,352.39Zm21-10.15Z" transform="translate(-363.59 -276.99)"/><path class="cls-2" d="M418.62,358.77c0,9.11-5.63,13.91-12.57,13.91s-12.57-4.8-12.57-13.91,5.63-16.48,12.57-16.48S418.62,349.67,418.62,358.77Z" transform="translate(-363.59 -276.99)"/><path class="cls-4" d="M423.93,381.79h-6.74a5.62,5.62,0,0,1-5.34-3.77,11.45,11.45,0,0,1-.35-5,34.19,34.19,0,0,1-11.32-.28,8.89,8.89,0,0,1-1.75,6.22c-1.38,1.65-3.58,2.61-6.54,2.86h-7.7a3.22,3.22,0,0,1-2.3-1,3.13,3.13,0,0,1-.88-2.28,4.88,4.88,0,0,1,1.59-3.44,5.33,5.33,0,0,1,2.84-1.33,24.93,24.93,0,0,1-3.17-11.26,30.78,30.78,0,0,1,.23-5.29A62.06,62.06,0,0,1,386,344l.24-.66a1.78,1.78,0,0,0-.1-1.43A1.81,1.81,0,0,0,385,341c-8.16-2.26-14.13-6.82-17.73-13.53a.7.7,0,0,1,.76-1,1.83,1.83,0,0,0,2-.82,7.88,7.88,0,0,0,.78-4.07,2.48,2.48,0,0,1-.08-1.75,2.06,2.06,0,0,1,2.2-1.34,3,3,0,0,1,2.23,1.3c3.71,5.33,10,7.22,14.24,4.29a.7.7,0,0,1,.71,0,.68.68,0,0,1,.38.6,6.17,6.17,0,0,0,1.84,4,.7.7,0,0,1,.2.49.43.43,0,0,0,0,0c-.34,4.4,6.41,7.43,13.25,8.15a27.11,27.11,0,0,0,11.65-1.13c2.45-.91,5.46-2.71,5.93-6.2a.75.75,0,0,1,.22-.43,5,5,0,0,0,1.19-1.48.69.69,0,0,1,.43-.35.66.66,0,0,1,.55.07,18.66,18.66,0,0,1,6.63,7.35.68.68,0,0,1-.19.83,20.52,20.52,0,0,1-4.81,2.85l-.1,0c-3.58,1-6.05,3.27-6.3,5.89s1.62,4.89,5.24,6.62a.85.85,0,0,1,.19.14.59.59,0,0,1,.13.18,26.12,26.12,0,0,1,2.57,11.92,18.17,18.17,0,0,1-3.6,10.93c2.09.75,3.67,2.5,3.58,4.17-.05.85-.65,2.85-5.14,3Zm-11.61-10.34a.65.65,0,0,1,.44.16.69.69,0,0,1,.25.53v.11a11.31,11.31,0,0,0,.16,5.32,4.24,4.24,0,0,0,4,2.83h6.72c2.32-.1,3.74-.75,3.8-1.73s-1.52-2.69-3.56-3a.71.71,0,0,1-.56-.47.7.7,0,0,1,.16-.7c5.11-5.4,4.85-15.34,1.66-21.94-4-2-6.09-4.84-5.81-7.9s3.16-6,7.28-7.09a19.67,19.67,0,0,0,4-2.29,17.71,17.71,0,0,0-5.27-5.86,6.85,6.85,0,0,1-.91,1.05c-1.14,6.94-10.63,9.16-19.06,8.27a25.89,25.89,0,0,1-10.16-3c-2.91-1.72-4.41-3.89-4.35-6.31a7.69,7.69,0,0,1-1.88-3.61,9.39,9.39,0,0,1-4.37,1.05c-3.91,0-8.05-2.24-10.86-6.27a1.57,1.57,0,0,0-1.16-.7c-.2,0-.67,0-.81.41a1.2,1.2,0,0,0,.1.85.76.76,0,0,1,.06.26,9.65,9.65,0,0,1-1,5,3.18,3.18,0,0,1-2.14,1.49c3.49,5.88,8.83,9.75,16.29,11.82a3.26,3.26,0,0,1,2,1.61,3.13,3.13,0,0,1,.18,2.54l-.23.67a60.66,60.66,0,0,0-3.47,12.89,30.18,30.18,0,0,0-.22,5.06A23.21,23.21,0,0,0,387.22,374a.7.7,0,0,1-.63,1.07,4.09,4.09,0,0,0-3,1,3.49,3.49,0,0,0-1.13,2.47,1.66,1.66,0,0,0,.49,1.26,1.75,1.75,0,0,0,1.29.55h7.61c2.56-.22,4.43-1,5.56-2.37s1.62-3.45,1.38-6.13a.69.69,0,0,1,.23-.59.7.7,0,0,1,.62-.16,32.24,32.24,0,0,0,12.6.31Z" transform="translate(-363.59 -276.99)"/><path class="cls-6" d="M400,336.9l-.14,11.55h-8.4l1.62-15.63C394.47,334.58,397,336,400,336.9Z" transform="translate(-363.59 -276.99)"/><g class="cls-5"><path class="cls-2" d="M394.7,334.12l-1.49,14.33h-1.45l1.62-15.63A8.57,8.57,0,0,0,394.7,334.12Z" transform="translate(-363.59 -276.99)"/></g><path class="cls-4" d="M423.1,339.79a1.54,1.54,0,0,1-.05-.71l0-.72c0-.48.06-1,.12-1.45a.1.1,0,0,1,.11-.09.1.1,0,0,1,.08.06c.22.44.41.88.6,1.32l.28.67a1.67,1.67,0,0,1,.2.68.72.72,0,0,1-.79.65A.71.71,0,0,1,423.1,339.79Z" transform="translate(-363.59 -276.99)"/><path class="cls-4" d="M399.84,349.14h-8.4a.68.68,0,0,1-.52-.23.67.67,0,0,1-.17-.54l1.62-15.63a.69.69,0,0,1,.49-.59.71.71,0,0,1,.75.23c1.25,1.58,3.53,2.91,6.58,3.85a.71.71,0,0,1,.49.68l-.15,11.54A.69.69,0,0,1,399.84,349.14Zm-7.63-1.39h6.94l.13-10.35a16.24,16.24,0,0,1-5.68-3Z" transform="translate(-363.59 -276.99)"/><path class="cls-4" d="M400,352a.7.7,0,0,1-.7-.66l-.14-2.89a.7.7,0,0,1,.66-.73.69.69,0,0,1,.73.66l.15,2.89a.7.7,0,0,1-.67.73Z" transform="translate(-363.59 -276.99)"/><path class="cls-4" d="M391.44,352.18a.7.7,0,0,1-.7-.7v-3a.7.7,0,0,1,1.4,0v3A.7.7,0,0,1,391.44,352.18Z" transform="translate(-363.59 -276.99)"/><path class="cls-4" d="M394.28,352.18a.7.7,0,0,1-.7-.7v-3a.7.7,0,0,1,1.39,0v3A.69.69,0,0,1,394.28,352.18Z" transform="translate(-363.59 -276.99)"/><path class="cls-4" d="M396.91,352.18a.69.69,0,0,1-.69-.7v-3a.7.7,0,0,1,1.39,0v3A.7.7,0,0,1,396.91,352.18Z" transform="translate(-363.59 -276.99)"/><path class="cls-4" d="M385.13,378.19a2.07,2.07,0,0,0-.29.69,2.47,2.47,0,0,0-.06.71,1.86,1.86,0,0,0,.05.34,2.05,2.05,0,0,0,.07.34c0,.11.08.22.1.33a.78.78,0,0,1,.05.34v.11a.71.71,0,0,1-1.35.21,1.46,1.46,0,0,1-.1-.45,3.85,3.85,0,0,1,0-.48,4.11,4.11,0,0,1,.22-.92,3.07,3.07,0,0,1,.47-.81A2.06,2.06,0,0,1,385,378a.1.1,0,0,1,.13.05.12.12,0,0,1,0,.1Z" transform="translate(-363.59 -276.99)"/><path class="cls-4" d="M388.43,378.19a2.31,2.31,0,0,0-.29.69,2.87,2.87,0,0,0-.05.71c0,.12,0,.23,0,.34s.05.23.08.34.08.22.1.33a.78.78,0,0,1,0,.34v.11a.7.7,0,0,1-1.34.21,1.24,1.24,0,0,1-.11-.45,3.87,3.87,0,0,1,0-.48,3.25,3.25,0,0,1,.22-.92,2.61,2.61,0,0,1,.47-.81,2,2,0,0,1,.7-.57.11.11,0,0,1,.14.05.12.12,0,0,1,0,.1Z" transform="translate(-363.59 -276.99)"/><path class="cls-4" d="M425.84,378a1.84,1.84,0,0,1,.65.46,2.91,2.91,0,0,1,.47.66,3.53,3.53,0,0,1,.28.79c0,.13.05.27.07.41a1.08,1.08,0,0,1-.06.4.71.71,0,0,1-.91.42.73.73,0,0,1-.44-.48l0-.13a.57.57,0,0,1,0-.29A2.86,2.86,0,0,1,426,380a2.79,2.79,0,0,0,.07-.58,2.11,2.11,0,0,0-.06-.61,2,2,0,0,0-.24-.61h0a.1.1,0,0,1,0-.14A.1.1,0,0,1,425.84,378Z" transform="translate(-363.59 -276.99)"/><path class="cls-4" d="M422.94,378a2.06,2.06,0,0,1,.71.57,3.07,3.07,0,0,1,.47.81,4.11,4.11,0,0,1,.22.92,3.87,3.87,0,0,1,0,.48,1.85,1.85,0,0,1-.11.45.71.71,0,0,1-1.35-.21v-.11a.78.78,0,0,1,.05-.34c0-.11.07-.22.1-.33s.06-.23.08-.34,0-.22,0-.34a2.47,2.47,0,0,0-.06-.71,2.28,2.28,0,0,0-.28-.69h0a.1.1,0,0,1,0-.14A.12.12,0,0,1,422.94,378Z" transform="translate(-363.59 -276.99)"/><path class="cls-4" d="M382.49,362.88a13.82,13.82,0,0,1-9.64-3.91,12.5,12.5,0,0,1-4-8.82,15.06,15.06,0,0,0-1.47-7.39,4,4,0,0,1,1.06-5.22,3.91,3.91,0,0,1,5.26.29c1.94,1.87,3,5.16,3,9.25,0,2.8.84,5.06,2.37,6.38a5.21,5.21,0,0,0,4.25,1.18.69.69,0,0,1,.79.58.71.71,0,0,1-.59.8,6.6,6.6,0,0,1-5.36-1.5c-1.84-1.59-2.85-4.23-2.85-7.44,0-5-1.66-7.31-2.63-8.24a2.53,2.53,0,0,0-3.44-.2,2.61,2.61,0,0,0-.7,3.44,16.24,16.24,0,0,1,1.66,8.07,11,11,0,0,0,3.55,7.81,12.37,12.37,0,0,0,9.11,3.52.7.7,0,0,1,.05,1.4Z" transform="translate(-363.59 -276.99)"/><path class="cls-4" d="M371.46,348.37a2.84,2.84,0,0,1-2.8-1.71.69.69,0,1,1,1.29-.51c.31.77,1.27.9,2,.78a3.67,3.67,0,0,0,3.06-3.58.7.7,0,1,1,1.39.06,5.12,5.12,0,0,1-4.22,4.9A4.68,4.68,0,0,1,371.46,348.37Z" transform="translate(-363.59 -276.99)"/><g class="cls-3"><path class="cls-4" d="M428.35,297.92c.81-7.29.81-12.61-.19-15.51l.61-.38-1.63,1s-1.3,1.83-1.39,2l-.88,8.23c.86,1,1.64,2,2.35,3,.4.56.78,1.11,1.13,1.66Z" transform="translate(-363.59 -276.99)"/></g><path class="cls-4" d="M371,321.45l-2.19-.6a.11.11,0,0,1-.07-.13.12.12,0,0,1,.07-.07l2.19-.6a.73.73,0,1,1,.38,1.4A.81.81,0,0,1,371,321.45Z" transform="translate(-363.59 -276.99)"/><path class="cls-4" d="M368.6,323l1.48-.16.73-.06.37,0a.69.69,0,0,1,.35,0,.72.72,0,0,1,.38,1,.71.71,0,0,1-.56.43.75.75,0,0,1-.36,0l-.34-.13-.69-.25-1.38-.54a.11.11,0,0,1-.06-.14A.16.16,0,0,1,368.6,323Z" transform="translate(-363.59 -276.99)"/><path class="cls-4" d="M368.31,325c.42.12.83.25,1.25.39l.61.21.3.11a.57.57,0,0,1,.27.16.74.74,0,0,1-.11,1,.73.73,0,0,1-.66.14.56.56,0,0,1-.25-.18l-.22-.24-.44-.47c-.29-.33-.58-.65-.86-1a.1.1,0,0,1,0-.14A.08.08,0,0,1,368.31,325Z" transform="translate(-363.59 -276.99)"/><g class="cls-3"><path class="cls-4" d="M415.53,332.82s3.33,2.58-2.42,4.85c4.81-1,8.61-3.42,9.16-7.54a6,6,0,0,0,1.34-1.69,4.72,4.72,0,0,0,.38-3.33,27.46,27.46,0,0,1-9.28,3.29C415.27,328.61,419,330.14,415.53,332.82Z" transform="translate(-363.59 -276.99)"/></g><g class="cls-3"><path class="cls-4" d="M391.83,381.1h-2.31l.18-.64a3.08,3.08,0,0,1,1.86-2c6.12-2.41,3.66-7.95,3.66-7.95l4.21,1.37C400,377.89,397.11,380.65,391.83,381.1Z" transform="translate(-363.59 -276.99)"/></g><g class="cls-3"><path class="cls-4" d="M422.93,381.1c6.57-.55,3.75-5.47-.23-6.09,5.72-6,4.85-16.57,1.68-22.93h0a15.79,15.79,0,0,1-2.71-1.66,40.8,40.8,0,0,1-1.85,25.5c4.37.18,6.87,1.22,3.1,5.18Z" transform="translate(-363.59 -276.99)"/></g><g class="cls-3"><path class="cls-4" d="M420.3,344.71a16.38,16.38,0,0,0-3.93-7.35l0-.06c4.09-1.17,7.17-3.49,7.66-7.17a6,6,0,0,0,1.34-1.69,18.63,18.63,0,0,1,3.62,3c-5.15.82-2,5.17-1,6.36l-.87.39C423.19,339.28,420.57,341.87,420.3,344.71Z" transform="translate(-363.59 -276.99)"/></g><g class="cls-3"><path class="cls-4" d="M403.63,337.75l.05,8.37a1,1,0,0,1-1,1h-2.81l.26-10Z" transform="translate(-363.59 -276.99)"/></g><g class="cls-3"><path class="cls-4" d="M377.19,323.08h0c3.83,3.3,8.67,4,12.2,1.86l.16.09.37.58a27.19,27.19,0,0,1,1.52,2.49,4,4,0,0,1,.14.76h0C392,334,378.73,330,377.19,323.08Z" transform="translate(-363.59 -276.99)"/></g><ellipse class="cls-11" cx="435.46" cy="338.12" rx="2.31" ry="1.55" transform="translate(-475.13 129.97) rotate(-45)"/><path class="cls-8" d="M446,336.2c.82.23,1.2,1.42.84,2.65a1.66,1.66,0,0,1-2.09,1.36c-.82-.23-1.24-1-.88-2.22S445.12,336,446,336.2Z" transform="translate(-363.59 -276.99)"/><path class="cls-10" d="M444,342.36c.69.19,1.09.75.71,2.07s-1.19,1.78-1.89,1.58-1-1-.61-2.3S443.27,342.16,444,342.36Z" transform="translate(-363.59 -276.99)"/><path class="cls-12" d="M439.46,346.58c.39.61.33,1.29-.83,2s-2.07.55-2.46-.06-.11-1.39,1.05-2.14S439.07,346,439.46,346.58Z" transform="translate(-363.59 -276.99)"/><path class="cls-4" d="M428.81,342c1.14.2,1.89,1,1.53,2.93s-1.57,2.71-2.7,2.5-1.77-1.29-1.42-3.25S427.68,341.79,428.81,342Z" transform="translate(-363.59 -276.99)"/><g class="cls-5"><path class="cls-2" d="M431.08,345.26c-.35,2-1.56,2.72-2.7,2.51a1.84,1.84,0,0,1-.78-.34h0c1.14.2,2.34-.55,2.7-2.51.25-1.36,0-2.14-.6-2.56C430.77,342.62,431.42,343.4,431.08,345.26Z" transform="translate(-363.59 -276.99)"/></g><path class="cls-13" d="M443.62,333.51c.31.79-.45,1.47-1.64,1.94s-2.35.56-2.66-.24.39-1.82,1.58-2.29S443.31,332.71,443.62,333.51Z" transform="translate(-363.59 -276.99)"/><ellipse class="cls-2" cx="35.95" cy="26.4" rx="3.4" ry="4.94"/><path class="cls-4" d="M399.54,308.42c-1.92,0-3.49-2.26-3.49-5s1.57-5,3.49-5,3.49,2.25,3.49,5S401.46,308.42,399.54,308.42Zm0-9.88c-1.83,0-3.31,2.18-3.31,4.85s1.48,4.85,3.31,4.85,3.32-2.17,3.32-4.85S401.37,298.54,399.54,298.54Z" transform="translate(-363.59 -276.99)"/><ellipse class="cls-2" cx="35.95" cy="26.4" rx="3.4" ry="4.94"/><path class="cls-4" d="M399.54,308.42c-1.92,0-3.49-2.26-3.49-5s1.57-5,3.49-5,3.49,2.25,3.49,5S401.46,308.42,399.54,308.42Zm0-9.88c-1.83,0-3.31,2.18-3.31,4.85s1.48,4.85,3.31,4.85,3.32-2.17,3.32-4.85S401.37,298.54,399.54,298.54Z" transform="translate(-363.59 -276.99)"/><ellipse class="cls-4" cx="36.58" cy="26.48" rx="2.77" ry="4.02"/><path class="cls-4" d="M399.54,298.45c1.88,0,3.4,2.22,3.4,4.94s-1.52,4.94-3.4,4.94-3.4-2.21-3.4-4.94,1.52-4.94,3.4-4.94m0-1c-2.48,0-4.43,2.62-4.43,6s1.95,6,4.43,6,4.43-2.62,4.43-6-2-6-4.43-6Z" transform="translate(-363.59 -276.99)"/><circle class="cls-2" cx="34.89" cy="25.16" r="1.25"/><ellipse class="cls-2" cx="417.45" cy="304.66" rx="4.94" ry="3.4" transform="translate(-315.5 389.13) rotate(-80.5)"/><path class="cls-4" d="M417,309.65a2,2,0,0,1-.41,0,3,3,0,0,1-2.19-1.87,6.26,6.26,0,0,1-.42-3.66,6.38,6.38,0,0,1,1.58-3.32,2.81,2.81,0,0,1,4.89.82,6.72,6.72,0,0,1-1.17,7A3.21,3.21,0,0,1,417,309.65Zm.84-9.81a3,3,0,0,0-2.15,1,6.12,6.12,0,0,0-1.54,3.23h0a6.17,6.17,0,0,0,.4,3.56,2.65,2.65,0,0,0,4.61.77,6.54,6.54,0,0,0,1.13-6.79,2.9,2.9,0,0,0-2.07-1.78A2.34,2.34,0,0,0,417.87,299.84Z" transform="translate(-363.59 -276.99)"/><ellipse class="cls-2" cx="417.45" cy="304.66" rx="4.94" ry="3.4" transform="translate(-315.5 389.13) rotate(-80.5)"/><path class="cls-4" d="M417,309.65a2,2,0,0,1-.41,0,3,3,0,0,1-2.19-1.87,6.26,6.26,0,0,1-.42-3.66,6.38,6.38,0,0,1,1.58-3.32,2.81,2.81,0,0,1,4.89.82,6.72,6.72,0,0,1-1.17,7A3.21,3.21,0,0,1,417,309.65Zm.84-9.81a3,3,0,0,0-2.15,1,6.12,6.12,0,0,0-1.54,3.23h0a6.17,6.17,0,0,0,.4,3.56,2.65,2.65,0,0,0,4.61.77,6.54,6.54,0,0,0,1.13-6.79,2.9,2.9,0,0,0-2.07-1.78A2.34,2.34,0,0,0,417.87,299.84Z" transform="translate(-363.59 -276.99)"/><ellipse class="cls-4" cx="416.82" cy="304.63" rx="4.02" ry="2.77" transform="translate(-316.01 388.48) rotate(-80.5)"/><path class="cls-4" d="M417.87,299.76a2.69,2.69,0,0,1,.4,0c1.85.31,3,2.74,2.54,5.43-.42,2.5-2.06,4.34-3.78,4.34a2.56,2.56,0,0,1-.39,0c-1.86-.31-3-2.74-2.54-5.43.42-2.5,2.06-4.34,3.77-4.34m0-1c-2.27,0-4.28,2.18-4.79,5.2a7.29,7.29,0,0,0,.49,4.21,4,4,0,0,0,2.9,2.4,3.43,3.43,0,0,0,.56,0c2.27,0,4.29-2.19,4.79-5.2a7.21,7.21,0,0,0-.49-4.21,4,4,0,0,0-2.89-2.41,3.64,3.64,0,0,0-.57,0Z" transform="translate(-363.59 -276.99)"/><circle class="cls-2" cx="55.11" cy="26.62" r="1.25"/><g class="cls-14"><ellipse class="cls-2" cx="43.49" cy="31.95" rx="0.85" ry="0.44"/><path class="cls-4" d="M407.08,309.45c-.52,0-.92-.23-.92-.51s.4-.52.92-.52.93.23.93.52S407.6,309.45,407.08,309.45Zm0-.88c-.46,0-.78.19-.78.37s.32.36.78.36.78-.19.78-.36S407.55,308.57,407.08,308.57Z" transform="translate(-363.59 -276.99)"/></g></svg>