<?xml version="1.0" encoding="utf-8"?>
<!-- Generator: Adobe Illustrator 19.0.0, SVG Export Plug-In . SVG Version: 6.00 Build 0)  -->
<svg version="1.1" id="Layer_1" xmlns="http://www.w3.org/2000/svg" xmlns:xlink="http://www.w3.org/1999/xlink" x="0px" y="0px"
	 viewBox="0 0 1980 700" style="enable-background:new 0 0 1980 700;" xml:space="preserve">
<style type="text/css">
	.st0{clip-path:url(#XMLID_7_);fill:#F4F4F4;}
	.st1{clip-path:url(#XMLID_7_);fill:#E8E8E8;}
	.st2{fill:#ADC548;}
	.st3{fill:none;stroke:#FFFFFF;stroke-width:0.5;stroke-linecap:round;stroke-linejoin:round;stroke-miterlimit:10;}
	.st4{opacity:0.2;fill:url(#XMLID_16_);}
	.st5{fill:#AFBA49;}
	.st6{opacity:0.2;}
	.st7{fill:#C0D159;}
	.st8{opacity:0.2;fill:url(#XMLID_17_);}
	.st9{opacity:0.2;fill:url(#XMLID_18_);}
	.st10{fill:#50A6B1;}
	.st11{fill:#942754;}
	.st12{fill:#F1B844;}
	.st13{fill:#D94D65;}
	.st14{fill:none;stroke:#FFFFFF;stroke-width:0.5169;stroke-linecap:round;stroke-linejoin:round;stroke-miterlimit:10;}
	.st15{fill:none;stroke:#942754;stroke-width:0.5169;stroke-miterlimit:10;}
	.st16{fill:none;stroke:#FFFFFF;stroke-width:0.75;stroke-linecap:round;stroke-linejoin:round;stroke-miterlimit:10;}
	.st17{fill:#FFFFFF;}
	.st18{fill:none;stroke:#B5B5B5;stroke-width:0.7713;stroke-miterlimit:10;}
	.st19{fill:#547CDE;}
	.st20{fill:none;stroke:#F1B844;stroke-miterlimit:10;}
	.st21{fill:#F7728F;}
	.st22{fill:#D6DD50;}
	.st23{fill:#0A1316;}
	.st24{fill:#1A2E35;}
	.st25{fill:#5283FF;}
	.st26{fill:#8AB1FF;}
	.st27{fill:#FF1A79;}
	.st28{fill:#FFBE9C;}
	.st29{fill:none;stroke:#103094;stroke-width:0.5;stroke-miterlimit:10;}
	.st30{fill:none;stroke:#FFCF30;stroke-width:0.5;stroke-miterlimit:10;}
	.st31{opacity:0.15;fill:none;stroke:#FFFFFF;stroke-width:0.5;stroke-miterlimit:10;}
	.st32{fill:url(#XMLID_19_);}
	.st33{fill:url(#XMLID_20_);}
	.st34{fill:url(#XMLID_22_);}
	.st35{fill:url(#XMLID_25_);}
	.st36{fill:#EAA486;}
</style>
<g id="XMLID_5_">
	<defs>
		<rect id="XMLID_4_" width="1980" height="700"/>
	</defs>
	<clipPath id="XMLID_7_">
		<use xlink:href="#XMLID_4_"  style="overflow:visible;"/>
	</clipPath>
	<rect id="XMLID_2_" class="st0" width="1980" height="700"/>
	<circle id="XMLID_3_" class="st1" cx="1679.9" cy="250.8" r="633.1"/>
</g>
<g id="XMLID_44_">
	<g id="XMLID_45_">
		<path id="XMLID_452_" class="st2" d="M1155.7,318c15.2-9.9,30.9,8.3,38.4,25.7c7.6,17.4,14.3,36.2,32.5,41.6
			c18.2,5.3,28.2,8.4,33.8,24c5.6,15.6,5.2,20.4,17.3,29.1c12.1,8.7,24.6,24.3,26.4,41.6l-63,28.7c0,0-16.2-6.6-32-26.4
			c-15.8-19.8-12.1-33.3-17.8-41.8c-5.7-8.5-25.8-12.3-29.6-28.3s2.7-27.6-5.6-45.1C1147.8,349.5,1143.7,325.8,1155.7,318z"/>
		<path id="XMLID_451_" class="st3" d="M1164.8,327.8c20,53.4,31.6,82.3,108.9,166"/>
		<path id="XMLID_450_" class="st3" d="M1182.9,333.6c0,0,2.4,14-1.4,35.5"/>
		<path id="XMLID_449_" class="st3" d="M1164.1,378.8c0,0,3.3,6.1,33.5,20.4"/>
		<path id="XMLID_448_" class="st3" d="M1232.8,392.1c0,0,10.4,38.7,1.9,57.7"/>
		<path id="XMLID_447_" class="st3" d="M1204.7,467.7c0,0,22.5,9,48.8,3.7"/>
	</g>
	<g id="XMLID_46_">
		<path id="XMLID_443_" class="st2" d="M1726.7,399.1c13.1,5.2,6.8,29.2,1.3,42.7c-5.5,13.5,9.2,32.6-28.8,54.9l-47-28.5
			c0,0,11.4-33,29.8-39.6C1701,421.8,1708.2,391.8,1726.7,399.1z"/>
		<path id="XMLID_442_" class="st3" d="M1723.9,405.1c0,0-17.5,42.8-48.2,77.4"/>
		<path id="XMLID_441_" class="st3" d="M1711,404.5c0,0-4.2,15.2-0.9,28.1"/>
		<path id="XMLID_440_" class="st3" d="M1723.2,456.5c0,0-21.8,8.2-33.9,9"/>
	</g>
	<linearGradient id="XMLID_16_" gradientUnits="userSpaceOnUse" x1="1472.7179" y1="584.9467" x2="1803.5002" y2="584.9467">
		<stop  offset="0" style="stop-color:#FFFFFF"/>
		<stop  offset="1" style="stop-color:#000000"/>
	</linearGradient>
	<path id="XMLID_438_" class="st4" d="M1398.6,507.9h330.8c0,0-14.5,32.8-46,34.5c0,0,2.9,33.9-25.4,43.7
		c-29.3,10.1-39.4,9.9-63.6,36c-24.2,26.1-45,41.9-85.5,39.6S1423.4,627.6,1398.6,507.9z"/>
	<path id="XMLID_51_" class="st5" d="M1398.6,507.9h330.8c0,0-14.5-32.8-46-34.5c0,0,2.9-33.9-25.4-43.7
		c-29.3-10.1-39.4-9.9-63.6-36c-24.2-26.1-45-41.9-85.5-39.6C1468.4,356.4,1423.4,388.2,1398.6,507.9z"/>
	<polygon id="XMLID_52_" class="st6" points="1583,109.3 1583,175.5 1558.9,190.6 1583,189.6 1583,202.3 1682,202.3 1682,109.3 	"/>
	<path id="XMLID_55_" class="st7" d="M1171.4,517.8h385.8c0,0-2.1-41-48.3-58.5c-46.1-17.4-47.3-16.3-62.5-36.6
		c-15.2-20.3-33.6-30.9-54.8-28.7c-21.2,2.3-32.2,10.1-32.2,10.1s-31.7-10.7-53.6,2.3c-21.9,12.9-43.3,52.9-43.3,52.9
		S1174.2,471.1,1171.4,517.8z"/>
	<linearGradient id="XMLID_17_" gradientUnits="userSpaceOnUse" x1="1364.2671" y1="593.0768" x2="1364.2671" y2="499.9358">
		<stop  offset="0" style="stop-color:#FFFFFF"/>
		<stop  offset="1" style="stop-color:#000000"/>
	</linearGradient>
	<path id="XMLID_430_" class="st8" d="M1171.4,517.8h385.8c0,0-2.1,41-48.3,58.5c-46.1,17.4-47.3,16.3-62.5,36.6
		c-15.2,20.3-33.6,30.9-54.8,28.7c-21.2-2.3-32.2-10.1-32.2-10.1s-31.7,10.7-53.6-2.3c-21.9-12.9-43.3-52.9-43.3-52.9
		S1174.2,564.5,1171.4,517.8z"/>
	<g id="XMLID_56_">
		<linearGradient id="XMLID_18_" gradientUnits="userSpaceOnUse" x1="1567.5431" y1="567.9325" x2="1567.5431" y2="509.0514">
			<stop  offset="0" style="stop-color:#FFFFFF"/>
			<stop  offset="1" style="stop-color:#000000"/>
		</linearGradient>
		<path id="XMLID_429_" class="st9" d="M1609.1,529.9c-9.3,8.2-21.7,13.6-35.4,14.9v111.7h-12.3V544.8c-13.7-1.3-26-6.7-35.4-14.9
			c-1.8-1.6-0.7-4.5,1.7-4.5h79.7C1609.8,525.4,1610.9,528.3,1609.1,529.9z"/>
		<rect id="XMLID_426_" x="1561.4" y="396.5" class="st10" width="12.3" height="117.4"/>
		<polygon id="XMLID_57_" class="st6" points="1573.7,447.8 1573.7,396.5 1561.4,396.5 1561.4,433.4 		"/>
		<path id="XMLID_61_" class="st10" d="M1605.4,400.2h-75.8c-2.5,0-4.7-2.3-5.2-5.5l-1.6-10.1c-0.7-4.3,1.8-8.3,5.2-8.3h79
			c3.4,0,5.9,4,5.2,8.3l-1.6,10.1C1610.1,397.9,1607.9,400.2,1605.4,400.2z"/>
		<path id="XMLID_64_" class="st10" d="M1567.5,507.9c-16.2,0-30.8,5.8-41.5,15.2c-1.8,1.6-0.7,4.5,1.7,4.5h79.7
			c2.4,0,3.5-3,1.7-4.5C1598.4,513.7,1583.7,507.9,1567.5,507.9z"/>
		<path id="XMLID_67_" class="st10" d="M1609.1,523.1c-9.3-8.2-21.7-13.6-35.4-14.9V396.5h-12.3v111.7c-13.7,1.3-26,6.7-35.4,14.9
			c-1.8,1.6-0.7,4.5,1.7,4.5h79.7C1609.8,527.7,1610.9,524.7,1609.1,523.1z"/>
	</g>
	<g id="XMLID_68_">
		<g id="XMLID_69_">
			<path id="XMLID_414_" class="st11" d="M1263.4,364.6h-12.6c-0.4,0-0.7-0.3-0.7-0.7v-5.8c0-0.4,0.3-0.7,0.7-0.7h12.6
				c0.4,0,0.7,0.3,0.7,0.7v5.8C1264.1,364.3,1263.8,364.6,1263.4,364.6z"/>
			<path id="XMLID_70_" class="st12" d="M1279,306.8c0-12.1-9.8-21.9-21.9-21.9c-12.1,0-21.9,9.8-21.9,21.9c0,4.4,1.3,9.4,3.6,13.9
				c2.6,5.2,4.2,10.7,4.4,16.5l0.3,4.5h27.3l0.3-4.5c0.2-5.8,1.9-11.3,4.4-16.5C1277.7,316.2,1279,311.2,1279,306.8z"/>
			<path id="XMLID_412_" class="st13" d="M1270.4,360.6h-26.5c-0.7,0-1.2-0.5-1.2-1.2v-17.7h29v17.7
				C1271.6,360,1271.1,360.6,1270.4,360.6z"/>
			<path id="XMLID_73_" class="st14" d="M1262.4,324.4v-12.2h0c0-4.4-0.8-6.2-1.7-6.2c-0.5,0-0.9,0.5-1.2,1.5
				c-0.3-1.1-0.7-1.5-1.2-1.5s-0.9,0.5-1.2,1.5c-0.3-1.1-0.7-1.5-1.2-1.5s-0.9,0.5-1.2,1.5c-0.3-1.1-0.7-1.5-1.2-1.5
				c-0.9,0-1.6,1.8-1.7,6.2h0v12.2"/>
			<g id="XMLID_74_">
				<line id="XMLID_75_" class="st15" x1="1242.6" y1="346" x2="1271.6" y2="346"/>
				<line id="XMLID_76_" class="st15" x1="1242.6" y1="349.4" x2="1271.6" y2="349.4"/>
				<line id="XMLID_77_" class="st15" x1="1242.6" y1="352.9" x2="1271.6" y2="352.9"/>
				<line id="XMLID_78_" class="st15" x1="1242.6" y1="356.3" x2="1271.6" y2="356.3"/>
			</g>
		</g>
		<g id="XMLID_85_">
			<g id="XMLID_242_">
				<line id="XMLID_257_" class="st16" x1="1257.7" y1="266.6" x2="1257.7" y2="276.1"/>
				<line id="XMLID_256_" class="st16" x1="1236.6" y1="272.2" x2="1241.4" y2="280.5"/>
				<g id="XMLID_251_">
					<line id="XMLID_255_" class="st16" x1="1221.1" y1="287.7" x2="1229.4" y2="292.5"/>
					<line id="XMLID_254_" class="st16" x1="1285" y1="324.5" x2="1293.3" y2="329.3"/>
				</g>
				<g id="XMLID_247_">
					<line id="XMLID_250_" class="st16" x1="1215.5" y1="308.8" x2="1225.1" y2="308.8"/>
					<line id="XMLID_248_" class="st16" x1="1289.2" y1="308.8" x2="1298.7" y2="308.8"/>
				</g>
				<g id="XMLID_244_">
					<line id="XMLID_246_" class="st16" x1="1221.1" y1="329.9" x2="1229.4" y2="325.1"/>
					<line id="XMLID_245_" class="st16" x1="1285" y1="293.1" x2="1293.3" y2="288.3"/>
				</g>
				<line id="XMLID_243_" class="st16" x1="1273.5" y1="281.6" x2="1278.2" y2="273.3"/>
			</g>
		</g>
	</g>
	<polygon id="XMLID_372_" class="st17" points="1267,245 1278.4,220 1251.1,222.4 1256.1,229.5 1232.1,244.5 1239.9,255.6 
		1262,237.9 	"/>
	<polygon id="XMLID_369_" class="st17" points="1706.2,192.7 1694.8,167.7 1722.1,170.1 1717.1,177.2 1741.1,192.2 1733.3,203.3 
		1711.2,185.6 	"/>
	<path id="XMLID_94_" class="st17" d="M1200.8,179.4H1342c0,0,0.8-36.2-33.8-32.1c0,0-8.4-21-36-16.1c-27.6,4.9-27.8,26.1-27.8,26.1
		s-20.1-6-25.7,13.1C1218.8,170.4,1203.2,171.3,1200.8,179.4z"/>
	<g id="XMLID_95_">
		<path id="XMLID_363_" class="st17" d="M1370.7,102.1l-2.8,2.2l-2.8,2.2c5.7,9.8,8.4,24.5,8.4,24.5c5-1.2,11.8,6.7,11.8,6.7l11.3-9
			c0,0-6.3-8.3-3.9-13C1392.7,115.7,1379,109.8,1370.7,102.1z"/>
		<line id="XMLID_362_" class="st18" x1="1367.9" y1="104.3" x2="1381.9" y2="121.8"/>
		<circle id="XMLID_361_" class="st18" cx="1383.2" cy="123.4" r="2.6"/>
		
			<rect id="XMLID_9_" x="1386.7" y="131.6" transform="matrix(0.7803 -0.6254 0.6254 0.7803 219.8251 903.3231)" class="st19" width="17.6" height="14.5"/>
		<path id="XMLID_357_" class="st10" d="M1393.2,150l47.4,59.2c0.8,1,4.5-0.7,8.3-3.7c3.8-3,6.2-6.3,5.5-7.3l-47.4-59.2L1393.2,150z
			"/>
	</g>
	<path id="XMLID_96_" class="st20" d="M1388.2,162.3c-11.8,26.4-40.4,51.2-65.3,49.8c-21.3-1.2-20.9-12.5-18-16.6
		c3.5-5,15.8-4.4,16,7.8s-6.9,25.4-18.4,37c-11.4,11.5-17.7,25-17.7,25"/>
	<path id="XMLID_99_" class="st20" d="M1412.4,130.4c7.9-14.8,23.9-28,40.5-34.2c16.6-6.2,31.2-11.5,34.3-21.4
		c3.1-9.8-6.5-16.3-16.9-11.5c-10.4,4.8-8.7,24.8,15.8,23.1c24.5-1.7,69.8-7.9,81.3,13.5"/>
	<polygon id="XMLID_100_" class="st13" points="1579.7,104.3 1579.7,170.5 1555.7,185.7 1579.7,184.7 1579.7,197.3 1678.7,197.3 
		1678.7,104.3 	"/>
	<g id="XMLID_101_">
		<circle id="XMLID_350_" class="st17" cx="1619.3" cy="138.7" r="22.4"/>
		<rect id="XMLID_347_" x="1619.3" y="138.7" class="st17" width="38.1" height="38.1"/>
		<path id="XMLID_102_" class="st12" d="M1619.3,161.1c12.4,0,22.4-10,22.4-22.4h-22.4V161.1z"/>
	</g>
	<g id="XMLID_105_">
		<g id="XMLID_106_" class="st6">
			<path id="XMLID_314_" d="M1715.6,388.2h-66.4c-2.7,0-4.8-2.2-4.8-4.8V223.8c0-2.7,2.2-4.8,4.8-4.8h66.4c2.7,0,4.8,2.2,4.8,4.8
				v159.6C1720.4,386.1,1718.3,388.2,1715.6,388.2z"/>
		</g>
		<g id="XMLID_107_">
			<path id="XMLID_310_" class="st17" d="M1711.5,383.7h-66.4c-2.7,0-4.8-2.2-4.8-4.8V219.3c0-2.7,2.2-4.8,4.8-4.8h66.4
				c2.7,0,4.8,2.2,4.8,4.8v159.6C1716.3,381.5,1714.1,383.7,1711.5,383.7z"/>
			<circle id="XMLID_309_" class="st21" cx="1663.7" cy="238.7" r="8.8"/>
			<circle id="XMLID_308_" class="st13" cx="1692.8" cy="238.7" r="8.8"/>
			<circle id="XMLID_307_" class="st22" cx="1663.7" cy="265.8" r="8.8"/>
			<circle id="XMLID_306_" class="st5" cx="1692.8" cy="265.8" r="8.8"/>
			<circle id="XMLID_305_" class="st23" cx="1663.7" cy="292.9" r="8.8"/>
			<circle id="XMLID_304_" class="st24" cx="1692.8" cy="292.9" r="8.8"/>
			<circle id="XMLID_303_" class="st25" cx="1663.7" cy="320" r="8.8"/>
			<circle id="XMLID_302_" class="st10" cx="1692.8" cy="320" r="8.8"/>
			<g id="XMLID_109_">
				<path id="XMLID_301_" class="st26" d="M1690.2,348.9l-6.5-6.5l-18.3,18.3c-1.3,1.3-1.9,3.1-1.5,4.9l0,0c0.1,0.6-0.1,1.1-0.5,1.5
					l-1.7,1.7c-0.6,0.6-0.6,1.5,0,2l0,0c0.6,0.6,1.5,0.6,2,0l1.7-1.7c0.4-0.4,1-0.6,1.5-0.5l0,0c1.8,0.3,3.7-0.2,4.9-1.5
					L1690.2,348.9z"/>
				<path id="XMLID_300_" class="st27" d="M1692.8,348l-1.2-1.2l2.4-2.4c1.6-1.6,1.6-4.3,0-5.9c-1.6-1.6-4.3-1.6-5.9,0l-2.4,2.4
					l-1.2-1.2c-0.5-0.5-1.3-0.5-1.8,0c-0.5,0.5-0.5,1.3,0,1.8l8.3,8.3c0.5,0.5,1.3,0.5,1.8,0C1693.3,349.3,1693.3,348.5,1692.8,348z
					"/>
			</g>
		</g>
	</g>
	<g id="XMLID_111_">
		<path id="XMLID_114_" class="st24" d="M1465.9,497.4l-1.5,18.4c0,0-22.5,9-22.5,12c0,3,39.8,3.9,41.3,0c1.5-3.9,3.4-30.4,3.4-30.4
			H1465.9z"/>
		<path id="XMLID_117_" class="st24" d="M1419.8,497.4l-5.6,18.4c0,0-22.5,9-22.5,12c0,3,39.8,3.9,41.3,0c1.5-3.9,7.5-30.4,7.5-30.4
			H1419.8z"/>
		<path id="XMLID_118_" class="st12" d="M1547.1,330.5c0,0-88.3,4.7-99.9,30.6c-11.8,26.2-30.4,140.2-30.4,140.2h24.8l33.2-121.8
			c0,0,87.8-2.7,107.2-11.5c19.4-8.9,27-37.4,27-37.4H1547.1z"/>
		<path id="XMLID_119_" class="st6" d="M1452.5,461.4l22.3-81.9c0,0,87.8-2.7,107.2-11.5s27-37.4,27-37.4h-61.9
			c0,0-88.3,4.7-99.9,30.6c-1.3,3-2.8,7.1-4.2,12L1452.5,461.4z"/>
		<path id="XMLID_120_" class="st12" d="M1609,330.5c0,0,5.1,14.3,0,31.2c-5.1,16.9-23.6,20.8-39.7,20.8h-53.5c-4.1,0-7.7,3-8.4,7.1
			l-18.3,111.6h-28.7c0,0,3.1-101.8,9.6-124c9.8-33.6,34.9-35.1,95.9-40.5L1609,330.5z"/>
		<path id="XMLID_123_" class="st13" d="M1506,217.7c-11.5,9.8-17.4,78.8-17.4,78.8l-48.9,11.3v14.6l52.3-2.9
			c8.3-0.5,15.3-6.5,16.9-14.7l9.6-49.6L1506,217.7z"/>
		<path id="XMLID_126_" class="st17" d="M1502.4,315.6c0,0-12.2,2.2-17.3,3.5c-4.5,1.2-25,12.1-25,14.4c0,2.3,14.1,1.5,14.1,1.5
			s14.3-3.4,16.4-7.8l14.4-0.9L1502.4,315.6z"/>
		<path id="XMLID_127_" class="st6" d="M1509.8,299.3l8.5-44.1l-12.4-37.4c-5,4.3-9,19.9-11.9,36.1L1509.8,299.3z"/>
		<path id="XMLID_130_" class="st13" d="M1532,204.2c16.5-2.4,39.1-1.1,50.1,12.9c11,14.1,25.3,74.8,27,90.3c1.7,15.5,9,25-5.6,25
			s-44.2,0-57.7,0s-14.1-1.7-13.8-16.6c0.3-14.9-2-30.1-16.9-54.8c-14.9-24.8-15.2-36-10.1-43.3C1510,210.4,1524,205.3,1532,204.2z"
			/>
		<path id="XMLID_131_" class="st6" d="M1532,315.9c-0.3,14.9,0.3,16.6,13.8,16.6s43,0,57.7,0c14.6,0,7.3-9.6,5.6-25
			c-1.7-15.5-16-76.2-27-90.3c-0.6-0.8-1.3-1.5-2-2.3l-49.1,85.4C1531.8,305.8,1532.1,310.8,1532,315.9z"/>
		<path id="XMLID_134_" class="st13" d="M1572.8,210.7c16.6,1.4,15.4,43.8,15.4,58.4c0,14.6,0.3,43-14.1,47.5s-72.3,12.7-72.3,12.7
			l-2.1-14.3l58.7-19.4c0,0,1.1-36.3,1.4-48.7C1560.1,234.6,1556.8,209.4,1572.8,210.7z"/>
		
			<ellipse id="XMLID_271_" transform="matrix(0.9145 -0.4047 0.4047 0.9145 55.9859 621.9473)" class="st10" cx="1499.1" cy="178.6" rx="7.1" ry="9.9"/>
		<path id="XMLID_138_" class="st28" d="M1496.9,174.4c2.9,11.2,5.1,17.4,6.8,21.6c1.7,4.2,7.3,5.3,14.7,3.3c0,0,2.9,8.5,4.9,13
			c2,4.5,22.9,1.6,20.4-6.2c-2.5-7.9-5.8-16.9-5.8-16.9s8.8-39.3-18.9-41.9C1491.3,144.7,1489.2,169.8,1496.9,174.4z"/>
		<path id="XMLID_139_" class="st24" d="M1509.3,156.4c0,0,6.5,9.4,17.3,9.6c0,0,2.2,16.4,11.3,23.2c0,0,14.1-6.8,9.1-15
			c0,0,12.2-7.1-2.4-21.2c0,0,9-3.3,8.7-7.1c-0.3-3.8-17.1-1.3-17.1-1.3s-19.1-25.5-31.6-23.2c-7,1.3-8.2,12.4-8.2,12.4
			s-14.8-5.8-20.6,2.3c-5.8,8.1,7.6,23.2,7.6,23.2s-5.8,1.8-5.7,6.3c0.2,8.9,19.2,8.9,19.2,8.9l-0.5-5.6c0,0,5.5,1.3,5-0.5
			c-0.5-1.8-3.3-4.3-3.3-4.3S1507.1,161.7,1509.3,156.4z"/>
		
			<ellipse id="XMLID_264_" transform="matrix(0.9802 0.1979 -0.1979 0.9802 64.6695 -300.1667)" class="st10" cx="1533.9" cy="173.4" rx="7.1" ry="9.9"/>
		<g id="XMLID_144_">
			<g id="XMLID_37_">
				<path id="XMLID_38_" class="st10" d="M1536,172.8c-0.2,0-0.4,0-0.6-0.1c-1.2-0.3-1.9-1.6-1.6-2.8c3.2-12,0.7-28.6,0.7-28.8
					c-0.2-1.2,0.7-2.4,1.9-2.6c1.2-0.2,2.4,0.7,2.6,1.9c0.1,0.7,2.6,17.7-0.8,30.6C1537.9,172.2,1537,172.8,1536,172.8z"/>
			</g>
		</g>
		<polyline id="XMLID_148_" class="st29" points="1559.7,234.1 1558.4,295.6 1499.7,315 		"/>
	</g>
	<g id="XMLID_149_">
		<path id="XMLID_150_" class="st24" d="M1463.2,338.8h-116.9l-19.9-87c-0.6-2.5,1.3-4.8,3.8-4.8h107.3c2.8,0,5.1,1.9,5.7,4.6
			L1463.2,338.8z"/>
		<rect id="XMLID_253_" x="1393.2" y="333.9" class="st24" width="131.5" height="5"/>
		<g id="XMLID_157_">
			<g id="XMLID_180_">
				<g id="XMLID_184_">
					<polygon id="XMLID_186_" class="st17" points="1349.3,349.6 1318.2,549.1 1310.3,549.1 1332,349.6 					"/>
					<polygon id="XMLID_185_" class="st17" points="1387.1,529.1 1376.7,349.6 1359.4,349.6 1378.3,529.1 					"/>
				</g>
				<g id="XMLID_181_">
					<polygon id="XMLID_183_" class="st17" points="1478.7,349.6 1447.6,549.1 1439.7,549.1 1461.4,349.6 					"/>
					<polygon id="XMLID_182_" class="st17" points="1516.6,529.1 1506.1,349.6 1488.8,349.6 1507.7,529.1 					"/>
				</g>
			</g>
		</g>
		<g id="XMLID_162_" class="st6">
			<polygon id="XMLID_163_" points="1347.2,362.7 1349.3,349.6 1332,349.6 1330.9,359.6 			"/>
			<polygon id="XMLID_164_" points="1376.7,349.6 1359.4,349.6 1361.1,365.3 1377.8,368.5 			"/>
		</g>
		<g id="XMLID_165_" class="st6">
			<polygon id="XMLID_166_" points="1476.7,362.7 1478.7,349.6 1461.4,349.6 1460.4,359.6 			"/>
			<polygon id="XMLID_167_" points="1506.1,349.6 1488.9,349.6 1490.5,365.3 1507.2,368.5 			"/>
		</g>
		<rect id="XMLID_229_" x="1302.5" y="338.8" class="st17" width="221.9" height="10.8"/>
		<line id="XMLID_168_" class="st30" x1="1302.5" y1="345.9" x2="1524.7" y2="345.9"/>
		<line id="XMLID_172_" class="st31" x1="1437" y1="252.6" x2="1457.2" y2="338.8"/>
		<circle id="XMLID_224_" class="st12" cx="1391.3" cy="292.5" r="13.5"/>
		<g id="XMLID_173_" class="st6">
			<linearGradient id="XMLID_19_" gradientUnits="userSpaceOnUse" x1="1507.7301" y1="574.6678" x2="1507.7301" y2="514.4998">
				<stop  offset="0" style="stop-color:#FFFFFF"/>
				<stop  offset="1" style="stop-color:#000000"/>
			</linearGradient>
			<polygon id="XMLID_174_" class="st32" points="1511.7,613 1516.6,529.1 1507.7,529.1 1498.9,613 			"/>
			<linearGradient id="XMLID_20_" gradientUnits="userSpaceOnUse" x1="1448.6228" y1="574.6677" x2="1448.6228" y2="514.4996">
				<stop  offset="0" style="stop-color:#FFFFFF"/>
				<stop  offset="1" style="stop-color:#000000"/>
			</linearGradient>
			<polygon id="XMLID_175_" class="st33" points="1457.5,613 1447.6,549.1 1439.7,549.1 1446.7,613 			"/>
			<linearGradient id="XMLID_22_" gradientUnits="userSpaceOnUse" x1="1378.3276" y1="574.6678" x2="1378.3276" y2="514.4998">
				<stop  offset="0" style="stop-color:#FFFFFF"/>
				<stop  offset="1" style="stop-color:#000000"/>
			</linearGradient>
			<polygon id="XMLID_176_" class="st34" points="1382.3,613 1387.1,529.1 1378.3,529.1 1369.5,613 			"/>
			<linearGradient id="XMLID_25_" gradientUnits="userSpaceOnUse" x1="1319.2203" y1="574.6677" x2="1319.2203" y2="514.4996">
				<stop  offset="0" style="stop-color:#FFFFFF"/>
				<stop  offset="1" style="stop-color:#000000"/>
			</linearGradient>
			<polygon id="XMLID_177_" class="st35" points="1328.1,613 1318.2,549.1 1310.3,549.1 1317.3,613 			"/>
		</g>
	</g>
	<circle id="XMLID_24_" class="st16" cx="1432.7" cy="131.2" r="7.8"/>
	<circle id="XMLID_23_" class="st16" cx="1221.1" cy="207.7" r="7.8"/>
	<circle id="XMLID_21_" class="st16" cx="1394.7" cy="215.5" r="7.8"/>
</g>
<g id="XMLID_1_">
	<path id="XMLID_354_" class="st24" d="M1502.9,180.1c0.1,0.7,0.8,1.2,1.6,1.1c0.8-0.1,1.3-0.8,1.2-1.5c-0.1-0.7-0.8-1.2-1.6-1.1
		C1503.3,178.7,1502.8,179.4,1502.9,180.1"/>
	<path id="XMLID_353_" class="st24" d="M1501.3,179.1c0.2,0.1,1.1-0.8,2.6-1.1c1.5-0.3,2.7,0.3,2.8,0c0.1-0.1-0.2-0.4-0.7-0.6
		c-0.5-0.3-1.4-0.4-2.3-0.3c-0.9,0.2-1.6,0.7-2,1.1C1501.3,178.7,1501.2,179.1,1501.3,179.1"/>
	<path id="XMLID_352_" class="st24" d="M1517.6,178c0.1,0.7,0.8,1.2,1.6,1.1c0.8-0.1,1.3-0.8,1.2-1.5c-0.1-0.7-0.8-1.2-1.6-1.1
		C1518,176.6,1517.5,177.3,1517.6,178"/>
	<path id="XMLID_351_" class="st24" d="M1515.9,176.6c0.2,0.1,1.1-0.8,2.6-1.1c1.5-0.3,2.7,0.3,2.8,0c0.1-0.1-0.2-0.4-0.7-0.6
		c-0.5-0.3-1.4-0.4-2.3-0.3c-0.9,0.2-1.6,0.7-2,1.1C1515.9,176.2,1515.8,176.6,1515.9,176.6"/>
	<path id="XMLID_349_" class="st24" d="M1512.6,188.6c0-0.1-1-0.1-2.5,0c-0.4,0-0.8,0-0.9-0.2c-0.1-0.3-0.1-0.7,0-1.2
		c0.2-1,0.4-2,0.6-3.1c0.8-4.4,1.3-8,1.1-8c-0.2,0-0.9,3.5-1.7,7.9c-0.2,1.1-0.4,2.1-0.5,3.1c-0.1,0.5-0.2,1,0.1,1.5
		c0.2,0.3,0.5,0.4,0.7,0.4c0.3,0,0.5,0,0.7,0C1511.7,188.9,1512.7,188.7,1512.6,188.6"/>
	<path id="XMLID_348_" class="st24" d="M1514.4,170.9c0.2,0.4,1.7-0.1,3.4-0.2c1.8-0.2,3.3,0.1,3.4-0.3c0.1-0.2-0.2-0.5-0.9-0.8
		c-0.6-0.3-1.6-0.5-2.7-0.4c-1.1,0.1-2,0.4-2.6,0.8C1514.6,170.3,1514.3,170.7,1514.4,170.9"/>
	<path id="XMLID_346_" class="st24" d="M1501.1,174.7c0.3,0.3,1.3-0.3,2.5-0.5c1.2-0.3,2.3-0.2,2.5-0.6c0.1-0.2-0.2-0.5-0.7-0.7
		c-0.5-0.2-1.3-0.3-2.1-0.2s-1.5,0.6-1.9,1.1C1501,174.2,1500.9,174.6,1501.1,174.7"/>
	<path id="XMLID_344_" class="st36" d="M1512.3,193.4c0.3,0.5,0.7,1.1,1.2,1.5c0.5,0.4,1.1,0.7,1.8,0.6c0.7-0.1,1.3-0.6,1.5-1.2
		c0.3-0.6,0.3-1.4,0.1-2c-0.1-0.6-0.6-1.3-1.2-1.2c-0.3,0-0.5,0.2-0.7,0.3c-1,0.6-2,1.3-2.9,1.9"/>
	<path id="XMLID_343_" class="st24" d="M1514,195.8c0-0.1,0.7,0,1.7-0.5c0.4-0.3,0.9-0.8,1.1-1.4c0.2-0.6,0.1-1.4-0.4-2.1
		c-0.1-0.2-0.2-0.3-0.4-0.4c-0.2-0.1-0.1-0.1-0.3-0.1c-0.1,0.1-0.3,0.2-0.5,0.3c-0.2,0.1-0.3,0.2-0.5,0.3c-0.6,0.4-1.2,0.8-1.7,1.1
		c-1,0.6-1.6,0.9-1.6,0.9c0-0.1,0.5-0.5,1.4-1.2c0.5-0.3,1-0.7,1.6-1.2c0.2-0.1,0.3-0.2,0.5-0.3c0.2-0.1,0.3-0.2,0.5-0.4
		c0.1-0.1,0.3-0.1,0.5-0.1c0.2,0,0.3,0.1,0.4,0.2c0.2,0.2,0.3,0.3,0.5,0.5c0.5,0.8,0.6,1.8,0.4,2.6c-0.3,0.8-0.8,1.3-1.4,1.6
		c-0.5,0.3-1,0.3-1.4,0.3C1514.2,195.9,1514,195.8,1514,195.8"/>
</g>
</svg>
