<svg id="f752dfaf-a80e-4fcd-b51a-ae50c04d2b7b" data-name="Layer 1" xmlns="http://www.w3.org/2000/svg" xmlns:xlink="http://www.w3.org/1999/xlink" viewBox="0 0 1980 780"><defs><linearGradient id="a02daad6-69a1-41ed-b797-f2b438f59d77" x1="1162.52" y1="223.58" x2="1298.13" y2="223.58" gradientUnits="userSpaceOnUse"><stop offset="0" stop-color="#192f35"/><stop offset="0.16" stop-color="#1d3238"/><stop offset="0.33" stop-color="#293d42"/><stop offset="0.5" stop-color="#3e4e52"/><stop offset="0.67" stop-color="#5a6669"/><stop offset="0.84" stop-color="#7e8487"/><stop offset="1" stop-color="#a9a8a9"/></linearGradient><linearGradient id="e29da837-c94e-4097-bafc-9353b3d88159" x1="1126.18" y1="636.5" x2="1152.99" y2="636.5" gradientUnits="userSpaceOnUse"><stop offset="0" stop-color="#dc4d65"/><stop offset="1" stop-color="#dc4d65"/></linearGradient><linearGradient id="b80c3067-2d2d-4d5b-8ebd-f387febb4dc0" x1="1253.59" y1="636.35" x2="1279.62" y2="636.35" xlink:href="#e29da837-c94e-4097-bafc-9353b3d88159"/><linearGradient id="a182f1e6-29e2-40b1-9a48-08fd55f87e65" x1="1128.66" y1="551.05" x2="1161.98" y2="551.05" gradientUnits="userSpaceOnUse"><stop offset="0" stop-color="#f0b943"/><stop offset="0.12" stop-color="#efb53f"/><stop offset="0.25" stop-color="#eda933"/><stop offset="0.36" stop-color="#e99823"/></linearGradient><linearGradient id="b45b617e-4590-441b-a929-cf1937e6ce98" x1="1197.78" y1="552.28" x2="1268.34" y2="552.28" xlink:href="#a182f1e6-29e2-40b1-9a48-08fd55f87e65"/><linearGradient id="f73fa1a0-c833-4d1a-9bb5-6869da15f2c3" x1="1204.64" y1="379.18" x2="1226.2" y2="379.18" xlink:href="#a182f1e6-29e2-40b1-9a48-08fd55f87e65"/><linearGradient id="b39ef56e-076c-4f48-9153-47239710e423" x1="1192.08" y1="261.5" x2="1193.02" y2="320.95" xlink:href="#a182f1e6-29e2-40b1-9a48-08fd55f87e65"/><linearGradient id="b92a9a43-8c02-4dff-b31b-024d4b17db40" x1="1125.09" y1="368.05" x2="1140.93" y2="368.05" xlink:href="#a182f1e6-29e2-40b1-9a48-08fd55f87e65"/><linearGradient id="ea46759c-be9e-41e4-83e7-a3cadb2dd906" x1="1192.53" y1="211.35" x2="1193.3" y2="260.07" xlink:href="#a182f1e6-29e2-40b1-9a48-08fd55f87e65"/><linearGradient id="f2d805c7-c322-44bc-8e12-194e81d2c009" x1="1858.8" y1="122.13" x2="1861.05" y2="263.89" gradientUnits="userSpaceOnUse"><stop offset="0" stop-color="#192f35"/><stop offset="0" stop-color="#1d3339"/><stop offset="0" stop-color="#293e43"/><stop offset="0" stop-color="#3e5055"/><stop offset="0" stop-color="#5a6a6e"/><stop offset="0" stop-color="#7f8b8e"/><stop offset="0" stop-color="#acb3b5"/><stop offset="0" stop-color="#e0e2e3"/><stop offset="0" stop-color="#f8f8f8"/><stop offset="0.62" stop-color="#e1e2e2"/></linearGradient><linearGradient id="a61b2240-a4a9-4206-b0ba-9069a53577d8" x1="1616.16" y1="406.4" x2="1748.38" y2="406.4" gradientUnits="userSpaceOnUse"><stop offset="0" stop-color="#192f35"/><stop offset="0" stop-color="#1d3339"/><stop offset="0" stop-color="#293e43"/><stop offset="0" stop-color="#3e5055"/><stop offset="0" stop-color="#5a6a6e"/><stop offset="0" stop-color="#7f8b8e"/><stop offset="0" stop-color="#acb3b5"/><stop offset="0" stop-color="#e0e2e3"/><stop offset="0" stop-color="#f8f8f8"/><stop offset="0.69" stop-color="#e1e2e2"/></linearGradient><linearGradient id="b4ead616-98ec-400b-b510-1ea0451846f2" x1="1644.96" y1="39.77" x2="1697.53" y2="39.77" xlink:href="#a61b2240-a4a9-4206-b0ba-9069a53577d8"/><linearGradient id="e6fa5e65-8083-4f99-8a10-c9356bd52005" x1="1650.23" y1="64.44" x2="1692.43" y2="64.44" xlink:href="#a61b2240-a4a9-4206-b0ba-9069a53577d8"/><linearGradient id="a6f803b8-25ae-4878-8d78-c9e962ec67c2" x1="1779.46" y1="312.57" x2="1738.97" y2="312.76" xlink:href="#f2d805c7-c322-44bc-8e12-194e81d2c009"/><linearGradient id="a773ef45-87a8-4f43-bf6e-9fc772d769f7" x1="1673.78" y1="206.24" x2="1605.7" y2="206.84" xlink:href="#a61b2240-a4a9-4206-b0ba-9069a53577d8"/><linearGradient id="aca765e7-f00c-4b78-818e-589fc130e896" x1="1685.28" y1="210.36" x2="1786.58" y2="210.36" gradientUnits="userSpaceOnUse"><stop offset="0" stop-color="#192f35"/><stop offset="0" stop-color="#1d3339"/><stop offset="0" stop-color="#293e43"/><stop offset="0" stop-color="#3e5055"/><stop offset="0" stop-color="#5a6a6e"/><stop offset="0" stop-color="#7f8b8e"/><stop offset="0" stop-color="#acb3b5"/><stop offset="0" stop-color="#e0e2e3"/><stop offset="0" stop-color="#f8f8f8"/><stop offset="0.91" stop-color="#e1e2e2"/></linearGradient><linearGradient id="b18ef6c7-a815-43b3-a237-cb1fc6aa8401" x1="1663.27" y1="114.49" x2="1675.14" y2="114.49" xlink:href="#a61b2240-a4a9-4206-b0ba-9069a53577d8"/><linearGradient id="b4e13be4-d7af-43f1-890d-8fdce43d5a0f" x1="1647.71" y1="197.37" x2="1672.32" y2="197.37" xlink:href="#a61b2240-a4a9-4206-b0ba-9069a53577d8"/><linearGradient id="e231369d-18cf-46dc-a683-cea33076e894" x1="1586.89" y1="301.35" x2="1612.29" y2="301.35" gradientUnits="userSpaceOnUse"><stop offset="0" stop-color="#192f35"/><stop offset="0" stop-color="#1d3339"/><stop offset="0" stop-color="#293e43"/><stop offset="0" stop-color="#3e5055"/><stop offset="0" stop-color="#5a6a6e"/><stop offset="0" stop-color="#7f8b8e"/><stop offset="0" stop-color="#acb3b5"/><stop offset="0" stop-color="#e0e2e3"/><stop offset="0" stop-color="#f8f8f8"/><stop offset="0.83" stop-color="#e1e2e2"/></linearGradient><linearGradient id="b40ee2e0-e89e-4f35-b5d1-c6868c81a0e6" x1="1542.66" y1="660.63" x2="1499.49" y2="660.83" gradientUnits="userSpaceOnUse"><stop offset="0" stop-color="#192f35"/><stop offset="0.19" stop-color="#1d3238"/><stop offset="0.38" stop-color="#293c41"/><stop offset="0.57" stop-color="#3e4c50"/><stop offset="0.76" stop-color="#5a6366"/><stop offset="0.95" stop-color="#7e8081"/><stop offset="1" stop-color="#898989"/></linearGradient><linearGradient id="e9a24f25-81c1-4755-9369-5b004e0bc760" x1="1457.75" y1="646.52" x2="1391.96" y2="646.83" xlink:href="#b40ee2e0-e89e-4f35-b5d1-c6868c81a0e6"/><linearGradient id="af11c6fc-b3fe-471d-a9a8-f1f4919a9ac6" x1="1471.37" y1="220.06" x2="1469.77" y2="165.86" gradientUnits="userSpaceOnUse"><stop offset="0.65" stop-color="#dc4c65"/><stop offset="0.8" stop-color="#c73e58"/><stop offset="1" stop-color="#a62744"/></linearGradient><linearGradient id="fb3c2602-ebd6-4d45-a1ae-6c7925dc4220" x1="1449.4" y1="183.36" x2="1489.05" y2="183.36" gradientUnits="userSpaceOnUse"><stop offset="0" stop-color="#dc4d65"/><stop offset="0.31" stop-color="#d84a63"/><stop offset="0.63" stop-color="#cc425c"/><stop offset="0.94" stop-color="#b83350"/><stop offset="1" stop-color="#b3304d"/></linearGradient><linearGradient id="bd5e4f84-fc5d-4286-98e0-e3f7c4a26488" x1="1562.07" y1="416.47" x2="1524.16" y2="416.65" xlink:href="#fb3c2602-ebd6-4d45-a1ae-6c7925dc4220"/><linearGradient id="e17c73bb-48e4-4933-86b6-0b2876b5df3c" x1="1471.53" y1="316.55" x2="1407.57" y2="317.11" gradientUnits="userSpaceOnUse"><stop offset="0" stop-color="#898989"/><stop offset="0.21" stop-color="#636a6c"/><stop offset="0.42" stop-color="#435154"/><stop offset="0.63" stop-color="#2c3e43"/><stop offset="0.83" stop-color="#1e3339"/><stop offset="1" stop-color="#192f35"/></linearGradient><linearGradient id="aa70912e-b0ce-4c64-a0bd-9ee269fea880" x1="1555.44" y1="320.25" x2="1460.29" y2="320.7" xlink:href="#b40ee2e0-e89e-4f35-b5d1-c6868c81a0e6"/><linearGradient id="e8ee75b1-a0d6-4874-9582-b66c97fd56b0" x1="1408.27" y1="405.84" x2="1384.52" y2="405.95" xlink:href="#fb3c2602-ebd6-4d45-a1ae-6c7925dc4220"/></defs><title>hiring superheroes</title><rect width="1980" height="780" fill="#fff"/><path d="M1377.31,165.09s36.6-5.45,68.59,13.83c0,0,91,35.84,173.1,16,0,0,51.84,67.22,34.56,129.55,0,0-280.89,78.61-283.72-48.33Z" fill="#e1e2e2"/><path d="M1326.1,155.73a12.82,12.82,0,0,1-2-1.09c-2.91-2-4.86-5.24-6.77-8.11-2.49-3.77-3.24-8.47-4.63-12.7a57.29,57.29,0,0,1-2.33-15.34c-.45-9.61.6-20.09,8.23-26.87,2.92-2.6,6.46-2.83,10.16-3.4,0,0,8.64-8.16,20.4-6,9.44,1.74,19,8.62,26.32,14.56,4.4,3.58,7.77,8.59,13.35,10.76,6.28,2.43,13.37,2.9,20,3.27,6.89.39,13.76-1.18,17.86-7.19,5.55-8.14,4.31-15.87-6.23-18.28.55.13,2.32-.86,2.91-1a14.83,14.83,0,0,1,7.37,0c6.87,1.88,10.56,9,12.19,15.38,2.21,8.74-.52,16.7-3.47,24.91-.6,1.69-1.21,3.39-1.69,5.12-.57,2.07-.93,2.7,1.29,2.55,2.79-.18,5.42-3.52,6.8-5.57,0,0,1,18.38-16.56,35.9l7.92-1.44A45.8,45.8,0,0,1,1395,173.42l3.84,3.12h-5l-46.67-14.4-12.64-3.89C1331.77,157.4,1328.75,156.92,1326.1,155.73Z" fill="#e1e2e2"/><path d="M1329.53,155.34a10.73,10.73,0,0,0-7,10.18c-8.27,0-16.91.14-24.26,3.95-9.3,4.81-14.76,14.55-21.82,22.27-5.66,6.19-12.48,11.18-18.62,16.89-4.79,4.46-9.27,9.5-12.09,15.47-1.22,2.61-2.83,5.45-2.31,8.37.63,3.52,3,6.6,5.12,9.35q11.27,14.37,23.09,28.3l11-7.63a227.75,227.75,0,0,1-15.39-29.41,2.75,2.75,0,0,1-.33-1.55c.19-1,1.36-1.44,2.34-1.72a44.11,44.11,0,0,0,25.32-19.76c-2.56,7,4.28,13.87,5.67,21.24a26,26,0,0,1-.21,8.7,94.3,94.3,0,0,1-4.33,17.21,189,189,0,0,1,60.14,11.07c8.32-16.91,16.69-33.94,21.68-52.11l14.07,25.51c1.09,2,2.2,4.07,2.09,6.31-.16,3-2.41,5.36-4.53,7.46l-19.86,19.7,5.3,10.06c13.45-6,27.11-12.12,38.34-21.67,3.42-2.9,6.76-6.43,7.43-10.86a18.61,18.61,0,0,0-.7-7.29c-3.22-12.87-10-24.6-13.8-37.29-2.69-8.84-4-18.16-7.92-26.52s-11.4-15.93-20.63-16.48c-3.24-.19-6.53.5-9.72-.09a12.79,12.79,0,0,1-10.07-10.26l-21.85-.08a20.88,20.88,0,0,0-5.41.45C1330,155.18,1329.77,155.25,1329.53,155.34Z" fill="#e1e2e2"/><path d="M1282.65,518.53l-1.84,9.37c-1.35,6.85-2.59,13.22-2.19,20.26.13,2.43-1.08,4.66-2.36,6.63-1.16,1.81-2.58,3.19-2.26,5.56a5.83,5.83,0,0,0,4,5,28,28,0,0,0,15.47-.22,10,10,0,0,0,5.36-3.7,5.58,5.58,0,0,0,.58-4.58c-.76-2.93-2.2-5.52-2.66-8.59-.89-5.87.39-11.3,2.51-16.75,1-2.56,2.65-5.75.36-8.13a37,37,0,0,0-3.63-3.88c-.45-.35-2.08-1.74-2.62-1.7Z" fill="#e1e2e2"/><path d="M1402.79,520s11.8.1,12.45-3.07c-.09.47,3.27,3.42,3.67,4.1,2.28,3.87,2.3,9.43,3,13.76.61,3.83.64,8.1,1.49,12s3.44,7.52,3.92,11.62c1,8.55-9.53,9.15-15.53,8.37-2.75-.35-7.51-.87-9.35-3.23-2.59-3.32.23-9.87.74-13.56.95-7,.09-12.39-1.46-19.05a12.77,12.77,0,0,1-.25-2.47A23.67,23.67,0,0,1,1402.79,520Z" fill="#e1e2e2"/><path d="M1281.25,389.36l2.4,7.86v15.12l-1.2,9.36c-.85,5.13-3,10.16-4,15.37a151.08,151.08,0,0,0-1.85,15.88c-.76,11.74.57,23,2.14,34.63,1.28,9.44,2.89,18.75,3.78,28.25l.18,5.76s2.34,6.12,11.34-1.26c.29-.24-1.26-3.64-1.4-4.13-1.69-6,1.31-12.33,3-18,1.32-4.46,2.45-9,3.65-13.51l2.42-9.09c2.51-9.43,4.17-19.15,3.38-29-.45-5.6-1.4-11.1-1.18-16.72.26-6.51,1.83-12.66,3.3-19,.24-1,2.52-19.08,2.52-19.08Z" fill="#e1e2e2"/><path d="M1185.18,619.78l-8.46,4.43c-6.19,3.24-11.93,6.27-17.16,11-1.81,1.63-4.31,2.08-6.65,2.32-2.13.22-4.1,0-5.75,1.72a5.82,5.82,0,0,0-1.43,6.26,27.88,27.88,0,0,0,9.86,11.92,10,10,0,0,0,6.24,1.86,5.59,5.59,0,0,0,3.94-2.42c1.81-2.43,2.92-5.17,5-7.46,4-4.37,9-6.77,14.63-8.54,2.61-.83,6.15-1.53,6.56-4.8a37.71,37.71,0,0,0,.75-5.28c0-.56,0-2.7-.32-3.1Z" fill="#e1e2e2"/><path d="M1285,537.73l-4.62,6.79L1268.55,554l-8,4.93c-4.54,2.55-9.83,4-14.45,6.56a150.62,150.62,0,0,0-13.54,8.5c-9.63,6.77-17.59,14.88-25.64,23.37-6.56,6.92-12.8,14-19.65,20.66l-4.38,3.75s-3.3,5.66,8.09,8.05c.37.07,2-3.27,2.34-3.69,3.64-5.09,10.43-6.7,15.89-9,4.3-1.77,8.55-3.74,12.81-5.63l8.59-3.81c8.93-4,17.55-8.75,24.76-15.57,4.08-3.86,7.77-8,12.29-11.39,5.23-3.88,11-6.52,16.83-9.31,1-.46,16.45-10,16.45-10Z" fill="#e1e2e2"/><path d="M1345.55,391.82a105.36,105.36,0,0,0,13,19.08s9.54,14.94,9.18,25.92c0,0-2.34,16.92,4.68,28.26,0,0,2.7,7.92,14.94,22,0,0,12.24,14.57,13.68,25.55l1.8,7.38s9.9,9,13.32,0l-3.6-12.78c-4.67-22.65-8.46-46.09-16.87-67.73-2-5.07-4.86-9.72-6.72-14.84-1.63-4.47-1.52-9.29-3.09-13.74a36.29,36.29,0,0,0-3.28-6c-1.28-2.23-1.35-4.78-1.72-7.26v-5.76Z" fill="#e1e2e2"/><path d="M1297.55,621.62s2.49,11.54,5.72,11.48c-.47,0-2.62,3.94-3.19,4.48-3.27,3.08-8.7,4.31-12.77,5.93-3.6,1.43-7.77,2.4-11.41,4.09s-6.58,5-10.48,6.36c-8.12,2.87-11-7.3-11.57-13.32-.25-2.77-.79-7.52,1.11-9.83,2.68-3.25,9.68-1.94,13.39-2.25,7-.59,12.12-2.62,18.27-5.59a13.09,13.09,0,0,1,2.36-.79A23.86,23.86,0,0,1,1297.55,621.62Z" fill="#e1e2e2"/><path d="M1410.08,537.73a105.35,105.35,0,0,0-15.78,16.82s-12.49,12.58-23.29,14.63c0,0-17,1.42-26.55,10.75,0,0-7.13,4.37-18.16,19.38,0,0-11.54,15.13-21.94,18.94l-6.81,3.37s-6.61,11.63,2.92,13l11.68-6.31c21.08-9.51,43.12-18.34,62.4-31.28,4.52-3,8.42-6.87,13-9.8,4-2.57,8.73-3.52,12.73-6a36.58,36.58,0,0,0,5.18-4.51c1.89-1.74,4.37-2.37,6.71-3.28l5.62-1.26Z" fill="#e1e2e2"/><path d="M1356.31,274.28s9.9-1.42,13.53,1.9L1374,284s-7.37,11-13.65,11.6l-7.9-19.36Z" fill="#e1e2e2"/><path d="M1329.52,149.1c.36,0-.43,9.17-.72,10.15-1.39,4.66-3.48,8.56-4.28,13.49a74.65,74.65,0,0,0,0,23c.31,2.09,4,14.12,2.21,15.39,5.94-4.22,13.28-7.89,17.46-14.07,4.52-6.68,9.85-13.65,8.91-22.14-.32-2.86-2-7.27-.87-10,.86-2.06,4.28-3.1,3.94-5.68-.18-1.33-1.49-2.18-2-3.35-.91-2.12-.77-4.53-1.42-6.73l-.7-2.36Z" fill="#e1e2e2"/><path d="M1295.7,257.2s44.67.38,60.14,11.07c.56.39.38,9.35.71,10.9,1.93,8.83,4.74,17.08,4.62,26.22-.24,17.94,11.16,33,15.57,49.85.85,3.24,6.55,36.58,4.59,36.58h-90.24l-11.52-2.88s-15.36-31.68-6.24-83.52C1273.33,305.42,1280.63,275.71,1295.7,257.2Z" fill="#e1e2e2"/><path d="M1280.5,284.11s-8.13-6-7.62-14.83l8.69-6s7,1.58,7.13,4.15Z" fill="#e1e2e2"/><path d="M1331.17,100.58c-.25,1.29,4.57,4.42,5.33,4.93,5.24,3.54,11.62,4.53,17.17,7.41,3.82,2,10.68,6.26,11.1,11.06,0,0-.24,7.68-5.52,8.4-.52.07-4,9.54-4.46,10.43-4.17,7.37-10.93,11.75-19.43,9.4-8.66-2.39-12.89-11.92-15-19.83-.27-1-2.86-2.61-3.43-3.94-2.28-5.3.07-9.49,4.13-12.61C1325.94,112.09,1330,106.7,1331.17,100.58Z" fill="#e1e2e2"/><path d="M1178.33,250.11a13.72,13.72,0,0,1-2-1.09c-2.91-2-4.86-5.24-6.76-8.11-2.5-3.78-3.25-8.48-4.64-12.71a57.23,57.23,0,0,1-2.33-15.34c-.45-9.6.6-20.08,8.23-26.86,2.93-2.6,6.46-2.83,10.16-3.4,0,0,8.64-8.16,20.4-6,9.44,1.73,19,8.61,26.32,14.56,4.41,3.58,7.77,8.59,13.35,10.75,6.28,2.44,13.37,2.9,20,3.28,6.89.39,13.77-1.18,17.86-7.19,5.56-8.15,4.31-15.87-6.22-18.28.54.13,2.31-.87,2.9-1a14.72,14.72,0,0,1,7.37,0c6.87,1.88,10.57,9,12.19,15.37,2.21,8.75-.52,16.71-3.46,24.92-.61,1.69-1.22,3.38-1.69,5.11-.58,2.08-.94,2.7,1.28,2.56,2.8-.18,5.42-3.52,6.8-5.58,0,0,1,18.39-16.56,35.91l7.92-1.44a45.8,45.8,0,0,1-42.24,12.24l3.84,3.12h-5l-46.67-14.4-12.64-3.9C1184,251.78,1181,251.3,1178.33,250.11Z" fill="url(#a02daad6-69a1-41ed-b797-f2b438f59d77)"/><path d="M1181.76,249.72a10.69,10.69,0,0,0-7,10.17c-8.28,0-16.92.15-24.27,3.95-9.3,4.82-14.76,14.56-21.82,22.28-5.66,6.18-12.48,11.18-18.62,16.89-4.79,4.46-9.27,9.5-12.09,15.47-1.22,2.61-2.83,5.45-2.31,8.36.63,3.53,3,6.61,5.12,9.36q11.27,14.37,23.09,28.3l10.95-7.63a227.75,227.75,0,0,1-15.39-29.41,2.76,2.76,0,0,1-.33-1.55c.19-1,1.36-1.44,2.34-1.72a44.06,44.06,0,0,0,25.32-19.77c-2.56,7.06,4.28,13.88,5.67,21.25a26,26,0,0,1-.21,8.7,94.3,94.3,0,0,1-4.33,17.21,188.66,188.66,0,0,1,60.14,11.07c8.32-16.91,16.69-33.94,21.69-52.11l14.06,25.51c1.09,2,2.21,4.07,2.09,6.31-.16,3-2.41,5.36-4.52,7.46l-19.87,19.7,5.3,10.06c13.45-6,27.11-12.12,38.34-21.67,3.42-2.9,6.76-6.43,7.43-10.86a18.67,18.67,0,0,0-.7-7.3c-3.21-12.86-9.94-24.59-13.8-37.28-2.68-8.84-4-18.16-7.92-26.53s-11.4-15.92-20.63-16.47c-3.24-.19-6.53.49-9.72-.09a12.79,12.79,0,0,1-10.07-10.27l-21.84-.08a20.81,20.81,0,0,0-5.41.46C1182.25,249.56,1182,249.63,1181.76,249.72Z" fill="#4aa8b0"/><path d="M1134.88,612.92l-1.84,9.37c-1.35,6.85-2.59,13.22-2.19,20.26.13,2.43-1.08,4.66-2.36,6.63-1.16,1.8-2.58,3.19-2.26,5.56a5.8,5.8,0,0,0,4,5,27.87,27.87,0,0,0,15.47-.22,10,10,0,0,0,5.36-3.69,5.6,5.6,0,0,0,.58-4.59c-.76-2.93-2.2-5.51-2.66-8.59-.89-5.87.4-11.29,2.51-16.75,1-2.55,2.65-5.75.37-8.12a38.33,38.33,0,0,0-3.64-3.89c-.45-.34-2.08-1.73-2.62-1.69Z" fill="url(#e29da837-c94e-4097-bafc-9353b3d88159)"/><path d="M1255,614.36s11.81.09,12.45-3.07c-.09.46,3.27,3.41,3.67,4.09,2.29,3.87,2.31,9.44,3,13.76.6,3.83.63,8.1,1.49,12s3.43,7.51,3.92,11.62c1,8.55-9.54,9.14-15.54,8.37-2.75-.36-7.51-.88-9.35-3.23-2.58-3.32.23-9.87.74-13.56.95-7,.09-12.39-1.45-19a12.14,12.14,0,0,1-.26-2.48A23.62,23.62,0,0,1,1255,614.36Z" fill="url(#b80c3067-2d2d-4d5b-8ebd-f387febb4dc0)"/><path d="M1133.48,483.74l2.4,7.86v15.12l-1.2,9.36c-.85,5.14-3,10.16-4,15.37a151.08,151.08,0,0,0-1.85,15.88c-.76,11.74.57,23,2.14,34.63,1.28,9.45,2.89,18.75,3.78,28.26L1135,616s2.34,6.12,11.34-1.26c.29-.24-1.26-3.64-1.4-4.13-1.69-6,1.31-12.33,3-18,1.31-4.46,2.44-9,3.64-13.51L1154,570c2.51-9.44,4.17-19.15,3.38-29-.45-5.6-1.4-11.09-1.18-16.72.26-6.5,1.83-12.66,3.3-19,.24-1,2.52-19.08,2.52-19.08Z" fill="url(#a182f1e6-29e2-40b1-9a48-08fd55f87e65)"/><path d="M1197.78,486.2a105.36,105.36,0,0,0,13,19.08s9.54,14.94,9.18,25.92c0,0-2.34,16.92,4.68,28.26,0,0,2.7,7.92,14.94,22,0,0,12.24,14.58,13.68,25.56l1.8,7.38s9.9,9,13.32,0l-3.6-12.78c-4.66-22.65-8.46-46.09-16.86-67.74-2-5.07-4.86-9.72-6.73-14.83-1.63-4.48-1.51-9.29-3.09-13.74a36.33,36.33,0,0,0-3.27-6c-1.28-2.23-1.35-4.78-1.73-7.26V486.2Z" fill="url(#b45b617e-4590-441b-a929-cf1937e6ce98)"/><path d="M1208.54,368.66s9.9-1.42,13.53,1.9l4.13,7.84s-7.38,11-13.66,11.6l-7.9-19.36Z" fill="url(#f73fa1a0-c833-4d1a-9bb5-6869da15f2c3)"/><path d="M1181.76,243.48c.35,0-.44,9.17-.73,10.14-1.39,4.66-3.48,8.57-4.28,13.49a74.72,74.72,0,0,0,0,23c.31,2.09,4,14.12,2.21,15.39,5.94-4.22,13.28-7.89,17.46-14.07,4.52-6.68,9.85-13.65,8.91-22.14-.32-2.86-2-7.27-.87-10,.86-2.07,4.28-3.1,3.94-5.69-.18-1.32-1.48-2.17-2-3.34-.92-2.12-.78-4.54-1.43-6.73l-.7-2.36Z" fill="url(#b39ef56e-076c-4f48-9153-47239710e423)"/><path d="M1147.93,351.58s44.68.38,60.14,11.07c.56.39.38,9.35.72,10.9,1.92,8.83,4.73,17.08,4.61,26.22-.23,17.94,11.16,33,15.58,49.85.85,3.25,6.54,36.58,4.58,36.58h-90.24l-11.52-2.88s-15.36-31.68-6.24-83.52C1125.56,399.8,1132.86,370.09,1147.93,351.58Z" fill="#192f35"/><path d="M1132.73,378.49s-8.13-6-7.62-14.83l8.69-6.05s7,1.58,7.13,4.15Z" fill="url(#b92a9a43-8c02-4dff-b31b-024d4b17db40)"/><path d="M1183.4,195c-.25,1.29,4.57,4.41,5.33,4.93,5.24,3.53,11.62,4.53,17.17,7.41,3.83,2,10.68,6.26,11.1,11.06,0,0-.24,7.68-5.52,8.4-.52.07-4,9.54-4.46,10.43-4.16,7.37-10.93,11.75-19.43,9.4-8.66-2.39-12.89-11.92-15-19.83-.27-1-2.86-2.61-3.43-3.94-2.28-5.3.07-9.5,4.13-12.61C1178.17,206.46,1182.22,201.07,1183.4,195Z" fill="url(#ea46759c-be9e-41e4-83e7-a3cadb2dd906)"/><path d="M1763.54,123.64s57.78,53.51,146.34,46.4h45L1944.44,195s-17.28,71.64-62.64,76L1786.58,274Z" fill="url(#f2d805c7-c322-44bc-8e12-194e81d2c009)"/><path d="M1713.89,555.48s2.94,19.44,6.51,17.9c0,0,3.84,27.07,28,25,0,0,21.08-3.58,6.77-30.66l-6.77-13.8-20.31-7.25Z" fill="#e1e2e2"/><polygon points="1482.33 617.62 1609 573.38 1653.46 563.15 1515.12 631.93 1482.33 617.62" fill="#e1e2e2"/><polygon points="1517.42 644.87 1723.77 583.77 1748.38 598.41 1553.25 674.45 1517.42 644.87" fill="#e1e2e2"/><path d="M1542.92,630.57s-14.49,13.28-11.22,15.39c0,0-20.34,18.28-5.18,37.18,0,0,14.73,15.5,29.23-11.48l7.68-13.31-5.31-20.91Z" fill="#e1e2e2"/><path d="M1634.55,544.37,1619.73,557s-24,6.15-10.73,16.36c0,0,20.44,6.63,44.46-10.23,0,0,22.87-2.17,19.42-8.18l2.3-8.68-35.09-5.62Z" fill="#e1e2e2"/><path d="M1476.8,621.33,1462,634s-24,6.15-10.74,16.36c0,0,20.45,6.64,44.46-10.23,0,0,22.87-2.17,19.42-8.17l2.3-8.69-35.09-5.62Z" fill="#e1e2e2"/><path d="M1643.3,257.69h79.79l12.84,64.13v94.54l5.55,15.71,4.22,12.27v40.24l-2.3,41,2.3,18,2.68,10.35-9.2-1.91-8.32,1.91-8.92,3.07-8-1.54-3.45-2.3-5.75-37.94-5.75-34.49-3.1-33v-11.5l-6.1-16.86-5.36-15.33-4.22-22.62L1676,360l-3.63-13-1.9,24.15v21.08l-1.76,13,3.66,17.63,2.09,8,1.54,13-.77,21.46-2.3,31-.38,16.48s2.3,14.18.76,15.33,2.3,12.27,2.3,12.27l-.38,5.75-5.75,2.68-12.26-1.92-11.12-2.68h-11.5l5-9.58-1.15-22.61-11.12-53.28-1.92-16.48-1.91-22.23-3.07-17.63-4.21-27.21V350.44l2.66-28.62,10-50.72,5-15.33Z" fill="url(#a61b2240-a4a9-4206-b0ba-9069a53577d8)"/><polygon points="1651.42 83.02 1648.73 101.51 1644.96 121.25 1643.3 170.69 1644.9 221.28 1643.3 257.69 1686.29 259.03 1686.29 219.94 1688.98 199.82 1692.43 179.89 1695.88 152.49 1697.53 128.91 1697.53 105.34 1697.53 91.55 1697.53 85.99 1694.34 81.58 1651.42 83.02" fill="#e1e2e2"/><path d="M1651.42,83s6.51,17.92,15.71,22.32h4.2s19.37-14,23-23.76V67.1s13.68-13.91,2-16.77h-49.17s-6.89-1.71-2.16,11.32c0,0,1,5,5.27,5.45Z" fill="#e1e2e2"/><path d="M1650.23,64.44c-1.8-8.81-4.32-17.76-5.16-26.71-.65-6.86,1.7-8.54,5.92-13.2A67.17,67.17,0,0,1,1661.68,15c6.62-4.77,15.86-2.07,22.43,1.37,7.36,3.85,13.44,8.54,13.42,17.39a175,175,0,0,1-1.36,17.71c-.23,2.17.31,11.42-1.06,13l-2.84,2.66Z" fill="url(#b4ead616-98ec-400b-b510-1ea0451846f2)"/><path d="M1650.5,52.31l0,.06a21.42,21.42,0,0,0-.23,3.84c0,7.27,0,14.54,0,21.82,0,6.5,5.6,11,11,13.4,4.84,2.14,11.54,4.48,16.91,2.35,12.12-4.83,15-14.93,14.1-26.68-.25-3.11-.78-6.2-1-9.32-.15-2.45-1.4-11,0-12.8,0,0-3.46,4.59-11.12-8-1.47-2.36-17.41-3.55-19.16-1.91-4.36,4-6.35,7.29-8.85,12.77A19.93,19.93,0,0,0,1650.5,52.31Z" fill="url(#e6fa5e65-8083-4f99-8a10-c9356bd52005)"/><path d="M1758.67,292.61v3.79l-7.35,5.37-3.7,2.68-7.29,18.78s-5.17,13.1,5.21,9.49c0,0,23.67,6.86,28.78-9.24l5.08-23.19S1768.32,286.78,1758.67,292.61Z" fill="url(#a6f803b8-25ae-4878-8d78-c9e962ec67c2)"/><path d="M1643.3,276.09V240.83l1.66-34.31-1.66-47.33s3-63.44,6.93-68l-8.09,10c-4.26,5.25-10.85,8-17.09,10-7.59,2.52-11.62,2.86-14.18,11.29a66.28,66.28,0,0,0-2.8,21.59c.26,7.17-2.68,13.87-4.11,20.78-1.82,8.72.07,17.55-.24,26.34-.23,6.83-2.62,13.21-4.74,19.62-2.93,8.89-3.74,18.11-5,27.31l-6.52,44.46s19.16,1.15,19.93,4.6l17.25-34.88-5.77,64.78A22.28,22.28,0,0,0,1643.3,319V277.62" fill="url(#a773ef45-87a8-4f43-bf6e-9fc772d769f7)"/><path d="M1697.53,86.37l3.51,6.52a37.78,37.78,0,0,1,11,4.37c2.49,1.52,4.31,3.66,6.83,4.65,8,3.14,17.67,2.89,26,5.32,4,1.17,8.31,2.14,12,4.29,5,3,5.39,6.75,6.65,12.12,4.76,20.32,9.33,40.53,15.5,60.46a50.28,50.28,0,0,1,1.84,12.37c.13,2.73-.6,5.46-.25,8.16.67,5.13,3.32,9.67,4.13,14.78,4.39,27.83-.17,55.39-3,83.12,0,0-14.57-15.71-25.3-8.81l-5.75-31.05-4.21-19.54-4-20.7v-9.58l1.69,38.32,1.53,30.28,1.92,23,3.06,29.89s-24.14-8.43-34.49-5c0,0-34.11,8.43-30.66-16.48l1.91-57.49-2.16-41,7.15-33.34,3.44-27.6,1.66-31v-36Z" fill="url(#aca765e7-f00c-4b78-818e-589fc130e896)"/><path d="M1667.25,105.51l.25-.17a3.67,3.67,0,0,1,4.3,1,11.36,11.36,0,0,1,2.08,4.24c.73,2.17,1.52,4.43,1.18,6.69a13.12,13.12,0,0,1-2.76,5.56,3,3,0,0,1-.88.9,3.13,3.13,0,0,1-1.49.24l-3.78,0a2,2,0,0,1-1.23-.28,1.9,1.9,0,0,1-.56-1c-1.8-6.06-1.36-9.19,1.25-14.74A5.88,5.88,0,0,1,1667.25,105.51Z" fill="url(#b18ef6c7-a815-43b3-a237-cb1fc6aa8401)"/><path d="M1664.92,123.65s-15,52.4-16.19,82.87c0,0-2.3,33.16,0,40.82l11.5,23.76,11.94-22.61s.67-37.17-.84-62.09l.09-62.66Z" fill="url(#b4e13be4-d7af-43f1-890d-8fdce43d5a0f)"/><path d="M1591,282.89s-12.19,29.35,5.19,36.51c0,0,14.82,3.06,11.75-7.67,0,0,7.67,1,2.56-7.15L1603.93,285Z" fill="url(#e231369d-18cf-46dc-a683-cea33076e894)"/><path d="M1509.2,644.6s2.76,18.25,6.12,16.81c0,0,3.6,25.43,26.28,23.51,0,0,19.8-3.36,6.36-28.8l-6.36-13-19.08-6.81Z" fill="url(#b40ee2e0-e89e-4f35-b5d1-c6868c81a0e6)"/><path d="M1434.68,634.16,1420.76,646s-22.56,5.77-10.08,15.37c0,0,19.2,6.23,41.76-9.61,0,0,21.48-2,18.24-7.68l2.16-8.16-33-5.28Z" fill="url(#e9a24f25-81c1-4755-9369-5b004e0bc760)"/><path d="M1442.9,364.88h74.94l12.06,60.23v88.81l5.22,14.76,4,11.52V578l-2.16,38.52,2.16,16.92,2.52,9.72-8.64-1.8-7.82,1.8-8.38,2.88-7.56-1.44-3.24-2.16-5.4-35.64-5.4-32.4-2.91-31v-10.8l-5.73-15.84-5-14.4-4-21.24-4-20.16-3.4-12.24-1.79,22.68v19.8l-1.65,12.24,3.44,16.56,2,7.56,1.44,12.24-.72,20.16-2.16,29.16-.36,15.48s2.16,13.32.72,14.4,2.16,11.52,2.16,11.52l-.36,5.4-5.4,2.52-11.52-1.8-10.44-2.52h-10.8l4.68-9-1.08-21.24-10.44-50L1426,538.4l-1.8-20.88L1421.36,501l-4-25.56V452l2.5-26.89,9.38-47.63,4.68-14.4Z" fill="#192f35"/><polygon points="1450.52 200.81 1448 218.18 1444.46 236.72 1442.9 283.16 1444.4 330.68 1442.9 364.88 1483.28 366.14 1483.28 329.42 1485.8 310.52 1489.05 291.8 1492.28 266.06 1493.83 243.92 1493.83 221.78 1493.83 208.82 1493.83 203.6 1490.84 199.46 1450.52 200.81" fill="#e1e2e2"/><path d="M1450.52,200.81s6.12,16.83,14.76,21h3.94s18.2-13.14,21.62-22.32v-13.6s12.85-13.07,1.83-15.76h-46.19s-6.46-1.6-2,10.64c0,0,.94,4.66,4.94,5.12Z" fill="url(#af11c6fc-b3fe-471d-a9a8-f1f4919a9ac6)"/><path d="M1449.4,183.36c-1.68-8.27-4.05-16.69-4.84-25.09-.61-6.45,1.59-8,5.56-12.4a62.77,62.77,0,0,1,10-8.94c6.22-4.48,14.9-1.94,21.07,1.28,6.91,3.62,12.62,8,12.6,16.34a162.38,162.38,0,0,1-1.27,16.63c-.22,2,.29,10.73-1,12.18l-2.67,2.5Z" fill="#192f35"/><path d="M1449.66,172l0,.06a19.62,19.62,0,0,0-.22,3.6c0,6.83,0,13.66,0,20.5,0,6.1,5.26,10.31,10.37,12.58,4.54,2,10.83,4.21,15.88,2.2,11.38-4.52,14.12-14,13.24-25-.23-2.92-.73-5.83-.9-8.75-.14-2.31-1.31-10.32,0-12,0,0-3.24,4.31-10.44-7.56-1.38-2.22-16.35-3.33-18-1.8-4.1,3.81-6,6.85-8.31,12A19.17,19.17,0,0,0,1449.66,172Z" fill="url(#fb3c2602-ebd6-4d45-a1ae-6c7925dc4220)"/><path d="M1551.26,397.68v3.56l-6.9,5-3.48,2.52L1534,426.44s-4.86,12.31,4.89,8.91c0,0,22.23,6.45,27-8.67l4.77-21.79S1560.33,392.21,1551.26,397.68Z" fill="url(#bd5e4f84-fc5d-4286-98e0-e3f7c4a26488)"/><path d="M1442.9,382.16V349l1.56-32.22-1.56-44.46s2.82-59.59,6.5-63.84l-7.59,9.36c-4,4.93-10.19,7.47-16,9.41-7.13,2.37-10.92,2.69-13.32,10.6a62.45,62.45,0,0,0-2.64,20.28c.25,6.74-2.52,13-3.86,19.52-1.7,8.19.07,16.49-.22,24.75-.22,6.41-2.46,12.4-4.45,18.42-2.76,8.36-3.51,17-4.75,25.66l-6.12,41.76s18,1.08,18.72,4.32l16.2-32.76-5.42,60.84a20.93,20.93,0,0,0,23,1.8V383.6" fill="url(#e17c73bb-48e4-4933-86b6-0b2876b5df3c)"/><path d="M1493.83,204l3.3,6.12a35.51,35.51,0,0,1,10.37,4.11c2.34,1.42,4,3.44,6.42,4.37,7.48,2.95,16.6,2.71,24.44,5,3.79,1.1,7.8,2,11.23,4,4.74,2.8,5.07,6.34,6.25,11.39,4.47,19.08,8.77,38.07,14.56,56.79a47,47,0,0,1,1.72,11.62c.13,2.56-.56,5.12-.23,7.66.63,4.82,3.12,9.08,3.88,13.89,4.12,26.14-.16,52-2.85,78.07,0,0-13.68-14.76-23.76-8.28l-5.4-29.16-4-18.36-3.75-19.44v-9l1.59,36,1.44,28.44,1.8,21.6,2.88,28.08s-22.68-7.92-32.4-4.68c0,0-32,7.92-28.8-15.48l1.8-54-2-38.52,6.72-31.32,3.23-25.92,1.55-29.16V204Z" fill="url(#aa70912e-b0ce-4c64-a0bd-9ee269fea880)"/><path d="M1465.39,221.93l.24-.15a3.43,3.43,0,0,1,4,.95,10.53,10.53,0,0,1,2,4c.68,2,1.43,4.16,1.11,6.28a12.28,12.28,0,0,1-2.6,5.23,2.06,2.06,0,0,1-2.22,1.06l-3.55,0a1.84,1.84,0,0,1-1.16-.27,1.9,1.9,0,0,1-.53-1c-1.68-5.7-1.27-8.63,1.18-13.85A5.62,5.62,0,0,1,1465.39,221.93Z" fill="#192f35"/><path d="M1463.2,239s-14.12,49.23-15.2,77.85c0,0-2.16,31.14,0,38.34l10.8,22.32L1470,356.24s.63-34.92-.8-58.32l.09-58.86Z" fill="#192f35"/><path d="M1393.81,388.55s-11.45,27.57,4.87,34.29c0,0,13.92,2.88,11-7.2,0,0,7.2,1,2.4-6.72l-6.2-18.35Z" fill="url(#e8ee75b1-a0d6-4874-9582-b66c97fd56b0)"/><path d="M188.65,229.23l-19.16,72.12h-9.15L144.7,242.6,129,301.35h-9.16l-19.16-72.12h9.51l15,56.83,15-56.83h8.9l15,56.83,15-56.83Z" fill="#231f20"/><path d="M243.17,229.23v8.45H204.45v20.06h29.62v8.4H204.45V293h38.72v8.4H195.44V229.23Z" fill="#231f20"/><path d="M250.82,243.21l-2.37-3.57a22.07,22.07,0,0,0,5-4.83,4.67,4.67,0,0,1-3.62-4.58,4.8,4.8,0,0,1,4.68-4.83,4.75,4.75,0,0,1,4.78,4.63C259.32,235,256,239.84,250.82,243.21Z" fill="#231f20"/><path d="M314.39,301.35l-18.61-31.89H277.12v31.89h-9V229.28h32.13c11.07,0,20.32,8.3,20.32,20.16,0,9.21-5.63,16.65-15.09,19.22l19.07,32.69Zm-37.27-40.14H299.3c6.24,0,12.42-4.72,12.42-11.77,0-6.48-5.58-11.76-12.42-11.76H277.12Z" fill="#231f20"/><path d="M379.06,229.23v8.45H340.34v20.06H370v8.4H340.34V293h38.72v8.4H331.34V229.23Z" fill="#231f20"/><path d="M470.09,229.23v72.12h-9V266.14H422.27v35.21h-9V229.23h9v28.46h38.82V229.23Z" fill="#231f20"/><path d="M482.82,229.23h9v72.12h-9Z" fill="#231f20"/><path d="M551.22,301.35l-18.61-31.89H514v31.89h-9V229.28h32.13c11.07,0,20.32,8.3,20.32,20.16,0,9.21-5.63,16.65-15.09,19.22l19.07,32.69ZM514,261.21h22.18c6.23,0,12.42-4.72,12.42-11.77,0-6.48-5.58-11.76-12.42-11.76H514Z" fill="#231f20"/><path d="M568.17,229.23h9v72.12h-9Z" fill="#231f20"/><path d="M650.39,229.28v72.07h-5.28L599.3,245.12v56.23h-9V229.28h5.23l45.77,56.27V229.28Z" fill="#231f20"/><path d="M733,257.74a31.22,31.22,0,0,1,.85,7.55,36.27,36.27,0,0,1-36.56,36.06c-19.72,0-36.52-15.59-36.52-36.06a36.16,36.16,0,0,1,36.52-36.06,37.24,37.24,0,0,1,21.32,6.53l-5.38,6.79a26.72,26.72,0,0,0-15.94-5c-15.09,0-27.26,12.08-27.26,27.77,0,14.93,11.57,27.81,27.26,27.81a26.87,26.87,0,0,0,27-25.15,11,11,0,0,0,.16-1.81H697.27v-8.4Z" fill="#231f20"/><path d="M106.17,406.09c8.2,7.49,17.25,10.51,25,10.51,10.76,0,18.91-5.43,18.91-12.88,0-17.8-48.33-4.12-48.33-30.22,0-13.83,11.46-20.67,25.5-20.72a46.06,46.06,0,0,1,26.5,8.65l-5.18,6.43A37.41,37.41,0,0,0,127.3,361c-9.36,0-16.65,3.78-16.65,11.92,0,18.11,48.28,3.62,48.28,30.78,0,12.28-12.07,21.23-27.61,21.23-9.61-.05-20.52-3.72-30.73-12.63Z" fill="#231f20"/><path d="M224.11,352.83v43.1c0,15.94-11.57,29-28.16,29-15.95,0-28.12-12.63-28.12-29v-43.1h9v42.75c0,10.71,7.29,21,19.16,21,11.21,0,19.11-9.56,19.11-21V352.83Z" fill="#231f20"/><path d="M267.87,352.88c11.11.05,20.36,8.19,20.36,20.16a20,20,0,0,1-20.36,20H244.73V425h-8.95V352.88ZM267,384.81c6.24,0,12.42-4.72,12.42-11.77,0-6.48-5.63-11.76-12.47-11.76H244.73v23.53Z" fill="#231f20"/><path d="M344.31,352.83v8.45H305.59v20.06h29.62v8.4H305.59v26.81h38.72V425H296.58V352.83Z" fill="#231f20"/><path d="M399.18,425l-18.61-31.89H361.91V425h-9V352.88h32.14c11.06,0,20.32,8.3,20.32,20.16,0,9.21-5.64,16.65-15.09,19.22L409.34,425Zm-37.27-40.14h22.18c6.24,0,12.43-4.72,12.43-11.77,0-6.48-5.59-11.76-12.43-11.76H361.91Z" fill="#231f20"/><path d="M476.38,352.83V425h-9V389.74H428.55V425H419.6V352.83h8.95v28.46h38.83V352.83Z" fill="#231f20"/><path d="M536.83,352.83v8.45H498.11v20.06h29.62v8.4H498.11v26.81h38.72V425H489.1V352.83Z" fill="#231f20"/><path d="M591.7,425l-18.61-31.89H554.44V425h-9V352.88h32.14c11.06,0,20.32,8.3,20.32,20.16,0,9.21-5.63,16.65-15.09,19.22L601.86,425Zm-37.26-40.14h22.17c6.24,0,12.43-4.72,12.43-11.77,0-6.48-5.59-11.76-12.43-11.76H554.44Z" fill="#231f20"/><path d="M640.23,352.83c21.63,0,36.57,17,36.57,36.06,0,21.37-17.3,36.06-36.57,36.06a36.08,36.08,0,0,1-36.56-36.06C603.67,367.91,620.77,352.83,640.23,352.83Zm0,63.87c15.6,0,27.21-12.37,27.21-27.81s-11.87-27.76-27.21-27.76c-15.54,0-27.25,12.32-27.25,27.76C613,403.87,624.49,416.7,640.23,416.7Z" fill="#231f20"/><path d="M734.89,352.83v8.45H696.16v20.06h29.62v8.4H696.16v26.81h38.73V425H687.16V352.83Z" fill="#231f20"/><path d="M746.5,406.09c8.2,7.49,17.25,10.51,25,10.51,10.76,0,18.91-5.43,18.91-12.88,0-17.8-48.33-4.12-48.33-30.22,0-13.83,11.46-20.67,25.5-20.72a46.06,46.06,0,0,1,26.5,8.65l-5.18,6.43A37.41,37.41,0,0,0,767.63,361c-9.36,0-16.65,3.78-16.65,11.92,0,18.11,48.28,3.62,48.28,30.78,0,12.28-12.07,21.23-27.61,21.23-9.61-.05-20.52-3.72-30.73-12.63Z" fill="#231f20"/><path d="M142.24,473.56v5.87H123.53V524h-6.29V479.43H98.57v-5.87Z" fill="#231f20"/><path d="M172.22,473.56a25.13,25.13,0,0,1,25.56,25.21c0,14.94-12.09,25.21-25.56,25.21a25.21,25.21,0,0,1-25.55-25.21C146.67,484.11,158.62,473.56,172.22,473.56Zm0,44.65c10.9,0,19-8.65,19-19.44s-8.29-19.41-19-19.41-19.05,8.62-19.05,19.41C153.17,509.25,161.22,518.21,172.22,518.21Z" fill="#231f20"/><path d="M262.58,473.56V524h-6.3V499.37H229.14V524h-6.26V473.56h6.26v19.9h27.14v-19.9Z" fill="#231f20"/><path d="M304.83,473.56v5.91H277.76v14h20.71v5.87H277.76v18.74h27.07V524H271.47V473.56Z" fill="#231f20"/><path d="M317.17,473.56v44.55h27V524H310.88V473.56Z" fill="#231f20"/><path d="M372.44,473.6c7.77,0,14.24,5.73,14.24,14.1a14,14,0,0,1-14.24,14H356.27V524H350V473.6Zm-.63,22.32c4.36,0,8.68-3.3,8.68-8.22a8.51,8.51,0,0,0-8.72-8.23h-15.5v16.45Z" fill="#231f20"/><path d="M437.48,497.4c5.38,1.76,9.56,6.29,9.56,12.48a13.88,13.88,0,0,1-14.2,14.1H410.37V473.6h17.79a13.89,13.89,0,0,1,14.17,14.1A12.45,12.45,0,0,1,437.48,497.4Zm-20.81-18.07v16.56H428.2a8.28,8.28,0,1,0-.35-16.56Zm15.5,38.88a8.44,8.44,0,1,0,0-16.87h-15.5v16.87Z" fill="#231f20"/><path d="M490.63,473.56v30.13c0,11.15-8.08,20.29-19.68,20.29-11.15,0-19.66-8.83-19.66-20.29V473.56h6.3v29.89c0,7.48,5.1,14.66,13.39,14.66,7.84,0,13.36-6.68,13.36-14.66V473.56Z" fill="#231f20"/><path d="M498.83,473.56h6.29V524h-6.29Z" fill="#231f20"/><path d="M520.62,473.56v44.55h27V524H514.33V473.56Z" fill="#231f20"/><path d="M594.38,473.56v5.87h-18.7V524h-6.3V479.43H550.72v-5.87Z" fill="#231f20"/><path d="M659.21,473.56v5.87h-18.7V524h-6.3V479.43H615.54v-5.87Z" fill="#231f20"/><path d="M705,473.56V524h-6.29V499.37H671.55V524h-6.26V473.56h6.26v19.9h27.14v-19.9Z" fill="#231f20"/><path d="M747.24,473.56v5.91H720.17v14h20.71v5.87H720.17v18.74h27.07V524H713.88V473.56Z" fill="#231f20"/><path d="M804.54,473.56v5.91H777.47v14h20.68v5.87H777.47V524h-6.29V473.56Z" fill="#231f20"/><path d="M849,473.56v30.13c0,11.15-8.08,20.29-19.69,20.29-11.14,0-19.65-8.83-19.65-20.29V473.56h6.3v29.89c0,7.48,5.09,14.66,13.39,14.66,7.84,0,13.36-6.68,13.36-14.66V473.56Z" fill="#231f20"/><path d="M898.06,473.56v5.87h-18.7V524h-6.3V479.43H854.4v-5.87Z" fill="#231f20"/><path d="M942.74,473.56v30.13c0,11.15-8.08,20.29-19.68,20.29-11.15,0-19.66-8.83-19.66-20.29V473.56h6.3v29.89c0,7.48,5.09,14.66,13.39,14.66,7.84,0,13.36-6.68,13.36-14.66V473.56Z" fill="#231f20"/><path d="M983.21,524l-13-22.29h-13V524h-6.29V473.6h22.46a13.9,13.9,0,0,1,14.2,14.1c0,6.43-3.93,11.63-10.54,13.43L990.31,524Zm-26.05-28.06h15.5c4.36,0,8.69-3.3,8.69-8.22a8.49,8.49,0,0,0-8.69-8.23h-15.5Z" fill="#231f20"/><path d="M1028.42,473.56v5.91h-27.07v14h20.71v5.87h-20.71v18.74h27.07V524H995.06V473.56Z" fill="#231f20"/></svg>