<svg id="Layer_1" data-name="Layer 1" xmlns="http://www.w3.org/2000/svg" viewBox="0 0 1980 729.22"><defs><style>.cls-1{fill:#fff3eb;}.cls-2{fill:#fad8c1;}.cls-3{fill:#163560;}.cls-4{fill:#233862;}.cls-5{fill:#2b478b;}.cls-6{fill:#ffb27d;}.cls-7{fill:#ed975d;}.cls-8{fill:#c65447;}.cls-9{fill:#a33d31;}.cls-10{fill:#fff;}.cls-11{fill:#2a4e96;}.cls-12{fill:#aec3ff;}.cls-13{fill:#e2915a;}.cls-14{fill:#ed7d2b;}.cls-15{fill:#db6516;}.cls-16{fill:#9db0f4;}.cls-17{fill:#ad4a3e;}.cls-18{fill:#cc5c50;}.cls-19{fill:#964036;}</style></defs><path class="cls-1" d="M0,731.22C786.49,581.33,1941.38,586.77,1980,587V275.37C1887.94,158.61,1734,53.33,1652.26,2H1609.4C1816.26,632.32,527,620,0,589.61Z" transform="translate(0 -2)"/><path class="cls-2" d="M1682.23,152.28c-10.74-28-30-43.77-52.73-43.25-24,.58-44.79,17.32-61,48.87l6.31-59.34-284.3-3h0L1234.15,95l5,63.81c-16.13-34.68-37.4-53.37-62.51-54.51-22.77-1-42.18,14.33-53.29,42.13-14.6,36.56-10.61,83.67,9.93,117.23,18.52,30.25,44,40.66,68.74,50.73,21,8.55,41.13,16.78,56.68,37.1,18.5,63.1,59.68,109.11,104.63,127.21,12.81,5.16,22,21.66,23.76,41.23l-17.8-.19c-7.62-.08-13.9,7.81-14,17.53s6.12,17.74,13.73,17.82l14.08.15-.26,41.12c-.07,10.6-6.86,19.14-15.17,19.06-9.44-.1-18,4.69-24.24,12.51s-10.12,18.69-10.2,30.72l43.07.45h0l85.42.9c.08-12-3.67-23-9.8-30.93s-14.64-12.92-24.07-13a13.73,13.73,0,0,1-10.61-5.74,22.23,22.23,0,0,1-4.32-13.64l.27-41.11,11.93.12c7.61.08,13.9-7.81,14-17.53s-6.12-17.74-13.73-17.82l-15.93-.17c1-19.25,10.12-35.45,22.64-39.86,15.94-5.62,31.7-14.73,46.36-26.88h0c27.56-22.83,51.18-56.41,64.74-97.63,16-20.95,36.64-28.92,58.16-37.2,24.81-9.55,50.48-19.42,69.38-49.28C1691.76,236.15,1696.36,189.13,1682.23,152.28ZM1207.78,291.47c-23-9.37-44.68-18.22-59.63-42.63-15.87-25.93-19.15-63.56-8-91.51,4.49-11.24,15.11-30,35.84-29,60,2.71,72.29,146.15,72.45,148.12v0a270.23,270.23,0,0,0,2.3,37.13C1236.86,303.33,1221.91,297.23,1207.78,291.47Zm448.36-37.3c-15.25,24.09-37.07,32.49-60.17,41.37-14.26,5.49-29.35,11.3-43.43,21.33a254.88,254.88,0,0,0,3-37.21h0c0-.05,0-.31.07-.71l.07-.59c1.55-14.35,17.15-143.92,74.21-145.3,20.74-.51,31.12,18.45,35.47,29.78C1676.12,191,1672.35,228.58,1656.14,254.17Z" transform="translate(0 -2)"/><path class="cls-3" d="M1289.06,252.9s-7.83,12.91,6.89,21c0,0-11.32,4.08-15.26,2.54a8.62,8.62,0,0,0,1.72,1.38s-10.64,3.38-15.94,1.54-16.72-53.35,14.68-56.07c0,0,24.77-8.87,30,18.77s14.78,25,14.78,25a15,15,0,0,1-3.6,2.31s-2-.13-2.69-1a6.24,6.24,0,0,0,1.4,1.74s-10,3.79-16.19,1.65S1289.16,258.88,1289.06,252.9Z" transform="translate(0 -2)"/><path class="cls-4" d="M1320.58,659.53h-40.06s-1-6.11,1.14-10.74c2-4.45,5.12-7.19,5.4-10.59,2.55,2.62,5.68,4.3,11.47,3.52.71,1.15,4.58,7.31,7,9C1308.1,652.61,1319.77,651.94,1320.58,659.53Z" transform="translate(0 -2)"/><path class="cls-5" d="M1287.48,644.23a36.82,36.82,0,0,0,7,1.42c6.31.56,7.23-1.32,7.23-1.32s6.27-55.81,26.57-162.51a296.66,296.66,0,0,0,5.14-37.63c.32-4.1.63-8.66,1-14,.92-14.37-1.27-38.58-12.06-44.94-4.9-2.89-11.59-2.1-20.58,5-.7.56-1.43,1.16-2.16,1.79-26.3,22.76-15.52,88.09-16.58,118.81-.18,5.09-.69,9.23-1.74,12.07-1.35,3.67-4.27,8.76-4.93,13.55C1270.8,576.27,1287.48,644.23,1287.48,644.23Z" transform="translate(0 -2)"/><path class="cls-4" d="M1283,510.81l50.41-66.62c.32-4.1.63-8.66,1-14,.92-14.37-1.27-38.58-12.06-44.94l-20.58,5c-.7.56-1.43,1.16-2.16,1.79C1273.27,414.76,1284.05,480.09,1283,510.81Z" transform="translate(0 -2)"/><path class="cls-4" d="M1140.48,575.22l16.67-36.42s5.95,1.66,9.29,5.49,5.53,3,12.83-2c-2.75,4.24-3.12,6.75-4.82,12.34-1.34.16-9,7.55-16.8,9.59C1154.53,565,1147.71,577.64,1140.48,575.22Z" transform="translate(0 -2)"/><path class="cls-5" d="M1315.28,401.22s-35.9,124.79-49,132.82-82.3,19.08-96.36,25.1c0,0-1.71-2.45-.71-7.7a45.63,45.63,0,0,1,2.21-5.35s42.94-32.28,71.21-35.54c7-.81-14.29-107.92,33.11-112.2C1319,394.44,1315.28,401.22,1315.28,401.22Z" transform="translate(0 -2)"/><path class="cls-6" d="M1392.4,208s1.11-4.78,1.65-8.58c.23-1.68,7.71-10,10.36-10.24s5.18,8.81,1.34,13.13c-2,2.22-7.11,10-7.11,10Z" transform="translate(0 -2)"/><path class="cls-6" d="M1392.4,208s0-3.06-.84-4-.07-5.54-.09-7.53c0,0,1.23-.75,1.89,1.22.4,1.21,1,4.48,1,4.48Z" transform="translate(0 -2)"/><path class="cls-6" d="M1202.16,212.42c-.24.51-.59,1.42-.89,2.27,0-.23,0-.46,0-.69,0-1.69-6.35-10.92-9-11.5s-6.28,8.07-3,12.85c1.67,2.45,7.3,12.14,7.3,12.14l5.2-4.77s.39-3,1.35-3.81.79-5.48,1.06-7.46C1204.19,211.45,1203.07,210.55,1202.16,212.42Z" transform="translate(0 -2)"/><path class="cls-6" d="M1308.1,285.94c.08,0-7.21,5.31-13.4,4.57-5.83-.7-10.56-7.41-10.49-7.44,2.3-.82,2.5-4.18.37-18.16l1.1,0,18.55.89s.43,5.73,1.21,11.07C1306.1,281.4,1307,285.62,1308.1,285.94Z" transform="translate(0 -2)"/><path class="cls-7" d="M1304.23,265.85s.43,5.73,1.21,11.07c-10.12,1.21-16.82-7.19-19.76-12Z" transform="translate(0 -2)"/><path class="cls-3" d="M1283.53,263.28s-6.52-7.56-8.85-14.51c-1.66-5-1.88-24.23,17.5-24.34a26.14,26.14,0,0,1,11.3,2.46c4.53,2.17,11.37,7.29,7.17,24.76l-.89,5.82Z" transform="translate(0 -2)"/><path class="cls-6" d="M1331.36,396.41s-18.19,11.48-48.49,4.11c-.35-.09-17.22-2.78-17.22-2.78.42-1.16,18.15-30.44,18.56-31.5,5.38-13.87-7.07-80.09,1.14-83.8,2.09,2.28,8.08,3.84,13.21,3.39,5.9-.52,7.88-3.07,7.39-5.82,6.53,3.09,11.55,6,11.55,6C1323.47,294.92,1331.36,396.41,1331.36,396.41Z" transform="translate(0 -2)"/><path class="cls-6" d="M1308.34,270.4s-23.78,3.94-26-10.91-6.8-24.34,8.3-27.49,18.9,2.08,20.85,6.86S1314.47,269,1308.34,270.4Z" transform="translate(0 -2)"/><path class="cls-3" d="M1301.43,230s-3.93,18.4-13.57,22.47-14.38,2-14.38,2a54.13,54.13,0,0,0,4-19.88S1295.28,222.46,1301.43,230Z" transform="translate(0 -2)"/><path class="cls-3" d="M1300,231.68s5.45,3.16,7.2,6.77,3.45,11.31,5.68,10.71c0,0,3.16-12.58-3.37-18.45C1302.62,224.47,1300,231.68,1300,231.68Z" transform="translate(0 -2)"/><path class="cls-8" d="M1195.54,226.46s15.34,46.63,19.42,53.84c2.46,4.35,30.1,21.56,46.14,32.9a2.84,2.84,0,0,1,.61.74l0,0c4,6.19,16.44,44.51,13.47,51.38-12.51,28.91-21.08,40.09-24.2,48.2a7.7,7.7,0,0,0,4.61,10,132.83,132.83,0,0,0,21.64,5.66c1.71.29,3.46.56,5.25.78,24.66,3.13,41.35-2.65,49.82-6.93a11.28,11.28,0,0,0,6.18-10.71c-.51-9.14-5.08-18.19-7.15-40.19-1.56-16.68,12.84-42.08,12.23-51-.24-3.51-3-7.71-4.5-10.44h0c-2.65-4.82-4.1-9.18-2.34-11.6,11.73-16.1,26.46-24.42,36.59-37.91s27.11-49.49,27.11-49.49c-1.55-2.51-5.89-4.36-9.2-5.67,0,0-19.15,26.27-34,43.81-7.3,6.1-29.43,25.74-36.93,27.12-8.35,1.53-12.85,1.95-14.36,3a73.18,73.18,0,0,1,7.72,25.75c1.08,10.35-5.84,5.75-10.18-1.33-5.88-9.6-17.71-23.26-17.71-23.26s-9.62-2.5-16.79.1-44.28-18.36-45.47-20.29-21.07-39-21.07-39-1.64-1-4.28.42A4.82,4.82,0,0,0,1195.54,226.46Z" transform="translate(0 -2)"/><path class="cls-9" d="M1366.41,267.26c-10.36,9.78-26.09,22.16-30.51,26.71s-1.56,9.36,1.83,14.16h0c-1.73-3.73-2.42-7-1-8.95,11.73-16.1,26.46-24.42,36.59-37.91,1.42-1.88,3-4.2,4.57-6.79A164.19,164.19,0,0,1,1366.41,267.26Z" transform="translate(0 -2)"/><path class="cls-10" d="M1301.43,262.34s1,2.05,2.39,2.09,4.85-.29,5.08-.65a19.16,19.16,0,0,0,.82-2.5S1304,261.05,1301.43,262.34Z" transform="translate(0 -2)"/><path class="cls-9" d="M1255.61,423.57a132.83,132.83,0,0,0,21.64,5.66c8.51-11.73,22.9-26.48,19.2-53.62C1292.62,347.55,1265,318,1261.73,314c4,6.19,16.44,44.51,13.47,51.38-12.51,28.91-21.08,40.09-24.2,48.2A7.7,7.7,0,0,0,1255.61,423.57Z" transform="translate(0 -2)"/><path class="cls-4" d="M1486,643.4s1.26,14.61-1.83,16.13l-39.5-.09s0-4.55,6.34-5.57,17.49-4.73,19.38-13S1486,643.4,1486,643.4Z" transform="translate(0 -2)"/><path class="cls-4" d="M1599.36,637.75s1.19,20.26-1.9,21.78l-39.5-.09s0-4.55,6.35-5.57,17.49-4.73,19.37-13S1599.36,637.75,1599.36,637.75Z" transform="translate(0 -2)"/><path class="cls-11" d="M1600.71,640.24s-7.85,4-11.2,4.78c-3.73.82-10.74.3-10.74.3-13.43-36-55.1-182.44-55.1-182.44-1.81,40.49-9.12,80.87-16.71,113.32-.2.87-.41,1.74-.61,2.59v0c-.18.78-.37,1.55-.55,2.32l0,.1c-9.21,38.3-18.45,64.39-18.45,64.39s-2.39,3-9,1.64c-7.62-1.58-10.16-4.93-10.16-4.93,4.93-156,7.68-244,7.68-244s66-35.62,83.87-5.17S1600.71,640.24,1600.71,640.24Z" transform="translate(0 -2)"/><path class="cls-12" d="M1574.13,414.21c-8.55-30.57-10-59.59-9.89-83.62.09-34.2,3.17-58.29-7.13-62.35,0,0-31.8-9.25-53.69-13.32a106.4,106.4,0,0,0-10.29-5.12c-6.91-2.81-33.86-42-38.42-51.35s-12.13-50.24-12.13-50.24l-10.5,3.35s-3.16,45.86-1.65,57.82,34.88,63.35,37.65,67.85h0c11.88,43.41,0,114.06,5.43,129.81,2.79,8.11,54.57,22.95,82.91,21.08,1.41-.09,2.77-.22,4.06-.4h0c6.7-.93,11.58-3.07,13.37-6.83A9.29,9.29,0,0,0,1574.13,414.21Z" transform="translate(0 -2)"/><path class="cls-6" d="M1442.58,148.21s5.93-17.24,1.59-17.74-15.23-.44-16.57,2.47,4.48,18.62,4.48,18.62Z" transform="translate(0 -2)"/><path class="cls-6" d="M1427.6,132.94s-.56,5.93,1.34,7.05,2.58-7.05,2.58-7.05.11,6.7,1.56,7.16,2.36-7.72,2.36-7.72.15,6.49,1.14,6.27,1.65-6.27,1.65-6.27.45,4.71,1.8,3.87,2.62-5.91,2.62-5.91Z" transform="translate(0 -2)"/><path class="cls-6" d="M1512.91,250.23l-.51,2.65S1510,261,1520,264.25s18.36,4.73,19.35-1.72c.06-5.13-.07-13.14.68-17.25a29.19,29.19,0,0,1,1.34-4.89l-19.69-4.31-6-.2Z" transform="translate(0 -2)"/><path class="cls-13" d="M1515.67,235.88l-1.84,9.67c18.71,5,26.9-3.39,27.54-5.16l-19.69-4.31Z" transform="translate(0 -2)"/><path class="cls-6" d="M1544.26,236.38c-5.81,11.79-21.75,6.88-28.46,4.15-1.9-.77-3-1.36-3-1.36-2-1.21-2.3-5-1.59-9.72,1.39-9.31,6.52-22.1,9-25,3.71-4.44,9.55-8.72,24.61-.22S1551.7,221.27,1544.26,236.38Z" transform="translate(0 -2)"/><path class="cls-4" d="M1518.51,191.16a55.63,55.63,0,0,0,16.69.16c7.64-1,15.32,4.62,17.7,6.87a4.39,4.39,0,0,0-.21-1.87,3.92,3.92,0,0,1,.84,2.54c.1.13.14.21.1.22a5,5,0,0,1,2.29.81s-.61-.27-1,.08a.41.41,0,0,1-.13.08c9.19,8.12,5.45,25.19.94,28.11-5.42,3.52-14.74,13.22-14.74,13.22a24.09,24.09,0,0,1,2.23-7.45c1.9-3.9-1.65-4.9-5.61-8s1.24-7.32-1.79-11.6-18-6.45-17.09-8.83C1514,202,1518.35,191.71,1518.51,191.16Z" transform="translate(0 -2)"/><path class="cls-10" d="M1520.9,232s-1,1.46-4.85-.26c0,0-3.27-1.45-2.51-3.17A11.44,11.44,0,0,1,1520.9,232Z" transform="translate(0 -2)"/><path class="cls-14" d="M1516.53,271.9s-9,59.6-76.17,101l-6.27,18.22h24.25s60.17-50.46,64.21-117.5Z" transform="translate(0 -2)"/><polygon class="cls-15" points="1516.53 269.9 1516.53 260.86 1527.6 264 1522.55 271.61 1516.53 269.9"/><path class="cls-16" d="M1512.91,250.23l-6.48,5.54A25.43,25.43,0,0,0,1509,271.9l13.06-7.47S1514.35,260.7,1512.91,250.23Z" transform="translate(0 -2)"/><path class="cls-16" d="M1522.06,264.43s1.3,7,4.7,10.49c0,0,14.72-2.58,18.8-9.63l-6.16-9.63S1537.93,262.23,1522.06,264.43Z" transform="translate(0 -2)"/><path class="cls-12" d="M1556.9,268.24s12.94,3.52,21.71,22.82c9.2,20.23,33.41,65.25,34.72,71.38s-.47,54-2,56.91c0,0-9.14,3.83-12.47-1.28,0,0-5-47.05-6.61-49.81s-44-53.31-40.47-66.13S1556.9,268.24,1556.9,268.24Z" transform="translate(0 -2)"/><path class="cls-16" d="M1573.86,420.88a35.14,35.14,0,0,1-13.37,6.83h0a10.72,10.72,0,0,1-4.06.4c-23.68-2.44-20-94.45-8.57-101.25,12.1-7.16,16.39,3.72,16.39,3.72-.06,24,1.34,53.05,9.89,83.62A9.29,9.29,0,0,1,1573.86,420.88Z" transform="translate(0 -2)"/><path class="cls-4" d="M1505.8,581.13c.15-.72.34-1.49.55-2.32C1506.17,579.59,1506,580.36,1505.8,581.13Z" transform="translate(0 -2)"/><path class="cls-4" d="M1507,576.2c7.25-34.29-.56-126.21,2.92-128s13.79,14.63,13.79,14.63C1521.86,503.37,1514.55,543.75,1507,576.2Z" transform="translate(0 -2)"/><path class="cls-17" d="M1447.5,129.38c2.85-6.93-.7-14.3,3.76-14.67s5.82,8.82,5.71,19-6.25,16.88-10.07,18.07-16.86,3.41-21.63,3-7.56-21.08-7.56-21.08C1419.34,126.32,1447.5,129.38,1447.5,129.38Z" transform="translate(0 -2)"/><path class="cls-18" d="M1436.73,110.17c-28.54,5.54-24,11.47-22,23.78,1.64,9.92,9.1,6,23.61,3.83s11.66-9.52,9.88-18.22S1442.51,109,1436.73,110.17Z" transform="translate(0 -2)"/><path class="cls-19" d="M1433.41,151.37c-8.14,1.22-8.14,3.35-8.14,3.35,2.93,4.45,1.55,12.91,3,13.24a47.26,47.26,0,0,0,20.79-2.35c1.28-1.09-.21-4.73-.39-8.35-.23-4.35,1.29-5.43.47-6.71C1445.77,148.76,1437.43,150.76,1433.41,151.37Z" transform="translate(0 -2)"/><path class="cls-17" d="M1617.57,447.51c3.45,6,1,13.25,5.19,13.06s4.32-8.8,3-18.11-7.74-14.8-11.39-15.44-15.91-1.15-20.25-.2-4.47,20.29-4.47,20.29C1592,453.65,1617.57,447.51,1617.57,447.51Z" transform="translate(0 -2)"/><path class="cls-18" d="M1609.93,466.46c-26.91-1.74-23.45-7.73-23-19.29.33-9.32,7.66-6.61,21.27-6.3s11.84,7.38,11.24,15.6S1615.39,466.81,1609.93,466.46Z" transform="translate(0 -2)"/><path class="cls-19" d="M1602,429c-7.63-.17-7.88-2.13-7.88-2.13,2.17-4.44-.1-12.06,1.21-12.53a43.52,43.52,0,0,1,19.4-.29c1.31.85.37,4.37.62,7.72.31,4,1.84,4.85,1.23,6.12C1613.7,429.89,1605.79,429,1602,429Z" transform="translate(0 -2)"/></svg>