<svg id="Layer_1" data-name="Layer 1" xmlns="http://www.w3.org/2000/svg" viewBox="0 0 880 700"><defs><style>.cls-1{fill:#ebebeb;}.cls-2{fill:#e0e0e0;}.cls-3{fill:#f5f5f5;}.cls-4{fill:#263238;}.cls-5{fill:#455b64;}.cls-6{fill:#4ea8b0;}.cls-7{fill:#231f20;}.cls-8,.cls-9{opacity:0.4;}.cls-10{fill:#fbbd9d;}.cls-11{fill:#ec996f;}.cls-12{fill:#e7515b;}.cls-13{opacity:0.5;}.cls-14{fill:#f3aa25;}.cls-15{opacity:0.2;}.cls-16{fill:#fff;}.cls-17{fill:#f0b943;}.cls-18{fill:#dd4d65;}.cls-19{opacity:0.3;}.cls-20{opacity:0.1;}.cls-21{fill:#db4d65;}.cls-22{opacity:0.6;}.cls-23{opacity:0.7;}</style></defs><path class="cls-1" d="M316.84,87.72,309.66,75.2,298.4,76.85l-9.29-11.67,4.79-11.63-12.55-8.33L272,54.67l-12.33-2.16-5-14.51-15,1.58-.85,12.69L227.63,58,215.8,49.58l-12,8.73L210,71.75,202.9,82.5l-13-.69-3.39,16,12.35,4.75L200,116l-12.8,7.35,6.12,13.87,13.24-2.06,8.77,10.13-4.58,12.62,12.13,8.56,9.46-10.24,13.14,3.55,4.08,13.56,14.6-1L266,160.18,278.51,153l10.24,8.18,12.95-9.66-6.55-11.4,6.38-11.43,13.13,1,4-14.89-11.27-6.1-1.5-13.56ZM266,131.52a29.51,29.51,0,1,1,10.9-40.28A29.5,29.5,0,0,1,266,131.52Z"/><path class="cls-1" d="M264.37,97.35a31.9,31.9,0,0,0-2.42-3,15.52,15.52,0,0,0-9.13-4.46,15.15,15.15,0,0,0-7,.76,15.34,15.34,0,0,0-6.62,4.59,15.42,15.42,0,0,0-3.48,8.14,15.2,15.2,0,0,0,9,15.63,15.22,15.22,0,0,0,8.79,1.09A15.27,15.27,0,0,0,265,111.08a15.61,15.61,0,0,0,.75-10.14,34.85,34.85,0,0,0-1.34-3.59,12.21,12.21,0,0,1,1.61,3.51,15.51,15.51,0,0,1-.53,10.42,15.79,15.79,0,0,1-11.86,9.54A15.23,15.23,0,0,1,249,121a15,15,0,0,1-4.62-1.25,15.85,15.85,0,0,1-9.4-16.37,14.84,14.84,0,0,1,1.25-4.61,15.29,15.29,0,0,1,2.43-3.89,15.89,15.89,0,0,1,6.93-4.73,15.76,15.76,0,0,1,16.56,4.08A12.31,12.31,0,0,1,264.37,97.35Z"/><path class="cls-1" d="M278.41,64.5c.17.11-3.83,6.49-8.94,14.25s-9.39,14-9.56,13.85,3.83-6.49,8.94-14.26S278.24,64.38,278.41,64.5Z"/><path class="cls-1" d="M292.9,116.13a27,27,0,0,1-4-1.11c-2.44-.73-5.81-1.71-9.57-2.63s-7.21-1.6-9.71-2.07a27.29,27.29,0,0,1-4-.85,20.66,20.66,0,0,1,4.12.33,98.52,98.52,0,0,1,9.8,1.87,96.43,96.43,0,0,1,9.56,2.86A19.48,19.48,0,0,1,292.9,116.13Z"/><path class="cls-1" d="M257.43,119.54a16.69,16.69,0,0,1,1.28,3.45c.68,2.17,1.52,5.19,2.3,8.56s1.36,6.46,1.7,8.7a16.37,16.37,0,0,1,.38,3.66,20.58,20.58,0,0,1-.89-3.56c-.48-2.22-1.13-5.27-1.91-8.63s-1.54-6.39-2.09-8.58A20.57,20.57,0,0,1,257.43,119.54Z"/><path class="cls-1" d="M241.5,117.74c.17.1-2.45,4.77-5.86,10.42s-6.31,10.15-6.49,10,2.45-4.77,5.86-10.42S241.32,117.63,241.5,117.74Z"/><path class="cls-1" d="M239.24,67.44c.19-.06,1.88,4.85,3.76,11s3.25,11.12,3.06,11.18-1.88-4.85-3.77-11S239,67.5,239.24,67.44Z"/><path class="cls-1" d="M235.9,102.17c0,.21-4.15,0-9.22-.51s-9.17-1-9.15-1.24,4.15,0,9.22.51S235.91,102,235.9,102.17Z"/><path class="cls-1" d="M261.39,99.07a12.16,12.16,0,1,1-16.61-4.5A12.16,12.16,0,0,1,261.39,99.07Z"/><path class="cls-2" d="M256.72,105.22c-.12.19-2.43-1.94-6-2.31s-6.31,1.18-6.39,1,.55-.57,1.7-1.05a10,10,0,0,1,9.3,1C256.31,104.54,256.78,105.15,256.72,105.22Z"/><path class="cls-2" d="M251.84,98.09c.2.11-1.27,2.42-1.83,5.66s0,5.9-.25,5.94-1.11-2.66-.48-6.07S251.71,98,251.84,98.09Z"/><path class="cls-2" d="M476.22,341.13l-9.3-16.19-14.56,2.14-12-15.11,6.2-15L430.3,286.16l-12.12,12.22-16-2.8-6.47-18.77-19.4,2.05-1.1,16.42-14.46,7.34-15.3-10.83L330,303.09,338,320.47l-9.24,13.92-16.78-.9-4.38,20.7,16,6.15L325,377.73l-16.55,9.5,7.91,17.95,17.13-2.66,11.35,13.1L338.88,432,354.58,443l12.25-13.25,17,4.6,5.29,17.54L408,450.64l2.44-15.75,16.2-9.3,13.24,10.58,16.76-12.49-8.47-14.76,8.25-14.79,17,1.26,5.21-19.26L464,368.23l-1.94-17.55Zm-65.79,56.68a38.18,38.18,0,1,1,14.1-52.12A38.18,38.18,0,0,1,410.43,397.81Z"/><path class="cls-2" d="M408.33,353.6a35.55,35.55,0,0,0-3.1-3.86,20.16,20.16,0,0,0-11.84-5.82,19.81,19.81,0,0,0-17.71,6.94,19.95,19.95,0,0,0-4.54,10.58,19.78,19.78,0,0,0,11.67,20.33,19.89,19.89,0,0,0,11.43,1.42,20,20,0,0,0,15.86-25,34.8,34.8,0,0,0-1.77-4.63,1.07,1.07,0,0,1,.18.28c.13.23.29.5.47.84a8.64,8.64,0,0,1,.68,1.42,15.29,15.29,0,0,1,.72,2,19.12,19.12,0,0,1,.82,5.82,20.39,20.39,0,0,1-7.07,15.26,20.46,20.46,0,0,1-9.77,4.63,20.5,20.5,0,0,1-11.84-1.43,20.4,20.4,0,0,1-12.1-21.07,19.42,19.42,0,0,1,1.61-5.94,19.11,19.11,0,0,1,3.13-5,20.56,20.56,0,0,1,8.92-6.11,20.46,20.46,0,0,1,16.75,1.59,19.21,19.21,0,0,1,4.6,3.64,13.24,13.24,0,0,1,1.38,1.65,8.66,8.66,0,0,1,.89,1.29l.49.83A1,1,0,0,1,408.33,353.6Z"/><path class="cls-2" d="M426.5,311.09c.17.11-5.05,8.34-11.66,18.38s-12.11,18.09-12.28,18,5.05-8.34,11.66-18.38S426.32,311,426.5,311.09Z"/><path class="cls-2" d="M445.25,377.9a50.16,50.16,0,0,1-5.12-1.51c-3.15-1-7.51-2.25-12.38-3.44s-9.34-2.06-12.58-2.65a46.92,46.92,0,0,1-5.24-1,5.47,5.47,0,0,1,1.44.05c.92.08,2.25.23,3.88.46,3.27.45,7.77,1.25,12.67,2.44s9.26,2.56,12.37,3.67c1.56.55,2.81,1,3.66,1.38A5.44,5.44,0,0,1,445.25,377.9Z"/><path class="cls-2" d="M399.36,382.31a28.71,28.71,0,0,1,1.57,4.49c.86,2.8,1.94,6.71,2.95,11.08s1.77,8.34,2.23,11.24a28.2,28.2,0,0,1,.57,4.72,33.17,33.17,0,0,1-1.08-4.62c-.6-2.87-1.43-6.83-2.44-11.18s-2-8.26-2.73-11.1A31.61,31.61,0,0,1,399.36,382.31Z"/><path class="cls-2" d="M378.74,380c.17.1-3.26,6.12-7.67,13.43s-8.13,13.15-8.3,13,3.25-6.12,7.67-13.43S378.56,379.87,378.74,380Z"/><path class="cls-2" d="M375.81,314.9c.2-.06,2.33,6.31,4.77,14.22s4.26,14.38,4.06,14.44-2.33-6.31-4.77-14.22S375.61,315,375.81,314.9Z"/><path class="cls-2" d="M371.49,359.84c0,.2-5.36-.14-11.92-.77s-11.86-1.3-11.84-1.5,5.35.14,11.91.76S371.51,359.63,371.49,359.84Z"/><circle class="cls-2" cx="390.83" cy="363.66" r="15.74" transform="translate(-32.12 689.4) rotate(-80.54)"/><path class="cls-1" d="M398.43,363.78a22.4,22.4,0,0,1-2.16-1.29,15.21,15.21,0,0,0-5.63-1.81,15,15,0,0,0-5.9.57c-1.47.44-2.33.89-2.38.79a5.28,5.28,0,0,1,2.21-1.29,13.07,13.07,0,0,1,12,1.3C397.87,362.94,398.49,363.72,398.43,363.78Z"/><path class="cls-1" d="M392.12,354.55c.21.12-1.75,3.09-2.48,7.31s0,7.67-.22,7.71-1.32-3.45-.51-7.85S392,354.42,392.12,354.55Z"/><path class="cls-3" d="M481.66,67.29,477,59.13l-7.33,1.08-6-7.6L466.72,45l-8.17-5.43-6.1,6.16-8-1.41-3.25-9.45-9.77,1-.55,8.26-7.28,3.7-7.7-5.45-7.81,5.69,4.06,8.75-4.65,7L399,63.44l-2.2,10.42,8,3.09.69,8.76-8.33,4.78,4,9,8.62-1.33,5.71,6.59-3,8.22,7.9,5.58,6.17-6.67,8.55,2.31,2.66,8.83,9.51-.64,1.23-7.93,8.15-4.68,6.67,5.32,8.43-6.29-4.26-7.42L471.69,94l8.55.63,2.62-9.69-7.34-4-1-8.84ZM448.55,95.81a19.22,19.22,0,1,1,7.09-26.23A19.21,19.21,0,0,1,448.55,95.81Z"/><path class="cls-3" d="M447.49,73.56a18,18,0,0,0-1.56-1.94,10.11,10.11,0,0,0-6-2.93,10,10,0,0,0-8.91,3.49,9.92,9.92,0,0,0-2.29,5.33,10,10,0,0,0,5.88,10.23,9.94,9.94,0,0,0,5.75.71,10.07,10.07,0,0,0,8-12.56,17.77,17.77,0,0,0-.89-2.33s0,0,.09.14.14.26.24.42a4.47,4.47,0,0,1,.34.72,7.29,7.29,0,0,1,.36,1,9.7,9.7,0,0,1,.41,2.93,9.89,9.89,0,0,1-.78,3.84,10.08,10.08,0,0,1-2.77,3.84,10.35,10.35,0,0,1-4.92,2.33,10.33,10.33,0,0,1-6-.72,10.26,10.26,0,0,1-6.09-10.6,9.66,9.66,0,0,1,.81-3A9.55,9.55,0,0,1,430.79,72a10.36,10.36,0,0,1,4.49-3.07,10.18,10.18,0,0,1,4.73-.46,10,10,0,0,1,3.7,1.26A9.42,9.42,0,0,1,446,71.52a6.87,6.87,0,0,1,.7.83,4.39,4.39,0,0,1,.44.65l.25.42C447.47,73.51,447.5,73.56,447.49,73.56Z"/><path class="cls-3" d="M456.63,52.16c.09.06-2.54,4.2-5.86,9.26s-6.1,9.1-6.18,9,2.54-4.2,5.86-9.26S456.55,52.11,456.63,52.16Z"/><path class="cls-3" d="M466.07,85.79a25.51,25.51,0,0,1-2.58-.76c-1.58-.49-3.77-1.13-6.23-1.73s-4.7-1-6.33-1.33-2.64-.46-2.63-.51a2.34,2.34,0,0,1,.72,0c.46,0,1.13.11,2,.23,1.65.23,3.91.63,6.38,1.23s4.66,1.29,6.23,1.84c.78.28,1.41.52,1.84.7A3,3,0,0,1,466.07,85.79Z"/><path class="cls-3" d="M443,88a13.76,13.76,0,0,1,.79,2.26c.44,1.41,1,3.38,1.49,5.58s.89,4.2,1.12,5.66a13.39,13.39,0,0,1,.29,2.37,14.81,14.81,0,0,1-.55-2.32c-.3-1.45-.72-3.44-1.22-5.63s-1-4.16-1.38-5.59A16.23,16.23,0,0,1,443,88Z"/><path class="cls-3" d="M432.59,86.84c.09,0-1.64,3.08-3.86,6.76s-4.09,6.62-4.17,6.57,1.64-3.08,3.86-6.76S432.51,86.79,432.59,86.84Z"/><path class="cls-3" d="M431.12,54.08c.1,0,1.17,3.18,2.4,7.16a73.9,73.9,0,0,1,2,7.27c-.09,0-1.17-3.18-2.4-7.16S431,54.11,431.12,54.08Z"/><path class="cls-3" d="M429,76.7a48.65,48.65,0,0,1-6-.39,48.73,48.73,0,0,1-6-.75,94.93,94.93,0,0,1,12,1.14Z"/><path class="cls-3" d="M445.55,74.68a7.92,7.92,0,1,1-10.82-2.93A7.92,7.92,0,0,1,445.55,74.68Z"/><path class="cls-1" d="M442.51,78.68a9.86,9.86,0,0,1-1.09-.64,7.58,7.58,0,0,0-2.84-.92,7.75,7.75,0,0,0-3,.29c-.74.22-1.18.45-1.2.4s.36-.35,1.11-.65a6.62,6.62,0,0,1,3.09-.41,6.73,6.73,0,0,1,2.94,1.06A2.83,2.83,0,0,1,442.51,78.68Z"/><path class="cls-1" d="M439.33,74a19.92,19.92,0,0,0-1.25,3.68A20,20,0,0,0,438,81.6a7,7,0,0,1-.25-3.95A6.91,6.91,0,0,1,439.33,74Z"/><path class="cls-3" d="M284,268,272.19,247.5l-18.45,2.71-15.23-19.14L246.36,212l-20.57-13.66-15.36,15.49L190.2,210.3,182,186.51l-24.58,2.59L156,209.91l-18.31,9.3-19.39-13.72L98.65,219.81l10.22,22-11.7,17.63L75.9,258.34l-5.55,26.23,20.23,7.78,1.75,22-21,12.05,10,22.74,21.72-3.37,14.38,16.6L110,383.1l19.88,14,15.52-16.8,21.54,5.83,6.7,22.22,23.93-1.61,3.09-20L221.13,375l16.79,13.4,21.23-15.82-10.74-18.7,10.46-18.74,21.53,1.59,6.6-24.41-18.48-10-2.45-22.24Zm-83.37,71.81a48.37,48.37,0,1,1,17.86-66A48.37,48.37,0,0,1,200.61,339.83Z"/><path class="cls-3" d="M198,283.82a44.71,44.71,0,0,0-3.94-4.89,25.45,25.45,0,0,0-15-7.38,25.08,25.08,0,0,0-11.55,1.23,25.34,25.34,0,0,0-10.9,7.56,25.32,25.32,0,0,0-5.75,13.42,25,25,0,0,0,14.79,25.75,25.21,25.21,0,0,0,14.49,1.8,25.36,25.36,0,0,0,20.09-31.62,44.24,44.24,0,0,0-2.24-5.87,1.54,1.54,0,0,1,.23.35c.16.29.36.64.59,1.07a11.62,11.62,0,0,1,.86,1.79,17.84,17.84,0,0,1,.91,2.56,23.9,23.9,0,0,1,1,7.36,25.8,25.8,0,0,1-9,19.35,25.94,25.94,0,0,1-12.37,5.86,26,26,0,0,1-15-1.81,25.86,25.86,0,0,1-15.33-26.7,26.1,26.1,0,0,1,6-13.87,26,26,0,0,1,11.31-7.73,25.87,25.87,0,0,1,21.22,2,24.26,24.26,0,0,1,5.84,4.62,16.51,16.51,0,0,1,1.74,2.08,11.94,11.94,0,0,1,1.13,1.64c.24.42.45.76.62,1.05A1.71,1.71,0,0,1,198,283.82Z"/><path class="cls-3" d="M221,230c.22.14-6.39,10.57-14.77,23.29S190.85,276.17,190.64,276s6.39-10.57,14.77-23.29S220.75,229.81,221,230Z"/><path class="cls-3" d="M244.72,314.61a62.83,62.83,0,0,1-6.48-1.91c-4-1.23-9.51-2.85-15.69-4.36s-11.83-2.62-15.94-3.36a60.51,60.51,0,0,1-6.63-1.29,7,7,0,0,1,1.82.06c1.17.1,2.85.29,4.92.58,4.14.57,9.84,1.59,16.05,3.1s11.73,3.24,15.67,4.64c2,.7,3.56,1.3,4.64,1.75A6.55,6.55,0,0,1,244.72,314.61Z"/><path class="cls-3" d="M186.57,320.2a34.75,34.75,0,0,1,2,5.69c1.09,3.55,2.45,8.5,3.74,14s2.24,10.58,2.83,14.25a34.7,34.7,0,0,1,.71,6,43.79,43.79,0,0,1-1.37-5.86c-.75-3.63-1.81-8.64-3.09-14.16s-2.54-10.47-3.46-14.07A45.21,45.21,0,0,1,186.57,320.2Z"/><path class="cls-3" d="M160.45,317.24c.22.14-4.13,7.76-9.72,17s-10.3,16.67-10.52,16.53,4.13-7.75,9.72-17S160.22,317.11,160.45,317.24Z"/><path class="cls-3" d="M156.74,234.78c.24-.08,2.95,8,6,18s5.39,18.22,5.15,18.29-3-8-6.05-18S156.49,234.85,156.74,234.78Z"/><path class="cls-3" d="M151.26,291.72c0,.26-6.78-.18-15.1-1s-15-1.65-15-1.91,6.78.18,15.1,1S151.29,291.46,151.26,291.72Z"/><circle class="cls-3" cx="175.76" cy="296.56" r="19.95" transform="translate(-157.93 383.12) rotate(-73.89)"/><path class="cls-1" d="M185.4,296.71a31.83,31.83,0,0,1-2.74-1.62,18.51,18.51,0,0,0-14.6-1.58,29.64,29.64,0,0,1-3,1c-.06-.1.93-.88,2.81-1.63A16.57,16.57,0,0,1,183,294.52C184.69,295.65,185.48,296.64,185.4,296.71Z"/><path class="cls-1" d="M177.41,285c.26.15-2.22,3.91-3.15,9.26s0,9.73-.27,9.77-1.68-4.37-.65-9.94S177.26,284.85,177.41,285Z"/><path class="cls-3" d="M828.78,255.58,817,235.06l-18.45,2.71-15.24-19.14,7.85-19.06-20.57-13.66L755.23,201.4,735,197.86l-8.21-23.79-24.58,2.59-1.39,20.81-18.32,9.3-19.39-13.72-19.66,14.32,10.22,22L642,247l-21.26-1.13-5.55,26.23,20.23,7.78,1.74,22-21,12.05,10,22.74,21.71-3.37L662.27,350l-7.52,20.69,19.89,14,15.52-16.8,21.54,5.83L718.39,396l23.94-1.61,3.09-20,20.52-11.79L782.72,376,804,360.18l-10.73-18.7,10.46-18.74,21.53,1.59,6.6-24.41-18.48-10-2.46-22.24Zm-83.36,71.81a48.37,48.37,0,1,1,17.86-66A48.37,48.37,0,0,1,745.42,327.39Z"/><path class="cls-3" d="M742.76,271.38a46.34,46.34,0,0,0-3.94-4.89,25.52,25.52,0,0,0-15-7.38,25.05,25.05,0,0,0-11.54,1.23,25.34,25.34,0,0,0-10.9,7.56,25.11,25.11,0,0,0-5.75,13.42,25,25,0,0,0,14.79,25.75,25.19,25.19,0,0,0,14.48,1.8A25.37,25.37,0,0,0,745,277.25a46.08,46.08,0,0,0-2.24-5.87,1.54,1.54,0,0,1,.23.35l.59,1.07a10.82,10.82,0,0,1,.85,1.79,17.78,17.78,0,0,1,.92,2.56,24.21,24.21,0,0,1,1,7.36,25.89,25.89,0,0,1-9,19.35,26,26,0,0,1-12.38,5.86,26,26,0,0,1-15-1.81,25.88,25.88,0,0,1-15.32-26.7,25.89,25.89,0,0,1,6-13.87,26,26,0,0,1,11.3-7.73,25.86,25.86,0,0,1,21.22,2,24.07,24.07,0,0,1,5.84,4.62,16.67,16.67,0,0,1,1.75,2.08A11.77,11.77,0,0,1,742,270l.62,1.05A1.55,1.55,0,0,1,742.76,271.38Z"/><path class="cls-3" d="M765.77,217.51c.22.14-6.4,10.57-14.77,23.29s-15.34,22.93-15.56,22.78,6.4-10.57,14.78-23.29S765.55,217.37,765.77,217.51Z"/><path class="cls-3" d="M789.53,302.17a62.48,62.48,0,0,1-6.49-1.91c-4-1.24-9.51-2.85-15.68-4.36s-11.84-2.62-15.94-3.36a61.77,61.77,0,0,1-6.64-1.29,7.12,7.12,0,0,1,1.83.06c1.16.1,2.84.29,4.92.58,4.14.57,9.84,1.59,16.05,3.1s11.73,3.24,15.67,4.64c2,.7,3.56,1.3,4.63,1.75A6.77,6.77,0,0,1,789.53,302.17Z"/><path class="cls-3" d="M731.38,307.76a34.27,34.27,0,0,1,2,5.69c1.09,3.55,2.46,8.5,3.74,14s2.24,10.58,2.83,14.25a35.5,35.5,0,0,1,.72,6c-.14,0-.61-2.23-1.37-5.86s-1.81-8.64-3.09-14.16-2.54-10.47-3.47-14.07A42,42,0,0,1,731.38,307.76Z"/><path class="cls-3" d="M705.25,304.8c.22.14-4.13,7.76-9.71,17s-10.3,16.67-10.52,16.53,4.12-7.75,9.71-17S705,304.67,705.25,304.8Z"/><path class="cls-3" d="M701.54,222.34c.25-.08,3,8,6.05,18s5.39,18.22,5.14,18.29-3-8-6-18S701.3,222.41,701.54,222.34Z"/><path class="cls-3" d="M696.07,279.28c0,.26-6.79-.18-15.1-1s-15-1.65-15-1.91,6.79.18,15.11,1S696.09,279,696.07,279.28Z"/><circle class="cls-3" cx="720.57" cy="284.12" r="19.95" transform="translate(255.96 903.87) rotate(-74.66)"/><path class="cls-1" d="M730.21,284.27a30.09,30.09,0,0,1-2.74-1.62,18.53,18.53,0,0,0-14.61-1.58,29.1,29.1,0,0,1-3,1c-.06-.1.92-.88,2.81-1.63a16.55,16.55,0,0,1,15.16,1.64C729.49,283.21,730.29,284.2,730.21,284.27Z"/><path class="cls-1" d="M722.22,272.58c.26.15-2.23,3.91-3.15,9.26s0,9.73-.28,9.77-1.67-4.37-.64-9.94S722.06,272.41,722.22,272.58Z"/><path class="cls-3" d="M611.25,382.44l-5.8-10.09-9.07,1.34-7.49-9.42,3.86-9.37-10.12-6.71-7.55,7.61-10-1.74-4-11.7L549,343.64l-.68,10.23-9,4.58-9.54-6.75-9.67,7,5,10.83-5.76,8.67-10.45-.56-2.73,12.9,9.95,3.83.85,10.84-10.31,5.92,4.93,11.18,10.67-1.65,7.08,8.16L525.67,439l9.78,6.91,7.63-8.26,10.59,2.87L557,451.48l11.77-.8,1.52-9.81,10.09-5.8,8.26,6.59L599,433.88l-5.28-9.19,5.14-9.22,10.59.78,3.24-12-9.08-4.92-1.21-10.93Zm-41,35.32A23.79,23.79,0,1,1,579,385.29,23.78,23.78,0,0,1,570.25,417.76Z"/><path class="cls-3" d="M568.94,390.22a22,22,0,0,0-1.93-2.41,12.53,12.53,0,0,0-7.38-3.63,12.39,12.39,0,0,0-11,4.32,11.25,11.25,0,0,0-1.87,3,11.63,11.63,0,0,0-1,3.58A12.3,12.3,0,0,0,553,407.77a11.71,11.71,0,0,0,3.57,1,11.38,11.38,0,0,0,3.55-.09A12.47,12.47,0,0,0,570,393.1a19.81,19.81,0,0,0-1.1-2.88s0,0,.12.17l.29.52a6.7,6.7,0,0,1,.42.88,11.19,11.19,0,0,1,.45,1.26,11.94,11.94,0,0,1,.51,3.62,12.77,12.77,0,0,1-4.41,9.52,12.77,12.77,0,0,1-6.08,2.88,12.83,12.83,0,0,1-7.38-.89,12.71,12.71,0,0,1-7.54-13.13,12.06,12.06,0,0,1,1-3.7,11.83,11.83,0,0,1,1.95-3.12,12.81,12.81,0,0,1,5.56-3.8,12.5,12.5,0,0,1,5.85-.57,12.37,12.37,0,0,1,4.58,1.56,11.65,11.65,0,0,1,2.88,2.27,9,9,0,0,1,.86,1,6.14,6.14,0,0,1,.55.81l.3.51C568.92,390.15,569,390.21,568.94,390.22Z"/><path class="cls-3" d="M580.26,363.72c.11.07-3.15,5.2-7.26,11.46s-7.55,11.27-7.65,11.2,3.14-5.2,7.26-11.45S580.15,363.65,580.26,363.72Z"/><path class="cls-3" d="M591.94,405.35a28.88,28.88,0,0,1-3.19-.93c-2-.61-4.67-1.41-7.71-2.15s-5.82-1.28-7.84-1.65a32.65,32.65,0,0,1-3.26-.63,3,3,0,0,1,.9,0c.57,0,1.4.14,2.42.28,2,.28,4.84.78,7.89,1.52s5.77,1.6,7.71,2.29c1,.34,1.74.63,2.27.86A3.33,3.33,0,0,1,591.94,405.35Z"/><path class="cls-3" d="M563.35,408.11a17.15,17.15,0,0,1,1,2.79c.53,1.75,1.21,4.18,1.84,6.9s1.1,5.2,1.39,7a17,17,0,0,1,.35,2.94,22.2,22.2,0,0,1-.67-2.88c-.37-1.79-.89-4.25-1.52-7s-1.25-5.15-1.71-6.92A22,22,0,0,1,563.35,408.11Z"/><path class="cls-3" d="M550.5,406.65c.11.07-2,3.81-4.78,8.37s-5.06,8.19-5.17,8.13,2-3.81,4.78-8.37S550.39,406.58,550.5,406.65Z"/><path class="cls-3" d="M548.68,366.1c.12,0,1.45,3.93,3,8.86s2.65,9,2.53,9-1.45-3.93-3-8.86S548.56,366.14,548.68,366.1Z"/><path class="cls-3" d="M546,394.1a59.82,59.82,0,0,1-7.42-.48,62.16,62.16,0,0,1-7.38-.93A117.27,117.27,0,0,1,546,394.1Z"/><circle class="cls-3" cx="558.03" cy="396.48" r="9.81" transform="translate(9.81 806.42) rotate(-72.18)"/><path class="cls-1" d="M562.77,396.55a12.41,12.41,0,0,1-1.34-.79,9.05,9.05,0,0,0-7.19-.78c-.91.27-1.45.55-1.48.49a3.3,3.3,0,0,1,1.38-.8,8.17,8.17,0,0,1,7.45.81A3.37,3.37,0,0,1,562.77,396.55Z"/><path class="cls-1" d="M558.84,390.81a24.12,24.12,0,0,0-1.55,4.55,23.86,23.86,0,0,0-.13,4.8,10.17,10.17,0,0,1,1.68-9.35Z"/><path class="cls-2" d="M680.32,98.41,671,82.22l-14.56,2.14-12-15.11,6.19-15L634.4,43.44,622.28,55.66l-16-2.8-6.48-18.77-19.4,2-1.09,16.42L564.89,59.9l-15.3-10.83-15.52,11.3,8.06,17.38L532.9,91.67l-16.78-.9-4.39,20.7,16,6.15L529.08,135l-16.56,9.51,7.92,17.94,17.13-2.66,11.35,13.1L543,189.23l15.7,11.09,12.25-13.26,17,4.6,5.29,17.54,18.88-1.28,2.44-15.75,16.19-9.3L644,193.45,660.73,181l-8.48-14.76,8.26-14.78,17,1.25,5.21-19.26-14.58-7.9-2-17.55Zm-65.79,56.68A38.18,38.18,0,1,1,628.63,103,38.17,38.17,0,0,1,614.53,155.09Z"/><path class="cls-2" d="M612.43,110.89a33.79,33.79,0,0,0-3.1-3.87,20.16,20.16,0,0,0-11.84-5.82,19.81,19.81,0,0,0-17.71,6.94,19.93,19.93,0,0,0-4.54,10.59,19.74,19.74,0,0,0,11.67,20.32,19.89,19.89,0,0,0,11.43,1.42,19.86,19.86,0,0,0,14.93-11.8,20.15,20.15,0,0,0,.93-13.16,33.5,33.5,0,0,0-1.77-4.62s.07.08.18.27l.47.84a8.69,8.69,0,0,1,.67,1.42,13.91,13.91,0,0,1,.73,2,19.12,19.12,0,0,1,.82,5.82,20.39,20.39,0,0,1-7.07,15.26,20.46,20.46,0,0,1-9.77,4.63,20.5,20.5,0,0,1-11.84-1.43,20.4,20.4,0,0,1-12.1-21.07,19.42,19.42,0,0,1,1.61-5.94,19.11,19.11,0,0,1,3.13-5,20.39,20.39,0,0,1,8.92-6.1,20.33,20.33,0,0,1,16.74,1.59,18.84,18.84,0,0,1,4.61,3.64,13.36,13.36,0,0,1,1.38,1.64,9.49,9.49,0,0,1,.89,1.29c.19.33.35.61.49.83A1.21,1.21,0,0,1,612.43,110.89Z"/><path class="cls-2" d="M630.59,68.37c.17.11-5.05,8.35-11.65,18.38s-12.11,18.09-12.28,18,5.05-8.34,11.66-18.38S630.42,68.26,630.59,68.37Z"/><path class="cls-2" d="M649.34,135.18a47.89,47.89,0,0,1-5.12-1.51c-3.14-1-7.5-2.25-12.38-3.44s-9.33-2.06-12.57-2.64a48.08,48.08,0,0,1-5.24-1,5.47,5.47,0,0,1,1.44,0c.92.08,2.25.23,3.88.46,3.27.45,7.77,1.25,12.67,2.44s9.26,2.56,12.37,3.67c1.55.55,2.8,1,3.65,1.38A5,5,0,0,1,649.34,135.18Z"/><path class="cls-2" d="M603.45,139.6a26,26,0,0,1,1.58,4.48c.86,2.81,1.93,6.71,3,11.08s1.76,8.34,2.23,11.24a26.2,26.2,0,0,1,.56,4.72,34.27,34.27,0,0,1-1.07-4.62c-.6-2.87-1.43-6.83-2.44-11.18s-2-8.26-2.74-11.1A35.81,35.81,0,0,1,603.45,139.6Z"/><path class="cls-2" d="M582.83,137.26c.18.1-3.25,6.12-7.66,13.43s-8.13,13.15-8.3,13.05,3.25-6.12,7.66-13.43S582.66,137.15,582.83,137.26Z"/><path class="cls-2" d="M579.91,72.18c.19-.06,2.33,6.31,4.77,14.22s4.25,14.38,4.06,14.44-2.33-6.31-4.77-14.22S579.71,72.24,579.91,72.18Z"/><path class="cls-2" d="M575.59,117.12c0,.2-5.36-.14-11.92-.77s-11.87-1.3-11.85-1.5,5.36.14,11.92.76S575.61,116.91,575.59,117.12Z"/><circle class="cls-2" cx="594.92" cy="120.94" r="15.74" transform="translate(-10.57 164.93) rotate(-15.65)"/><path class="cls-1" d="M602.53,121.06a23.39,23.39,0,0,1-2.16-1.28,14.59,14.59,0,0,0-11.53-1.25,24,24,0,0,1-2.39.79,5.47,5.47,0,0,1,2.22-1.29,13.08,13.08,0,0,1,12,1.3C602,120.22,602.59,121,602.53,121.06Z"/><path class="cls-1" d="M596.22,111.83c.21.12-1.75,3.09-2.48,7.31s0,7.67-.22,7.71S592.2,123.4,593,119,596.1,111.7,596.22,111.83Z"/><path class="cls-1" d="M393.44,129.42l-2.41-4.2-3.77.56-3.12-3.92,1.61-3.9-4.21-2.79-3.14,3.17-4.14-.73-1.67-4.86-5,.53-.29,4.26-3.74,1.9-4-2.81-4,2.93,2.09,4.5-2.39,3.61-4.35-.23-1.14,5.37,4.14,1.59.35,4.51L350,141.37,352,146l4.45-.69,2.94,3.4L357.85,153l4.07,2.87,3.17-3.43,4.41,1.19,1.37,4.54,4.89-.33.63-4.08,4.2-2.41,3.43,2.74,4.35-3.24-2.2-3.82,2.14-3.83,4.4.32,1.35-5-3.78-2.05-.5-4.54Zm-17.05,14.69a9.89,9.89,0,1,1,3.66-13.51A9.89,9.89,0,0,1,376.39,144.11Z"/><path class="cls-1" d="M375.85,132.65c-.06,0-.3-.37-.88-.92a5.27,5.27,0,0,0-3-1.4,4.95,4.95,0,0,0-4.86,7.35,4.93,4.93,0,0,0,5.06,2.39,5,5,0,0,0,3.74-2.88,5.18,5.18,0,0,0,.31-3.31c-.18-.79-.41-1.2-.35-1.23a2.5,2.5,0,0,1,.63,1.15,5.18,5.18,0,0,1-.11,3.59,5.48,5.48,0,0,1-4.1,3.35,5.55,5.55,0,0,1-5.21-9.08,5.47,5.47,0,0,1,5-1.84,5.16,5.16,0,0,1,3.15,1.71A2.58,2.58,0,0,1,375.85,132.65Z"/><path class="cls-1" d="M380.56,121.63c.17.12-1.08,2.32-2.8,4.92s-3.24,4.62-3.41,4.51,1.08-2.31,2.8-4.92S380.38,121.52,380.56,121.63Z"/><path class="cls-1" d="M385.42,139c-.08.2-2.1-.41-4.61-1s-4.57-1-4.55-1.21,2.17-.13,4.73.49S385.49,138.77,385.42,139Z"/><path class="cls-1" d="M373.52,140.09c.19-.06.92,1.7,1.44,4s.66,4.17.46,4.2-.66-1.78-1.18-4S373.32,140.16,373.52,140.09Z"/><path class="cls-1" d="M368.18,139.49c.17.1-.61,1.73-1.76,3.62s-2.21,3.35-2.38,3.24.61-1.73,1.75-3.62S368,139.38,368.18,139.49Z"/><path class="cls-1" d="M367.42,122.62c.19-.06.86,1.56,1.5,3.61s1,3.76.79,3.82-.87-1.55-1.5-3.61S367.22,122.68,367.42,122.62Z"/><path class="cls-1" d="M366.3,134.27c0,.2-1.42.23-3.12.07s-3.06-.46-3-.66,1.41-.24,3.11-.07S366.32,134.06,366.3,134.27Z"/><path class="cls-1" d="M374.85,133.23a4.08,4.08,0,1,1-5.57-1.51A4.08,4.08,0,0,1,374.85,133.23Z"/><path class="cls-2" d="M373.28,135.29c-.14.15-.94-.42-2-.53s-2,.26-2.11.08.78-1,2.19-.82S373.45,135.17,373.28,135.29Z"/><path class="cls-2" d="M371.65,132.9c.17.12-.2.91-.38,1.94s-.12,1.9-.32,1.95-.63-.87-.41-2.08S371.5,132.77,371.65,132.9Z"/><path class="cls-1" d="M787,111.86,783,105l-6.13.9-5.06-6.36,2.61-6.34-6.84-4.54-5.11,5.15-6.72-1.18-2.73-7.9-8.17.86-.46,6.92-6.09,3.09-6.44-4.56-6.54,4.76,3.4,7.32L724.86,109l-7.07-.38-1.85,8.72,6.73,2.59.58,7.32-7,4,3.34,7.56,7.21-1.12,4.78,5.51-2.5,6.88,6.61,4.67,5.16-5.58,7.16,1.93,2.23,7.39,8-.53,1-6.64,6.82-3.92,5.58,4.46,7.06-5.26-3.57-6.22,3.48-6.23,7.15.53,2.2-8.11-6.15-3.33-.81-7.39Zm-27.71,23.87a16.08,16.08,0,1,1,5.94-21.95A16.08,16.08,0,0,1,759.24,135.73Z"/><path class="cls-1" d="M758.35,117.11c-.06,0-.42-.63-1.36-1.57a8.56,8.56,0,0,0-5-2.36,8.19,8.19,0,1,0,6.53,11.36,8.53,8.53,0,0,0,.45-5.46c-.33-1.28-.73-1.93-.67-2s.13.14.32.45a6.73,6.73,0,0,1,.63,1.45,8.46,8.46,0,0,1-.25,5.74,8.74,8.74,0,0,1-6.55,5.3,8.65,8.65,0,0,1-5.1-.6,9,9,0,0,1-4.12-3.69,8.85,8.85,0,0,1-1.1-5.4,8.76,8.76,0,0,1,9.93-7.7,8.46,8.46,0,0,1,5.08,2.68,6.24,6.24,0,0,1,.93,1.28C758.3,116.93,758.38,117.1,758.35,117.11Z"/><path class="cls-1" d="M766,99.21c.18.11-1.94,3.63-4.73,7.86s-5.18,7.56-5.35,7.45,2-3.63,4.74-7.86S765.83,99.09,766,99.21Z"/><path class="cls-1" d="M773.9,127.34c-.07.21-3.32-.88-7.42-1.87s-7.48-1.54-7.45-1.75,3.48,0,7.63,1S774,127.17,773.9,127.34Z"/><path class="cls-1" d="M754.57,129.21c.19-.06,1.27,2.82,2.12,6.5s1.16,6.74,1,6.77-.84-2.95-1.69-6.6S754.37,129.27,754.57,129.21Z"/><path class="cls-1" d="M745.89,128.22c.17.11-1.19,2.69-3,5.77s-3.5,5.49-3.68,5.38,1.19-2.68,3.05-5.76S745.71,128.12,745.89,128.22Z"/><path class="cls-1" d="M744.66,100.81c.19-.06,1.18,2.59,2.21,5.93s1.7,6.08,1.51,6.14-1.19-2.59-2.22-5.92S744.46,100.87,744.66,100.81Z"/><path class="cls-1" d="M742.84,119.74c0,.2-2.28.15-5-.11s-5-.64-5-.85,2.27-.15,5,.11S742.86,119.53,742.84,119.74Z"/><path class="cls-1" d="M756.73,118a6.63,6.63,0,1,1-9.05-2.44A6.63,6.63,0,0,1,756.73,118Z"/><path class="cls-2" d="M754.18,121.4c-.13.16-1.4-.9-3.3-1.09s-3.37.54-3.47.35,1.35-1.32,3.55-1.09S754.36,121.3,754.18,121.4Z"/><path class="cls-2" d="M751.53,117.51c.18.12-.54,1.39-.84,3.12s-.09,3.16-.3,3.21-.78-1.44-.43-3.35S751.38,117.38,751.53,117.51Z"/><path class="cls-1" d="M280,436.07,276,429.25l-6.13.9-5.06-6.36,2.61-6.34-6.84-4.54-5.11,5.15-6.72-1.18-2.73-7.9-8.17.86-.46,6.92-6.09,3.09-6.44-4.56-6.54,4.76,3.4,7.32-3.89,5.86-7.07-.38-1.85,8.72,6.73,2.59.58,7.33-7,4,3.33,7.56,7.21-1.12,4.79,5.51-2.51,6.88,6.62,4.67,5.15-5.58,7.16,1.94,2.23,7.38,8-.53,1-6.64,6.82-3.92,5.58,4.46,7.06-5.26-3.57-6.22,3.48-6.23,7.15.53,2.2-8.11-6.15-3.33-.81-7.39Zm-27.71,23.87A16.08,16.08,0,1,1,258.18,438,16.08,16.08,0,0,1,252.24,459.94Z"/><path class="cls-1" d="M251.36,441.32c-.07.05-.43-.63-1.37-1.56a8.51,8.51,0,0,0-5-2.37,8.18,8.18,0,1,0,6.53,11.37,8.47,8.47,0,0,0,.45-5.46c-.33-1.29-.73-1.94-.66-2s.13.14.31.45a6.73,6.73,0,0,1,.63,1.45,8.46,8.46,0,0,1-.25,5.74,8.81,8.81,0,1,1-6.94-12.09,8.47,8.47,0,0,1,5.09,2.69,6.35,6.35,0,0,1,.93,1.27A1.68,1.68,0,0,1,251.36,441.32Z"/><path class="cls-1" d="M259,423.42c.17.11-1.95,3.63-4.73,7.86s-5.18,7.56-5.35,7.45,1.94-3.63,4.73-7.86S258.84,423.3,259,423.42Z"/><path class="cls-1" d="M266.9,451.56c-.07.2-3.32-.89-7.42-1.88s-7.47-1.54-7.45-1.75,3.48,0,7.63,1S267,451.38,266.9,451.56Z"/><path class="cls-1" d="M247.58,453.42c.18-.06,1.26,2.82,2.11,6.5s1.17,6.74,1,6.77-.84-2.95-1.69-6.6S247.37,453.48,247.58,453.42Z"/><path class="cls-1" d="M238.89,452.43c.18.11-1.19,2.69-3,5.77s-3.5,5.49-3.68,5.38,1.19-2.68,3.05-5.76S238.72,452.33,238.89,452.43Z"/><path class="cls-1" d="M237.66,425c.19-.06,1.18,2.6,2.21,5.93s1.7,6.08,1.51,6.14-1.19-2.59-2.22-5.92S237.46,425.08,237.66,425Z"/><path class="cls-1" d="M235.84,444c0,.2-2.28.15-5-.11s-5-.64-5-.85,2.27-.15,5,.11S235.86,443.74,235.84,444Z"/><path class="cls-1" d="M249.73,442.26a6.63,6.63,0,1,1-9-2.45A6.62,6.62,0,0,1,249.73,442.26Z"/><path class="cls-2" d="M247.19,445.61c-.14.16-1.41-.9-3.31-1.09s-3.37.55-3.47.35,1.35-1.32,3.55-1.09S247.36,445.51,247.19,445.61Z"/><path class="cls-2" d="M244.53,441.72c.18.12-.54,1.39-.84,3.12s-.09,3.16-.3,3.21-.77-1.44-.42-3.34S244.39,441.59,244.53,441.72Z"/><path class="cls-4" d="M557.16,335.93V325.54l-7.62-3-1.61-10.61,7.15-5.53-4.84-9.69L541,299.24l-6.92-5.76,2.07-10.85-9.92-4.38-5.07,7.61-9-.46-4.38-9.46-10.61,1.16-.93,10.61-8.3,4.15-7.85-5.07-7.84,8.76,6,7.39-4.15,8.76H463.5l-1.16,10.84,9,3.47,1.84,9.45-7.38,6.23,4.5,9.69,9.57-3,6.93,6.92-2.31,9.92,9.46,4.62,5.53-6.92h10.38l3.46,8.76,11.54-1.38v-9.46l8.07-4.84,7.85,5.3,7.84-7.84-4.84-7.85,3.92-9ZM509.75,345A21.23,21.23,0,1,1,531,323.81,21.22,21.22,0,0,1,509.75,345Z"/><path class="cls-4" d="M521,323.15a27.45,27.45,0,0,0-.49-2.71,11.22,11.22,0,0,0-4.1-6,10.9,10.9,0,1,0,0,17.43,11.22,11.22,0,0,0,4.1-6c.46-1.7.41-2.71.49-2.7a2.33,2.33,0,0,1,0,.72,8.76,8.76,0,0,1-.25,2.05,11.1,11.1,0,0,1-4.06,6.35,11.22,11.22,0,0,1-4.82,2.2,11.57,11.57,0,0,1-6.07-.46,11.41,11.41,0,0,1-5.39-4,11.5,11.5,0,0,1,0-13.69,11.41,11.41,0,0,1,5.39-4,11.57,11.57,0,0,1,6.07-.46,11.22,11.22,0,0,1,4.82,2.2,11.1,11.1,0,0,1,4.06,6.35,8.78,8.78,0,0,1,.25,2.06A2.38,2.38,0,0,1,521,323.15Z"/><path class="cls-4" d="M541.5,307.68c.09.18-4.67,2.77-10.64,5.78s-10.87,5.3-11,5.12,4.67-2.77,10.64-5.78S541.41,307.49,541.5,307.68Z"/><path class="cls-4" d="M532,345.08c-.16.14-3.14-3.28-7.18-7.11s-7.59-6.65-7.46-6.82a10.51,10.51,0,0,1,2.5,1.62,65.78,65.78,0,0,1,10.4,9.89A10.37,10.37,0,0,1,532,345.08Z"/><path class="cls-4" d="M508.7,334.5c.19,0-.53,4-2,8.8s-3.05,8.5-3.23,8.43,1.09-3.89,2.52-8.64S508.49,334.46,508.7,334.5Z"/><path class="cls-4" d="M499.4,327.67c.1.18-3.18,2.19-7.33,4.49s-7.6,4-7.7,3.85,3.19-2.19,7.34-4.49S499.3,327.49,499.4,327.67Z"/><path class="cls-4" d="M516,295.48c.2,0-.47,3.72-1.48,8.21s-2,8.1-2.2,8.05.46-3.72,1.48-8.21S515.81,295.44,516,295.48Z"/><path class="cls-4" d="M501.48,316c-.11.17-2.63-1.42-5.62-3.53s-5.32-4-5.2-4.14,2.63,1.41,5.62,3.53S501.6,315.78,501.48,316Z"/><path class="cls-4" d="M518.5,323.15a8.75,8.75,0,1,1-8.75-8.76A8.75,8.75,0,0,1,518.5,323.15Z"/><path class="cls-5" d="M513.38,325.31c-.2.09-.91-2-3-3.52s-4.3-1.55-4.28-1.77.55-.22,1.45-.12a7,7,0,0,1,5.49,4C513.42,324.72,513.47,325.28,513.38,325.31Z"/><path class="cls-5" d="M512.9,319.11c.1.2-1.61,1.14-3.1,2.94s-2.15,3.62-2.36,3.56.16-2.11,1.8-4S512.84,318.93,512.9,319.11Z"/><path class="cls-6" d="M509.2,212.19l-7-12.23-11,1.62-9.08-11.41,4.68-11.36-12.26-8.13-9.15,9.23-12.05-2.11-4.89-14.18-14.65,1.55-.83,12.4-10.91,5.54-11.55-8.18-11.72,8.54,6.09,13.12-7,10.5-12.67-.67-3.3,15.63L394,226.69l1,13.13L382.51,247l6,13.55,12.94-2,8.57,9.89-4.48,12.33,11.85,8.37,9.25-10,12.83,3.47,4,13.24,14.26-1L459.53,283l12.22-7,10,8,12.65-9.43L488,263.37l6.23-11.17,12.83,1L511,238.61l-11-6-1.46-13.25ZM459.53,255a28.82,28.82,0,1,1,10.64-39.35A28.83,28.83,0,0,1,459.53,255Z"/><path class="cls-4" d="M457.94,221.6a33.08,33.08,0,0,0-2.37-2.89,15.24,15.24,0,0,0-8.92-4.36,15,15,0,0,0-13.3,5.23,14.34,14.34,0,0,0-2.25,3.64,14,14,0,0,0-1.15,4.31,14.82,14.82,0,0,0,8.76,15.26A14.14,14.14,0,0,0,443,244a13.92,13.92,0,0,0,4.28-.11,15,15,0,0,0,7.13-3.32,14.72,14.72,0,0,0,4.09-5.53,15.2,15.2,0,0,0,.73-9.9,31.91,31.91,0,0,0-1.3-3.51,12,12,0,0,1,1.58,3.43,15.18,15.18,0,0,1-.52,10.18,15.46,15.46,0,0,1-4.18,5.8,15.62,15.62,0,0,1-7.41,3.52,15.55,15.55,0,0,1-9-1.08,15.48,15.48,0,0,1-9.19-16,14.91,14.91,0,0,1,1.22-4.51,15.24,15.24,0,0,1,2.38-3.8,15.59,15.59,0,0,1,6.78-4.62,15.4,15.4,0,0,1,16.17,4A11.8,11.8,0,0,1,457.94,221.6Z"/><path class="cls-4" d="M471.66,189.51c.17.11-3.74,6.35-8.73,13.92s-9.17,13.64-9.34,13.53,3.73-6.35,8.72-13.93S471.48,189.39,471.66,189.51Z"/><path class="cls-4" d="M485.81,240a25.89,25.89,0,0,1-3.88-1.08c-2.38-.72-5.67-1.67-9.35-2.57s-7-1.57-9.48-2a25.34,25.34,0,0,1-4-.84,19.24,19.24,0,0,1,4,.32,95.26,95.26,0,0,1,18.91,4.61A18.28,18.28,0,0,1,485.81,240Z"/><path class="cls-4" d="M451.16,243.28a15.29,15.29,0,0,1,1.25,3.37c.67,2.11,1.49,5.06,2.26,8.36s1.32,6.31,1.66,8.5a15.46,15.46,0,0,1,.36,3.57,19.31,19.31,0,0,1-.88-3.48c-.46-2.16-1.1-5.14-1.86-8.42s-1.51-6.24-2-8.39A19.41,19.41,0,0,1,451.16,243.28Z"/><path class="cls-4" d="M435.6,241.52c.17.1-2.39,4.66-5.71,10.18s-6.18,9.91-6.35,9.81,2.38-4.67,5.71-10.19S435.42,241.41,435.6,241.52Z"/><path class="cls-4" d="M433.39,192.38c.19-.06,1.84,4.74,3.68,10.71s3.18,10.87,3,10.93-1.84-4.73-3.68-10.71S433.19,192.44,433.39,192.38Z"/><path class="cls-4" d="M430.12,226.31c0,.2-4.05,0-9-.49s-9-1-8.94-1.22,4.05,0,9,.48S430.14,226.11,430.12,226.31Z"/><circle class="cls-4" cx="444.72" cy="229.19" r="11.89" transform="matrix(0.94, -0.33, 0.33, 0.94, -50.98, 161.48)"/><path class="cls-5" d="M450.47,229.28c-.12.2-2.38-1.88-5.9-2.24s-6.16,1.14-6.24.93.53-.57,1.65-1a9.84,9.84,0,0,1,4.67-.64,9.72,9.72,0,0,1,4.42,1.62C450.07,228.62,450.53,229.22,450.47,229.28Z"/><path class="cls-5" d="M445.7,222.32c.2.12-1.24,2.37-1.78,5.53s0,5.77-.25,5.81-1.1-2.6-.48-5.94S445.57,222.19,445.7,222.32Z"/><path class="cls-4" d="M555.62,246.85l-2.41-4.2-3.77.56-3.12-3.92,1.61-3.9-4.21-2.79-3.14,3.17-4.14-.73-1.68-4.86-5,.53-.29,4.25-3.75,1.91-4-2.81-4,2.93,2.09,4.5-2.4,3.61-4.35-.23-1.13,5.36,4.14,1.6.35,4.5-4.29,2.47,2,4.65,4.44-.69,2.94,3.39L520,270.39l4.06,2.87,3.18-3.43,4.4,1.19,1.37,4.54,4.9-.33.63-4.08,4.2-2.41,3.43,2.74,4.34-3.24-2.19-3.82,2.14-3.83,4.4.32,1.35-5-3.78-2-.5-4.55Zm-17,14.69A9.89,9.89,0,1,1,542.22,248,9.9,9.9,0,0,1,538.57,261.54Z"/><path class="cls-4" d="M538,250.08c-.06,0-.3-.37-.89-.93a5.26,5.26,0,0,0-3-1.39,4.95,4.95,0,0,0-4.86,7.35,4.93,4.93,0,0,0,5.06,2.39,5,5,0,0,0,3.73-2.88,5.2,5.2,0,0,0,.32-3.31c-.18-.79-.41-1.2-.35-1.23a2.74,2.74,0,0,1,.63,1.15,5.24,5.24,0,0,1-.11,3.59,5.48,5.48,0,0,1-4.1,3.35,5.55,5.55,0,0,1-5.22-9.08,5.49,5.49,0,0,1,5-1.85,5.26,5.26,0,0,1,3.15,1.71A2.64,2.64,0,0,1,538,250.08Z"/><path class="cls-4" d="M542.73,239.06c.17.11-1.08,2.32-2.79,4.92s-3.24,4.62-3.41,4.51,1.08-2.32,2.79-4.92S542.56,239,542.73,239.06Z"/><path class="cls-4" d="M547.59,256.38c-.07.19-2.09-.41-4.6-1s-4.57-1-4.55-1.22,2.17-.13,4.73.5S547.67,256.19,547.59,256.38Z"/><path class="cls-4" d="M535.7,257.52c.19-.06.91,1.7,1.44,4s.66,4.17.46,4.2-.66-1.79-1.18-4S535.5,257.58,535.7,257.52Z"/><path class="cls-4" d="M530.35,256.92c.18.1-.6,1.72-1.75,3.62s-2.21,3.34-2.38,3.24.61-1.73,1.75-3.62S530.18,256.81,530.35,256.92Z"/><path class="cls-4" d="M529.6,240.05c.19-.06.86,1.55,1.49,3.6s1,3.77.8,3.83-.87-1.56-1.5-3.61S529.4,240.11,529.6,240.05Z"/><path class="cls-4" d="M528.48,251.7c0,.2-1.42.23-3.12.07s-3.06-.46-3-.66,1.41-.24,3.11-.08S528.5,251.49,528.48,251.7Z"/><path class="cls-4" d="M537,250.65a4.08,4.08,0,1,1-5.57-1.5A4.1,4.1,0,0,1,537,250.65Z"/><path class="cls-5" d="M535.46,252.72c-.14.15-.94-.42-2.05-.53s-2,.26-2.12.08.79-1,2.2-.82S535.63,252.6,535.46,252.72Z"/><path class="cls-5" d="M533.82,250.33c.18.12-.19.91-.37,1.94s-.12,1.89-.32,1.95-.63-.88-.41-2.08S533.67,250.2,533.82,250.33Z"/><path class="cls-7" d="M347.88,657.26l4.2-9.14-17.06-8-6.28,13.29,1,.57c4.58,2.45,23.48,12.18,27.07,12.69C360.85,667.29,347.88,657.26,347.88,657.26Z"/><g class="cls-8"><path d="M335,656.21a6.54,6.54,0,0,0-.48-4.66,6.35,6.35,0,0,0-3.41-3.1l-2.23,4.77Z"/></g><path class="cls-9" d="M354.1,662.41s4.4,3.84,3.37,4.38-20.49-8.57-28.73-13.34l.21-.37,22.62,10.82S353.09,662,354.1,662.41Z"/><path class="cls-4" d="M328.68,653l.28.17.82.44,3,1.59c2.57,1.31,6.15,3.09,10.15,5s7.65,3.49,10.31,4.63l3.16,1.32.86.34.31.11-.29-.15-.85-.38-3.13-1.39c-2.64-1.17-6.28-2.81-10.28-4.68s-7.58-3.63-10.17-4.91l-3.07-1.52-.84-.4A1.38,1.38,0,0,0,328.68,653Z"/><path class="cls-4" d="M351.44,664.16a7.45,7.45,0,0,1,1.27-1.2,7.63,7.63,0,0,1,1.61-.7,2.62,2.62,0,0,0-1.74.51A2.49,2.49,0,0,0,351.44,664.16Z"/><path class="cls-4" d="M347.6,659.26a2.1,2.1,0,0,0,.84-.4c.44-.28.76-.55.72-.6a2.1,2.1,0,0,0-.84.4C347.89,658.94,347.57,659.21,347.6,659.26Z"/><path class="cls-4" d="M346.56,657.88c0,.06.37,0,.79-.12s.74-.28.72-.34-.37,0-.79.12S346.54,657.82,346.56,657.88Z"/><path class="cls-4" d="M346.44,655.86c0,.06.35.3.84.53a2.35,2.35,0,0,0,.93.33c0-.06-.34-.3-.83-.53A2.33,2.33,0,0,0,346.44,655.86Z"/><path class="cls-4" d="M346.67,654.59s.3.44.86.75a2,2,0,0,0,1.09.35c0-.07-.45-.25-1-.55S346.72,654.54,346.67,654.59Z"/><path class="cls-4" d="M348.87,658a3.77,3.77,0,0,0,1.1.51,8.6,8.6,0,0,0,1.29.29,3.46,3.46,0,0,0,.8,0,.63.63,0,0,0,.43-.21.49.49,0,0,0,0-.52,2.22,2.22,0,0,0-2.76-.57,2,2,0,0,0-.7.56c-.14.17-.18.28-.17.29a3.43,3.43,0,0,1,.94-.71,2.24,2.24,0,0,1,1.22-.17,1.91,1.91,0,0,1,1.26.7c.11.21-.05.39-.3.41a3.68,3.68,0,0,1-.74,0,7.45,7.45,0,0,1-1.26-.24C349.31,658.2,348.89,658,348.87,658Z"/><path class="cls-4" d="M349.13,658.23a1.17,1.17,0,0,0,.48-.7,1.91,1.91,0,0,0,.08-.94,1.21,1.21,0,0,0-.65-1,.49.49,0,0,0-.58.35,1.3,1.3,0,0,0,0,.58,4,4,0,0,0,.21.9,1.85,1.85,0,0,0,.42.74s-.13-.3-.27-.79a4,4,0,0,1-.15-.87c0-.3.05-.77.35-.69s.44.51.5.8a2,2,0,0,1,0,.86A3.77,3.77,0,0,1,349.13,658.23Z"/><path class="cls-4" d="M331.21,648.45s.51.18,1.24.63a5.89,5.89,0,0,1,2.8,5.65c-.08.85-.28,1.35-.24,1.37a1.68,1.68,0,0,0,.16-.35,5.05,5.05,0,0,0,.24-1,5.74,5.74,0,0,0-2.88-5.81,4.81,4.81,0,0,0-.95-.41C331.35,648.45,331.22,648.43,331.21,648.45Z"/><path class="cls-4" d="M336.3,642.18a31.65,31.65,0,0,0-1.79,3.43,35,35,0,0,0-1.58,3.53,31.65,31.65,0,0,0,1.79-3.43A32.44,32.44,0,0,0,336.3,642.18Z"/><path class="cls-4" d="M337.91,655.55a10.66,10.66,0,0,0,2.38,1.41,11.15,11.15,0,0,0,2.58,1c0-.07-1.12-.52-2.49-1.18S338,655.49,337.91,655.55Z"/><path class="cls-4" d="M334.57,654c-.06,0,0,.28,0,.59s-.05.56,0,.59.21-.23.21-.59S334.63,654,334.57,654Z"/><path class="cls-4" d="M334,651.82c-.05,0,0,.25.07.52s.21.45.27.43,0-.25-.06-.51S334.1,651.8,334,651.82Z"/><path class="cls-4" d="M332.58,650.26c0,.07.21.17.42.38s.33.42.39.4,0-.32-.23-.57S332.58,650.2,332.58,650.26Z"/><path class="cls-4" d="M331.45,649.33s0,.17.13.29.25.19.29.14,0-.17-.13-.29S331.5,649.28,331.45,649.33Z"/><path class="cls-10" d="M324.42,272.68c.8.22,17.38,32.21,29.21,31.71s71.82-8.7,71.82-8.7l-.26-17.63-62.27,3.71-20.4-24.56Z"/><path class="cls-10" d="M417.68,280.77s10.08-3.87,11.12-5.56,5.24-9.52,5.24-9.52,1.86,2.23,1.4,4.49c-.26,1.27-.69,3.5-1,5.22a1.49,1.49,0,0,0,1.81,1.74c2.41-.58,5.94-1.2,6.43-.06.77,1.75-1.41,13.39-3.36,15.61s-16.08,3.08-16.08,3.08Z"/><path class="cls-11" d="M440.25,280.59c.07.09-.6.81-2,1.56a9.9,9.9,0,0,1-2.64,1,2.73,2.73,0,0,1-1.84-.25,1.88,1.88,0,0,1-.88-1.9,2.67,2.67,0,0,1,1-1.75,4.78,4.78,0,0,1,1.54-.81c1-.33,1.87-.54,2.63-.75a7.08,7.08,0,0,1,2.47-.44,7.21,7.21,0,0,1-2.28,1.06l-2.53.91c-.9.34-1.8.92-1.9,1.88s.77,1.38,1.7,1.22a11.3,11.3,0,0,0,2.49-.72A15.56,15.56,0,0,1,440.25,280.59Z"/><path class="cls-11" d="M438.84,285.89c0,.1-.57.49-1.69,1a4.45,4.45,0,0,1-1,.32,1.6,1.6,0,0,1-1.34-.41,2.3,2.3,0,0,1-.68-2.84,4.32,4.32,0,0,1,2.23-1.69l1.89-.89c1.1-.51,1.85-.68,1.89-.56s-.59.48-1.59,1.12c-.51.32-1.11.69-1.82,1.07a4.09,4.09,0,0,0-1.8,1.37,1.5,1.5,0,0,0,.42,1.79.84.84,0,0,0,.72.29,4.41,4.41,0,0,0,.88-.17C438,286,438.8,285.74,438.84,285.89Z"/><path class="cls-11" d="M432.81,290.05c-.12,0-.36-.57-.95-1.41a7.67,7.67,0,0,0-3.05-2.58l-.6-.28.5-.46a13.83,13.83,0,0,0,1-1c2.75-3,3.36-6.39,3.62-6.31.11,0,.12.89-.27,2.22a12.14,12.14,0,0,1-2.68,4.7,13.89,13.89,0,0,1-1.11,1.07l-.1-.73a7.08,7.08,0,0,1,3.17,3.08C432.86,289.35,432.9,290,432.81,290.05Z"/><path class="cls-11" d="M439.33,289.92c.05.09-.42.58-1.48,1a2.73,2.73,0,0,1-2.13,0,2.28,2.28,0,0,1-1-.87,1.69,1.69,0,0,1-.14-1.55,4.45,4.45,0,0,1,1.82-1.78,13.24,13.24,0,0,1,1.7-.91c1-.46,1.68-.61,1.72-.49s-.52.46-1.41,1.05c-.45.29-1,.64-1.54,1a4.48,4.48,0,0,0-1.45,1.42,1.11,1.11,0,0,0,.69,1.34,2.2,2.2,0,0,0,1.57.12C438.63,290.09,439.27,289.78,439.33,289.92Z"/><path class="cls-4" d="M258.87,184.45a39.22,39.22,0,0,1-1.27,9.17,13.27,13.27,0,0,1-5.21,7.45c-2.49,1.58-6,2.39-6.83,5.22s1.52,6.29-.39,8.49a6.71,6.71,0,0,1-3.08,1.54,13.89,13.89,0,0,0-8.63,7.48c-1.74,4.21-.68,9.15,1.65,13.06s5.81,7,9.22,10L277,237.91s-12.71-51.75-12.53-51.39S258.87,184.45,258.87,184.45Z"/><path class="cls-4" d="M302.76,184.72a5.63,5.63,0,0,0,3,3.7,38,38,0,0,1,4.35,2.37,10.47,10.47,0,0,1,3.72,7.73,31,31,0,0,1-1.07,8.76,18.62,18.62,0,0,1,14.27,6.45,24.48,24.48,0,0,1,5.76,14.81c.21,3.86-.52,8.07-3.33,10.73-2.2,2.08-5.31,2.86-8.28,3.48-5.94,1.22-11.94,2.09-17.94,2.95s-12.46,1.64-18-.95c-4.59-2.17-7.89-6.45-10.06-11-3.23-6.82-4.32-14.51-4.07-22.05a106.82,106.82,0,0,1,3.65-22.29"/><path class="cls-4" d="M260.75,178.61c-3.09-1.11-6.3-2.24-9.58-2s-6.64,2.31-7.35,5.52a7.42,7.42,0,0,0,.87,5.06,15.16,15.16,0,0,0,3.37,4,7.65,7.65,0,0,0,4.6,2.37,6.46,6.46,0,0,0,3.8-1.32,10.09,10.09,0,0,0,4.35-6.28,7.1,7.1,0,0,0-2.55-7"/><path class="cls-12" d="M297.86,169.05s5.79-2.4,5.63-6.27-44.71-6.89-51.94,15.18c0,0,1.72,1.08,8.53.25"/><g class="cls-13"><path d="M297.86,169.05s5.79-2.4,5.63-6.27-44.71-6.89-51.94,15.18c0,0,1.72,1.08,8.53.25"/></g><path class="cls-10" d="M267.35,230.65,294.23,227c0-3.16-.93-15.35-.93-15.35s11.13-2.38,10.63-13.62S300,161.07,300,161.07h0a39.11,39.11,0,0,0-38.94,7.16l-1.59,1.38Z"/><path class="cls-4" d="M296.56,180a1.63,1.63,0,1,1,2.3-.24A1.64,1.64,0,0,1,296.56,180Z"/><path class="cls-4" d="M301.11,177.8c-.16.21-1.32-.58-2.86-.5s-2.63.95-2.81.76.07-.45.54-.85a3.83,3.83,0,0,1,4.52-.2C301,177.37,301.19,177.71,301.11,177.8Z"/><path class="cls-4" d="M281.9,179.72a1.63,1.63,0,1,1-2.21.66A1.62,1.62,0,0,1,281.9,179.72Z"/><path class="cls-4" d="M284.39,180.12c-.17.21-1.32-.58-2.87-.5s-2.62.94-2.8.75.06-.44.53-.84a3.74,3.74,0,0,1,2.23-.84,3.7,3.7,0,0,1,2.3.64C284.28,179.68,284.47,180,284.39,180.12Z"/><path class="cls-4" d="M291.31,192.53a7.56,7.56,0,0,1,2.48-.67c.4-.07.71-.18.73-.4a2.23,2.23,0,0,0-.36-1.14c-.45-1-.92-2-1.4-3.07-1.94-4.39-3.34-8-3.12-8.12s2,3.38,3.93,7.76l1.33,3.1a2.56,2.56,0,0,1,.32,1.67,1,1,0,0,1-.66.68,2.43,2.43,0,0,1-.69.13A7.5,7.5,0,0,1,291.31,192.53Z"/><path class="cls-11" d="M293.31,211.45a26.16,26.16,0,0,1-14.88-3.33s3.92,7.89,15.07,6.24Z"/><path class="cls-4" d="M300.41,163.89s-6.35,4.17-15.76.93c-6.18-2.14-13.12-2.66-14.45-1.3s1.77,12.87-3.74,15.37c0,0-.75,5.84-5.35,6S257,167.09,257,167.09l10.4-6.88,11.82-3.89,11.64.11,9.16,1.26Z"/><path class="cls-10" d="M261.53,181.16c-.19-.07-7.84-1.84-7.16,5.82s8.24,5.4,8.23,5.18S261.53,181.16,261.53,181.16Z"/><path class="cls-11" d="M260,189.46s-.13.11-.34.23a1.32,1.32,0,0,1-1,.11c-.83-.22-1.63-1.45-1.79-2.83a4.56,4.56,0,0,1,.2-1.94,1.55,1.55,0,0,1,.92-1.11.68.68,0,0,1,.82.29c.12.21.08.36.13.37s.15-.14.06-.45a.85.85,0,0,0-.35-.45,1,1,0,0,0-.75-.13,1.87,1.87,0,0,0-1.29,1.31,4.58,4.58,0,0,0-.27,2.18c.18,1.54,1.1,2.91,2.24,3.13a1.4,1.4,0,0,0,1.2-.31C260,189.65,260,189.48,260,189.46Z"/><path class="cls-4" d="M255,157.66c-.1-.22,1.15-.85,2.73-.45s2.38,1.54,2.19,1.69-1.11-.5-2.41-.81S255.05,157.91,255,157.66Z"/><path class="cls-4" d="M259.06,152.57c.28,0,.37,1.61.84,3.44s1.38,3.1,1.18,3.28-1.54-1-2.06-3S258.84,152.56,259.06,152.57Z"/><path class="cls-4" d="M293.45,175.71c-.29-.39,1.06-1.75,3.29-2s3.84.83,3.63,1.27-1.69.34-3.44.54S293.72,176.14,293.45,175.71Z"/><path class="cls-4" d="M270,163.24c2.53,1.2,4.64,3.09,7,4.64s5.07,2.79,7.83,2.39L284,169a46.38,46.38,0,0,0,12.89,2.34c1.62.07,3.51-.09,4.43-1.43s-.61-3.61-.91-6c-.21-1.74-.85-2.16-2.52-2.68a6.19,6.19,0,0,0-2.39-.07,95.21,95.21,0,0,1-18.26,0,18.06,18.06,0,0,0-4.28-.09,5.33,5.33,0,0,0-3.65,2"/><path class="cls-11" d="M291.57,194a1.5,1.5,0,0,0-1.66.07,1.83,1.83,0,0,0-.71,1.53,2.42,2.42,0,0,0,.72,1.56,2.19,2.19,0,0,0,1.23.66,2,2,0,0,0,2-1,2.1,2.1,0,0,0-.14-2.21,2.25,2.25,0,0,0-2-.89"/><path class="cls-4" d="M295.54,195.92c0,.1-.43.44-1.31.52A7.76,7.76,0,0,1,291,196c-2.47-.8-4.07-2.36-3.81-2.58s1.76,1,4.1,1.73a13.16,13.16,0,0,0,3,.7C295,195.88,295.48,195.79,295.54,195.92Z"/><path class="cls-4" d="M283.82,176.1c-.18.19-.54.13-1,.24s-1.22.3-2.2.45c-1.89.28-3.49.1-3.56-.39s1.4-1.12,3.3-1.4a5.52,5.52,0,0,1,2.66.07C283.79,175.37,284,176,283.82,176.1Z"/><path class="cls-4" d="M265,168.46c.47,6.15,2,12.18,2.44,18.33s-.42,12.71-4.17,17.6a8.41,8.41,0,0,1-5.28,3.55,3.07,3.07,0,0,1-3.25-1.37,3.81,3.81,0,0,1,.18-2.88,66.26,66.26,0,0,1,4.32-8.37c1.49-2.77,2.75-5.79,2.71-8.93a27.54,27.54,0,0,0-1.36-6.74,15.06,15.06,0,0,1-.64-6.81c.45-2.25,2-4.42,4.31-4.87"/><path class="cls-14" d="M279.1,162.61c20.12-3.35,24.2,0,24.39.17a4.23,4.23,0,0,0,.93-2.07c.38-6-7-7.3-7-7.3-5.72-20.45-24.22-17.28-24.22-17.28l0-.15a3.34,3.34,0,0,0-4.06-2.43l-2.88.72a3.35,3.35,0,0,0-2.43,4.07h0c-21.43,8.52-13,28.29-13,28.29l-3,4c-2.51,5.9,3.73,7.29,3.73,7.29S258.46,166.05,279.1,162.61Z"/><g class="cls-13"><path d="M268.51,156.12c-.25.07-1.57-3.77-3-8.57s-2.34-8.74-2.1-8.82,1.57,3.76,3,8.57S268.75,156.05,268.51,156.12Z"/></g><g class="cls-13"><path d="M279.24,152.81c-.24.08-1.72-3.57-3.3-8.16s-2.69-8.38-2.45-8.46,1.71,3.57,3.3,8.16S279.48,152.73,279.24,152.81Z"/></g><g class="cls-13"><path d="M296.59,154.34c0,.16-2.64-.45-6.91-.59A51.6,51.6,0,0,0,273.24,156a69.46,69.46,0,0,0-15.18,6.87c-3.68,2.2-5.83,3.77-5.92,3.65a8,8,0,0,1,1.41-1.24c.95-.75,2.36-1.78,4.17-2.95A60.94,60.94,0,0,1,273,155.15a47,47,0,0,1,16.73-2,35,35,0,0,1,5.07.71A7.23,7.23,0,0,1,296.59,154.34Z"/></g><g class="cls-15"><path class="cls-16" d="M269.69,159.72c.09.27-5.26,1.87-11,5.48s-9.6,7.65-9.81,7.45a11.74,11.74,0,0,1,2.37-2.79,41.12,41.12,0,0,1,14.92-9.25A11.74,11.74,0,0,1,269.69,159.72Z"/></g><g class="cls-15"><path class="cls-16" d="M252.52,163.53c-.58.16-1.62-1.19-2.18-3.8a17.32,17.32,0,0,1,8.18-17.93c2.33-1.3,4-1.39,4.29-.86.57,1.15-4.37,4.38-7.06,10.43S253.75,163.2,252.52,163.53Z"/></g><path class="cls-17" d="M248.86,363.91l82.35,2.75c-.19-5.61-3.83-39.7-6.11-62.12-.43-4.23,3.35-11.86,3-15.4-.91-8.83-2.26-9.11-2.26-9.11l5.17,8.5,23-23L331.2,238.05a42,42,0,0,0-29-15c-3.32-.26-5.83-.34-7.47-.45a47.85,47.85,0,0,1-28.79,1.62h0a39.15,39.15,0,0,0-11.79,3,49.16,49.16,0,0,0-18.32,13.39h0L203.39,283.4l33.4,18.89,11.61-13.72,3.53,33.69Z"/><path class="cls-16" d="M319.66,266.34c0,.25-12.06,1.14-27,2s-27,1.33-27,1.08,12.05-1.14,27-2S319.64,266.09,319.66,266.34Z"/><path class="cls-16" d="M317.36,257.67c0,.25-3.49.65-7.84.9s-7.88.25-7.9,0,3.5-.66,7.85-.9S317.35,257.42,317.36,257.67Z"/><path class="cls-4" d="M259.51,273.33a31.88,31.88,0,0,1-3.08,4.44c-2,2.68-4.79,6.33-7.93,10.32s-6,7.58-8.13,10.15a32.74,32.74,0,0,1-3.58,4.05,30.81,30.81,0,0,1,3.08-4.44c2-2.67,4.79-6.33,7.93-10.33s6-7.59,8.14-10.16A31.07,31.07,0,0,1,259.51,273.33Z"/><path class="cls-7" d="M274.44,639.93l-2,11.4s-17,24.92-22.76,24.07c-3.76-.55.45-7,6.42-25.57l1-7.58Z"/><path class="cls-4" d="M248.69,671.92a2.48,2.48,0,0,0,1,.88,3.42,3.42,0,0,0,3.48-.69,104.15,104.15,0,0,0,8.65-9.2c3.2-3.76,5.87-7.36,7.74-10l2.18-3.16.59-.86c.14-.19.22-.29.23-.28a2,2,0,0,1-.17.32c-.17.29-.35.58-.53.9-.48.77-1.19,1.88-2.09,3.22a118.6,118.6,0,0,1-7.67,10.1,89.6,89.6,0,0,1-8.78,9.16,4.28,4.28,0,0,1-2,.88,3.08,3.08,0,0,1-1.65-.26,2,2,0,0,1-.81-.68A1.07,1.07,0,0,1,248.69,671.92Z"/><path class="cls-4" d="M250.86,664.1a2.77,2.77,0,0,1,1.5-.27,7.88,7.88,0,0,1,3.54,1,6.3,6.3,0,0,1,2.67,2.52,3,3,0,0,1,.47,1.45c-.06,0-.21-.54-.69-1.32a6.87,6.87,0,0,0-2.62-2.34,9,9,0,0,0-3.38-1.06C251.44,664,250.87,664.16,250.86,664.1Z"/><path class="cls-4" d="M267.94,657.5a1.78,1.78,0,0,1-.25-.52,10.29,10.29,0,0,1-.46-1.52,8.34,8.34,0,0,1,.57-5.17,7.85,7.85,0,0,1,3.52-3.82,6.19,6.19,0,0,1,1.49-.56,1.7,1.7,0,0,1,.58-.06,14.33,14.33,0,0,0-1.95.84,8.17,8.17,0,0,0-3.31,3.75,8.63,8.63,0,0,0-.64,5C267.71,656.71,268,657.48,267.94,657.5Z"/><path class="cls-4" d="M273.38,641.91c.09,0-.23,1.62-.46,3.62a11.63,11.63,0,0,1-.77,3.59c-.08,0,.19-1.62.41-3.63A11.34,11.34,0,0,1,273.38,641.91Z"/><path class="cls-4" d="M255.82,651.43a5.41,5.41,0,0,1,4.55.78c-.05.1-1-.34-2.25-.54S255.83,651.54,255.82,651.43Z"/><path class="cls-4" d="M255.55,653.38a3.66,3.66,0,0,1,3.78.67c-.06.09-.82-.34-1.86-.52S255.57,653.48,255.55,653.38Z"/><path class="cls-4" d="M254.22,655.88a3,3,0,0,1,3.85.64,10.8,10.8,0,0,0-1.86-.68A9.28,9.28,0,0,0,254.22,655.88Z"/><path class="cls-4" d="M257,650.55c0-.06.83-.28,2.11-.87a16.15,16.15,0,0,0,2.16-1.19c.38-.26.78-.54,1.17-.85s.74-.73.7-1.15-.58-.63-1-.5a2.61,2.61,0,0,0-1.09.82c-.64.67-1.18,1.31-1.62,1.86-.88,1.1-1.37,1.83-1.41,1.8s.07-.21.27-.55.52-.83.94-1.4a20.26,20.26,0,0,1,1.58-1.94,2.89,2.89,0,0,1,1.23-.93,1.08,1.08,0,0,1,1.45.8,1.84,1.84,0,0,1-.84,1.46,12.88,12.88,0,0,1-1.21.86,14.52,14.52,0,0,1-2.24,1.15,13.89,13.89,0,0,1-1.6.53A1.77,1.77,0,0,1,257,650.55Z"/><path class="cls-4" d="M258,650.26a17.83,17.83,0,0,1-.46-2,8.65,8.65,0,0,0-.75-2.08,4.43,4.43,0,0,0-.75-1c-.29-.3-.73-.55-1-.33s-.35.71-.27,1.12a4.69,4.69,0,0,0,.43,1.21,6.72,6.72,0,0,0,1.3,1.78c.9.9,1.59,1.32,1.55,1.37a1.41,1.41,0,0,1-.5-.25,8,8,0,0,1-1.23-.93,6.83,6.83,0,0,1-1.42-1.81,5.29,5.29,0,0,1-.48-1.3,1.43,1.43,0,0,1,.43-1.5,1.23,1.23,0,0,1,1.49.38,4.59,4.59,0,0,1,.79,1.14,7.92,7.92,0,0,1,.71,2.19,14.58,14.58,0,0,1,.2,1.52C258,650.06,258,650.26,258,650.26Z"/><g class="cls-8"><path d="M272.4,651.33l1-5.48s-4.46,1.09-5.43,4.53a14.1,14.1,0,0,0-.55,5.82l-9.2,11.1s-2.73-4.66-7.11-3.25c0,0-3.06,7.89-2.85,9.82.24,2.11,2.45,1.56,3.23,1.15a39.39,39.39,0,0,0,8.37-7.41C264.74,661.93,270.08,654.78,272.4,651.33Z"/></g><path class="cls-10" d="M198.22,338.14a27.33,27.33,0,0,1-1.92-36l12.84-15.52,25.6,14.48c-.77.57-16,19.08-16,19.08l30.51,33.9a20.44,20.44,0,0,1,4.48,19.24L250,393.49l-24.17-9.23,1.45-2.53,15.64-.89.72-3.8h0Z"/><path class="cls-11" d="M212.24,314.23c.17-.17,1.91,1.21,4,3s3.48,3.66,3.28,3.83-1.82-1.34-3.89-3.16S212.05,314.41,212.24,314.23Z"/><polygon class="cls-4" points="270.2 367.57 269.8 278.32 320.8 275.43 329.92 369.55 270.2 367.57"/><path class="cls-5" d="M315,298.87c0,.05-.37.41-1.13,1a32.11,32.11,0,0,1-3.39,2.31,47.93,47.93,0,0,1-25.93,6.88,34.11,34.11,0,0,1-4.1-.33,4.93,4.93,0,0,1-1.47-.32c0-.15,2.14.06,5.57,0a54.69,54.69,0,0,0,25.61-6.79C313.13,300,314.87,298.75,315,298.87Z"/><path class="cls-5" d="M280,313.92c-.25,0-.53-.55-.61-1.24s.05-1.3.29-1.35.52.5.61,1.24S280.22,313.91,280,313.92Z"/><path class="cls-5" d="M279.14,323.78c-.25,0-.33-1.15-.17-2.51s.48-2.44.73-2.41.33,1.15.17,2.5S279.39,323.8,279.14,323.78Z"/><path class="cls-5" d="M280.9,333.36c-.2.14-1-.74-1.47-2.1s-.4-2.52-.16-2.55.59,1,1,2.26S281.11,333.22,280.9,333.36Z"/><path class="cls-5" d="M289.44,337.29c0,.24-1.11.5-2.53.32s-2.44-.85-2.33-1.07,1.15,0,2.45.17S289.44,337,289.44,337.29Z"/><path class="cls-5" d="M299.32,336.64c0,.25-1.07.53-2.44.63s-2.48,0-2.5-.28,1.08-.53,2.44-.63S299.3,336.39,299.32,336.64Z"/><path class="cls-5" d="M309.2,335.93c0,.25-1.08.54-2.44.63s-2.49,0-2.5-.27,1.07-.53,2.44-.63S309.18,335.68,309.2,335.93Z"/><path class="cls-5" d="M317,331c.23.05.17,1.28-.73,2.49S314.07,335,314,334.8s.78-.84,1.53-1.84S316.72,331,317,331Z"/><path class="cls-5" d="M318.23,321.22c.25,0,.35,1.14.22,2.5s-.43,2.45-.68,2.43-.34-1.15-.22-2.51S318,321.2,318.23,321.22Z"/><path class="cls-5" d="M318.66,311.33c.25,0,.42,1.11.39,2.49s-.27,2.47-.52,2.46-.43-1.13-.39-2.49S318.41,311.33,318.66,311.33Z"/><path class="cls-5" d="M318.54,303.78c.25,0,.48.56.5,1.29s-.16,1.31-.41,1.31-.47-.57-.5-1.29S318.3,303.79,318.54,303.78Z"/><path class="cls-4" d="M251.21,228.51s21,4.25,24.07,52.74l8.32-.47s-.13-40.87-23.51-55.6C260.09,225.18,253.51,224,251.21,228.51Z"/><path class="cls-4" d="M294.7,222.58s15.06,6.11,18.17,54.61l7.07-.4s-2-45.47-16.35-53.64C303.59,223.15,299.28,220.42,294.7,222.58Z"/><path class="cls-5" d="M283.33,277.07a5.73,5.73,0,0,1,.67,2.72,5.09,5.09,0,0,1-.75,3.07,4.41,4.41,0,0,1-3.44,1.84,4.46,4.46,0,0,1-3.72-1.17,5,5,0,0,1-1.26-2.9,5.63,5.63,0,0,1,.19-2.79,17.5,17.5,0,0,1,.44,2.68,4.72,4.72,0,0,0,1.23,2.42,3.7,3.7,0,0,0,3,.85,3.74,3.74,0,0,0,2.84-1.4,4.87,4.87,0,0,0,.79-2.59A17.78,17.78,0,0,1,283.33,277.07Z"/><path class="cls-5" d="M279.28,278.74c-.06-.1.43-.41,1.09,0a1.31,1.31,0,0,1,.55,1.24,1.5,1.5,0,0,1-1.12,1.26,1.52,1.52,0,0,1-1.56-.66,1.29,1.29,0,0,1,0-1.35c.41-.68,1-.61,1-.49s-.3.3-.4.74a.66.66,0,0,0,.14.62.66.66,0,0,0,1.17-.26.7.7,0,0,0-.15-.62C279.67,278.89,279.3,278.86,279.28,278.74Z"/><path class="cls-5" d="M320,275c.09,0,.54.81.54,2.34a5.12,5.12,0,0,1-.72,2.58,4.06,4.06,0,0,1-2.73,2,3.39,3.39,0,0,1-3.2-1.08,4.9,4.9,0,0,1-1.12-2.46,4.54,4.54,0,0,1,0-2.38,10.78,10.78,0,0,1,.59,2.24,4.69,4.69,0,0,0,1.1,2,2.63,2.63,0,0,0,2.43.76,3.41,3.41,0,0,0,2.19-1.51,5.05,5.05,0,0,0,.78-2.19C320.06,275.87,319.86,275,320,275Z"/><path class="cls-5" d="M316.12,276.35c-.09-.06.2-.53,1-.47a1.3,1.3,0,0,1,1.05.81,1.47,1.47,0,0,1-.35,1.61,1.43,1.43,0,0,1-1.66.16,1.23,1.23,0,0,1-.62-1.19c.11-.78.69-.93.71-.81s-.15.38-.07.8a.59.59,0,0,0,.36.46.67.67,0,0,0,.67-.09.71.71,0,0,0,.17-.66.69.69,0,0,0-.41-.47C316.54,276.32,316.2,276.46,316.12,276.35Z"/><path class="cls-4" d="M331.21,366.66l57,83.08a12.33,12.33,0,0,1,.68,12.82L354.76,649.12l-21.38-7.21,2.1-52.83,3.59-90.51c.32-8.08.72-16.16,1.37-24.22.49-6.22,2.93-15-1.86-20.18L283.85,395l.63-25.69Z"/><polygon class="cls-4" points="248.63 359.91 239.73 647.56 281.31 645.2 302.88 400.29 300.38 365.86 248.63 359.91"/><path class="cls-5" d="M271.1,371.28a6.69,6.69,0,0,1-.75,3.22,14.41,14.41,0,0,1-12.57,8.83,6.81,6.81,0,0,1-3.29-.38c0-.15,1.27,0,3.23-.26a15.86,15.86,0,0,0,7.1-2.71,16,16,0,0,0,4.95-5.75C270.67,372.47,271,371.24,271.1,371.28Z"/><path class="cls-5" d="M290.86,527.2a8.17,8.17,0,0,1,.1-1.44l.48-4.11c.41-3.65,1-8.79,1.69-15.1,1.38-12.76,3.07-30.42,4.74-49.93s3-37.2,3.78-50c.38-6.34.7-11.5.92-15.18.1-1.72.18-3.1.24-4.12a9.28,9.28,0,0,1,.15-1.44,9.4,9.4,0,0,1,0,1.44c0,1-.05,2.41-.08,4.14-.1,3.59-.3,8.78-.63,15.19-.65,12.83-1.88,30.53-3.52,50.06s-3.46,37.17-5,49.92c-.76,6.38-1.46,11.53-2,15.08-.27,1.71-.49,3.07-.65,4.08A8.3,8.3,0,0,1,290.86,527.2Z"/><polygon class="cls-18" points="192.87 634.01 192.79 629.22 202.94 614.1 214.55 629.19 214.55 634.01 192.87 634.01"/><g class="cls-19"><polygon points="192.87 634.01 192.79 629.22 202.94 614.1 214.55 629.19 214.55 634.01 192.87 634.01"/></g><path class="cls-12" d="M152.72,615.81c.24-.12,51.19,0,51.19,0v4.27H156.22Z"/><g class="cls-19"><path d="M152.72,615.81c.24-.12,51.19,0,51.19,0v4.27H156.22Z"/></g><polygon class="cls-18" points="150.03 614.09 137.71 629.62 137.71 667.42 161.5 667.42 161.5 628.77 150.03 614.09"/><polygon class="cls-18" points="218.8 667.42 218.8 628.62 208.16 614.09 202.91 614.09 214.55 629.19 214.55 634.01 165.71 634.01 165.71 627.91 153.67 614.09 150.03 614.09 161.5 628.77 161.5 667.42 218.8 667.42"/><path class="cls-4" d="M218.56,637.13c0,.15-12.86.27-28.71.27s-28.72-.12-28.72-.27,12.86-.26,28.72-.26S218.56,637,218.56,637.13Z"/><path class="cls-4" d="M218.38,665.27c0,.14-12.86.26-28.72.26s-28.71-.12-28.71-.26,12.85-.26,28.71-.26S218.38,665.12,218.38,665.27Z"/><g class="cls-20"><polygon class="cls-16" points="150.03 614.09 137.71 629.62 137.71 667.42 161.5 667.42 161.5 628.77 150.03 614.09"/></g><path class="cls-18" d="M37,664.19v-2a8.33,8.33,0,0,1,8.33-8.33h70.19a8.33,8.33,0,0,1,8.33,8.33v2Z"/><path class="cls-21" d="M77.71,575.15,52.32,653.88h54.24L83,575.21A2.77,2.77,0,0,0,77.71,575.15Z"/><g class="cls-13"><polygon class="cls-16" points="69.44 600.79 90.66 600.79 99.83 631.41 59.57 631.41 69.44 600.79"/></g><g class="cls-19"><polygon points="52.32 653.88 106.56 653.88 104.6 647.33 53.38 650.61 52.32 653.88"/></g><g class="cls-15"><path class="cls-16" d="M49.5,656.69c0,.08-.67-.06-1.73,0a8.54,8.54,0,0,0-6.94,3.76c-.59.87-.84,1.5-.92,1.47a3.68,3.68,0,0,1,.61-1.66,8,8,0,0,1,3.07-3,7.83,7.83,0,0,1,4.18-.93A3.43,3.43,0,0,1,49.5,656.69Z"/></g><g class="cls-15"><path class="cls-16" d="M61.83,633.55a53.36,53.36,0,0,1-2.31,7,51.34,51.34,0,0,1-2.8,6.84,53.74,53.74,0,0,1,2.31-7A51.53,51.53,0,0,1,61.83,633.55Z"/></g><g class="cls-15"><path class="cls-16" d="M79.56,575.77a22.91,22.91,0,0,1-1,3.32C77.88,581.26,77,584,76,587s-1.85,5.78-2.54,8a25,25,0,0,1-1.15,3.26,21.31,21.31,0,0,1,.79-3.37c.57-2.06,1.4-4.9,2.41-8s2-5.89,2.72-7.9A23.06,23.06,0,0,1,79.56,575.77Z"/></g><path class="cls-7" d="M649.3,625.34l1.41,33.33-41.46,2c0-4,21.13-12.94,21.13-12.94l-1.79-21.32Z"/><g class="cls-22"><path class="cls-16" d="M643.11,645.29a1.7,1.7,0,0,1,1.27,1.88,1.64,1.64,0,0,1-1.85,1.27,1.79,1.79,0,0,1-1.33-2,1.69,1.69,0,0,1,2.07-1.1"/></g><g class="cls-22"><path class="cls-16" d="M650.71,658.67l-.14-3.36-39.78,3.15s-1.81.89-1.54,2.18Z"/></g><path class="cls-4" d="M629.69,647.52c0,.2,1,.25,2.06.85s1.6,1.43,1.79,1.34-.18-1.25-1.44-2S629.64,647.34,629.69,647.52Z"/><path class="cls-4" d="M625.43,649.52c0,.2.86.51,1.59,1.33s1,1.72,1.17,1.7.27-1.17-.65-2.18S625.43,649.33,625.43,649.52Z"/><path class="cls-4" d="M623.21,654.85c.18,0,.42-1-.15-2.08s-1.55-1.48-1.62-1.3.53.73,1,1.63S623,654.84,623.21,654.85Z"/><path class="cls-4" d="M629.83,642.61c.09.19,1-.14,2.15-.11s2.06.34,2.16.16-.8-.86-2.15-.87S629.72,642.46,629.83,642.61Z"/><path class="cls-4" d="M630.58,637.65a4,4,0,0,0,2.08-.11,9.65,9.65,0,0,0,2.14-.77,11,11,0,0,0,1.16-.69,2.32,2.32,0,0,0,.6-.52.88.88,0,0,0,.05-1.08,1.1,1.1,0,0,0-.91-.42,2.86,2.86,0,0,0-.78.14,8,8,0,0,0-1.27.51,7.3,7.3,0,0,0-1.85,1.34c-.92.94-1.21,1.71-1.14,1.75s.53-.59,1.47-1.38a8.42,8.42,0,0,1,1.81-1.13,7.66,7.66,0,0,1,1.17-.42c.43-.14.81-.16.93,0s.05.1,0,.23a2,2,0,0,1-.45.38,8.32,8.32,0,0,1-1.07.68,11.14,11.14,0,0,1-2,.87A14.54,14.54,0,0,0,630.58,637.65Z"/><path class="cls-4" d="M630.86,637.93a3.38,3.38,0,0,0,.45-2,6.64,6.64,0,0,0-1-3.49,1.72,1.72,0,0,0-1.37-1,1,1,0,0,0-.84.62,2.74,2.74,0,0,0-.18.77,5,5,0,0,0,.06,1.4,4.88,4.88,0,0,0,1,2.11c.86,1,1.72,1.23,1.73,1.16s-.66-.46-1.33-1.46a4.86,4.86,0,0,1-.75-1.92,4.37,4.37,0,0,1,0-1.2c0-.45.19-.81.35-.77s.58.3.76.64a7.21,7.21,0,0,1,.57,1.1,7.4,7.4,0,0,1,.5,2.06C630.93,637.13,630.75,637.9,630.86,637.93Z"/><path class="cls-7" d="M679.49,624l-.34,35.45L635,659.27c.28-4.21,23.13-12.57,23.13-12.57L657.45,624Z"/><g class="cls-22"><path class="cls-16" d="M671.82,644.84a1.81,1.81,0,0,1,1.24,2.07,1.73,1.73,0,0,1-2,1.24,1.9,1.9,0,0,1-1.3-2.19A1.8,1.8,0,0,1,672,644.9"/></g><g class="cls-22"><path class="cls-16" d="M679.15,659.46l0-3.58L636.79,657s-2,.85-1.75,2.23Z"/></g><path class="cls-4" d="M657.46,646.47c0,.22,1.08.32,2.14,1s1.62,1.6,1.82,1.52-.12-1.33-1.42-2.16S657.41,646.27,657.46,646.47Z"/><path class="cls-4" d="M652.82,648.36c-.05.21.89.58,1.61,1.5s.94,1.88,1.15,1.87.36-1.23-.57-2.35S652.83,648.16,652.82,648.36Z"/><path class="cls-4" d="M650.17,653.89c.2.05.5-1,0-2.21s-1.56-1.65-1.65-1.48.53.82,1,1.79S650,653.87,650.17,653.89Z"/><path class="cls-4" d="M657.87,641.27c.09.2,1.08-.09,2.3,0s2.16.48,2.27.3-.79-1-2.23-1S657.77,641.1,657.87,641.27Z"/><path class="cls-4" d="M658.94,636a4.1,4.1,0,0,0,2.21,0,9.65,9.65,0,0,0,2.32-.7,9.18,9.18,0,0,0,1.27-.67,3,3,0,0,0,.67-.51.94.94,0,0,0,.1-1.15,1.18,1.18,0,0,0-.94-.5,2.91,2.91,0,0,0-.83.12,7.11,7.11,0,0,0-1.37.46,7.65,7.65,0,0,0-2,1.33c-1,.94-1.38,1.75-1.3,1.79s.59-.6,1.64-1.38a8.63,8.63,0,0,1,2-1.1,8.53,8.53,0,0,1,1.27-.39c.47-.12.87-.12,1,.09s.05.11,0,.24a2.08,2.08,0,0,1-.49.38,12.71,12.71,0,0,1-1.17.66,11.86,11.86,0,0,1-2.14.81A17.28,17.28,0,0,0,658.94,636Z"/><path class="cls-4" d="M659.22,636.35c.08,0,.51-.73.59-2.13a7,7,0,0,0-.29-2.42,6.89,6.89,0,0,0-.55-1.34,1.83,1.83,0,0,0-1.41-1.12,1,1,0,0,0-.92.61,2.78,2.78,0,0,0-.23.81,4.66,4.66,0,0,0,0,1.49,5,5,0,0,0,.93,2.28c.86,1.15,1.76,1.41,1.78,1.34s-.68-.53-1.34-1.63a5.26,5.26,0,0,1-.69-2.08,4.63,4.63,0,0,1,0-1.28c.07-.47.25-.84.42-.79s.59.35.77.72a7.49,7.49,0,0,1,.55,1.2,7.78,7.78,0,0,1,.41,2.21C659.34,635.51,659.11,636.32,659.22,636.35Z"/><path class="cls-4" d="M590.47,424c-1.9,1.09-3,27.18,1.88,40.14s22.52,82,22.52,82l13,93.71,22.28-1.23-7.91-202.42Z"/><path class="cls-4" d="M619,436.28s8.11,57.22,13.37,80.12,7.15,30.52,7.15,30.52,9,18,9,18.45l7.83,73H680s6.21-63.94,2.83-76.71-8.63-32.28-7.5-46.55,1.5-44.55,1.5-47,6-19.74,6-19.74A48.88,48.88,0,0,0,685.24,431C684.86,421.17,619,436.28,619,436.28Z"/><path class="cls-5" d="M648.55,563.89s-.08-.09-.2-.28-.29-.52-.49-.86L646,559.4c-1.61-3-3.9-7.18-6.7-12.36l0,0v0c-3.06-10.63-6.9-25.23-10.6-41.43-3.84-16.69-6.94-31.88-9.13-42.88l-2.53-13c-.28-1.49-.49-2.68-.65-3.55l-.15-.93a1.29,1.29,0,0,1,0-.32,1.59,1.59,0,0,1,.1.31l.22.91c.19.87.45,2,.78,3.53.66,3.13,1.59,7.55,2.75,13,2.31,11,5.48,26.14,9.32,42.82,3.71,16.19,7.47,30.8,10.41,41.45l0-.05c2.72,5.22,4.93,9.47,6.5,12.47.73,1.44,1.31,2.57,1.73,3.41l.44.89A1.76,1.76,0,0,1,648.55,563.89Z"/><path class="cls-5" d="M677.65,466.57c-.18.1-1.29-1.6-2.85-3.54s-3-3.4-2.83-3.55,1.79,1.11,3.38,3.11S677.81,466.48,677.65,466.57Z"/><path class="cls-4" d="M628.81,224.09c-.62-5.38-1.47-11-4.62-15.38a16.86,16.86,0,0,0-23.06-4.23l-2.69,1.7A68.67,68.67,0,0,0,595,226.79c0,4.07,1.86,8.31,4.31,11.57,1.18,1.57,2.86,2.77,3.78,4.5.82,1.54,1,3.34,1.59,5,2,5.18,8.81,7.35,14,5.35s8.62-7.15,9.94-12.54S629.45,229.6,628.81,224.09Z"/><path class="cls-14" d="M601.6,205.74c-6-1.65-9.6-3.83-9.57-6.17s10.35-7.9,12.74-9.33c5.63-3.39,12.37.9,22.3,1,19.29.26,34.87,4.38,34.81,9.22,0,2.33-3.69,4.4-9.63,5.9"/><g class="cls-8"><path class="cls-14" d="M604.94,205.61c-5.28-1.46-8.65-3.4-8.48-5.47.44-5.76,14-7.58,31-7.36s30.91,3.88,30.85,8.17c0,2.07-3.27,3.9-8.54,5.23"/></g><path class="cls-10" d="M649.48,204.47A23.64,23.64,0,0,0,625,181c-12.64.47-22.51,11.23-22.74,23.88-.2,11.09-.15,22.26.42,26.24,1.75,12,9.4,15.74,12.44,16.77a15.46,15.46,0,0,0,3.27.37h0a.09.09,0,0,1,.08.08l-.85,14.16c0,9.2,6.11,16.59,15.31,16.71s15.39-7.76,15.57-17Z"/><path class="cls-4" d="M606.15,213.14a1.93,1.93,0,0,0,1.84,2,1.85,1.85,0,0,0,2-1.71,1.92,1.92,0,0,0-1.83-2A1.85,1.85,0,0,0,606.15,213.14Z"/><path class="cls-4" d="M605.42,207.8c.23.25,1.71-.81,3.78-.78s3.58,1.09,3.81.84-.13-.57-.78-1.06a5.28,5.28,0,0,0-3.05-1,5.05,5.05,0,0,0-3,.93C605.52,207.23,605.3,207.68,605.42,207.8Z"/><path class="cls-4" d="M625,213.14a1.92,1.92,0,0,0,1.83,2,1.85,1.85,0,0,0,2-1.71,1.92,1.92,0,0,0-1.83-2A1.84,1.84,0,0,0,625,213.14Z"/><path class="cls-4" d="M625.8,208.45c.23.26,1.71-.81,3.78-.77s3.58,1.09,3.81.84-.12-.57-.78-1.06a5.34,5.34,0,0,0-3-1,5.13,5.13,0,0,0-3,.93C625.91,207.89,625.68,208.34,625.8,208.45Z"/><path class="cls-4" d="M618.07,223.73a14.56,14.56,0,0,0-3.36-.65c-.53-.06-1-.17-1.11-.53A2.72,2.72,0,0,1,614,221c.52-1.27,1-2.61,1.62-4,2.25-5.71,3.89-10.41,3.66-10.5s-2.25,4.47-4.5,10.18c-.54,1.41-1.06,2.75-1.55,4a3,3,0,0,0-.3,2.07,1.34,1.34,0,0,0,.86.79,3.54,3.54,0,0,0,.9.14A13,13,0,0,0,618.07,223.73Z"/><path class="cls-11" d="M618.42,248.28s8,.76,18.09-5.13c0,0-3.29,10.55-18.32,8.94Z"/><path class="cls-11" d="M618.88,228.74a3.75,3.75,0,0,1,3.37-1.34,3.42,3.42,0,0,1,2.34,1.29,2.16,2.16,0,0,1,.13,2.48,2.52,2.52,0,0,1-2.73.65,7.94,7.94,0,0,1-2.63-1.62,2.28,2.28,0,0,1-.58-.62.69.69,0,0,1,0-.77"/><path class="cls-4" d="M624.16,225.25c-.34,0-.37,2.23-2.32,3.8s-4.34,1.29-4.36,1.61c0,.14.52.44,1.54.48a5.61,5.61,0,0,0,3.64-1.21,5,5,0,0,0,1.8-3.19C624.55,225.8,624.31,225.24,624.16,225.25Z"/><path class="cls-4" d="M625.11,201.91c.2.56,2.27.32,4.7.65s4.39,1,4.72.51c.15-.24-.19-.77-1-1.33a7.74,7.74,0,0,0-3.48-1.27,7.86,7.86,0,0,0-3.69.38C625.48,201.2,625,201.64,625.11,201.91Z"/><path class="cls-4" d="M606.25,202.47c.36.47,1.79,0,3.51,0s3.17.36,3.51-.13c.15-.24-.07-.71-.7-1.17a4.88,4.88,0,0,0-2.85-.81,4.93,4.93,0,0,0-2.81.91C606.3,201.75,606.09,202.23,606.25,202.47Z"/><path class="cls-4" d="M617.79,190.61a13.21,13.21,0,0,0,9.68,5.79c2.54.23,5.44-.18,7.34,1.53,1.39,1.24,1.76,3.22,2.36,5,.91,2.69.8,6,3.25,7.42,1.92,1.12,3.45.79,4.83,2.53s1.68,4.51,1.69,6.84.16,6,2.24,7.09c.19-8.51,3-18.09,3.16-26.6a10.1,10.1,0,0,0-.39-3.76c-1-2.69-4-4-6.74-4.78-7.8-2.23-16-2.6-24.09-3"/><path class="cls-14" d="M596.86,197.36s5.27-20.47,5.71-21.46S609,166,623,163.6l11.56.15s16.34,5.5,19.28,9.53,4,23.46,4,23.46l-32.33-7.47-22.11,5.09Z"/><path class="cls-14" d="M626.81,161.3l-3.19,0a3.24,3.24,0,0,0-3,1.92,9.73,9.73,0,0,0-.78,3.25c-.28,3.59-1.41,28.23-1.41,28.23l14.49-.47-.06-30.46,4.9,1.16-.06-.9a2.66,2.66,0,0,0-.6-1.47h0a2.6,2.6,0,0,0-1.94-1Z"/><path class="cls-5" d="M600.91,199.46l1.62-7.12,22.75-6.75L652.41,194l-.11,8S629.5,192.53,600.91,199.46Z"/><path class="cls-14" d="M604.77,190.24l-1,.92-7.72,5.61s14.93-4.83,30.54-4.46S660,198.18,660,198.18l-10.25-6.35h0A17.82,17.82,0,0,0,637.16,186l-19.58-.64A17.83,17.83,0,0,0,604.77,190.24Z"/><path class="cls-4" d="M598.3,197.08s.15-.17.49-.42a9.61,9.61,0,0,1,1.59-1,27.83,27.83,0,0,1,6.46-2.15,72.74,72.74,0,0,1,22.34-1c4.34.37,8.5.64,12.26,1.23a92.37,92.37,0,0,1,9.84,2.21,38.24,38.24,0,0,1,3.68,1.25,6.3,6.3,0,0,1,2.55,1.53,2.67,2.67,0,0,1,.71,1.75,1.09,1.09,0,0,1-.16.64,2.62,2.62,0,0,0-.8-2.16,6.2,6.2,0,0,0-2.47-1.31c-1.07-.38-2.29-.76-3.67-1.12-2.75-.69-6.1-1.43-9.79-2s-7.87-.78-12.22-1.15a78.8,78.8,0,0,0-22.15.78,32.42,32.42,0,0,0-6.44,1.85C599.05,196.6,598.36,197.17,598.3,197.08Z"/><path class="cls-4" d="M601,199.23c-1.56,6.51-9.32,16.8,1.2,23.41,0,0,.29-14.13,1.51-19.58a11.19,11.19,0,0,1,1.84-4.57"/><path class="cls-4" d="M649.12,201.84a12.32,12.32,0,0,1,12.27,11.82c0,1.65-.33,3.35.13,4.94s1.61,2.79,2.3,4.25c1.35,2.9,2.44,7.89,2,11.06-1.13,7.53-8.48,18-16.92,17.84"/><path class="cls-4" d="M651,245.32a5.41,5.41,0,0,1-5-.54,9.82,9.82,0,0,1-3.34-4,17.6,17.6,0,0,1,.23-16.19,25.83,25.83,0,0,1-4.8-23.9l12,1.24Z"/><path class="cls-4" d="M596,195.5a4.51,4.51,0,0,0,.63-.32l1.77-1,6.45-3.77,0,0,0,0,1.49-1.93a10.49,10.49,0,0,1,1.7-1.95,6.73,6.73,0,0,1,2.4-1.26,11.93,11.93,0,0,1,2.92-.27c4.09-.08,8.58,0,13.3.24,4.39.19,8.58.43,12.43.68a8.45,8.45,0,0,1,2.7.46,6.46,6.46,0,0,1,2.18,1.37c1.16,1.23,2.22,2.5,3.21,3.61l0,0,0,0,7.65,3.71,2.1,1a4,4,0,0,0,.75.31l-.7-.41-2.05-1.07L647.47,191l.06.05c-1-1.14-2-2.38-3.2-3.68a6.88,6.88,0,0,0-2.32-1.48,8.68,8.68,0,0,0-2.83-.5c-3.84-.28-8-.54-12.44-.73-4.72-.19-9.23-.3-13.33-.19a11.82,11.82,0,0,0-3,.31,7,7,0,0,0-2.55,1.36,11.3,11.3,0,0,0-1.75,2c-.51.67-1,1.33-1.46,1.95l0,0L598.31,194l-1.72,1.09A3,3,0,0,0,596,195.5Z"/><path class="cls-4" d="M632.89,185.21a4.16,4.16,0,0,0,.1-1c0-.65,0-1.59.07-2.76,0-2.32.06-5.54.05-9.09,0-1.77,0-3.45,0-5q0-1.15,0-2.19a.92.92,0,0,1,1-.95l2.69.55a4.62,4.62,0,0,0,1,.13,4,4,0,0,0-1-.33c-.63-.18-1.51-.43-2.68-.71a1.31,1.31,0,0,0-1.47,1.31l0,2.19v5c0,3.55,0,6.77.1,9.09,0,1.17,0,2.11.09,2.76A3.61,3.61,0,0,0,632.89,185.21Z"/><path class="cls-4" d="M618.87,184.74a13.57,13.57,0,0,0,.48-3c.21-1.86.36-4.45.49-7.29s.23-5.43.28-7.3a18,18,0,0,0,0-3,18.14,18.14,0,0,0-.33,3c-.13,1.87-.28,4.45-.42,7.29s-.24,5.27-.34,7.29A22.58,22.58,0,0,0,618.87,184.74Z"/><path class="cls-4" d="M655.92,204.89a4.11,4.11,0,0,1,3.44,2.83,27.62,27.62,0,0,1,.94,4.62,5.81,5.81,0,0,0,2.27,4c1.16.72,2.64.74,3.81,1.45a3.79,3.79,0,0,1,1.13,5.16,6.42,6.42,0,0,1,1.2,12c2,2.89.8,7.08-1.64,9.63a12.72,12.72,0,0,1-21.78-7"/><path class="cls-5" d="M664.16,217.29c-.06,0-.08-.5-.38-1.33a5.43,5.43,0,0,0-2.33-2.73,14.9,14.9,0,0,0-5.24-1.65c-2.07-.36-4.42-.52-6.84-1.13a11.36,11.36,0,0,1-3.39-1.38,15.35,15.35,0,0,1-2.62-2.17,39.92,39.92,0,0,1-3.59-4.39c-.94-1.31-1.67-2.39-2.16-3.13a5.85,5.85,0,0,1-.73-1.2,34.61,34.61,0,0,1,3.28,4,45.87,45.87,0,0,0,3.66,4.23,15.43,15.43,0,0,0,2.52,2.05,11.29,11.29,0,0,0,3.21,1.28c2.33.58,4.67.77,6.77,1.17a14.27,14.27,0,0,1,5.39,1.87,5.43,5.43,0,0,1,2.33,3.07A2.84,2.84,0,0,1,664.16,217.29Z"/><path class="cls-5" d="M671.33,231.54c-.07,0-.13-.68-.54-1.82a11.06,11.06,0,0,0-2.86-4.18,19.33,19.33,0,0,0-6.45-3.95c-2.67-1.08-5.77-1.89-8.9-3.2a23.39,23.39,0,0,1-7.86-5.37,39.33,39.33,0,0,1-4.78-6.12c-1.2-1.85-2.08-3.4-2.67-4.48a9.82,9.82,0,0,1-.86-1.71,9.11,9.11,0,0,1,1.09,1.57c.67,1,1.61,2.54,2.85,4.35a42.77,42.77,0,0,0,4.83,5.93,23.24,23.24,0,0,0,7.68,5.18c3.06,1.29,6.16,2.11,8.87,3.25a19.37,19.37,0,0,1,6.55,4.19,10.68,10.68,0,0,1,2.77,4.46,6.93,6.93,0,0,1,.28,1.4C671.35,231.37,671.36,231.54,671.33,231.54Z"/><path class="cls-5" d="M596.21,217.12a9.65,9.65,0,0,1,.58-2.77,53.1,53.1,0,0,1,5.46-12.48,9.61,9.61,0,0,1,1.64-2.31c.18.11-2,3.81-4.12,8.65S596.41,217.17,596.21,217.12Z"/><path class="cls-4" d="M591.84,282.3c-3.12,4.82-20.72,56.2-20.94,59.58s-.67,14.66,1.78,16.92,18.1,1.31,18.1,1.31L607,270.19V269S595,277.47,591.84,282.3Z"/><path class="cls-4" d="M583.66,360.35c-4.48,0-9.66-.29-11-1.52-2.67-2.47-1.89-15.48-1.79-16.95.12-1.79,4.92-16.41,9.38-29.26,4.52-13,9.93-27.82,11.56-30.34h0c3.08-4.78,15-13.23,15.14-13.31l0,0v1.26l-16.19,89.95h0C590.5,360.16,587.31,360.35,583.66,360.35Zm8.2-78c-1.62,2.52-7,17.32-11.54,30.33-4.46,12.85-9.27,27.46-9.39,29.24-.09,1.47-.87,14.45,1.77,16.9,2.37,2.18,17.32,1.34,18,1.3l16.18-89.89v-1.13c-.87.62-12.09,8.65-15.07,13.25Z"/><path class="cls-17" d="M617.73,259l-3.14,30.43s29.62-25.06,33.91-30.05h0l12.5,2.46a31.12,31.12,0,0,1,24.1,22.06A51.35,51.35,0,0,1,687,297.45c0,16.37-3.21,108.91-3.21,108.91s3.21,29.5.26,38.35-2.68,6.71-2.68,6.71S661,445.25,652.14,445s-30.56-.82-40.22-4.3-23.35-15.55-23.35-15.55L593.9,304.5a64.39,64.39,0,0,1,12-34.67h0Z"/><g class="cls-23"><path class="cls-16" d="M590.4,383.84s93.78,11.82,93.82,12.24-.4,9.53-.4,9.53l.55,6.88-94.82-9.44Z"/></g><g class="cls-23"><path class="cls-16" d="M590.92,371.9c.84-.18,62.75,3,69.33,5.7s24.43,4.06,24.43,4.06.93-16.09.72-15.89-18.76,0-21.86-1.36-8.71-7.17-8.71-7.17l-63.09-3.8Z"/></g><path class="cls-4" d="M652.54,272.28a12,12,0,0,1-.93,1.92c-.33.6-.72,1.34-1.13,2.22s-.94,1.85-1.42,3c-1,2.22-2.11,4.92-3.17,8a86,86,0,0,0-4.29,20.49c-.25,3.21-.35,6.12-.3,8.56s.13,4.42.25,5.78a11.82,11.82,0,0,1,.08,2.13,13.3,13.3,0,0,1-.35-2.1c-.2-1.36-.37-3.34-.48-5.79a78.18,78.18,0,0,1,.15-8.63,79.82,79.82,0,0,1,4.33-20.65,76.6,76.6,0,0,1,3.33-8c.51-1.12,1.06-2.08,1.52-2.94s.88-1.59,1.24-2.17A13.41,13.41,0,0,1,652.54,272.28Z"/><path class="cls-4" d="M653.66,262.3c.08.09-1.27,1.2-3.22,3.21a47.32,47.32,0,0,0-11.17,18.56c-.86,2.66-1.21,4.37-1.33,4.35a4.69,4.69,0,0,1,.12-1.23,29.79,29.79,0,0,1,.74-3.27,41.45,41.45,0,0,1,11.29-18.77,27,27,0,0,1,2.55-2.17C653.27,262.5,653.63,262.26,653.66,262.3Z"/><path class="cls-10" d="M618.64,339.22l10.57-3.77,9.09-6.62-2.3,5.63s21.58.07,22.47.92a1.84,1.84,0,0,1,0,2.84c-.89.89-18.18,2.36-18.18,2.36s19.51,1.54,18.85,2.14,0,2.6-2.66,3S643,347.44,643,347.44l14.86,1s.66,2.09-2.66,2.82-13.38,2.28-13.38,2.28,13.82-1.55,13.6,0,.36,3.33-1.71,3.33-22.9,2-25.56,1.77-13.66,0-13.66,0l.59-19Z"/><path class="cls-10" d="M614.44,358.64s24.08,7.74,30.07,7.07,11-1.55,14-12.59,7.59-25.3,7.59-25.3l-25.86-3.48L633,341.55l-18.54,1.17Z"/><path class="cls-4" d="M640.29,324.34s-.95-2.41,0-3.72a11.49,11.49,0,0,0,1.48-3.19s8.54-27.25,10.59-32.65,9.79-20.86,18-18.18,11.75,14.66,11.28,24-2.82,63.88-2.82,63.88l-20.27-1.41,7.59-25.3Z"/><path class="cls-4" d="M678.86,354.57h0l-20.31-1.42,7.6-25.3-25.84-3.48v0s-1-2.44,0-3.75a11.28,11.28,0,0,0,1.46-3.18c.09-.28,8.57-27.31,10.59-32.65a52.31,52.31,0,0,1,6.7-12.13,20.35,20.35,0,0,1,5.34-5.12,7.05,7.05,0,0,1,6-.95c4.78,1.55,7.49,6,8.92,9.52a35.07,35.07,0,0,1,2.38,14.56c-.47,9.29-2.8,63.34-2.82,63.89Zm-20.26-1.48,20.2,1.41c.07-1.64,2.35-54.66,2.81-63.85a35.08,35.08,0,0,0-2.37-14.53c-1.43-3.47-4.13-7.94-8.88-9.49a7,7,0,0,0-6,.95,20.35,20.35,0,0,0-5.32,5.1,52.44,52.44,0,0,0-6.68,12.11c-2,5.34-10.5,32.37-10.59,32.65a11.69,11.69,0,0,1-1.48,3.2c-.89,1.22-.09,3.44,0,3.66l25.87,3.49v0Z"/><path class="cls-4" d="M617.45,261.61s-1.71,6.8,11.12,4.68,19.93-6.93,19.93-6.93l3.86.52-37.77,29.53Z"/><path class="cls-4" d="M614.55,289.48v-.08l2.79-27.07a3.66,3.66,0,0,1,.07-.73l.07,0-.08.71a3.7,3.7,0,0,0,1,2.55c1.62,1.77,5.06,2.23,10.2,1.37,12.68-2.09,19.85-6.87,19.92-6.92h0l3.94.54-.07.05Zm2.82-26.69-2.74,26.54,37.65-29.42-3.77-.52c-.32.22-7.47,4.87-19.94,6.93-5.17.86-8.62.39-10.26-1.39A3.65,3.65,0,0,1,617.37,262.79Z"/><path class="cls-4" d="M648.86,253.92c-.27.24,3.5,6,3.5,6l-29.51,22.64-3-10.44s-7.3,7.38-7.57,7.15S616.51,259,616.51,259l1.38-1.76,4,9.31Z"/><path class="cls-4" d="M622.83,282.57v0l-3-10.38c-.28.28-2,2-3.64,3.62-3.24,3.16-3.77,3.5-3.89,3.5h0c-.05,0-.18-.16,2-10.25,1.09-5,2.22-10,2.23-10h0l1.42-1.81,0,.06,4,9.28,27.17-12.7-.17.15c-.14.22,2.08,3.75,3.51,5.92l0,0,0,0Zm-3-10.55,0,.06,3,10.38,29.45-22.58c-.14-.21-1-1.53-1.84-2.87a13.62,13.62,0,0,1-1.67-3l-27,12.6v0l-4-9.27L616.54,259c-1.54,6.8-4.39,19.69-4.27,20.21.36,0,4.67-4.27,7.51-7.14Z"/><path class="cls-5" d="M652.36,259.88a2.72,2.72,0,0,1-.49.44l-1.5,1.13-5.56,4.06c-4.72,3.4-11.27,8.06-18.53,13.18l-2.51,1.77-.54.38,0-.66a36.75,36.75,0,0,0-1-6.94,33.27,33.27,0,0,1-.81-6.35l.54.17c-2.8,3.67-5.15,6.76-6.87,9l-2,2.49a4.87,4.87,0,0,1-.75.85,5.42,5.42,0,0,1,.6-1c.48-.68,1.08-1.54,1.83-2.59,1.67-2.31,3.95-5.44,6.67-9.18L622,266l0,.88a34.53,34.53,0,0,0,.86,6.24,36.19,36.19,0,0,1,1,7.05l-.55-.28,2.52-1.77c7.25-5.11,13.85-9.71,18.64-13l5.7-3.87,1.57-1A2.33,2.33,0,0,1,652.36,259.88Z"/><path class="cls-5" d="M668.62,318.92c0-.06.66.27,1.26,1.2a5.13,5.13,0,0,1-2.11,7.37c-1,.47-1.69.43-1.7.35s.62-.25,1.46-.79a5.11,5.11,0,0,0,1.91-6.69C669,319.46,668.54,319,668.62,318.92Z"/><path class="cls-5" d="M670.52,312.66c.06-.07.52.17,1,.83a4.44,4.44,0,0,1-.56,5.86c-.6.56-1.1.7-1.14.63s.33-.38.78-1a4.76,4.76,0,0,0,.5-5.27C670.77,313.1,670.45,312.74,670.52,312.66Z"/><path class="cls-5" d="M679.19,290.36c.18.07-1.57,5.27-3.91,11.61s-4.39,11.44-4.58,11.37,1.57-5.26,3.92-11.61S679,290.29,679.19,290.36Z"/><path class="cls-5" d="M668.3,320.09a25.8,25.8,0,0,1-3.37-.8,54.25,54.25,0,0,0-8.18-1.36,55.08,55.08,0,0,0-8.3-.05,24,24,0,0,1-3.46.21,13,13,0,0,1,3.41-.71,40.67,40.67,0,0,1,16.66,1.43A12.94,12.94,0,0,1,668.3,320.09Z"/><path class="cls-5" d="M667,315.73c0,.21-4.59,0-10.2.5s-10.11,1.34-10.15,1.14a11.31,11.31,0,0,1,2.9-.82,60,60,0,0,1,7.19-1,57.83,57.83,0,0,1,7.26-.14A11.51,11.51,0,0,1,667,315.73Z"/><path class="cls-10" d="M618.64,339.22l10.57-3.77,9.21-6.71L636,334.46s21.58.07,22.47.92a1.84,1.84,0,0,1,0,2.84c-.89.89-18.18,2.36-18.18,2.36s19.51,1.54,18.85,2.14,0,2.6-2.66,3S643,347.44,643,347.44l14.86,1s.66,2.09-2.66,2.82-13.38,2.28-13.38,2.28,13.82-1.55,13.6,0,.36,3.33-1.71,3.33-22.9,2-25.56,1.77S591.45,360,591.45,360l1.17-26.59Z"/><path class="cls-11" d="M618.64,339.22a2.21,2.21,0,0,1-.44-.07l-1.3-.27-5.09-1.09-19.23-4.23.25-.19c-.31,7.42-.68,16.43-1.1,26.59l-.29-.29,17.59-.79,9.53-.38c3.25-.09,6.56-.28,10-.2,6.71-.22,13.76-1,21-1.52l2.73-.21c.46,0,.91-.06,1.39-.07a1.35,1.35,0,0,0,1-.31c.42-.5.25-1.55.36-2.49,0-.11,0-.3,0-.17s0,0,0,0l-.08,0a2.77,2.77,0,0,0-.57-.15,9.81,9.81,0,0,0-1.34-.13,92.88,92.88,0,0,0-11.22.67l-.1-.7,4.43-.75,6.65-1.14a18.6,18.6,0,0,0,3.21-.67,2.78,2.78,0,0,0,1.19-.83,1.51,1.51,0,0,0,.28-1.25l.31.24-14.85-1,0-.69,9.66-1.19,2.37-.3a10.75,10.75,0,0,0,2.25-.39,2,2,0,0,0,1.21-1.53l.15-.59a1.73,1.73,0,0,1,.14-.32.75.75,0,0,1,.1-.17l.07-.08s.1-.15,0,.07a.29.29,0,0,0,0,.24c0,.07,0,0,0,.06s0,0,0,0l-.09,0-.26-.07-.55-.11c-6.08-.88-12.06-1.31-17.74-1.81v-.61c4.32-.38,8.5-.77,12.49-1.26,1-.12,2-.25,3-.41.49-.07,1-.16,1.44-.25a3.06,3.06,0,0,0,1.2-.41,1.56,1.56,0,0,0,.06-2.22c-.15-.26-.7-.26-1.13-.35l-1.38-.14c-7.35-.47-14-.48-19.91-.56h-.32l.13-.3,2.43-5.7.29.23-9.24,6.67h0l-7.88,2.73-2,.69c-.46.15-.7.21-.7.21s.24-.11.69-.28l2-.76,7.8-2.86,0,0,9.18-6.75.56-.41-.27.64c-.74,1.75-1.51,3.6-2.4,5.72l-.2-.3c5.87,0,12.55,0,20,.46.47,0,.93.08,1.41.14.23,0,.47.06.71.11a2.53,2.53,0,0,1,.4.12,1.15,1.15,0,0,1,.36.29,2.18,2.18,0,0,1,.58,1.48,2.23,2.23,0,0,1-.64,1.47,1.62,1.62,0,0,1-.76.41c-.24.06-.49.14-.73.18-.49.1-1,.19-1.47.26-1,.17-2,.3-3,.43-4,.5-8.19.91-12.52,1.29v-.61c5.7.48,11.64.89,17.8,1.77l.59.12.31.08a1.08,1.08,0,0,1,.18.07l.12.07s0,0,.1.11a.35.35,0,0,1,0,.31c-.14.26-.1.14-.12.19l0,0s0,.05-.05.07a1,1,0,0,0-.09.21l-.14.55a3.12,3.12,0,0,1-.52,1.19,2.61,2.61,0,0,1-1.07.8,10.7,10.7,0,0,1-2.4.44l-2.38.3L643,347.79v-.69l14.85,1,.25,0,.06.23a2.2,2.2,0,0,1-.39,1.88,3.37,3.37,0,0,1-1.49,1.06,19.24,19.24,0,0,1-3.33.71l-6.67,1.14-4.44.76-.09-.7a93.79,93.79,0,0,1,11.32-.67,11.89,11.89,0,0,1,1.44.14,3.05,3.05,0,0,1,.76.22l.21.13a.93.93,0,0,1,.21.27,1.09,1.09,0,0,1,0,.51c-.05.44,0,.89-.06,1.37a2.39,2.39,0,0,1-.48,1.51,1.93,1.93,0,0,1-1.52.54l-1.34.08-2.72.2c-7.24.54-14.21,1.28-21.05,1.49-3.36-.08-6.7.1-9.94.18l-9.53.36-17.59.72h-.3v-.3c.48-10.16.9-19.16,1.25-26.58v-.25l.24,0,19.14,4.42,5.08,1.2,1.31.32A3.56,3.56,0,0,1,618.64,339.22Z"/><g class="cls-19"><path d="M641.09,319.06c-1.25-7.73-.23-15.69,1.91-23.22s5.35-14.7,8.56-21.83a34.69,34.69,0,0,0-9,13.84,90.14,90.14,0,0,0-4,16.17c-1,6-1.84,12.58,1.51,17.6l1.38-2.86"/></g></svg>