<?xml version="1.0" encoding="UTF-8"?>
<!DOCTYPE svg PUBLIC "-//W3C//DTD SVG 1.1//EN" "http://www.w3.org/Graphics/SVG/1.1/DTD/svg11.dtd">
<!-- Creator: CorelDRAW X7 -->
<svg xmlns="http://www.w3.org/2000/svg" xml:space="preserve" width="0.166661in" height="0.166661in" version="1.1" style="shape-rendering:geometricPrecision; text-rendering:geometricPrecision; image-rendering:optimizeQuality; fill-rule:evenodd; clip-rule:evenodd"
viewBox="0 0 167 167"
 xmlns:xlink="http://www.w3.org/1999/xlink">
 <defs>
  <style type="text/css">
   <![CDATA[
    .fil0 {fill:#E6E6E6}
    .fil1 {fill:#333333;fill-rule:nonzero}
   ]]>
  </style>
 </defs>
 <g id="Layer_x0020_1">
  <metadata id="CorelCorpID_0Corel-Layer"/>
  <g id="_341080688">
   <circle class="fil0" cx="83" cy="83" r="83"/>
   <path class="fil1" d="M100 46c0,1 -1,1 -3,1 -2,0 -4,0 -6,-1 -3,-1 -5,-3 -7,-5 -2,-2 -3,-4 -3,-8 0,0 1,-2 1,-3 1,-2 2,-3 3,-5 1,-1 2,-3 2,-4 1,-2 2,-3 2,-4 0,0 1,-1 2,-1 2,0 4,1 7,2 2,1 4,2 6,4 2,2 3,5 3,8 0,1 0,2 -1,3 -1,2 -1,3 -2,5 -1,1 -2,3 -3,4 0,2 -1,3 -1,4zm14 47c1,-1 1,-2 0,-3 0,-1 -1,-1 -2,-1 0,-1 -1,-1 -2,0 -1,0 -2,1 -2,2 -1,2 -2,4 -4,8 -2,3 -4,7 -6,10 -2,4 -5,8 -7,11 -3,4 -5,7 -8,10 -2,3 -4,6 -6,8 -2,2 -4,3 -5,3 -3,0 -4,-1 -4,-4 0,-2 2,-6 4,-10 2,-5 4,-10 8,-15 3,-6 6,-11 8,-17 3,-6 5,-11 7,-17 1,-5 1,-9 0,-13 -1,-4 -3,-6 -6,-8 -2,-1 -5,-2 -7,-1 -3,0 -5,0 -7,1 -2,1 -2,2 -1,3 1,1 1,2 0,5 0,2 -1,5 -3,9 -1,3 -3,7 -5,12 -2,4 -4,9 -6,13 -2,5 -3,10 -5,14 -1,5 -2,10 -3,14 0,3 0,6 0,9 1,3 2,6 3,8 1,2 2,4 4,5 2,1 4,2 7,1 3,0 6,-1 9,-3 4,-2 7,-5 10,-9 3,-3 6,-7 9,-12 4,-4 6,-8 9,-12 3,-5 5,-9 7,-12 2,-4 3,-7 4,-9z"/>
  </g>
 </g>
</svg>
