<svg id="Layer_1" data-name="Layer 1" xmlns="http://www.w3.org/2000/svg" viewBox="0 0 98.11 82.93"><defs><style>.cls-1{fill:#2d4356;}.cls-2{fill:#0bceb2;}</style></defs><circle class="cls-1" cx="1.17" cy="73.58" r="1.17"/><path class="cls-1" d="M617.87,694.3h-1.75a1.17,1.17,0,1,0,0,2.33h1.75a1.17,1.17,0,1,0,0-2.33Z" transform="translate(-611.44 -621.88)"/><path class="cls-2" d="M680.45,699h-4.86a1.17,1.17,0,0,0,0,2.33h4.86a1.17,1.17,0,0,0,0-2.33Z" transform="translate(-611.44 -621.88)"/><path class="cls-2" d="M645.41,699h-4.86a1.17,1.17,0,0,0,0,2.33h4.86a1.17,1.17,0,0,0,0-2.33Z" transform="translate(-611.44 -621.88)"/><path class="cls-2" d="M672.18,699H648.82a1.17,1.17,0,1,0,0,2.33h9.31v1.17h-4.64a1.17,1.17,0,1,0,0,2.34h14.6a1.17,1.17,0,0,0,0-2.34h-5.22V701.3h9.31a1.17,1.17,0,1,0,0-2.33Z" transform="translate(-611.44 -621.88)"/><circle class="cls-2" cx="70.66" cy="51.39" r="1.17"/><path class="cls-1" d="M649.4,665.32v7.51a2.13,2.13,0,0,0,2.06,2.19h18.08a2.13,2.13,0,0,0,2.06-2.19v-7.51a7.8,7.8,0,0,0-4.71-7.4,8.43,8.43,0,0,1-2.2,1.92h0c2.52,0,4.57,2.46,4.57,5.48v7.37H651.74v-7.37c0-3,2-5.48,4.57-5.48h0a8.43,8.43,0,0,1-2.2-1.92A7.8,7.8,0,0,0,649.4,665.32Z" transform="translate(-611.44 -621.88)"/><path class="cls-2" d="M658.44,658.29,657,665.84a1.17,1.17,0,0,0,.39,1.11l2.34,2a1.17,1.17,0,0,0,.75.27,1.15,1.15,0,0,0,.73-.25l2.34-1.89a1.17,1.17,0,0,0,.42-1.11l-1.37-7.66a5.84,5.84,0,1,0-4.18,0Zm2.08,8.21-1.08-.9,1.09-5.77,1,5.83Zm0-17.17a3.51,3.51,0,1,1-3.5,3.5A3.5,3.5,0,0,1,660.5,649.33Z" transform="translate(-611.44 -621.88)"/><path class="cls-1" d="M672.76,679.11H648.24a1.17,1.17,0,1,0,0,2.34h24.52a1.17,1.17,0,1,0,0-2.34Z" transform="translate(-611.44 -621.88)"/><path class="cls-2" d="M672.76,683.78H648.24a1.17,1.17,0,0,0,0,2.34h24.52a1.17,1.17,0,0,0,0-2.34Z" transform="translate(-611.44 -621.88)"/><path class="cls-1" d="M672.76,688.46H648.24a1.17,1.17,0,1,0,0,2.33h24.52a1.17,1.17,0,1,0,0-2.33Z" transform="translate(-611.44 -621.88)"/><path class="cls-1" d="M680.94,639.39V668.6a1.17,1.17,0,0,0,2.34,0V639.39a3.49,3.49,0,0,0-3.49-3.49H668.68v2.33h11.11A1.16,1.16,0,0,1,680.94,639.39Z" transform="translate(-611.44 -621.88)"/><path class="cls-1" d="M655.83,642.9h9.34a1.16,1.16,0,0,0,1.17-1.16V623.05a1.17,1.17,0,0,0-1.17-1.17h-9.34a1.17,1.17,0,0,0-1.17,1.17v18.69A1.16,1.16,0,0,0,655.83,642.9ZM657,624.22h7v16.35h-7Z" transform="translate(-611.44 -621.88)"/><circle class="cls-2" cx="49.06" cy="15.18" r="1.17"/><path class="cls-1" d="M704.88,694.3h-1.75a1.17,1.17,0,1,0,0,2.33h1.75a1.17,1.17,0,1,0,0-2.33Z" transform="translate(-611.44 -621.88)"/><circle class="cls-1" cx="96.94" cy="73.58" r="1.17"/><path class="cls-1" d="M699.47,694.3H683.08a3.77,3.77,0,0,0,.2-1.16v-15.2a1.17,1.17,0,0,0-2.34,0v15.2a1.16,1.16,0,0,1-1.15,1.16H641.21a1.16,1.16,0,0,1-1.15-1.16V639.39a1.16,1.16,0,0,1,1.15-1.16h11.11V635.9H641.21a3.49,3.49,0,0,0-3.49,3.49v53.75a3.77,3.77,0,0,0,.2,1.16H621.53a1.18,1.18,0,1,0,0,2.33h77.94a1.18,1.18,0,1,0,0-2.33Z" transform="translate(-611.44 -621.88)"/></svg>