<svg id="Layer_1" data-name="Layer 1" xmlns="http://www.w3.org/2000/svg" xmlns:xlink="http://www.w3.org/1999/xlink" viewBox="0 0 19.05 26.15"><defs><style>.cls-1{fill:none;}.cls-2{clip-path:url(#clip-path);}.cls-18,.cls-3,.cls-31,.cls-4,.cls-5{isolation:isolate;fill:#696f7b;font-family:MyriadPro-Regular, Myriad Pro;}.cls-3{font-size:0.8px;}.cls-4{font-size:1.17px;}.cls-5{font-size:0.6px;}.cls-6{letter-spacing:-0.03em;}.cls-7{letter-spacing:-0.01em;}.cls-8{letter-spacing:0.02em;}.cls-9{letter-spacing:0em;}.cls-10{letter-spacing:0.01em;}.cls-11{letter-spacing:-0.01em;}.cls-12{letter-spacing:0.01em;}.cls-13{letter-spacing:0em;}.cls-14{letter-spacing:-0.08em;}.cls-15{letter-spacing:-0.03em;}.cls-16{letter-spacing:-0.09em;}.cls-17{letter-spacing:-0.01em;}.cls-18{font-size:0.47px;}.cls-19{letter-spacing:-0.01em;}.cls-20{letter-spacing:0.02em;}.cls-21{letter-spacing:-0.02em;}.cls-22{letter-spacing:-0.03em;}.cls-23{fill:#243038;}.cls-24{fill:#dc4d65;}.cls-25{fill:#f2ba45;}.cls-26{fill:#b1c747;}.cls-27{fill:#4daab3;}.cls-28{fill:#ce4966;}.cls-29{fill:#44a0a5;}.cls-30{fill:#e5a93e;}.cls-31{font-size:0.33px;}.cls-32{letter-spacing:-0.04em;}.cls-33{letter-spacing:-0.07em;}.cls-34{letter-spacing:0.02em;}</style><clipPath id="clip-path" transform="translate(-354.28 -534.16)"><rect class="cls-1" x="354.21" y="533.11" width="19.69" height="27.33"/></clipPath></defs><image width="8751" height="12013" transform="scale(0)" xlink:href="../../../../Desktop/Internship_Certificate.jpeg"/><text class="cls-3" transform="translate(6.81 9.56) scale(0.99 1)">OF INTERNSHIP</text><text class="cls-4" transform="translate(4.98 12.96) scale(0.99 1)">NAME SURNAME</text><text class="cls-5" transform="translate(3.1 14.25) scale(0.99 1)"><tspan class="cls-6">W</tspan><tspan x="0.49" y="0">e a</tspan><tspan class="cls-7" x="1.21" y="0">r</tspan><tspan x="1.4" y="0">e pleased to ce</tspan><tspan class="cls-8" x="5.13" y="0">r</tspan><tspan class="cls-9" x="5.34" y="0">tify that </tspan><tspan class="cls-10" x="7.42" y="0">M</tspan><tspan x="7.91" y="0">r/M</tspan><tspan class="cls-11" x="8.8" y="0">s</tspan><tspan x="9.03" y="0">. Name Surname</tspan></text><text class="cls-5" transform="translate(4.05 15.01) scale(0.99 1)">has completed <tspan class="cls-12" x="3.84" y="0">I</tspan><tspan class="cls-13" x="3.99" y="0">nternship on</tspan><tspan class="cls-14" x="7.2" y="0"> </tspan><tspan x="7.28" y="0">“Plastic Domai</tspan><tspan class="cls-15" x="10.88" y="0">n</tspan><tspan class="cls-16" x="11.19" y="0">”</tspan></text><text class="cls-5" transform="translate(4.62 15.77) scale(0.99 1)">during 11th May 2019 to 12th June 2019.</text><text class="cls-5" transform="translate(4.02 16.53) scale(0.99 1)"><tspan class="cls-15">W</tspan><tspan x="0.49" y="0">e app</tspan><tspan class="cls-11" x="1.89" y="0">r</tspan><tspan x="2.08" y="0">eciate his/her </tspan><tspan class="cls-7" x="5.59" y="0">w</tspan><tspan x="6.02" y="0">ork and contribution</tspan><tspan class="cls-17" x="11.2" y="0">s</tspan><tspan x="11.43" y="0">.</tspan></text><text class="cls-18" transform="translate(1.61 24.02) scale(0.99 1)"><tspan class="cls-19">Ce</tspan><tspan class="cls-20" x="0.5" y="0">r</tspan><tspan x="0.66" y="0">tificate Number - </tspan><tspan class="cls-21" x="4.05" y="0">A</tspan><tspan x="4.32" y="0">v10015</tspan></text><text class="cls-18" transform="translate(1.61 24.54) scale(0.99 1)"><tspan class="cls-22">V</tspan><tspan x="0.25" y="0">erification Link - https://addvic.com/ce</tspan><tspan class="cls-20" x="7.74" y="0">r</tspan><tspan x="7.9" y="0">tificate/verification</tspan></text><path class="cls-23" d="M362.9,536.38a.11.11,0,0,0-.12,0v.31h0v0a.23.23,0,0,1-.07.14.22.22,0,0,1-.12,0,.2.2,0,0,1-.16-.07.22.22,0,0,1-.05-.12.19.19,0,0,1,.05-.14h0a.13.13,0,0,1,.07-.06.2.2,0,0,1,.15,0,.08.08,0,0,0,.1,0,.09.09,0,0,0-.05-.1l-.11,0h0a.33.33,0,0,0-.25.1.37.37,0,0,0-.1.25.37.37,0,0,0,.1.24.33.33,0,0,0,.25.1.36.36,0,0,0,.2-.06l0,0a.31.31,0,0,0,.1-.24v-.29a.06.06,0,0,0,0,0Z" transform="translate(-354.28 -534.16)"/><path class="cls-24" d="M362.84,536.35a.07.07,0,0,1,.07.07.07.07,0,0,1-.07.08.08.08,0,0,1-.08-.08A.08.08,0,0,1,362.84,536.35Z" transform="translate(-354.28 -534.16)"/><path class="cls-25" d="M362.57,536.63a.07.07,0,0,1,.07.07.07.07,0,0,1-.07.08.08.08,0,0,1-.08-.08A.08.08,0,0,1,362.57,536.63Z" transform="translate(-354.28 -534.16)"/><path class="cls-23" d="M363.58,536a.07.07,0,0,0-.07.07v.37s0,0,0,0a.35.35,0,0,0-.18,0,.37.37,0,0,0-.24.1.36.36,0,0,0,0,.5.33.33,0,0,0,.24.1.34.34,0,0,0,.35-.35V536a.07.07,0,0,0-.08-.07Zm-.07.77h0a.22.22,0,0,1-.05.11.18.18,0,0,1-.17.07.13.13,0,0,1-.1,0,.23.23,0,0,1-.08-.17.22.22,0,0,1,.05-.11.18.18,0,0,1,.17-.07.18.18,0,0,1,.1,0,.2.2,0,0,1,.08.17Z" transform="translate(-354.28 -534.16)"/><path class="cls-25" d="M363.58,536a.08.08,0,0,1,.08.07.08.08,0,0,1-.08.08.07.07,0,0,1-.07-.08A.07.07,0,0,1,363.58,536Z" transform="translate(-354.28 -534.16)"/><path class="cls-24" d="M363.31,536.63a.07.07,0,0,1,.08.07.07.07,0,0,1-.08.08.07.07,0,0,1-.07-.08A.07.07,0,0,1,363.31,536.63Z" transform="translate(-354.28 -534.16)"/><path class="cls-23" d="M364.33,536a.08.08,0,0,0-.08.07v.37s0,0,0,0a.35.35,0,0,0-.43.55.33.33,0,0,0,.25.1.33.33,0,0,0,.24-.1.33.33,0,0,0,.1-.25V536a.07.07,0,0,0-.07-.07Zm-.08.77h0a.21.21,0,0,1,0,.11.19.19,0,0,1-.17.07.15.15,0,0,1-.11,0,.19.19,0,0,1-.07-.17.21.21,0,0,1,0-.11.19.19,0,0,1,.17-.07.21.21,0,0,1,.11,0,.19.19,0,0,1,.07.17Z" transform="translate(-354.28 -534.16)"/><path class="cls-25" d="M364.33,536a.07.07,0,0,1,.07.07.07.07,0,0,1-.07.08.08.08,0,0,1-.08-.08A.08.08,0,0,1,364.33,536Z" transform="translate(-354.28 -534.16)"/><path class="cls-24" d="M364.06,536.63a.07.07,0,0,1,.07.07.07.07,0,0,1-.07.08.07.07,0,0,1-.08-.08A.07.07,0,0,1,364.06,536.63Z" transform="translate(-354.28 -534.16)"/><path class="cls-23" d="M365,536.36a.08.08,0,0,0-.07,0l-.14.35h0l-.14-.35a.08.08,0,0,0-.07,0h0a.08.08,0,0,0-.07.11l.22.54a.08.08,0,0,0,.14,0l.22-.54a.07.07,0,0,0-.07-.11Z" transform="translate(-354.28 -534.16)"/><path class="cls-26" d="M365,536.35a.08.08,0,0,1,.08.08.07.07,0,0,1-.08.08.08.08,0,0,1-.08-.08A.09.09,0,0,1,365,536.35Z" transform="translate(-354.28 -534.16)"/><path class="cls-23" d="M365.18,536.36a.07.07,0,0,0-.07.07V537a.07.07,0,1,0,.14,0v-.55A.07.07,0,0,0,365.18,536.36Z" transform="translate(-354.28 -534.16)"/><path class="cls-27" d="M365.18,536.16s0,0-.05,0a.06.06,0,0,0,0,.05s0,0,0,0a.06.06,0,0,0,.1,0,.07.07,0,0,0,0-.1S365.2,536.16,365.18,536.16Z" transform="translate(-354.28 -534.16)"/><path class="cls-23" d="M365.9,536.84a.06.06,0,0,0-.1,0,.19.19,0,0,1-.14,0,.17.17,0,0,1-.14,0,.2.2,0,0,1-.06-.14.17.17,0,0,1,.06-.14.18.18,0,0,1,.14-.06.2.2,0,0,1,.14.06.07.07,0,0,0,.1,0,.08.08,0,0,0,0-.11.33.33,0,0,0-.24-.1.34.34,0,0,0-.35.35.33.33,0,0,0,.1.24.33.33,0,0,0,.25.1.33.33,0,0,0,.24-.1s.06-.07,0-.11Z" transform="translate(-354.28 -534.16)"/><path class="cls-26" d="M365.85,536.44a.08.08,0,0,1,.08.08.08.08,0,0,1-.16,0A.08.08,0,0,1,365.85,536.44Z" transform="translate(-354.28 -534.16)"/><path class="cls-1" d="M362.77,536.69v0Z" transform="translate(-354.28 -534.16)"/><polygon class="cls-24" points="6.8 1.79 6.96 2.01 7.29 2.01 7.13 1.79 6.8 1.79"/><polygon class="cls-28" points="6.63 2.01 6.8 1.79 6.96 2.01 6.8 2.24 6.63 2.01"/><polygon class="cls-27" points="7.13 2.23 7.29 2.43 7.62 2.43 7.46 2.24 7.13 2.23"/><polygon class="cls-29" points="6.96 2.45 7.13 2.23 7.29 2.43 7.13 2.67 6.96 2.45"/><polygon class="cls-25" points="7.46 1.79 7.61 2.01 7.95 2.01 7.79 1.79 7.46 1.79"/><polygon class="cls-30" points="7.13 2.23 7.46 1.79 7.61 2.01 7.46 2.24 7.13 2.23"/><polygon class="cls-23" points="7.29 2.01 6.96 2.01 6.8 2.24 6.96 2.45 7.29 2.01"/><polygon class="cls-23" points="7.13 2.67 7.29 2.88 7.62 2.43 7.29 2.43 7.13 2.67"/><polygon class="cls-23" points="7.61 2.01 7.95 2.01 7.62 2.43 7.46 2.24 7.61 2.01"/><polygon class="cls-23" points="11.75 2.02 11.71 2.02 11.71 2.13 11.69 2.13 11.69 2.02 11.65 2.02 11.65 2 11.75 2 11.75 2.02"/><polygon class="cls-23" points="11.8 2 11.84 2.1 11.87 2 11.9 2 11.9 2.13 11.87 2.13 11.87 2.1 11.88 2.03 11.84 2.13 11.82 2.13 11.79 2.03 11.79 2.1 11.79 2.13 11.77 2.13 11.77 2 11.8 2"/><text class="cls-5" transform="translate(3.28 22.48) scale(0.99 1)">12/06/2019</text><text class="cls-31" transform="translate(11.57 23.42) scale(0.99 1)">CEO of Addvic<tspan class="cls-32" x="1.98" y="0"> </tspan><tspan class="cls-33" x="2.04" y="0">T</tspan><tspan x="2.18" y="0">echnology (OP</tspan><tspan class="cls-34" x="4.23" y="0">C</tspan><tspan x="4.43" y="0">) Pvt Ltd</tspan></text></svg>