<svg id="Layer_1" data-name="Layer 1" xmlns="http://www.w3.org/2000/svg" viewBox="0 0 99.38 84"><defs><style>.cls-1{fill:#243038;}.cls-2{fill:#4daab3;}.cls-3{fill:#2d4356;}</style></defs><circle class="cls-1" cx="1.18" cy="74.54" r="1.18"/><path class="cls-1" d="M6.82,86.35H5a1.19,1.19,0,0,0,0,2.37H6.82a1.19,1.19,0,0,0,0-2.37Z" transform="translate(-0.31 -13)"/><path class="cls-2" d="M70.2,91.08H65.29a1.19,1.19,0,0,0,0,2.37H70.2a1.19,1.19,0,0,0,0-2.37Z" transform="translate(-0.31 -13)"/><path class="cls-2" d="M34.71,91.08H29.8a1.19,1.19,0,0,0,0,2.37h4.91a1.19,1.19,0,0,0,0-2.37Z" transform="translate(-0.31 -13)"/><path class="cls-2" d="M61.83,91.08H38.17a1.19,1.19,0,0,0,0,2.37H47.6v1.18H42.9a1.19,1.19,0,0,0,0,2.37H57.69a1.19,1.19,0,0,0,0-2.37H52.4V93.45h9.43a1.19,1.19,0,0,0,0-2.37Z" transform="translate(-0.31 -13)"/><circle class="cls-2" cx="71.58" cy="52.06" r="1.18"/><path class="cls-3" d="M38.76,57v7.61a2.15,2.15,0,0,0,2.08,2.22H59.16a2.15,2.15,0,0,0,2.08-2.22V57a7.91,7.91,0,0,0-4.77-7.5,8.17,8.17,0,0,1-2.23,2h0c2.55,0,4.62,2.49,4.62,5.55v7.46H41.13V57c0-3.06,2.07-5.55,4.62-5.55h0a8.17,8.17,0,0,1-2.23-2A7.91,7.91,0,0,0,38.76,57Z" transform="translate(-0.31 -13)"/><path class="cls-2" d="M47.92,49.88l-1.45,7.65a1.18,1.18,0,0,0,.4,1.12l2.37,2a1.21,1.21,0,0,0,.76.28,1.15,1.15,0,0,0,.74-.27l2.37-1.9a1.18,1.18,0,0,0,.42-1.13l-1.38-7.76a5.93,5.93,0,1,0-4.23,0ZM50,58.2l-1.1-.91L50,51.44l1,5.9Zm0-17.4a3.55,3.55,0,1,1-3.55,3.55A3.55,3.55,0,0,1,50,40.8Z" transform="translate(-0.31 -13)"/><path class="cls-3" d="M62.42,71H37.58a1.19,1.19,0,1,0,0,2.37H62.42a1.19,1.19,0,1,0,0-2.37Z" transform="translate(-0.31 -13)"/><path class="cls-2" d="M62.42,75.7H37.58a1.19,1.19,0,1,0,0,2.37H62.42a1.19,1.19,0,1,0,0-2.37Z" transform="translate(-0.31 -13)"/><path class="cls-3" d="M62.42,80.44H37.58a1.18,1.18,0,1,0,0,2.36H62.42a1.18,1.18,0,1,0,0-2.36Z" transform="translate(-0.31 -13)"/><path class="cls-3" d="M70.7,30.73V60.32a1.19,1.19,0,1,0,2.37,0V30.73a3.54,3.54,0,0,0-3.54-3.53H58.28v2.36H69.53A1.17,1.17,0,0,1,70.7,30.73Z" transform="translate(-0.31 -13)"/><path class="cls-1" d="M45.27,34.3h9.46a1.19,1.19,0,0,0,1.19-1.19V14.18A1.18,1.18,0,0,0,54.73,13H45.27a1.18,1.18,0,0,0-1.19,1.18V33.11A1.19,1.19,0,0,0,45.27,34.3Zm1.18-18.93h7.1V31.93h-7.1Z" transform="translate(-0.31 -13)"/><circle class="cls-2" cx="49.69" cy="15.38" r="1.18"/><path class="cls-1" d="M95,86.35H93.18a1.19,1.19,0,0,0,0,2.37H95a1.19,1.19,0,0,0,0-2.37Z" transform="translate(-0.31 -13)"/><circle class="cls-1" cx="98.2" cy="74.54" r="1.18"/><path class="cls-1" d="M89.47,86.35H72.87a3.51,3.51,0,0,0,.2-1.17V69.79a1.19,1.19,0,0,0-2.37,0V85.18a1.17,1.17,0,0,1-1.17,1.17H30.47a1.17,1.17,0,0,1-1.17-1.17V30.73a1.17,1.17,0,0,1,1.17-1.17H41.72V27.2H30.47a3.54,3.54,0,0,0-3.54,3.53V85.18a3.51,3.51,0,0,0,.2,1.17H10.53a1.2,1.2,0,1,0,0,2.37H89.47a1.2,1.2,0,1,0,0-2.37Z" transform="translate(-0.31 -13)"/></svg>