<svg id="Layer_1" data-name="Layer 1" xmlns="http://www.w3.org/2000/svg" viewBox="0 0 98.3 99.46"><defs><style>.cls-1{fill:#ebebeb;}.cls-1,.cls-10,.cls-11,.cls-12,.cls-2,.cls-4,.cls-5,.cls-8,.cls-9{fill-rule:evenodd;}.cls-2{fill:#d6d6d6;}.cls-13,.cls-14,.cls-15,.cls-16,.cls-17,.cls-18,.cls-19,.cls-20,.cls-21,.cls-3,.cls-6,.cls-7{fill:none;stroke:#105286;stroke-miterlimit:2.61;}.cls-3{stroke-width:1.58px;}.cls-4{fill:#b3b3b3;}.cls-5{fill:#e1e1e1;}.cls-6{stroke-width:1.58px;}.cls-7{stroke-width:1.58px;}.cls-8{fill:#475563;}.cls-9{fill:#fff;}.cls-10{fill:#ff576b;}.cls-11{fill:#3fe4c0;}.cls-12{fill:#ffd027;}.cls-13{stroke-width:1.58px;}.cls-14{stroke-width:1.58px;}.cls-15{stroke-width:1.58px;}.cls-16{stroke-width:1.58px;}.cls-17{stroke-width:1.58px;}.cls-18{stroke-width:1.58px;}.cls-19{stroke-width:1.58px;}.cls-20{stroke-width:1.58px;}.cls-21{stroke-width:1.58px;}</style></defs><path class="cls-1" d="M433,525.67h5.07c5.79,0,5.79-8.76,0-8.76H424.33c-5.79,0-5.79-8.77,0-8.77h13.45c5.79,0,5.79-8.76,0-8.76H433c-5.8,0-5.8-8.76,0-8.76h45.66c5.79,0,5.79,8.76,0,8.76h-2.42c-5.79,0-5.79,8.76,0,8.76h6.59c5.79,0,5.79,8.77,0,8.77h-6.87c-5.79,0-5.79,8.76,0,8.76H478c5.8,0,5.8,8.76,0,8.76H433c-5.8,0-5.8-8.76,0-8.76Z" transform="translate(-419.94 -434.97)"/><path class="cls-2" d="M459.21,490.62h45.12c5.79,0,5.79,8.76,0,8.76h-4.5c-6.13,0-6.67,8.76.67,8.76h12.65c5.8,0,5.8,8.77,0,8.77H494.92c-5.79,0-5.79,8.76,0,8.76h4.41c5.8,0,5.8,8.76,0,8.76H456.79c-5.8,0-5.8-8.76,0-8.76h2.42c5.83,0,6.07-8.76,0-8.76H448.89c-5.8,0-5.8-8.77,0-8.77h7.48c6.41.2,7.17-8.76,0-8.76H451.8c-5.8,0-5.8-8.76,0-8.76Zm50.77,35h0a4.39,4.39,0,0,0-4.38,4.38h0a4.39,4.39,0,0,0,4.38,4.38h0a4.39,4.39,0,0,0,4.38-4.38h0a4.39,4.39,0,0,0-4.38-4.38Z" transform="translate(-419.94 -434.97)"/><path class="cls-3" d="M421.23,528.22l.94.94m2.56-.94-.94.94m-1.62,1.62-.94.94m2.56-.94.94.94" transform="translate(-419.94 -434.97)"/><polygon class="cls-4" points="42.33 71.46 55.65 71.46 55.65 79.72 42.33 79.72 42.33 71.46 42.33 71.46"/><path class="cls-5" d="M460.6,514.69h16.65a1.74,1.74,0,0,1,1.73,1.73v1.72h-20.1v-1.72a1.73,1.73,0,0,1,1.72-1.73Z" transform="translate(-419.94 -434.97)"/><path class="cls-6" d="M462.27,514.69v-8.26m13.31,0v8.26m-15,0h16.65a1.74,1.74,0,0,1,1.73,1.73v1.72h-20.1v-1.72a1.73,1.73,0,0,1,1.72-1.73Z" transform="translate(-419.94 -434.97)"/><path class="cls-5" d="M434.26,449.83h69a4,4,0,0,1,4,4v48.62a4,4,0,0,1-4,4h-69a4,4,0,0,1-4-4V453.82a4,4,0,0,1,4-4Z" transform="translate(-419.94 -434.97)"/><path class="cls-7" d="M434.26,449.83h69a4,4,0,0,1,4,4v48.62a4,4,0,0,1-4,4h-69a4,4,0,0,1-4-4V453.82a4,4,0,0,1,4-4Z" transform="translate(-419.94 -434.97)"/><path class="cls-8" d="M468.5,498.82a1.7,1.7,0,1,1-1.71,1.7,1.7,1.7,0,0,1,1.71-1.7Z" transform="translate(-419.94 -434.97)"/><polygon class="cls-9" points="14.59 18.51 83.02 18.51 83.02 60.31 14.59 60.31 14.59 18.51 14.59 18.51"/><polygon class="cls-10" points="32.05 51.49 38.31 51.49 38.31 57.74 32.05 57.74 32.05 51.49 32.05 51.49"/><polygon class="cls-11" points="45.68 51.49 51.93 51.49 51.93 57.74 45.68 57.74 45.68 51.49 45.68 51.49"/><polygon class="cls-12" points="59.3 51.49 65.56 51.49 65.56 57.74 59.3 57.74 59.3 51.49 59.3 51.49"/><polygon class="cls-12" points="15.98 21.17 80.33 21.17 80.33 38.93 15.98 38.93 15.98 21.17 15.98 21.17"/><path class="cls-5" d="M439.13,435.75h16.24a1.87,1.87,0,0,1,1.86,1.87v31.29a1.87,1.87,0,0,1-1.86,1.86H439.13a1.87,1.87,0,0,1-1.86-1.86V437.62a1.87,1.87,0,0,1,1.86-1.87Z" transform="translate(-419.94 -434.97)"/><polygon class="cls-9" points="19.03 5.69 35.6 5.69 35.6 30.9 19.03 30.9 19.03 5.69 19.03 5.69"/><path class="cls-13" d="M439.13,435.75h16.24a1.87,1.87,0,0,1,1.86,1.87v31.29a1.87,1.87,0,0,1-1.86,1.86H439.13a1.87,1.87,0,0,1-1.86-1.86V437.62a1.87,1.87,0,0,1,1.86-1.87Z" transform="translate(-419.94 -434.97)"/><path class="cls-8" d="M447,467a1.31,1.31,0,1,1-1.31,1.31A1.31,1.31,0,0,1,447,467Z" transform="translate(-419.94 -434.97)"/><path class="cls-8" d="M446.39,437.89h3.53a.38.38,0,0,1,.38.38h0a.38.38,0,0,1-.38.37h-3.53a.38.38,0,0,1-.38-.37h0a.38.38,0,0,1,.38-.38Zm-1.82,0h.09a.38.38,0,0,1,.38.38h0a.38.38,0,0,1-.38.37h-.09a.38.38,0,0,1-.37-.37h0a.38.38,0,0,1,.37-.38Z" transform="translate(-419.94 -434.97)"/><path class="cls-5" d="M485.74,478.5h25.08a2.89,2.89,0,0,1,2.88,2.87v36.19a2.89,2.89,0,0,1-2.88,2.87H485.74a2.88,2.88,0,0,1-2.87-2.87V481.37a2.88,2.88,0,0,1,2.87-2.87Z" transform="translate(-419.94 -434.97)"/><polygon class="cls-9" points="65.56 48.73 91.14 48.73 91.14 80.27 65.56 80.27 65.56 48.73 65.56 48.73"/><path class="cls-14" d="M485.74,478.5h25.08a2.89,2.89,0,0,1,2.88,2.87v36.19a2.89,2.89,0,0,1-2.88,2.87H485.74a2.88,2.88,0,0,1-2.87-2.87V481.37a2.88,2.88,0,0,1,2.87-2.87Z" transform="translate(-419.94 -434.97)"/><path class="cls-8" d="M498,516.1a1.31,1.31,0,1,1-1.31,1.31A1.31,1.31,0,0,1,498,516.1Z" transform="translate(-419.94 -434.97)"/><path class="cls-8" d="M497.42,480.81H501a.38.38,0,0,1,.37.38h0a.38.38,0,0,1-.37.37h-3.54a.38.38,0,0,1-.37-.37h0a.38.38,0,0,1,.37-.38Zm-1.81,0h.09a.38.38,0,0,1,.37.38h0a.38.38,0,0,1-.37.37h-.09a.38.38,0,0,1-.38-.37h0a.38.38,0,0,1,.38-.38Z" transform="translate(-419.94 -434.97)"/><polygon class="cls-12" points="20.28 7.11 34.24 7.11 34.24 14.87 20.28 14.87 20.28 7.11 20.28 7.11"/><polygon class="cls-10" points="24.75 24.23 29.88 24.23 29.88 29.26 24.75 29.26 24.75 24.23 24.75 24.23"/><polygon class="cls-10" points="68.7 69.93 76.1 69.93 76.1 78.11 68.7 78.11 68.7 69.93 68.7 69.93"/><polygon class="cls-11" points="80.6 69.93 87.99 69.93 87.99 78.11 80.6 78.11 80.6 69.93 80.6 69.93"/><polygon class="cls-12" points="67.52 50.72 89.18 50.72 89.18 58.48 67.52 58.48 67.52 50.72 67.52 50.72"/><line class="cls-15" x1="34.86" y1="42.97" x2="61.45" y2="42.97"/><line class="cls-16" x1="40.07" y1="46.8" x2="56.24" y2="46.8"/><line class="cls-17" x1="22.51" y1="17.62" x2="32.12" y2="17.62"/><line class="cls-18" x1="24.39" y1="21.45" x2="30.23" y2="21.45"/><line class="cls-19" x1="70.1" y1="62.35" x2="86.6" y2="62.35"/><line class="cls-20" x1="73.34" y1="66.18" x2="83.36" y2="66.18"/><path class="cls-3" d="M513.51,436.23l.94.94m2.55-.94-.93.94m-1.62,1.62-.94.94m2.56-.94.93.94M421.64,436l.94.94m2.56-.94-.94.94m-1.62,1.62-.94.93m2.56-.93.94.93" transform="translate(-419.94 -434.97)"/><path class="cls-21" d="M480.46,438.86a1.69,1.69,0,0,1,2.39-.11,1.67,1.67,0,0,1,.11,2.39,1.69,1.69,0,1,1-2.5-2.28Zm31.3,19.93a1.7,1.7,0,1,1,.11,2.39,1.69,1.69,0,0,1-.11-2.39Zm-77.28,61.35a1.7,1.7,0,1,1,.11,2.39,1.7,1.7,0,0,1-.11-2.39Z" transform="translate(-419.94 -434.97)"/><path class="cls-3" d="M512.12,471l.94.94m2.55-.94-.93.94m-1.62,1.62-.94.94m2.56-.94.93.94m-95.12,14.11.94.94m2.56-.94-.94.94m-1.62,1.62-.94.94m2.56-.94.94.94m90.19,31.12.94.94m2.56-.94-.94.94m-1.62,1.62-.94.94m2.56-.94.94.94m-51.81-84.15.94.94m2.56-.94-.94.94m-1.62,1.62-.94.94m2.56-.94.94.94" transform="translate(-419.94 -434.97)"/><path class="cls-21" d="M421.28,467.15a1.67,1.67,0,0,1,2.39-.11,1.69,1.69,0,1,1-2.39.11ZM474,524.53a1.7,1.7,0,0,1,2.51,2.28,1.7,1.7,0,0,1-2.51-2.28Z" transform="translate(-419.94 -434.97)"/></svg>