<svg id="ba76e760-01ef-4052-9cce-396e93be48fe" data-name="Layer 1" xmlns="http://www.w3.org/2000/svg" viewBox="0 0 200 200"><title>it and cse</title><rect width="200" height="200" fill="#fff"/><path d="M46.08,71.18c4.5,0,4.51-7,0-7s-4.51,7,0,7Z" fill="#192f35"/><path d="M84.6,51.38c4.5,0,4.51-7,0-7s-4.51,7,0,7Z" fill="#192f35"/><path d="M117.72,64.7c4.5,0,4.51-7,0-7s-4.51,7,0,7Z" fill="#192f35"/><path d="M147.24,72.26c4.5,0,4.51-7,0-7s-4.51,7,0,7Z" fill="#192f35"/><path d="M157.68,93.14c4.5,0,4.51-7,0-7s-4.51,7,0,7Z" fill="#192f35"/><path d="M153.36,110.42c4.5,0,4.51-7,0-7s-4.51,7,0,7Z" fill="#192f35"/><path d="M47.16,127c4.5,0,4.51-7,0-7s-4.51,7,0,7Z" fill="#192f35"/><path d="M31.32,92.78c4.5,0,4.51-7,0-7s-4.51,7,0,7Z" fill="#192f35"/><line x1="84.6" y1="47.88" x2="84.35" y2="82.71" fill="none" stroke="#192f35" stroke-miterlimit="10"/><line x1="117.72" y1="61.2" x2="117.72" y2="82.71" fill="none" stroke="#192f35" stroke-miterlimit="10"/><polyline points="147.24 68.76 126.9 68.76 126.9 81.36" fill="none" stroke="#192f35" stroke-miterlimit="10"/><line x1="157.68" y1="89.64" x2="141.9" y2="89.85" fill="none" stroke="#192f35" stroke-miterlimit="10"/><line x1="153.36" y1="106.92" x2="141.9" y2="106.92" fill="none" stroke="#192f35" stroke-miterlimit="10"/><polyline points="46.08 67.68 72.87 67.68 72.87 82.71" fill="none" stroke="#192f35" stroke-miterlimit="10"/><line x1="31.32" y1="89.28" x2="59.65" y2="89.85" fill="none" stroke="#192f35" stroke-miterlimit="10"/><line x1="47.16" y1="123.48" x2="59.65" y2="123.48" fill="none" stroke="#192f35" stroke-miterlimit="10"/><rect x="59.65" y="82.71" width="82.25" height="53.92" rx="5.8" fill="none" stroke="#e1e2e2" stroke-miterlimit="10" stroke-width="4"/><path d="M48.39,140.84H152.83c3.21,0,3.22-5,0-5H48.39c-3.22,0-3.22,5,0,5Z" fill="#e1e2e2"/><path d="M81,100.94c.91,0,1-.49,1-.94a7.89,7.89,0,0,0-.1-1.08,7.46,7.46,0,0,1-.1-1.06c0-1.17.76-1.67,1.85-1.67h.27v.7h-.23c-.76,0-1,.41-1,1.1a5.72,5.72,0,0,0,.09.91,6.14,6.14,0,0,1,.09,1,1.22,1.22,0,0,1-.92,1.38v0a1.23,1.23,0,0,1,.92,1.39,5.82,5.82,0,0,1-.09,1,6,6,0,0,0-.09.92c0,.72.29,1.12,1,1.12h.23v.7h-.27c-1.06,0-1.85-.46-1.85-1.75a7.32,7.32,0,0,1,.1-1,7.32,7.32,0,0,0,.1-1c0-.39-.13-.94-1-.94Z" fill="#231f20"/><path d="M90.65,105.91v.64H84.26v-.64Z" fill="#231f20"/><path d="M97,105.91v.64H90.65v-.64Z" fill="#231f20"/><path d="M103.43,105.91v.64H97v-.64Z" fill="#231f20"/><path d="M109.82,105.91v.64h-6.39v-.64Z" fill="#231f20"/><path d="M116.21,105.91v.64h-6.39v-.64Z" fill="#231f20"/><path d="M122.6,105.91v.64h-6.39v-.64Z" fill="#231f20"/><path d="M87,121.24v.64H80.63v-.64Z" fill="#231f20"/><path d="M93.41,121.24v.64H87v-.64Z" fill="#231f20"/><path d="M99.8,121.24v.64H93.41v-.64Z" fill="#231f20"/><path d="M106.19,121.24v.64H99.8v-.64Z" fill="#231f20"/><path d="M109.46,116.93c-.9,0-1,.55-1,.95a7.32,7.32,0,0,0,.1,1,7.32,7.32,0,0,1,.1,1c0,1.29-.8,1.75-1.85,1.75h-.27V121h.22c.71,0,1-.39,1-1.11a7.34,7.34,0,0,0-.09-.92,6,6,0,0,1-.1-1,1.25,1.25,0,0,1,.92-1.39v0a1.24,1.24,0,0,1-.92-1.38,6,6,0,0,1,.1-1,7.37,7.37,0,0,0,.09-.91c0-.69-.27-1.09-1-1.1h-.23v-.7h.26c1.08,0,1.86.49,1.86,1.67a7.6,7.6,0,0,1-.1,1.06,7.89,7.89,0,0,0-.1,1.08c0,.44.13.94,1,.94Z" fill="#231f20"/></svg>