<?xml version="1.0" encoding="utf-8"?>
<!-- Generator: Adobe Illustrator 19.0.0, SVG Export Plug-In . SVG Version: 6.00 Build 0)  -->
<svg version="1.1" id="Layer_1" xmlns="http://www.w3.org/2000/svg" xmlns:xlink="http://www.w3.org/1999/xlink" x="0px" y="0px"
	 viewBox="0 0 800 800" style="enable-background:new 0 0 800 800;" xml:space="preserve">
<style type="text/css">
	.st0{clip-path:url(#XMLID_319_);fill:#EBEBEB;}
	.st1{clip-path:url(#XMLID_319_);fill:#E0E0E0;}
	.st2{clip-path:url(#XMLID_319_);fill:#F4F4F4;}
	.st3{clip-path:url(#XMLID_319_);fill:#F9F9F9;}
	.st4{clip-path:url(#XMLID_320_);fill:#1A2E35;}
	.st5{clip-path:url(#XMLID_321_);fill:#1A2E35;}
	.st6{clip-path:url(#XMLID_321_);fill:#ABC348;}
	.st7{opacity:0.3;clip-path:url(#XMLID_321_);}
	.st8{clip-path:url(#XMLID_322_);fill:#ABC348;}
	.st9{clip-path:url(#XMLID_323_);fill:#ABC348;}
	.st10{clip-path:url(#XMLID_326_);fill:#ABC348;}
	.st11{clip-path:url(#XMLID_327_);fill:#ABC348;}
	.st12{clip-path:url(#XMLID_321_);fill:#375A64;}
	.st13{clip-path:url(#XMLID_328_);fill:#1A2E35;}
	.st14{clip-path:url(#XMLID_329_);fill:#D74D65;}
	.st15{clip-path:url(#XMLID_329_);fill:#FFFFFF;}
	.st16{clip-path:url(#XMLID_329_);fill:#375A64;}
	.st17{clip-path:url(#XMLID_329_);fill:#1A2E35;}
	.st18{clip-path:url(#XMLID_330_);fill:#F9F9F9;}
	.st19{clip-path:url(#XMLID_330_);fill:#1A2E35;}
	.st20{clip-path:url(#XMLID_330_);fill:#FF4F5B;}
	.st21{clip-path:url(#XMLID_330_);fill:#375A64;}
	.st22{clip-path:url(#XMLID_330_);fill:#FFFFFF;}
	.st23{fill:#FFBE9C;}
	.st24{clip-path:url(#XMLID_331_);fill:#FF4F5B;}
	.st25{opacity:0.5;clip-path:url(#XMLID_331_);}
	.st26{clip-path:url(#XMLID_332_);fill:#FFFFFF;}
	.st27{clip-path:url(#XMLID_333_);fill:#FFFFFF;}
	.st28{clip-path:url(#XMLID_331_);fill:#1A2E35;}
	.st29{clip-path:url(#XMLID_331_);fill:#FFBE9C;}
	.st30{clip-path:url(#XMLID_334_);fill:#FFFFFF;}
	.st31{clip-path:url(#XMLID_335_);fill:#FFFFFF;}
	.st32{clip-path:url(#XMLID_331_);fill:#52A4AF;}
	.st33{clip-path:url(#XMLID_331_);fill:#F9F9F9;}
	.st34{clip-path:url(#XMLID_331_);fill:#375A64;}
	.st35{opacity:0.3;clip-path:url(#XMLID_331_);}
	.st36{clip-path:url(#XMLID_336_);fill:#D74D65;}
	.st37{clip-path:url(#XMLID_331_);fill:#FF996C;}
	.st38{opacity:0.2;clip-path:url(#XMLID_331_);}
	.st39{clip-path:url(#XMLID_337_);}
	.st40{clip-path:url(#XMLID_338_);}
	.st41{clip-path:url(#XMLID_339_);fill:#FFBE9C;}
	.st42{clip-path:url(#XMLID_339_);fill:#FF996C;}
	.st43{clip-path:url(#XMLID_339_);fill:#1A2E35;}
	.st44{clip-path:url(#XMLID_339_);fill:#EFB645;}
	.st45{clip-path:url(#XMLID_339_);fill:#F9F9F9;}
	.st46{clip-path:url(#XMLID_339_);fill:#FF4F5B;}
	.st47{opacity:0.4;clip-path:url(#XMLID_339_);}
	.st48{clip-path:url(#XMLID_340_);fill:#FFFFFF;}
	.st49{opacity:0.3;clip-path:url(#XMLID_339_);}
	.st50{clip-path:url(#XMLID_341_);}
	.st51{clip-path:url(#XMLID_342_);fill:#FFFFFF;}
	.st52{clip-path:url(#XMLID_345_);}
	.st53{clip-path:url(#XMLID_339_);fill:#375A64;}
</style>
<g id="XMLID_317_">
	<g id="XMLID_626_">
		<defs>
			<rect id="XMLID_269_" x="20.3" y="166" width="760" height="476"/>
		</defs>
		<clipPath id="XMLID_319_">
			<use xlink:href="#XMLID_269_"  style="overflow:visible;"/>
		</clipPath>
		<path id="XMLID_315_" class="st0" d="M463.7,541.9h46.6c3.3,0,5.9-2.7,5.9-5.9v-14.3c0-5.5-4.5-10-10-10h-42.9L463.7,541.9z"/>
		<path id="XMLID_314_" class="st0" d="M509.5,550.9H418c-2.5,0-4.5-2-4.5-4.5c0-2.5,2-4.5,4.5-4.5h91.6c2.5,0,4.5,2,4.5,4.5
			C514,548.9,512,550.9,509.5,550.9"/>
		<path id="XMLID_313_" class="st1" d="M399.3,421.7l50.4-0.9l32,120.8l-68.2,0.7l-25.7-105.9C385.9,428.9,391.6,421.7,399.3,421.7"
			/>
		<polygon id="XMLID_312_" class="st0" points="424.4,550.9 409.3,638.5 413.4,638.5 433.3,550.9 		"/>
		<polygon id="XMLID_311_" class="st1" points="459.9,550.9 443.9,638.5 448,638.5 468.8,550.9 		"/>
		<polygon id="XMLID_310_" class="st0" points="499.2,550.9 517.1,638.5 513,638.5 490.3,550.9 		"/>
		<path id="XMLID_309_" class="st0" d="M443.9,420.8l24.9,121H488l-20-106.9c-1.5-8.2-8.6-14.1-16.9-14.1H443.9z"/>
		<rect id="XMLID_308_" x="521.2" y="461.4" class="st0" width="68.9" height="3.4"/>
		<polygon id="XMLID_307_" class="st0" points="600.9,464.8 613.8,416.3 560,416.3 548.3,464.8 		"/>
		<polygon id="XMLID_306_" class="st1" points="551.5,461.1 599.6,461.1 610.8,418.6 562.4,418.6 		"/>
		<rect id="XMLID_305_" x="507.6" y="474.7" class="st2" width="3.5" height="166.2"/>
		<rect id="XMLID_304_" x="511.1" y="475.2" class="st0" width="3.5" height="165.8"/>
		<rect id="XMLID_303_" x="722.1" y="474.7" class="st0" width="3.5" height="166.2"/>
		<rect id="XMLID_302_" x="725.6" y="475.2" class="st1" width="3.5" height="165.8"/>
		<rect id="XMLID_301_" x="492.6" y="465.1" class="st1" width="264.5" height="13.6"/>
		<rect id="XMLID_300_" x="607.4" y="478.7" class="st0" width="116.4" height="22.6"/>
		<path id="XMLID_299_" class="st1" d="M670.8,488.4c0,1.4-1.2,2.6-2.6,2.6c-1.4,0-2.6-1.2-2.6-2.6c0-1.4,1.2-2.6,2.6-2.6
			C669.7,485.8,670.8,487,670.8,488.4"/>
		<rect id="XMLID_298_" x="20.3" y="194.8" class="st1" width="78.2" height="119"/>
		<rect id="XMLID_297_" x="23.5" y="199" class="st3" width="71.5" height="110.6"/>
		<rect id="XMLID_296_" x="49.6" y="236.3" class="st1" width="19.7" height="36.1"/>
		<rect id="XMLID_295_" x="686.8" y="299.4" class="st1" width="2.5" height="21.9"/>
		<rect id="XMLID_294_" x="767.5" y="299.4" class="st1" width="2.5" height="21.9"/>
		<rect id="XMLID_293_" x="677.8" y="290.6" class="st0" width="102.6" height="8.8"/>
		<rect id="XMLID_292_" x="745.9" y="224.7" class="st2" width="14.1" height="65.9"/>
		<path id="XMLID_291_" class="st1" d="M756.1,274.8c0,1.5-1.3,2.8-2.8,2.8c-1.5,0-2.8-1.3-2.8-2.8c0-1.5,1.3-2.8,2.8-2.8
			C754.8,272,756.1,273.2,756.1,274.8"/>
		<rect id="XMLID_290_" x="751" y="242.2" class="st1" width="4.3" height="26.9"/>
		<rect id="XMLID_289_" x="731.6" y="224.7" class="st0" width="14.1" height="65.9"/>
		<path id="XMLID_288_" class="st3" d="M741.7,274.8c0,1.5-1.3,2.8-2.8,2.8c-1.5,0-2.8-1.3-2.8-2.8c0-1.5,1.3-2.8,2.8-2.8
			C740.5,272,741.7,273.2,741.7,274.8"/>
		<rect id="XMLID_287_" x="736.7" y="242.2" class="st3" width="4.3" height="26.9"/>
		<rect id="XMLID_286_" x="717.9" y="224.7" class="st1" width="14.1" height="65.9"/>
		<path id="XMLID_285_" class="st3" d="M728.1,274.8c0,1.5-1.3,2.8-2.8,2.8c-1.5,0-2.8-1.3-2.8-2.8c0-1.5,1.3-2.8,2.8-2.8
			C726.8,272,728.1,273.2,728.1,274.8"/>
		<rect id="XMLID_284_" x="723" y="242.2" class="st3" width="4.3" height="26.9"/>
		<polygon id="XMLID_283_" class="st1" points="700.4,289.6 717.4,231.6 711.5,229 694.1,287.5 		"/>
		<path id="XMLID_282_" class="st0" d="M306.4,531.8c5.8-3,12.5-3.4,18.9-2.3c3.4,0.6,7,1.6,9.4,4.2c2.3,2.6,2.8,7.1,0.1,9.3
			c-1.6,1.3-3.8,1.5-5.9,1.5c-5-0.1-10.6-0.9-14.6,2.1c-2.3,1.7-3.8,4.6-6.5,5.4c-2.7,0.8-5.7-0.7-7.1-3.2c-1.4-2.4-1.5-5.4-0.8-8.1
			C299.9,540.7,300.6,534.8,306.4,531.8"/>
		<path id="XMLID_281_" class="st0" d="M293.2,506.3c3.5,5,10.4,3.4,13.5,0.3c3.2-3.1,4.5-7.5,5.7-11.8c2.8-9.7,5.6-19.9,3.5-29.7
			c-0.6-3-1.7-5.9-3.8-8.1c-2.1-2.2-5.3-3.5-8.2-2.7c-3.5,0.9-5.6,4.3-7.1,7.5c-4.6,9.5-7,19.9-7,30.4
			C289.8,497.1,290.4,502.3,293.2,506.3"/>
		<path id="XMLID_280_" class="st0" d="M283.5,513.5c3.8-4.5,4.5-11.2,2.8-16.8c-1.7-5.7-5.5-10.5-10-14.5
			c-5.2-4.6-11.3-8.2-17.9-10.5c-2.6-0.9-5.3-1.6-8-1.4c-2.7,0.3-5.5,1.7-6.7,4.1c-1.9,3.6-0.1,7.9,1.9,11.5
			c3.4,6.3,7.4,12.2,11.7,17.9c3.5,4.5,7.5,9,12.9,11.1c5.4,2,10.9,1.8,13.8-1.9"/>
		<path id="XMLID_279_" class="st1" d="M292.9,582.2c0.1,0,0.2-0.8,0.3-2.3c0.2-1.7,0.4-3.8,0.6-6.2c0.3-2.6,0.7-5.7,1.4-9.2
			c0.7-3.4,1.9-7.1,3.3-10.8c1.5-3.7,3.4-7.1,5.5-9.8c2.1-2.7,4.6-4.7,7-5.8c2.3-1.2,4.4-1.6,5.9-1.8c1.5-0.2,2.3-0.3,2.3-0.3
			c0-0.1-0.8-0.1-2.3,0c-1.5,0.1-3.7,0.5-6.1,1.6c-2.5,1.1-5.1,3.1-7.4,5.8c-2.3,2.7-4.2,6.2-5.7,10c-1.5,3.8-2.6,7.5-3.3,11
			c-0.7,3.5-1,6.6-1.2,9.3c-0.2,2.6-0.3,4.8-0.3,6.3C292.9,581.4,292.9,582.2,292.9,582.2"/>
		<path id="XMLID_278_" class="st1" d="M293.4,577.4c0,0,0.1-0.4,0.1-1.1c0-0.8,0-1.8,0-3c0-2.6,0-6.4,0.1-11.1
			c0.2-9.4,1-19.5,2.6-33.8c1.5-13.4,3.5-29,5.6-39.2c0.5-2.3,0.9-4.4,1.3-6.2c0.4-1.8,0.8-3.4,1.1-4.7c0.3-1.2,0.5-2.2,0.7-2.9
			c0.2-0.7,0.2-1,0.2-1c0,0-0.2,0.3-0.4,1c-0.2,0.8-0.5,1.7-0.9,2.9c-0.4,1.3-0.8,2.8-1.2,4.6c-0.5,1.8-1,3.9-1.5,6.2
			c-2.1,9.2-4.3,22.1-5.9,36.4c-1.6,14.3-2.3,27.3-2.3,36.8c-0.1,4.7,0,8.5,0.2,11.2c0.1,1.2,0.1,2.2,0.2,3
			C293.3,577,293.3,577.4,293.4,577.4"/>
		<path id="XMLID_277_" class="st1" d="M293.4,552.3c0.1,0,0.1-1.1,0-3.2c-0.1-2-0.4-5-1-8.6c-0.6-3.6-1.5-7.9-2.8-12.5
			c-0.6-2.1-1.9-7.2-5.2-14.8c-4.3-10.3-10.2-18.7-15.4-23.9c-1.2-1.4-2.5-2.4-3.6-3.4c-0.6-0.5-1-0.9-1.5-1.3c-0.5-0.3-1-0.7-1.4-1
			c-1.7-1.2-2.6-1.8-2.7-1.7c-0.2,0.2,3.8,2.5,8.7,7.8c4.9,5.3,10.7,13.6,15,23.8c2.4,5.5,4.1,10.5,5.3,14.7c1.4,4.6,2.3,8.8,3,12.4
			c0.7,3.6,1,6.5,1.3,8.5C293.2,551.2,293.4,552.3,293.4,552.3"/>
		<polygon id="XMLID_276_" class="st1" points="269.2,596.6 271.7,631.1 316,631.1 318.5,596.6 		"/>
		<rect id="XMLID_275_" x="264.9" y="583" class="st1" width="58.9" height="13.6"/>
		<polygon id="XMLID_274_" class="st0" points="264.9,629.7 264.9,633.5 267.6,633.5 322.8,633.5 322.8,629.7 		"/>
		<polygon id="XMLID_273_" class="st1" points="270.4,640.1 267.6,633.5 320.7,633.5 317.5,640.1 		"/>
		<path id="XMLID_272_" class="st2" d="M317.7,607.9c0,0-0.1,0.1-0.2,0.3c-0.2,0.2-0.4,0.5-0.7,0.9c-0.6,0.8-1.5,1.9-2.6,3.3
			l-0.1,0.1l-0.1-0.2c-1.6-2.2-3.8-5.2-6.3-8.8h0.4c-1.9,2.7-4,5.6-6.2,8.8l-0.2,0.3l-0.2-0.3c-2.3-2.7-4.8-5.7-7.4-8.8l0.4,0
			c-0.1,0.2-0.3,0.3-0.4,0.5c-2.3,2.9-4.5,5.7-6.6,8.3l-0.2,0.3l-0.2-0.3c-2.2-3.2-4.3-6.2-6.2-8.8l0.4,0c-3.1,3.5-5.7,6.5-7.7,8.8
			l-0.1,0.2l-0.1-0.2c-1-1.7-1.8-3.1-2.4-4c-0.3-0.4-0.5-0.8-0.6-1.1c-0.1-0.2-0.2-0.4-0.2-0.4c0,0,0.1,0.1,0.3,0.3
			c0.2,0.3,0.4,0.6,0.7,1c0.6,1,1.5,2.3,2.5,4l-0.2,0c2-2.3,4.5-5.3,7.6-8.9l0.2-0.2l0.2,0.2c1.9,2.7,4,5.6,6.3,8.8l-0.4,0
			c2.1-2.6,4.3-5.4,6.6-8.3c0.1-0.2,0.3-0.4,0.4-0.5l0.2-0.3l0.2,0.3c2.6,3.1,5.1,6.1,7.4,8.8l-0.4,0c2.3-3.2,4.4-6.1,6.3-8.8
			l0.2-0.3l0.2,0.3c2.5,3.6,4.6,6.6,6.2,8.9l-0.2,0c1.1-1.4,2-2.4,2.7-3.2c0.3-0.3,0.5-0.6,0.7-0.8
			C317.6,607.9,317.7,607.8,317.7,607.9"/>
		<path id="XMLID_271_" class="st2" d="M319.1,596.4c0,0.2-11.1,0.3-24.8,0.3c-13.7,0-24.8-0.1-24.8-0.3c0-0.2,11.1-0.3,24.8-0.3
			C308,596.1,319.1,596.2,319.1,596.4"/>
		<path id="XMLID_270_" class="st2" d="M321.3,633.9c0,0.2-12.1,0.3-26.9,0.3c-14.9,0-26.9-0.1-26.9-0.3c0-0.2,12.1-0.3,26.9-0.3
			C309.3,633.6,321.3,633.7,321.3,633.9"/>
	</g>
	<g id="XMLID_623_">
		<defs>
			<rect id="XMLID_267_" x="20.3" y="166" width="760" height="476"/>
		</defs>
		<clipPath id="XMLID_320_">
			<use xlink:href="#XMLID_267_"  style="overflow:visible;"/>
		</clipPath>
		<path id="XMLID_268_" class="st4" d="M724.9,641.4c0,0.2-151.5,0.3-338.3,0.3c-186.9,0-338.3-0.1-338.3-0.3
			c0-0.2,151.4-0.3,338.3-0.3C573.4,641.1,724.9,641.2,724.9,641.4"/>
	</g>
	<g id="XMLID_576_">
		<defs>
			<rect id="XMLID_229_" x="20.3" y="166" width="760" height="476"/>
		</defs>
		<clipPath id="XMLID_321_">
			<use xlink:href="#XMLID_229_"  style="overflow:visible;"/>
		</clipPath>
		<path id="XMLID_266_" class="st5" d="M64.6,616.2c0,0,0-0.1,0.2-0.4c0.1-0.3,0.3-0.7,0.5-1.1c0.5-1,1-2.5,1.6-4.6
			c1-4.1,1.4-10.2-0.1-17.6c-0.7-3.7-1.9-7.6-3.3-11.8c-1.4-4.2-3-8.7-4.3-13.5c-1.3-4.8-2.3-10-2.1-15.5c0.2-5.5,1.8-10.9,3.6-16.4
			c1.8-5.5,3.6-10.8,4.2-16.1c0.6-5.3-0.5-10.6-3-14.9c-2.4-4.3-5.3-8.1-7.6-11.9c-2.3-3.8-3.7-7.8-4.5-11.5
			c-1.7-7.4-1.1-13.6-0.3-17.7c0.9-4.1,1.9-6.3,1.9-6.3c0,0,0,0.1-0.1,0.4c-0.1,0.3-0.2,0.7-0.4,1.2c-0.3,1.1-0.7,2.6-1.2,4.7
			c-0.7,4.1-1.3,10.3,0.5,17.6c0.9,3.6,2.3,7.5,4.6,11.3c2.2,3.8,5.2,7.5,7.6,11.9c2.5,4.3,3.7,9.8,3,15.2
			c-0.6,5.4-2.4,10.8-4.2,16.3c-1.8,5.4-3.4,10.8-3.6,16.2c-0.2,5.4,0.8,10.5,2.1,15.3c1.3,4.8,2.9,9.2,4.2,13.5
			c1.4,4.2,2.5,8.2,3.2,11.9c1.5,7.4,1.1,13.7,0,17.7c-0.6,2-1.2,3.6-1.7,4.6c-0.2,0.5-0.4,0.8-0.6,1.1
			C64.7,616.1,64.6,616.2,64.6,616.2"/>
		<path id="XMLID_265_" class="st6" d="M57.3,496.2c0,0-4.5-14.4,3.6-22.9c0.3-0.3,0.8-0.2,0.9,0.2C62.2,476,62.7,483.2,57.3,496.2"
			/>
		<path id="XMLID_264_" class="st5" d="M60,478.1c0.1,0-0.1,1-0.3,2.7c-0.3,1.8-0.6,4-1,6.4c-0.4,2.4-0.7,4.5-1,6.4
			c-0.2,1.6-0.4,2.6-0.5,2.6c-0.1,0-0.1-1,0.1-2.7c0.2-1.6,0.4-3.9,0.8-6.4c0.4-2.5,0.8-4.7,1.2-6.3C59.7,479.1,59.9,478.1,60,478.1
			"/>
		<path id="XMLID_263_" class="st6" d="M62.6,530.2c0,0,2.8-14.9,13.9-18.5c0.4-0.1,0.8,0.2,0.6,0.6
			C76.4,514.6,73.5,521.3,62.6,530.2"/>
		<path id="XMLID_262_" class="st5" d="M73.5,515.5c0.1,0-0.5,0.9-1.5,2.2c-1.1,1.5-2.4,3.2-3.9,5.1c-1.4,1.9-2.8,3.7-3.9,5.2
			c-1,1.3-1.6,2.1-1.7,2.1c-0.1,0,0.4-0.9,1.3-2.3c0.9-1.4,2.2-3.3,3.7-5.3c1.5-2,3-3.8,4-5.1C72.7,516.2,73.4,515.5,73.5,515.5"/>
		<path id="XMLID_261_" class="st6" d="M59.6,567.5c0,0-1.7-15,7.9-21.8c0.3-0.2,0.8,0,0.8,0.4C68.3,548.6,67.4,555.8,59.6,567.5"/>
		<path id="XMLID_260_" class="st5" d="M65.7,550.3c0.1,0-0.2,1-0.8,2.6c-0.6,1.7-1.4,3.8-2.2,6c-0.8,2.3-1.6,4.3-2.2,6.1
			c-0.6,1.6-0.9,2.5-1,2.5c-0.1,0,0.1-1,0.6-2.6c0.5-1.6,1.2-3.8,2.1-6.1c0.9-2.4,1.7-4.5,2.4-6S65.6,550.3,65.7,550.3"/>
		<path id="XMLID_259_" class="st6" d="M68,605c0,0-1.1-15.1,8.7-21.5c0.3-0.2,0.8,0,0.8,0.4C77.3,586.4,76.2,593.6,68,605"/>
		<path id="XMLID_258_" class="st5" d="M74.7,588c0.1,0-0.3,1-0.9,2.5c-0.7,1.7-1.5,3.7-2.4,6c-0.9,2.2-1.7,4.3-2.4,6
			c-0.6,1.5-1,2.5-1.1,2.5c-0.1,0,0.2-1,0.7-2.6c0.5-1.6,1.3-3.7,2.3-6c1-2.3,1.9-4.4,2.6-5.9C74.1,588.9,74.6,588,74.7,588"/>
		<path id="XMLID_257_" class="st6" d="M50.8,483.5c0,0-13.4-7-13.7-18.7c0-0.4,0.4-0.7,0.8-0.4C39.9,465.8,45.5,470.5,50.8,483.5"
			/>
		<path id="XMLID_256_" class="st5" d="M40,468.9c0.1,0,0.7,0.8,1.7,2.1c1.1,1.5,2.4,3.3,3.8,5.2c1.4,1.9,2.7,3.7,3.8,5.2
			c1,1.3,1.6,2.1,1.5,2.2c-0.1,0-0.8-0.7-1.8-2c-1.1-1.3-2.5-3.1-3.9-5.1c-1.5-2-2.8-3.9-3.6-5.3C40.4,469.8,39.9,468.9,40,468.9"/>
		<path id="XMLID_255_" class="st6" d="M65.2,514.5c0,0-13.8-6.2-14.8-17.8c0-0.4,0.4-0.7,0.8-0.5C53.3,497.5,59.1,501.9,65.2,514.5
			"/>
		<path id="XMLID_254_" class="st5" d="M53.5,500.5c0.1,0,0.7,0.7,1.8,2c1.2,1.4,2.6,3.1,4.1,5c1.5,1.9,2.9,3.5,4.1,5
			c1.1,1.3,1.7,2,1.7,2.1c-0.1,0.1-0.8-0.6-2-1.8c-1.1-1.2-2.6-2.9-4.2-4.9c-1.6-2-3-3.8-4-5.1S53.4,500.6,53.5,500.5"/>
		<path id="XMLID_253_" class="st6" d="M57.3,549.1c0,0-9.5-11.8-5-22.6c0.2-0.4,0.7-0.4,0.9-0.1C54.4,528.4,57.6,535,57.3,549.1"/>
		<path id="XMLID_252_" class="st5" d="M53.2,531.3c0.1,0,0.3,1,0.7,2.6c0.4,1.8,0.9,3.9,1.4,6.3c0.5,2.4,1,4.5,1.4,6.3
			c0.4,1.6,0.6,2.6,0.5,2.6c-0.1,0-0.4-0.9-0.9-2.5c-0.5-1.6-1-3.8-1.6-6.3c-0.5-2.5-0.9-4.7-1.2-6.3
			C53.2,532.3,53.1,531.3,53.2,531.3"/>
		<path id="XMLID_251_" class="st6" d="M66.7,589.7c0,0-13.7-6.4-14.5-18.1c0-0.4,0.4-0.7,0.8-0.5C55,572.5,60.7,577,66.7,589.7"/>
		<path id="XMLID_250_" class="st5" d="M55.2,575.5c0.1,0,0.7,0.7,1.8,2c1.2,1.5,2.5,3.2,4,5.1c1.5,1.9,2.9,3.6,4,5
			c1,1.3,1.7,2.1,1.6,2.1c-0.1,0.1-0.8-0.6-1.9-1.9c-1.1-1.2-2.6-3-4.2-4.9c-1.6-2-2.9-3.8-3.9-5.2
			C55.6,576.5,55.1,575.6,55.2,575.5"/>
		<path id="XMLID_249_" class="st5" d="M93.9,530.3c0,0,0,0.1,0,0.3c0,0.3,0,0.6,0,1c0,0.9-0.1,2.1-0.2,3.7
			c-0.2,3.2-0.4,7.7-0.7,13.1v0l0,0c-1,5.5-3.8,11.5-7.5,17.4c-2.7,4.3-5.6,8.3-8.1,11.9c-2.5,3.7-4.6,7-6.1,10
			c-1.5,3-2.3,5.6-2.8,7.4c-0.2,0.9-0.4,1.6-0.5,2.1c-0.1,0.5-0.2,0.7-0.2,0.7c0,0,0-0.3,0.1-0.7c0.1-0.5,0.2-1.2,0.4-2.1
			c0.4-1.8,1.3-4.4,2.7-7.5c1.4-3,3.5-6.5,6-10.2c2.5-3.7,5.3-7.6,8.1-12c3.7-5.9,6.5-11.8,7.5-17.2l0,0c0.4-5.4,0.7-9.9,0.9-13.1
			c0.1-1.5,0.2-2.7,0.3-3.7c0-0.4,0.1-0.7,0.1-1C93.9,530.4,93.9,530.3,93.9,530.3"/>
		<path id="XMLID_248_" class="st6" d="M85.8,564.7c0,0,5.8-14-1.5-23.1c-0.3-0.3-0.8-0.2-0.9,0.2C82.8,544.1,81.6,551.3,85.8,564.7
			"/>
		<path id="XMLID_247_" class="st5" d="M84.7,546.4c0.1,0,0.3,1,0.5,2.6c0.2,1.6,0.4,3.9,0.6,6.4c0.2,2.5,0.3,4.8,0.3,6.5
			c0,1.7-0.1,2.7-0.2,2.7c-0.1,0-0.1-1-0.2-2.7c-0.1-1.9-0.3-4-0.4-6.4c-0.2-2.4-0.3-4.6-0.4-6.4C84.7,547.5,84.7,546.5,84.7,546.4"
			/>
		<g id="XMLID_599_" class="st7">
			<g id="XMLID_600_">
				<defs>
					<rect id="XMLID_245_" x="82.7" y="541.4" width="5.2" height="23.3"/>
				</defs>
				<clipPath id="XMLID_322_">
					<use xlink:href="#XMLID_245_"  style="overflow:visible;"/>
				</clipPath>
				<path id="XMLID_246_" class="st8" d="M85.8,564.7c0,0,5.8-14-1.5-23.1c-0.3-0.3-0.8-0.2-0.9,0.2
					C82.8,544.1,81.6,551.3,85.8,564.7"/>
			</g>
		</g>
		<path id="XMLID_244_" class="st6" d="M67.8,598.3c0,0,4.6-14.4-3.4-22.9c-0.3-0.3-0.8-0.2-0.9,0.2C63.1,578,62.5,585.3,67.8,598.3
			"/>
		<path id="XMLID_243_" class="st5" d="M65.3,580.2c0.1,0,0.3,1,0.7,2.6c0.3,1.6,0.8,3.9,1.1,6.4c0.4,2.5,0.7,4.8,0.8,6.4
			c0.1,1.6,0.1,2.7,0.1,2.7c-0.1,0-0.2-1-0.5-2.6c-0.3-1.8-0.6-4-0.9-6.4c-0.4-2.4-0.7-4.5-1-6.4C65.3,581.3,65.2,580.2,65.3,580.2"
			/>
		<g id="XMLID_593_" class="st7">
			<g id="XMLID_594_">
				<defs>
					<rect id="XMLID_241_" x="63.3" y="575.2" width="5.9" height="23.1"/>
				</defs>
				<clipPath id="XMLID_323_">
					<use xlink:href="#XMLID_241_"  style="overflow:visible;"/>
				</clipPath>
				<path id="XMLID_242_" class="st9" d="M67.8,598.3c0,0,4.6-14.4-3.4-22.9c-0.3-0.3-0.8-0.2-0.9,0.2
					C63.1,578,62.5,585.3,67.8,598.3"/>
			</g>
		</g>
		<path id="XMLID_240_" class="st6" d="M93.2,547.6c0,0,12.4-8.7,11.1-20.3c0-0.4-0.5-0.6-0.8-0.3C101.7,528.6,96.8,534,93.2,547.6"
			/>
		<g id="XMLID_588_" class="st7">
			<g id="XMLID_589_">
				<defs>
					<rect id="XMLID_238_" x="93.2" y="526.9" width="11.2" height="20.8"/>
				</defs>
				<clipPath id="XMLID_326_">
					<use xlink:href="#XMLID_238_"  style="overflow:visible;"/>
				</clipPath>
				<path id="XMLID_239_" class="st10" d="M93.2,547.6c0,0,12.4-8.7,11.1-20.3c0-0.4-0.5-0.6-0.8-0.3
					C101.7,528.6,96.8,534,93.2,547.6"/>
			</g>
		</g>
		<path id="XMLID_237_" class="st5" d="M102.1,531.7c0.1,0-0.3,1-1,2.5c-0.7,1.5-1.7,3.5-2.9,5.8c-1.2,2.2-2.4,4.2-3.2,5.6
			c-0.9,1.4-1.5,2.2-1.6,2.2c-0.1,0,0.4-0.9,1.2-2.4c0.9-1.6,1.9-3.5,3.1-5.7c1.1-2.1,2.2-4,3.1-5.7
			C101.5,532.5,102,531.6,102.1,531.7"/>
		<path id="XMLID_236_" class="st6" d="M72.8,584.1c0,0,14.9-2.3,18.9-13.3c0.1-0.4-0.2-0.8-0.6-0.7
			C88.8,570.7,82.1,573.5,72.8,584.1"/>
		<g id="XMLID_582_" class="st7">
			<g id="XMLID_583_">
				<defs>
					<rect id="XMLID_234_" x="72.8" y="570.1" width="19" height="14"/>
				</defs>
				<clipPath id="XMLID_327_">
					<use xlink:href="#XMLID_234_"  style="overflow:visible;"/>
				</clipPath>
				<path id="XMLID_235_" class="st11" d="M72.8,584.1c0,0,14.9-2.3,18.9-13.3c0.1-0.4-0.2-0.8-0.6-0.7
					C88.8,570.7,82.1,573.5,72.8,584.1"/>
			</g>
		</g>
		<path id="XMLID_233_" class="st5" d="M87.8,573.6c0,0.1-0.7,0.7-2,1.8c-1.3,1-3.1,2.4-5.2,3.9c-2.1,1.5-4,2.7-5.4,3.6
			c-1.4,0.9-2.3,1.3-2.4,1.3c0-0.1,0.8-0.7,2.2-1.6c1.5-1.1,3.3-2.3,5.3-3.7c2-1.4,3.7-2.7,5.3-3.7
			C86.9,574.2,87.8,573.6,87.8,573.6"/>
		<polygon id="XMLID_232_" class="st12" points="58.6,611.5 54.2,640.9 81.4,640.9 77.8,611.5 		"/>
		<path id="XMLID_231_" class="st5" d="M78.9,620.6c0,0.2-4.9,0.3-10.9,0.3c-6,0-10.9-0.1-10.9-0.3s4.9-0.3,10.9-0.3
			C74,620.3,78.9,620.5,78.9,620.6"/>
		<path id="XMLID_230_" class="st5" d="M79.5,623c0,0.2-5.1,0.3-11.3,0.3c-6.2,0-11.3-0.1-11.3-0.3c0-0.2,5.1-0.3,11.3-0.3
			C74.4,622.7,79.5,622.8,79.5,623"/>
	</g>
	<g id="XMLID_572_">
		<defs>
			<rect id="XMLID_226_" x="20.3" y="166" width="760" height="476"/>
		</defs>
		<clipPath id="XMLID_328_">
			<use xlink:href="#XMLID_226_"  style="overflow:visible;"/>
		</clipPath>
		<path id="XMLID_228_" class="st13" d="M77.3,327.7c0,0,0.2,0.2,0.5,0.5c0.3,0.3,0.8,0.8,1.5,1.4c1.4,1.2,3.4,2.9,6.5,4.4
			c0.8,0.3,1.6,0.8,2.5,1c0.4,0.2,0.9,0.3,1.4,0.5c0.5,0.1,1,0.2,1.5,0.4c1,0.3,2.1,0.4,3.1,0.6c0.5,0.1,1.1,0.1,1.7,0.1
			c0.6,0.1,1.2,0.1,1.7,0c4.7,0,10.1-1.5,15-4.9l0.1-0.1l0.1,0c4.1,0.8,8.6,1.6,13.3,2.5l-0.3,0.5c-2.3-2.7-4.8-5.5-7.3-8.4
			l-0.2-0.2l0.1-0.2c1.2-1.7,2.3-3.6,3.2-5.7c0.8-2.1,1.4-4.3,1.7-6.5c0.5-4.6,0-9.4-2-13.8c-2.5-5.7-7-10.4-12.3-13
			c-5.3-2.6-11.2-3.4-16.5-2.4c-2.7,0.5-5.2,1.3-7.5,2.6c-2.3,1.2-4.3,2.7-6,4.4c-3.5,3.3-5.8,7.4-7,11.3c-1.2,3.9-1.4,7.7-1,11
			c0.4,3.3,1.4,5.9,2.3,8c0.3,0.5,0.5,1,0.7,1.5c0.2,0.5,0.5,0.8,0.7,1.2c0.5,0.8,0.9,1.4,1.2,1.9c0.4,0.5,0.6,0.8,0.8,1.1
			C77.2,327.5,77.3,327.7,77.3,327.7c0,0-0.1-0.1-0.3-0.4c-0.2-0.3-0.5-0.6-0.9-1.1c-0.4-0.5-0.8-1.1-1.3-1.8
			c-0.2-0.4-0.5-0.8-0.8-1.2c-0.2-0.5-0.5-0.9-0.8-1.5c-1-2.1-2-4.8-2.5-8.1c-0.4-3.3-0.3-7.1,0.9-11.1c1.2-4,3.4-8.2,7-11.5
			c3.5-3.4,8.3-6.1,13.8-7.1c5.4-1.1,11.5-0.3,16.9,2.4c5.4,2.7,10,7.4,12.6,13.3c2,4.5,2.6,9.5,2,14.2c-0.3,2.3-0.9,4.6-1.8,6.7
			c-0.9,2.1-2,4-3.3,5.8l0-0.4c2.5,2.9,5,5.7,7.3,8.4l0.5,0.6l-0.8-0.2c-4.7-0.9-9.2-1.8-13.3-2.6l0.2,0c-4.9,3.4-10.5,4.9-15.3,4.9
			c-0.6,0-1.2,0-1.8,0c-0.6,0-1.2-0.1-1.7-0.1c-1.1-0.2-2.2-0.3-3.2-0.6c-0.5-0.1-1-0.3-1.5-0.4c-0.5-0.2-0.9-0.3-1.4-0.5
			c-0.9-0.3-1.7-0.7-2.5-1.1c-3.1-1.5-5.1-3.3-6.5-4.5c-0.6-0.6-1.1-1.2-1.4-1.5C77.5,327.9,77.3,327.7,77.3,327.7"/>
		<polygon id="XMLID_227_" class="st13" points="97,304.7 101.5,303.2 106,301.7 105,306.3 104.1,310.9 101.6,308.8 91.1,320.5 
			89,318.6 99.5,306.8 		"/>
	</g>
	<g id="XMLID_561_">
		<defs>
			<rect id="XMLID_218_" x="20.3" y="166" width="760" height="476"/>
		</defs>
		<clipPath id="XMLID_329_">
			<use xlink:href="#XMLID_218_"  style="overflow:visible;"/>
		</clipPath>
		<path id="XMLID_225_" class="st14" d="M280.5,224.5c0,32.3-26.2,58.5-58.5,58.5c-32.3,0-58.5-26.2-58.5-58.5s26.2-58.5,58.5-58.5
			C254.3,166,280.5,192.2,280.5,224.5"/>
		<path id="XMLID_568_" class="st15" d="M221.9,273.2c-26.9,0-48.7-21.9-48.7-48.7c0-26.9,21.9-48.7,48.7-48.7s48.7,21.9,48.7,48.7
			C270.7,251.4,248.8,273.2,221.9,273.2 M221.9,184.1c-22.3,0-40.4,18.1-40.4,40.4c0,22.3,18.1,40.4,40.4,40.4s40.4-18.1,40.4-40.4
			C262.3,202.2,244.2,184.1,221.9,184.1"/>
		<path id="XMLID_565_" class="st15" d="M221.6,241.2c-9.9,0-17.9-8-17.9-17.9c0-9.9,8-17.9,17.9-17.9c9.9,0,17.9,8.1,17.9,17.9
			C239.5,233.1,231.5,241.2,221.6,241.2 M221.6,213.6c-5.3,0-9.6,4.3-9.6,9.6c0,5.3,4.3,9.6,9.6,9.6c5.3,0,9.6-4.3,9.6-9.6
			C231.2,217.9,226.9,213.6,221.6,213.6"/>
		<polygon id="XMLID_220_" class="st16" points="221.6,223.2 198.9,223.2 202.9,230.2 149.5,254.7 151.3,257.7 204.8,233.5 
			208.5,240.5 		"/>
		<path id="XMLID_219_" class="st17" d="M149.5,254.7l-0.6-0.6c-2.8-2.7-6.8-3.7-10.6-2.6l-21.3,6.2l11.9,5.2l-4.8,12.7l20-7.1
			c4.5-1.6,7.4-6,7.2-10.8L149.5,254.7z"/>
	</g>
	<g id="XMLID_521_">
		<defs>
			<rect id="XMLID_180_" x="20.3" y="166" width="760" height="476"/>
		</defs>
		<clipPath id="XMLID_330_">
			<use xlink:href="#XMLID_180_"  style="overflow:visible;"/>
		</clipPath>
		<path id="XMLID_217_" class="st18" d="M644.1,315.8H508.4c-3.2,0-5.9-2.6-5.9-5.9V182.4c0-3.2,2.6-5.9,5.9-5.9h135.7
			c3.2,0,5.9,2.6,5.9,5.9v127.5C650,313.1,647.4,315.8,644.1,315.8"/>
		<path id="XMLID_216_" class="st19" d="M644.1,315.8c0,0,0.5,0,1.4-0.2c0.9-0.2,2.3-0.9,3.4-2.4c0.5-0.8,0.9-1.8,1-2.9
			c0-1.1,0-2.4,0-3.8c0-2.7,0-5.9,0-9.5c0-14.3-0.1-34.9-0.1-60.4c0-12.7,0-26.7,0-41.7c0-3.7,0-7.6,0-11.4c0-1,0-1.9-0.3-2.8
			c-0.3-0.9-0.8-1.7-1.5-2.3c-0.7-0.6-1.5-1.1-2.4-1.4c-0.9-0.3-1.9-0.2-2.9-0.2c-8,0-16.2,0-24.6,0c-33.7,0-70.7,0-109.6,0
			c-2.3,0-4.5,1.6-5.3,3.7c-0.4,1.1-0.3,2.3-0.3,3.5v3.6c0,4.8,0,9.6,0,14.3c0,9.5,0,18.8,0,28c0,18.3,0,36,0,52.9
			c0,8.4,0,16.6,0,24.6c0,1,0,2,0,3c0.1,0.9,0.4,1.9,0.9,2.6c1.1,1.6,2.9,2.5,4.8,2.5c3.9,0,7.7,0,11.4,0c15,0,28.9,0,41.7,0
			c25.5,0,46.1,0.1,60.4,0.1c7.1,0,12.6,0,16.4,0.1c1.9,0,3.3,0,4.3,0C643.6,315.8,644.1,315.8,644.1,315.8s-0.5,0-1.5,0
			c-1,0-2.4,0-4.3,0c-3.8,0-9.3,0-16.4,0.1c-14.3,0-34.9,0.1-60.4,0.1c-12.7,0-26.7,0-41.7,0c-3.7,0-7.6,0-11.4,0
			c-2,0.1-4.1-1-5.2-2.7c-0.6-0.9-0.9-1.9-1-2.9c-0.1-1,0-2,0-3c0-8,0-16.2,0-24.6c0-16.9,0-34.5,0-52.9c0-9.2,0-18.5,0-28
			c0-4.7,0-9.5,0-14.3l0-3.6l0-1.8c0-0.6,0.1-1.3,0.3-1.9c0.8-2.4,3.3-4.2,5.9-4.1c38.9,0,75.9,0,109.6,0c8.4,0,16.6,0,24.6,0l1.5,0
			c0.5,0,1,0.1,1.5,0.2c1,0.3,1.9,0.8,2.7,1.5c0.8,0.7,1.3,1.6,1.6,2.6c0.3,1,0.3,2,0.3,3c0,3.9,0,7.7,0,11.4c0,15,0,28.9,0,41.7
			c0,25.5-0.1,46.1-0.1,60.4c0,3.6,0,6.7,0,9.5c0,1.4,0,2.6,0,3.8c-0.1,1.2-0.5,2.2-1,3c-1.1,1.6-2.5,2.2-3.5,2.4
			C644.6,315.8,644.1,315.8,644.1,315.8"/>
		<rect id="XMLID_215_" x="528.3" y="232.3" class="st20" width="8" height="68.3"/>
		<rect id="XMLID_214_" x="564.4" y="226.8" class="st20" width="8" height="73.9"/>
		<rect id="XMLID_213_" x="601.8" y="217.4" class="st20" width="8" height="83.2"/>
		<rect id="XMLID_212_" x="584.3" y="267.4" class="st19" width="8" height="33.3"/>
		<rect id="XMLID_211_" x="537.5" y="225" class="st21" width="8" height="75.6"/>
		<rect id="XMLID_210_" x="574.3" y="209.1" class="st21" width="8" height="91.5"/>
		<rect id="XMLID_209_" x="622.3" y="209.1" class="st19" width="8" height="91.5"/>
		<rect id="XMLID_208_" x="612.5" y="191.1" class="st21" width="8" height="109.5"/>
		<rect id="XMLID_207_" x="547.3" y="252.6" class="st19" width="8" height="48"/>
		<path id="XMLID_206_" class="st19" d="M641.7,304.8c0,0.2-28.4,0.3-63.4,0.3c-35,0-63.4-0.1-63.4-0.3c0-0.2,28.4-0.3,63.4-0.3
			C613.3,304.4,641.7,304.6,641.7,304.8"/>
		<rect id="XMLID_205_" x="511.3" y="288.5" class="st19" width="4.9" height="1.8"/>
		<rect id="XMLID_204_" x="511.3" y="264.2" class="st19" width="4.9" height="1.8"/>
		<rect id="XMLID_203_" x="511.3" y="218.4" class="st19" width="4.9" height="1.8"/>
		<rect id="XMLID_202_" x="511.3" y="195.4" class="st19" width="4.9" height="1.8"/>
		<rect id="XMLID_201_" x="511.5" y="241.3" class="st19" width="4.9" height="1.8"/>
		<rect id="XMLID_200_" x="249.4" y="227.4" class="st22" width="274.4" height="213.6"/>
		<path id="XMLID_199_" class="st19" d="M523.8,441c0-2.1-0.1-84.7-0.3-213.6l0.3,0.3c-78.1,0-172.6,0-274.4,0.1h0l0.3-0.3
			c0,77,0,149.8,0,213.6l-0.3-0.3C412.2,440.9,521.3,441,523.8,441c-2.4,0-111.6,0.1-274.4,0.3h-0.3V441c0-63.8,0-136.6,0-213.6
			v-0.3h0.3h0c101.8,0,196.3,0,274.4,0.1h0.3v0.3C523.9,356.3,523.8,438.9,523.8,441"/>
		<path id="XMLID_198_" class="st19" d="M330.5,414.9c-0.2,0-0.3-21.6-0.3-48.1c0-26.6,0.1-48.1,0.3-48.1c0.2,0,0.3,21.5,0.3,48.1
			C330.8,393.3,330.6,414.9,330.5,414.9"/>
		<path id="XMLID_197_" class="st19" d="M441,414.9c-0.2,0-0.3-21.6-0.3-48.1c0-26.6,0.1-48.1,0.3-48.1c0.2,0,0.3,21.5,0.3,48.1
			C441.4,393.3,441.2,414.9,441,414.9"/>
		<path id="XMLID_196_" class="st19" d="M368.2,414.9c-0.2,0-0.3-27.6-0.3-61.5c0-34,0.1-61.5,0.3-61.5c0.2,0,0.3,27.5,0.3,61.5
			C368.5,387.3,368.4,414.9,368.2,414.9"/>
		<path id="XMLID_195_" class="st19" d="M291.7,414.9c-0.2,0-0.3-27.6-0.3-61.5c0-34,0.1-61.5,0.3-61.5c0.2,0,0.3,27.5,0.3,61.5
			C292,387.3,291.9,414.9,291.7,414.9"/>
		<path id="XMLID_194_" class="st19" d="M484.4,414.9c-0.2,0-0.3-27.6-0.3-61.5c0-34,0.1-61.5,0.3-61.5c0.2,0,0.3,27.5,0.3,61.5
			C484.7,387.3,484.6,414.9,484.4,414.9"/>
		<path id="XMLID_193_" class="st19" d="M401.3,414.9c-0.2,0-0.3-31.8-0.3-71c0-39.2,0.1-71,0.3-71c0.2,0,0.3,31.8,0.3,71
			C401.6,383,401.5,414.9,401.3,414.9"/>
		<path id="XMLID_192_" class="st19" d="M331.4,318.6c0,0.5-0.4,0.9-0.9,0.9s-0.9-0.4-0.9-0.9c0-0.5,0.4-0.9,0.9-0.9
			S331.4,318.1,331.4,318.6"/>
		<path id="XMLID_191_" class="st19" d="M369.1,291.8c0,0.5-0.4,0.9-0.9,0.9c-0.5,0-0.9-0.4-0.9-0.9c0-0.5,0.4-0.9,0.9-0.9
			C368.7,290.9,369.1,291.3,369.1,291.8"/>
		<path id="XMLID_531_" class="st20" d="M368.2,295c-1.8,0-3.2-1.4-3.2-3.2s1.4-3.2,3.2-3.2s3.2,1.4,3.2,3.2S370,295,368.2,295
			 M368.2,288.9c-1.6,0-2.9,1.3-2.9,2.9s1.3,2.9,2.9,2.9s2.9-1.3,2.9-2.9S369.8,288.9,368.2,288.9"/>
		<path id="XMLID_188_" class="st19" d="M402.2,272.8c0,0.5-0.4,0.9-0.9,0.9c-0.5,0-0.9-0.4-0.9-0.9c0-0.5,0.4-0.9,0.9-0.9
			C401.8,271.9,402.2,272.3,402.2,272.8"/>
		<path id="XMLID_187_" class="st19" d="M441.9,319.5c0,0.5-0.4,0.9-0.9,0.9c-0.5,0-0.9-0.4-0.9-0.9s0.4-0.9,0.9-0.9
			C441.5,318.6,441.9,319,441.9,319.5"/>
		<path id="XMLID_186_" class="st19" d="M485.4,291.8c0,0.5-0.4,0.9-0.9,0.9c-0.5,0-0.9-0.4-0.9-0.9c0-0.5,0.4-0.9,0.9-0.9
			C485,290.9,485.4,291.3,485.4,291.8"/>
		<path id="XMLID_185_" class="st19" d="M292.6,292.7c0,0.5-0.4,0.9-0.9,0.9c-0.5,0-0.9-0.4-0.9-0.9c0-0.5,0.4-0.9,0.9-0.9
			C292.2,291.8,292.6,292.2,292.6,292.7"/>
		<path id="XMLID_184_" class="st20" d="M493,335.3c0,0.1-1,0.2-2.7,1c-1.7,0.8-4.1,2.3-6.5,5c-2.4,2.7-4.9,6.4-8,10.6
			c-1.6,2.1-3.3,4.3-5.5,6.4c-1.1,1.1-2.3,2-3.6,3c-1.3,0.9-2.7,1.7-4.3,2.4c-3.1,1.3-6.7,1.9-10.3,1.8c-1.8-0.1-3.7-0.2-5.5-0.7
			c-1.9-0.4-3.8-1.2-5.4-2.4c-1.7-1.2-3.1-2.7-4.2-4.4c-1.2-1.7-2.2-3.4-3.2-5.2c-2-3.6-4-7.2-6.4-10.8c-2.3-3.7-4.5-7.6-6.8-11.4
			c-2.4-3.8-5-7.5-8.3-10.7c-1.7-1.5-3.5-3-5.6-3.9c-1-0.6-2.1-0.9-3.2-1.3c-0.6-0.1-1.1-0.2-1.7-0.4L401,314
			c-0.3-0.1-0.6,0-0.9-0.1c-4.6-0.4-9.5,0.6-13.6,2.9c-4.2,2.4-7.6,5.9-10.4,9.7c-2.9,3.8-5.2,8-7.5,12c-4.5,8.2-9.5,16-16.2,21.9
			c-3.3,2.9-7.1,5.2-11.2,6.3c-2,0.6-4.2,0.7-6.2,0.7c-2.1-0.1-4.1-0.5-5.9-1.1c-3.8-1.2-7-3.2-10-5.2c-3-2-5.6-4.2-8.3-6.1
			c-2.6-1.9-5.2-3.6-7.8-4.8c-2.6-1.2-5.3-2-7.8-2.2c-2.5-0.3-4.9-0.1-7,0.4c-0.5,0.1-1,0.3-1.5,0.5c-0.5,0.2-1,0.3-1.4,0.6
			c-0.9,0.5-1.8,0.8-2.5,1.4c-1.5,0.9-2.7,2-3.7,3c-0.9,1-1.8,1.9-2.4,2.6c-1.2,1.5-1.8,2.3-1.9,2.3c-0.1,0,0.5-0.9,1.6-2.5
			c0.5-0.8,1.4-1.7,2.3-2.8c1-1,2.2-2.2,3.7-3.2c0.7-0.6,1.6-1,2.5-1.5c0.4-0.3,1-0.4,1.5-0.6c0.5-0.2,1-0.4,1.6-0.5
			c2.2-0.6,4.7-0.8,7.3-0.6c2.6,0.2,5.4,1,8.1,2.2c2.8,1.2,5.4,2.9,8.1,4.8c2.7,1.9,5.4,4,8.3,5.9c2.9,2,6.1,3.8,9.6,5
			c1.8,0.5,3.6,0.9,5.5,1c1.9,0,3.8-0.1,5.7-0.7c3.8-1,7.4-3.2,10.5-6c6.3-5.7,11.2-13.3,15.7-21.5c2.3-4.1,4.6-8.3,7.6-12.3
			c2.9-3.9,6.5-7.7,11-10.2c4.5-2.5,9.7-3.6,14.7-3.1c0.3,0,0.6,0,0.9,0.1l0.9,0.2c0.6,0.1,1.2,0.3,1.8,0.4c1.2,0.5,2.4,0.8,3.5,1.4
			c2.3,1.1,4.2,2.7,6,4.3c3.5,3.4,6.2,7.2,8.6,11.1c2.4,3.9,4.5,7.7,6.8,11.4c2.3,3.6,4.4,7.4,6.4,10.9c2,3.5,3.9,7,6.9,9.1
			c1.5,1.1,3.1,1.8,4.9,2.2c1.7,0.5,3.5,0.6,5.2,0.7c3.5,0.2,6.8-0.4,9.7-1.5c1.5-0.6,2.8-1.4,4.1-2.2c1.2-0.9,2.4-1.8,3.5-2.8
			c2.1-2,3.9-4.1,5.4-6.1c3.1-4.1,5.7-7.8,8.3-10.4c2.5-2.7,5.1-4.2,6.9-4.9c0.9-0.3,1.6-0.5,2.1-0.6
			C492.7,335.3,493,335.3,493,335.3"/>
		<rect id="XMLID_183_" x="290.8" y="255.5" class="st19" width="44.4" height="2.5"/>
		<rect id="XMLID_182_" x="290.8" y="261.3" class="st19" width="22" height="2.5"/>
		<rect id="XMLID_181_" x="249.4" y="221.2" class="st19" width="274.4" height="17.2"/>
	</g>
	<polygon id="XMLID_179_" class="st23" points="647.9,575 687.8,623.9 697.9,611.5 667.8,567.8 	"/>
	<g id="XMLID_416_">
		<defs>
			<rect id="XMLID_90_" x="20.3" y="166" width="760" height="476"/>
		</defs>
		<clipPath id="XMLID_331_">
			<use xlink:href="#XMLID_90_"  style="overflow:visible;"/>
		</clipPath>
		<path id="XMLID_178_" class="st24" d="M687,625.1l-1.2-1.1l11.6-13.7l5,4.6l-0.7,0.9c-3.1,3.8-16.2,19.1-19.2,20.8
			C679.2,638.5,687,625.1,687,625.1"/>
		<g id="XMLID_515_" class="st25">
			<g id="XMLID_516_">
				<defs>
					<rect id="XMLID_176_" x="696.6" y="611.3" width="5.6" height="8.2"/>
				</defs>
				<clipPath id="XMLID_332_">
					<use xlink:href="#XMLID_176_"  style="overflow:visible;"/>
				</clipPath>
				<path id="XMLID_177_" class="st26" d="M697.9,619.5c-0.9-1.2-1.4-2.7-1.3-4.2c0.1-1.5,0.8-2.9,1.9-3.9l3.7,3.4L697.9,619.5z"/>
			</g>
		</g>
		<g id="XMLID_511_" class="st25">
			<g id="XMLID_512_">
				<defs>
					<rect id="XMLID_174_" x="681.7" y="614.6" width="20.7" height="22.2"/>
				</defs>
				<clipPath id="XMLID_333_">
					<use xlink:href="#XMLID_174_"  style="overflow:visible;"/>
				</clipPath>
				<path id="XMLID_175_" class="st27" d="M683.4,631.8c0,0-2.5,4.9-1.4,5c1.1,0.1,14.9-14.9,20.4-22l-0.3-0.2l-15.9,17.6
					C686.1,632.2,684.1,631.1,683.4,631.8"/>
			</g>
		</g>
		<path id="XMLID_173_" class="st28" d="M702.3,614.4c0,0-0.1,0.1-0.2,0.2c-0.2,0.2-0.4,0.4-0.6,0.7c-0.6,0.7-1.3,1.5-2.1,2.5
			c-1.8,2.1-4.3,4.9-7.1,8c-2.8,3.1-5.5,5.8-7.4,7.8c-0.9,0.9-1.7,1.7-2.3,2.3c-0.2,0.2-0.4,0.4-0.6,0.6c-0.1,0.1-0.2,0.2-0.2,0.2
			c0,0,0.1-0.1,0.2-0.2c0.2-0.2,0.4-0.4,0.6-0.6c0.6-0.6,1.4-1.4,2.2-2.3c1.9-2,4.5-4.7,7.3-7.8c2.8-3.1,5.3-5.9,7.2-7.9
			c0.8-1,1.6-1.8,2.1-2.4c0.2-0.2,0.4-0.5,0.6-0.7C702.2,614.5,702.3,614.4,702.3,614.4"/>
		<path id="XMLID_172_" class="st28" d="M686.3,632.4c0,0.1-0.6-0.4-1.5-0.6c-0.9-0.2-1.6,0-1.7,0c0,0,0.7-0.4,1.7-0.2
			C685.8,631.8,686.4,632.4,686.3,632.4"/>
		<path id="XMLID_171_" class="st28" d="M687.9,626.7c0,0.1-0.4,0-0.9-0.1c-0.5-0.1-0.9-0.2-0.8-0.3c0-0.1,0.4,0,0.9,0.1
			C687.6,626.5,688,626.7,687.9,626.7"/>
		<path id="XMLID_170_" class="st28" d="M688.4,625.1c0,0.1-0.3,0.1-0.7,0.2c-0.4,0-0.7,0-0.8,0c0-0.1,0.3-0.1,0.7-0.2
			C688,625.1,688.4,625.1,688.4,625.1"/>
		<path id="XMLID_169_" class="st28" d="M687.7,623.3c0,0-0.2,0.4-0.5,0.8c-0.3,0.4-0.7,0.7-0.7,0.6c0,0,0.2-0.4,0.5-0.8
			S687.7,623.3,687.7,623.3"/>
		<path id="XMLID_168_" class="st28" d="M687.1,622.3c0.1,0-0.1,0.5-0.5,1c-0.4,0.5-0.8,0.7-0.8,0.7c0,0,0.3-0.4,0.7-0.8
			C686.8,622.7,687,622.3,687.1,622.3"/>
		<path id="XMLID_167_" class="st28" d="M686.4,626.1c0,0-0.2,0.4-0.8,0.8c-0.3,0.2-0.6,0.5-1,0.7c-0.2,0.1-0.4,0.2-0.7,0.3
			c-0.1,0-0.3,0.1-0.5,0c-0.2-0.1-0.2-0.3-0.2-0.4c0.3-1.2,1.5-1.6,2.2-1.5c0.4,0,0.6,0.1,0.8,0.2c0.2,0.1,0.3,0.2,0.2,0.2
			c0,0-0.4-0.2-1.1-0.3c-0.3,0-0.7,0.1-1.1,0.3c-0.4,0.2-0.8,0.6-0.9,1.1c0,0.2,0.2,0.3,0.4,0.3c0.2-0.1,0.4-0.2,0.6-0.3
			c0.4-0.2,0.7-0.4,1-0.7C686.1,626.4,686.4,626.1,686.4,626.1"/>
		<path id="XMLID_166_" class="st28" d="M686.2,626.4c0,0-0.3-0.1-0.7-0.4c-0.2-0.2-0.3-0.5-0.4-0.8c-0.1-0.3-0.1-0.7,0.2-1.1
			c0.2-0.2,0.5-0.1,0.6,0.1c0.1,0.2,0.2,0.3,0.2,0.5c0.1,0.3,0.1,0.6,0.1,0.9C686.4,626,686.3,626.3,686.2,626.4
			c0-0.1,0.1-0.4,0-0.9c0-0.2-0.1-0.5-0.2-0.8c-0.1-0.3-0.3-0.7-0.6-0.5c-0.2,0.2-0.2,0.6-0.2,0.9c0.1,0.3,0.2,0.6,0.3,0.7
			C686,626.2,686.3,626.3,686.2,626.4"/>
		<path id="XMLID_165_" class="st28" d="M698.4,611.4c0,0-0.4,0.3-0.9,1c-0.5,0.6-1,1.7-1.1,2.9c-0.1,1.2,0.3,2.3,0.6,3
			c0.4,0.7,0.7,1.1,0.7,1.1c0,0-0.1-0.1-0.3-0.2c-0.2-0.2-0.4-0.4-0.6-0.8c-0.4-0.7-0.8-1.8-0.7-3.1c0.1-1.3,0.7-2.4,1.2-3
			c0.3-0.3,0.5-0.6,0.7-0.7C698.3,611.4,698.4,611.3,698.4,611.4"/>
		<path id="XMLID_164_" class="st28" d="M695.1,620c0,0-0.6,1-1.6,2.1c-1,1.1-1.9,1.8-1.9,1.8c0,0,0.8-0.8,1.8-1.9
			C694.3,620.9,695.1,620,695.1,620"/>
		<path id="XMLID_163_" class="st28" d="M697.5,617.4c0.1,0,0.1,0.2,0.2,0.5c0.1,0.3,0.2,0.5,0.2,0.5c0,0-0.3-0.1-0.4-0.4
			C697.4,617.7,697.4,617.4,697.5,617.4"/>
		<path id="XMLID_162_" class="st28" d="M697.2,615.3c0.1,0,0.1,0.2,0.1,0.5c0,0.3,0,0.5-0.1,0.5c-0.1,0-0.1-0.2-0.1-0.5
			C697.1,615.6,697.1,615.3,697.2,615.3"/>
		<path id="XMLID_161_" class="st28" d="M697.9,613.4c0,0.1-0.1,0.2-0.2,0.5c-0.1,0.3-0.1,0.5-0.2,0.5c-0.1,0-0.1-0.3,0-0.6
			C697.6,613.5,697.9,613.4,697.9,613.4"/>
		<path id="XMLID_160_" class="st28" d="M698.5,612.2c0.1,0,0.1,0.2,0,0.3c-0.1,0.1-0.2,0.3-0.2,0.2c-0.1,0-0.1-0.2,0-0.3
			C698.4,612.3,698.5,612.2,698.5,612.2"/>
		<polygon id="XMLID_159_" class="st29" points="580.4,614.7 576.9,636.3 595.3,636.3 599.6,618.7 		"/>
		<path id="XMLID_158_" class="st24" d="M577.5,636.7l0.1-1.6l17.9-0.1l-0.2,6.8l-1.1,0c-4.9,0.1-25.1,0.1-28.3-1
			C562.2,639.6,577.5,636.7,577.5,636.7"/>
		<g id="XMLID_491_" class="st25">
			<g id="XMLID_492_">
				<defs>
					<rect id="XMLID_156_" x="588.8" y="636.5" width="6.6" height="5"/>
				</defs>
				<clipPath id="XMLID_334_">
					<use xlink:href="#XMLID_156_"  style="overflow:visible;"/>
				</clipPath>
				<path id="XMLID_157_" class="st30" d="M588.8,641.4c0.3-1.5,1.2-2.8,2.4-3.7c1.2-0.9,2.7-1.3,4.2-1.1l-0.2,5L588.8,641.4z"/>
			</g>
		</g>
		<g id="XMLID_487_" class="st25">
			<g id="XMLID_488_">
				<defs>
					<rect id="XMLID_154_" x="565.2" y="638.4" width="30" height="3.5"/>
				</defs>
				<clipPath id="XMLID_335_">
					<use xlink:href="#XMLID_154_"  style="overflow:visible;"/>
				</clipPath>
				<path id="XMLID_155_" class="st31" d="M570,638.4c0,0-5.4,1.3-4.7,2.2c0.6,0.9,21,1.6,30,1.1l0-0.4l-23.7-0.6
					C571.5,640.7,571,638.5,570,638.4"/>
			</g>
		</g>
		<path id="XMLID_153_" class="st28" d="M595.5,641.4c0,0-0.1,0-0.3,0c-0.3,0-0.6,0-0.9,0c-0.9,0-2,0-3.2,0c-2.7,0-6.5,0-10.7-0.2
			c-4.2-0.1-8-0.4-10.7-0.5c-1.3-0.1-2.4-0.2-3.2-0.2c-0.3,0-0.6-0.1-0.9-0.1c-0.2,0-0.3,0-0.3,0c0,0,0.1,0,0.3,0c0.3,0,0.6,0,0.9,0
			c0.9,0,2,0.1,3.2,0.2c2.7,0.2,6.5,0.3,10.7,0.5c4.2,0.1,8,0.2,10.7,0.3c1.3,0,2.4,0,3.2,0c0.3,0,0.6,0,0.9,0
			C595.4,641.4,595.5,641.4,595.5,641.4"/>
		<path id="XMLID_152_" class="st28" d="M571.5,641c-0.1,0-0.1-0.8-0.6-1.6c-0.4-0.8-1.1-1.2-1.1-1.3c0-0.1,0.8,0.3,1.2,1.2
			C571.6,640.2,571.5,641,571.5,641"/>
		<path id="XMLID_151_" class="st28" d="M576.8,638.5c-0.1,0-0.3-0.3-0.5-0.7c-0.2-0.4-0.4-0.8-0.4-0.8c0.1,0,0.3,0.3,0.5,0.7
			C576.7,638.1,576.9,638.5,576.8,638.5"/>
		<path id="XMLID_150_" class="st28" d="M578.3,637.8c0,0-0.3-0.2-0.6-0.4c-0.3-0.3-0.5-0.6-0.5-0.6c0,0,0.3,0.2,0.6,0.4
			C578.1,637.5,578.3,637.8,578.3,637.8"/>
		<path id="XMLID_149_" class="st28" d="M579.3,636.2c0,0.1-0.4,0.1-0.9,0.1c-0.5,0-0.9-0.1-0.9-0.1c0-0.1,0.4-0.1,0.9-0.1
			C578.9,636.1,579.3,636.1,579.3,636.2"/>
		<path id="XMLID_148_" class="st28" d="M579.6,635c0,0.1-0.4,0.2-1,0.3c-0.6,0-1.1-0.1-1.1-0.2c0-0.1,0.5,0,1.1,0
			C579.1,635,579.6,634.9,579.6,635"/>
		<path id="XMLID_147_" class="st28" d="M576.3,637c0,0-0.4,0.1-1.1,0c-0.4-0.1-0.8-0.2-1.2-0.3c-0.2-0.1-0.5-0.2-0.7-0.3
			c-0.1-0.1-0.2-0.2-0.3-0.4c0-0.2,0.1-0.4,0.2-0.5c1.1-0.5,2.2,0.1,2.6,0.7c0.2,0.3,0.3,0.6,0.3,0.8c0,0.2,0,0.3,0,0.3
			c0,0-0.1-0.5-0.5-1c-0.2-0.3-0.5-0.5-1-0.7c-0.4-0.1-1-0.2-1.4,0c-0.2,0.1-0.1,0.3,0.1,0.5c0.2,0.1,0.4,0.2,0.6,0.3
			c0.4,0.2,0.8,0.3,1.2,0.3C575.8,636.9,576.3,636.9,576.3,637"/>
		<path id="XMLID_146_" class="st28" d="M576,637c0,0-0.2-0.3-0.1-0.8c0-0.3,0.1-0.5,0.3-0.8c0.2-0.2,0.5-0.6,1-0.6
			c0.3,0,0.4,0.4,0.3,0.5c0,0.2-0.1,0.4-0.2,0.5c-0.2,0.3-0.4,0.5-0.6,0.7C576.4,636.9,576.1,637,576,637c0.1,0,0.3-0.2,0.7-0.6
			c0.2-0.2,0.3-0.4,0.5-0.7c0.2-0.2,0.3-0.7,0-0.7c-0.3,0-0.6,0.2-0.8,0.5c-0.2,0.2-0.3,0.5-0.4,0.7C575.9,636.7,576,637,576,637"/>
		<path id="XMLID_145_" class="st28" d="M595.3,636.5c0,0-0.5-0.1-1.3,0c-0.8,0.1-1.9,0.3-2.9,1.1c-1,0.7-1.6,1.7-1.9,2.5
			c-0.3,0.8-0.3,1.3-0.4,1.3c0,0,0-0.1,0-0.4c0-0.2,0.1-0.6,0.2-1c0.3-0.8,0.9-1.8,1.9-2.6s2.2-1,3-1.1c0.4,0,0.8,0,1,0.1
			C595.2,636.4,595.3,636.5,595.3,636.5"/>
		<path id="XMLID_144_" class="st28" d="M586.6,639.6c0,0.1-1.2,0.2-2.6,0.1c-1.4,0-2.6-0.3-2.6-0.3c0-0.1,1.2,0.1,2.6,0.1
			C585.4,639.6,586.6,639.6,586.6,639.6"/>
		<path id="XMLID_143_" class="st28" d="M590.1,639.7c0,0-0.1,0.2-0.2,0.5c-0.1,0.3-0.2,0.5-0.3,0.5c-0.1,0-0.1-0.3,0.1-0.6
			C589.8,639.8,590.1,639.7,590.1,639.7"/>
		<path id="XMLID_142_" class="st28" d="M591.5,638.1c0,0-0.1,0.2-0.3,0.4c-0.2,0.2-0.4,0.3-0.4,0.2c0,0,0.1-0.2,0.3-0.4
			C591.2,638.2,591.4,638.1,591.5,638.1"/>
		<path id="XMLID_141_" class="st28" d="M593.4,637.4c0,0.1-0.3,0-0.5,0.1c-0.3,0.1-0.5,0.2-0.5,0.2c0,0,0.1-0.3,0.4-0.4
			C593.1,637.3,593.4,637.4,593.4,637.4"/>
		<path id="XMLID_140_" class="st28" d="M594.7,637.1c0,0.1-0.1,0.1-0.2,0.2c-0.1,0.1-0.3,0-0.3,0c0-0.1,0.1-0.1,0.2-0.2
			C594.6,637.1,594.7,637.1,594.7,637.1"/>
		<path id="XMLID_139_" class="st32" d="M650.5,356.5l-30.3,2.6c0,0-9.1,0.2-18.9,23.3l-6.8,13.4l13.3,8.5l0.6,8.4l1.2,33.8
			l56.2-4.1c-1.3-7.7-7.3-17.8-9.3-24.2c2-5.1,13.9-25.9,13.9-36.6C670.3,358.5,650.5,356.5,650.5,356.5"/>
		<path id="XMLID_138_" class="st33" d="M637.2,404.5c0,0.1-1.5-0.7-4-0.4c-1.2,0.1-2.7,0.5-4.2,1.1c-1.6,0.6-3.3,1.3-5.2,1.6
			c-3.9,0.7-7.5-0.2-9.8-1.2c-1.2-0.5-2.1-1-2.6-1.4c-0.6-0.4-0.9-0.7-0.8-0.7c0.1-0.1,1.3,0.8,3.7,1.7c2.3,0.9,5.8,1.6,9.5,1
			c1.9-0.3,3.6-1,5.1-1.5c1.6-0.5,3.1-0.9,4.4-1c1.3-0.1,2.3,0.1,3,0.3C636.8,404.3,637.2,404.5,637.2,404.5"/>
		<path id="XMLID_137_" class="st33" d="M605,395c-0.1,0.1-1.5-1.3-3.7-2.4c-2.1-1.1-4.1-1.5-4.1-1.7c0-0.2,2.1-0.1,4.4,1.2
			C603.8,393.2,605.1,394.9,605,395"/>
		<path id="XMLID_136_" class="st33" d="M621.4,415c0,0,0-0.6,0-1.8c0-0.6,0-1.3,0.1-2.1c0.1-0.8,0.2-1.8,0.3-2.8
			c0.3-2.1,0.8-4.5,1.5-7.2c0.7-2.7,1.7-5.5,2.9-8.5c2.4-5.9,5-11,7-14.7c1-1.8,1.8-3.3,2.4-4.3c0.6-1,0.9-1.6,1-1.5
			c0,0-0.2,0.6-0.7,1.6c-0.6,1.1-1.3,2.6-2.2,4.4c-1.9,3.7-4.5,8.8-6.8,14.7c-1.2,2.9-2.1,5.8-2.9,8.4c-0.7,2.6-1.3,5-1.6,7.1
			c-0.2,1-0.3,1.9-0.4,2.8c-0.1,0.8-0.2,1.5-0.2,2.1C621.5,414.4,621.5,415,621.4,415"/>
		<path id="XMLID_135_" class="st33" d="M608.1,385.7c0,0,0.1-0.4,0.3-1.1c0.2-0.7,0.6-1.7,1.2-2.9c1.1-2.4,2.8-5.7,5.1-9.1
			c2.3-3.4,4.7-6.2,6.6-8.1c0.9-1,1.7-1.7,2.3-2.2c0.6-0.5,0.9-0.7,0.9-0.7c0.1,0.1-1.1,1.2-2.9,3.2c-1.8,2-4.1,4.8-6.4,8.1
			c-2.3,3.3-4,6.6-5.2,8.9C608.8,384.3,608.2,385.8,608.1,385.7"/>
		<path id="XMLID_134_" class="st33" d="M642.5,382.4c0,0.1-0.5-0.3-1.5-0.5c-1-0.2-2.5-0.1-4.2,0.3c-1.8,0.4-3.9,1.2-6.4,1.1
			c-2.5-0.1-5.1-1.3-7.4-3c-2.3-1.6-4.3-3.4-6.4-4.7c-2-1.3-4.1-2.1-5.9-2.2c-1.8-0.2-3.3,0.2-4.2,0.6c-0.9,0.4-1.4,0.8-1.4,0.7
			c0,0,0.1-0.1,0.3-0.3c0.2-0.2,0.5-0.4,1-0.7c0.9-0.5,2.5-0.9,4.3-0.8c1.9,0.1,4.1,0.9,6.2,2.2c2.1,1.3,4.1,3.1,6.4,4.7
			c2.3,1.6,4.7,2.7,7.1,2.9c2.4,0.1,4.5-0.6,6.3-0.9c1.8-0.4,3.4-0.4,4.4-0.1c0.5,0.1,0.9,0.3,1.1,0.5
			C642.4,382.3,642.5,382.4,642.5,382.4"/>
		<path id="XMLID_133_" class="st28" d="M608.3,412.6c-0.1,0,0.4-1.9-0.1-5c-0.2-1.5-0.7-3.3-1.3-5.3c-0.5-2-1.2-4.1-1.5-6.5
			c-0.3-2.4-0.1-4.8,0.8-6.7c0.8-1.9,2-3.4,3.1-4.6c1.1-1.1,2-2,2.7-2.6c0.7-0.6,1-0.9,1.1-0.8c0.1,0.1-1.4,1.4-3.4,3.7
			c-1,1.2-2.1,2.6-2.9,4.5c-0.8,1.8-1,4.1-0.7,6.4c0.3,2.3,1,4.5,1.5,6.4c0.5,2,1,3.8,1.1,5.3c0.2,1.6,0.1,2.8,0,3.7
			C608.5,412.2,608.3,412.6,608.3,412.6"/>
		<path id="XMLID_132_" class="st28" d="M609.5,446.4c0,0-13.6,41.6-18.7,81.7c-5.2,40.2-11.5,95.4-11.5,95.4l18.6,0.4l34.5-107.8
			l35.1-49.7l-3.5-30.3L609.5,446.4z"/>
		<polyline id="XMLID_131_" class="st28" points="611.1,451.4 624,558 676.6,611.3 688.2,595.4 650.9,536.2 659.3,443.1 609,452.6 
					"/>
		<path id="XMLID_130_" class="st34" d="M647,497.6c0,0-0.1,0.2-0.3,0.6c-0.2,0.4-0.6,0.9-1,1.6c-1,1.3-2.6,3.1-4.7,5.2
			c-2.1,2.1-4.8,4.4-7.2,7.4c-2.4,3-4.1,7-5.4,11.2c-1.3,4.3-2.4,8.4-3.2,12.2c-0.8,3.8-1.3,7.3-2.3,10.1c-0.9,2.8-1.7,5-2.2,6.6
			c-0.5,1.6-0.7,2.5-0.7,2.4c0,0,0-0.2,0.1-0.7c0.1-0.4,0.2-1.1,0.4-1.9c0.4-1.6,1.2-3.9,2-6.7c0.8-2.8,1.3-6.3,2.1-10.1
			c0.7-3.8,1.9-8,3.1-12.3c1.3-4.3,3.1-8.3,5.6-11.4c2.5-3.1,5.2-5.3,7.3-7.4c2.2-2,3.8-3.7,4.8-5
			C646.5,498.3,646.9,497.6,647,497.6"/>
		<path id="XMLID_129_" class="st34" d="M651.4,535.5c0.1,0.2-2,1.2-3.9,3.2c-1.9,2-2.8,4.1-3,4c-0.2,0,0.5-2.4,2.5-4.5
			C649,536.1,651.3,535.3,651.4,535.5"/>
		<path id="XMLID_128_" class="st34" d="M650.7,536.2c0,0.2-1.8,0.1-4,0.3c-2.2,0.2-3.9,0.6-4,0.4c-0.1-0.2,1.7-0.8,3.9-1.1
			C648.9,535.7,650.7,536,650.7,536.2"/>
		<polygon id="XMLID_127_" class="st32" points="566.8,403.5 563.8,416.3 602.2,418.6 		"/>
		<g id="XMLID_456_" class="st35">
			<g id="XMLID_457_">
				<defs>
					<rect id="XMLID_125_" x="563.8" y="403.5" width="38.4" height="15.1"/>
				</defs>
				<clipPath id="XMLID_336_">
					<use xlink:href="#XMLID_125_"  style="overflow:visible;"/>
				</clipPath>
				<polygon id="XMLID_126_" class="st36" points="566.8,403.5 563.8,416.3 602.2,418.6 				"/>
			</g>
		</g>
		<path id="XMLID_124_" class="st34" d="M696.5,440.4c0,0-5.4-4-6.1-4.2c-0.6-0.1-4.5,2.9-4.5,2.9s1.3-5.3-1-8
			c-2.3-2.7-6-2.8-10.3,0c-4.3,2.8-13.2,4.2-13.2,4.2s-1.4-2.2-2.8-4.3c-1.4-2.2-3.1-1.3-8.9-1.2c-5.8,0.1-21.3-8.2-21.3-8.2
			s-8.6-6.2-18.9-13.8l2.3-3c1.4-1.8,1.1-4.4-0.7-5.9c-1.8-1.4-4.4-1.1-5.9,0.7L605,400c0.6-1.2,0.3-2.8-0.9-3.6
			c-1.3-1-3.2-0.8-4.2,0.5l-1.1,1.4c0.1-1-0.3-1.9-1.1-2.6c-1.2-1-2.9-0.8-4,0.3c-6.1-4.6-11.6-8.8-15.3-11.7
			c-13-10.5-16.2-30-16.2-30c-4.8,1.2-4.8,4.2-4.8,7.6c0,0.9,0,1.6,0,2.3c-3.7-1.3-7.8-1.5-11.6-0.4c-3,0.9-5.8,2.7-8,5
			c0.8-1.5,0.8-3.4-0.2-5c-1.5-2.3-4.6-2.9-6.8-1.4c-2.3,1.5-2.9,4.6-1.4,6.8c1.5,2.3,4.6,2.9,6.8,1.4c0.1-0.1,0.3-0.2,0.4-0.3
			c-0.9,1.3-1.7,2.7-2.2,4.1c-1.8,5.1-0.7,11.2,2.9,15.2l1.8,0.5c-0.9,0.4-2,0.6-3.4,1.1c-3.2,1-6.1,1.9-5.8,6.9
			c0,0,19.5-2.8,33.5,6.5c3.8,2.5,9.2,6.4,15.2,10.6l-0.3,0.3c-1,1.3-0.8,3.2,0.5,4.2c0.8,0.6,1.8,0.8,2.8,0.5l-1.1,1.4
			c-1,1.3-0.8,3.2,0.5,4.2c1.1,0.9,2.7,0.8,3.7,0l-0.3,0.3c-1.4,1.8-1.1,4.4,0.7,5.9c1.8,1.4,4.4,1.1,5.9-0.7l3.5-4.5
			c10.6,7.8,19.4,14.4,19.4,14.4s12.6,12.3,14.2,17.9c1.6,5.6,1.3,7.4,3.8,8.1c2.5,0.7,5,1.4,5,1.4s1.4,8.9,0,13.9
			c-1.4,5-0.2,8.5,3.1,9.9c3.3,1.4,7.9-1.4,7.9-1.4s-1.8,4.6-1.5,5.2c0.3,0.6,5.8,4.6,5.8,4.6l22.7-31.1l-1,1.4L696.5,440.4z"/>
		<path id="XMLID_123_" class="st28" d="M557.3,360.7c0,0,0.1,0.6,0.1,1.6c0,1,0,2.6-0.3,4.4c-0.2,0.9-0.4,2-0.9,3
			c-0.5,1-1.3,2-2.5,2.6c-2.3,1.3-5.2,1.1-7.4,2.9c-1.1,0.9-1.5,2.2-1.5,3.5c0,1.3,0.2,2.6,0.2,3.9c0,1.3-0.3,2.5-0.9,3.5
			c-0.6,1-1.4,1.7-2.2,2.3c-1.6,1-2.9,1.7-3.9,2.2c-1,0.4-1.6,0.5-1.6,0.5c0-0.1,0.5-0.2,1.5-0.7c0.9-0.5,2.2-1.3,3.8-2.3
			c0.7-0.5,1.5-1.2,2-2.2c0.6-0.9,0.8-2,0.7-3.2c0-1.2-0.3-2.5-0.2-3.9c0-1.4,0.4-3,1.7-4c1.2-1,2.6-1.4,3.9-1.8
			c1.3-0.3,2.6-0.6,3.6-1.2c1-0.5,1.8-1.4,2.3-2.4c0.5-0.9,0.7-1.9,0.9-2.8c0.3-1.8,0.4-3.3,0.5-4.4
			C557.2,361.3,557.3,360.7,557.3,360.7"/>
		<path id="XMLID_122_" class="st28" d="M580.7,420.8c-0.1-0.1,1-1.3,2.7-3.2c1.7-2,4-4.7,6.4-7.8c2.4-3.1,4.5-6,6-8.2
			c1.5-2.1,2.4-3.5,2.5-3.4c0,0-0.1,0.4-0.5,1c-0.4,0.6-0.9,1.5-1.6,2.6c-1.4,2.2-3.4,5.2-5.9,8.3c-2.4,3.1-4.8,5.9-6.6,7.8
			c-0.9,1-1.6,1.7-2.1,2.2C581,420.6,580.7,420.8,580.7,420.8"/>
		<path id="XMLID_121_" class="st28" d="M605.2,399.7c0,0-0.2,0.4-0.7,1.1c-0.5,0.7-1.2,1.7-2.2,2.9c-1.8,2.4-4.4,5.8-7.3,9.4
			c-2.9,3.7-5.5,6.9-7.5,9.3c-1.9,2.4-3.2,3.8-3.3,3.7c0,0,0.2-0.4,0.7-1.1c0.6-0.8,1.3-1.8,2.2-2.9c1.9-2.4,4.4-5.8,7.3-9.4
			c2.9-3.7,5.5-6.9,7.4-9.3c0.9-1.1,1.7-2,2.3-2.8C604.9,400,605.2,399.7,605.2,399.7"/>
		<path id="XMLID_120_" class="st28" d="M593.7,427.8c-0.1-0.1,0.9-1.1,2.4-2.9c1.5-1.8,3.6-4.2,5.7-7c2.1-2.8,4-5.4,5.3-7.3
			c1.3-1.9,2.1-3.1,2.2-3c0.1,0-0.6,1.3-1.8,3.3c-1.2,2-3,4.6-5.2,7.4c-2.2,2.8-4.3,5.2-5.9,6.9
			C594.9,426.8,593.8,427.8,593.7,427.8"/>
		<path id="XMLID_119_" class="st28" d="M687.9,436.1c0,0-0.1,0.2-0.4,0.6c-0.3,0.4-0.7,0.9-1.2,1.6c-1.1,1.4-2.7,3.4-4.5,5.8
			c-3.8,4.9-9,11.7-14.7,19.4c-5.6,7.6-10.6,14.7-14.1,19.8c-1.7,2.5-3.2,4.5-4.2,6c-0.5,0.7-0.9,1.2-1.2,1.6
			c-0.3,0.4-0.4,0.6-0.4,0.5c0,0,0.1-0.2,0.3-0.6c0.3-0.4,0.6-1,1.1-1.7c0.9-1.5,2.3-3.6,4.1-6.2c3.5-5.2,8.4-12.2,14-19.9
			c5.6-7.6,10.9-14.4,14.8-19.3c2-2.4,3.6-4.4,4.7-5.7c0.5-0.6,1-1.1,1.3-1.5C687.7,436.3,687.8,436.1,687.9,436.1"/>
		<path id="XMLID_118_" class="st29" d="M551.2,393.2c-0.3-1,0-2,1-2.1c0.6,0.2,1,0.7,1.1,1.1l2.7,9.2l0,0l-1.3-6.9
			c-0.3-1,0.2-2,1-1.9c0.4,0.1,0.9,0.7,1,1.1l2.1,7.7l-1-5.1c-0.3-1.1,0-1.6,0.6-1.7c0.6-0.1,1,0.6,1.2,1l1.7,5.6
			c0.9,0.7,3.8,2.9,3.8,5.1c0,0.1,0.3,0.3,0.4,0.4l0.8,0.2l-1.2,4.9c0,0-7.8-5.4-9.8-7.2c-1.7-1.6-2.1-3.1-2.3-3.9L551.2,393.2z"/>
		<path id="XMLID_117_" class="st28" d="M615.5,310.1c-3.1,2.8-3.8,7.3-3.7,11.5c0.1,4.1,0.8,8.4-0.3,12.4c-0.5,1.9-1.4,3.6-1.9,5.4
			c-0.5,1.9-0.5,4,0.5,5.6c1.6,2.4,5,2.7,7.9,2.8c2.2,0.1,4.4,0.1,6.6,0.2c0.7,0,1.5,0,2.1-0.5c0.5-0.5,0.5-1.3,0.5-2
			c0.1-11.7-1.2-23.4-3.6-34.8"/>
		<path id="XMLID_116_" class="st29" d="M646.7,313.9l-0.1,3l-0.6,44.6c-0.1,5.2-4.6,9.2-10.1,9.1h0c-5.6-0.1-10.2-4.5-10.2-9.7
			c0-5.5-0.1-11.3-0.1-11.3s-7.1-1.2-8.5-10.4c-0.7-4.6-0.5-12.1-0.1-18.3c0.3-5.5,5.2-9.7,10.8-9.1L646.7,313.9z"/>
		<path id="XMLID_115_" class="st28" d="M618.8,326.2c0,0.6,0.5,1.2,1.1,1.2c0.7,0,1.2-0.4,1.2-1.1c0-0.6-0.5-1.2-1.1-1.2
			C619.4,325.1,618.9,325.6,618.8,326.2"/>
		<path id="XMLID_114_" class="st28" d="M618.6,324.9c0.1,0.2,1-0.5,2.3-0.5c1.3,0,2.2,0.6,2.3,0.5c0.1-0.1-0.1-0.3-0.5-0.6
			c-0.4-0.3-1.1-0.6-1.9-0.6c-0.8,0-1.5,0.3-1.8,0.6C618.6,324.6,618.5,324.8,618.6,324.9"/>
		<path id="XMLID_113_" class="st28" d="M631.6,326.2c0,0.6,0.5,1.2,1.1,1.2c0.7,0,1.2-0.4,1.2-1.1c0-0.6-0.5-1.2-1.1-1.2
			C632.2,325.1,631.6,325.6,631.6,326.2"/>
		<path id="XMLID_112_" class="st28" d="M631.1,325.1c0.1,0.2,1-0.5,2.3-0.5c1.3,0,2.2,0.6,2.3,0.5c0.1-0.1-0.1-0.3-0.5-0.6
			c-0.4-0.3-1.1-0.6-1.9-0.6c-0.8,0-1.5,0.3-1.8,0.6C631.2,324.8,631,325.1,631.1,325.1"/>
		<path id="XMLID_111_" class="st28" d="M626.5,334.6c0-0.1-0.8-0.2-2.1-0.4c-0.3,0-0.6-0.1-0.7-0.3c-0.1-0.2,0.1-0.6,0.2-1
			c0.3-0.8,0.6-1.6,1-2.5c1.3-3.5,2.3-6.4,2.2-6.5c-0.1-0.1-1.3,2.8-2.7,6.3c-0.3,0.9-0.6,1.7-0.9,2.5c-0.1,0.4-0.3,0.8-0.2,1.3
			c0.1,0.2,0.3,0.4,0.5,0.5c0.2,0.1,0.4,0.1,0.6,0.1C625.7,334.7,626.5,334.7,626.5,334.6"/>
		<path id="XMLID_110_" class="st37" d="M625.6,349.7c0,0,6.2,0.4,12.4-3.3c0,0-3,6.3-12.2,5.5L625.6,349.7z"/>
		<path id="XMLID_109_" class="st37" d="M627,337.7c0.5-0.6,1.3-0.9,2.1-0.9c0.6,0.1,1.1,0.3,1.4,0.8c0.3,0.5,0.4,1.1,0.1,1.5
			c-0.3,0.5-1.1,0.6-1.7,0.4c-0.6-0.2-1.1-0.6-1.6-1c-0.1-0.1-0.3-0.2-0.4-0.4S626.9,337.8,627,337.7"/>
		<path id="XMLID_108_" class="st28" d="M630.2,335.5c-0.2,0-0.2,1.4-1.4,2.4c-1.2,1-2.7,0.8-2.7,1c0,0.1,0.3,0.3,1,0.3
			c0.6,0,1.5-0.2,2.2-0.8c0.7-0.6,1-1.4,1.1-2C630.5,335.8,630.3,335.5,630.2,335.5"/>
		<path id="XMLID_107_" class="st28" d="M658.4,335.1c-0.7-2.6-0.7-5.4-1-8c-0.6-5.2-2.1-10.4-5-14.8c-1.9-2.9-4.5-5.4-7.5-7.1
			c2-0.8,3.7-2.5,4.2-4.5c0.7-2.6-0.7-5.7-3.2-6.8c-2.5-1.1-5.7-0.2-7.2,2.1c-1.4,2.2-1.1,5.3,0.6,7.2c-2.6-0.5-5.3-0.3-7.7,0.5
			c-0.2,0-0.5,0-0.7,0c-3.1,0.2-6.2-0.2-9.2,0.7c-2.9,1-5.7,2.8-7.1,5.6c-1.6,3-1.3,6.7-0.9,10.1c0.1,1,0.3,2.1,1,2.6
			c0.6,0.4,1.4,0.5,2.1,0.5l6.4,0c1.5,0,3.1,0,4.3-0.8c0.6-0.4,1.2-1.1,1.4-1.8c0.5,1.1,1.5,2,2.6,2.4c1.8,0.7,3.8,0.5,5.7,0.3
			c1.2-0.1,2.6-0.3,3.7-0.8c0.2,6,0.3,12,0.5,18c0,1,0.1,2.1,0.6,2.9c0.8,1.2,2.4,1.5,3.9,1.7c2,0.2,4.1,0.1,5.7-1
			c1.4-0.9,2.3-2.6,2-4.2c0.6,1.5,1.9,2.7,3.4,3.2c1.8,0.6,4,0.1,5.4-1.2C660.4,340.3,659.1,337.7,658.4,335.1"/>
		<path id="XMLID_106_" class="st34" d="M631.2,304.1c0,0.1-1.7-0.3-4.3,0c-2.6,0.3-6.2,1.6-8.8,4.7c-2.6,3.1-3.2,6.9-3.1,9.5
			c0.2,2.6,0.9,4.2,0.8,4.2c0,0-0.2-0.3-0.5-1.1c-0.3-0.7-0.6-1.8-0.7-3.1c-0.3-2.7,0.3-6.7,3-9.9c2.7-3.2,6.6-4.6,9.2-4.8
			c1.4-0.1,2.5,0,3.2,0.1C630.9,304,631.2,304.1,631.2,304.1"/>
		<path id="XMLID_105_" class="st34" d="M623.9,322.4c0,0-0.2-0.2-0.4-0.7c-0.2-0.5-0.5-1.2-0.7-2.2c-0.5-1.9-0.6-4.7,0.4-7.6
			c1-2.8,2.9-5,4.4-6.1c0.8-0.6,1.5-1,1.9-1.2c0.5-0.2,0.8-0.3,0.8-0.3c0,0.1-1,0.6-2.5,1.9c-1.4,1.2-3.2,3.3-4.1,6
			c-1,2.7-0.9,5.4-0.6,7.3C623.5,321.2,624,322.3,623.9,322.4"/>
		<path id="XMLID_104_" class="st34" d="M628.4,316.6c-0.1,0-0.5-0.6-0.8-1.9c-0.3-1.2-0.5-3-0.1-4.9c0.4-1.9,1.4-3.4,2.2-4.4
			c0.8-1,1.5-1.4,1.5-1.3c0.1,0.1-0.5,0.6-1.2,1.6c-0.7,1-1.5,2.5-1.9,4.3c-0.4,1.8-0.3,3.5-0.1,4.7
			C628.2,315.8,628.5,316.5,628.4,316.6"/>
		<path id="XMLID_103_" class="st33" d="M670.9,379.3c-0.1,0.1-1.1-1.1-3.1-2.5c-2-1.4-5-3-8.7-3.7c-3.7-0.6-7.1-0.2-9.4,0.5
			c-2.3,0.7-3.7,1.4-3.7,1.3c0,0,0.3-0.3,0.9-0.6c0.6-0.3,1.5-0.8,2.7-1.2c2.3-0.8,5.8-1.4,9.6-0.7c3.8,0.7,6.9,2.4,8.8,4
			c1,0.8,1.7,1.5,2.1,2C670.7,378.9,670.9,379.3,670.9,379.3"/>
		<path id="XMLID_102_" class="st32" d="M591.8,409.1l-5.7,19.4c0,0,28.1,11.4,44.2,11.2c15.1-0.2,19.7-5.1,25.6-14.9
			c6.9-11.5,12.2-25.9,13.4-34c0,0,8.5-37.2-24-33.8l-0.9,29.1c0,0-3.6,11.9-3.9,12.6c-2.4,6.4-5.6,15.8-8.6,17
			S591.8,409.1,591.8,409.1"/>
		<path id="XMLID_101_" class="st28" d="M591.8,409.1c0,0,0.3,0,0.8,0.1c0.6,0.1,1.3,0.2,2.3,0.4c2,0.4,4.9,0.9,8.5,1.7
			c3.6,0.8,7.9,1.7,12.7,2.6c4.8,0.9,10.2,1.5,15.9,1.4l-0.3,0.2c0.6-1.6,1.2-3.3,1.9-5c4.3-12,7.6-23.1,10.3-31
			c1.4-4,2.5-7.1,3.4-9.3c0.4-1.1,0.8-1.9,1-2.5c0.2-0.6,0.4-0.9,0.4-0.9c0,0-0.1,0.3-0.3,0.9c-0.2,0.6-0.5,1.5-0.9,2.5
			c-0.8,2.2-1.9,5.4-3.2,9.4c-2.6,7.9-5.9,19-10.2,31c-0.6,1.7-1.3,3.4-1.9,5l-0.1,0.2l-0.2,0c-5.8,0.1-11.2-0.6-16-1.5
			c-4.8-0.9-9.1-1.9-12.7-2.7c-3.6-0.8-6.4-1.4-8.4-1.9c-0.9-0.2-1.7-0.4-2.3-0.5C592,409.2,591.7,409.1,591.8,409.1"/>
		<path id="XMLID_100_" class="st28" d="M586.1,428.5c0,0,0.3,0.1,0.9,0.3c0.6,0.2,1.5,0.5,2.6,0.9c2.3,0.8,5.5,1.8,9.6,2.9
			c4.1,1.1,9,2.4,14.5,3.8c5.5,1.3,11.5,2.8,18,3.1c1.6,0.1,3.2,0.1,4.8-0.1c1.6-0.1,3.1-0.4,4.5-0.9c2.8-1,5.3-2.6,7.4-4.5
			c4.1-3.8,6.8-8.1,8.9-11.8c2.1-3.7,3.5-6.9,4.5-9c0.5-1,0.9-1.9,1.1-2.5c0.3-0.6,0.4-0.9,0.4-0.9c0,0-0.1,0.3-0.3,0.9
			c-0.2,0.6-0.6,1.4-1,2.5c-0.9,2.2-2.3,5.4-4.3,9.1c-2,3.7-4.7,8.2-8.9,12c-2.1,1.9-4.6,3.6-7.6,4.6c-1.5,0.5-3,0.8-4.6,1
			c-1.6,0.2-3.2,0.2-4.8,0.1c-6.5-0.3-12.6-1.8-18.1-3.2c-5.5-1.4-10.4-2.7-14.4-3.9c-4.1-1.2-7.4-2.3-9.6-3.1c-1.1-0.4-2-0.8-2.6-1
			C586.4,428.7,586.1,428.5,586.1,428.5"/>
		<g id="XMLID_427_" class="st38">
			<g id="XMLID_428_">
				<defs>
					<rect id="XMLID_98_" x="607.6" y="393.2" width="32.4" height="22.1"/>
				</defs>
				<clipPath id="XMLID_337_">
					<use xlink:href="#XMLID_98_"  style="overflow:visible;"/>
				</clipPath>
				<path id="XMLID_99_" class="st39" d="M607.6,412.2c5.5,0.1,11.1,0.3,16.6,0.4c1.3,0,2.7,0.1,3.9-0.5c1.8-0.7,2.9-2.4,3.9-4.1
					c2.9-4.8,5.6-9.8,8-14.9c0,0-4.4,14-7.2,20.1c-0.8,1.8-2,2.3-3.9,2C621.6,415.2,614.5,414.2,607.6,412.2"/>
			</g>
		</g>
		<g id="XMLID_423_" class="st38">
			<g id="XMLID_424_">
				<defs>
					<rect id="XMLID_96_" x="609.6" y="422.1" width="48.2" height="21"/>
				</defs>
				<clipPath id="XMLID_338_">
					<use xlink:href="#XMLID_96_"  style="overflow:visible;"/>
				</clipPath>
				<path id="XMLID_97_" class="st40" d="M657.8,422.1c0,0-5.6,21.4-20.1,21c-14.4-0.4-28.1-6.6-28.1-6.6l0.6-0.7
					c0,0,24.5,5.3,31.4,2C654.6,431.5,657.8,422.1,657.8,422.1"/>
			</g>
		</g>
		<path id="XMLID_95_" class="st29" d="M586.6,426.6l-4.6,0c-4.1-0.4-6.5-0.5-7.6-1.6c-1.5-1.5,0.6-2.9,0.6-2.9s-3-1-2.7-2.9
			c0.2-1.2,1.6-1.4,1.6-1.4s-2.6-1-3.2-2.1c-0.7-1.5,1.2-2.3,1.2-2.3c-3.6-2.2-3.3-4.4-2.4-4.6c0.8-0.2,3.6,1.1,3.6,1.1
			c2.4,0.7,8.8,2.7,6.4-0.9c-2.4-3.6-2.9-7.2-2.3-8.3c0.6-1.1,2.3-0.7,2.5,0.6c0.2,1.1,1,2.8,1.7,4c0.6,1,1.3,2,2.2,2.7
			c1,0.9,1.9,1.6,2.7,2.2l4.1,3.9L586.6,426.6z"/>
		<path id="XMLID_94_" class="st33" d="M664.3,409.4c0,0.1-1.5-0.6-4-1.4c-2.5-0.8-6-1.7-10-2.1c-4-0.4-7.6-0.1-10.2,0.3
			c-2.6,0.4-4.2,0.8-4.2,0.7c0,0,0.4-0.2,1.1-0.4c0.7-0.2,1.7-0.5,3-0.7c2.6-0.5,6.3-0.8,10.3-0.4c4,0.4,7.6,1.4,10.1,2.3
			c1.2,0.5,2.2,0.9,2.9,1.3C664,409.1,664.3,409.3,664.3,409.4"/>
		<path id="XMLID_93_" class="st33" d="M631.2,439.6c-0.1,0,0.8-1.2,0.9-3.5c0-1.1-0.2-2.4-0.7-3.8c-0.5-1.4-1.3-2.8-2.2-4.3
			c-0.9-1.5-1.8-2.9-2.4-4.3c-0.6-1.4-0.9-2.8-0.9-4c0-1.2,0.2-2.1,0.4-2.7c0.2-0.6,0.5-0.9,0.5-0.9c0.1,0-0.6,1.3-0.4,3.6
			c0.1,1.1,0.4,2.4,1,3.8c0.6,1.4,1.5,2.8,2.4,4.2c0.9,1.5,1.7,3,2.2,4.4c0.5,1.5,0.7,2.9,0.6,4c-0.1,1.2-0.4,2.1-0.7,2.7
			C631.5,439.3,631.2,439.6,631.2,439.6"/>
		<path id="XMLID_92_" class="st33" d="M600.3,432.2c-0.1,0,0-1.1,0.2-2.9c0.3-1.8,0.7-4.2,1.4-6.9c0.7-2.7,1.4-5,2.1-6.7
			c0.6-1.7,1.1-2.7,1.2-2.7c0.1,0-0.2,1.1-0.7,2.8c-0.5,1.7-1.2,4.1-1.9,6.7c-0.7,2.6-1.2,5.1-1.6,6.8
			C600.6,431.1,600.4,432.2,600.3,432.2"/>
		<path id="XMLID_91_" class="st33" d="M662.7,362c0,0,0.2,0.4,0.3,1.2c0.2,0.8,0.3,2,0.1,3.5c-0.2,1.5-0.7,3.4-1.4,5.4
			c-0.7,2.1-1.7,4.3-2.4,7c-1.6,5.2-2.8,11.6-4.4,18.7c-0.8,3.5-1.8,7.2-3.3,10.9c-1.4,3.7-3.4,7.4-6.1,10.6
			c-2.7,3.2-5.9,5.9-9.6,7.6c-3.6,1.7-7.6,2.1-11.2,1.9c-3.7-0.2-7-1-10.2-1.8c-3.1-0.8-6-1.7-8.6-2.6c-5.2-1.7-9.3-3.4-12.1-4.7
			c-1.4-0.6-2.5-1.1-3.2-1.5c-0.3-0.2-0.6-0.3-0.8-0.4c-0.2-0.1-0.3-0.2-0.3-0.2c0,0,0.1,0,0.3,0.1c0.2,0.1,0.5,0.2,0.8,0.4
			c0.8,0.3,1.9,0.8,3.2,1.4c2.8,1.2,6.9,2.8,12.1,4.5c2.6,0.8,5.5,1.7,8.6,2.5c3.1,0.8,6.5,1.5,10.1,1.7c3.6,0.2,7.4-0.3,10.9-1.9
			c3.6-1.6,6.7-4.2,9.4-7.4c2.6-3.2,4.5-6.8,6-10.5c1.4-3.6,2.4-7.3,3.3-10.8c1.6-7,2.8-13.5,4.5-18.7c0.8-2.6,1.8-4.9,2.5-7
			c0.8-2,1.3-3.8,1.5-5.3C663.3,363.7,662.6,362,662.7,362"/>
	</g>
	<g id="XMLID_318_">
		<defs>
			<rect id="XMLID_1_" x="20.3" y="166" width="760" height="476"/>
		</defs>
		<clipPath id="XMLID_339_">
			<use xlink:href="#XMLID_1_"  style="overflow:visible;"/>
		</clipPath>
		<path id="XMLID_89_" class="st41" d="M278.1,333.8c0.5,1,0.5,2.1-0.1,3.1l-24.9,44.5c-4.5,7.1-13.8,9.5-21.1,5.3l-13.9-7.9
			l9.7-16.8l10.4,6.2l25-33.1c0.1-0.5,0.4-2.5,0.4-5.5c0-1-0.2-1.9-0.5-2.8c-0.4-1.1-1-2.5-1.5-3.2c-0.7-0.8,0-2.1,1-1.9
			c1,0.2,2.9,2.5,3.8,5.9c0.9,3.4,3.2-1.6,4-3.5c0.9-1.8,3.8-7.3,4.6-7.5c1.1-0.3,1.6,0.9,0.7,2.7c-0.9,1.8-3.2,7.4-2.2,7.8
			c0,0,1.7,0.4,2.2,1.5L278.1,333.8z"/>
		<path id="XMLID_88_" class="st42" d="M275.1,328.1c0.1,0-0.1,0.8-0.5,2.1c-0.2,0.7-0.5,1.5-0.7,2.2c-0.1,0.4-0.3,0.9-0.4,1.3
			c-0.1,0.2-0.1,0.5-0.4,0.8c-0.3,0.3-0.8,0.3-1,0.1c-0.3-0.1-0.5-0.3-0.7-0.5c-0.2-0.2-0.4-0.4-0.5-0.7c-0.1-0.7,0.2-1.1,0.3-1.5
			c0.3-0.7,0.6-1.5,0.9-2.2c0.5-1.2,0.9-2,0.9-1.9c0.1,0-0.1,0.8-0.5,2.1c-0.2,0.7-0.5,1.4-0.7,2.2c-0.1,0.4-0.3,0.9-0.3,1.2
			c0,0.3,0.5,0.6,0.9,0.8c0.2,0.1,0.3,0.1,0.4,0c0.1-0.1,0.2-0.3,0.3-0.5c0.2-0.4,0.3-0.9,0.5-1.3c0.3-0.8,0.6-1.5,0.8-2.2
			C274.6,328.8,275,328.1,275.1,328.1"/>
		<path id="XMLID_87_" class="st42" d="M276,331.9c0.1,0-0.1,0.8-0.4,1.9c-0.2,0.7-0.4,1.3-0.6,2l-0.2,0.6c-0.1,0.2-0.2,0.5-0.4,0.7
			c-0.3,0.2-0.7,0.2-0.9,0c-0.3-0.1-0.4-0.3-0.6-0.4c-0.2-0.2-0.4-0.4-0.5-0.6c-0.1-0.3-0.1-0.6,0-0.8c0.1-0.5,0.3-0.8,0.4-1.2
			c0.3-0.7,0.5-1.3,0.8-2c0.5-1.1,0.8-1.8,0.9-1.8c0.1,0-0.1,0.8-0.5,1.9c-0.2,0.7-0.4,1.3-0.7,2c-0.1,0.4-0.3,0.8-0.4,1.2
			c-0.1,0.4,0,0.6,0.3,0.8c0.3,0.3,0.7,0.5,0.8,0.4c0.2-0.1,0.3-0.6,0.4-1c0.3-0.7,0.5-1.3,0.8-2C275.6,332.5,275.9,331.9,276,331.9
			"/>
		<path id="XMLID_86_" class="st42" d="M277.6,334c0.1,0-0.1,0.8-0.4,1.9c-0.2,0.7-0.4,1.3-0.6,2l-0.2,0.6c-0.1,0.2-0.2,0.5-0.4,0.7
			c-0.3,0.2-0.7,0.2-0.9,0c-0.3-0.1-0.4-0.3-0.6-0.4c-0.2-0.2-0.4-0.4-0.5-0.6c-0.1-0.3-0.1-0.6,0-0.8c0.1-0.5,0.3-0.8,0.4-1.2
			c0.3-0.7,0.5-1.3,0.8-2c0.5-1.1,0.8-1.8,0.9-1.8c0.1,0-0.1,0.8-0.5,1.9c-0.2,0.7-0.4,1.3-0.7,2c-0.1,0.4-0.3,0.8-0.4,1.2
			c-0.1,0.4,0,0.6,0.3,0.8c0.3,0.3,0.7,0.5,0.8,0.4c0.2-0.1,0.3-0.6,0.4-1c0.3-0.7,0.5-1.3,0.8-2C277.2,334.6,277.5,334,277.6,334"
			/>
		<path id="XMLID_85_" class="st42" d="M270.1,338.3c-0.2,0,0.2-1.7-0.4-3.6c-0.6-1.9-1.9-3.1-1.8-3.2c0-0.1,0.4,0.1,0.9,0.6
			c0.5,0.5,1.1,1.3,1.4,2.4c0.3,1,0.4,2,0.2,2.7C270.4,338,270.2,338.4,270.1,338.3"/>
		<path id="XMLID_84_" class="st43" d="M191.2,276.1c-3-3-7.9-3.9-11.7-2.1c-1.8,0.8-3.3,2.2-5.2,2.7c-2.3,0.6-4.6-0.1-7-0.4
			c-2.3-0.3-5.1,0.1-6.3,2c-0.8,1.3-0.9,3-1.9,4.1c-1.5,1.5-4,0.9-5.9,1.5c-2,0.6-3.4,2.4-3.8,4.4c-0.3,2,0.5,4.1,1.9,5.6
			c0.8,0.8,1.9,1.5,2.4,2.6c0.6,1.4,0.2,3-0.1,4.5c-0.3,1.5-0.1,3.4,1.3,4.1c0.7,0.4,1.7,0.2,2.3-0.3c0.6-0.5,0.9-1.4,0.6-2.2
			l28.9-9.2c4.4,0,5.7-3.9,6.4-5.3C194.9,284.1,194.1,279.1,191.2,276.1"/>
		<path id="XMLID_83_" class="st41" d="M156.8,286.1l0.1,3.1l0.6,46.7c0.1,5.4,4.8,9.7,10.6,9.6c5.9-0.1,10.6-4.7,10.6-10.1
			c0-5.8,0.1-11.8,0.1-11.8s7.4-1.2,8.9-10.9c0.8-4.8,0.5-12.7,0.1-19.1c-0.4-5.8-5.5-10.1-11.3-9.5L156.8,286.1z"/>
		<path id="XMLID_82_" class="st43" d="M185.9,299c0,0.7-0.5,1.2-1.2,1.3c-0.7,0-1.3-0.5-1.3-1.1c0-0.7,0.5-1.2,1.2-1.3
			C185.3,297.8,185.9,298.3,185.9,299"/>
		<path id="XMLID_81_" class="st43" d="M186.2,297.6c-0.2,0.2-1.1-0.5-2.4-0.5c-1.3,0-2.3,0.7-2.5,0.5c-0.1-0.1,0.1-0.4,0.5-0.7
			c0.4-0.3,1.1-0.6,2-0.6c0.8,0,1.5,0.3,1.9,0.6C186.1,297.2,186.3,297.5,186.2,297.6"/>
		<path id="XMLID_80_" class="st43" d="M172.6,299c0,0.7-0.5,1.2-1.2,1.3c-0.7,0-1.3-0.5-1.3-1.1c0-0.7,0.5-1.2,1.2-1.3
			C172,297.8,172.5,298.3,172.6,299"/>
		<path id="XMLID_79_" class="st43" d="M173.1,297.8c-0.2,0.2-1.1-0.5-2.4-0.5c-1.3,0-2.3,0.7-2.5,0.5c-0.1-0.1,0.1-0.4,0.5-0.7
			c0.4-0.3,1.1-0.6,2-0.6c0.8,0,1.5,0.3,1.9,0.6C173,297.5,173.1,297.8,173.1,297.8"/>
		<path id="XMLID_78_" class="st43" d="M177.9,307.7c0-0.1,0.8-0.2,2.2-0.4c0.3,0,0.7-0.1,0.7-0.3c0.1-0.2-0.1-0.6-0.2-1
			c-0.3-0.8-0.7-1.7-1-2.6c-1.4-3.7-2.4-6.7-2.3-6.8c0.1-0.1,1.4,2.9,2.8,6.6c0.3,0.9,0.7,1.8,1,2.6c0.1,0.4,0.4,0.8,0.2,1.3
			c-0.1,0.3-0.3,0.4-0.6,0.5c-0.2,0.1-0.4,0.1-0.6,0.1C178.8,307.8,177.9,307.8,177.9,307.7"/>
		<path id="XMLID_77_" class="st42" d="M178.8,323.5c0,0-6.5,0.4-12.9-3.5c0,0,3.1,6.6,12.8,5.7L178.8,323.5z"/>
		<path id="XMLID_76_" class="st43" d="M174,308.7c0.2,0,0.2,1.4,1.5,2.5c1.2,1,2.8,0.9,2.8,1.1c0,0.1-0.3,0.3-1,0.3
			c-0.6,0-1.6-0.2-2.3-0.8c-0.8-0.6-1.1-1.5-1.1-2.1C173.7,309,173.9,308.7,174,308.7"/>
		<path id="XMLID_75_" class="st43" d="M173.4,292.6c-0.1,0.4-1.5,0.2-3,0.4c-1.6,0.2-2.8,0.6-3,0.3c-0.1-0.2,0.1-0.5,0.6-0.8
			c0.5-0.4,1.3-0.7,2.3-0.8c0.9-0.1,1.8,0,2.4,0.3C173.2,292.2,173.5,292.4,173.4,292.6"/>
		<path id="XMLID_74_" class="st43" d="M185.7,293.7c-0.2,0.3-1.2,0-2.3,0c-1.1-0.1-2,0.2-2.3-0.1c-0.1-0.2,0.1-0.5,0.5-0.7
			c0.4-0.3,1.1-0.5,1.8-0.5c0.8,0,1.4,0.3,1.8,0.6C185.7,293.3,185.8,293.6,185.7,293.7"/>
		<path id="XMLID_73_" class="st43" d="M188.2,289.2c0,0-4.9,2.6-11.6-0.5c-4.3-2-9.4-2.9-10.4-2c-1.1,0.9-1.2,5.3-5.4,6.7
			c0,0,0.6,8.4-2.8,8.2c-3.4-0.2-2.9-17.1-2.9-17.1l9.3-0.5l8.9-2l8.5,0.9l6.6,1.6L188.2,289.2z"/>
		<path id="XMLID_72_" class="st43" d="M154.9,282.2c0-0.1,0.7-0.4,1.7-0.1c0.9,0.3,1.4,1.1,1.2,1.1c-0.1,0.1-0.6-0.4-1.4-0.7
			C155.7,282.3,155,282.4,154.9,282.2"/>
		<path id="XMLID_71_" class="st43" d="M157.7,279.4c0.2,0,0.1,1,0.3,2.1c0.2,1.1,0.7,2,0.5,2.1c-0.1,0.1-0.9-0.7-1-2
			C157.3,280.3,157.6,279.4,157.7,279.4"/>
		<path id="XMLID_70_" class="st41" d="M158.2,298.2c-0.1-0.1-5.6-1.9-5.6,3.7c-0.1,5.6,5.6,4.5,5.6,4.4
			C158.2,306.2,158.2,298.2,158.2,298.2"/>
		<path id="XMLID_69_" class="st42" d="M156.5,304.2c0,0-0.1,0.1-0.3,0.1c-0.2,0.1-0.4,0.1-0.7,0c-0.6-0.2-1.1-1.2-1.1-2.2
			c0-0.5,0.1-1,0.3-1.4c0.2-0.4,0.4-0.7,0.7-0.7c0.3-0.1,0.5,0.1,0.6,0.3c0.1,0.2,0,0.3,0.1,0.3c0,0,0.1-0.1,0.1-0.3
			c0-0.1-0.1-0.2-0.2-0.4c-0.1-0.1-0.3-0.2-0.5-0.1c-0.4,0-0.8,0.4-1,0.9c-0.2,0.4-0.4,1-0.4,1.6c0,1.1,0.6,2.2,1.4,2.4
			c0.4,0.1,0.7,0,0.9-0.1C156.5,304.3,156.5,304.2,156.5,304.2"/>
		<path id="XMLID_68_" class="st44" d="M180.4,335.6c4.1,0.2,11.1,0.8,24.8,8.8c3,1.8,33.8,22.4,33.8,22.4l-13.6,17.5l-25.1-14.2
			l3.4,30.1l3.8,35.8l-60.9-0.8l-1.5-35.9l-0.5-24.4l-3.9,32.6l-24.1-2.3l6.6-43c0.8-5.2,2.9-10.3,6.3-14.3c4.1-4.8,9.4-7.8,15.5-10
			c2.6-1,7.9-1.9,11.3-2.1l-0.2-7.2c0,0,10.8,1,13.7,8c0,0,3.6-8.2,10.5-8.9L180.4,335.6z"/>
		<path id="XMLID_67_" class="st45" d="M164.1,433.8c-0.1,0-0.9-1.1-1.7-3.6c-0.8-2.4-1.2-6.1-1-10.6c0.1-2.3,0.3-4.7,0.4-7.3
			c0.1-2.6,0.1-5.4-0.2-8.3c-0.5-5.8-1.8-12.2-3.3-18.8c-1.4-6.7-2.6-13.2-2.8-19.2c-0.2-6,0.4-11.3,0.1-15.7
			c-0.2-4.4-1.1-7.9-2-10.2c-0.9-2.3-1.7-3.4-1.6-3.5c0.1-0.1,1.1,1,2.2,3.2c1.1,2.3,2.3,5.9,2.6,10.4c0.5,4.5,0.1,9.9,0.3,15.7
			c0.3,5.8,1.5,12.2,2.9,18.8c1.4,6.7,2.7,13.1,3.2,19.1c0.2,3,0.2,5.9,0,8.5c-0.2,2.6-0.4,5.1-0.6,7.3c-0.3,4.4-0.1,8,0.4,10.4
			C163.6,432.4,164.2,433.7,164.1,433.8"/>
		<path id="XMLID_66_" class="st45" d="M189.2,435.5c-0.1,0-0.3-1.4-0.6-3.8c-0.3-2.5-0.7-6.1-1.1-10.5c-0.9-8.9-2.3-21.1-4.3-34.6
			c-1-6.7-2-13.1-3-19c-1-5.8-2-11.1-2.5-15.5c-0.5-4.5-0.7-8.1-0.6-10.6c0.1-2.5,0.3-3.9,0.4-3.9c0.3,0,0.1,5.5,1.5,14.3
			c0.7,4.4,1.8,9.6,2.9,15.4c1.1,5.8,2.2,12.2,3.2,19c2,13.5,3.2,25.8,3.8,34.8c0.3,4.5,0.5,8.1,0.5,10.6
			C189.3,434.1,189.3,435.5,189.2,435.5"/>
		<path id="XMLID_65_" class="st45" d="M187.8,336.7c0.1,0,0.2,1.4,0.6,3.9c0.4,2.5,1.3,6,2.6,10.2c0.6,2.2,1.4,4.5,2,7.1
			c0.6,2.6,1,5.5,1.3,8.4c0.5,6,0.5,12.5,0.8,19.3c0.7,13.7,2,26,2.9,34.9c0.5,4.5,0.8,8.1,1,10.6c0.2,2.5,0.3,3.9,0.1,3.9
			c-0.1,0-0.4-1.3-0.9-3.8c-0.4-2.5-1-6.1-1.6-10.5c-1.2-8.9-2.8-21.3-3.5-35c-0.4-6.9-0.3-13.4-0.7-19.3c-0.2-2.9-0.6-5.7-1.1-8.2
			c-0.5-2.6-1.2-4.9-1.7-7.1c-1.2-4.3-1.9-8-2.1-10.5C187.5,338.1,187.7,336.7,187.8,336.7"/>
		<path id="XMLID_64_" class="st45" d="M178.2,336.4c-0.5-0.1-0.6-1.7-1-3.2c-0.4-1.6-1.2-3-0.8-3.3c0.2-0.2,0.6,0,1.2,0.5
			c0.5,0.5,1.1,1.3,1.4,2.4c0.3,1.1,0.2,2.1,0,2.8C178.7,336.1,178.4,336.4,178.2,336.4"/>
		<path id="XMLID_63_" class="st45" d="M159,337c-0.2,0.1-0.6-0.3-0.9-1c-0.3-0.8-0.4-1.9-0.1-3.1c0.3-1.2,1-2.2,1.7-2.6
			c0.6-0.5,1.2-0.6,1.3-0.4c0.3,0.4-0.7,1.7-1.2,3.5C159.2,335.2,159.5,336.8,159,337"/>
		<path id="XMLID_62_" class="st45" d="M178,434.9c-0.2,0,0.1-1.4,0-3.8c-0.1-2.5-0.9-5.9-2.4-10.1c-0.7-2.1-1.6-4.4-2.3-7
			c-0.7-2.5-1.4-5.3-1.9-8.2c-1.1-5.8-1.9-12.3-2.7-19c-1.7-13.5-3.1-25.7-4.1-34.6c-0.5-4.4-0.8-8-1-10.5c-0.2-2.5-0.2-3.9-0.1-3.9
			c0.1,0,0.4,1.3,0.8,3.8c0.4,2.5,1,6,1.6,10.4c1.3,8.8,2.9,21,4.6,34.5c0.9,6.8,1.5,13.2,2.6,18.9c0.5,2.9,1.1,5.6,1.7,8.1
			c0.6,2.5,1.4,4.8,2.1,7c1.3,4.3,2,8,1.8,10.5C178.7,433.6,178.1,435,178,434.9"/>
		<path id="XMLID_61_" class="st45" d="M153.2,433.6c-0.3,0-0.7-3.7-1.4-9.6c-0.7-6-1.6-14.2-2.6-23.3c-1-9.1-1.6-17.4-1.9-23.4
			c-0.3-6-0.2-9.7,0-9.8c0.3,0,0.7,3.7,1.3,9.7c0.6,6,1.5,14.3,2.5,23.3c1,9.1,1.7,17.4,2,23.4C153.4,429.8,153.4,433.6,153.2,433.6
			"/>
		<path id="XMLID_60_" class="st45" d="M120.7,405.5c-0.3-0.1,0.4-4,1.8-10.2c1.3-6.3,3.3-14.9,5.6-24.4c1.2-4.7,2.3-9.3,3.3-13.4
			c1-4.1,2.1-7.9,3.7-10.8c1.6-2.9,3.7-4.7,5.4-5.6c1.6-0.9,2.7-1,2.7-0.9c0.1,0.1-0.9,0.5-2.3,1.5c-1.4,1-3.2,2.9-4.6,5.6
			c-1.4,2.8-2.3,6.4-3.2,10.6c-1,4.1-2,8.7-3.1,13.4c-2.3,9.5-4.4,18.1-6.1,24.3C122.1,401.8,121,405.6,120.7,405.5"/>
		<path id="XMLID_59_" class="st45" d="M149.2,345.1c0.1,0.1-0.6,0.7-1.3,2.2c-0.7,1.4-1.5,3.6-2.2,6.4c-0.3,1.4-0.7,3-1.1,4.6
			c-0.4,1.6-0.7,3.4-1.1,5.4c-0.4,1.9-0.9,3.9-1.7,6c-0.8,2-1.8,4-2.8,6c-1,2-2,3.9-2.8,5.8c-0.8,1.8-1.2,3.8-1.6,5.6
			c-0.7,3.7-0.9,7.2-1,10.1c-0.2,5.8-0.2,9.4-0.4,9.4c-0.2,0-0.8-3.6-0.9-9.5c0-2.9,0.1-6.5,0.7-10.3c0.3-1.9,0.7-4,1.6-6
			c0.8-2,1.9-3.9,2.9-5.9c1-2,2-3.9,2.8-5.8c0.8-1.9,1.3-3.8,1.7-5.7c0.4-1.9,0.8-3.7,1.2-5.4c0.5-1.7,0.9-3.2,1.3-4.6
			c0.9-2.8,1.9-5,2.8-6.4C148.2,345.5,149.1,345.1,149.2,345.1"/>
		<path id="XMLID_58_" class="st45" d="M233.5,373.2c-0.1,0.2-2.4-0.6-5.9-2.5c-3.4-1.9-8-4.9-12.6-8.9c-2.3-2.1-4.1-4.2-6-5.9
			c-1.8-1.8-3.6-3.2-5.2-4.3c-3.2-2.1-5.6-2.6-5.5-2.9c0-0.1,0.6-0.1,1.8,0.1c1.1,0.2,2.7,0.7,4.5,1.7c1.8,0.9,3.7,2.4,5.7,4.1
			c2,1.7,3.9,3.9,6.1,5.8c4.4,3.9,8.8,7,12,9.2C231.5,371.8,233.6,373,233.5,373.2"/>
		<path id="XMLID_57_" class="st45" d="M227.8,381.2c-0.2,0.2-1.8-0.7-4.4-2.2c-2.6-1.6-6.2-3.7-10.2-6.2c-3.9-2.5-7.4-5-9.8-7
			c-2.4-2-3.6-3.4-3.5-3.6c0.2-0.2,1.7,0.9,4.3,2.5c2.5,1.7,6.1,3.9,10,6.4c3.9,2.5,7.5,4.9,9.9,6.7
			C226.6,379.7,228,381,227.8,381.2"/>
		<path id="XMLID_56_" class="st43" d="M143.2,339.5c0,0,0.1,0,0.4,0.1c0.2,0.1,0.6,0.3,1,0.5c0.9,0.5,2,1.4,3.1,2.8
			c1.1,1.4,2.1,3.3,2.6,5.7c0.5,2.3,0.6,4.9,0.2,7.6c-0.4,2.7-1.1,5.2-1.9,7.4c-0.7,2.2-1.5,4.2-2.1,5.8c-0.6,1.7-1,3-1.3,3.9
			c-0.3,0.9-0.4,1.5-0.5,1.5c0,0,0-0.6,0.2-1.5c0.2-1,0.6-2.3,1.1-4c1-3.4,2.9-7.9,3.7-13.1c0.4-2.6,0.4-5.2-0.1-7.4
			c-0.5-2.2-1.4-4.1-2.4-5.5C145.3,340.3,143.1,339.6,143.2,339.5"/>
		<path id="XMLID_55_" class="st43" d="M201,376.9c0,0-0.1-0.5-0.2-1.4c-0.1-1.1-0.3-2.4-0.5-4c-0.4-3.5-1-8-1.6-13.1
			c-0.6-5-1.2-9.6-1.6-13.1c-0.2-1.6-0.4-2.9-0.5-4c-0.1-0.9-0.2-1.5-0.1-1.5c0,0,0.2,0.5,0.4,1.4c0.2,0.9,0.4,2.3,0.7,3.9
			c0.5,3.3,1.1,8,1.8,13.1c0.6,5.1,1.1,9.7,1.4,13.1c0.2,1.7,0.3,3,0.3,4C201,376.4,201,376.9,201,376.9"/>
		<path id="XMLID_54_" class="st43" d="M167.8,334c0,0.1-0.9-0.4-2,0.3c-0.6,0.3-1.1,0.9-1.4,1.7c-0.2,0.4-0.3,0.8-0.5,1.3
			c-0.1,0.2-0.1,0.5-0.2,0.7c-0.1,0.3-0.1,0.5-0.4,0.8c-0.1,0.1-0.3,0.2-0.5,0.3c-0.2,0-0.4,0-0.5-0.1c-0.3-0.1-0.5-0.2-0.7-0.3
			c-0.4-0.2-0.9-0.4-1.3-0.6c-0.7-0.4-1.5-0.7-2.1-1.1c-1.2-0.6-1.9-1.1-1.9-1.1c0-0.1,0.8,0.2,2.1,0.8c0.7,0.3,1.4,0.6,2.2,1
			c0.4,0.2,0.8,0.4,1.3,0.6c0.2,0.1,0.4,0.2,0.7,0.3c0.2,0.1,0.3,0.1,0.4,0c0.2-0.2,0.3-0.8,0.4-1.3c0.1-0.5,0.3-0.9,0.5-1.4
			c0.4-0.9,1.1-1.5,1.7-1.8c0.7-0.3,1.3-0.3,1.7-0.2C167.7,333.8,167.8,334,167.8,334"/>
		<path id="XMLID_53_" class="st43" d="M180.5,335.2c0.1,0.1-2,1.8-4.7,3.9l-0.4,0.3l-0.1-0.5c0-0.2-0.1-0.4-0.1-0.6
			c-0.3-1.8-0.9-3.4-1.8-4.1c-0.8-0.8-1.6-0.9-1.6-1c0-0.1,0.9-0.1,1.9,0.7c0.5,0.4,1,1,1.3,1.8c0.4,0.8,0.6,1.7,0.7,2.6
			c0,0.2,0.1,0.4,0.1,0.6l-0.5-0.2C178.2,336.6,180.4,335.1,180.5,335.2"/>
		<path id="XMLID_52_" class="st43" d="M139.6,406.5c0,0.1-1.1-0.3-2.9-0.8s-4.2-1.3-7-2c-2.8-0.7-5.3-1.2-7.1-1.6
			c-1.8-0.4-3-0.6-3-0.7c0-0.1,1.2,0,3,0.2c1.9,0.3,4.4,0.7,7.2,1.4c2.8,0.7,5.2,1.5,7,2.1C138.6,406,139.6,406.4,139.6,406.5"/>
		<path id="XMLID_51_" class="st43" d="M121.6,399c0-0.1,1.1,0.1,2.9,0.6c1.8,0.5,4.2,1.2,6.8,2.1c1.3,0.5,2.5,0.9,3.7,1.4
			c1.1,0.4,2.1,0.9,2.9,1.4c1.6,1,2,2.2,1.9,2.2c-0.1,0.1-0.5-1-2.1-1.9c-0.8-0.4-1.8-0.8-2.9-1.2c-1.1-0.4-2.4-0.9-3.7-1.3
			c-2.6-0.9-5-1.7-6.7-2.2C122.6,399.4,121.6,399.1,121.6,399"/>
		<path id="XMLID_50_" class="st43" d="M227.3,379.8c-0.1,0,0.3-0.9,1-2.3c0.7-1.4,1.8-3.2,3.2-5.2c1.3-2,2.7-3.7,3.7-4.8
			c1-1.2,1.7-1.8,1.8-1.8c0.1,0.1-2.4,3-5,6.9C229.3,376.5,227.4,379.9,227.3,379.8"/>
		<path id="XMLID_49_" class="st43" d="M225.5,376.9c-0.1,0,0.3-0.9,1.1-2.1c0.8-1.2,2-2.8,3.5-4.4c1.6-1.6,3.2-2.7,4.4-3.5
			c1.2-0.8,2.1-1.1,2.1-1c0.1,0.2-3,1.9-6.1,5C227.4,373.9,225.6,377,225.5,376.9"/>
		<path id="XMLID_48_" class="st43" d="M182.7,438.1c0,0-0.1-0.3-0.2-1c-0.1-0.7-0.2-1.6-0.3-2.8c-0.3-2.5-0.7-5.9-1.2-10.1
			c-1-8.6-2.4-20.4-4-33.4c-1.6-13.1-3.2-24.9-4.5-33.4c-0.7-4.3-1.2-7.7-1.6-10.1c-0.2-1.1-0.3-2.1-0.4-2.7c-0.1-0.6-0.1-1-0.1-1
			c0,0,0.1,0.3,0.2,0.9c0.1,0.7,0.3,1.6,0.5,2.7c0.5,2.4,1.1,5.8,1.8,10.1c1.4,8.5,3.1,20.3,4.7,33.4c1.6,13.1,2.9,24.9,3.8,33.5
			c0.4,4.2,0.8,7.7,1,10.2c0.1,1.2,0.2,2.1,0.2,2.8C182.7,437.8,182.7,438.1,182.7,438.1"/>
		<path id="XMLID_47_" class="st43" d="M174.9,363.8c-0.1,0-0.2-0.5,0.4-0.9c0.3-0.2,0.8-0.4,1.2-0.1c0.4,0.2,0.8,0.7,0.7,1.4
			c-0.1,0.6-0.7,1-1.2,1c-0.5,0-0.9-0.4-1-0.7c-0.1-0.4,0-0.7,0.1-0.8c0.1-0.2,0.2-0.2,0.2-0.2c0.1,0.1-0.2,0.4,0.1,0.8
			c0.1,0.2,0.3,0.4,0.6,0.3c0.3,0,0.6-0.3,0.6-0.5c0.1-0.3-0.1-0.6-0.4-0.8c-0.2-0.2-0.5-0.1-0.7,0
			C175.1,363.4,175,363.8,174.9,363.8"/>
		<path id="XMLID_46_" class="st43" d="M178.5,384.5c-0.1,0-0.2-0.5,0.4-0.9c0.3-0.2,0.8-0.4,1.2-0.1c0.4,0.2,0.8,0.7,0.7,1.4
			c-0.1,0.6-0.7,1-1.2,1c-0.5,0-0.9-0.4-1-0.7c-0.1-0.3,0-0.7,0.1-0.8c0.1-0.2,0.2-0.2,0.2-0.2c0.1,0.1-0.2,0.4,0.1,0.8
			c0.1,0.2,0.3,0.4,0.6,0.3c0.3,0,0.6-0.3,0.6-0.5c0.1-0.3-0.1-0.6-0.4-0.8c-0.2-0.2-0.5-0.1-0.7,0
			C178.7,384.2,178.6,384.5,178.5,384.5"/>
		<path id="XMLID_45_" class="st46" d="M169.4,635.8l-0.2-10.6l-19.9,0.3l0.2,15.5l1.2,0.1c5.5,0.2,27.9,0.7,31.6-0.5
			C186.3,639.3,169.4,635.8,169.4,635.8"/>
		<g id="XMLID_367_" class="st47">
			<g id="XMLID_368_">
				<defs>
					<rect id="XMLID_43_" x="149.4" y="637.8" width="33.5" height="3.6"/>
				</defs>
				<clipPath id="XMLID_340_">
					<use xlink:href="#XMLID_43_"  style="overflow:visible;"/>
				</clipPath>
				<path id="XMLID_44_" class="st48" d="M177.6,637.8c0,0,5.9,1.6,5.2,2.6c-0.7,1-23.4,1.3-33.4,0.6l0-0.4l26.5-0.2
					C175.9,640.4,176.5,637.9,177.6,637.8"/>
			</g>
		</g>
		<path id="XMLID_42_" class="st43" d="M149.1,640.6c0,0,0.1,0,0.3,0c0.3,0,0.6,0,1,0c1,0,2.2,0.1,3.6,0.1c3.1,0.1,7.3,0.1,11.9,0
			c4.7-0.1,8.9-0.2,11.9-0.4c1.4-0.1,2.6-0.2,3.6-0.2c0.4,0,0.7-0.1,1-0.1c0.2,0,0.3,0,0.3,0c0,0-0.1,0-0.3,0c-0.3,0-0.6,0-1,0
			c-1,0-2.2,0.1-3.6,0.1c-3.1,0.1-7.3,0.2-11.9,0.3c-4.7,0.1-8.9,0.1-11.9,0c-1.4,0-2.6,0-3.6,0c-0.4,0-0.7,0-1,0
			C149.3,640.6,149.1,640.6,149.1,640.6"/>
		<path id="XMLID_41_" class="st43" d="M175.9,640.7c0.1,0,0.1-0.9,0.6-1.7c0.5-0.9,1.3-1.3,1.2-1.4c0-0.1-0.9,0.3-1.4,1.3
			C175.8,639.8,175.9,640.7,175.9,640.7"/>
		<path id="XMLID_40_" class="st43" d="M170,637.8c0.1,0,0.3-0.3,0.6-0.8c0.3-0.5,0.5-0.9,0.4-0.9c-0.1,0-0.3,0.3-0.6,0.8
			C170.1,637.4,170,637.8,170,637.8"/>
		<path id="XMLID_39_" class="st43" d="M168.4,637c0,0,0.4-0.2,0.7-0.5c0.3-0.3,0.6-0.6,0.5-0.7c0,0-0.4,0.2-0.7,0.5
			C168.6,636.7,168.3,637,168.4,637"/>
		<path id="XMLID_38_" class="st43" d="M167.3,635.1c0,0.1,0.5,0.1,1,0.1c0.6,0,1-0.1,1-0.1c0-0.1-0.5-0.1-1-0.1
			C167.8,635,167.3,635.1,167.3,635.1"/>
		<path id="XMLID_37_" class="st43" d="M167,633.8c0,0.1,0.5,0.3,1.2,0.3c0.7,0,1.2-0.1,1.2-0.2c0-0.1-0.5,0-1.2-0.1
			C167.5,633.9,167,633.8,167,633.8"/>
		<path id="XMLID_36_" class="st43" d="M170.7,636.1c0,0,0.5,0.1,1.3,0c0.4-0.1,0.9-0.2,1.4-0.3c0.2-0.1,0.5-0.2,0.8-0.3
			c0.1-0.1,0.3-0.2,0.3-0.4c0-0.2-0.1-0.4-0.2-0.5c-1.2-0.6-2.4,0.1-2.9,0.7c-0.2,0.3-0.4,0.6-0.4,0.9c0,0.2,0,0.3,0,0.3
			c0,0,0.1-0.5,0.6-1.1c0.2-0.3,0.6-0.6,1.1-0.7c0.4-0.1,1.1-0.2,1.5,0.1c0.2,0.1,0.1,0.4-0.1,0.5c-0.2,0.1-0.5,0.2-0.7,0.3
			c-0.5,0.2-0.9,0.3-1.3,0.4C171.1,636,170.7,636.1,170.7,636.1"/>
		<path id="XMLID_35_" class="st43" d="M171,636.1c0,0,0.2-0.3,0.1-0.9c0-0.3-0.1-0.6-0.4-0.9c-0.2-0.3-0.5-0.7-1.1-0.6
			c-0.3,0-0.4,0.4-0.4,0.6c0,0.2,0.1,0.4,0.2,0.6c0.2,0.3,0.4,0.6,0.6,0.8c0.4,0.4,0.7,0.5,0.7,0.5c0,0-0.3-0.2-0.6-0.6
			c-0.2-0.2-0.4-0.5-0.5-0.8c-0.2-0.3-0.3-0.8,0-0.8c0.3,0,0.7,0.3,0.9,0.5c0.2,0.3,0.3,0.6,0.4,0.8
			C171.1,635.8,170.9,636.1,171,636.1"/>
		<path id="XMLID_34_" class="st43" d="M149.5,635.1c0,0,0.6-0.1,1.5,0c0.9,0.1,2.1,0.4,3.2,1.3c1.1,0.8,1.7,2,2,2.8
			c0.3,0.8,0.4,1.4,0.4,1.4c0,0,0-0.1,0-0.4s-0.1-0.6-0.2-1.1c-0.3-0.9-0.9-2.1-2.1-2.9c-1.1-0.9-2.4-1.2-3.4-1.2
			c-0.5,0-0.8,0-1.1,0C149.6,635.1,149.5,635.1,149.5,635.1"/>
		<path id="XMLID_33_" class="st43" d="M151.4,626.8c-0.1,0-0.1,1.8-0.1,4.1c0,2.3,0.1,4.1,0.1,4.1s0.1-1.8,0.1-4.1
			C151.5,628.7,151.4,626.8,151.4,626.8"/>
		<path id="XMLID_32_" class="st43" d="M159.1,638.8c0,0.1,1.3,0.3,2.9,0.2c1.6,0,2.9-0.2,2.9-0.3c0-0.1-1.3,0-2.9,0
			C160.4,638.8,159.1,638.7,159.1,638.8"/>
		<path id="XMLID_31_" class="st43" d="M155.2,638.9c0,0,0.1,0.3,0.2,0.6c0.1,0.3,0.2,0.6,0.3,0.6c0.1,0,0.1-0.3-0.1-0.7
			C155.5,639,155.2,638.8,155.2,638.9"/>
		<path id="XMLID_30_" class="st43" d="M153.7,637c0,0,0.1,0.3,0.3,0.5c0.2,0.2,0.4,0.3,0.5,0.3c0,0-0.1-0.3-0.3-0.5
			C154,637.1,153.8,637,153.7,637"/>
		<path id="XMLID_29_" class="st43" d="M151.6,636.2c0,0.1,0.3,0.1,0.6,0.2c0.3,0.1,0.5,0.3,0.6,0.2c0.1,0-0.1-0.3-0.5-0.4
			C151.9,636.1,151.6,636.2,151.6,636.2"/>
		<path id="XMLID_28_" class="st43" d="M150.1,635.9c0,0.1,0.1,0.2,0.3,0.2c0.2,0.1,0.3,0.1,0.3,0c0-0.1-0.1-0.2-0.3-0.2
			C150.3,635.8,150.1,635.8,150.1,635.9"/>
		<g id="XMLID_348_" class="st49">
			<g id="XMLID_349_">
				<defs>
					<rect id="XMLID_26_" x="149.3" y="631.6" width="20" height="3"/>
				</defs>
				<clipPath id="XMLID_341_">
					<use xlink:href="#XMLID_26_"  style="overflow:visible;"/>
				</clipPath>
				<polygon id="XMLID_27_" class="st50" points="149.5,634.6 169.3,634 169.3,631.6 149.3,633.4 				"/>
			</g>
		</g>
		<path id="XMLID_25_" class="st46" d="M215.4,636l-0.3-10.6l-19.9,0.4l0.3,15.5l1.2,0.1c5.5,0.2,27.9,0.6,31.6-0.6
			C232.4,639.4,215.4,636,215.4,636"/>
		<g id="XMLID_343_" class="st47">
			<g id="XMLID_344_">
				<defs>
					<rect id="XMLID_23_" x="195.5" y="638" width="33.5" height="3.7"/>
				</defs>
				<clipPath id="XMLID_342_">
					<use xlink:href="#XMLID_23_"  style="overflow:visible;"/>
				</clipPath>
				<path id="XMLID_24_" class="st51" d="M223.7,638c0,0,6,1.6,5.2,2.6c-0.7,1-23.4,1.5-33.4,0.8l0-0.4l26.5-0.3
					C222,640.6,222.6,638.1,223.7,638"/>
			</g>
		</g>
		<path id="XMLID_22_" class="st43" d="M195.3,640.9c0,0,0.1,0,0.3,0c0.3,0,0.6,0,1,0c1,0,2.2,0,3.6,0.1c3.1,0,7.3,0.1,11.9,0
			c4.7-0.1,8.9-0.3,11.9-0.4c1.4-0.1,2.6-0.2,3.6-0.2c0.4,0,0.7-0.1,1-0.1c0.2,0,0.3,0,0.3,0c0,0-0.1,0-0.3,0c-0.3,0-0.6,0-1,0
			c-1,0-2.2,0.1-3.6,0.1c-3.1,0.1-7.3,0.3-11.9,0.4c-4.7,0.1-8.9,0.1-11.9,0.1c-1.4,0-2.6,0-3.6,0c-0.4,0-0.7,0-1,0
			C195.4,640.9,195.3,640.9,195.3,640.9"/>
		<path id="XMLID_21_" class="st43" d="M222,640.9c0.1,0,0.1-0.9,0.6-1.7c0.5-0.9,1.2-1.3,1.2-1.4c0-0.1-0.9,0.3-1.4,1.3
			C221.9,640,222,640.9,222,640.9"/>
		<path id="XMLID_20_" class="st43" d="M216.1,638c0.1,0,0.3-0.3,0.6-0.8c0.3-0.5,0.5-0.9,0.4-0.9c-0.1,0-0.3,0.3-0.6,0.8
			C216.2,637.6,216.1,638,216.1,638"/>
		<path id="XMLID_19_" class="st43" d="M214.5,637.2c0,0,0.4-0.2,0.7-0.5c0.3-0.3,0.6-0.6,0.5-0.7c0,0-0.4,0.2-0.7,0.5
			C214.7,636.9,214.4,637.2,214.5,637.2"/>
		<path id="XMLID_18_" class="st43" d="M213.4,635.4c0,0.1,0.5,0.1,1,0.1c0.6,0,1-0.1,1-0.1c0-0.1-0.5-0.1-1-0.1
			C213.9,635.2,213.4,635.3,213.4,635.4"/>
		<path id="XMLID_17_" class="st43" d="M213.1,634c0,0.1,0.5,0.3,1.2,0.3c0.7,0,1.2-0.1,1.2-0.2c0-0.1-0.5,0-1.2-0.1
			C213.6,634.1,213.1,634,213.1,634"/>
		<path id="XMLID_16_" class="st43" d="M216.8,636.3c0,0,0.5,0.1,1.3,0c0.4-0.1,0.9-0.2,1.4-0.3c0.2-0.1,0.5-0.2,0.8-0.3
			c0.1-0.1,0.3-0.2,0.3-0.4c0-0.2-0.1-0.4-0.2-0.5c-1.2-0.6-2.4,0.1-2.9,0.7c-0.2,0.3-0.4,0.6-0.4,0.9c0,0.2,0,0.3,0,0.3
			c0,0,0.1-0.5,0.6-1.1c0.2-0.3,0.6-0.6,1.1-0.7c0.4-0.1,1.1-0.2,1.5,0.1c0.2,0.1,0.1,0.4-0.1,0.5c-0.2,0.1-0.5,0.2-0.7,0.3
			c-0.5,0.2-0.9,0.3-1.3,0.4C217.2,636.2,216.8,636.3,216.8,636.3"/>
		<path id="XMLID_15_" class="st43" d="M217.1,636.3c0,0,0.2-0.3,0.1-0.9c0-0.3-0.1-0.6-0.4-0.9c-0.2-0.3-0.5-0.7-1.1-0.6
			c-0.3,0-0.4,0.4-0.4,0.6c0,0.2,0.1,0.4,0.2,0.6c0.2,0.3,0.4,0.6,0.6,0.8c0.4,0.4,0.7,0.5,0.7,0.5c0,0-0.3-0.2-0.6-0.6
			c-0.2-0.2-0.4-0.5-0.6-0.8c-0.2-0.3-0.3-0.7,0-0.8c0.3,0,0.7,0.3,0.9,0.5c0.2,0.3,0.3,0.6,0.4,0.8
			C217.2,636,217,636.3,217.1,636.3"/>
		<path id="XMLID_14_" class="st43" d="M195.5,635.5c0,0,0.6-0.1,1.5,0c0.9,0.1,2.1,0.4,3.2,1.3c1.1,0.8,1.7,1.9,2.1,2.8
			c0.3,0.8,0.4,1.4,0.4,1.4c0,0,0-0.1,0-0.4c0-0.3-0.1-0.6-0.2-1.1c-0.3-0.9-0.9-2-2.1-2.9c-1.1-0.9-2.4-1.2-3.4-1.2
			c-0.5,0-0.8,0-1.1,0.1C195.7,635.4,195.5,635.4,195.5,635.5"/>
		<path id="XMLID_13_" class="st43" d="M197.4,627.1c-0.1,0-0.1,1.8-0.1,4.1s0.1,4.1,0.2,4.1c0.1,0,0.1-1.8,0.1-4.1
			C197.6,629,197.5,627.1,197.4,627.1"/>
		<path id="XMLID_12_" class="st43" d="M205.2,639.1c0,0.1,1.3,0.2,2.9,0.2c1.6,0,2.9-0.2,2.9-0.3c0-0.1-1.3,0-2.9,0.1
			C206.5,639.1,205.2,639,205.2,639.1"/>
		<path id="XMLID_11_" class="st43" d="M201.3,639.1c0,0,0.1,0.3,0.3,0.6c0.1,0.3,0.2,0.6,0.3,0.6c0.1,0,0.1-0.3-0.1-0.7
			C201.6,639.3,201.4,639.1,201.3,639.1"/>
		<path id="XMLID_10_" class="st43" d="M199.8,637.3c0,0,0.1,0.3,0.3,0.5c0.2,0.2,0.4,0.3,0.5,0.3c0,0-0.1-0.3-0.3-0.5
			C200.1,637.4,199.8,637.3,199.8,637.3"/>
		<path id="XMLID_9_" class="st43" d="M197.7,636.5c0,0.1,0.3,0.1,0.6,0.2c0.3,0.1,0.5,0.2,0.6,0.2c0.1,0-0.1-0.3-0.5-0.4
			C198,636.4,197.7,636.5,197.7,636.5"/>
		<path id="XMLID_8_" class="st43" d="M196.2,636.2c0,0.1,0.1,0.2,0.3,0.2c0.2,0.1,0.3,0.1,0.3,0s-0.1-0.2-0.3-0.2
			C196.4,636.1,196.2,636.1,196.2,636.2"/>
		<g id="XMLID_324_" class="st49">
			<g id="XMLID_325_">
				<defs>
					<rect id="XMLID_6_" x="195.4" y="631.8" width="20" height="3.1"/>
				</defs>
				<clipPath id="XMLID_345_">
					<use xlink:href="#XMLID_6_"  style="overflow:visible;"/>
				</clipPath>
				<polygon id="XMLID_7_" class="st52" points="195.6,634.9 215.4,634.2 215.3,631.8 195.4,633.7 				"/>
			</g>
		</g>
		<polygon id="XMLID_5_" class="st43" points="145.6,432.1 145.6,633.1 176.9,633.1 179.7,458.7 190.7,633.1 222,633.1 208,435.5 		
			"/>
		<path id="XMLID_4_" class="st53" d="M182.3,433.6c0.1,0,0.2,1.2,0.3,3.2s0.2,4.8,0.2,7.8c0,1.5,0,3,0,4.3c0,1.3-0.2,2.6-0.7,3.5
			c-0.5,1-1.2,1.5-1.8,1.8c-0.6,0.3-0.9,0.3-0.9,0.3c0,0,0.3-0.1,0.8-0.4c0.5-0.3,1.1-0.9,1.5-1.8c0.4-0.9,0.5-2.1,0.5-3.4
			c0-1.3-0.1-2.8-0.1-4.3c0-3-0.1-5.8,0-7.8C182.2,434.8,182.3,433.6,182.3,433.6"/>
		<path id="XMLID_3_" class="st53" d="M176.7,435.9c0.1,0.1-0.4,0.3-0.4,1c0,0.3,0.1,0.7,0.4,0.9c0.3,0.2,0.9,0.2,1.3-0.1
			c0.6-0.4,0.5-1.1,0.1-1.4C177.6,435.9,177.1,435.9,176.7,435.9l0.1-0.1c0.3,0.1,0.4,0.2,0.4,0.2c0,0-0.2,0-0.5,0l-0.3,0l0.2-0.2
			c0.3-0.2,1.1-0.3,1.7,0.1c0.3,0.2,0.6,0.6,0.6,1c0,0.5-0.3,0.9-0.7,1.2c-0.6,0.4-1.4,0.4-1.9,0c-0.5-0.4-0.6-0.9-0.5-1.3
			c0.1-0.4,0.3-0.7,0.5-0.8C176.6,435.8,176.7,435.8,176.7,435.9"/>
		<path id="XMLID_2_" class="st41" d="M198.9,396.7c-0.8-1.1-10.7,0.6-10.7,0.6l3.6-2.7c-1.8-3.3-8.2,0.7-10.2,2.6
			c-0.5,0.5-0.8,1.2-1,2l-39.9,8.4l-22.3-2.3c0,0-0.4,3.8-1.6,11.1C115.8,423.2,127,430,134,429c6.4-0.9,45.4-12,52.1-13.9l0,0
			c0.6-0.2,1-0.3,1-0.3l0,0c2.2-0.7,7.3-2.6,7.8-3.5c0.7-1.2,0.5-10.4,0.5-10.4l3.7-1.6C199,399.2,199.8,397.7,198.9,396.7"/>
	</g>
</g>
</svg>
