<svg id="Layer_1" data-name="Layer 1" xmlns="http://www.w3.org/2000/svg" viewBox="0 0 100.89 74.14"><defs><style>.cls-1{fill:#d1e6f2;}.cls-2{fill:#9bdcd6;}.cls-3{fill:#689fc0;}.cls-4{fill:#578faa;}.cls-5{fill:#fff;}.cls-6{fill:#045f96;}.cls-7{fill:#8dc0df;}.cls-8{fill:#f2ce99;}.cls-9{fill:#ffdea9;}.cls-10{fill:#001725;}.cls-11{fill:#fda500;}</style></defs><path class="cls-1" d="M662.8,346.24c-.21-2.83-1.44-3.48-1.77-7.63-.25-3.14-.49-6.09,1.13-8.36,2.11-2.94,4.9-1.3,9.52-4.29a11.88,11.88,0,0,0,2-1.63c2.8-2.85,4.08-4.71,5.33-6.1,2.64-3,6.59-3.58,9-4,8.18-1.26,9.89,5.4,18.86,6.51,10.83,1.34,17.33-7.22,24.41-3.19a15.73,15.73,0,0,1,4.32,3.62c2.31,3,2.15,5.73,4.21,8.05,1,1.09,3.47,3.29,3.47,3.29h0a16.71,16.71,0,0,1,4.88,9.51c1,7.12-3.82,8.1-3.13,15,.57,5.72,4.2,7.93,2.92,12.86a12.18,12.18,0,0,1-2.5,4.47c-6,6.78-23,2.13-41.26,2.77-22.83.8-31.71,5.48-39.58-1.48-3.57-3.16-6.89-8.76-6.89-14.62S663.31,352.86,662.8,346.24Z" transform="translate(-653.45 -314.11)"/><path class="cls-2" d="M678,366.74c-.27.27-.73,0-2.45-.47-.81-.21-1.3-.29-1.54-.37a36.41,36.41,0,0,1,2.66,4.72,1,1,0,0,1,.07.15q.22.47.42.93h-.38c-.15-.37-.31-.72-.48-1.08a35.86,35.86,0,0,0-2.6-4.65,7.65,7.65,0,0,0-.5,1.3c-.27,1.18.09,1.66-.27,2a1.66,1.66,0,0,1-2.25-.42c-.27-.63.46-1.41.92-1.9a3.92,3.92,0,0,1,1.94-1.25l-.18-.27L673,365l-.11-.16-.22-.31c-.3-.42-.62-.84-.95-1.25a3.15,3.15,0,0,0-.24-.3,2.9,2.9,0,0,1,.21.47,3.08,3.08,0,0,1,.08,2.1,2.76,2.76,0,0,1-.81,1.19.9.9,0,0,1-.68.22,1.26,1.26,0,0,1-1-1.25c.05-.52.54-.61,1-1.25.72-1.11.19-2.3.44-2.36h0v0c-.3-.34-.6-.68-.91-1a6.47,6.47,0,0,0-.51,1.89c0,.9.28,1.27,0,1.74a1.16,1.16,0,0,1-1.07.56l-.08,0c-.3-.12-.42-.53-.45-1a5.5,5.5,0,0,1,.06-1.14,3.94,3.94,0,0,1,.22-.8h0a4,4,0,0,1,.25-.44l.11-.13a2.36,2.36,0,0,1,1.3-.87.34.34,0,0,0-.06-.06c-.25-.27-.51-.53-.77-.79l-.11-.1-.15-.15-.06-.05a3.07,3.07,0,0,0-.26-.25l-.74-.69h0a7.37,7.37,0,0,1,.15,1.17c.09,1.08.14,1.62-.2,1.87a.7.7,0,0,1-.28.12.92.92,0,0,1-.85-.22c-.28-.32-.1-.85.18-1.69,0-.15.17-.48.31-.8a1.88,1.88,0,0,1,.36-.61.21.21,0,0,1,.08-.06l-.08-.08-.36-.31-.07-.06-.19-.15c-.33-.29-.68-.57-1-.84h0a4.23,4.23,0,0,1-.09,1.42c-.13.91-.2,1.37-.51,1.6a1.28,1.28,0,0,1-.84.21.94.94,0,0,1-.81-.41c-.17-.34.16-.78.81-1.65a8.67,8.67,0,0,1,.87-1,.77.77,0,0,1,.39-.26h0l-.38-.29-.1-.07c-.32-.24-.64-.48-1-.7h0a1.37,1.37,0,0,1,0,.4,4,4,0,0,1-.33,1.52c-.27.45-.86,1-1.23.88s-.48-1.12-.16-1.8a2,2,0,0,1,1.52-1.14h0c-.41-.29-.84-.57-1.27-.84h0a5,5,0,0,1-.66,1.24c-.6.95-.91,1.44-1.31,1.58a1.42,1.42,0,0,1-1.64-.45,1.09,1.09,0,0,1,.08-.9c.24-.45.63-.54,1.88-1.05.79-.31,1.19-.51,1.41-.57l-.24-.15c-.51-.31-1-.6-1.54-.88h0c.11.48-.79,1.46-1.8,1.94s-2.6.7-3.13-.11a1.33,1.33,0,0,1,.06-1.43c.13-.19.43-.5,2.76-.61.51,0,.92,0,1.23,0l.41,0-.8-.42,0,0h0c-.38.33-2.34.37-3.92-.55-.38-.22-1.55-.9-1.66-2,0-.4,0-1,.39-1.15s.6.1.86.28a28.85,28.85,0,0,1,2.52,2c1.24,1,1.91,1.12,1.88,1.35h0l.78.4h0a4.33,4.33,0,0,1-1-2.23c-.09-.61-.25-1.65.4-2.18a2,2,0,0,1,2.77.67c.16.51-.41.78-1.05,2.36-.44,1.08-.4,1.53-.68,1.58h0c.52.28,1,.57,1.55.87l.25.15h0a4.38,4.38,0,0,1-.44-2.37c0-.43.06-1.55.54-1.69s1,.5,1.26,1.11c.52,1.34-.58,3.14-1.14,3.08h0l.62.39.66.43,0,0h0a2.88,2.88,0,0,1,1.09-2.52l.13-.1c.08-.05.89-.57,1.3-.25s.25.95.07,1.37-.61.76-1.34,1.15l-.66.33a2.28,2.28,0,0,1-.37.17h0c.31.21.61.41.91.63l.12.1.39.29h0c0-.21.56-.55,1.16-1.48.37-.58.45-.89.66-1l.08,0h0a1,1,0,0,1,1,.48.86.86,0,0,1,.17.41.74.74,0,0,1-.17.56,1.75,1.75,0,0,1-.38.39,4.23,4.23,0,0,1-.69.43l-.25.12a3.27,3.27,0,0,1-1.34.32l.66.52h0l.63.51,0,0h0a1.54,1.54,0,0,1,.28-.09,2.34,2.34,0,0,0,1-.5,0,0,0,0,0,0,0,1.12,1.12,0,0,0,.22-.26c.31-.53.08-1,.36-1.15a.61.61,0,0,1,.54.08,1.18,1.18,0,0,1,.61.78c.12.7-.75,1.22-.88,1.3l-.1,0a1.94,1.94,0,0,1-.54.19l-.21,0a2.77,2.77,0,0,1-.93-.06c.32.27.63.55.93.83l.35.32s0,0,0,0h0l.33.33.24.22c-.07-.73,1.15-3.12,2.47-3a1.46,1.46,0,0,1,.75.3.93.93,0,0,1,.39.61,1,1,0,0,1-.4.75,9.83,9.83,0,0,1-2.21,1.25,3.79,3.79,0,0,1-.81.33h0c.43.43.84.87,1.25,1.31a3.53,3.53,0,0,1,1.66-1.9,1.7,1.7,0,0,1,1.22-.18c.88.23,1.52,1.34,1.28,1.78s-.94,0-2.76.29h0c-.67.1-1,.2-1.2.22l.21.24.07.07.7.83c.28.35.56.7.83,1.06a3,3,0,0,1,2.11-1.57c.22-.05,1.34-.3,1.68.25s0,1.17-.5,1.53-1,.31-2.12.23a7.16,7.16,0,0,1-.93-.11l.17.23.09.12.11.15.59.84a4.59,4.59,0,0,1,1.81-.57c1-.15,1.64-.26,2.08.17S678.25,366.45,678,366.74Z" transform="translate(-653.45 -314.11)"/><path class="cls-2" d="M678.33,350.93c-.38-.49-1-.49-2-.49a4.71,4.71,0,0,0-1.88.28c-.17-.37-.34-.73-.53-1.09-.06-.13-.13-.26-.2-.39a5.88,5.88,0,0,0,.9.25c1.09.26,1.64.39,2.13.11s.93-1,.73-1.43-1.39-.53-1.61-.51a3,3,0,0,0-2.34,1.22q-.66-1.26-1.44-2.46c.18,0,.55,0,1.22,0,1.85,0,2.53.48,2.79.15s-.15-1.59-1-2c-1.27-.56-3,1-3.18,1.61q-.49-.76-1-1.5a3.5,3.5,0,0,0,.85-.19c1.33-.38,2.84-.82,2.89-1.57a1.23,1.23,0,0,0-1-1.07c-1.29-.3-2.88,1.89-2.92,2.62-.51-.7-1.05-1.37-1.6-2a2.46,2.46,0,0,0,1.79.07c.15-.06,1.08-.44,1.08-1.15s-.67-1.14-1-1-.15.6-.54,1.08-1.4.52-1.68.61v0c-.37-.42-.74-.82-1.12-1.23a3,3,0,0,0,1.37-.1c.31-.09,1.68-.46,1.72-1.25a1.11,1.11,0,0,0-1-1.05c-.32,0-.4.33-.93.93-.74.82-1.32,1.07-1.38,1.27-.41-.42-.83-.84-1.26-1.24l.4-.1c1.24-.4,1.86-.6,2.21-1.15.24-.39.44-1.07.14-1.38s-1.23,0-1.32.05a2.89,2.89,0,0,0-1.61,2.41q-.57-.54-1.17-1.05c.55.16,1.91-1.45,1.61-2.86-.14-.64-.64-1.34-1.06-1.29s-.73,1.16-.81,1.58a4.45,4.45,0,0,0,.07,2.41c-.54-.45-1.08-.89-1.64-1.31h0c.28,0,.32-.46.92-1.46.88-1.46,1.49-1.64,1.4-2.17a2,2,0,0,0-2.62-1.09c-.73.42-.73,1.48-.74,2.09a4.4,4.4,0,0,0,.64,2.37l-.72-.53h0c.08-.22-.57-.42-1.64-1.63a29.82,29.82,0,0,0-2.18-2.33c-.23-.22-.52-.49-.81-.42s-.54.68-.56,1.08A3,3,0,0,0,658,334.8c1.42,1.16,3.37,1.43,3.79,1.15,0,0,0,0,0,0l.73.54a12.71,12.71,0,0,0-1.63-.23c-2.32-.25-2.66,0-2.82.17a1.37,1.37,0,0,0-.28,1.41c.39.88,2,.88,3.07.59s2.12-1.13,2.08-1.62c.54.42,1.08.85,1.6,1.3-.23,0-.66.15-1.48.35-1.31.3-1.72.33-2,.73a1.11,1.11,0,0,0-.22.88,1.39,1.39,0,0,0,1.54.7c.43-.08.8-.51,1.54-1.36a4.79,4.79,0,0,0,.85-1.11c.38.33.76.67,1.13,1a2,2,0,0,0-1.68.89c-.43.62-.49,1.6-.12,1.81s1-.28,1.34-.69a3.74,3.74,0,0,0,.57-1.44,2,2,0,0,0,.07-.39c.44.42.86.84,1.27,1.28-.31,0-.94.61-1.44,1.1-.79.76-1.18,1.14-1.07,1.5a1.27,1.27,0,0,0,1.61.45c.34-.17.48-.61.75-1.49a4.37,4.37,0,0,0,.31-1.39q.54.57,1.05,1.17c.15.17.29.34.43.52-.31.09-.81,1.05-1,1.34-.41.77-.67,1.28-.44,1.64a.92.92,0,0,0,1.1.27c.37-.19.42-.74.49-1.81a7.37,7.37,0,0,0,0-1.18c.63.77,1.22,1.58,1.79,2.4a2.37,2.37,0,0,0-1.42.65,2.82,2.82,0,0,0-.79,1.27c-.17.51-.49,1.83,0,2.16a1.11,1.11,0,0,0,1.23-.34c.36-.43.11-.83.29-1.72a6.64,6.64,0,0,1,.8-1.79c.26.39.51.77.75,1.16h0c-.25,0,.08,1.28-.8,2.26-.5.57-1,.58-1.13,1.09a1.25,1.25,0,0,0,.75,1.38c.69.2,1.4-.63,1.69-1.16a3.28,3.28,0,0,0,.12-2.58c.39.67.76,1.36,1.1,2.06l.48,1a3.81,3.81,0,0,0-2.12.93c-.53.41-1.37,1.07-1.2,1.73a1.63,1.63,0,0,0,2.15.76c.42-.3.13-.84.59-2a6.6,6.6,0,0,1,.69-1.2,36.62,36.62,0,0,1,2.43,7.35,37.93,37.93,0,0,1,.88,9.07.22.22,0,1,0,.43,0h0a38.13,38.13,0,0,0-1-9.16,36.93,36.93,0,0,0-2.47-7.3c.23.12.7.28,1.47.61,1.63.7,2,1.07,2.35.86S678.68,351.4,678.33,350.93Z" transform="translate(-653.45 -314.11)"/><path class="cls-2" d="M749.14,353.19l-.66.48a12.71,12.71,0,0,1,1.63-.23c2.32-.25,2.67,0,2.82.17a1.37,1.37,0,0,1,.29,1.41c-.4.88-2.05.88-3.07.59s-2.09-1.1-2.09-1.59v0l-1,.76-.63.54c.22,0,.65.15,1.47.35,1.32.3,1.72.33,2,.73a1.07,1.07,0,0,1,.23.88,1.41,1.41,0,0,1-1.55.7c-.42-.07-.8-.5-1.54-1.36a4.79,4.79,0,0,1-.85-1.11h0c-.38.33-.76.68-1.13,1h0a2,2,0,0,1,1.69.88c.43.63.48,1.6.12,1.81s-1-.28-1.35-.69a3.76,3.76,0,0,1-.56-1.44,1.59,1.59,0,0,1-.08-.39c-.26.25-.52.51-.77.77s-.34.33-.5.51h0c.3,0,1,.61,1.45,1.1.78.76,1.17,1.14,1.06,1.5a1.28,1.28,0,0,1-1.6.46c-.34-.18-.49-.62-.76-1.5a8.28,8.28,0,0,1-.29-1.09.81.81,0,0,1,0-.3h0c-.36.37-.7.76-1,1.16h0l-.43.51c.32.1.82,1.05,1,1.34.41.78.67,1.28.44,1.64a.92.92,0,0,1-1.1.27c-.37-.19-.41-.73-.49-1.81a6.15,6.15,0,0,1,0-1.18h0c-.34.42-.67.84-1,1.27a1.34,1.34,0,0,1-.11.14.43.43,0,0,1,0,.07c-.23.3-.44.6-.65.9a0,0,0,0,1,0,0h0a1.33,1.33,0,0,1,.65.16,3,3,0,0,1,.77.49,2.9,2.9,0,0,1,.78,1.28c.17.5.5,1.82-.05,2.15a1.09,1.09,0,0,1-1.22-.34c-.36-.41-.13-.81-.28-1.65,0,0,0,0,0-.06a3.86,3.86,0,0,0-.57-1.38,2.7,2.7,0,0,1-.23-.42h0c-.09.13-.18.26-.26.39a2.14,2.14,0,0,0-.13.19l-.12.19c-.07.11-.14.22-.2.33a.05.05,0,0,0,0,.05h0c.21,0,0,.89.45,1.75a2.32,2.32,0,0,0,.35.51,2.27,2.27,0,0,0,.45.4l.28.18a.88.88,0,0,1,.4.51,1.31,1.31,0,0,1-.4,1.18l-.1.08a.72.72,0,0,1-.25.12.91.91,0,0,1-.73-.12,2.91,2.91,0,0,1-1-1,3.35,3.35,0,0,1-.12-2.59c-.21.36-.41.73-.61,1.1s-.33.63-.49,1-.32.66-.47,1a3.87,3.87,0,0,1,2.12.93,6.14,6.14,0,0,1,.53.44c.41.37.79.83.67,1.3a1.65,1.65,0,0,1-2.16.75c-.21-.15-.24-.37-.28-.7a4.38,4.38,0,0,0-.3-1.25,6.64,6.64,0,0,0-.7-1.21c-.07.15-.13.3-.19.44-.29.66-.57,1.34-.82,2-.13.35-.25.71-.37,1.08h-.35c.13-.37.25-.73.39-1.08.31-.84.65-1.67,1-2.48-.24.12-.7.27-1.47.6l-.23.1c-1.44.64-1.82,1-2.12.76s-.33-1.05,0-1.52,1-.49,2-.49h.33a3.65,3.65,0,0,1,1.55.27h0c.17-.37.35-.73.53-1.09l.2-.39a5.88,5.88,0,0,1-.9.25,9.91,9.91,0,0,1-1.23.25,1.4,1.4,0,0,1-.9-.14c-.5-.28-.93-1-.73-1.43s1.39-.53,1.61-.51a3.4,3.4,0,0,1,.46.06,2.76,2.76,0,0,1,1.88,1.16,1.62,1.62,0,0,1,.1-.18c.41-.78.86-1.54,1.34-2.28-.19,0-.54,0-1.22,0a12.27,12.27,0,0,0-1.85.19c-.52.1-.79.15-.94,0-.31-.39.16-1.59,1-2a1.46,1.46,0,0,1,.41-.11,3.35,3.35,0,0,1,2.77,1.72c.07-.11.14-.22.22-.33l.23-.35.4-.57.17-.24h0l-.21,0-.37-.1-.28-.08a6.86,6.86,0,0,1-2.69-1.15.69.69,0,0,1-.2-.41,1,1,0,0,1,.47-.83,1.28,1.28,0,0,1,.51-.25c.75-.17,1.6.49,2.19,1.22.09.12.18.23.26.35a2.61,2.61,0,0,1,.48,1h0l.19-.26.09-.11.06-.08c.4-.53.82-1.06,1.24-1.57a2.5,2.5,0,0,1-1.24.19,1.63,1.63,0,0,1-.53-.12,2.08,2.08,0,0,1-.39-.19.76.76,0,0,1-.16-.11,1.05,1.05,0,0,1-.53-.85,1.17,1.17,0,0,1,.52-.9h0a.57.57,0,0,1,.47-.13c.3.09.15.61.54,1.08l.07.07c.51.53,1.34.45,1.61.54h0l0,0c.36-.42.73-.82,1.11-1.22a3.21,3.21,0,0,1-1.37-.11,3.8,3.8,0,0,1-1.37-.64.85.85,0,0,1-.34-.61,1,1,0,0,1,.34-.75.86.86,0,0,1,.64-.3c.31,0,.4.33.93.93a10.38,10.38,0,0,0,1.27,1.14.35.35,0,0,1,.1.13l.47-.48.79-.76a3.13,3.13,0,0,1-.4-.1l-1-.33a2.18,2.18,0,0,1-1.22-.82c-.25-.39-.44-1.07-.15-1.37s1.23,0,1.32.05h0a2.86,2.86,0,0,1,1.58,2.39c.38-.36.77-.71,1.17-1h0c-.55.14-1.91-1.46-1.61-2.87.14-.64.64-1.33,1.07-1.28s.72,1.15.81,1.57a4.47,4.47,0,0,1-.08,2.42h0l.51-.42c.36-.3.74-.59,1.12-.88h0c-.28,0-.32-.45-.92-1.46-.88-1.45-1.48-1.63-1.4-2.17a2,2,0,0,1,2.63-1.09c.72.42.73,1.48.73,2.1a4.3,4.3,0,0,1-.64,2.36h0l.64-.46.08-.06h0c-.06-.22.58-.43,1.65-1.63a29.82,29.82,0,0,1,2.18-2.33c.23-.22.52-.49.8-.41s.54.67.57,1.07A3,3,0,0,1,753,352a5.66,5.66,0,0,1-3.27,1.25,1.08,1.08,0,0,1-.51-.09l0,0Z" transform="translate(-653.45 -314.11)"/><path class="cls-2" d="M745.39,336c.42.28,2.37,0,3.79-1.15a3,3,0,0,0,1.32-2.23c0-.4-.2-1-.56-1.08s-.58.2-.81.42a29.82,29.82,0,0,0-2.18,2.33c-1.07,1.21-1.72,1.41-1.64,1.63h0l-.73.53a4.31,4.31,0,0,0,.65-2.37c0-.61,0-1.67-.74-2.09a2,2,0,0,0-2.63,1.09c-.08.53.52.71,1.4,2.17.61,1,.64,1.45.92,1.46h.06c-.56.42-1.11.86-1.64,1.31a4.55,4.55,0,0,0,.07-2.41c-.09-.42-.31-1.51-.81-1.58s-.93.65-1.06,1.29c-.31,1.41,1.06,3,1.61,2.86q-.6.51-1.17,1.05a2.88,2.88,0,0,0-1.62-2.41c-.08,0-1-.42-1.32-.05s-.09,1,.15,1.38c.34.55,1,.75,2.2,1.15l.4.1c-.43.4-.85.82-1.26,1.24,0-.2-.63-.45-1.37-1.27-.53-.6-.61-.91-.93-.93a1.09,1.09,0,0,0-1,1.05c0,.79,1.41,1.16,1.72,1.25a3,3,0,0,0,1.37.1c-.38.41-.76.81-1.12,1.23l0,0c-.27-.09-1.17,0-1.68-.61s-.24-1-.53-1.08-1,.44-1,1,.93,1.09,1.08,1.15a2.46,2.46,0,0,0,1.79-.07c-.55.66-1.09,1.33-1.6,2,0-.73-1.63-2.92-2.93-2.62a1.24,1.24,0,0,0-1,1.07c.06.75,1.57,1.19,2.89,1.57a3.55,3.55,0,0,0,.86.19c-.36.49-.7,1-1,1.5-.18-.6-1.91-2.17-3.17-1.61-.83.37-1.29,1.57-1,2s.94-.11,2.79-.15c.67,0,1,0,1.21,0q-.76,1.2-1.44,2.46a2.91,2.91,0,0,0-2.33-1.22c-.23,0-1.37-.08-1.62.51s.23,1.14.74,1.43,1,.15,2.13-.11a6.24,6.24,0,0,0,.9-.25l-.21.39c-.18.36-.36.72-.53,1.09a4.65,4.65,0,0,0-1.88-.28c-1,0-1.66,0-2,.49a1.22,1.22,0,0,0,0,1.52c.3.21.71-.16,2.35-.86.77-.33,1.23-.49,1.46-.61a37.59,37.59,0,0,0-2.47,7.3,38.12,38.12,0,0,0-1,9.16h0a.22.22,0,0,0,.22.22.23.23,0,0,0,.21-.23,38.44,38.44,0,0,1,.87-9.07A37.29,37.29,0,0,1,733,351a7.28,7.28,0,0,1,.69,1.2c.46,1.12.17,1.66.59,2a1.64,1.64,0,0,0,2.15-.76c.17-.66-.67-1.32-1.2-1.73a3.81,3.81,0,0,0-2.12-.93c.16-.33.31-.66.48-1,.34-.7.71-1.39,1.09-2.06a3.29,3.29,0,0,0,.13,2.58c.28.53,1,1.36,1.68,1.16a1.26,1.26,0,0,0,.76-1.38c-.13-.51-.63-.52-1.14-1.09-.88-1-.54-2.23-.79-2.26h0l.76-1.16a6.64,6.64,0,0,1,.8,1.79c.17.89-.07,1.29.29,1.72a1.1,1.1,0,0,0,1.22.34c.55-.33.23-1.65,0-2.16a2.78,2.78,0,0,0-.78-1.27,2.39,2.39,0,0,0-1.42-.65c.56-.82,1.16-1.63,1.79-2.4a8.45,8.45,0,0,0,0,1.18c.08,1.07.13,1.62.49,1.81a.92.92,0,0,0,1.1-.27c.24-.36,0-.87-.44-1.64-.15-.29-.65-1.25-1-1.34.14-.18.28-.35.43-.52.34-.4.69-.79,1-1.17a4.8,4.8,0,0,0,.32,1.39c.27.88.41,1.32.75,1.49a1.26,1.26,0,0,0,1.6-.45c.11-.36-.28-.74-1.06-1.5-.5-.49-1.14-1.11-1.44-1.1.41-.44.83-.86,1.26-1.28a1.59,1.59,0,0,0,.08.39,3.93,3.93,0,0,0,.56,1.44c.34.41,1,.89,1.35.69s.31-1.19-.12-1.81a2,2,0,0,0-1.68-.89c.37-.35.74-.69,1.13-1a4.94,4.94,0,0,0,.84,1.11c.74.85,1.12,1.28,1.55,1.36a1.39,1.39,0,0,0,1.54-.7,1.11,1.11,0,0,0-.22-.88c-.31-.4-.71-.43-2-.73-.83-.2-1.26-.33-1.48-.35.52-.45,1-.88,1.6-1.3,0,.49,1,1.31,2.08,1.62s2.67.29,3.07-.59a1.37,1.37,0,0,0-.28-1.41c-.16-.16-.5-.42-2.83-.17a12.49,12.49,0,0,0-1.62.23l.73-.54S745.38,336,745.39,336Z" transform="translate(-653.45 -314.11)"/><path class="cls-1" d="M739.91,321.85c-.64.76.65,3,1.92,4.25s3.27,2.52,4,1.92.19-3.15-1.27-4.69S740.56,321.08,739.91,321.85Z" transform="translate(-653.45 -314.11)"/><path class="cls-1" d="M669.6,321.33c-1-.72-4.52,1.59-4.26,2.76.17.75,2,1.53,3.41.64S670.21,321.78,669.6,321.33Z" transform="translate(-653.45 -314.11)"/><path class="cls-1" d="M657.78,343.34c-.87,0-2.11,2.07-1.27,3.19a2,2,0,0,0,2.76.21C660.06,345.8,658.76,343.31,657.78,343.34Z" transform="translate(-653.45 -314.11)"/><path class="cls-1" d="M748.85,361.85c-.56-.68,1.27-4.26,3.41-4.05.73.08,1.66.61,1.7,1.28C754.05,360.61,749.49,362.61,748.85,361.85Z" transform="translate(-653.45 -314.11)"/><path class="cls-1" d="M672,322.17a1.49,1.49,0,0,1,.85-2c.61-.13,1.35.31,1.38.74C674.33,321.62,672.47,322.56,672,322.17Z" transform="translate(-653.45 -314.11)"/><path class="cls-3" d="M712.29,386.37c-3,0-14.82,0-17.78,0l.42-5.7.36-4.86h16.22l.36,4.86Z" transform="translate(-653.45 -314.11)"/><path class="cls-4" d="M711.87,380.67H694.93l.36-4.86h16.22Z" transform="translate(-653.45 -314.11)"/><rect class="cls-3" x="37.22" y="71.13" width="25.45" height="3.01" rx="1.38"/><path class="cls-3" d="M12.76,53.29H87.14a0,0,0,0,1,0,0v8.41a2.4,2.4,0,0,1-2.4,2.4H15.15a2.4,2.4,0,0,1-2.4-2.4V53.29a0,0,0,0,1,0,0Z"/><rect class="cls-3" x="12.76" y="10.88" width="74.38" height="44.73" rx="1.84"/><rect class="cls-5" x="15.16" y="14.04" width="69.57" height="41.58"/><path class="cls-1" d="M708.88,339.56a5.52,5.52,0,1,1-5.52-5.51A5.5,5.5,0,0,1,708.88,339.56Z" transform="translate(-653.45 -314.11)"/><path class="cls-6" d="M706.94,342.57a1.38,1.38,0,0,0-.56-.5,4.48,4.48,0,0,0-1-.36,5,5,0,0,0-.53-.11,1,1,0,0,0-.32-.09,1.1,1.1,0,0,0-.28,0l.12-.81.1-.06a2.47,2.47,0,0,0,1-1.64,1.14,1.14,0,0,0,.25-.21c.42-.43.47-1.14.25-1.22s-.22,0-.34.13a2.8,2.8,0,0,0-.27-2c-.37-.5-1-.59-2-.76a1.62,1.62,0,0,0-2,1.62c0,.77,0,.88,0,1.08-.1-.08-.21-.13-.29-.09s-.17.79.25,1.22a1,1,0,0,0,.26.21,2.49,2.49,0,0,0,1,1.79.75.75,0,0,0,.13.06l.06.69h0a1,1,0,0,0-.35,0l-.22.06h0l-.6.08a2,2,0,0,0-1.67,2.24v0a5.6,5.6,0,0,0,3.18,1.13h.17a5.41,5.41,0,0,0,.59,0,5.87,5.87,0,0,0,1-.19,5.52,5.52,0,0,0,2.2-1.28A1.43,1.43,0,0,0,706.94,342.57Z" transform="translate(-653.45 -314.11)"/><path class="cls-1" d="M703.36,345.18a5.62,5.62,0,0,1-5.61-5.62,5.62,5.62,0,1,1,9.11,4.39A5.55,5.55,0,0,1,703.36,345.18Zm0-11a5.42,5.42,0,0,0-3.29,9.73,5.42,5.42,0,0,0,8.71-4.31A5.42,5.42,0,0,0,703.36,334.14Z" transform="translate(-653.45 -314.11)"/><rect class="cls-3" x="45.1" y="44.95" width="9.62" height="3.63" rx="1.82"/><path class="cls-1" d="M711.67,350.81H695.06a1.61,1.61,0,0,1-1.61-1.6h0a1.61,1.61,0,0,1,1.61-1.61h16.61a1.61,1.61,0,0,1,1.6,1.61h0A1.6,1.6,0,0,1,711.67,350.81Z" transform="translate(-653.45 -314.11)"/><path class="cls-6" d="M710.72,349.65H696a.44.44,0,0,1-.43-.44h0a.44.44,0,0,1,.43-.44h14.72a.44.44,0,0,1,.44.44h0A.44.44,0,0,1,710.72,349.65Z" transform="translate(-653.45 -314.11)"/><path class="cls-1" d="M711.67,356.49H695.06a1.6,1.6,0,0,1-1.61-1.6h0a1.61,1.61,0,0,1,1.61-1.6h16.61a1.6,1.6,0,0,1,1.6,1.6h0A1.6,1.6,0,0,1,711.67,356.49Z" transform="translate(-653.45 -314.11)"/><path class="cls-6" d="M695.64,354.89a.44.44,0,1,1,.44.44A.44.44,0,0,1,695.64,354.89Z" transform="translate(-653.45 -314.11)"/><path class="cls-6" d="M697,354.89a.44.44,0,0,1,.44-.44.44.44,0,0,1,0,.88A.44.44,0,0,1,697,354.89Z" transform="translate(-653.45 -314.11)"/><path class="cls-6" d="M698.26,354.89a.44.44,0,1,1,.44.44A.44.44,0,0,1,698.26,354.89Z" transform="translate(-653.45 -314.11)"/><path class="cls-6" d="M699.57,354.89a.44.44,0,1,1,.44.44A.44.44,0,0,1,699.57,354.89Z" transform="translate(-653.45 -314.11)"/><path class="cls-6" d="M700.88,354.89a.44.44,0,1,1,.44.44A.44.44,0,0,1,700.88,354.89Z" transform="translate(-653.45 -314.11)"/><path class="cls-6" d="M702.2,354.89a.44.44,0,0,1,.43-.44.44.44,0,0,1,0,.88A.44.44,0,0,1,702.2,354.89Z" transform="translate(-653.45 -314.11)"/><path class="cls-6" d="M703.51,354.89a.44.44,0,1,1,.44.44A.44.44,0,0,1,703.51,354.89Z" transform="translate(-653.45 -314.11)"/><path class="cls-6" d="M704.82,354.89a.44.44,0,0,1,.44-.44.44.44,0,0,1,0,.88A.44.44,0,0,1,704.82,354.89Z" transform="translate(-653.45 -314.11)"/><path class="cls-6" d="M706.13,354.89a.44.44,0,1,1,.44.44A.44.44,0,0,1,706.13,354.89Z" transform="translate(-653.45 -314.11)"/><path class="cls-7" d="M741.09,358c-1.13-1.13-1.93-2-2.19-2.35l-.27-.37-.76-1.05a29.51,29.51,0,0,1-1.87-2.78c-.06-.1-.11-.2-.15-.28a.61.61,0,0,0-.05-.12c-.12-.31-.12-.5,0-.63a.64.64,0,0,1,.48-.17h.3a4.63,4.63,0,0,1,1,.27l.21.09a8.76,8.76,0,0,1,1.08.58,14.83,14.83,0,0,1,2.59,3.31c.23.36,1.09,1.61,1.09,1.61a3.53,3.53,0,0,1,.86,2.3,4.07,4.07,0,0,1-.42,1.47,18,18,0,0,1-1.47,2.73c-.67,1-1.51,2.21-2.52,3.56a1.11,1.11,0,0,0-.55,0,1.21,1.21,0,0,0-.5.24c.78-2,1.54-4,2.31-6.08C740.61,359.38,740.89,358.59,741.09,358Z" transform="translate(-653.45 -314.11)"/><path class="cls-7" d="M735.38,351.2a14.61,14.61,0,0,1-1.57,3.65,19.88,19.88,0,0,1-2.37,3.59c-.87,1-1.21,1.08-1.47,1.05-.83-.09-1.31-1.56-1.68-2.73a13.33,13.33,0,0,1-.63-3.77l1.05-.21,1.47,4.19c1-2.48,1.41-3.6,1.64-4.16l0-.05a4.51,4.51,0,0,1,1.07-1.82,3.43,3.43,0,0,1,.81-.53h0l.13-.06.21-.09.15,0a1.59,1.59,0,0,1,.38-.06h0l.47,0,.12.08A1,1,0,0,1,735.38,351.2Z" transform="translate(-653.45 -314.11)"/><path class="cls-7" d="M739,354.74c0,.31,0,.61-.06.93-.22,3.25-.43,6.51-.65,9.77l-7.27-.71c.25-2.19.5-4.37.76-6.56l0-3.77c0-.55.05-1.09.08-1.64a4.51,4.51,0,0,1,1.07-1.82,2.92,2.92,0,0,1,.38-.29,1.43,1.43,0,0,1,.21-.12.47.47,0,0,1,.12-.07l.12-.06.13-.06.25-.1.06,0a1.61,1.61,0,0,1,.43-.07,3.71,3.71,0,0,0,.47,0l1.17.08h0l.18.29.27.44.15.25Z" transform="translate(-653.45 -314.11)"/><path class="cls-8" d="M737,347.63c-.08.79-.14,1.57-.21,2.35l0,.3s0,0,0,.05a.69.69,0,0,1-.11.23,1.12,1.12,0,0,1-.55.49l-.09,0a1.21,1.21,0,0,1-.69,0,1.3,1.3,0,0,1-.26-.14.58.58,0,0,1-.24-.25.78.78,0,0,1,0-.31,1.06,1.06,0,0,1,0-.21h0a2.85,2.85,0,0,0,.05-.3,16,16,0,0,0,.22-1.85Z" transform="translate(-653.45 -314.11)"/><path class="cls-9" d="M735.39,342.69a2.81,2.81,0,0,0-1.31,1.12,4,4,0,0,0-.52,2.73c.07,1,.15,2,.79,2.38,1.06.7,3.46-.27,4.21-2.08.58-1.39.21-3.39-1.1-4.09A2.75,2.75,0,0,0,735.39,342.69Z" transform="translate(-653.45 -314.11)"/><path class="cls-10" d="M728.83,385.23a3.19,3.19,0,0,1-1.67,1.24c-1,.28-1.75-.19-2,.2a1.2,1.2,0,0,0,.51,1.49,5.29,5.29,0,0,0,1.49.07,20.37,20.37,0,0,0,3-.31,5.56,5.56,0,0,0,.19-1.77,6.53,6.53,0,0,0-.11-.85Z" transform="translate(-653.45 -314.11)"/><path class="cls-10" d="M736.84,385.41a1.7,1.7,0,0,0-.51.82c-.24.58-.49,1.18-.2,1.6a1.19,1.19,0,0,0,.83.39c.1,0,1,.16,1.36-.35.19-.23.17-.6.12-1.33s-.08-1.16-.31-1.33A1.19,1.19,0,0,0,736.84,385.41Z" transform="translate(-653.45 -314.11)"/><path class="cls-6" d="M731,363.42q-1.5,11.15-3,22.29l2.3,0,4.14-19.08q.87,9.63,1.73,19.25l2.5-.1q-.1-11.19-.22-22.39a25.9,25.9,0,0,1-3.53.27A26.85,26.85,0,0,1,731,363.42Z" transform="translate(-653.45 -314.11)"/><path class="cls-10" d="M737.87,346.15a1.91,1.91,0,0,0-.82-1.13c-.6-.34-.95,0-2.12-.25-.5-.12-.76-.26-1-.11a1.06,1.06,0,0,0-.39.87,2.69,2.69,0,0,1-.83-.95c-.25-.47-.55-1.41-.14-1.91.25-.3.57-.21,1.78-.29,2-.13,2.24-.44,3.14-.18a2.55,2.55,0,0,1,1.55,1c.29.47.21,1.18,0,2.62-.36,2.18-.71,2.54-.93,2.71a2.19,2.19,0,0,1-1.25.4c0-.05,0-.12,0-.21a5,5,0,0,1,.71-1.55A4.48,4.48,0,0,0,737.87,346.15Z" transform="translate(-653.45 -314.11)"/><path class="cls-9" d="M737.15,346.91c.27-.37.79-.63,1-.48s0,.8-.35,1.13-.65.34-.81.19S737,347.16,737.15,346.91Z" transform="translate(-653.45 -314.11)"/><path class="cls-8" d="M737.57,350.55a3.09,3.09,0,0,1-.71.4l-.15.05a3.2,3.2,0,0,1-.71.17l-.14,0a3.38,3.38,0,0,1-.45,0h0a3.59,3.59,0,0,1-1.87-.67.47.47,0,0,1,.12-.07l.12-.06.13-.06.21-.09h0l0,0h.07a1.59,1.59,0,0,1,.38-.06h.12a11.85,11.85,0,0,1,1.82.13A4.63,4.63,0,0,1,737.57,350.55Z" transform="translate(-653.45 -314.11)"/><path class="cls-10" d="M737.05,345a1.65,1.65,0,0,1,.37.81c.08.57-.2,1.12-.09,1.17s.08,0,.12-.05c.27-.23.78-1,.39-1.54A1.07,1.07,0,0,0,737.05,345Z" transform="translate(-653.45 -314.11)"/><path class="cls-11" d="M744.52,360a4.78,4.78,0,0,0-5.93-.53l-.07-.09-8.9-8.51h0l-2.3-2.2h0l-1.24-1.19a1.05,1.05,0,0,0-.76-.29,1,1,0,0,0-.74.32,1.06,1.06,0,0,0,0,1.5l-1.92,2a.66.66,0,0,0,0,.94.67.67,0,0,0,.94,0l.18-.2a.66.66,0,0,0,1.13.35l-.73.77a.66.66,0,1,0,.95.92l.19-.2a.66.66,0,1,0,1,.92l.29-.3a.65.65,0,0,0,.83-.1l1.19-1.24,8.42,8.05.1.08a4.76,4.76,0,1,0,7.37-1Zm-.94,5.69a3.25,3.25,0,1,1-.1-4.59A3.24,3.24,0,0,1,743.58,365.66Z" transform="translate(-653.45 -314.11)"/><path class="cls-9" d="M738.57,365c-.67,0-1,.93-1.05,1.05s-.28.78,0,1,1.27,0,1.68-.63a1,1,0,0,0,.21-.83A.91.91,0,0,0,738.57,365Z" transform="translate(-653.45 -314.11)"/><path class="cls-9" d="M729.35,352.34a1.16,1.16,0,0,0-1.69,0,1,1,0,0,0,.09,1.43c.41.29,1,0,1.33-.38S729.54,352.67,729.35,352.34Z" transform="translate(-653.45 -314.11)"/><path class="cls-6" d="M670.72,363.2a7.27,7.27,0,0,0-7.4,7.14v5.24h2.35v-5.24h0a5,5,0,0,1,10.09,0h0v5.24h2.36v-5.24A7.27,7.27,0,0,0,670.72,363.2Z" transform="translate(-653.45 -314.11)"/><rect class="cls-11" x="6.79" y="58.38" width="20.95" height="15.75" rx="1.79"/><path class="cls-6" d="M672.91,379.28a2.16,2.16,0,1,0-3.26,1.85v1.92a1.1,1.1,0,1,0,2.2,0v-1.92A2.13,2.13,0,0,0,672.91,379.28Z" transform="translate(-653.45 -314.11)"/></svg>