<?xml version="1.0" encoding="utf-8"?>
<!-- Generator: Adobe Illustrator 19.0.0, SVG Export Plug-In . SVG Version: 6.00 Build 0)  -->
<svg version="1.1" id="Layer_1" xmlns="http://www.w3.org/2000/svg" xmlns:xlink="http://www.w3.org/1999/xlink" x="0px" y="0px"
	 viewBox="0 0 800 800" style="enable-background:new 0 0 800 800;" xml:space="preserve">
<style type="text/css">
	.st0{fill:#EBEBEB;}
	.st1{fill:#E0E0E0;}
	.st2{fill-rule:evenodd;clip-rule:evenodd;fill:#F4F4F4;}
	.st3{fill-rule:evenodd;clip-rule:evenodd;fill:#EBEBEB;}
	.st4{fill:#F4F4F4;}
	.st5{fill:#1A2E35;}
	.st6{fill:#ADC548;}
	.st7{fill:#F9F9F9;}
	.st8{fill:#F1B844;}
	.st9{fill:#D94D65;}
	.st10{opacity:0.4;}
	.st11{clip-path:url(#XMLID_317_);}
	.st12{clip-path:url(#XMLID_318_);}
	.st13{clip-path:url(#XMLID_319_);}
	.st14{fill:#1C2E35;}
	.st15{fill:#FFBE9C;}
	.st16{fill:#FFFFFF;}
	.st17{fill:#FF996C;}
	.st18{clip-path:url(#XMLID_320_);fill:#1C2E35;}
	.st19{clip-path:url(#XMLID_320_);fill:#1A2E35;}
	.st20{clip-path:url(#XMLID_320_);fill:#BE654E;}
	.st21{clip-path:url(#XMLID_320_);fill:#FFBE9C;}
	.st22{clip-path:url(#XMLID_320_);fill:#C68876;}
	.st23{clip-path:url(#XMLID_320_);fill:#D94D65;}
	.st24{opacity:0.6;clip-path:url(#XMLID_320_);}
	.st25{clip-path:url(#XMLID_321_);fill:#FFFFFF;}
	.st26{clip-path:url(#XMLID_322_);fill:#FFFFFF;}
	.st27{clip-path:url(#XMLID_323_);fill:#FFFFFF;}
	.st28{clip-path:url(#XMLID_320_);fill:#50A6B1;}
	.st29{clip-path:url(#XMLID_320_);fill:#F9F9F9;}
</style>
<g>
	<g>
		<path id="XMLID_315_" class="st0" d="M685.6,125.4c0,0-12.9-8.4-28.3,22.4c-15.4,30.8-21.2,48.6-21.2,48.6s-4.1,6.5-8.5,2.3
			c-4.5-4.2-10.6-16-18.1-13.8c-7.8,2.3-10.3,11-8.7,23.8c1.6,12.8,4.1,40.8,4.3,43.4c0.2,2.5-1.2,6.2-4.7,3.8
			c-3.5-2.4-23.6-24.4-33.5-14.2c-9.9,10.2,0.4,45,1.4,48.8c1,3.8,0.3,5.5-1.5,6.4c-1.8,1-7.9-7.1-13.9-13.1c-6-6-14-12-19.2-5.6
			c-5.2,6.4-6.7,32.6,18.6,74.9l13,18.8l22.9-1.5c48.9-6.1,68.7-23.4,70.5-31.4c1.8-8-7.8-10.7-16.3-11.7s-18.5-0.8-18.9-2.9
			c-0.4-2,0.5-3.6,4.2-5.1c3.7-1.5,37.4-14.9,39.4-28.9c1.9-14.1-27.8-16.4-31.8-17.7c-4-1.3-2-4.7,0.1-6
			c2.1-1.4,25.8-16.7,36.8-23.3c11-6.6,16.4-13.9,13.4-21.5c-2.9-7.3-16-4.8-22-5.7c-6-0.9-3.4-8.1-3.4-8.1s10.4-15.5,25.3-46.6
			c14.8-31.1-0.1-36.2-0.1-36.2"/>
		<path id="XMLID_314_" class="st1" d="M671.8,153c0,0-0.1,0.2-0.3,0.7c-0.2,0.5-0.5,1.1-0.9,1.9c-0.8,1.7-2,4.2-3.4,7.4
			c-3,6.4-7.4,15.7-12.9,27.1c-11,22.8-26.4,54.2-43.6,88.8c-17.2,34.6-32.7,65.9-43.8,88.7c-5.5,11.4-10,20.5-13.1,26.9
			c-1.5,3.2-2.7,5.6-3.6,7.3c-0.4,0.8-0.7,1.4-0.9,1.9c-0.2,0.4-0.3,0.6-0.3,0.6s0.1-0.2,0.3-0.7c0.2-0.5,0.5-1.1,0.9-1.9
			c0.8-1.7,2-4.2,3.4-7.4c3-6.4,7.4-15.7,12.9-27c11-22.8,26.4-54.2,43.6-88.8c17.2-34.6,32.7-65.9,43.8-88.7
			c5.5-11.4,10-20.5,13.1-26.9c1.5-3.2,2.7-5.6,3.6-7.3c0.4-0.8,0.7-1.4,0.9-1.9C671.7,153.2,671.8,153,671.8,153"/>
		<path id="XMLID_313_" class="st1" d="M617.5,201.9c0.1,0,0.3,0.5,0.6,1.5c0.3,1,0.8,2.5,1.3,4.3c1.1,3.7,2.4,8.7,3.8,14.4
			c1.3,5.5,2.5,10.6,3.5,14.4c0.4,1.7,0.8,3.2,1.1,4.4c0.3,1,0.4,1.6,0.3,1.6c-0.1,0-0.3-0.5-0.6-1.5c-0.3-1-0.8-2.5-1.3-4.3
			c-1-3.7-2.3-8.8-3.7-14.4c-1.4-5.5-2.6-10.5-3.6-14.4c-0.4-1.7-0.8-3.2-1.1-4.4C617.5,202.5,617.4,201.9,617.5,201.9"/>
		<path id="XMLID_312_" class="st1" d="M630.2,242.9c-0.1-0.2,10.3-3.5,23.1-7.3c12.8-3.8,23.3-6.7,23.3-6.5
			c0.1,0.2-10.3,3.5-23.1,7.3C640.7,240.2,630.3,243.1,630.2,242.9"/>
		<path id="XMLID_311_" class="st1" d="M601.5,294.8c0-0.1,0.6-0.1,1.7-0.1c1.3,0,2.8,0,4.6,0c3.9,0,9.2-0.1,15.1-0.4
			c5.9-0.3,11.2-0.7,15.1-1c1.8-0.2,3.3-0.3,4.6-0.4c1.1-0.1,1.7-0.1,1.7-0.1c0,0.1-0.6,0.2-1.7,0.4c-1.1,0.2-2.6,0.4-4.6,0.6
			c-3.9,0.5-9.2,1-15.1,1.3c-5.9,0.3-11.3,0.3-15.2,0.1c-1.9-0.1-3.5-0.1-4.6-0.2C602.1,295,601.5,294.9,601.5,294.8"/>
		<path id="XMLID_310_" class="st1" d="M581.8,260.3c0,0,0.4,0.4,0.9,1.3c0.5,0.8,1.3,2.1,2.3,3.6c1.9,3.1,4.4,7.3,7.2,12
			c2.8,4.7,5.2,9,7,12.1c0.9,1.6,1.6,2.8,2,3.7c0.5,0.9,0.7,1.4,0.7,1.4c0,0-0.4-0.4-0.9-1.3c-0.5-0.8-1.3-2.1-2.3-3.6
			c-1.9-3.1-4.4-7.3-7.2-12c-2.8-4.7-5.2-9-7-12.1c-0.9-1.6-1.6-2.8-2-3.7C582,260.8,581.7,260.3,581.8,260.3"/>
		<path id="XMLID_309_" class="st1" d="M550.6,302.9c0,0,0.5,0.6,1.2,1.6c0.8,1.2,1.7,2.8,2.9,4.6c2.4,3.9,5.7,9.3,9.3,15.3
			c3.6,6,6.8,11.5,9.1,15.5c1.1,1.9,2,3.5,2.7,4.7c0.6,1.1,0.9,1.8,0.9,1.8c0,0-0.5-0.6-1.2-1.6c-0.8-1.2-1.7-2.8-2.9-4.6
			c-2.4-3.9-5.7-9.3-9.3-15.3c-3.6-6-6.8-11.5-9.1-15.5c-1.1-1.9-2-3.5-2.7-4.7C550.9,303.6,550.5,302.9,550.6,302.9"/>
		<path id="XMLID_308_" class="st1" d="M576.4,345.3c0-0.1,0.8-0.1,2.1-0.2c1.5-0.1,3.5-0.1,5.8-0.2c4.9-0.2,11.7-0.5,19.2-1.1
			c7.5-0.5,14.3-1.2,19.1-1.7c2.3-0.2,4.3-0.4,5.8-0.6c1.4-0.1,2.1-0.2,2.1-0.1c0,0.1-0.7,0.2-2.1,0.4c-1.4,0.2-3.3,0.5-5.8,0.8
			c-4.9,0.7-11.7,1.4-19.2,2c-7.5,0.6-14.3,0.8-19.2,0.9c-2.5,0-4.5,0-5.8,0C577.1,345.3,576.4,345.3,576.4,345.3"/>
		<path id="XMLID_307_" class="st1" d="M628.5,244.6c0-0.2,1.5-0.4,3.3-0.4c0.4,0,0.7,0,1.1,0l-0.4,0.4c0.1-1.3,0.2-2.2,0.4-2.2
			c0.2,0,0.3,0.9,0.4,2.2l0,0.4l-0.4,0c-0.4,0-0.8,0-1.1,0C630,245,628.5,244.9,628.5,244.6"/>
		<path id="XMLID_306_" class="st1" d="M619.6,244.6c0-0.2,1-0.4,2.2-0.4c1.2,0,2.2,0.2,2.2,0.4c0,0.2-1,0.4-2.2,0.4
			C620.6,245,619.6,244.9,619.6,244.6"/>
		<path id="XMLID_305_" class="st1" d="M610.7,244.6c0-0.2,1-0.4,2.2-0.4c1.2,0,2.2,0.2,2.2,0.4c0,0.2-1,0.4-2.2,0.4
			C611.7,245,610.7,244.9,610.7,244.6"/>
		<path id="XMLID_304_" class="st1" d="M601.7,244.6c0-0.2,1-0.4,2.2-0.4c1.2,0,2.2,0.2,2.2,0.4c0,0.2-1,0.4-2.2,0.4
			C602.7,245,601.7,244.9,601.7,244.6"/>
		<path id="XMLID_303_" class="st1" d="M592.8,244.6c0-0.2,1-0.4,2.2-0.4c1.2,0,2.2,0.2,2.2,0.4c0,0.2-1,0.4-2.2,0.4
			C593.8,245,592.8,244.9,592.8,244.6"/>
		<path id="XMLID_302_" class="st1" d="M583.8,244.6c0-0.2,1-0.4,2.2-0.4c1.2,0,2.2,0.2,2.2,0.4c0,0.2-1,0.4-2.2,0.4
			C584.8,245,583.8,244.9,583.8,244.6"/>
		<path id="XMLID_301_" class="st1" d="M574.9,244.6c0-0.2,1-0.4,2.2-0.4c1.2,0,2.2,0.2,2.2,0.4c0,0.2-1,0.4-2.2,0.4
			C575.9,245,574.9,244.9,574.9,244.6"/>
		<path id="XMLID_300_" class="st1" d="M566,244.6c0-0.2,1-0.4,2.2-0.4c1.2,0,2.2,0.2,2.2,0.4c0,0.2-1,0.4-2.2,0.4
			C567,245,566,244.9,566,244.6"/>
		<path id="XMLID_299_" class="st1" d="M557,244.6c0-0.2,1-0.4,2.2-0.4c1.2,0,2.2,0.2,2.2,0.4c0,0.2-1,0.4-2.2,0.4
			C558,245,557,244.9,557,244.6"/>
		<path id="XMLID_298_" class="st1" d="M548.1,244.6c0-0.2,1-0.4,2.2-0.4c1.2,0,2.2,0.2,2.2,0.4c0,0.2-1,0.4-2.2,0.4
			C549.1,245,548.1,244.9,548.1,244.6"/>
		<path id="XMLID_297_" class="st1" d="M539.1,244.6c0-0.2,1-0.4,2.2-0.4c1.2,0,2.2,0.2,2.2,0.4c0,0.2-1,0.4-2.2,0.4
			C540.1,245,539.1,244.9,539.1,244.6"/>
		<path id="XMLID_296_" class="st1" d="M530.2,244.6c0-0.2,1-0.4,2.2-0.4c1.2,0,2.2,0.2,2.2,0.4c0,0.2-1,0.4-2.2,0.4
			C531.2,245,530.2,244.9,530.2,244.6"/>
		<path id="XMLID_295_" class="st1" d="M521.3,244.6c0-0.2,1-0.4,2.2-0.4c1.2,0,2.2,0.2,2.2,0.4c0,0.2-1,0.4-2.2,0.4
			C522.3,245,521.3,244.9,521.3,244.6"/>
		<path id="XMLID_294_" class="st1" d="M512.3,244.6c0-0.2,1-0.4,2.2-0.4c1.2,0,2.2,0.2,2.2,0.4c0,0.2-1,0.4-2.2,0.4
			C513.3,245,512.3,244.9,512.3,244.6"/>
		<path id="XMLID_293_" class="st1" d="M503.4,244.6c0-0.2,1-0.4,2.2-0.4c1.2,0,2.2,0.2,2.2,0.4c0,0.2-1,0.4-2.2,0.4
			C504.4,245,503.4,244.9,503.4,244.6"/>
		<path id="XMLID_292_" class="st1" d="M494.4,244.6c0-0.2,1-0.4,2.2-0.4c1.2,0,2.2,0.2,2.2,0.4c0,0.2-1,0.4-2.2,0.4
			C495.4,245,494.4,244.9,494.4,244.6"/>
		<path id="XMLID_291_" class="st1" d="M485.5,244.6c0-0.2,1-0.4,2.2-0.4c1.2,0,2.2,0.2,2.2,0.4c0,0.2-1,0.4-2.2,0.4
			C486.5,245,485.5,244.9,485.5,244.6"/>
		<path id="XMLID_290_" class="st1" d="M476.6,244.6c0-0.2,1-0.4,2.2-0.4c1.2,0,2.2,0.2,2.2,0.4c0,0.2-1,0.4-2.2,0.4
			C477.6,245,476.6,244.9,476.6,244.6"/>
		<path id="XMLID_289_" class="st1" d="M473.8,238.5c0.2,0,0.4,1,0.4,2.2c0,1.2-0.2,2.2-0.4,2.2c-0.2,0-0.4-1-0.4-2.2
			C473.4,239.5,473.6,238.5,473.8,238.5"/>
		<path id="XMLID_288_" class="st1" d="M473.8,229.6c0.2,0,0.4,1,0.4,2.2c0,1.2-0.2,2.2-0.4,2.2c-0.2,0-0.4-1-0.4-2.2
			C473.4,230.6,473.6,229.6,473.8,229.6"/>
		<path id="XMLID_287_" class="st1" d="M473.8,220.6c0.2,0,0.4,1,0.4,2.2c0,1.2-0.2,2.2-0.4,2.2c-0.2,0-0.4-1-0.4-2.2
			C473.4,221.6,473.6,220.6,473.8,220.6"/>
		<path id="XMLID_286_" class="st1" d="M473.8,211.7c0.2,0,0.4,1,0.4,2.2c0,1.2-0.2,2.2-0.4,2.2c-0.2,0-0.4-1-0.4-2.2
			C473.4,212.7,473.6,211.7,473.8,211.7"/>
		<path id="XMLID_285_" class="st1" d="M473.8,202.7c0.2,0,0.4,1,0.4,2.2c0,1.2-0.2,2.2-0.4,2.2c-0.2,0-0.4-1-0.4-2.2
			C473.4,203.7,473.6,202.7,473.8,202.7"/>
		<path id="XMLID_284_" class="st1" d="M473.8,193.8c0.2,0,0.4,1,0.4,2.2c0,1.2-0.2,2.2-0.4,2.2c-0.2,0-0.4-1-0.4-2.2
			C473.4,194.8,473.6,193.8,473.8,193.8"/>
		<path id="XMLID_283_" class="st1" d="M473.8,184.9c0.2,0,0.4,1,0.4,2.2c0,1.2-0.2,2.2-0.4,2.2c-0.2,0-0.4-1-0.4-2.2
			C473.4,185.9,473.6,184.9,473.8,184.9"/>
		<path id="XMLID_282_" class="st1" d="M473.8,175.9c0.2,0,0.4,1,0.4,2.2c0,1.2-0.2,2.2-0.4,2.2c-0.2,0-0.4-1-0.4-2.2
			C473.4,176.9,473.6,175.9,473.8,175.9"/>
		<path id="XMLID_281_" class="st1" d="M473.8,167c0.2,0,0.4,1,0.4,2.2c0,1.2-0.2,2.2-0.4,2.2c-0.2,0-0.4-1-0.4-2.2
			C473.4,168,473.6,167,473.8,167"/>
		<path id="XMLID_280_" class="st1" d="M473.8,158c0.2,0,0.4,1,0.4,2.2c0,1.2-0.2,2.2-0.4,2.2c-0.2,0-0.4-1-0.4-2.2
			C473.4,159,473.6,158,473.8,158"/>
		<path id="XMLID_279_" class="st1" d="M473.8,149.1c0.2,0,0.4,1,0.4,2.2c0,1.2-0.2,2.2-0.4,2.2c-0.2,0-0.4-1-0.4-2.2
			C473.4,150.1,473.6,149.1,473.8,149.1"/>
		<path id="XMLID_278_" class="st1" d="M473.8,140.2c0.2,0,0.4,1,0.4,2.2c0,1.2-0.2,2.2-0.4,2.2c-0.2,0-0.4-1-0.4-2.2
			C473.4,141.2,473.6,140.2,473.8,140.2"/>
		<path id="XMLID_277_" class="st1" d="M473.8,131.2c0.2,0,0.4,1,0.4,2.2c0,1.2-0.2,2.2-0.4,2.2c-0.2,0-0.4-1-0.4-2.2
			C473.4,132.2,473.6,131.2,473.8,131.2"/>
		<path id="XMLID_276_" class="st1" d="M473.8,122.3c0.2,0,0.4,1,0.4,2.2c0,1.2-0.2,2.2-0.4,2.2c-0.2,0-0.4-1-0.4-2.2
			C473.4,123.3,473.6,122.3,473.8,122.3"/>
		<path id="XMLID_275_" class="st1" d="M473.8,113.3c0.2,0,0.4,1,0.4,2.2c0,1.2-0.2,2.2-0.4,2.2c-0.2,0-0.4-1-0.4-2.2
			C473.4,114.3,473.6,113.3,473.8,113.3"/>
		<path id="XMLID_274_" class="st1" d="M473.8,104.4c0.2,0,0.4,1,0.4,2.2c0,1.2-0.2,2.2-0.4,2.2c-0.2,0-0.4-1-0.4-2.2
			C473.4,105.4,473.6,104.4,473.8,104.4"/>
		<path id="XMLID_273_" class="st1" d="M473.8,95.5c0.2,0,0.4,1,0.4,2.2c0,1.2-0.2,2.2-0.4,2.2c-0.2,0-0.4-1-0.4-2.2
			C473.4,96.5,473.6,95.5,473.8,95.5"/>
		<path id="XMLID_272_" class="st1" d="M473.8,86.5c0.2,0,0.4,1,0.4,2.2c0,1.2-0.2,2.2-0.4,2.2c-0.2,0-0.4-1-0.4-2.2
			C473.4,87.5,473.6,86.5,473.8,86.5"/>
		<path id="XMLID_271_" class="st1" d="M481.6,85.4c0,0.2-1,0.4-2.2,0.4c-1.2,0-2.2-0.2-2.2-0.4c0-0.2,1-0.4,2.2-0.4
			C480.6,85,481.6,85.2,481.6,85.4"/>
		<path id="XMLID_270_" class="st1" d="M490.5,85.4c0,0.2-1,0.4-2.2,0.4c-1.2,0-2.2-0.2-2.2-0.4c0-0.2,1-0.4,2.2-0.4
			C489.5,85,490.5,85.2,490.5,85.4"/>
		<path id="XMLID_269_" class="st1" d="M499.5,85.4c0,0.2-1,0.4-2.2,0.4c-1.2,0-2.2-0.2-2.2-0.4c0-0.2,1-0.4,2.2-0.4
			C498.5,85,499.5,85.2,499.5,85.4"/>
		<path id="XMLID_268_" class="st1" d="M508.4,85.4c0,0.2-1,0.4-2.2,0.4c-1.2,0-2.2-0.2-2.2-0.4c0-0.2,1-0.4,2.2-0.4
			C507.4,85,508.4,85.2,508.4,85.4"/>
		<path id="XMLID_267_" class="st1" d="M517.4,85.4c0,0.2-1,0.4-2.2,0.4c-1.2,0-2.2-0.2-2.2-0.4c0-0.2,1-0.4,2.2-0.4
			C516.4,85,517.4,85.2,517.4,85.4"/>
		<path id="XMLID_266_" class="st1" d="M526.3,85.4c0,0.2-1,0.4-2.2,0.4c-1.2,0-2.2-0.2-2.2-0.4c0-0.2,1-0.4,2.2-0.4
			C525.3,85,526.3,85.2,526.3,85.4"/>
		<path id="XMLID_265_" class="st1" d="M535.2,85.4c0,0.2-1,0.4-2.2,0.4c-1.2,0-2.2-0.2-2.2-0.4c0-0.2,1-0.4,2.2-0.4
			C534.2,85,535.2,85.2,535.2,85.4"/>
		<path id="XMLID_264_" class="st1" d="M544.2,85.4c0,0.2-1,0.4-2.2,0.4c-1.2,0-2.2-0.2-2.2-0.4c0-0.2,1-0.4,2.2-0.4
			C543.2,85,544.2,85.2,544.2,85.4"/>
		<path id="XMLID_263_" class="st1" d="M553.1,85.4c0,0.2-1,0.4-2.2,0.4c-1.2,0-2.2-0.2-2.2-0.4c0-0.2,1-0.4,2.2-0.4
			C552.1,85,553.1,85.2,553.1,85.4"/>
		<path id="XMLID_262_" class="st1" d="M562.1,85.4c0,0.2-1,0.4-2.2,0.4c-1.2,0-2.2-0.2-2.2-0.4c0-0.2,1-0.4,2.2-0.4
			C561.1,85,562.1,85.2,562.1,85.4"/>
		<path id="XMLID_261_" class="st1" d="M571,85.4c0,0.2-1,0.4-2.2,0.4c-1.2,0-2.2-0.2-2.2-0.4c0-0.2,1-0.4,2.2-0.4
			C570,85,571,85.2,571,85.4"/>
		<path id="XMLID_260_" class="st1" d="M579.9,85.4c0,0.2-1,0.4-2.2,0.4c-1.2,0-2.2-0.2-2.2-0.4c0-0.2,1-0.4,2.2-0.4
			C578.9,85,579.9,85.2,579.9,85.4"/>
		<path id="XMLID_259_" class="st1" d="M588.9,85.4c0,0.2-1,0.4-2.2,0.4c-1.2,0-2.2-0.2-2.2-0.4c0-0.2,1-0.4,2.2-0.4
			C587.9,85,588.9,85.2,588.9,85.4"/>
		<path id="XMLID_258_" class="st1" d="M597.8,85.4c0,0.2-1,0.4-2.2,0.4c-1.2,0-2.2-0.2-2.2-0.4c0-0.2,1-0.4,2.2-0.4
			C596.8,85,597.8,85.2,597.8,85.4"/>
		<path id="XMLID_257_" class="st1" d="M606.8,85.4c0,0.2-1,0.4-2.2,0.4c-1.2,0-2.2-0.2-2.2-0.4c0-0.2,1-0.4,2.2-0.4
			C605.8,85,606.8,85.2,606.8,85.4"/>
		<path id="XMLID_256_" class="st1" d="M615.7,85.4c0,0.2-1,0.4-2.2,0.4c-1.2,0-2.2-0.2-2.2-0.4c0-0.2,1-0.4,2.2-0.4
			C614.7,85,615.7,85.2,615.7,85.4"/>
		<path id="XMLID_255_" class="st1" d="M624.6,85.4c0,0.2-1,0.4-2.2,0.4c-1.2,0-2.2-0.2-2.2-0.4c0-0.2,1-0.4,2.2-0.4
			C623.6,85,624.6,85.2,624.6,85.4"/>
		<path id="XMLID_254_" class="st1" d="M633,86c-0.1,0-0.2-0.2-0.3-0.6l0.3,0.3c-0.4,0.1-1,0.1-1.7,0.1c-1.2,0-2.2-0.2-2.2-0.4
			c0-0.2,1-0.4,2.2-0.4c0.7,0,1.3,0.1,1.7,0.1l0.3,0.1l0,0.2C633.2,85.8,633.1,86,633,86"/>
		<path id="XMLID_253_" class="st1" d="M633,94.9c-0.2,0-0.4-1-0.4-2.2c0-1.2,0.2-2.2,0.4-2.2c0.2,0,0.4,1,0.4,2.2
			C633.4,93.9,633.2,94.9,633,94.9"/>
		<path id="XMLID_252_" class="st1" d="M633,103.9c-0.2,0-0.4-1-0.4-2.2c0-1.2,0.2-2.2,0.4-2.2c0.2,0,0.4,1,0.4,2.2
			C633.4,102.9,633.2,103.9,633,103.9"/>
		<path id="XMLID_251_" class="st1" d="M633,112.8c-0.2,0-0.4-1-0.4-2.2c0-1.2,0.2-2.2,0.4-2.2c0.2,0,0.4,1,0.4,2.2
			C633.4,111.8,633.2,112.8,633,112.8"/>
		<path id="XMLID_250_" class="st1" d="M633,121.7c-0.2,0-0.4-1-0.4-2.2c0-1.2,0.2-2.2,0.4-2.2c0.2,0,0.4,1,0.4,2.2
			C633.4,120.7,633.2,121.7,633,121.7"/>
		<path id="XMLID_249_" class="st1" d="M633,130.7c-0.2,0-0.4-1-0.4-2.2c0-1.2,0.2-2.2,0.4-2.2c0.2,0,0.4,1,0.4,2.2
			C633.4,129.7,633.2,130.7,633,130.7"/>
		<path id="XMLID_248_" class="st1" d="M633,139.6c-0.2,0-0.4-1-0.4-2.2c0-1.2,0.2-2.2,0.4-2.2c0.2,0,0.4,1,0.4,2.2
			C633.4,138.6,633.2,139.6,633,139.6"/>
		<path id="XMLID_247_" class="st1" d="M633,148.6c-0.2,0-0.4-1-0.4-2.2c0-1.2,0.2-2.2,0.4-2.2c0.2,0,0.4,1,0.4,2.2
			C633.4,147.6,633.2,148.6,633,148.6"/>
		<path id="XMLID_246_" class="st1" d="M633,157.5c-0.2,0-0.4-1-0.4-2.2c0-1.2,0.2-2.2,0.4-2.2c0.2,0,0.4,1,0.4,2.2
			C633.4,156.5,633.2,157.5,633,157.5"/>
		<path id="XMLID_245_" class="st1" d="M633,166.4c-0.2,0-0.4-1-0.4-2.2c0-1.2,0.2-2.2,0.4-2.2c0.2,0,0.4,1,0.4,2.2
			C633.4,165.4,633.2,166.4,633,166.4"/>
		<path id="XMLID_244_" class="st1" d="M633,175.4c-0.2,0-0.4-1-0.4-2.2c0-1.2,0.2-2.2,0.4-2.2c0.2,0,0.4,1,0.4,2.2
			C633.4,174.4,633.2,175.4,633,175.4"/>
		<path id="XMLID_243_" class="st1" d="M633,184.3c-0.2,0-0.4-1-0.4-2.2c0-1.2,0.2-2.2,0.4-2.2c0.2,0,0.4,1,0.4,2.2
			C633.4,183.3,633.2,184.3,633,184.3"/>
		<path id="XMLID_242_" class="st1" d="M633,193.3c-0.2,0-0.4-1-0.4-2.2c0-1.2,0.2-2.2,0.4-2.2c0.2,0,0.4,1,0.4,2.2
			C633.4,192.3,633.2,193.3,633,193.3"/>
		<path id="XMLID_241_" class="st1" d="M633,202.2c-0.2,0-0.4-1-0.4-2.2c0-1.2,0.2-2.2,0.4-2.2c0.2,0,0.4,1,0.4,2.2
			C633.4,201.2,633.2,202.2,633,202.2"/>
		<path id="XMLID_240_" class="st1" d="M633,211.1c-0.2,0-0.4-1-0.4-2.2c0-1.2,0.2-2.2,0.4-2.2c0.2,0,0.4,1,0.4,2.2
			C633.4,210.1,633.2,211.1,633,211.1"/>
		<path id="XMLID_239_" class="st1" d="M633,220.1c-0.2,0-0.4-1-0.4-2.2c0-1.2,0.2-2.2,0.4-2.2c0.2,0,0.4,1,0.4,2.2
			C633.4,219.1,633.2,220.1,633,220.1"/>
		<path id="XMLID_238_" class="st1" d="M633,229c-0.2,0-0.4-1-0.4-2.2c0-1.2,0.2-2.2,0.4-2.2c0.2,0,0.4,1,0.4,2.2
			C633.4,228,633.2,229,633,229"/>
		<path id="XMLID_237_" class="st1" d="M633,238c-0.2,0-0.4-1-0.4-2.2c0-1.2,0.2-2.2,0.4-2.2c0.2,0,0.4,1,0.4,2.2
			C633.4,237,633.2,238,633,238"/>
		<rect id="XMLID_236_" x="627.1" y="237.1" class="st1" width="11.8" height="11.8"/>
		<rect id="XMLID_235_" x="467.9" y="238.7" class="st1" width="11.8" height="11.8"/>
		<rect id="XMLID_234_" x="627.1" y="78.4" class="st1" width="11.8" height="11.8"/>
		<rect id="XMLID_233_" x="467.9" y="79.5" class="st1" width="11.8" height="11.8"/>
		<path class="st2" d="M73.5,171.4c1-1.4,2.3-2.6,3.6-3.7l-0.9-4.7l7.2-3.1l2.8,3.9c1.7-0.2,3.4-0.3,5.1-0.1l2.7-3.9l7.3,2.9
			l-0.8,4.7c1.4,1,2.6,2.3,3.7,3.6l4.7-0.9l3.1,7.2l-3.9,2.8c0.2,1.7,0.3,3.4,0.1,5.1l3.9,2.7l-2.9,7.3l-4.7-0.8
			c-1,1.4-2.3,2.6-3.6,3.7l0.9,4.7l-7.2,3.1l-2.8-3.9c-1.7,0.2-3.4,0.3-5.1,0.1l-2.7,3.9l-7.3-2.9l0.8-4.7c-1.4-1-2.6-2.3-3.7-3.6
			l-4.7,0.9l-3.1-7.2l3.9-2.8c-0.2-1.7-0.3-3.4-0.1-5.1l-3.9-2.7l2.9-7.3L73.5,171.4z M81.3,179.5c-1.7,4.3,0.4,9.2,4.7,11
			c4.3,1.7,9.2-0.4,11-4.7c1.7-4.3-0.4-9.2-4.7-11C88,173.1,83.1,175.2,81.3,179.5"/>
		<path class="st3" d="M124.3,220.7c3.6-4.9,7.9-9.2,12.6-12.9l-3-16.4l25.4-10.8l9.8,13.5c5.9-0.9,11.9-0.9,18-0.2l9.5-13.7
			l25.6,10.3l-2.6,16.5c4.9,3.7,9.2,7.9,12.9,12.6l16.4-3l10.8,25.4l-13.5,9.8c0.9,5.9,0.9,11.9,0.2,18l13.7,9.5l-10.3,25.6
			l-16.5-2.6c-3.7,4.9-7.9,9.2-12.6,12.9l3,16.4l-25.4,10.8l-9.8-13.5c-5.9,0.9-11.9,0.9-18,0.2l-9.5,13.7l-25.6-10.3l2.6-16.5
			c-4.9-3.7-9.2-7.9-12.9-12.6l-16.4,3L97.9,281l13.5-9.8c-0.9-5.9-0.9-11.9-0.2-18l-13.7-9.5l10.3-25.6L124.3,220.7z M151.8,249.3
			c-6.1,15.2,1.3,32.4,16.4,38.5c15.2,6.1,32.4-1.3,38.5-16.4c6.1-15.2-1.3-32.4-16.4-38.5C175.1,226.7,157.9,234.1,151.8,249.3"/>
		<path class="st1" d="M18.9,270.2c1.8-2.4,3.9-4.5,6.2-6.3l-1.5-8.1l12.5-5.3l4.8,6.7c2.9-0.4,5.9-0.5,8.9-0.1l4.7-6.8l12.6,5.1
			l-1.3,8.1c2.4,1.8,4.5,3.9,6.3,6.2l8.1-1.5l5.3,12.5l-6.7,4.8c0.4,2.9,0.5,5.9,0.1,8.9l6.8,4.7l-5.1,12.6l-8.1-1.3
			c-1.8,2.4-3.9,4.5-6.2,6.3l1.5,8.1l-12.5,5.3l-4.8-6.7c-2.9,0.4-5.9,0.5-8.9,0.1l-4.7,6.8l-12.6-5.1l1.3-8.1
			c-2.4-1.8-4.5-3.9-6.3-6.2l-8.1,1.5l-5.3-12.5l6.7-4.8c-0.4-2.9-0.5-5.9-0.1-8.9l-6.8-4.7l5.1-12.6L18.9,270.2z M32.4,284.3
			c-3,7.5,0.6,16,8.1,19c7.5,3,16-0.6,19-8.1c3-7.5-0.6-16-8.1-19C43.9,273.2,35.4,276.8,32.4,284.3"/>
		<path id="XMLID_226_" class="st1" d="M32.4,284.3c0,0,0.3-1.3,1.6-3.2c1.3-1.9,3.9-4.5,8-5.7c2-0.6,4.4-0.8,6.9-0.3
			c2.4,0.5,5,1.6,7.1,3.5c1.1,0.9,2,2,2.8,3.3c0.8,1.2,1.4,2.6,1.8,4.1c0.8,3,0.6,6.3-0.6,9.3c-1.2,3-3.4,5.6-6,7.1
			c-1.3,0.8-2.7,1.4-4.1,1.8c-1.4,0.4-2.9,0.5-4.3,0.5c-2.8-0.1-5.4-1-7.5-2.4c-2.1-1.3-3.7-3.1-4.7-5c-2.1-3.7-2.2-7.3-1.8-9.6
			C31.8,285.4,32.4,284.3,32.4,284.3c0.1,0-0.5,1.2-0.7,3.5c-0.3,2.2-0.1,5.7,2,9.3c1.1,1.7,2.6,3.4,4.6,4.7c2,1.2,4.5,2.1,7.2,2.2
			c1.3,0.1,2.7-0.1,4.1-0.5c1.4-0.3,2.7-0.9,3.9-1.7c2.5-1.5,4.5-3.9,5.7-6.7c1.1-2.9,1.3-6,0.6-8.8c-0.3-1.4-0.9-2.7-1.7-3.9
			c-0.7-1.2-1.6-2.3-2.6-3.1c-2-1.8-4.4-2.9-6.7-3.4c-2.3-0.5-4.6-0.3-6.6,0.2c-4,1.1-6.5,3.5-7.9,5.3
			C33,283.1,32.5,284.3,32.4,284.3"/>
		<path id="XMLID_225_" class="st1" d="M18.9,270.2c0,0-0.2,0-0.5-0.1c-0.4-0.1-0.9-0.1-1.5-0.2c-1.4-0.2-3.4-0.5-6.1-0.9l0.1-0.1
			c-1.3,3.2-3,7.5-5,12.6l-0.1-0.3c2.1,1.4,4.3,3,6.8,4.6l0.1,0.1l0,0.1c-0.3,2.7-0.3,5.7,0.1,8.8l0,0.2l-0.1,0.1
			c-2.1,1.5-4.3,3.1-6.6,4.8l0.1-0.4c1.7,3.9,3.5,8.1,5.4,12.5l-0.4-0.2c2.5-0.5,5.3-1,8.1-1.5l0.2,0l0.1,0.2
			c1.7,2.2,3.8,4.3,6.3,6.1l0.2,0.1l0,0.2c-0.4,2.5-0.8,5.3-1.3,8.1l-0.2-0.4c4,1.6,8.2,3.3,12.6,5.1l-0.5,0.1
			c1.5-2.1,3-4.4,4.7-6.8l0.1-0.2l0.2,0c2.7,0.3,5.7,0.3,8.8-0.1l0.2,0l0.1,0.2c1.5,2.1,3.2,4.4,4.8,6.7l-0.5-0.1
			c4-1.7,8.2-3.5,12.5-5.3l-0.2,0.5c-0.5-2.6-1-5.3-1.5-8.1l0-0.2l0.2-0.2c2.2-1.7,4.3-3.8,6.1-6.2l0,0l0.2-0.2l0.2,0
			c2.7,0.4,5.4,0.9,8.1,1.3l-0.5,0.3c1.7-4.3,3.4-8.5,5.1-12.6l0.1,0.5c-2.3-1.6-4.5-3.1-6.8-4.7l-0.2-0.1l0-0.2
			c0.4-2.9,0.3-5.9-0.1-8.8l0-0.2l0.2-0.1c2.3-1.6,4.5-3.2,6.7-4.8l-0.1,0.5c-1.8-4.3-3.6-8.4-5.3-12.5l0.4,0.2
			c-2.7,0.5-5.4,1-8.1,1.5l-0.2,0l-0.1-0.2c-1.8-2.4-4-4.4-6.3-6.1l-0.2-0.1l0-0.2c0.5-2.8,0.9-5.5,1.3-8.1l0.2,0.4
			c-4.4-1.8-8.6-3.5-12.6-5.1l0.4-0.1c-1.6,2.4-3.2,4.6-4.7,6.7l-0.1,0.1l-0.2,0c-3.1-0.4-6-0.3-8.8,0.1l-0.2,0l-0.1-0.1
			c-1.7-2.4-3.3-4.6-4.8-6.7l0.3,0.1c-4.9,2-9,3.8-12.5,5.3l0.1-0.2c0.6,3.2,1,5.9,1.4,8.1l0,0.1l-0.1,0c-2.4,1.8-3.9,3.5-4.9,4.6
			c-0.5,0.5-0.8,1-1.1,1.3C19,270.1,18.9,270.3,18.9,270.2c0,0,0.1-0.2,0.3-0.5c0.2-0.3,0.5-0.7,1-1.3c0.9-1.1,2.4-2.8,4.8-4.7
			l0,0.1c-0.4-2.2-0.9-4.8-1.5-8.1l0-0.1l0.1-0.1c3.5-1.5,7.6-3.3,12.5-5.4l0.2-0.1l0.1,0.2c1.5,2.1,3.1,4.2,4.8,6.6l-0.3-0.1
			c2.8-0.4,5.8-0.5,8.9-0.1l-0.3,0.1c1.5-2.2,3-4.4,4.7-6.8l0.1-0.2l0.2,0.1c4,1.6,8.2,3.3,12.6,5l0.3,0.1l0,0.3
			c-0.4,2.6-0.8,5.3-1.3,8.1l-0.1-0.3c2.3,1.7,4.5,3.9,6.4,6.3l-0.4-0.1c2.6-0.5,5.3-1,8.1-1.5l0.3-0.1l0.1,0.3
			c1.7,4.1,3.5,8.2,5.3,12.5l0.1,0.3l-0.3,0.2c-2.2,1.6-4.4,3.2-6.7,4.8l0.2-0.4c0.4,2.9,0.5,6,0.1,9l-0.2-0.4
			c2.2,1.5,4.5,3.1,6.8,4.7l0.3,0.2l-0.1,0.3c-1.7,4.1-3.4,8.4-5.1,12.6l-0.1,0.3l-0.3-0.1c-2.7-0.4-5.4-0.9-8.1-1.3l0.4-0.2l0,0
			c-1.8,2.5-4,4.7-6.3,6.4l0.2-0.4c0.5,2.8,1,5.5,1.5,8.1l0.1,0.3l-0.3,0.1c-4.3,1.8-8.5,3.6-12.5,5.3l-0.3,0.1l-0.2-0.3
			c-1.7-2.3-3.3-4.6-4.8-6.7l0.4,0.2c-3.1,0.4-6.2,0.4-9,0.1l0.4-0.2c-1.6,2.3-3.2,4.6-4.7,6.8l-0.2,0.3l-0.3-0.1
			c-4.4-1.8-8.6-3.5-12.6-5.1l-0.3-0.1l0-0.3c0.5-2.8,0.9-5.6,1.3-8.1l0.1,0.3c-2.5-1.9-4.7-4.1-6.4-6.3l0.3,0.1
			c-2.8,0.5-5.6,1-8.1,1.5l-0.3,0l-0.1-0.2c-1.9-4.4-3.6-8.6-5.3-12.5l-0.1-0.2l0.2-0.1c2.3-1.7,4.6-3.3,6.7-4.8l-0.1,0.3
			c-0.4-3.1-0.4-6.1-0.1-8.9l0.1,0.2c-2.4-1.7-4.7-3.3-6.7-4.7l-0.1-0.1l0.1-0.2c2.1-5.1,3.8-9.4,5.1-12.6l0-0.1l0.1,0
			c2.6,0.4,4.6,0.8,6,1c0.7,0.1,1.2,0.2,1.6,0.3C18.7,270.2,18.9,270.2,18.9,270.2"/>
		<path id="XMLID_224_" class="st0" d="M482.9,604.2c-0.4,1.3,14.9,59.6,14.9,59.6l10.5-2.2l-14.5-57.4H482.9z"/>
		<polygon id="XMLID_223_" class="st4" points="564.4,595.9 543.3,663.8 555.6,663.8 575.8,600.7 		"/>
		<polygon id="XMLID_222_" class="st0" points="583.7,585.4 559.5,663.8 571.8,663.8 595,590.2 		"/>
		<polygon id="XMLID_221_" class="st1" points="490.3,659 502.6,701.5 564.4,701.5 575.8,659 		"/>
		<path id="XMLID_220_" class="st1" d="M522.2,659c0,0-0.1-0.1-0.1-0.4c-0.1-0.3-0.2-0.8-0.3-1.3c-0.3-1.2-0.7-2.9-1.2-5
			c-1-4.4-2.5-10.7-4.2-18.6c-3.5-15.8-8.4-37.6-13.9-61.9l0.4,0.3c-1.7,0-3.6,0-5.5,0c-1.8,0-3.7,0-5.4,0l0.4-0.5
			c5.5,24.4,10.4,46.2,14,62c1.7,7.8,3.1,14.2,4.1,18.6c0.5,2.2,0.8,3.8,1.1,5.1c0.1,0.5,0.2,1,0.3,1.3c0.1,0.3,0.1,0.5,0.1,0.5
			c0,0-0.1-0.1-0.1-0.4c-0.1-0.3-0.2-0.8-0.3-1.3c-0.3-1.2-0.7-2.9-1.2-5c-1-4.4-2.5-10.7-4.3-18.6c-3.6-15.8-8.6-37.6-14.2-61.9
			l-0.1-0.5h0.5h5.4h5.5h0.3l0.1,0.3c5.4,24.4,10.2,46.2,13.6,62c1.7,7.8,3.1,14.2,4,18.6c0.4,2.2,0.8,3.8,1,5.1
			c0.1,0.5,0.2,1,0.3,1.3C522.2,658.8,522.2,659,522.2,659"/>
	</g>
	<g>
		<path id="XMLID_219_" class="st5" d="M797.1,701.6c0,0.2-177.4,0.4-396.2,0.4c-218.9,0-396.2-0.2-396.2-0.4s177.4-0.4,396.2-0.4
			C619.7,701.2,797.1,701.3,797.1,701.6"/>
	</g>
	<g>
		<path id="XMLID_218_" class="st6" d="M374.3,657.9c-5.1-2.6-11.1-2.9-16.7-1.9c-3,0.5-6.2,1.4-8.2,3.7c-2,2.3-2.4,6.3,0,8.2
			c1.4,1.2,3.4,1.3,5.2,1.3c4.4-0.1,9.3-0.9,12.9,1.7c2,1.5,3.4,4,5.8,4.7c2.4,0.7,5-0.7,6.2-2.8c1.2-2.1,1.3-4.8,0.7-7.2
			C380.1,665.7,379.5,660.5,374.3,657.9"/>
		<path id="XMLID_217_" class="st6" d="M385.8,635.3c-3.1,4.5-9.1,3-11.9,0.3c-2.8-2.7-4-6.6-5.1-10.4c-2.5-8.5-5.1-17.5-3.3-26.2
			c0.5-2.6,1.5-5.2,3.3-7.2c1.8-1.9,4.6-3.1,7.2-2.4c3,0.8,5,3.8,6.3,6.6c4.1,8.3,6.3,17.6,6.4,26.8
			C388.7,627.2,388.2,631.7,385.8,635.3"/>
		<path id="XMLID_216_" class="st6" d="M394.4,641.6c-3.4-4-4.1-9.8-2.6-14.8c1.5-5,4.8-9.3,8.7-12.8c4.6-4.1,9.9-7.3,15.7-9.4
			c2.3-0.8,4.7-1.5,7.1-1.3c2.4,0.2,4.8,1.4,6,3.6c1.7,3.2,0.1,7-1.6,10.1c-3,5.5-6.4,10.8-10.3,15.8c-3.1,4-6.6,8-11.3,9.8
			c-4.7,1.8-9.6,1.7-12.2-1.6"/>
		<path id="XMLID_215_" class="st5" d="M386.5,702.3c-0.1,0-0.2-0.7-0.3-2c-0.2-1.5-0.3-3.3-0.6-5.5c-0.3-2.3-0.6-5.1-1.3-8.1
			c-0.7-3-1.7-6.2-3-9.5c-1.4-3.3-3-6.2-4.9-8.6c-1.9-2.4-4.1-4.1-6.2-5.1c-2.1-1-3.9-1.4-5.2-1.6c-1.3-0.1-2-0.2-2-0.3
			c0-0.1,0.7-0.1,2,0c1.3,0.1,3.2,0.4,5.4,1.4c2.2,1,4.5,2.7,6.5,5.1c2,2.4,3.7,5.4,5.1,8.8c1.3,3.3,2.3,6.6,3,9.7
			c0.6,3,0.9,5.8,1.1,8.2c0.2,2.3,0.3,4.2,0.3,5.5C386.5,701.5,386.5,702.3,386.5,702.3"/>
		<path id="XMLID_214_" class="st5" d="M386.1,698c0,0,0-0.3-0.1-0.9c0-0.7,0-1.6,0-2.7c0-2.3,0-5.7-0.2-9.8
			c-0.3-8.3-1-19.8-2.5-32.3c-1.5-12.6-3.4-23.9-5.1-32c-0.4-2-0.8-3.9-1.2-5.5c-0.4-1.6-0.7-3-1-4.1c-0.3-1.1-0.5-1.9-0.6-2.6
			c-0.1-0.6-0.2-0.9-0.2-0.9c0,0,0.1,0.3,0.3,0.9c0.2,0.7,0.5,1.5,0.8,2.6c0.4,1.1,0.7,2.5,1.1,4.1c0.4,1.6,0.9,3.4,1.3,5.5
			c1.9,8.1,3.9,19.4,5.4,32.1c1.5,12.6,2.2,24.1,2.3,32.4c0.1,4.2,0,7.5-0.1,9.9c-0.1,1.1-0.1,2-0.1,2.7
			C386.1,697.7,386.1,698,386.1,698"/>
		<path id="XMLID_213_" class="st5" d="M385.9,675.9c-0.1,0-0.1-1,0-2.8c0.1-1.8,0.3-4.4,0.8-7.6c0.5-3.2,1.2-6.9,2.4-11.1
			c1.1-4.1,2.6-8.6,4.5-13.1c3.8-9.1,8.9-16.6,13.4-21.2c1.1-1.2,2.2-2.1,3.2-3c0.5-0.4,0.9-0.8,1.4-1.2c0.4-0.3,0.9-0.6,1.2-0.9
			c1.5-1,2.3-1.6,2.3-1.5c0.1,0.2-3.3,2.2-7.7,6.9c-4.3,4.7-9.3,12.1-13.1,21.1c-1.9,4.5-3.4,8.9-4.6,13c-1.2,4.1-2,7.8-2.6,10.9
			c-0.6,3.2-0.9,5.7-1.1,7.5C386,674.9,385.9,675.9,385.9,675.9"/>
	</g>
	<rect id="XMLID_212_" x="215.1" y="128.4" class="st7" width="354.4" height="372.8"/>
	<g>
		<path id="XMLID_211_" class="st5" d="M569.5,501.2c0-2.9-0.1-149.7-0.3-372.8l0.3,0.3c-103.5,0-225,0-354.4,0h0l0.4-0.4
			c0,136.9,0,264.9-0.1,372.8l-0.3-0.3C428,501,566.7,501.2,569.5,501.2c-2.8,0-141.6,0.1-354.4,0.3l-0.3,0v-0.3
			c0-107.9,0-235.9-0.1-372.8V128h0.4h0c129.4,0,250.9,0,354.4,0h0.3v0.3C569.7,351.5,569.5,498.3,569.5,501.2"/>
		<path id="XMLID_210_" class="st5" d="M363,393.9c0,0.2-1.7,0.3-3.7,0.3c-2.1-0.1-3.7-0.3-3.7-0.5c0-0.2,1.7-0.3,3.7-0.3
			C361.4,393.4,363.1,393.7,363,393.9"/>
		<path id="XMLID_209_" class="st5" d="M377.9,394.4c0,0.2-1.7,0.3-3.7,0.3c-2.1-0.1-3.7-0.3-3.7-0.5c0-0.2,1.7-0.3,3.7-0.3
			C376.3,393.9,377.9,394.2,377.9,394.4"/>
		<path id="XMLID_208_" class="st5" d="M392.8,394.9c0,0.2-1.7,0.3-3.7,0.3c-2.1-0.1-3.7-0.3-3.7-0.5c0-0.2,1.7-0.3,3.7-0.3
			S392.8,394.6,392.8,394.9"/>
		<path id="XMLID_207_" class="st5" d="M407.7,395.3c0,0.2-1.7,0.3-3.7,0.3c-2.1-0.1-3.7-0.3-3.7-0.5c0-0.2,1.7-0.3,3.7-0.3
			C406.1,394.9,407.7,395.1,407.7,395.3"/>
		<path id="XMLID_206_" class="st5" d="M422.6,395.8c0,0.2-1.7,0.3-3.7,0.3c-2.1-0.1-3.7-0.3-3.7-0.5c0-0.2,1.7-0.3,3.7-0.3
			C421,395.4,422.6,395.6,422.6,395.8"/>
		<path id="XMLID_205_" class="st5" d="M435.7,394.1c0.2,0,0.1,0.9,0,2.2l0,0.3l-0.3,0c-0.5,0-1,0-1.6,0c-2.1-0.1-3.7-0.3-3.7-0.5
			c0-0.2,1.7-0.3,3.7-0.3c0.6,0,1.1,0,1.5,0.1l-0.4,0.3C435.3,394.9,435.5,394.1,435.7,394.1"/>
		<path id="XMLID_204_" class="st5" d="M439.1,379.6c0.2,0.1,0,1.7-0.6,3.7c-0.5,2-1.1,3.6-1.3,3.5c-0.2,0,0-1.7,0.6-3.7
			C438.3,381.1,438.9,379.6,439.1,379.6"/>
		<path id="XMLID_203_" class="st5" d="M443.6,365.4c0.2,0.1-0.2,1.7-0.8,3.7c-0.7,1.9-1.4,3.5-1.6,3.4c-0.2-0.1,0.2-1.7,0.8-3.7
			C442.7,366.9,443.4,365.4,443.6,365.4"/>
		<path id="XMLID_202_" class="st5" d="M449.1,351.6c0.2,0.1-0.3,1.7-1.1,3.6c-0.8,1.9-1.6,3.4-1.8,3.3c-0.2-0.1,0.3-1.7,1.1-3.6
			C448.1,353,448.9,351.5,449.1,351.6"/>
		<path id="XMLID_201_" class="st5" d="M455.5,338.1c0.2,0.1-0.4,1.7-1.3,3.5c-0.9,1.8-1.8,3.3-2,3.2c-0.2-0.1,0.4-1.7,1.3-3.5
			C454.4,339.4,455.3,338,455.5,338.1"/>
		<path id="XMLID_200_" class="st5" d="M462.8,325.1c0.2,0.1-0.5,1.6-1.5,3.4c-1,1.8-2,3.1-2.2,3c-0.2-0.1,0.5-1.6,1.5-3.4
			C461.6,326.4,462.6,325,462.8,325.1"/>
		<path id="XMLID_199_" class="st5" d="M470.7,312.5c0.2,0.1-0.5,1.6-1.6,3.4c-1.1,1.8-2.1,3.1-2.3,3c-0.2-0.1,0.5-1.6,1.6-3.4
			C469.5,313.7,470.5,312.4,470.7,312.5"/>
		<path id="XMLID_198_" class="st5" d="M477.6,299.3c0.2,0.1-0.4,1.7-1.3,3.5c-0.9,1.9-1.8,3.3-2,3.2c-0.2-0.1,0.4-1.7,1.3-3.5
			C476.5,300.6,477.4,299.2,477.6,299.3"/>
		<path id="XMLID_197_" class="st5" d="M483,285.4c0.2,0.1-0.2,1.7-0.9,3.6c-0.7,1.9-1.4,3.5-1.6,3.4c-0.2-0.1,0.2-1.7,0.9-3.6
			C482.1,286.9,482.8,285.4,483,285.4"/>
		<path id="XMLID_196_" class="st5" d="M486.6,271c0.2,0,0,1.7-0.4,3.7c-0.4,2-0.9,3.6-1.1,3.6c-0.2-0.1,0-1.7,0.4-3.7
			C485.9,272.5,486.4,270.9,486.6,271"/>
		<path id="XMLID_195_" class="st5" d="M487.7,256.1c0.2,0,0.3,1.7,0.3,3.7c-0.1,2.1-0.3,3.7-0.5,3.7c-0.2,0-0.3-1.7-0.3-3.7
			C487.3,257.8,487.5,256.1,487.7,256.1"/>
		<path id="XMLID_194_" class="st5" d="M486,241.3c0.2,0,0.7,1.6,1,3.6c0.3,2,0.4,3.7,0.2,3.7c-0.2,0-0.7-1.6-1-3.6
			C485.9,243,485.8,241.4,486,241.3"/>
		<path id="XMLID_193_" class="st5" d="M481.5,227.2c0.2-0.1,0.9,1.4,1.7,3.4c0.7,1.9,1.1,3.6,0.9,3.6c-0.2,0.1-0.9-1.4-1.7-3.4
			C481.7,228.9,481.3,227.3,481.5,227.2"/>
		<path id="XMLID_192_" class="st5" d="M474.8,213.9c0.2-0.1,1.1,1.3,2.1,3.1c1,1.8,1.7,3.4,1.5,3.4c-0.2,0.1-1.1-1.3-2.1-3.1
			C475.2,215.5,474.6,214,474.8,213.9"/>
		<path id="XMLID_191_" class="st5" d="M466.1,201.8c0.2-0.1,1.3,1.1,2.6,2.7c1.3,1.6,2.2,3,2,3.2c-0.2,0.1-1.3-1.1-2.6-2.7
			C466.8,203.4,465.9,202,466.1,201.8"/>
		<path id="XMLID_190_" class="st5" d="M455.4,191.5c0.1-0.2,1.5,0.8,3.1,2.2c1.6,1.4,2.7,2.6,2.5,2.8c-0.2,0.2-1.5-0.8-3.1-2.2
			C456.4,192.9,455.2,191.6,455.4,191.5"/>
		<path id="XMLID_189_" class="st5" d="M442.9,183.3c0.1-0.2,1.6,0.5,3.4,1.6c1.8,1,3.1,2,3,2.2c-0.1,0.2-1.6-0.5-3.4-1.6
			C444.2,184.5,442.8,183.5,442.9,183.3"/>
		<path id="XMLID_188_" class="st5" d="M429.2,177.6c0.1-0.2,1.7,0.2,3.6,0.9c1.9,0.7,3.5,1.4,3.4,1.6c-0.1,0.2-1.7-0.2-3.6-0.9
			C430.6,178.6,429.1,177.8,429.2,177.6"/>
		<path id="XMLID_187_" class="st5" d="M414.6,174.4c0-0.2,1.7-0.1,3.7,0.3c2,0.4,3.6,0.8,3.6,1.1c0,0.2-1.7,0.1-3.7-0.3
			C416.2,175,414.6,174.6,414.6,174.4"/>
		<path id="XMLID_186_" class="st5" d="M399.8,173.2c0-0.2,1.7-0.3,3.7-0.2c2.1,0.1,3.7,0.3,3.7,0.5c0,0.2-1.7,0.3-3.7,0.2
			C401.5,173.7,399.8,173.4,399.8,173.2"/>
		<path id="XMLID_185_" class="st5" d="M384.9,173.9c0-0.2,1.6-0.5,3.7-0.7c2.1-0.2,3.7-0.1,3.7,0.1c0,0.2-1.6,0.5-3.7,0.7
			C386.6,174.2,385,174.1,384.9,173.9"/>
		<path id="XMLID_184_" class="st5" d="M370.3,176.7c-0.1-0.2,1.5-0.7,3.5-1.2c2-0.5,3.7-0.7,3.7-0.4c0,0.2-1.5,0.8-3.5,1.2
			C372,176.7,370.4,176.9,370.3,176.7"/>
		<path id="XMLID_183_" class="st5" d="M356.3,181.6c-0.1-0.2,1.4-1,3.3-1.7c1.9-0.8,3.5-1.2,3.6-1c0.1,0.2-1.4,1-3.3,1.7
			C358,181.4,356.4,181.8,356.3,181.6"/>
		<path id="XMLID_182_" class="st5" d="M343.2,188.8c-0.1-0.2,1.2-1.2,3-2.3c1.8-1.1,3.3-1.8,3.4-1.6c0.1,0.2-1.2,1.2-3,2.3
			C344.8,188.2,343.3,188.9,343.2,188.8"/>
		<path id="XMLID_181_" class="st5" d="M331.7,198.2c-0.2-0.2,1-1.4,2.5-2.8c1.5-1.4,2.9-2.4,3-2.2c0.1,0.2-1,1.4-2.5,2.8
			C333.2,197.4,331.9,198.4,331.7,198.2"/>
		<path id="XMLID_180_" class="st5" d="M322.4,209.8c-0.2-0.1,0.7-1.6,1.9-3.2c1.2-1.7,2.3-2.9,2.5-2.8c0.2,0.1-0.7,1.6-1.9,3.2
			C323.7,208.6,322.5,209.9,322.4,209.8"/>
		<path id="XMLID_179_" class="st5" d="M315.4,222.9c-0.2-0.1,0.3-1.7,1.2-3.6c0.9-1.9,1.8-3.3,2-3.2c0.2,0.1-0.4,1.7-1.3,3.5
			C316.4,221.5,315.6,223,315.4,222.9"/>
		<path id="XMLID_178_" class="st5" d="M310.4,237c-0.2-0.1,0.1-1.7,0.8-3.7c0.6-2,1.3-3.5,1.5-3.4c0.2,0.1-0.2,1.7-0.8,3.7
			C311.3,235.5,310.6,237,310.4,237"/>
		<path id="XMLID_177_" class="st8" d="M389.7,393.7c-3.8-4.5-7.6-9.1-10.3-14.3c-2.7-5.2-4.1-11.3-2.9-17.1
			c1.3-5.8,5.6-11,11.4-12.3c4.4-1,9.4,0.4,13.3-2c2.8-1.7,4.3-4.9,4.9-8.1c0.6-3.2,0.6-6.5,1.2-9.7c2.2-11.8,13.2-20.8,25.1-22.4
			c11.9-1.6,24,3.5,32.7,11.8c0,0-26.9,49.9-29.7,76.6L389.7,393.7z"/>
		<path id="XMLID_176_" class="st5" d="M407.6,392.9c0,0-0.1-0.4-0.2-1.3c-0.1-0.9-0.2-2.1-0.4-3.7c-0.3-3.3-0.8-8.1-1.5-14.2
			c-1.2-12.3-2.9-30.1-3.6-52.2c-0.1-5.5-0.3-11.3-0.2-17.4c0.1-6,0.1-12.3,0.8-18.8c0.7-6.5,2.1-13.3,5.4-19.5
			c3.3-6.1,8.6-11.8,15.7-14.3c7.1-2.7,15.8-0.7,21.2,5.1c2.7,2.9,4.4,6.9,4.1,11c-0.2,4.1-2,8-4.6,11.1c-2.6,3.2-6.1,5.6-9.8,7.2
			c-3.8,1.7-7.8,2.6-11.9,3.3c-8.2,1.3-16.5,1.8-25,1.7c-8.5-0.2-16.8-0.8-24.9-2.4c-4-0.9-8-2.1-11.7-4c-3.7-1.9-7-4.4-9.6-7.5
			c-2.6-3.1-4.5-6.8-5.2-10.8c-0.7-4,0.1-8.1,2-11.6c1.9-3.5,4.9-6.4,8.6-7.6c3.7-1.3,7.9-0.7,11.2,1.1c3.4,1.7,6.1,4.4,8,7.5
			c2,3.1,3,6.6,3.7,10c1.3,6.9,0.9,13.7,1,20.2c0,13,0.1,25.1,0.1,36.2c0,22.1,0.1,39.9,0.1,52.4c0,6.1,0,10.9,0,14.2
			c0,1.6,0,2.8,0,3.7c0,0.8-0.1,1.3-0.1,1.3s0-0.4-0.1-1.3c0-0.9,0-2.1-0.1-3.7c0-3.3-0.1-8.1-0.2-14.2c-0.1-12.4-0.3-30.3-0.5-52.3
			c-0.1-11.1-0.2-23.2-0.3-36.2c-0.1-6.5,0.2-13.3-1.1-20c-0.7-3.3-1.7-6.7-3.6-9.6c-1.9-2.9-4.5-5.5-7.6-7.1
			c-3.1-1.6-6.9-2.2-10.3-1c-3.4,1.2-6.2,3.8-8,7.1c-1.8,3.3-2.5,7.1-1.8,10.8c0.6,3.7,2.5,7.3,5,10.2c5,6.1,12.7,9.5,20.6,11.1
			c8,1.6,16.3,2.2,24.7,2.4c8.4,0.2,16.7-0.4,24.8-1.7c4-0.7,8-1.6,11.6-3.2c3.6-1.6,7-3.8,9.4-6.8c2.5-3,4.1-6.6,4.3-10.4
			c0.3-3.8-1.3-7.4-3.7-10.1c-5.1-5.4-13.3-7.3-20-4.8c-6.8,2.4-11.9,7.8-15.2,13.8c-3.2,6-4.6,12.7-5.3,19.1
			c-0.7,6.4-0.7,12.7-0.9,18.7c-0.1,6,0,11.8,0.1,17.3c0.6,22.1,2.2,39.9,3.2,52.2c0.5,6.1,0.9,10.9,1.2,14.2
			c0.1,1.6,0.2,2.8,0.3,3.7C407.6,392.5,407.6,392.9,407.6,392.9"/>
		<path id="XMLID_175_" class="st5" d="M355.6,392.5c0,0,0,0.3,0,0.9c0,0.6,0,1.4,0,2.5c0,2.3,0,5.5-0.1,9.6
			c-0.1,8.3-0.3,20.1-0.5,34.4l-0.1-0.2c7.3,9.4,15.7,20.3,24.8,32l-0.3-0.2c4.8,0,9.7,0,14.8-0.1c5.4,0,10.7,0,15.9-0.1l-0.3,0.1
			c8.8-9.7,17-18.8,24.3-26.8l-0.1,0.2c0.4-15.1,0.7-27.8,0.9-36.6c0.1-4.4,0.2-7.8,0.3-10.3c0-1.1,0.1-2,0.1-2.7c0-0.3,0-0.5,0-0.7
			c0-0.2,0-0.2,0-0.2c0,0,0,0.1,0,0.2c0,0.2,0,0.4,0,0.7c0,0.7,0,1.6,0,2.7c0,2.4-0.1,5.9-0.1,10.3c-0.2,8.9-0.4,21.5-0.7,36.7
			l0,0.1l-0.1,0.1c-7.3,8-15.5,17.1-24.3,26.9l-0.1,0.1h-0.2c-5.2,0-10.5,0-15.9,0.1c-5.1,0-10.1,0-14.8,0.1l-0.2,0l-0.1-0.2
			c-9.1-11.8-17.5-22.7-24.7-32.1l-0.1-0.1l0-0.1c0.3-14.3,0.6-26.1,0.8-34.4c0.1-4.1,0.2-7.3,0.3-9.6c0-1.1,0.1-1.9,0.1-2.5
			C355.6,392.8,355.6,392.5,355.6,392.5"/>
		<path id="XMLID_174_" class="st5" d="M432.6,440.7c0,0.1-1-0.4-2.8-1.4c-1.8-0.9-4.4-2.2-7.8-3.5c-6.7-2.7-16.5-5.4-27.5-5.6
			c-11-0.2-20.9,2.1-27.7,4.6c-3.4,1.2-6.1,2.4-7.9,3.3c-1.8,0.9-2.8,1.3-2.9,1.3c0-0.1,0.9-0.7,2.7-1.7c1.8-1,4.4-2.3,7.8-3.6
			c6.8-2.7,16.8-5.2,28-5c11.2,0.2,21.1,3.1,27.8,6c3.4,1.5,6,2.9,7.7,3.9C431.7,440,432.6,440.6,432.6,440.7"/>
		<path id="XMLID_173_" class="st5" d="M433.2,428.4c0,0.1-1-0.4-2.8-1.4c-1.8-0.9-4.4-2.2-7.8-3.5c-6.7-2.7-16.5-5.4-27.5-5.6
			c-11-0.2-20.9,2.1-27.7,4.6c-3.4,1.2-6.1,2.4-7.9,3.3c-1.8,0.9-2.8,1.3-2.9,1.3c0-0.1,0.9-0.7,2.7-1.7c1.8-1,4.4-2.3,7.8-3.6
			c6.8-2.7,16.8-5.2,28-5c11.2,0.2,21.1,3.1,27.8,6c3.4,1.5,6,2.9,7.7,3.9C432.3,427.7,433.2,428.4,433.2,428.4"/>
		<path id="XMLID_172_" class="st5" d="M433,416.7c0,0.1-1-0.4-2.8-1.4c-1.8-0.9-4.4-2.2-7.8-3.5c-6.7-2.7-16.5-5.4-27.5-5.6
			c-11-0.2-20.9,2.1-27.7,4.6c-3.4,1.2-6.1,2.4-7.9,3.3c-1.8,0.9-2.8,1.3-2.9,1.3c0-0.1,0.9-0.7,2.7-1.7c1.8-1,4.4-2.3,7.8-3.6
			c6.8-2.7,16.8-5.2,28-5c11.2,0.2,21.1,3.1,27.8,6c3.4,1.5,6,2.9,7.7,3.9C432.1,416,433,416.7,433,416.7"/>
		<path id="XMLID_171_" class="st5" d="M411.3,472.7c-0.1,0.1-1.1-1.9-3.6-4.1c-2.5-2.3-6.8-4.7-12-4.8c-5.2-0.1-9.6,2.2-12.2,4.4
			c-2.6,2.2-3.6,4.1-3.8,4c0,0,0.2-0.5,0.7-1.3c0.5-0.8,1.4-1.9,2.7-3.1c2.5-2.4,7.1-4.9,12.5-4.8c5.4,0.1,9.9,2.7,12.4,5.2
			c1.3,1.2,2.1,2.4,2.6,3.2C411.2,472.2,411.4,472.7,411.3,472.7"/>
		<path id="XMLID_170_" class="st0" d="M246.5,107.9l-57.4,52l7.3,2.5l0.4,8.2c0,0,10.5,1,9.2,1.1c-1,0.1,0.6,9.4,0.6,9.4l59.1-57.4
			l-8.9-0.5l0-7.9l-9.3-0.1L246.5,107.9z"/>
		<polygon id="XMLID_169_" class="st1" points="215.1,172.6 260.6,128.4 274.6,128.4 		"/>
		<path id="XMLID_168_" class="st0" d="M583,170.7l-51.7-60.5l-2.5,7.7l-8.1,0.4c0,0-0.9,11-1,9.7c-0.1-1.1-9.3,0.6-9.3,0.6l57,62.3
			l0.5-9.4l7.8,0l0.1-9.8L583,170.7z"/>
		<polygon id="XMLID_167_" class="st1" points="546.5,128.4 569.5,154.9 569.5,144.4 		"/>
	</g>
	<g>
		<path id="XMLID_166_" class="st9" d="M724.7,688.6l2.5,10.7c0,0,17.4,22.7,22.8,21.5c3.5-0.7-0.8-6.6-7.4-23.8l-1.4-7.1
			L724.7,688.6z"/>
		<path id="XMLID_165_" class="st5" d="M750.7,717.5c0,0,0,0.1-0.1,0.3c-0.1,0.2-0.3,0.5-0.7,0.7c-0.4,0.2-0.9,0.4-1.6,0.3
			c-0.6,0-1.3-0.3-2-0.7c-2.5-1.9-5.5-4.8-8.8-8.2c-3.2-3.4-5.9-6.7-7.8-9.1c-0.9-1.2-1.7-2.2-2.1-2.9c-0.2-0.3-0.4-0.6-0.6-0.8
			c-0.1-0.2-0.2-0.3-0.2-0.3c0,0,0.1,0.1,0.2,0.3c0.2,0.2,0.4,0.5,0.6,0.8c0.7,0.8,1.4,1.8,2.2,2.9c1.9,2.4,4.6,5.7,7.9,9
			c3.2,3.4,6.3,6.3,8.7,8.2c1.2,0.9,2.6,0.9,3.3,0.5C750.6,718,750.7,717.4,750.7,717.5"/>
		<path id="XMLID_164_" class="st5" d="M748.3,710.2c0,0.1-0.6,0-1.4,0.1c-0.9,0.1-2,0.5-3.1,1.2c-1.1,0.7-2,1.6-2.4,2.4
			c-0.4,0.8-0.5,1.3-0.6,1.3c0,0,0-0.6,0.4-1.4c0.4-0.8,1.2-1.8,2.4-2.5c1.2-0.7,2.4-1.1,3.3-1.1C747.7,710,748.3,710.2,748.3,710.2
			"/>
		<path id="XMLID_163_" class="st5" d="M731.8,704.9c-0.1,0,0.2-0.8,0.3-2c0.2-1.2,0-3-0.9-4.7c-0.9-1.7-2.2-2.8-3.3-3.4
			c-1.1-0.6-1.9-0.6-1.9-0.7c0,0,0.2,0,0.6,0c0.4,0.1,0.9,0.2,1.4,0.4c1.2,0.5,2.6,1.7,3.5,3.4c0.9,1.7,1,3.6,0.8,4.9
			c-0.1,0.6-0.2,1.1-0.3,1.5C731.9,704.7,731.8,704.9,731.8,704.9"/>
		<path id="XMLID_162_" class="st5" d="M725.8,690.4c0.1,0,0.6,1.4,1,3.3c0.3,1.9,0.7,3.4,0.6,3.4c-0.1,0-0.6-1.5-0.9-3.4
			C726.1,691.9,725.7,690.4,725.8,690.4"/>
		<path id="XMLID_161_" class="st5" d="M742.9,698.5c0,0.1-1,0.1-2.2,0.3c-1.2,0.3-2,0.7-2.1,0.6c-0.1-0.1,0.8-0.7,2-1
			C741.9,698.2,742.9,698.4,742.9,698.5"/>
		<path id="XMLID_160_" class="st5" d="M743.3,700.3c0,0.1-0.8,0-1.8,0.3c-1,0.2-1.7,0.7-1.7,0.6c-0.1-0.1,0.6-0.7,1.6-0.9
			C742.4,700,743.3,700.2,743.3,700.3"/>
		<path id="XMLID_159_" class="st5" d="M744.6,702.6c0,0.1-0.9-0.2-1.9,0.1c-1,0.2-1.7,0.8-1.7,0.8c-0.1,0,0.5-0.8,1.6-1.1
			C743.8,702.1,744.7,702.5,744.6,702.6"/>
		<path id="XMLID_158_" class="st5" d="M741.7,697.7c0,0-0.2,0-0.6-0.1c-0.4-0.1-0.9-0.2-1.5-0.4c-0.6-0.2-1.4-0.5-2.2-1
			c-0.4-0.2-0.8-0.5-1.2-0.7c-0.4-0.3-0.9-0.7-0.9-1.3c0-0.7,0.8-1,1.3-0.8c0.5,0.1,0.9,0.5,1.2,0.8c0.6,0.6,1.2,1.2,1.6,1.7
			c0.4,0.5,0.7,1,1,1.3c0.2,0.3,0.3,0.5,0.3,0.5c0,0-0.5-0.6-1.4-1.6c-0.4-0.5-1-1.1-1.6-1.7c-0.3-0.3-0.7-0.6-1.1-0.7
			c-0.4-0.1-0.9,0.1-0.9,0.5c0,0.4,0.4,0.8,0.7,1c0.4,0.3,0.8,0.5,1.2,0.7c0.8,0.4,1.5,0.8,2.1,1
			C740.9,697.5,741.7,697.7,741.7,697.7"/>
		<path id="XMLID_157_" class="st5" d="M740.8,697.5c0,0,0-0.2,0-0.5c0-0.3,0-0.8,0.1-1.4c0.1-0.6,0.2-1.3,0.5-2.1
			c0.2-0.4,0.4-0.8,0.7-1.1c0.3-0.3,0.8-0.7,1.4-0.4c0.5,0.3,0.5,1,0.5,1.4c-0.1,0.5-0.2,0.9-0.4,1.3c-0.3,0.8-0.8,1.3-1.2,1.8
			c-0.4,0.4-0.8,0.7-1.1,0.9C741,697.4,740.8,697.5,740.8,697.5c0,0,0.6-0.5,1.4-1.4c0.4-0.5,0.8-1,1.1-1.8c0.2-0.4,0.3-0.8,0.3-1.2
			c0-0.4,0-0.9-0.3-1c-0.3-0.2-0.7,0.1-1,0.4c-0.3,0.3-0.5,0.7-0.6,1c-0.3,0.7-0.5,1.4-0.6,2C740.9,696.7,740.8,697.5,740.8,697.5"
			/>
		<g class="st10">
			<g>
				<defs>
					<rect id="XMLID_155_" x="726" y="694.1" width="25.3" height="26.7"/>
				</defs>
				<clipPath id="XMLID_317_">
					<use xlink:href="#XMLID_155_"  style="overflow:visible;"/>
				</clipPath>
				<path id="XMLID_156_" class="st11" d="M727.2,699.3l-1.2-5.1c0,0,4.3,0.8,5.4,4c1.1,3.2,0.8,5.5,0.8,5.5l9.3,10
					c0,0,2.3-4.6,6.6-3.5c0,0,3.3,7.3,3.2,9.1c-0.1,2-2.2,1.6-3,1.3c-0.3-0.2-4.4-2.5-8.3-6.6C735,708.9,729.6,702.4,727.2,699.3"/>
			</g>
		</g>
		<path id="XMLID_154_" class="st9" d="M638,694l-0.1-14.2l26.6-0.3l0.3,20.8l-1.7,0.1c-7.3,0.5-37.4,2-42.3,0.6
			C615.4,699.4,638,694,638,694"/>
		<g class="st10">
			<g>
				<defs>
					<rect id="XMLID_152_" x="655.2" y="692.4" width="9.6" height="7.8"/>
				</defs>
				<clipPath id="XMLID_318_">
					<use xlink:href="#XMLID_152_"  style="overflow:visible;"/>
				</clipPath>
				<path id="XMLID_153_" class="st12" d="M655.2,700.2c0.4-2.2,1.6-4.3,3.3-5.7c1.8-1.4,4-2.2,6.2-2l0.1,7.4L655.2,700.2z"/>
			</g>
		</g>
		<g class="st10">
			<g>
				<defs>
					<rect id="XMLID_150_" x="620" y="697" width="44.9" height="4.5"/>
				</defs>
				<clipPath id="XMLID_319_">
					<use xlink:href="#XMLID_150_"  style="overflow:visible;"/>
				</clipPath>
				<path id="XMLID_151_" class="st13" d="M626.9,697c0,0-7.9,2.4-6.9,3.7c1,1.3,31.4,0.9,44.8-0.4l-0.1-0.6l-35.5,0.8
					C629.3,700.4,628.5,697.1,626.9,697"/>
			</g>
		</g>
		<path id="XMLID_149_" class="st5" d="M665.2,699.6c0,0-0.2,0-0.5,0.1c-0.4,0-0.8,0.1-1.3,0.1c-1.3,0.1-2.9,0.2-4.8,0.3
			c-4.1,0.2-9.7,0.4-16,0.5c-6.2,0.1-11.9,0-16-0.1c-1.9-0.1-3.5-0.1-4.8-0.1c-0.5,0-0.9,0-1.3-0.1c-0.3,0-0.5,0-0.5,0
			c0,0,0.2,0,0.5,0c0.4,0,0.8,0,1.3,0c1.3,0,2.9,0,4.8,0c4.1,0,9.7,0,16,0c6.2-0.1,11.9-0.2,16-0.4c1.9-0.1,3.5-0.1,4.8-0.2
			c0.5,0,0.9,0,1.3,0C665.1,699.6,665.2,699.6,665.2,699.6"/>
		<path id="XMLID_148_" class="st5" d="M629.4,700.8c-0.1,0-0.2-1.1-0.9-2.3c-0.7-1.2-1.7-1.8-1.7-1.8c0-0.1,1.2,0.4,1.9,1.7
			C629.5,699.6,629.4,700.8,629.4,700.8"/>
		<path id="XMLID_147_" class="st5" d="M637.2,696.7c-0.1,0-0.5-0.4-0.9-1c-0.4-0.6-0.7-1.1-0.6-1.2c0.1,0,0.5,0.4,0.9,1
			C637,696.2,637.2,696.7,637.2,696.7"/>
		<path id="XMLID_146_" class="st5" d="M639.3,695.6c-0.1,0.1-0.5-0.2-0.9-0.6c-0.5-0.4-0.8-0.8-0.7-0.9c0.1-0.1,0.5,0.2,0.9,0.6
			C639,695.1,639.4,695.5,639.3,695.6"/>
		<path id="XMLID_145_" class="st5" d="M640.6,693c0,0.1-0.6,0.2-1.4,0.2c-0.8,0-1.4,0-1.4-0.1c0-0.1,0.6-0.2,1.4-0.2
			C640,692.9,640.6,692.9,640.6,693"/>
		<path id="XMLID_144_" class="st5" d="M641.1,691.3c0,0.1-0.6,0.4-1.5,0.5c-0.9,0.1-1.6-0.1-1.6-0.2c0-0.1,0.7-0.1,1.6-0.1
			C640.4,691.3,641.1,691.2,641.1,691.3"/>
		<path id="XMLID_143_" class="st5" d="M636.2,694.4c0,0-0.7,0.1-1.7,0c-0.5-0.1-1.2-0.2-1.8-0.4c-0.3-0.1-0.7-0.2-1-0.4
			c-0.2-0.1-0.4-0.3-0.4-0.5c-0.1-0.3,0.1-0.5,0.3-0.7c1.6-0.9,3.3,0,3.9,0.9c0.3,0.4,0.5,0.8,0.6,1.1c0.1,0.3,0.1,0.5,0,0.5
			c-0.1,0-0.1-0.7-0.8-1.4c-0.3-0.4-0.8-0.7-1.5-0.9c-0.6-0.2-1.5-0.2-2,0.2c-0.3,0.2-0.2,0.5,0.1,0.7c0.3,0.2,0.7,0.3,1,0.4
			c0.6,0.2,1.3,0.4,1.8,0.4C635.6,694.4,636.2,694.4,636.2,694.4"/>
		<path id="XMLID_142_" class="st5" d="M635.8,694.5c0,0-0.3-0.4-0.2-1.2c0-0.4,0.2-0.8,0.5-1.3c0.3-0.4,0.7-0.9,1.4-0.9
			c0.4,0,0.6,0.5,0.5,0.8c0,0.3-0.2,0.6-0.3,0.8c-0.2,0.4-0.5,0.8-0.8,1c-0.5,0.5-1,0.7-1,0.7c0,0,0.3-0.3,0.8-0.9
			c0.2-0.3,0.5-0.6,0.7-1c0.2-0.4,0.4-1,0-1.1c-0.4,0-0.9,0.4-1.1,0.7c-0.3,0.4-0.4,0.8-0.5,1.1
			C635.7,694.1,635.8,694.5,635.8,694.5"/>
		<path id="XMLID_141_" class="st5" d="M664.6,692.4c0,0.1-0.8-0.1-2,0.1c-1.2,0.1-2.8,0.7-4.3,1.8c-1.4,1.2-2.3,2.7-2.6,3.8
			c-0.4,1.1-0.4,1.9-0.5,1.9c0,0,0-0.2,0-0.5c0-0.3,0.1-0.8,0.3-1.4c0.3-1.2,1.2-2.8,2.6-4c1.5-1.2,3.2-1.7,4.5-1.8
			c0.6-0.1,1.1,0,1.5,0C664.4,692.3,664.6,692.3,664.6,692.4"/>
		<path id="XMLID_140_" class="st5" d="M661.7,681.3c0.1,0,0.2,2.4,0.3,5.5c0.1,3,0.1,5.5,0,5.5c-0.1,0-0.2-2.4-0.3-5.5
			C661.6,683.8,661.6,681.3,661.7,681.3"/>
		<path id="XMLID_139_" class="st5" d="M651.8,697.6c0,0.1-1.7,0.4-3.9,0.4c-2.2,0.1-3.9-0.2-3.9-0.3c0-0.1,1.7,0,3.9-0.1
			C650.1,697.7,651.8,697.5,651.8,697.6"/>
		<path id="XMLID_138_" class="st5" d="M657,697.5c0.1,0.1-0.1,0.4-0.3,0.8c-0.2,0.4-0.3,0.8-0.4,0.8c-0.1,0-0.1-0.4,0.1-0.9
			C656.6,697.7,657,697.5,657,697.5"/>
		<path id="XMLID_137_" class="st5" d="M659,695.1c0.1,0.1-0.1,0.3-0.4,0.6c-0.3,0.3-0.5,0.5-0.6,0.4c-0.1-0.1,0.1-0.3,0.4-0.6
			C658.6,695.2,658.9,695,659,695.1"/>
		<path id="XMLID_136_" class="st5" d="M661.8,693.9c0,0.1-0.4,0.1-0.8,0.2c-0.4,0.1-0.7,0.4-0.7,0.3c-0.1,0,0.1-0.4,0.6-0.6
			C661.4,693.7,661.8,693.8,661.8,693.9"/>
		<path id="XMLID_135_" class="st5" d="M663.8,693.4c0,0.1-0.1,0.2-0.3,0.3c-0.2,0.1-0.4,0.1-0.5,0c0-0.1,0.1-0.2,0.3-0.3
			C663.5,693.3,663.7,693.3,663.8,693.4"/>
		<polyline id="XMLID_134_" class="st14" points="623.6,420.6 632.3,687.9 673.8,688.7 666.9,457.4 713.5,690.5 753,690.5 
			700.3,411.5 		"/>
		<polygon id="XMLID_133_" class="st5" points="711.5,686.7 712.4,690.8 753,691.4 752.4,685 		"/>
		<path id="XMLID_132_" class="st5" d="M666.6,686.3c0.2,0,0.5,0.5,0.5,1.2c0,0.7-0.1,1.2-0.4,1.3c-0.2,0-0.5-0.5-0.5-1.2
			C666.2,686.9,666.4,686.3,666.6,686.3"/>
		<path id="XMLID_131_" class="st5" d="M666.2,676.3c0.2,0,0.5,1.1,0.5,2.5c0.1,1.4-0.1,2.5-0.3,2.5c-0.2,0-0.5-1.1-0.5-2.5
			C665.8,677.5,666,676.3,666.2,676.3"/>
		<path id="XMLID_130_" class="st5" d="M665.9,666.3c0.2,0,0.5,1.1,0.5,2.5c0,1.4-0.1,2.5-0.4,2.5c-0.2,0-0.5-1.1-0.5-2.5
			C665.5,667.4,665.7,666.3,665.9,666.3"/>
		<path id="XMLID_129_" class="st5" d="M665.6,656.3c0.2,0,0.5,1.1,0.5,2.5c0,1.4-0.1,2.5-0.4,2.5c-0.2,0-0.5-1.1-0.5-2.5
			C665.2,657.4,665.4,656.3,665.6,656.3"/>
		<path id="XMLID_128_" class="st5" d="M665.4,646.3c0.2,0,0.5,1.1,0.5,2.5c0,1.4-0.1,2.5-0.4,2.5c-0.2,0-0.5-1.1-0.5-2.5
			C665,647.4,665.2,646.3,665.4,646.3"/>
		<path id="XMLID_127_" class="st5" d="M665.1,636.2c0.2,0,0.5,1.1,0.5,2.5c0,1.4-0.1,2.5-0.4,2.5c-0.2,0-0.5-1.1-0.5-2.5
			C664.7,637.4,664.9,636.3,665.1,636.2"/>
		<path id="XMLID_126_" class="st5" d="M664.7,626.2c0.2,0,0.5,1.1,0.5,2.5c0.1,1.4-0.1,2.5-0.3,2.5c-0.2,0-0.5-1.1-0.5-2.5
			C664.4,627.4,664.5,626.2,664.7,626.2"/>
		<path id="XMLID_125_" class="st5" d="M664.3,616.2c0.2,0,0.5,1.1,0.5,2.5c0.1,1.4-0.1,2.5-0.3,2.5c-0.2,0-0.5-1.1-0.5-2.5
			C663.9,617.4,664.1,616.2,664.3,616.2"/>
		<path id="XMLID_124_" class="st5" d="M664,606.2c0.2,0,0.5,1.1,0.5,2.5c0,1.4-0.1,2.5-0.3,2.5c-0.2,0-0.5-1.1-0.5-2.5
			C663.6,607.3,663.7,606.2,664,606.2"/>
		<path id="XMLID_123_" class="st5" d="M663.6,596.2c0.2,0,0.5,1.1,0.5,2.5c0,1.4-0.1,2.5-0.4,2.5c-0.2,0-0.5-1.1-0.5-2.5
			C663.3,597.3,663.4,596.2,663.6,596.2"/>
		<path id="XMLID_122_" class="st5" d="M663.4,586.2c0.2,0,0.5,1.1,0.5,2.5c0,1.4-0.1,2.5-0.4,2.5c-0.2,0-0.5-1.1-0.5-2.5
			C663,587.3,663.1,586.2,663.4,586.2"/>
		<path id="XMLID_121_" class="st5" d="M663.2,576.2c0.2,0,0.5,1.1,0.5,2.5c0,1.4-0.1,2.5-0.4,2.5c-0.2,0-0.5-1.1-0.5-2.5
			C662.8,577.3,662.9,576.2,663.2,576.2"/>
		<path id="XMLID_120_" class="st5" d="M663,566.2c0.2,0,0.4,1.1,0.5,2.5c0,1.4-0.2,2.5-0.4,2.5c-0.2,0-0.4-1.1-0.5-2.5
			C662.6,567.3,662.8,566.2,663,566.2"/>
		<path id="XMLID_119_" class="st5" d="M662.9,556.1c0.2,0,0.4,1.1,0.5,2.5c0,1.4-0.2,2.5-0.4,2.5c-0.2,0-0.4-1.1-0.5-2.5
			C662.5,557.3,662.6,556.1,662.9,556.1"/>
		<path id="XMLID_118_" class="st5" d="M662.8,546.1c0.2,0,0.4,1.1,0.4,2.5c0,1.4-0.2,2.5-0.4,2.5c-0.2,0-0.4-1.1-0.4-2.5
			C662.4,547.2,662.6,546.1,662.8,546.1"/>
		<path id="XMLID_117_" class="st5" d="M662.8,536.1c0.2,0,0.4,1.1,0.4,2.5c0,1.4-0.2,2.5-0.4,2.5c-0.2,0-0.4-1.1-0.4-2.5
			C662.4,537.2,662.6,536.1,662.8,536.1"/>
		<path id="XMLID_116_" class="st5" d="M662.9,526.1c0.2,0,0.4,1.1,0.4,2.5c0,1.4-0.2,2.5-0.4,2.5c-0.2,0-0.4-1.1-0.4-2.5
			S662.6,526.1,662.9,526.1"/>
		<path id="XMLID_115_" class="st5" d="M663,516.1c0.2,0,0.4,1.1,0.4,2.5c0,1.4-0.2,2.5-0.5,2.5c-0.2,0-0.4-1.1-0.4-2.5
			C662.5,517.2,662.7,516.1,663,516.1"/>
		<path id="XMLID_114_" class="st5" d="M663.1,506c0.2,0,0.4,1.1,0.4,2.5c0,1.4-0.2,2.5-0.5,2.5c-0.2,0-0.4-1.1-0.4-2.5
			C662.7,507.2,662.9,506,663.1,506"/>
		<path id="XMLID_113_" class="st5" d="M663.3,496c0.2,0,0.4,1.1,0.4,2.5c0,1.4-0.2,2.5-0.5,2.5c-0.2,0-0.4-1.1-0.4-2.5
			C662.9,497.1,663.1,496,663.3,496"/>
		<path id="XMLID_112_" class="st5" d="M663.6,486c0.2,0,0.4,1.1,0.3,2.5c0,1.4-0.3,2.5-0.5,2.5c-0.2,0-0.4-1.1-0.3-2.5
			C663.2,487.1,663.4,486,663.6,486"/>
		<path id="XMLID_111_" class="st5" d="M664.2,476c0.2,0,0.4,1.1,0.3,2.5c-0.1,1.4-0.3,2.5-0.6,2.5c-0.2,0-0.4-1.1-0.3-2.5
			C663.7,477.1,663.9,476,664.2,476"/>
		<path id="XMLID_110_" class="st5" d="M665,466c0.2,0,0.3,1.2,0.2,2.5c-0.1,1.4-0.4,2.5-0.7,2.5c-0.2,0-0.3-1.2-0.2-2.5
			C664.5,467.1,664.8,466,665,466"/>
		<path id="XMLID_109_" class="st5" d="M666,458.6c0.2,0,0.3,0.6,0.3,1.3c-0.1,0.7-0.4,1.2-0.6,1.2c-0.2,0-0.3-0.6-0.3-1.3
			C665.5,459.1,665.8,458.6,666,458.6"/>
		<polygon id="XMLID_108_" class="st5" points="631.2,689.2 675.1,689.9 674.7,682.6 631.2,682.8 		"/>
		<path id="XMLID_107_" class="st5" d="M744.7,682.7c0.2,0,0.5,0.5,0.6,1.1c0.1,0.7,0,1.3-0.2,1.3c-0.2,0-0.5-0.5-0.6-1.2
			C744.4,683.4,744.5,682.8,744.7,682.7"/>
		<path id="XMLID_106_" class="st5" d="M743.1,673.1c0.2,0,0.6,1,0.8,2.3c0.2,1.3,0.2,2.4,0,2.5c-0.2,0-0.6-1-0.8-2.3
			C742.9,674.3,742.9,673.2,743.1,673.1"/>
		<path id="XMLID_105_" class="st5" d="M741.5,663.5c0.2,0,0.6,1,0.8,2.3c0.2,1.3,0.2,2.4,0,2.5c-0.2,0-0.6-1-0.8-2.3
			C741.3,664.7,741.3,663.6,741.5,663.5"/>
		<path id="XMLID_104_" class="st5" d="M739.9,653.9c0.2,0,0.6,1,0.8,2.3c0.2,1.3,0.2,2.4,0,2.5c-0.2,0-0.6-1-0.8-2.3
			C739.7,655.1,739.7,654,739.9,653.9"/>
		<path id="XMLID_103_" class="st5" d="M738.3,644.3c0.2,0,0.6,1,0.8,2.3c0.2,1.3,0.2,2.4,0,2.5c-0.2,0-0.6-1-0.8-2.3
			C738.1,645.5,738.1,644.4,738.3,644.3"/>
		<path id="XMLID_102_" class="st5" d="M736.7,634.7c0.2,0,0.6,1,0.8,2.3c0.2,1.3,0.2,2.4,0,2.5c-0.2,0-0.6-1-0.8-2.3
			C736.5,635.9,736.5,634.8,736.7,634.7"/>
		<path id="XMLID_101_" class="st5" d="M735.1,625.2c0.2,0,0.6,1,0.8,2.3c0.2,1.3,0.2,2.4,0,2.5c-0.2,0-0.6-1-0.8-2.3
			C734.8,626.3,734.8,625.2,735.1,625.2"/>
		<path id="XMLID_100_" class="st5" d="M733.4,615.6c0.2,0,0.6,1,0.8,2.3c0.2,1.3,0.2,2.4,0,2.5c-0.2,0-0.6-1-0.8-2.3
			C733.2,616.7,733.2,615.6,733.4,615.6"/>
		<path id="XMLID_99_" class="st5" d="M731.7,606c0.2,0,0.6,1,0.8,2.3c0.2,1.3,0.2,2.4,0,2.5c-0.2,0-0.6-1-0.8-2.3
			C731.5,607.1,731.5,606,731.7,606"/>
		<path id="XMLID_98_" class="st5" d="M730,596.4c0.2,0,0.6,1,0.8,2.3c0.2,1.3,0.2,2.4,0,2.5c-0.2,0-0.6-1-0.8-2.3
			C729.8,597.5,729.8,596.4,730,596.4"/>
		<path id="XMLID_97_" class="st5" d="M728.3,586.8c0.2,0,0.6,1,0.8,2.3c0.2,1.3,0.2,2.4,0,2.5c-0.2,0-0.6-1-0.8-2.3
			C728.1,588,728.1,586.9,728.3,586.8"/>
		<path id="XMLID_96_" class="st5" d="M726.6,577.2c0.2,0,0.6,1,0.9,2.3c0.2,1.3,0.2,2.4,0,2.5c-0.2,0-0.6-1-0.9-2.3
			C726.4,578.4,726.4,577.3,726.6,577.2"/>
		<path id="XMLID_95_" class="st5" d="M724.9,567.7c0.2,0,0.6,1,0.9,2.3c0.2,1.3,0.2,2.4,0,2.5c-0.2,0-0.6-1-0.9-2.3
			C724.6,568.8,724.6,567.7,724.9,567.7"/>
		<path id="XMLID_94_" class="st5" d="M723.1,558.1c0.2,0,0.6,1,0.9,2.3c0.2,1.3,0.2,2.4,0,2.5c-0.2,0-0.6-1-0.9-2.3
			C722.9,559.2,722.9,558.1,723.1,558.1"/>
		<path id="XMLID_93_" class="st5" d="M721.4,548.5c0.2,0,0.6,1,0.9,2.3c0.2,1.3,0.3,2.4,0,2.5c-0.2,0-0.6-1-0.9-2.3
			S721.1,548.6,721.4,548.5"/>
		<path id="XMLID_92_" class="st5" d="M719.6,538.9c0.2,0,0.6,1,0.9,2.3c0.2,1.3,0.3,2.4,0,2.5c-0.2,0-0.6-1-0.9-2.3
			C719.4,540.1,719.3,539,719.6,538.9"/>
		<path id="XMLID_91_" class="st5" d="M717.8,529.4c0.2,0,0.6,1,0.9,2.3c0.2,1.3,0.3,2.4,0,2.5c-0.2,0-0.6-1-0.9-2.3
			C717.6,530.5,717.6,529.4,717.8,529.4"/>
		<path id="XMLID_90_" class="st5" d="M716,519.8c0.2,0,0.6,1,0.9,2.3c0.3,1.3,0.3,2.4,0,2.5c-0.2,0-0.6-1-0.9-2.3
			C715.8,521,715.7,519.9,716,519.8"/>
		<path id="XMLID_89_" class="st5" d="M714.2,510.3c0.2,0,0.6,1,0.9,2.3c0.3,1.3,0.3,2.4,0,2.5c-0.2,0-0.6-1-0.9-2.3
			C713.9,511.4,713.9,510.3,714.2,510.3"/>
		<path id="XMLID_88_" class="st5" d="M712.3,500.7c0.2,0,0.6,1,0.9,2.3s0.3,2.4,0,2.5c-0.2,0-0.6-1-0.9-2.3
			C712.1,501.9,712.1,500.7,712.3,500.7"/>
		<path id="XMLID_87_" class="st5" d="M710.5,491.1c0.2,0,0.6,1,0.9,2.3c0.3,1.3,0.3,2.4,0,2.5c-0.2,0-0.6-1-0.9-2.3
			C710.2,492.3,710.2,491.2,710.5,491.1"/>
		<path id="XMLID_86_" class="st5" d="M708.6,481.6c0.2,0,0.6,1,0.9,2.3c0.3,1.3,0.3,2.4,0,2.5c-0.2,0-0.6-1-0.9-2.3
			C708.4,482.7,708.4,481.6,708.6,481.6"/>
		<path id="XMLID_85_" class="st5" d="M706.7,472.1c0.2,0,0.6,1,0.9,2.3c0.3,1.3,0.3,2.4,0.1,2.5c-0.2,0-0.6-1-0.9-2.3
			C706.5,473.2,706.5,472.1,706.7,472.1"/>
		<path id="XMLID_84_" class="st5" d="M704.8,462.5c0.2,0,0.6,1,0.9,2.3c0.3,1.3,0.3,2.4,0.1,2.5c-0.2,0-0.6-1-0.9-2.3
			C704.6,463.7,704.6,462.6,704.8,462.5"/>
		<path id="XMLID_83_" class="st5" d="M702.9,453c0.2,0,0.6,1,0.9,2.3c0.3,1.3,0.3,2.4,0.1,2.5c-0.2,0-0.6-1-0.9-2.3
			C702.7,454.1,702.7,453,702.9,453"/>
		<path id="XMLID_82_" class="st5" d="M701,443.4c0.2,0,0.6,1,0.9,2.3c0.3,1.3,0.3,2.4,0.1,2.5c-0.2,0-0.6-1-0.9-2.3
			C700.8,444.6,700.7,443.5,701,443.4"/>
		<path id="XMLID_81_" class="st5" d="M699.5,436.2c0.2,0,0.5,0.5,0.7,1.1c0.1,0.7,0.1,1.2-0.2,1.3c-0.2,0-0.5-0.5-0.7-1.1
			C699.2,436.9,699.3,436.3,699.5,436.2"/>
		<path id="XMLID_80_" class="st15" d="M538.9,370.3c0,0,25.2,33.1,40.6,25.6c15.4-7.5,43-32.8,43-32.8l-19.4-19.5l-25.7,28.7
			l-32.8-15.9L538.9,370.3z"/>
		<path id="XMLID_79_" class="st15" d="M678.3,307.9l-25.6-2c-0.2-3,0.1-14.6,0.1-14.6s-10.7-1.7-10.8-12.3
			c-0.1-10.7,1.7-35.1,1.7-35.1c12.3-5.3,26.6-3.5,37.2,4.7l1.6,1.2L678.3,307.9z"/>
		<path id="XMLID_78_" class="st5" d="M646.1,262.2c0.6-0.6,0.7-1.6,0.1-2.2c-0.6-0.6-1.6-0.7-2.2-0.1c-0.6,0.6-0.7,1.6-0.1,2.2
			C644.5,262.7,645.5,262.7,646.1,262.2"/>
		<path id="XMLID_77_" class="st5" d="M643.6,259.7c0.2,0.2,1.2-0.6,2.7-0.6c1.5,0,2.5,0.8,2.7,0.6c0.1-0.1-0.1-0.4-0.6-0.8
			c-0.5-0.4-1.2-0.7-2.2-0.7c-0.9,0-1.7,0.4-2.1,0.7C643.6,259.3,643.5,259.7,643.6,259.7"/>
		<path id="XMLID_76_" class="st5" d="M660.5,261c-0.7,0.4-1,1.4-0.5,2.1c0.4,0.7,1.4,1,2.1,0.5s1-1.4,0.5-2.1
			C662.1,260.8,661.2,260.6,660.5,261"/>
		<path id="XMLID_75_" class="st5" d="M659.5,261c0.2,0.2,1.2-0.6,2.7-0.6c1.5,0,2.5,0.8,2.7,0.6c0.1-0.1-0.1-0.4-0.6-0.8
			c-0.5-0.4-1.2-0.7-2.2-0.7c-0.9,0-1.7,0.4-2.1,0.7C659.6,260.6,659.4,261,659.5,261"/>
		<path id="XMLID_74_" class="st5" d="M653.6,273.1c0-0.1-0.9-0.3-2.4-0.5c-0.4,0-0.7-0.1-0.7-0.3c-0.1-0.2,0.1-0.6,0.3-1.1
			c0.4-1,0.8-2,1.2-3c1.6-4.2,2.7-7.8,2.5-7.8c-0.2-0.1-1.7,3.3-3.3,7.5c-0.4,1-0.7,2-1.1,3c-0.1,0.4-0.4,1-0.2,1.6
			c0.1,0.3,0.4,0.5,0.7,0.6c0.3,0.1,0.5,0.1,0.7,0.1C652.7,273.3,653.6,273.3,653.6,273.1"/>
		<path id="XMLID_73_" class="st16" d="M658.4,274.8c-1.9,0.8-4.2,1.7-7.2,2.1c0,0,1.7,2.7,4.8,1.6
			C659.2,277.3,658.4,274.8,658.4,274.8"/>
		<path id="XMLID_72_" class="st17" d="M652.7,291.1c0,0,6.7,0.5,13.9-3.9c0,0-3.3,7.7-13.9,6.7L652.7,291.1z"/>
		<path id="XMLID_71_" class="st5" d="M643.5,246.5c0,0,6.2,3.6,15,0c5.7-2.3,12.3-3.2,13.6-2c1.3,1.2,1.2,6.9,6.6,9
			c0,0-1.2,10.8,3.2,10.8s2.9-17.1,2.9-17.1l-10.2-6l-11.4-3l-11,0.7l-8.6,1.7V246.5z"/>
		<path id="XMLID_70_" class="st15" d="M681.2,260.8c0.2-0.1,7.3-2.2,7.1,5.1c-0.2,7.3-7.5,5.5-7.5,5.3
			C680.7,271,681.2,260.8,681.2,260.8"/>
		<path id="XMLID_69_" class="st17" d="M683.1,268.6c0,0,0.1,0.1,0.3,0.2c0.2,0.1,0.6,0.2,0.9,0.1c0.8-0.3,1.5-1.5,1.5-2.8
			c0-0.7-0.1-1.3-0.3-1.8c-0.2-0.5-0.5-0.9-0.9-1c-0.4-0.1-0.7,0.1-0.8,0.3c-0.1,0.2-0.1,0.3-0.1,0.4c0,0-0.2-0.1-0.1-0.4
			c0-0.1,0.1-0.3,0.3-0.4c0.2-0.1,0.4-0.2,0.7-0.2c0.6,0.1,1,0.6,1.3,1.2c0.3,0.6,0.4,1.3,0.4,2c-0.1,1.5-0.9,2.8-2,3.1
			c-0.5,0.1-0.9-0.1-1.2-0.2C683.1,268.7,683,268.6,683.1,268.6"/>
		<path id="XMLID_68_" class="st5" d="M650.7,257.3c-0.2,0.4-1.6,0.1-3.3,0c-1.7-0.1-3.1,0.1-3.3-0.3c-0.2-0.4,1.2-1.5,3.4-1.4
			C649.6,255.7,651,257,650.7,257.3"/>
		<path id="XMLID_67_" class="st5" d="M667,257.3c-0.2,0.4-1.6,0.1-3.3,0c-1.7-0.1-3.1,0.1-3.3-0.3c-0.2-0.4,1.2-1.5,3.4-1.4
			C665.9,255.7,667.3,257,667,257.3"/>
		<path id="XMLID_66_" class="st5" d="M674.7,246.1c1.3,1.8,2.6,3.5,4.2,4.9c1.7,1.4,3.8,2.3,6,2.1c2.2-0.2,4.2-1.8,4.6-3.9
			c0.4-2.1-1.5-4.5-3.6-4.3c1.4,0.2,2.8-1.2,2.6-2.7c-0.3-1.4-2.1-2.3-3.4-1.5c1.9-0.1,2.4-3,1.1-4.3c-1.3-1.3-3.5-1.4-5.3-0.9
			c-1.8,0.5-3.5,1.3-5.4,1.5c-2.9,0.2-5.7-1.3-8-3.1c-2.3-1.8-4.5-3.9-7.2-5c-3.3-1.4-7.1-1.2-10.6-0.2c-2.9,0.8-5.7,2.1-7.8,4.3
			c-2.1,2.1-3.4,5.2-2.9,8.1c0.4,3,2.8,5.7,5.7,6.1c0,0,6.6,1.5,12.5-1.8c5.9-3.3,17.3-1.3,17.3-1.3L674.7,246.1z"/>
		<path id="XMLID_65_" class="st14" d="M685.8,239c0,0-0.1,0.1-0.5,0.3c-0.3,0.2-0.8,0.4-1.4,0.6c-1.2,0.5-3.1,1.1-5.5,1.4
			c-2.4,0.3-5.2,0.3-8.4-0.3c-3.1-0.6-6.3-2.1-9.6-3.3c-3.3-1.3-6.7-2.2-9.7-1.8c-3,0.3-5.6,1.8-6.9,3.7c-1.3,1.9-1.4,3.9-1.2,5.1
			c0.2,1.3,0.7,1.9,0.6,1.9c0,0-0.1-0.1-0.3-0.4c-0.2-0.3-0.4-0.8-0.6-1.4c-0.3-1.3-0.3-3.4,1.1-5.5c1.3-2.1,4-3.7,7.2-4.1
			c3.2-0.4,6.7,0.5,10.1,1.8c3.4,1.3,6.5,2.7,9.5,3.4c3,0.7,5.8,0.7,8.1,0.4C683.1,240.3,685.8,238.9,685.8,239"/>
		<path id="XMLID_64_" class="st14" d="M687.6,250.6c0.1,0.1-0.3,0.7-1.1,1.5c-0.9,0.8-2.4,1.6-4.2,1.8c-1.8,0.2-3.5-0.4-4.5-1.1
			c-1-0.6-1.4-1.2-1.4-1.3c0.1-0.1,0.6,0.4,1.6,0.8c1,0.5,2.5,0.9,4.1,0.8c1.7-0.1,3.1-0.8,4-1.4C687,251,687.5,250.5,687.6,250.6"
			/>
		<path id="XMLID_63_" class="st14" d="M685.8,246.7c0.2,0.1-0.5,1.3-2.1,2.1c-1.5,0.8-2.9,0.7-2.9,0.5c0-0.2,1.2-0.4,2.6-1.1
			C684.7,247.5,685.6,246.6,685.8,246.7"/>
		<path id="XMLID_62_" class="st5" d="M639.3,250.9c-0.1,0-0.3-0.4-0.2-1c0-0.6,0.3-1.6,0.9-2.3c0.7-0.8,1.5-1.2,2.2-1.3
			c0.6-0.1,1,0,1,0.1c0,0.2-1.5,0.4-2.6,1.7C639.5,249.3,639.5,250.9,639.3,250.9"/>
		<path id="XMLID_61_" class="st14" d="M636.9,240.1c0.2-0.1,0.8,1.9,2.4,3.8c1.6,1.8,3.6,2.6,3.5,2.8c0,0.2-2.3-0.3-4.1-2.3
			C637,242.4,636.7,240.1,636.9,240.1"/>
		<path id="XMLID_60_" class="st9" d="M707.3,438.2l-85.6-4.7c-0.2-8.8,4-75.8,4-75.8l-4.4,8.3l-23-20.5l20.1-27.2
			c6.4-8.6,16-14.3,26.6-15.8c3.1-0.4,5.5-0.6,7-0.8c9.1,2.8,18.2,2.8,27.3,0c4.2,0.2,7.9,0.9,11.3,2.2c7.1,2.6,13,6.4,18,11.7l0,0
			l24.1,40.5l-29.2,18.4l-4.2-12.7L707.3,438.2z"/>
		<path id="XMLID_59_" class="st5" d="M697.7,309.6c0,0.1-0.7,0.2-1.6,1.2c-0.9,0.9-1.7,2.7-1.6,5c0.2,4.6,0.7,11.1,1.3,18.1
			c0.6,7.1,1.3,13.5,1.8,18.1c0.2,2.2,0.4,4,0.6,5.5c0.1,1.3,0.2,2,0.1,2c-0.1,0-0.2-0.7-0.4-2c-0.2-1.3-0.5-3.2-0.8-5.5
			c-0.6-4.6-1.4-11-2-18.1c-0.6-7.1-1-13.5-1.1-18.2c0-2.4,1-4.3,2-5.2c0.5-0.5,1-0.7,1.3-0.8C697.5,309.6,697.7,309.6,697.7,309.6"
			/>
		<path id="XMLID_58_" class="st5" d="M625.9,326.6c0.1,0,0.2,1.9,0.2,4.8c0,3-0.1,7.1-0.2,11.7c-0.1,4.6-0.3,8.7-0.4,11.7
			c-0.1,3-0.3,4.8-0.4,4.8c-0.1,0-0.2-1.8-0.2-4.8c0-3,0.1-7.1,0.2-11.7c0.1-4.6,0.3-8.7,0.4-11.7
			C625.7,328.4,625.8,326.6,625.9,326.6"/>
		<path id="XMLID_57_" class="st7" d="M680,333.6c0,0-0.5,0.5-1.4,1.3c-1.1,0.9-2.4,2-3.9,3.4c-3.3,2.9-7.9,6.8-12.8,11.4
			c-4.9,4.6-9.2,8.8-12.3,11.9c-1.5,1.5-2.7,2.7-3.7,3.7c-0.9,0.9-1.4,1.3-1.4,1.3c0,0,0.4-0.6,1.2-1.5c0.8-0.9,2-2.3,3.5-3.9
			c3-3.2,7.2-7.6,12.2-12.1c4.9-4.6,9.5-8.5,13-11.2c1.7-1.4,3.1-2.5,4.1-3.2C679.4,333.9,679.9,333.6,680,333.6"/>
		<path id="XMLID_56_" class="st7" d="M683.4,362.2c0,0-0.6-0.2-1.7-0.7c-1.1-0.5-2.7-1.2-4.6-2.2c-3.8-1.9-9.1-4.7-14.7-8
			c-5.6-3.4-10.5-6.7-14-9.2c-1.7-1.3-3.1-2.3-4.1-3c-0.9-0.7-1.4-1.2-1.4-1.2c0,0,0.6,0.3,1.6,1c1.1,0.8,2.5,1.7,4.2,2.8
			c3.5,2.4,8.5,5.6,14.1,9c5.6,3.4,10.8,6.2,14.5,8.2c1.8,0.9,3.3,1.7,4.5,2.4C682.9,361.9,683.4,362.2,683.4,362.2"/>
		<path id="XMLID_55_" class="st14" d="M514.3,310.3c3.8-6.9,2.1-16-2.8-22.1c-5-6.1-12.7-9.5-20.5-10.9c-4.8-0.8-9.7-0.9-14.4-2.2
			c-4.7-1.2-9.3-3.8-11.5-8.2c-1.1,5.3-0.4,10.9,2.2,15.6c-2.7-0.6-5.3-1.6-7.6-3.2c0,9.7,2.4,19.5,8.1,27.4
			c5.7,7.8,14.8,13.4,24.5,13.5c9.7,0.1,19.4-5.9,22.6-15"/>
		<path id="XMLID_54_" class="st8" d="M459.7,275.7c-0.4,4.7,0.2,13.7,2,18.1c0.7,1.7,1.6,3.3,2.9,4.5c1.3,1.2,3.2,2,5,1.6
			c2.8-0.6,4.6-3.6,7.4-4c3.4-0.4,6.1,3.1,9.5,3.2c2.8,0.1,5.1-2.2,6.1-4.8c1-2.6,1.1-5.4,1.5-8.1c0.4-2.7,1.2-5.6,3.4-7.4
			c0,0-7.8-3.1-18-4.3c-10.2-1.2-14.3-10.4-14.3-10.4s-3.1,11,2.3,18.6L459.7,275.7z"/>
		<path id="XMLID_53_" class="st5" d="M511.5,331.5l232.3,169.9c6.6,4.8,15.8,3.4,20.6-3.1c5-6.6,3.5-16-3.2-20.9L528.1,308
			L511.5,331.5z"/>
		<path id="XMLID_52_" class="st15" d="M729.5,358.1l-23.8,15l3.9,10.1l-53.3,22l-14.6,0.7l-10.8-2c0,0-0.9,1.3,0.9,3.2
			c1,1.1,3.6,2,5.7,2.7l-8,7.3l10.5,13.2l35.8-8.6c19.8-3.4,67-12.8,67.1-26.6C742.8,382.6,729.5,358.1,729.5,358.1"/>
		<path id="XMLID_51_" class="st15" d="M538.1,333.8c0.5-1.6,1.9-2.8,3.4-2c0.7,0.8,0.7,1.8,0.5,2.5l-4.7,15.2l0,0l4.4-10.7
			c0.5-1.6,2-2.6,3-1.7c0.6,0.5,0.6,1.8,0.4,2.5l-4,12.6l3.3-7.9c0.7-1.8,1.5-2.3,2.4-1.9c0.9,0.4,0.9,1.7,0.7,2.4l-2.8,9.3
			c0.6,1.8,2.7,7.4,0.7,10.6c-0.1,0.2,0.2,0.7,0.2,0.9l0.9,1.1l-6.1,5.7c-3.1-2.8-6-14.5-6.9-18.9c-0.8-3.8-0.1-6.3,0.3-7.6
			L538.1,333.8z"/>
		<polygon id="XMLID_50_" class="st4" points="528.1,308 515.6,298.1 499.3,321.9 511.5,331.5 		"/>
	</g>
	<g>
		<defs>
			<rect id="XMLID_1_" x="4.7" y="78.4" width="792.4" height="642.5"/>
		</defs>
		<clipPath id="XMLID_320_">
			<use xlink:href="#XMLID_1_"  style="overflow:visible;"/>
		</clipPath>
		<path id="XMLID_49_" class="st18" d="M317.3,263.1l-6-17.7l0.6-10l7.8,7.6l11.7,33c0.8,2.3-0.4,4.7-2.7,5.4
			c-2.1,0.6-4.3-0.4-5.1-2.5L317.3,263.1z"/>
		<path id="XMLID_48_" class="st19" d="M327.7,277.1c-0.1,0-0.8-1.8-2-4.8c-1.2-3.2-2.7-7.2-4.3-11.7c-1.6-4.5-3.1-8.5-4.3-11.7
			c-0.5-1.3-1-2.5-1.3-3.5c-0.3-0.8-0.5-1.3-0.5-1.3c0.1-0.1,1.1,1.7,2.3,4.6c1.2,2.9,2.8,7,4.5,11.6c1.7,4.6,3.1,8.7,4.1,11.7
			C327.2,275.1,327.8,277,327.7,277.1"/>
		<polygon id="XMLID_47_" class="st19" points="311.9,235.4 311.5,241.8 316.4,239.8 		"/>
		<path id="XMLID_46_" class="st19" d="M319.3,242.9c0.1,0.2-1.7,0.9-3.9,1.6c-2.2,0.7-4.1,1.1-4.1,0.9c-0.1-0.2,1.7-0.9,3.9-1.6
			C317.4,243.1,319.2,242.7,319.3,242.9"/>
		<path id="XMLID_45_" class="st20" d="M330.1,264.7l1.5-5.2c0.4-1.2-0.4-2.5-1.7-2.8l-5.6-1.2c0,0-0.9,1.3-0.4,2.3
			c0.6,1,4.4,2,4.4,2l-0.5,5.3L330.1,264.7z"/>
		<path id="XMLID_44_" class="st21" d="M202.2,340.8L202.2,340.8c7.6,0.6,14.1-5.3,14.4-12.9c0.3-7.3,0.5-14.7,0.5-14.7
			s11.1-1,11.9-12s0.4-36.2,0.4-36.2c-12.3-6.2-27.1-5.3-38.5,2.5l-1.7,1.2l0.6,58.9C189.9,334.5,195.3,340.3,202.2,340.8"/>
		<polygon id="XMLID_43_" class="st22" points="221.6,540.3 254.4,691.3 279.1,690.7 257.6,546.3 		"/>
		<polygon id="XMLID_42_" class="st22" points="161.2,535.2 153.2,682.7 177.5,688.5 195.8,538.3 		"/>
		<polygon id="XMLID_41_" class="st19" points="261.1,546.6 247.7,433.1 169,431.7 159.8,537.3 		"/>
		<path id="XMLID_40_" class="st18" d="M236,461.6c0,0.2-12.7,1.9-28.4,3.8c-15.7,1.9-28.5,3.2-28.5,3c0-0.2,12.7-1.9,28.4-3.8
			C223.2,462.7,236,461.4,236,461.6"/>
		<path id="XMLID_39_" class="st23" d="M282.5,693.3l-0.1-2.8l-28,0.8l0.2,9.1l1.7,0.1c7.7,0.2,39.2,0.5,44.2-1.1
			C306.3,697.6,282.5,693.3,282.5,693.3"/>
		<g class="st24">
			<g>
				<defs>
					<rect id="XMLID_37_" x="254.4" y="692.8" width="10.3" height="7.3"/>
				</defs>
				<clipPath id="XMLID_321_">
					<use xlink:href="#XMLID_37_"  style="overflow:visible;"/>
				</clipPath>
				<path id="XMLID_38_" class="st25" d="M264.7,700c-0.5-2.2-1.8-4.1-3.7-5.4c-1.9-1.3-4.2-1.9-6.6-1.7l0.2,7.2L264.7,700z"/>
			</g>
		</g>
		<g class="st24">
			<g>
				<defs>
					<rect id="XMLID_35_" x="254.6" y="695.8" width="46.9" height="5"/>
				</defs>
				<clipPath id="XMLID_322_">
					<use xlink:href="#XMLID_35_"  style="overflow:visible;"/>
				</clipPath>
				<path id="XMLID_36_" class="st26" d="M294.1,695.8c0,0,8.4,2,7.4,3.3c-1,1.3-32.8,2.1-46.9,1.4l0-0.6l37.1-0.7
					C291.8,699.2,292.5,695.9,294.1,695.8"/>
			</g>
		</g>
		<path id="XMLID_34_" class="st19" d="M254.2,699.8c0,0,0.2,0,0.5,0c0.4,0,0.9,0,1.4,0c1.4,0,3.1,0,5.1,0.1c4.3,0,10.2,0,16.7-0.2
			c6.5-0.2,12.4-0.4,16.7-0.7c2-0.1,3.7-0.2,5.1-0.3c0.5,0,1-0.1,1.4-0.1c0.3,0,0.5,0,0.5-0.1c0,0-0.2,0-0.5,0c-0.4,0-0.9,0-1.4,0.1
			c-1.4,0.1-3.1,0.1-5.1,0.2c-4.3,0.2-10.2,0.4-16.7,0.6c-6.5,0.2-12.4,0.2-16.7,0.3c-2,0-3.7,0-5.1,0c-0.5,0-1,0-1.4,0
			C254.4,699.8,254.2,699.8,254.2,699.8"/>
		<path id="XMLID_33_" class="st19" d="M291.8,699.6c0.1,0,0.1-1.1,0.9-2.3c0.7-1.2,1.7-1.8,1.7-1.8c0-0.1-1.2,0.4-2,1.7
			C291.6,698.4,291.7,699.6,291.8,699.6"/>
		<path id="XMLID_32_" class="st19" d="M283.4,695.9c0.1,0,0.5-0.4,0.8-1c0.4-0.6,0.6-1.1,0.6-1.2c-0.1,0-0.5,0.4-0.8,1
			C283.6,695.3,283.3,695.9,283.4,695.9"/>
		<path id="XMLID_31_" class="st19" d="M281.1,694.9c0.1,0.1,0.5-0.2,1-0.6c0.5-0.4,0.8-0.8,0.7-0.9c-0.1-0.1-0.5,0.2-1,0.6
			C281.4,694.4,281.1,694.8,281.1,694.9"/>
		<path id="XMLID_30_" class="st19" d="M279.6,692.5c0,0.1,0.7,0.1,1.5,0.1c0.8,0,1.5-0.1,1.5-0.2c0-0.1-0.7-0.1-1.5-0.1
			C280.3,692.3,279.6,692.4,279.6,692.5"/>
		<path id="XMLID_29_" class="st19" d="M279.1,690.7c0,0.1,0.7,0.4,1.6,0.4c0.9,0,1.7-0.2,1.7-0.3c0-0.1-0.8,0-1.7-0.1
			C279.8,690.8,279.1,690.7,279.1,690.7"/>
		<path id="XMLID_28_" class="st19" d="M284.3,693.6c0,0,0.7,0.1,1.8-0.1c0.5-0.1,1.2-0.2,1.9-0.4c0.3-0.1,0.7-0.2,1.1-0.4
			c0.2-0.1,0.4-0.3,0.4-0.5c0.1-0.3-0.1-0.5-0.3-0.7c-1.7-0.8-3.4,0.2-4,1c-0.3,0.4-0.5,0.8-0.6,1.1c-0.1,0.3-0.1,0.4,0,0.5
			c0.1,0,0.1-0.7,0.8-1.4c0.3-0.4,0.8-0.8,1.5-1c0.6-0.2,1.5-0.3,2.1,0.1c0.3,0.2,0.2,0.5-0.1,0.7c-0.3,0.2-0.7,0.3-1,0.4
			c-0.7,0.2-1.3,0.4-1.8,0.5C285,693.6,284.3,693.6,284.3,693.6"/>
		<path id="XMLID_27_" class="st19" d="M284.8,693.7c0,0,0.3-0.4,0.2-1.2c-0.1-0.4-0.2-0.8-0.5-1.2c-0.3-0.4-0.7-0.9-1.5-0.8
			c-0.4,0.1-0.6,0.5-0.5,0.8c0,0.3,0.2,0.5,0.3,0.7c0.3,0.4,0.6,0.7,0.9,1c0.6,0.5,1,0.7,1,0.6c0,0-0.4-0.3-0.9-0.8
			c-0.3-0.3-0.5-0.6-0.8-1c-0.3-0.3-0.4-1,0-1.1c0.4-0.1,0.9,0.4,1.2,0.7c0.3,0.4,0.5,0.7,0.5,1.1
			C284.9,693.2,284.7,693.7,284.8,693.7"/>
		<path id="XMLID_26_" class="st19" d="M254.6,692.7c0,0.1,0.8-0.1,2.1,0c1.3,0.1,3,0.5,4.5,1.6c1.5,1.1,2.5,2.5,2.9,3.6
			c0.5,1.1,0.5,1.8,0.6,1.8c0,0,0-0.2,0-0.5c0-0.3-0.1-0.8-0.3-1.4c-0.4-1.1-1.3-2.7-2.9-3.8c-1.6-1.1-3.4-1.5-4.7-1.6
			c-0.6,0-1.2,0-1.5,0.1C254.8,692.7,254.6,692.7,254.6,692.7"/>
		<path id="XMLID_25_" class="st19" d="M268.1,697.3c0,0.1,1.8,0.3,4.1,0.3c2.3,0,4.1-0.3,4.1-0.4c0-0.1-1.8,0.1-4.1,0.1
			C270,697.3,268.2,697.2,268.1,697.3"/>
		<path id="XMLID_24_" class="st19" d="M262.7,697.5c-0.1,0.1,0.2,0.4,0.4,0.7c0.2,0.4,0.3,0.7,0.4,0.7c0.1,0,0.1-0.4-0.1-0.9
			C263.1,697.6,262.7,697.4,262.7,697.5"/>
		<path id="XMLID_23_" class="st19" d="M260.6,695.1c-0.1,0.1,0.1,0.3,0.4,0.6c0.3,0.3,0.6,0.4,0.7,0.4c0.1-0.1-0.1-0.3-0.4-0.6
			C260.9,695.2,260.6,695.1,260.6,695.1"/>
		<path id="XMLID_22_" class="st19" d="M257.6,694.1c0,0.1,0.4,0.1,0.8,0.2c0.4,0.1,0.7,0.3,0.8,0.3c0.1-0.1-0.2-0.4-0.7-0.6
			C258,693.9,257.5,694.1,257.6,694.1"/>
		<path id="XMLID_21_" class="st19" d="M255.5,693.7c0,0.1,0.1,0.2,0.4,0.3c0.2,0.1,0.4,0.1,0.5,0c0-0.1-0.1-0.2-0.4-0.3
			C255.7,693.6,255.5,693.6,255.5,693.7"/>
		<polygon id="XMLID_20_" class="st23" points="152.5,681.4 148.4,699.6 176.3,699.6 177.5,687.8 		"/>
		<path id="XMLID_19_" class="st19" d="M176.9,697c0,0.1-1.6,0.2-4.1,0.2c-2.5,0-6,0-9.8-0.2c-3.7-0.2-7-0.3-9.8-0.4
			c-2.5-0.1-4.1-0.2-4.1-0.3c0-0.1,1.6-0.2,4.1-0.2c2.5,0,6,0,9.8,0.2c3.7,0.2,7,0.3,9.8,0.4C175.4,696.8,176.9,696.9,176.9,697"/>
		<path id="XMLID_18_" class="st19" d="M165.1,685c0.2,0,0.2,2.7,0,5.9c-0.2,3.2-0.6,5.9-0.8,5.8c-0.2,0-0.2-2.7,0-5.9
			C164.5,687.6,164.8,684.9,165.1,685"/>
		<g class="st24">
			<g>
				<defs>
					<rect id="XMLID_16_" x="148.4" y="696.3" width="28.3" height="3.3"/>
				</defs>
				<clipPath id="XMLID_323_">
					<use xlink:href="#XMLID_16_"  style="overflow:visible;"/>
				</clipPath>
				<polyline id="XMLID_17_" class="st27" points="148.4,699.6 176.3,699.6 176.6,697 148.9,696.3 148.4,699.3 				"/>
			</g>
		</g>
		<path id="XMLID_15_" class="st22" d="M330.7,259l-13.5,5c-0.1-4.1-2.9-8.3-2.9-6.3c0,2-1,12.6-1,12.6l-21.3,37
			c-3,5.9-8.3,9.3-12.1,9.9l-17.5,3.7l4.9,23.1l24.3-6c6.3-1.6,11.5-6,14-12l20.2-48.5c0,0,2.4-5.5,3.4-9.6
			C330.4,263.9,330.7,259,330.7,259"/>
		<path id="XMLID_14_" class="st28" d="M142,373.4c0,0,20.3-41.4,21.8-42.6c9.7-8,22-7.2,22-7.2l33.8,0.3c0,0,26.6-3.3,42.1-6
			l6.8,31.8l-29.8,7.2L236,393l6.6,27.5c1.5,3.3,2.7,6.6,3.7,10.1l0.9,3.2l-78.3,0.8c-0.3-9.2,10.2-31.8,10.2-31.8l-5.7-35.6
			l-2.8,13.6L142,373.4z"/>
		<path id="XMLID_13_" class="st29" d="M237.6,365.7c0,0.1-1.5-0.6-4.1,0c-1.3,0.3-2.8,1-4.4,2c-1.6,1-3.2,2.5-5.1,4.1
			c-1.9,1.5-4.1,3.2-7,3.8c-2.9,0.6-6.1,0.3-9.1-0.9c-3-1.1-6-3-8.6-5.3c-2.7-2.3-5.1-4.9-7.8-7.5c-2.7-2.5-5.5-4.8-8.6-6.3
			c-3.1-1.5-6.3-2.5-9.5-2.9c-6.3-0.8-12.1,0.6-16.4,2.7c-4.3,2.1-7.3,4.8-9.1,6.7c-0.9,1-1.6,1.8-2,2.4c-0.4,0.6-0.7,0.9-0.7,0.8
			c0,0,0.2-0.3,0.6-0.9c0.4-0.6,1-1.5,1.9-2.5c1.8-2,4.7-4.8,9.1-7c4.3-2.2,10.2-3.7,16.7-2.9c3.2,0.4,6.5,1.3,9.7,2.9
			c3.2,1.5,6.1,3.8,8.8,6.4c2.7,2.5,5.2,5.2,7.8,7.5c2.6,2.3,5.4,4.1,8.3,5.3c2.9,1.1,6,1.5,8.7,0.9c2.7-0.5,4.9-2.1,6.8-3.6
			c1.9-1.5,3.5-3,5.2-4c1.6-1,3.2-1.7,4.6-1.9c1.3-0.3,2.4-0.2,3.1,0C237.2,365.5,237.6,365.7,237.6,365.7"/>
		<path id="XMLID_12_" class="st29" d="M236.1,398.6c0,0.1-0.9,0.1-2.5,0.5c-1.6,0.4-3.7,1.2-6.2,2.8c-2.5,1.5-5.1,3.7-8.4,5.8
			c-3.3,2-7.3,3.8-11.7,4.4c-4.4,0.7-8.7,0.5-12.5-0.4c-3.8-0.8-7-2.2-9.5-3.7c-1.3-0.7-2.3-1.5-3.3-2.2c-0.9-0.7-1.7-1.4-2.2-1.9
			c-1.1-1.2-1.7-1.8-1.7-1.9c0.2-0.2,2.4,2.8,7.5,5.5c2.5,1.4,5.7,2.7,9.4,3.4c3.7,0.8,7.9,1,12.2,0.3c4.3-0.7,8.2-2.3,11.4-4.3
			c3.2-2,5.9-4.2,8.5-5.6c2.5-1.5,4.8-2.3,6.4-2.6c0.8-0.1,1.4-0.2,1.9-0.2C235.9,398.5,236.1,398.5,236.1,398.6"/>
		<path id="XMLID_11_" class="st29" d="M247.4,328.5c0-0.1,1-0.5,2.8-0.8c1.8-0.3,4.3-0.2,7,0.6c2.7,0.8,4.8,2.2,6.2,3.3
			c1.4,1.2,2,2.1,1.9,2.2c-0.1,0.1-0.9-0.7-2.3-1.8c-1.4-1-3.5-2.3-6.1-3c-2.6-0.7-5-0.9-6.7-0.8
			C248.5,328.4,247.4,328.6,247.4,328.5"/>
		<path id="XMLID_10_" class="st29" d="M198.6,431.7c0-0.2,2.5-0.1,6.3-1.5c1.9-0.7,4-1.7,6.3-3c2.3-1.4,4.8-2.8,7.4-4.4
			c2.7-1.5,5.4-2.8,7.9-3.6c2.6-0.8,5-1.1,7-1.1c2-0.1,3.7,0.1,4.8,0.3c1.1,0.2,1.7,0.4,1.7,0.4c0,0.1-2.5-0.4-6.4-0.2
			c-2,0.1-4.3,0.5-6.8,1.3c-2.5,0.8-5.1,2-7.8,3.5c-2.7,1.5-5.1,3-7.5,4.3c-2.3,1.3-4.5,2.3-6.5,2.9c-1,0.3-1.9,0.5-2.6,0.7
			c-0.8,0.1-1.5,0.2-2,0.3C199.2,431.7,198.6,431.7,198.6,431.7"/>
		<path id="XMLID_9_" class="st22" d="M330.7,259v-3.4c0-0.9-0.6-1.7-1.4-1.9l-6.3-2.2c0,0-0.9,1.3-0.4,2.3c0.6,1,4.4,2,4.4,2
			l-0.5,5.3L330.7,259z"/>
		<path id="XMLID_8_" class="st22" d="M145.4,374.2c0,0-11.9,21.8-3.4,30.1c8,7.8,36.5-5.6,36.5-5.6l-2.8-17.6l-14.2,5.1l3.3-7
			L145.4,374.2z"/>
		<path id="XMLID_7_" class="st19" d="M224.9,254.8c19.5,3.6,9.7,28.8,13.9,37c1.6,3.1,4.4,5.5,6.6,8.2c2.2,2.8,3.8,6.3,2.4,9.4
			c-1.2,2.7-4.4,5-3.9,7.8c0.3,1.5,1.5,2.7,2.5,4c2.3,3.2,2.6,7.3,1.3,10.9c-1.3,3.6-4,6.7-7.3,9.3c-9.5,7.4-24.2,9.6-36.1,5.5
			c-3.5-1.2-7.1-3-10.9-2.5c-2.3,0.3-4.3,1.5-6.5,2.3c-8.4,2.9-18.9-1.3-22.8-8.3c-3.9-7-1.7-15.7,4-21.7c4.1-4.3,10.3-8,10.7-13.5
			c0.4-5.4-5.2-10.9-2.6-15.9c1.6-3.2,6.2-4.9,7.8-8.1c1.7-3.4-0.3-7.2-0.4-10.9c-0.1-5,3.2-9.5,7-13.3c4.8-4.8,10.9-9.1,18.2-9.9
			C216.1,244.4,224.4,248.6,224.9,254.8"/>
		<path id="XMLID_6_" class="st18" d="M214.5,349.6c0-0.1,1.6,0.1,4.3-0.9c1.3-0.5,2.9-1.3,4.3-2.7c1.5-1.4,2.8-3.3,3.4-5.7
			c0.7-2.4,0.7-5.3-0.4-8c-0.5-1.4-1.1-2.8-1.7-4.3c-0.6-1.5-1.1-3.1-1.2-4.9c-0.1-1.8,0.5-3.6,1.6-5.1c1.1-1.5,2.5-2.7,4-3.8
			c1.5-1.1,2.9-2.3,4.1-3.7c1.2-1.4,1.9-3.2,1.7-5c-0.2-1.8-1.3-3.5-2.5-4.9c-1.2-1.5-2.5-2.8-3.6-4.4c-1.1-1.5-1.8-3.4-1.9-5.2
			c-0.1-1.8,0.3-3.6,0.7-5.2c1-3.3,2.3-6.2,3-9.1c0.7-2.9,1-5.7,0.8-8.2c-0.4-5.1-3.2-8.6-5.4-10.3c-2.3-1.7-4-1.7-4-1.9
			c0,0,0.1,0,0.3,0c0.2,0,0.5,0.1,0.8,0.2c0.7,0.2,1.8,0.6,3,1.4c2.4,1.6,5.3,5.2,5.8,10.4c0.3,2.6,0,5.5-0.7,8.4
			c-0.7,3-1.9,6-2.9,9.2c-0.4,1.6-0.8,3.3-0.7,5c0.1,1.7,0.8,3.3,1.8,4.8c1,1.5,2.3,2.8,3.5,4.3c1.2,1.5,2.4,3.2,2.6,5.3
			c0.3,2.1-0.7,4.1-1.9,5.6c-1.2,1.5-2.8,2.7-4.2,3.8c-1.4,1.1-2.8,2.3-3.8,3.6c-1,1.4-1.5,3-1.5,4.6c0.2,3.3,1.9,6.1,2.8,9
			c1.1,2.9,1.1,5.9,0.3,8.4c-0.7,2.5-2.1,4.5-3.7,5.9c-1.5,1.4-3.2,2.2-4.5,2.7c-1.4,0.5-2.5,0.6-3.3,0.6c-0.4,0-0.7,0-0.9,0
			C214.6,349.6,214.5,349.6,214.5,349.6"/>
		<path id="XMLID_5_" class="st18" d="M184.7,276.5c0,0-0.1-0.8-0.2-2.3c0-1.5-0.1-3.6,0.3-6.2c0.3-2.6,1.1-5.7,3-8.7
			c1.9-3,4.8-5.7,8.4-7.6c7.2-3.9,15.2-3.8,20-1.4c2.4,1.2,3.9,2.8,4.6,4.2c0.4,0.7,0.5,1.2,0.6,1.6c0.1,0.4,0.1,0.6,0.1,0.6
			c-0.1,0-0.2-0.8-0.9-2c-0.7-1.2-2.2-2.8-4.6-3.8c-4.6-2.2-12.4-2.2-19.4,1.6c-3.4,1.9-6.3,4.4-8.1,7.3c-1.9,2.8-2.7,5.9-3.1,8.4
			c-0.4,2.6-0.5,4.7-0.5,6.1C184.8,275.7,184.8,276.5,184.7,276.5"/>
		<path id="XMLID_4_" class="st18" d="M217.7,260.3c0,0.1-1.4-0.5-3.8,0.1c-2.3,0.6-5.7,2.9-7.2,7.1c-0.8,2.1-1.1,4.5-1.2,7.2
			c-0.1,2.6,0.1,5.5-0.1,8.5c-0.2,3-0.6,6.2-2.3,9.2c-1.6,3-4.7,4.9-6,7.9c-0.6,1.5-0.5,3.2-0.2,4.8c0.4,1.6,0.9,3.1,1.4,4.7
			c0.5,1.6,0.8,3.2,0.8,4.8c-0.1,1.6-0.6,3.2-1.3,4.5c-1.4,2.7-3.3,4.8-4.9,7c-1.6,2.1-2.8,4.3-3.1,6.5c-0.4,2.2,0.1,4.2,0.7,5.8
			c0.6,1.7,1.5,3,2.1,4c0.7,1.1,1.2,1.9,1.6,2.4c0.4,0.5,0.6,0.8,0.5,0.9s-0.3-0.2-0.7-0.8c-0.4-0.5-1-1.3-1.7-2.3
			c-0.7-1-1.6-2.3-2.3-4c-0.7-1.7-1.2-3.8-0.9-6.1c0.3-2.3,1.6-4.6,3.1-6.7c1.5-2.2,3.4-4.3,4.8-6.9c0.6-1.3,1.2-2.7,1.2-4.2
			c0.1-1.5-0.3-3-0.7-4.6c-0.5-1.5-1.1-3.1-1.4-4.8c-0.4-1.7-0.5-3.5,0.2-5.2c0.7-1.7,1.9-3,3-4.3c1.1-1.2,2.3-2.4,3-3.8
			c1.6-2.8,2-5.9,2.2-8.8c0.2-3,0-5.8,0.1-8.5c0.1-2.7,0.5-5.2,1.3-7.3c1.6-4.4,5.2-6.7,7.6-7.2c1.3-0.3,2.3-0.2,2.9-0.1
			c0.3,0.1,0.6,0.2,0.7,0.2C217.7,260.3,217.7,260.3,217.7,260.3"/>
		<polygon id="XMLID_3_" class="st20" points="161.1,537.4 160.9,540.3 194.4,549.8 195.5,540.6 		"/>
		<polygon id="XMLID_2_" class="st20" points="222.4,543.6 223.3,548.1 258.7,554 257.6,546.3 		"/>
	</g>
</g>
</svg>
