<svg id="Layer_1" data-name="Layer 1" xmlns="http://www.w3.org/2000/svg" viewBox="0 0 106.24 86.43"><defs><style>.cls-1,.cls-21{opacity:0.08;}.cls-2{fill:#005176;}.cls-3{fill:#0c6796;}.cls-4{fill:#005680;}.cls-5{fill:#004361;}.cls-6{fill:#4689af;}.cls-7{fill:#4399c6;}.cls-8{opacity:0.16;}.cls-9{fill:#184462;}.cls-10{fill:#884e2f;}.cls-11{fill:#69a4b3;}.cls-12{fill:#303030;}.cls-13{fill:#57453f;}.cls-14{fill:#534741;}.cls-15{fill:#1e3f4b;}.cls-16{fill:#335b6f;}.cls-17{fill:#aabdc7;}.cls-18{fill:#bbd0db;}.cls-19{fill:#f8951e;}.cls-20,.cls-21,.cls-29{fill:#fff;}.cls-22{fill:#446785;}.cls-23{fill:#d8d9da;}.cls-24{fill:#2c5672;}.cls-25{fill:#b1b2b4;}.cls-26{fill:#5582a0;}.cls-27{opacity:0.14;}.cls-28{fill:#112e38;}.cls-29{opacity:0.15;}.cls-30{fill:#4d788a;}.cls-31{opacity:0.23;}.cls-32{opacity:0.34;}.cls-33{fill:#00547e;}.cls-34{fill:#88a7bb;}</style></defs><path class="cls-1" d="M414.17,448.42l5.37-.51c5.93-.58,11.85-1,17.79-1.3a86.29,86.29,0,0,1,12.66,0c3.62.32,8,1,10.79,3.34,1.57,1.34.9,3-1.4,4.17s-5.53,1.24-8.23,1.4c-25.32,1.58-50.51-.49-75.85-.4-3.58,0-7.23.21-10.81.34-2.17.08-5,.43-7.14-.07-1.35-.32-1.25-1.43-.22-2,1.87-1.05,4.7-1.17,6.84-1.29q8.37-.46,16.75-1Q397.46,449.93,414.17,448.42Z" transform="translate(-355.39 -369.67)"/><path class="cls-2" d="M427.19,390.29a4.14,4.14,0,1,0,5.25-2.58A4.13,4.13,0,0,0,427.19,390.29Zm2.53.87a1.46,1.46,0,1,1,.91,1.85A1.46,1.46,0,0,1,429.72,391.16Z" transform="translate(-355.39 -369.67)"/><path class="cls-3" d="M418.24,389.48a13.12,13.12,0,0,0-.17,2.57l-2.14.74.7,3.54,2.26-.14a12.49,12.49,0,0,0,1.14,2.32l-1.49,1.71,2.38,2.72,1.89-1.25a13.81,13.81,0,0,0,2.14,1.44l-.43,2.22,3.42,1.16,1-2a13.22,13.22,0,0,0,2.58.17l.74,2.14,3.53-.7-.13-2.26A13.49,13.49,0,0,0,438,402.7l1.71,1.49,2.71-2.38-1.25-1.89a12.22,12.22,0,0,0,1.44-2.15l2.23.44,1.16-3.42-2-1a13.23,13.23,0,0,0,.18-2.58l2.14-.74-.7-3.53-2.27.13a12.8,12.8,0,0,0-1.14-2.32l1.49-1.71-2.37-2.71-1.89,1.24a13.17,13.17,0,0,0-2.15-1.43l.43-2.23-3.41-1.16-1,2a13.13,13.13,0,0,0-2.57-.18l-.74-2.14-3.54.7.13,2.27a13.35,13.35,0,0,0-2.31,1.13l-1.71-1.48-2.72,2.37,1.25,1.89a13.22,13.22,0,0,0-1.44,2.15l-2.22-.43-1.17,3.41ZM440.89,394l-6.74-2.29a3,3,0,0,0-1.28-2.61l2.29-6.74A10.08,10.08,0,0,1,440.89,394Zm-9.91.64a3.06,3.06,0,0,0,2.61-1.29l6.74,2.3a10.08,10.08,0,0,1-11.64,5.72Zm-.35-1.67a1.46,1.46,0,1,1,1.85-.91A1.46,1.46,0,0,1,430.63,393Zm-9.31-3.8,6.73,2.3a3.08,3.08,0,0,0,1.29,2.61l-2.3,6.73A10.07,10.07,0,0,1,421.32,389.21Zm.56-1.64a10.07,10.07,0,0,1,11.64-5.73l-2.3,6.74a3.06,3.06,0,0,0-2.61,1.28Z" transform="translate(-355.39 -369.67)"/><path class="cls-2" d="M420,387.83a11.77,11.77,0,1,1,7.35,14.94A11.78,11.78,0,0,1,420,387.83Zm.47.16a11.27,11.27,0,1,0,14.31-7A11.29,11.29,0,0,0,420.43,388Z" transform="translate(-355.39 -369.67)"/><path class="cls-4" d="M421.11,390.29A10.08,10.08,0,0,0,427,400.85l.81-2.38c.48.42,1,.81,1.44,1.18l-.6,1.76a10,10,0,0,0,3.43.25,38,38,0,0,0,3.74,2.1l-.19.08.13,2.26-3.53.7-.74-2.14a13.22,13.22,0,0,1-2.58-.17l-1,2-3.42-1.16.43-2.22a13.81,13.81,0,0,1-2.14-1.44l-1.89,1.25-2.38-2.72,1.49-1.71a12.49,12.49,0,0,1-1.14-2.32l-2.26.14-.7-3.54,2.14-.74a13.12,13.12,0,0,1,.17-2.57l-2-1,1.17-3.41,1.51.29A30.28,30.28,0,0,0,421.11,390.29Z" transform="translate(-355.39 -369.67)"/><path class="cls-5" d="M420.24,388.62a11.27,11.27,0,0,0,13.44,14l.62.35a11.76,11.76,0,0,1-14.38-15C420,388.17,420.13,388.4,420.24,388.62Z" transform="translate(-355.39 -369.67)"/><path class="cls-6" d="M436.8,379.86s.43-1.78.43-1.78l-2.73-.91A5.11,5.11,0,0,1,436.8,379.86Z" transform="translate(-355.39 -369.67)"/><path class="cls-7" d="M386.64,407.89l-1.2.6c.06.45.14.91.24,1.36s.22.89.36,1.33l1.34,0a1.94,1.94,0,0,1,1.57,3l-.74,1.12a13.74,13.74,0,0,0,1.87,2l1.17-.64a2,2,0,0,1,2.87,1.82l-.08,1.34a14.49,14.49,0,0,0,2.62.83l.7-1.15a2,2,0,0,1,3.4.15l.6,1.19a12.69,12.69,0,0,0,1.35-.23c.45-.1.9-.23,1.33-.37l0-1.34a1.93,1.93,0,0,1,3-1.57l1.13.74a14.19,14.19,0,0,0,2-1.86l-.64-1.18a1.94,1.94,0,0,1,1.82-2.86l1.34.07a13.49,13.49,0,0,0,.82-2.62l-1.14-.7a1.94,1.94,0,0,1,.14-3.39l1.2-.6c-.06-.45-.14-.91-.24-1.36s-.22-.89-.36-1.33l-1.34,0a1.94,1.94,0,0,1-1.57-3l.74-1.12a13.74,13.74,0,0,0-1.87-2l-1.17.64a2,2,0,0,1-2.87-1.82l.08-1.34a14.49,14.49,0,0,0-2.62-.83l-.7,1.15a2,2,0,0,1-3.4-.15l-.6-1.19a12.69,12.69,0,0,0-1.35.23c-.45.1-.9.23-1.33.37l0,1.34a1.94,1.94,0,0,1-3,1.57l-1.13-.74a14.19,14.19,0,0,0-2,1.86l.64,1.18a1.94,1.94,0,0,1-1.82,2.86l-1.34-.07a13.28,13.28,0,0,0-.82,2.62l1.14.7A1.94,1.94,0,0,1,386.64,407.89Zm11.83-2.65-.14.12c-.06.05-.11.12-.17.18l-5.66-.85a7.44,7.44,0,0,1,3.8-4.57.82.82,0,0,1,1.15.55Zm5.95-2.76-3.92,2.61a1.91,1.91,0,0,0-.5-.19l-1-4.57a.8.8,0,0,1,.8-1,7.4,7.4,0,0,1,4.73,1.86A.81.81,0,0,1,404.42,402.48Zm-4.73,3.13a1.13,1.13,0,1,1-1.21,1.05A1.13,1.13,0,0,1,399.69,405.61Zm1.78,1.33a1.94,1.94,0,0,0,0-.59l3.88-2.59a.81.81,0,0,1,1.21.38,8.07,8.07,0,0,1,.29,1,7.42,7.42,0,0,1-.41,4.51.82.82,0,0,1-1.26.31Zm-4.13,5.85,2.07-4.18a1.89,1.89,0,0,0,1.25-.32l3.59,2.95a.8.8,0,0,1,0,1.25,7.35,7.35,0,0,1-6.37,1.44A.8.8,0,0,1,397.34,412.79Zm-4.19-6.42,4.61.69a1.8,1.8,0,0,0,.3.75L396,412a.8.8,0,0,1-1.25.26,7.31,7.31,0,0,1-2.33-3.94,6.41,6.41,0,0,1-.16-1.13A.8.8,0,0,1,393.15,406.37Z" transform="translate(-355.39 -369.67)"/><g class="cls-8"><path class="cls-9" d="M390.19,406a9.44,9.44,0,1,1,8.71,10.12A9.45,9.45,0,0,1,390.19,406Zm1.86.14a7.58,7.58,0,1,0,8.12-7A7.59,7.59,0,0,0,392.05,406.17Z" transform="translate(-355.39 -369.67)"/></g><polygon class="cls-10" points="25.72 42.39 26.81 42.51 27.56 41.9 27.77 41.99 27.66 42.25 28.43 41.92 29.08 42.1 29.37 42.94 29.07 43.81 28.19 44.02 27.17 43.72 25.68 43.63 25.72 42.39"/><polygon class="cls-11" points="26.1 41.77 15.29 40.98 12.53 37.71 8.49 39.54 13.09 45.44 14.88 46.01 26.45 44.29 26.1 41.77"/><path class="cls-10" d="M367.23,400.56a1.77,1.77,0,0,0-.5-.68l-.19-.14a3.35,3.35,0,0,0-5.51,2.84,4.08,4.08,0,0,0,3.25,3.82,12.13,12.13,0,0,0,.28,1.39.31.31,0,0,0,.09.21.29.29,0,0,0,.18.05,2.5,2.5,0,0,0,1.67-.61.43.43,0,0,0,.09-.1.33.33,0,0,0,0-.17,7.64,7.64,0,0,0-.26-1.15,3.28,3.28,0,0,0,1.52-2.58A5.37,5.37,0,0,0,367.23,400.56Z" transform="translate(-355.39 -369.67)"/><path class="cls-12" d="M366.11,405.7a.62.62,0,0,0,.11.17c.14.13.36.06.53,0a3.09,3.09,0,0,0,.89-.53,1.28,1.28,0,0,0,.46-.9.47.47,0,0,0-.1-.35.26.26,0,0,0-.34,0,.64.64,0,0,0-.1.18.84.84,0,0,1-.43.36.75.75,0,0,1-.62,0c-.23-.12-.31-.41-.41-.66-.17-.42-.76-.59-.74,0A6.09,6.09,0,0,0,366.11,405.7Z" transform="translate(-355.39 -369.67)"/><path class="cls-13" d="M375.54,452l.84.79a1.05,1.05,0,0,1-.26,1.73,1.8,1.8,0,0,1-1.75-.39l-1.8-2.05.29-.66,1.88-.28Z" transform="translate(-355.39 -369.67)"/><path class="cls-14" d="M376.53,428.83l.94,12.77-2.26,9.94-2.62-.06-1.2-8.45s-6.93-11.26-6.42-11.62S376.53,428.83,376.53,428.83Z" transform="translate(-355.39 -369.67)"/><path class="cls-13" d="M358.05,452.6l.37,1.1a1,1,0,0,1-1.05,1.39c-.44,0-.93-.33-1.36-1.17l-.62-2.66.58-.44,1.79.64Z" transform="translate(-355.39 -369.67)"/><path class="cls-14" d="M369.91,432.69l-5.23,11.68L358,452l-2.27-1.28,2.95-8s-.76-13.2-.13-13.27S369.91,432.69,369.91,432.69Z" transform="translate(-355.39 -369.67)"/><path class="cls-11" d="M359.14,409.74c-2.16,2.64-2.44,6.43-2.39,9.93a82.19,82.19,0,0,0,.65,9.28,5,5,0,0,0,1.12,3,4.22,4.22,0,0,0,1.87.92,29.62,29.62,0,0,0,15.27.32,3,3,0,0,0,1.54-.74,3.07,3.07,0,0,0,.6-1.18c1.36-4.25.64-8.95-.51-13.3-.84-3.13-2-6.3-4.08-8.66A9.22,9.22,0,0,0,359.14,409.74Z" transform="translate(-355.39 -369.67)"/><path class="cls-15" d="M390.28,409.8l1.39,2.92a1,1,0,0,0,1.33.48h0a1,1,0,0,0,.47-1.33L392.08,409a1,1,0,0,0-1.33-.47h0A1,1,0,0,0,390.28,409.8Z" transform="translate(-355.39 -369.67)"/><path class="cls-16" d="M391.12,411.85c.84-.11,1.67-.22,2.51-.31.23,0,.3.34.06.36l-2.5.32C391,412.25,390.88,411.88,391.12,411.85Z" transform="translate(-355.39 -369.67)"/><path class="cls-16" d="M390.62,410.79l2.51-.31c.23,0,.3.34.06.37-.84.09-1.67.2-2.51.31A.19.19,0,0,1,390.62,410.79Z" transform="translate(-355.39 -369.67)"/><path class="cls-16" d="M390.28,409.82l2.51-.32c.24,0,.3.34.07.37-.84.1-1.68.2-2.51.32C390.11,410.22,390.05,409.85,390.28,409.82Z" transform="translate(-355.39 -369.67)"/><path class="cls-17" d="M390.38,408.85c.46-.12.92-.24,1.38-.34s.85-.3,1.21-.16.57.62.76.92a10.6,10.6,0,0,1,.7,1.28c.18.4.34.81.48,1.22s.2.65-.05.91a4,4,0,0,1-2.36.7c-.44.05-.6-.65-.15-.7a5.68,5.68,0,0,0,1.79-.39c.21-.1.19-.1.11-.34s-.12-.35-.19-.52-.25-.6-.39-.89-.31-.58-.48-.85a4.66,4.66,0,0,0-.3-.47c-.15-.19-.15-.17-.36-.15a6.22,6.22,0,0,0-.93.21c-.36.08-.72.17-1.07.27S390,409,390.38,408.85Z" transform="translate(-355.39 -369.67)"/><path class="cls-15" d="M388.8,409.48c.32-.13.65-.22,1-.35l.14-.07c.42-.19.77.44.35.65l-.33.15a.61.61,0,0,0-.42.65,4.12,4.12,0,0,0,.51,1.25,5.54,5.54,0,0,0,.78,1.13c.18.2.17.25.43.19l.68-.17a.34.34,0,0,1,.43.28.32.32,0,0,1,0,.46c-.47.4-1.13.83-1.77.43a2.42,2.42,0,0,1-.67-.93l-.66-1.14c-.31-.53-1-1.29-.87-1.95A.7.7,0,0,1,388.8,409.48Z" transform="translate(-355.39 -369.67)"/><path class="cls-17" d="M395.68,410.88c.95-.21,1.87-.5,2.79-.8a18.76,18.76,0,0,0,1.82-.66c.59-.27,1.16-.55,1.76-.8.44-.18,1.81-.9,2.17-.34.22.34-.09.82-.27,1.1s-.56.84-.86,1.23a17.23,17.23,0,0,1-3.1,3.17,10.63,10.63,0,0,1-3,1.73l-.39.12a.33.33,0,0,1-.17,0c-.08,0-.12-.11-.15-.18a30.71,30.71,0,0,1-1.43-3.77.67.67,0,0,1,0-.5C394.88,410.93,395.45,410.94,395.68,410.88Z" transform="translate(-355.39 -369.67)"/><path class="cls-16" d="M389,409.55a.31.31,0,0,0-.19.44l1.63,3.37a.36.36,0,0,0,.4.19l1.52-.4,1.53,3.2h0s-.52,0-.69,0a3,3,0,0,0-.89-.08c-2,0-4.18.23-5.75,1.68-2.53,2.33-5,4.73-7.46,7.12s-5,4.88-7.41,7.38l-.15.15c-1.2,1.24-2.38,2.5-3.57,3.75l-1.86,1.94c-.67.7-1.06,1.39-2.14,1.18a5.49,5.49,0,0,1-2.68-1.41,5,5,0,0,1-1.25-2c-.28-.82-.73-1.83.07-2.48.35-.29.7-.57,1-.88,5.13-4.45,10.36-8.89,15.39-13.49l1.07-1c1.33-1.21,3.51-3.34,4.79-4.58,2.5-2.43,2.63-4,3.92-6.75.51-1.11,1-2.23,1.43-3.37l2.72,5.69Z" transform="translate(-355.39 -369.67)"/><path class="cls-18" d="M392.18,400.08c2-.64,7.44,1.31,8.86,1.71a1,1,0,0,1,.66,1.57l-.71.2c-.64.18-1.28.37-1.91.57l-1.38.45-.69.24a5.2,5.2,0,0,0-.53.26,4.53,4.53,0,0,0-.59.28,4.12,4.12,0,0,0-1,.78c-.1.11-.24.39-.16.54l4.35,8.73a.17.17,0,0,1-.13.24l-5.07.7s.21-.2.08-.84a9.72,9.72,0,0,0-.38-1.27c-.16-.43-.34-.86-.53-1.28l1.27-.34a.62.62,0,0,0,.36-.92l-1.52-2.9a.35.35,0,0,0-.38-.18l-1.48.37c-1-2.12-2.1-4.19-3.3-6.19l-.27.7-.13-.26A9.26,9.26,0,0,1,392.18,400.08Z" transform="translate(-355.39 -369.67)"/><path class="cls-18" d="M393,413c.19.42.37.85.53,1.28a9.72,9.72,0,0,1,.38,1.27c.13.64-.08.84-.08.84l-1.53-3.2Z" transform="translate(-355.39 -369.67)"/><path class="cls-18" d="M391.27,409l-.85.2-2.72-5.69.27-.7C389.17,404.8,390.27,406.87,391.27,409Z" transform="translate(-355.39 -369.67)"/><path class="cls-19" d="M379.52,425l-.14.13c-2.67,2.58-5.31,5.19-7.89,7.86l-.15.16c-1.28,1.33-2.54,2.66-3.81,4l-2,2.07c-.71.74-1.12,1.47-2.28,1.25a5.88,5.88,0,0,1-2.85-1.5,5.26,5.26,0,0,1-1.33-2.14c-.3-.87-.78-1.94.07-2.64.38-.3.75-.6,1.1-.93,4.87-4.23,10-8.64,14.85-13Z" transform="translate(-355.39 -369.67)"/><path class="cls-20" d="M361.92,435.14a1.49,1.49,0,1,0,2.11.07A1.5,1.5,0,0,0,361.92,435.14Z" transform="translate(-355.39 -369.67)"/><path class="cls-21" d="M378.86,422.66l-1.34-1.43a.68.68,0,0,1,0-1c1.72-1.61,7.43-7,7.74-7.61s.58-1.11.88-1.66c.17-.32.69-1.73,1-1.86.69-.29,1.26,1.67,1.48,2.12.43.89.84,1.78,1.25,2.68a.46.46,0,0,1-.34.65,5.68,5.68,0,0,0-2.51,1c-1,.81-5.69,5.52-7.23,7.07A.67.67,0,0,1,378.86,422.66Z" transform="translate(-355.39 -369.67)"/><path class="cls-16" d="M361.9,435.1a1.59,1.59,0,1,1-.08,2.24A1.58,1.58,0,0,1,361.9,435.1Zm.11.12a1.42,1.42,0,1,0,2,.07A1.41,1.41,0,0,0,362,435.22Z" transform="translate(-355.39 -369.67)"/><path class="cls-22" d="M417.27,382.83a12.79,12.79,0,0,0,0-1.38l-2.34-.69-.54-2.35,1.81-1.64a11.74,11.74,0,0,0-1.44-2.41l-2.29.83-1.83-1.59.51-2.39a12,12,0,0,0-2.51-1.08l-1.38,2-2.41-.24-1-2.24a11.87,11.87,0,0,0-2.74.62l.06,2.44L399.15,374,397,372.73a11.67,11.67,0,0,0-1.85,2.11l1.48,1.93-1,2.22-2.43.25a13.3,13.3,0,0,0-.22,1.45,12.07,12.07,0,0,0,0,1.34l2.34.69.53,2.36-1.82,1.63a12.57,12.57,0,0,0,1.44,2.42l2.3-.82,1.81,1.59-.51,2.39a12.1,12.1,0,0,0,2.58,1.11l1.38-2,2.4.22,1,2.23a11.87,11.87,0,0,0,2.74-.62l-.07-2.44,2.08-1.24,2.11,1.22a12,12,0,0,0,1.85-2.11l-1.49-1.93.95-2.22,2.43-.25A13.5,13.5,0,0,0,417.27,382.83Zm-9,3.42a5.44,5.44,0,1,1,1.41-7.57A5.44,5.44,0,0,1,408.24,386.25Z" transform="translate(-355.39 -369.67)"/><path class="cls-23" d="M411.74,377.26a8,8,0,1,0-2.07,11.07A8,8,0,0,0,411.74,377.26Zm-2.51,10.43a7.19,7.19,0,1,1,1.86-10A7.18,7.18,0,0,1,409.23,387.69Z" transform="translate(-355.39 -369.67)"/><path class="cls-24" d="M399.55,389.84l.07.06-.47,2.38h0a12.1,12.1,0,0,0,2.58,1.11l0,0,1.4-2,2.4.22,1,2.19,0,0a11.87,11.87,0,0,0,2.74-.62l0,0,0-2.42,2.08-1.24,2.11,1.18v0a12,12,0,0,0,1.85-2.11h0l-1.45-1.94.95-2.22,2.4-.29,0,0a13.5,13.5,0,0,0,.21-1.42,12.79,12.79,0,0,0,0-1.38l0,0-.66-.21A26.45,26.45,0,0,1,399.55,389.84Z" transform="translate(-355.39 -369.67)"/><path class="cls-25" d="M409.67,388.33a7.82,7.82,0,0,0,2.75-3.28c-.48.35-1,.68-1.47,1a7.35,7.35,0,0,1-1.72,1.66,7.19,7.19,0,0,1-4.89,1.21c-.57.16-1.13.3-1.69.42A7.93,7.93,0,0,0,409.67,388.33Z" transform="translate(-355.39 -369.67)"/><path class="cls-26" d="M401.38,372.21v-2a8.73,8.73,0,0,1,2.12-.5A3.34,3.34,0,0,0,401.38,372.21Z" transform="translate(-355.39 -369.67)"/><polygon class="cls-10" points="15.11 56.35 15.72 57.26 16.67 57.43 16.74 57.65 16.47 57.74 17.22 58.11 17.5 58.72 17.05 59.48 16.19 59.82 15.46 59.29 15.03 58.32 14.13 57.12 15.11 56.35"/><polygon class="cls-11" points="15.82 56.24 9.41 47.5 10.12 43.27 6.11 41.38 4.6 48.71 5.32 50.45 14.13 58.14 15.82 56.24"/><path class="cls-27" d="M400.19,451.85c.18-.09.35-.2.38-.31s-.07-.24-.19-.31a4.24,4.24,0,0,0-1.56-.1c-.73,0-1.46,0-2.18,0-.34,0-4,.11-3.64.73s2.25.67,2.79.66a17.93,17.93,0,0,0,2.64-.18,8.1,8.1,0,0,0,1.31-.33C399.84,452,400,451.93,400.19,451.85Z" transform="translate(-355.39 -369.67)"/><circle class="cls-16" cx="39.17" cy="79.84" r="2.94"/><polygon class="cls-15" points="38.04 81.59 37.09 79.73 38.22 77.98 40.3 78.09 41.25 79.94 40.12 81.7 38.04 81.59"/><circle class="cls-28" cx="39.17" cy="79.84" r="1.08"/><circle class="cls-16" cx="43.67" cy="37.74" r="3.09"/><polygon class="cls-15" points="42.48 39.59 41.48 37.63 42.67 35.79 44.86 35.9 45.86 37.86 44.67 39.7 42.48 39.59"/><circle class="cls-28" cx="43.67" cy="37.74" r="1.13"/><path class="cls-15" d="M420.88,444.58l-6.67.44v-3l6.67.41.4,1a.37.37,0,0,1,0,.29Z" transform="translate(-355.39 -369.67)"/><path class="cls-16" d="M419.89,444.67c-.18-.89-.38-1.79-.6-2.71-.1-.39-.73-.28-.63.12.24.95.45,1.88.65,2.8C419.39,445.25,420,445,419.89,444.67Z" transform="translate(-355.39 -369.67)"/><path class="cls-16" d="M421,444.59c-.16-.83-.33-1.68-.53-2.54a.28.28,0,1,0-.55.12c.21.88.4,1.76.57,2.61C420.55,445.14,421.06,444.94,421,444.59Z" transform="translate(-355.39 -369.67)"/><path class="cls-16" d="M417.43,444.85c-.25-1-.54-2-.86-3.05-.14-.45-1.05-.35-.9.12.34,1.09.66,2.14.93,3.18C416.72,445.52,417.54,445.26,417.43,444.85Z" transform="translate(-355.39 -369.67)"/><path class="cls-16" d="M418.64,444.76c-.21-.95-.44-1.91-.7-2.9-.11-.42-.84-.31-.72.13.28,1,.53,2,.75,3C418.06,445.39,418.73,445.15,418.64,444.76Z" transform="translate(-355.39 -369.67)"/><polygon class="cls-29" points="65.55 72.88 59.77 73.06 59.93 72.44 65.48 72.76 65.55 72.88"/><path class="cls-30" d="M412.47,440.53a3.71,3.71,0,0,0,0,5.81c1.34.75,3.07-.35,3.07-2.91S413.81,439.78,412.47,440.53Z" transform="translate(-355.39 -369.67)"/><path class="cls-16" d="M414.79,443.43c0,2.56-1.49,3.66-2.65,2.91a4.09,4.09,0,0,1,0-5.81C413.3,439.78,414.79,440.88,414.79,443.43Z" transform="translate(-355.39 -369.67)"/><polygon class="cls-15" points="56.19 75.28 55.81 73.68 56.27 72.12 57.49 71.74 58.35 73.9 57.36 75.85 56.19 75.28"/><path class="cls-28" d="M412.85,443.43c0,.69-.35,1.16-.71,1.07s-.54-.55-.54-1.07.23-1,.54-1.06S412.85,442.75,412.85,443.43Z" transform="translate(-355.39 -369.67)"/><path class="cls-15" d="M412.42,434.33l-3.65-6.26,2.29-1.32,3.66,6.26-.56,1.11a.52.52,0,0,1-.49.29Z" transform="translate(-355.39 -369.67)"/><path class="cls-16" d="M410,430.42c.75-.72,1.5-1.45,2.23-2.19.3-.32-.23-.89-.54-.58-.73.75-1.47,1.48-2.23,2.19C409.18,430.14,409.72,430.72,410,430.42Z" transform="translate(-355.39 -369.67)"/><path class="cls-16" d="M410.82,431.79c.76-.71,1.5-1.45,2.23-2.19.31-.32-.23-.89-.53-.58-.73.75-1.48,1.48-2.23,2.19C410,431.51,410.51,432.09,410.82,431.79Z" transform="translate(-355.39 -369.67)"/><path class="cls-16" d="M411.61,433.16c.76-.71,1.5-1.44,2.23-2.19.3-.32-.23-.89-.54-.58-.73.75-1.47,1.48-2.23,2.2C410.76,432.89,411.29,433.46,411.61,433.16Z" transform="translate(-355.39 -369.67)"/><path class="cls-16" d="M412.4,434.53c.75-.71,1.5-1.44,2.23-2.19.3-.31-.23-.89-.54-.57-.73.74-1.47,1.47-2.23,2.19C411.54,434.26,412.08,434.83,412.4,434.53Z" transform="translate(-355.39 -369.67)"/><polygon class="cls-21" points="58.9 64.2 58.72 64.57 54.91 58.46 55.86 57.77 58.9 64.2"/><path class="cls-30" d="M411.66,424.14a4.37,4.37,0,0,0-5.28,3.33c0,1.48,1.87,2.21,4.19.74S413,424.76,411.66,424.14Z" transform="translate(-355.39 -369.67)"/><path class="cls-16" d="M410.19,427.62c-2.32,1.47-4.07.93-4-.41a4.1,4.1,0,0,1,2-2.62,4.18,4.18,0,0,1,3.26-.71C412.76,424.35,412.51,426.16,410.19,427.62Z" transform="translate(-355.39 -369.67)"/><polygon class="cls-15" points="51.93 56.5 53.19 55.3 54.83 54.76 55.8 55.5 54.26 57.41 52 57.75 51.93 56.5"/><path class="cls-28" d="M409.33,426.3c-.61.39-1.21.4-1.32.06s.23-.74.7-1,1-.4,1.24-.19S410,425.91,409.33,426.3Z" transform="translate(-355.39 -369.67)"/><path class="cls-3" d="M405.81,416.13a3.13,3.13,0,1,0-.06,4.43A3.13,3.13,0,0,0,405.81,416.13Zm-1.12,3.43a1.73,1.73,0,1,1,.05-2.44A1.72,1.72,0,0,1,404.69,419.56Z" transform="translate(-355.39 -369.67)"/><path class="cls-3" d="M406.28,418.58l-2.83-2.9.18-.28a11.91,11.91,0,0,0,1.69-4.42,4.6,4.6,0,0,1,1.32-2.46l14.15-13.82a4.89,4.89,0,0,1,2.2-1.25,13.68,13.68,0,0,0,3.79-1.57l2.78-1.7,2.83,2.89-1.77,2.74a14.16,14.16,0,0,0-1.66,3.75,4.86,4.86,0,0,1-1.29,2.18l-13.82,13.5a4.88,4.88,0,0,1-2.65,1.34,10.94,10.94,0,0,0-4,1.44Z" transform="translate(-355.39 -369.67)"/><g class="cls-31"><g class="cls-32"><path d="M428.19,391a3.17,3.17,0,0,0,.94,2.67,3.29,3.29,0,0,0,2.3.85l-.16.26a3.11,3.11,0,0,1-2.41-.85,3.14,3.14,0,0,1-.94-2.78Z" transform="translate(-355.39 -369.67)"/></g></g><g class="cls-32"><g class="cls-32"><path d="M403.69,415.37a3.1,3.1,0,0,1,2,.86,3,3,0,0,1,.88,2.2l.27-.2a2.9,2.9,0,0,0-.91-2.28,3.13,3.13,0,0,0-2.08-.89Z" transform="translate(-355.39 -369.67)"/></g></g><circle class="cls-3" cx="75.76" cy="21.87" r="3.13"/><circle class="cls-16" cx="75.76" cy="21.87" r="2.45"/><polygon class="cls-15" points="74.78 23.31 74.02 21.75 75 20.31 76.74 20.43 77.5 22 76.52 23.44 74.78 23.31"/><path class="cls-28" d="M432.05,391.57a.9.9,0,1,1-.88-.92A.9.9,0,0,1,432.05,391.57Z" transform="translate(-355.39 -369.67)"/><polygon class="cls-33" points="75.22 20.63 76.57 20.79 77.1 22.03 76.3 23.12 74.95 22.96 74.41 21.72 75.22 20.63"/><polygon class="cls-34" points="75.38 20.99 76.33 21.1 76.72 21.98 76.14 22.76 75.18 22.65 74.8 21.76 75.38 20.99"/><g class="cls-32"><polygon class="cls-20" points="75.22 20.63 76.57 20.79 75.76 21.87 74.41 21.72 75.22 20.63"/></g></svg>