<svg id="Layer_1" data-name="Layer 1" xmlns="http://www.w3.org/2000/svg" viewBox="0 0 46.25 41.67"><defs><style>.cls-1{fill:#dc4d65;}.cls-2{fill:#e5a93e;}.cls-3{fill:#44a0a5;}</style></defs><path class="cls-1" d="M62.92,31c-2.86.1-3.48-1.56-3.48-1.56-1.46-2.34,1-4.37,1-4.37a14.1,14.1,0,0,0-2.8-2.7,3.39,3.39,0,0,1-4.37,1C51.59,22.38,51.8,20,51.8,20c0-.18-1.39-.24-1.78-.26h-.09c-.39,0-1.78.08-1.78.26,0,0,.21,2.39-1.45,3.43a3.39,3.39,0,0,1-4.37-1,14.1,14.1,0,0,0-2.8,2.7s2.44,2,1,4.37c0,0-.62,1.66-3.48,1.56a11.75,11.75,0,0,0,0,2.09,11.66,11.66,0,0,0,0,2.08c2.86-.1,3.48,1.56,3.48,1.56,1.46,2.34-1,4.37-1,4.37a13.81,13.81,0,0,0,2.8,2.7,3.39,3.39,0,0,1,4.37-1c1.66,1,1.45,3.43,1.45,3.43,0,.18,1.39.24,1.78.26H50c.39,0,1.78-.08,1.78-.26,0,0-.21-2.39,1.45-3.43a3.39,3.39,0,0,1,4.37,1,13.81,13.81,0,0,0,2.8-2.7s-2.44-2-1-4.37c0,0,.62-1.66,3.48-1.56a11.66,11.66,0,0,0,0-2.08A11.75,11.75,0,0,0,62.92,31ZM50,37.62A4.52,4.52,0,1,1,54.5,33.1,4.53,4.53,0,0,1,50,37.62Z" transform="translate(-26.75 -19.73)"/><path class="cls-2" d="M46.66,43.24l0,0-.16.2A1.62,1.62,0,0,1,46.66,43.24Z" transform="translate(-26.75 -19.73)"/><path class="cls-2" d="M48.78,48.27c-2.43.09-3-1.33-3-1.33a2.52,2.52,0,0,1,.06-2.77c-1.37-1-2.61.71-2.61.71a1.89,1.89,0,0,1-2.3,0,9.8,9.8,0,0,1-2.92-3c-1.17-1.72,1.28-2.93,1.28-2.93s-1.18-.21-1.5-.22h-.09c-.32,0-1.5.07-1.5.22A3.35,3.35,0,0,1,35,41.82a2.88,2.88,0,0,1-3.71-.88,11.79,11.79,0,0,0-2.38,2.3s2.07,1.72.84,3.7c0,0-.53,1.42-3,1.33a9.37,9.37,0,0,0,0,1.77,9.51,9.51,0,0,0,0,1.78c2.43-.09,3,1.32,3,1.32,1.23,2-.84,3.71-.84,3.71a11.67,11.67,0,0,0,2.38,2.29A2.88,2.88,0,0,1,35,58.26a3.37,3.37,0,0,1,1.24,2.92c0,.15,1.18.2,1.5.21h.09c.32,0,1.5-.06,1.5-.21a3.34,3.34,0,0,1,1.24-2.92,2.88,2.88,0,0,1,3.71.88,11.67,11.67,0,0,0,2.38-2.29s-2.08-1.72-.84-3.71c0,0,.53-1.41,3-1.32a10.69,10.69,0,0,0,0-1.78A10.54,10.54,0,0,0,48.78,48.27Zm-11,5.61A3.84,3.84,0,1,1,41.62,50,3.84,3.84,0,0,1,37.78,53.88Z" transform="translate(-26.75 -19.73)"/><path class="cls-3" d="M53.09,43.18l0,0,.16.2Z" transform="translate(-26.75 -19.73)"/><path class="cls-3" d="M51,48.21c2.42.09,3-1.32,3-1.32a2.51,2.51,0,0,0,0-2.78c1.36-1,2.6.71,2.6.71a1.89,1.89,0,0,0,2.3,0,9.77,9.77,0,0,0,2.93-3c1.17-1.71-1.29-2.93-1.29-2.93s1.18-.2,1.51-.22H62c.33,0,1.51.07,1.51.22a3.36,3.36,0,0,0,1.23,2.92,2.87,2.87,0,0,0,3.71-.89,12,12,0,0,1,2.39,2.3S68.77,44.9,70,46.89c0,0,.53,1.41,3,1.32A10.69,10.69,0,0,1,73,50a10.54,10.54,0,0,1,0,1.77c-2.43-.09-3,1.32-3,1.32-1.24,2,.84,3.71.84,3.71a12,12,0,0,1-2.39,2.3,2.87,2.87,0,0,0-3.71-.89,3.36,3.36,0,0,0-1.23,2.92c0,.15-1.18.2-1.51.22h-.08c-.33,0-1.51-.07-1.51-.22a3.36,3.36,0,0,0-1.23-2.92,2.87,2.87,0,0,0-3.71.89,12,12,0,0,1-2.39-2.3s2.08-1.72.84-3.71c0,0-.53-1.41-3-1.32A9.83,9.83,0,0,1,51,50,10,10,0,0,1,51,48.21Zm11,5.62A3.85,3.85,0,1,0,58.13,50,3.84,3.84,0,0,0,62,53.83Z" transform="translate(-26.75 -19.73)"/></svg>