<svg id="b5063d4b-371c-44a0-967a-c0a33f1195bf" data-name="Layer 1" xmlns="http://www.w3.org/2000/svg" viewBox="0 0 200 200"><title>mechanical icon</title><rect width="200" height="200" fill="#fff"/><circle cx="73.58" cy="121.52" r="43.39" fill="#192f35"/><circle cx="73.58" cy="121.52" r="31.44" fill="#f8f8f8"/><path d="M80.39,90.08H66.77a3.06,3.06,0,0,1-3-3.25l1.46-23.44a3.06,3.06,0,0,1,3.06-2.87H78.93a3.06,3.06,0,0,1,3,2.87l1.46,23.44A3.06,3.06,0,0,1,80.39,90.08Z" fill="#192f35"/><path d="M80.41,153H66.8a3.05,3.05,0,0,0-3,3.25l1.46,23.44a3.06,3.06,0,0,0,3.05,2.87H79a3.06,3.06,0,0,0,3-2.87l1.46-23.44A3.05,3.05,0,0,0,80.41,153Z" fill="#192f35"/><path d="M55.6,93.71l-9.38,9.87a3,3,0,0,1-4.45,0l-16-17.2a3.06,3.06,0,0,1,0-4.19l7.37-7.75a3.06,3.06,0,0,1,4.18-.24l18,15.09A3.05,3.05,0,0,1,55.6,93.71Z" fill="#192f35"/><path d="M45.42,137.81,54,148.4a3.06,3.06,0,0,1-.61,4.42L34.21,166.4a3.05,3.05,0,0,1-4.15-.57l-6.71-8.32a3,3,0,0,1,.31-4.17L41,137.47A3.06,3.06,0,0,1,45.42,137.81Z" fill="#192f35"/><path d="M101.79,105.06,92.41,95.2a3.05,3.05,0,0,1,.25-4.45l18-15.1a3.06,3.06,0,0,1,4.18.24l7.37,7.75a3.06,3.06,0,0,1,0,4.18l-16,17.22A3.06,3.06,0,0,1,101.79,105.06Z" fill="#192f35"/><path d="M101,138.1l-8.83,10.36a3.05,3.05,0,0,0,.49,4.43L111.39,167a3.05,3.05,0,0,0,4.16-.46l6.94-8.13a3.07,3.07,0,0,0-.2-4.19l-16.88-16.32A3.07,3.07,0,0,0,101,138.1Z" fill="#192f35"/><path d="M42.14,114.78l-.27,13.61a3.07,3.07,0,0,1-3.31,3l-23.41-1.93a3.06,3.06,0,0,1-2.8-3.11l.21-10.69a3.06,3.06,0,0,1,2.93-3l23.46-1A3.07,3.07,0,0,1,42.14,114.78Z" fill="#192f35"/><path d="M105,114.78l.28,13.61a3.06,3.06,0,0,0,3.3,3L132,129.45a3.07,3.07,0,0,0,2.81-3.11l-.22-10.69a3.05,3.05,0,0,0-2.92-3l-23.47-1A3.07,3.07,0,0,0,105,114.78Z" fill="#192f35"/><path d="M88.45,103.18l-3.3,3.37.58,2.66,2.72.57,3.37-3.3s1.22,4-1.29,6.17A5.47,5.47,0,0,1,84.65,114L66,132.86l-3.72-3.65L81.07,110.5a6.08,6.08,0,0,1,2.94-7A5.53,5.53,0,0,1,88.45,103.18Z" fill="#4aa8b0"/><path d="M58.71,103.18l3.3,3.37-.58,2.66-2.72.57-3.37-3.3s-1.22,4,1.29,6.17A5.47,5.47,0,0,0,62.51,114l18.64,18.85,3.73-3.65L66.09,110.5a6.09,6.09,0,0,0-2.93-7A5.56,5.56,0,0,0,58.71,103.18Z" fill="#4aa8b0"/><circle cx="60.67" cy="134.58" r="5.63" fill="#4aa8b0"/><circle cx="86.49" cy="134.58" r="5.63" fill="#4aa8b0"/><polygon points="61.87 132.52 59.48 132.52 58.28 134.58 59.48 136.65 61.87 136.65 63.06 134.58 61.87 132.52" fill="#e1e2e2"/><polygon points="87.68 132.52 85.3 132.52 84.1 134.58 85.3 136.65 87.68 136.65 88.88 134.58 87.68 132.52" fill="#e1e2e2"/><circle cx="158.65" cy="83.45" r="22.08" fill="#192f35"/><circle cx="158.65" cy="83.45" r="16" fill="#f8f8f8"/><path d="M162.11,67.45h-6.93a1.56,1.56,0,0,1-1.55-1.66l.74-11.92a1.56,1.56,0,0,1,1.56-1.46h5.44a1.55,1.55,0,0,1,1.55,1.46l.74,11.92A1.55,1.55,0,0,1,162.11,67.45Z" fill="#192f35"/><path d="M162.12,99.45h-6.93a1.56,1.56,0,0,0-1.55,1.65l.75,11.93a1.55,1.55,0,0,0,1.55,1.46h5.44a1.55,1.55,0,0,0,1.55-1.46l.75-11.93A1.56,1.56,0,0,0,162.12,99.45Z" fill="#192f35"/><path d="M149.5,69.29l-4.77,5a1.56,1.56,0,0,1-2.27,0l-8.14-8.75a1.56,1.56,0,0,1,0-2.13l3.75-4a1.56,1.56,0,0,1,2.13-.12L149.37,67A1.55,1.55,0,0,1,149.5,69.29Z" fill="#192f35"/><path d="M144.32,91.74l4.35,5.39a1.55,1.55,0,0,1-.31,2.24l-9.75,6.92a1.56,1.56,0,0,1-2.11-.29l-3.42-4.24a1.56,1.56,0,0,1,.16-2.12l8.82-8.07A1.55,1.55,0,0,1,144.32,91.74Z" fill="#192f35"/><path d="M173,75.07l-4.77-5a1.56,1.56,0,0,1,.12-2.26l9.16-7.68a1.55,1.55,0,0,1,2.13.12l3.75,3.94a1.56,1.56,0,0,1,0,2.13l-8.13,8.76A1.56,1.56,0,0,1,173,75.07Z" fill="#192f35"/><path d="M172.58,91.89l-4.5,5.27a1.55,1.55,0,0,0,.25,2.25l9.56,7.18a1.55,1.55,0,0,0,2.11-.24l3.54-4.14a1.56,1.56,0,0,0-.11-2.13l-8.59-8.3A1.54,1.54,0,0,0,172.58,91.89Z" fill="#192f35"/><path d="M142.65,80l-.14,6.93a1.55,1.55,0,0,1-1.69,1.52l-11.91-1a1.55,1.55,0,0,1-1.42-1.58l.1-5.44a1.57,1.57,0,0,1,1.49-1.53l11.94-.5A1.56,1.56,0,0,1,142.65,80Z" fill="#192f35"/><path d="M174.65,80l.14,6.93a1.55,1.55,0,0,0,1.68,1.52l11.91-1a1.56,1.56,0,0,0,1.43-1.58l-.11-5.44a1.57,1.57,0,0,0-1.49-1.53l-11.94-.5A1.55,1.55,0,0,0,174.65,80Z" fill="#192f35"/></svg>