<svg id="e0ef3046-7778-4ca0-b509-86c46550b586" data-name="Layer 1" xmlns="http://www.w3.org/2000/svg" xmlns:xlink="http://www.w3.org/1999/xlink" viewBox="0 0 1980 780"><title>privasy policy</title><rect x="1.33" y="1.78" width="1975.56" height="775.55" fill="#f8f8f8"/><ellipse cx="1499.11" cy="737.33" rx="437.78" ry="24.44" fill="#bcbec0" opacity="0.76"/><path d="M1834.38,688.76c-1,11.18-2.3,22.08-4,32.59a304.19,304.19,0,0,1-7.07,32.41,215.68,215.68,0,0,1-8,23.57H596.46c-32.31-49.6-75-143.72,11.54-206.66,122.22-88.89,151.11-77.78,222.22-180s-33.33-240,213.34-304.45c88.39-23.09,155.09-45.9,212.28-60.64,102.39-26.42,174.27-27,285.49,42.86,47.89,30.08,89,65.25,123.4,100.41a805.94,805.94,0,0,1,67.41,78.53l1.2,1.6q6.2,8.25,11.8,16.13,3.15,4.44,6.13,8.73c5.75,8.29,11,16.16,15.7,23.48,2.83,4.41,5.48,8.63,7.94,12.62,5.67,9.22,10.35,17.25,14,23.8,6.8,12.12,10.18,19.15,10.18,19.15S1846.9,544.05,1834.38,688.76Z" fill="#dc4d65" opacity="0.29"/><path d="M1976.89,1.78V777.33H1069.54c-49.8-69.91-86-113.33-86-113.33S848,512.89,970.22,424c41.78-30.38,72.66-49.09,98-64.62,27.85-17.06,49.09-30.29,70.87-51,15.55-14.76,31.37-33.32,50.07-59.77q1.6-2.26,3.24-4.62c47.14-67.76,17.14-151.14,63.4-218.42a145.63,145.63,0,0,1,20.55-23.8Z" fill="#aec744" opacity="0.29"/><path d="M1705.15,168.72c-6.78-29.39-7-61,8.54-86.14,17-27.63,49.39-41.54,80.93-47.33s64-5.17,95.37-12a190,190,0,0,0-42.63,109.47c-1,17.38.4,35.3-5.28,51.72-17.9,51.79-103.14,37.72-99,99.81-6.46-34.53-23.14-66.12-33.65-99.61C1707.85,179.41,1706.39,174.1,1705.15,168.72Z" fill="#dc4d65" opacity="0.53"/><path d="M1832.69,53.75c-25.51,13.45-44,37.06-57.36,62.13-14.08,26.5-22.67,55.53-29,84.74-3.74,17.15-6.75,34.45-9.72,51.75-.8,4.69,6.38,6.7,7.19,2,9.7-56.52,19.89-117.93,57-163.89,9.91-12.29,21.71-22.89,35.73-30.28,4.24-2.24.48-8.67-3.77-6.43Z" fill="#dc4d65"/><path d="M1205.84,345.67c6.78-29.4,7-61-8.54-86.14-17-27.63-49.4-41.54-80.93-47.34s-64-5.16-95.37-12a189.93,189.93,0,0,1,42.62,109.47c1,17.38-.39,35.3,5.28,51.72,17.91,51.79,103.14,37.72,99,99.81,6.46-34.54,23.14-66.12,33.65-99.61C1203.14,356.36,1204.6,351.05,1205.84,345.67Z" fill="#dc4d65" opacity="0.53"/><path d="M1074.53,237.13c25.22,13.29,43,36.82,55.87,61.71,13.49,26.09,21.54,54.63,27.66,83.24,3.49,16.32,6.35,32.77,9.17,49.21.81,4.72,8,2.72,7.18-2-10-58.26-20.9-120.66-59.39-167.8-10.19-12.47-22.43-23.28-36.73-30.82-4.23-2.23-8,4.2-3.76,6.44Z" fill="#dc4d65"/><path d="M1738.68,298.58s33.51-105.52,137.23-32.47c0,0,38.3,27.6,65.42,30.85C1933.35,297,1903,431.7,1738.68,298.58Z" fill="#dc4d65"/><rect x="1170.62" y="309.94" width="687.73" height="379.87" rx="32.19" fill="#e2b84d" stroke="#263238" stroke-miterlimit="10" stroke-width="13.41"/><path d="M1269.56,176.47c11.09-.22,30.7,55.6,33.33,62.92,25.77,71.86,22.82,150,20.21,225.24-1.25,36.21-1.83,72.44-6.39,108.44-1.46,11.54-15,106.54-28,106.64L1694,676.46c18.07-.23,27.44-89.56,30.3-104.43,14.92-77.61,23.17-157.22,17.94-236.31-1.57-23.67-10.52-168.16-51.44-167.37Z" fill="#d6eef3" stroke="#4aa8b0" stroke-miterlimit="10" stroke-width="10.43"/><polygon points="1694.3 240.14 1349.75 240.14 1334.98 199.56 1678.05 199.56 1694.3 240.14" fill="#fff"/><rect x="1333.38" y="272.61" width="368.6" height="16.23" fill="#fff"/><rect x="1336.57" y="305.07" width="368.6" height="16.23" fill="#fff"/><rect x="1344.55" y="352.15" width="368.6" height="16.23" fill="#fff"/><rect x="1346.15" y="386.24" width="368.6" height="16.23" fill="#fff"/><rect x="1336.57" y="420.33" width="368.6" height="16.23" fill="#fff"/><rect x="1336.57" y="451.18" width="368.6" height="16.23" fill="#fff"/><rect x="1338.17" y="498.25" width="368.6" height="16.23" fill="#fff"/><rect x="1330.19" y="530.72" width="368.6" height="16.23" fill="#fff"/><rect x="1312.64" y="584.29" width="368.6" height="16.23" fill="#fff"/><rect x="1304.66" y="616.76" width="368.6" height="16.23" fill="#fff"/><path d="M1173.82,469s-6.39,237,166,292.21c0,0,188.28-42.21,170.73-290.58L1343,389.49Z" fill="#d6eef3"/><path d="M1166.36,469c-.8,30.48,3.44,61.71,9.56,91.46,11.89,57.7,35.6,115.48,78.13,157.44a209.74,209.74,0,0,0,39.25,30.5,199.66,199.66,0,0,0,23.52,12.05c4.06,1.76,8.16,3.43,12.31,5,3.89,1.44,8.43,3.79,12.63,3,6.4-1.23,12.78-3.78,18.82-6.14a240,240,0,0,0,96.23-68.74c44.33-52.79,62-121.25,62.3-189.21,0-11.23-.38-22.46-1.16-33.67-.17-2.51-1.26-5.26-3.69-6.44l-57.68-27.94-90.38-43.79c-6.44-3.12-12.83-6.41-19.35-9.37-6.09-2.77-14.75,3.27-20.27,5.87L1239.8,429.8c-22.78,10.71-46.21,20.58-68.53,32.23-.39.2-.81.38-1.21.57-8.68,4.08-1.12,16.93,7.52,12.87l57-26.83,91-42.81,21.07-9.91h-7.52l56.4,27.33L1486,467.06l20.7,10-3.69-6.43c4.89,70.82-6.09,144.6-49.25,202.83a223.18,223.18,0,0,1-24.48,27.62,217.32,217.32,0,0,1-24.89,20.66A237,237,0,0,1,1380,737q-5.54,3-11.24,5.69c-1.64.78-3.3,1.53-5,2.27l-2.16.94a8.49,8.49,0,0,1-1.13.48c-7.38,3-15,6-22.76,7.71h4a195.47,195.47,0,0,1-79.41-48.91c-20.29-20.62-35.88-45.35-47.78-71.63-10.87-24-18.5-49.52-23.91-75.29a424.1,424.1,0,0,1-8.39-60c-.7-9.7-1.25-19.49-1-29.22S1166.62,459.45,1166.36,469Z" fill="#fff"/><rect x="1279.54" y="554.35" width="126.06" height="100.65" fill="#dc4d65"/><path d="M1292.19,556V495.91s49.47-45.46,97.34,0l1.59,58.44" fill="none" stroke="#dc4d65" stroke-miterlimit="10" stroke-width="11.92"/><ellipse cx="1208.12" cy="342.41" rx="8.78" ry="8.12" fill="#d6eef3" stroke="#fff" stroke-miterlimit="10" stroke-width="4.47"/><ellipse cx="1234.45" cy="342.29" rx="8.78" ry="8.12" fill="#d6eef3" stroke="#fff" stroke-miterlimit="10" stroke-width="4.47"/><ellipse cx="1260.78" cy="342.17" rx="8.78" ry="8.12" fill="#d6eef3" stroke="#fff" stroke-miterlimit="10" stroke-width="4.47"/><path d="M1746.7,302c28.54,2,55.06-13.24,83.48-11.35,25.77,1.71,46.94,25,73.67,18.9,4.68-1.07,2.7-8.25-2-7.19-13.08,3-25.55-3-37.15-8.42s-23.2-10.31-36.2-10.83c-27.89-1.1-53.86,13.41-81.82,11.44-4.78-.34-4.76,7.12,0,7.45Z" fill="#d1d3d4"/><path d="M1011.64,692.29c2.5,7.12,4.3,15.36,3.89,22.91-.37,7.09-5,16,.26,22.12,9.85,11.5,79.8,25.21,66.59-5.42-3.73-8.65-33.5-45-44.37-43.41Z" fill="#f8f8f8"/><path d="M968.56,622c-4.2,0-10-1.11-14,0-11.67,3.24-9.44,26.5-9.2,35,.27,9.71-1.15,21.48,3.76,30.38,3.81,6.88,14.14,17,22.81,16.81s21.42-8.3,19.93-17.92c-1.16-7.46-13.34-16.49-18.34-22.11Z" fill="#f8f8f8"/><path d="M976.33,406.56l9.18,219.93,1.68,40.29c.17,4.19-.41,9.25.55,13.34,0,14,44.33,15.4,50.27,8.37,5.78-6.87-1.93-44.77-2.37-53.44-1.64-32.14.39-66.87-5-98.64,2.72,16,2.13,32.27,4.22,48.3.94,7.22-6.54,30.25.25,34.49,9.57,6,35.11-27.09,41.48-34.08,7.76-8.52,17.75-15.33,19.53-27.44.82-5.63,0-12,0-17.68V389.26H994Z" fill="#192f35"/><path d="M1051.32,181.91c2.8-7.79-4.26-18.46-4.8-26.52-.74-10.76-.45-22.29-6.44-31.33a32.71,32.71,0,0,0-13.49-11.17c-14.82-7-33.77-4.5-46.19,6.09s-17.61,28.64-12.65,44c2.27,7.06,6.52,14.14,4.85,21.36-2.84,12.28-19.06,14.75-31.69,16.91-74.7,12.79-127.44,120.34-55.21,170.41,30.7,21.27,77.67,16.63,102.1-11.4,13.55-15.56,19.67-38.67,10.57-57.09-3-6.13-7.6-11.6-9.36-18.18-1.46-5.42-.88-11.15-.07-16.7,2.85-19.54,8.68-39.07,20.4-55.1,8.88-12.14,22.17-18.37,35.46-24.76C1048.42,186.72,1050.4,184.47,1051.32,181.91Z" fill="#192f35"/><path d="M1000.48,191.63a40,40,0,0,0-4.37,1.46c-47.76,19.07-58.83,88.38-70.77,130.19-8.89,31.09-19.66,64.93-17.91,97.58h27.74l23.49-57.05c8.85-21.5,15.69-51.22,29.55-69.74,27.92,27.15-.19,67-17.52,88.65,0,0-18.18,22.71,29.75,32.6,27.45,5.67,80.69,2.44,103-14.84,8-6.22-10.11-61.76-11.49-72.52-2.73-21.26-5.76-46.93.74-67.72,8.75-28,41.1-6.93,61.1-.66,0,0,25.52,10.9,38.84-25.07l10-88.27h-17.76c-3.08,12.1-12.1,75.08-22.17,77.11-2.81.56-14-7.89-16.62-9.26a279.3,279.3,0,0,0-29.85-13.29c-22.35-8.35-47.12-14.48-71.15-11C1031,191.9,1015.14,187.67,1000.48,191.63Z" fill="#aec744"/><path d="M999.09,147.74c1.23-2.93-.12-4.22,1.39-8.9,4.22-13,13.43-12.65,26.28-7.84,14.63,5.49,11.41,23.36,7.06,34.71-2,5.35-6.68,10-4.67,14.75,4.1,9.67,25.64,6.54,10.78,20.21-13,11.94-29.55,1-39.49-9.2v-18c0-1-9.73-5.87-10.78-7.87-5.11-9.76,3.71-9.39,7.81-15.12A14.09,14.09,0,0,0,999.09,147.74Z" fill="#dc4d65"/><path d="M984.7,607.16c.1,2.68-13.9,12.75-16.14,14.81-8.17,7.48-9,26.12-8.54,36.34,1,20.54,9,18.77,27.16,14.3Z" fill="#192f35"/><path d="M912.42,420.86c0,6.58-15.76,23.46-21,27.45-4.55,3.46-13.47,5.35-15.28,11.29-4.51,14.7,32,17.22,36.25,9.8,6.82-12,22.18-34.19,19.19-48.27C931.4,420.21,914.25,420.63,912.42,420.86Z" fill="#dc4d65"/><path d="M1188.77,146.24l9.42-26.13c3.07-8.48,34.23-33.84,43.81-29.32,5,2.35,4.18,10.09,3.74,14.47-1.23,12.29-14,15.69-22,22.67l-21.09,18.31Z" fill="#dc4d65"/><image width="400" height="400" transform="translate(1180 70.22) scale(0.25)" xlink:href="1a8e481e2db36e361c8c8f6618bc600d.png"/><ellipse cx="1210.76" cy="101.72" rx="27.36" ry="28.8" fill="#192f35"/><polygon points="1235.24 111.08 1274.12 149.24 1274.12 164.36 1261.16 165.8 1260.44 156.44 1249.64 156.44 1249.64 147.8 1242.44 147.8 1240.28 138.44 1234.52 139.16 1220.84 127.64 1235.24 111.08" fill="#192f35"/><circle cx="1200.68" cy="91.64" r="5.04" fill="#f8f8f8"/><path d="M1232,119.61l34.56,33.84c1.73,1.69,4.38-1,2.66-2.66L1234.69,117c-1.73-1.69-4.38,1-2.66,2.66Z" fill="#f8f8f8"/><path d="M75.26,354.15c11.12.05,20.37,8.2,20.37,20.17a20,20,0,0,1-20.37,20H52.13v31.88h-9V354.15Zm-.9,31.94c6.23,0,12.42-4.73,12.42-11.77,0-6.49-5.63-11.77-12.47-11.77H52.13v23.54Z" fill="#192f35"/><path d="M150.15,426.22l-18.61-31.88H112.88v31.88h-9V354.15H136c11.06,0,20.31,8.3,20.31,20.17,0,9.2-5.63,16.65-15.08,19.21l19.06,32.69Zm-37.27-40.13h22.18c6.24,0,12.42-4.73,12.42-11.77,0-6.49-5.58-11.77-12.42-11.77H112.88Z" fill="#192f35"/><path d="M167.1,354.1h9v72.12h-9Z" fill="#192f35"/><path d="M250,354.1l-29,72.12h-9.2l-29-72.12h9.71l23.88,60.1,23.89-60.1Z" fill="#192f35"/><path d="M273.77,354.1l28.77,72.12h-9l-5.43-13.58H250.38L245,426.22h-9l28.77-72.12Zm-20.12,50.24h31.18l-15.59-39.53Z" fill="#192f35"/><path d="M380.49,400.92c-4.58,15.44-19,25.3-34.95,25.3a36.09,36.09,0,1,1,34.95-46.82l-8.6,2.61a27.52,27.52,0,0,0-26.3-19.66c-15.14,0-27.26,12.12-27.26,27.81,0,15,11.52,27.81,27.26,27.81a27.18,27.18,0,0,0,26.3-19.71Z" fill="#192f35"/><path d="M437.62,354.15l-25,42.75v29.32h-9V396.85l-25-42.7h10.26l19.31,33.6,19.31-33.6Z" fill="#192f35"/><path d="M503.86,354.15c11.11.05,20.37,8.2,20.37,20.17a20,20,0,0,1-20.37,20H480.72v31.88h-9V354.15ZM503,386.09c6.24,0,12.43-4.73,12.43-11.77,0-6.49-5.64-11.77-12.48-11.77H480.72v23.54Z" fill="#192f35"/><path d="M566.78,354.1c21.62,0,36.56,17,36.56,36.06,0,21.38-17.3,36.06-36.56,36.06a36.07,36.07,0,0,1-36.57-36.06C530.21,369.19,547.31,354.1,566.78,354.1Zm0,63.87c15.59,0,27.2-12.37,27.2-27.81,0-15.59-11.87-27.76-27.2-27.76-15.55,0-27.26,12.32-27.26,27.76C539.52,405.15,551,418,566.78,418Z" fill="#192f35"/><path d="M622.65,354.1v63.72h38.68v8.4H613.65V354.1Z" fill="#192f35"/><path d="M669.67,354.1h9v72.12h-9Z" fill="#192f35"/><path d="M761.06,400.92c-4.58,15.44-19,25.3-35,25.3a36.09,36.09,0,1,1,35-46.82l-8.6,2.61a27.53,27.53,0,0,0-26.31-19.66c-15.13,0-27.25,12.12-27.25,27.81,0,15,11.51,27.81,27.25,27.81a27.19,27.19,0,0,0,26.31-19.71Z" fill="#192f35"/><path d="M818.19,354.15,793.14,396.9v29.32h-9V396.85l-25-42.7h10.26l19.31,33.6L808,354.15Z" fill="#192f35"/></svg>