<?xml version="1.0" encoding="utf-8"?>
<!-- Generator: Adobe Illustrator 19.0.0, SVG Export Plug-In . SVG Version: 6.00 Build 0)  -->
<svg version="1.1" id="Layer_1" xmlns="http://www.w3.org/2000/svg" xmlns:xlink="http://www.w3.org/1999/xlink" x="0px" y="0px"
	 viewBox="0 0 800 800" style="enable-background:new 0 0 800 800;" xml:space="preserve">
<style type="text/css">
	.st0{fill:#ECECEC;}
	.st1{fill:#F0F0F0;}
	.st2{fill:#E1E1E1;}
	.st3{fill:none;stroke:#E7E7E7;stroke-miterlimit:10;}
	.st4{fill:#E1E1E1;enable-background:new    ;}
	.st5{opacity:0.8;fill:#E1E1E1;}
	.st6{fill:#F5F5F5;}
	.st7{fill:#FAFAFA;}
	.st8{fill:#1A2E35;}
	.st9{opacity:0.2;fill:#FFFFFF;}
	.st10{opacity:0.4;fill:#FFFFFF;}
	.st11{fill:#A3C539;}
	.st12{opacity:0.6;fill:#FFFFFF;enable-background:new    ;}
	.st13{fill:#FB4B66;}
	.st14{fill:#FFFFFF;}
	.st15{opacity:0.6;fill:#FFFFFF;}
	.st16{opacity:0.1;enable-background:new    ;}
	.st17{opacity:0.7;fill:#FFFFFF;}
	.st18{opacity:0.2;enable-background:new    ;}
	.st19{opacity:0.5;fill:#FFFFFF;}
	.st20{opacity:0.9;fill:#FFFFFF;}
	.st21{opacity:0.1;}
	.st22{opacity:0.3;enable-background:new    ;}
	.st23{fill:#FFB835;}
	.st24{fill:#FCB373;}
	.st25{fill:#002A32;}
	.st26{fill:none;stroke:#1A2E35;stroke-width:0.5;stroke-linecap:round;stroke-linejoin:round;stroke-miterlimit:10;}
	.st27{opacity:0.2;fill:#FFFFFF;enable-background:new    ;}
	.st28{opacity:0.3;fill:#FFFFFF;enable-background:new    ;}
	.st29{fill:#CC7A63;}
	.st30{opacity:0.4;fill:#FFFFFF;enable-background:new    ;}
	.st31{opacity:0.4;enable-background:new    ;}
	.st32{fill:#B84D3C;}
</style>
<g id="XMLID_551_">
	<rect id="XMLID_231_" x="10.1" y="617.1" class="st0" width="778" height="0.4"/>
	<rect id="XMLID_230_" x="658.7" y="642.2" class="st0" width="51.5" height="0.4"/>
	<rect id="XMLID_229_" x="512" y="646.4" class="st0" width="13.5" height="0.4"/>
	<rect id="XMLID_228_" x="627.2" y="627.7" class="st0" width="29.9" height="0.4"/>
	<rect id="XMLID_227_" x="91.8" y="630.4" class="st0" width="67.2" height="0.4"/>
	<rect id="XMLID_226_" x="172.8" y="630.4" class="st0" width="9.9" height="0.4"/>
	<rect id="XMLID_225_" x="214.7" y="636.9" class="st0" width="145.8" height="0.4"/>
	<path id="XMLID_555_" class="st0" d="M378.9,547.8H78.5c-4.9,0-8.9-4-8.9-8.9V116.5c0-4.9,4-8.9,8.9-8.9h300.5c4.9,0,8.9,4,8.9,8.9
		v422.3C387.8,543.8,383.8,547.8,378.9,547.8z M78.5,108c-4.7,0-8.5,3.8-8.5,8.5v422.3c0,4.7,3.8,8.5,8.5,8.5h300.5
		c4.7,0,8.5-3.8,8.5-8.5V116.5c0-4.7-3.8-8.5-8.5-8.5H78.5z"/>
	<path id="XMLID_552_" class="st0" d="M715.5,547.8H415c-4.9,0-8.9-4-8.9-8.9V116.5c0-4.9,4-8.9,8.9-8.9h300.5c4.9,0,8.9,4,8.9,8.9
		v422.3C724.4,543.8,720.4,547.8,715.5,547.8z M415,108c-4.7,0-8.5,3.8-8.5,8.5v422.3c0,4.7,3.8,8.5,8.5,8.5h300.5
		c4.7,0,8.5-3.8,8.5-8.5V116.5c0-4.7-3.8-8.5-8.5-8.5H415z"/>
</g>
<g id="XMLID_485_">
	<g id="XMLID_548_">
		<path id="XMLID_220_" class="st1" d="M560.9,174.8c0-4.2-3.4-7.6-7.6-7.6c-0.8,0-1.5,0.1-2.2,0.3c0.1-0.8,0.2-1.5,0.2-2.3
			c0-8.9-7.2-16.1-16.1-16.1c-1,0-2,0.1-3,0.3c-2.5-4.1-6.9-6.8-12-6.8c-7.7,0-14,6.2-14.1,13.9c-0.1,0-0.2,0-0.2,0
			c-7.2,0-13,5.8-13,13c0,7.2,5.8,13,13,13h47.7l0,0C557.6,182.3,560.9,179,560.9,174.8z"/>
		<polygon id="XMLID_219_" class="st2" points="532.9,186.2 532.9,171.4 520.8,171.4 520.8,186.2 510.9,186.2 526.8,199.7 
			542.7,186.2 		"/>
	</g>
	<g id="XMLID_545_">
		<path id="XMLID_218_" class="st1" d="M322.4,197.3c0-8.9-7.2-16.2-16.2-16.2c-1.6,0-3.2,0.2-4.6,0.7c0.2-1.6,0.4-3.3,0.4-5
			c0-18.9-15.3-34.2-34.2-34.2c-2.2,0-4.3,0.2-6.3,0.6c-5.3-8.6-14.7-14.4-25.5-14.4c-16.4,0-29.7,13.2-29.9,29.5
			c-0.2,0-0.3,0-0.5,0c-15.2,0-27.6,12.3-27.6,27.6c0,15.2,12.3,27.6,27.6,27.6h101.2l0,0C315.4,213.2,322.4,206,322.4,197.3z"/>
		<polygon id="XMLID_217_" class="st2" points="237.3,198.5 237.3,230 263,230 263,198.5 283.9,198.5 250.2,170 216.4,198.5 		"/>
	</g>
	<g id="XMLID_529_">
		<polyline id="XMLID_216_" class="st3" points="335.3,276 335.3,233.6 465.1,233.6 465.1,275.5 		"/>
		<line id="XMLID_215_" class="st3" x1="402.1" y1="193.7" x2="402.1" y2="275.9"/>
		<g id="XMLID_540_">
			<path id="XMLID_214_" class="st1" d="M424.8,177.5h-45.5c-0.7,0-1.2,0.5-1.2,1.2v27.6c0,0.7,0.5,1.2,1.2,1.2h45.5
				c0.7,0,1.2-0.5,1.2-1.2v-27.6C426,178.1,425.5,177.5,424.8,177.5z"/>
			<path id="XMLID_213_" class="st2" d="M423.9,206.3h-43.7c-0.2,0-0.4-0.2-0.4-0.4v-24.4c0-0.2,0.2-0.4,0.4-0.4h43.7
				c0.2,0,0.4,0.2,0.4,0.4v24.4C424.4,206.1,424.2,206.3,423.9,206.3z"/>
		</g>
		<g id="XMLID_537_">
			<path id="XMLID_6_" class="st1" d="M358,272.1h-45.5c-0.7,0-1.2,0.5-1.2,1.2v27.6c0,0.7,0.5,1.2,1.2,1.2H358
				c0.7,0,1.2-0.5,1.2-1.2v-27.6C359.2,272.7,358.7,272.1,358,272.1z"/>
			<path id="XMLID_212_" class="st2" d="M357.1,300.9h-43.7c-0.2,0-0.4-0.2-0.4-0.4v-24.4c0-0.2,0.2-0.4,0.4-0.4h43.7
				c0.2,0,0.4,0.2,0.4,0.4v24.4C357.6,300.7,357.4,300.9,357.1,300.9z"/>
		</g>
		<g id="XMLID_534_">
			<path id="XMLID_211_" class="st1" d="M424.8,272.1h-45.5c-0.7,0-1.2,0.5-1.2,1.2v27.6c0,0.7,0.5,1.2,1.2,1.2h45.5
				c0.7,0,1.2-0.5,1.2-1.2v-27.6C426,272.7,425.5,272.1,424.8,272.1z"/>
			<path id="XMLID_210_" class="st2" d="M423.9,300.9h-43.7c-0.2,0-0.4-0.2-0.4-0.4v-24.4c0-0.2,0.2-0.4,0.4-0.4h43.7
				c0.2,0,0.4,0.2,0.4,0.4v24.4C424.4,300.7,424.2,300.9,423.9,300.9z"/>
		</g>
		<g id="XMLID_531_">
			<path id="XMLID_209_" class="st1" d="M487.9,272.1h-45.5c-0.7,0-1.2,0.5-1.2,1.2v27.6c0,0.7,0.5,1.2,1.2,1.2h45.5
				c0.7,0,1.2-0.5,1.2-1.2v-27.6C489.1,272.7,488.5,272.1,487.9,272.1z"/>
			<path id="XMLID_208_" class="st2" d="M487,300.9h-43.7c-0.2,0-0.4-0.2-0.4-0.4v-24.4c0-0.2,0.2-0.4,0.4-0.4H487
				c0.2,0,0.4,0.2,0.4,0.4v24.4C487.4,300.7,487.2,300.9,487,300.9z"/>
		</g>
		<path id="XMLID_207_" class="st4" d="M401.2,220.8l-12,12c-0.5,0.5-0.5,1.3,0,1.8l12,12c0.5,0.5,1.3,0.5,1.8,0l12-12
			c0.5-0.5,0.5-1.3,0-1.8l-12-12C402.5,220.3,401.7,220.3,401.2,220.8z"/>
	</g>
	<g id="XMLID_515_">
		<path id="XMLID_206_" class="st5" d="M149.2,233.3h-32.1c-0.5,0-0.9-0.4-0.9-0.9v-18.5c0-0.5,0.4-0.9,0.9-0.9h32.1
			c0.5,0,0.9,0.4,0.9,0.9v18.5C150.1,232.9,149.7,233.3,149.2,233.3z"/>
		<path id="XMLID_205_" class="st2" d="M125.5,272.1H99.9c-0.5,0-0.9-0.4-0.9-0.9v-13.7c0-0.5,0.4-0.9,0.9-0.9h25.6
			c0.5,0,0.9,0.4,0.9,0.9v13.7C126.4,271.7,126,272.1,125.5,272.1z"/>
		<path id="XMLID_204_" class="st2" d="M167,272.1h-25.6c-0.5,0-0.9-0.4-0.9-0.9v-13.7c0-0.5,0.4-0.9,0.9-0.9H167
			c0.5,0,0.9,0.4,0.9,0.9v13.7C167.9,271.7,167.5,272.1,167,272.1z"/>
		<g id="XMLID_522_">
			<path id="XMLID_203_" class="st2" d="M141.5,302.6h-12.6c-0.5,0-0.9-0.4-0.9-0.9v-11.5c0-0.5,0.4-0.9,0.9-0.9h12.6
				c0.5,0,0.9,0.4,0.9,0.9v11.5C142.4,302.2,142,302.6,141.5,302.6z"/>
			<path id="XMLID_202_" class="st2" d="M159.7,302.6h-12.6c-0.5,0-0.9-0.4-0.9-0.9v-11.5c0-0.5,0.4-0.9,0.9-0.9h12.6
				c0.5,0,0.9,0.4,0.9,0.9v11.5C160.6,302.2,160.2,302.6,159.7,302.6z"/>
			<path id="XMLID_5_" class="st2" d="M178,302.6h-12.6c-0.5,0-0.9-0.4-0.9-0.9v-11.5c0-0.5,0.4-0.9,0.9-0.9H178
				c0.5,0,0.9,0.4,0.9,0.9v11.5C178.9,302.2,178.5,302.6,178,302.6z"/>
		</g>
		<path id="XMLID_201_" class="st2" d="M99.3,302.6H86.7c-0.5,0-0.9-0.4-0.9-0.9v-11.5c0-0.5,0.4-0.9,0.9-0.9h12.6
			c0.5,0,0.9,0.4,0.9,0.9v11.5C100.1,302.2,99.8,302.6,99.3,302.6z"/>
		<path id="XMLID_4_" class="st2" d="M119.1,302.6h-12.6c-0.5,0-0.9-0.4-0.9-0.9v-11.5c0-0.5,0.4-0.9,0.9-0.9h12.6
			c0.5,0,0.9,0.4,0.9,0.9v11.5C119.9,302.2,119.6,302.6,119.1,302.6z"/>
		<g id="XMLID_516_">
			<polygon id="XMLID_200_" class="st2" points="152.6,256.6 154.2,256.6 154.2,245.7 134,245.7 134,233.3 132.4,233.3 132.4,245.7 
				112.2,245.7 112.2,256.6 113.7,256.6 113.7,247.3 152.6,247.3 			"/>
			<polygon id="XMLID_199_" class="st2" points="112.2,281.5 92,281.5 92,289.3 93.5,289.3 93.5,283.1 112.2,283.1 112.2,289.3 
				113.7,289.3 113.7,272.2 112.2,272.2 			"/>
			<polygon id="XMLID_198_" class="st2" points="154.2,283.1 154.2,272.2 152.6,272.2 152.6,283.1 134,283.1 134,289.3 135.5,289.3 
				135.5,284.6 152.6,284.6 152.6,289.3 154.2,289.3 154.2,284.6 171.3,284.6 171.3,289.3 172.9,289.3 172.9,283.1 			"/>
		</g>
	</g>
	<g id="XMLID_505_">
		<path id="XMLID_512_" class="st6" d="M603,217.9V229l5.8,0.5c0.8,3.7,2.3,7.2,4.3,10.3l-3.7,4.5l7.9,7.9l4.5-3.7
			c3.1,2,6.6,3.5,10.3,4.3l0.5,5.8h11.2l0.5-5.8c3.7-0.8,7.2-2.3,10.3-4.3l4.5,3.7l7.9-7.9l-3.7-4.5c2-3.1,3.5-6.6,4.3-10.3l5.8-0.5
			v-11.2l-5.8-0.5c-0.8-3.7-2.3-7.2-4.3-10.3l3.7-4.5l-7.9-7.9l-4.5,3.7c-3.1-2-6.6-3.5-10.3-4.3l-0.5-5.8h-11.2L632,194
			c-3.7,0.8-7.2,2.3-10.3,4.3l-4.5-3.7l-7.9,7.9l3.7,4.5c-2,3.1-3.5,6.6-4.3,10.3L603,217.9z M638.2,208.3c8.4,0,15.1,6.8,15.1,15.1
			c0,8.4-6.8,15.1-15.1,15.1c-8.4,0-15.1-6.8-15.1-15.1C623,215.1,629.8,208.3,638.2,208.3z"/>
		<path id="XMLID_509_" class="st6" d="M610.2,299.4c2.9-0.6,5.7-1.8,8.1-3.4l3.5,2.9l6.2-6.2l-2.9-3.5c1.6-2.4,2.8-5.2,3.4-8.1
			l4.5-0.4V272l-4.5-0.4c-0.6-2.9-1.8-5.7-3.4-8.1l2.9-3.5l-6.2-6.2l-3.5,2.9c-2.4-1.6-5.2-2.8-8.1-3.4l-0.4-4.5H601l-0.4,4.5
			c-2.9,0.6-5.7,1.8-8.1,3.4l-3.5-2.9l-6.2,6.2l2.9,3.5c-1.6,2.4-2.8,5.2-3.4,8.1l-4.5,0.4v8.8l4.5,0.4c0.6,2.9,1.8,5.7,3.4,8.1
			l-2.9,3.5l6.2,6.2l3.5-2.9c2.4,1.6,5.2,2.8,8.1,3.4l0.4,4.5h8.8L610.2,299.4z M593.5,276.4c0-6.5,5.3-11.9,11.9-11.9
			c6.5,0,11.9,5.3,11.9,11.9c0,6.5-5.3,11.9-11.9,11.9C598.8,288.2,593.5,282.9,593.5,276.4z"/>
		<path id="XMLID_506_" class="st6" d="M590.7,252l2.9,2.4l5.2-5.2l-2.4-2.9c1.3-2,2.3-4.3,2.8-6.8l3.8-0.4v-7.4l-3.8-0.4
			c-0.5-2.5-1.5-4.8-2.8-6.8l2.4-2.9l-5.2-5.2l-2.9,2.4c-2-1.3-4.3-2.3-6.8-2.8l-0.4-3.8l-7.4,0l-0.4,3.8c-2.5,0.5-4.8,1.5-6.8,2.8
			l-2.9-2.4l-5.2,5.2l2.4,2.9c-1.3,2-2.3,4.3-2.8,6.8l-3.8,0.4v7.4l3.8,0.4c0.5,2.5,1.5,4.8,2.8,6.8l-2.4,2.9l5.2,5.2l2.9-2.4
			c2,1.3,4.3,2.3,6.8,2.8l0.4,3.8h7.4l0.4-3.8C586.3,254.3,588.6,253.3,590.7,252z M569.9,235.5c0-5.5,4.5-10,10-10
			c5.5,0,10,4.5,10,10c0,5.5-4.5,10-10,10C574.3,245.4,569.9,241,569.9,235.5z"/>
	</g>
	<g id="XMLID_495_">
		<g id="XMLID_503_">
			<rect id="XMLID_191_" x="589.3" y="526.3" class="st6" width="104.5" height="68"/>
		</g>
		<rect id="XMLID_190_" x="593.2" y="539.1" class="st2" width="96.8" height="51.8"/>
		<g id="XMLID_496_">
			<rect id="XMLID_189_" x="601.1" y="546.8" class="st6" width="71.6" height="2.2"/>
			<rect id="XMLID_188_" x="601.1" y="553.6" class="st6" width="34.4" height="2.2"/>
			<rect id="XMLID_187_" x="601.1" y="560.5" class="st6" width="43.3" height="2.2"/>
			<rect id="XMLID_186_" x="601.1" y="567.3" class="st6" width="15.3" height="2.2"/>
			<rect id="XMLID_185_" x="601.1" y="574.1" class="st6" width="9.9" height="2.2"/>
		</g>
	</g>
	<g id="XMLID_486_">
		
			<rect id="XMLID_184_" x="84.6" y="526.1" transform="matrix(1 -4.558345e-003 4.558345e-003 1 -2.5015 0.561)" class="st0" width="74.3" height="45.9"/>
		<g id="XMLID_487_">
			<g id="XMLID_492_">
				<path id="XMLID_183_" class="st7" d="M113.1,560.6c-0.3,0-0.6-0.1-0.9-0.3l-13.6-9.9c-0.4-0.3-0.6-0.8-0.6-1.2
					c0-0.5,0.2-1,0.6-1.3l13.5-10c0.7-0.5,1.7-0.4,2.2,0.3c0.5,0.7,0.4,1.7-0.3,2.2l-11.8,8.8l11.9,8.7c0.7,0.5,0.8,1.5,0.3,2.2
					C114,560.4,113.5,560.6,113.1,560.6z"/>
			</g>
			<g id="XMLID_490_">
				<path id="XMLID_182_" class="st7" d="M130.7,560.5c-0.5,0-0.9-0.2-1.2-0.6c-0.5-0.7-0.4-1.7,0.3-2.2l11.8-8.8l-11.9-8.7
					c-0.7-0.5-0.8-1.5-0.3-2.2c0.5-0.7,1.5-0.8,2.2-0.3l13.6,9.9c0.4,0.3,0.6,0.8,0.6,1.2c0,0.5-0.2,1-0.6,1.3l-13.5,10
					C131.3,560.4,131,560.5,130.7,560.5z"/>
			</g>
			<g id="XMLID_488_">
				<path id="XMLID_181_" class="st7" d="M118.3,560.6c-0.2,0-0.3,0-0.5-0.1c-0.8-0.3-1.2-1.2-1-2l7-20c0.3-0.8,1.2-1.2,2-1
					c0.8,0.3,1.2,1.2,1,2l-7,20C119.6,560.2,119,560.6,118.3,560.6z"/>
			</g>
		</g>
	</g>
</g>
<ellipse id="_x3C_Path_x3E__359_" class="st6" cx="399.1" cy="669.8" rx="301.7" ry="17.6"/>
<g id="XMLID_459_">
	<g id="XMLID_481_">
		<polygon id="XMLID_180_" class="st8" points="530.5,669.8 541.9,669.8 557.4,583.9 546,583.9 		"/>
		<polygon id="XMLID_179_" class="st9" points="530.5,669.8 541.9,669.8 557.4,583.9 546,583.9 		"/>
		<polygon id="XMLID_178_" class="st9" points="530.5,669.8 538.8,669.8 554.3,583.9 546,583.9 		"/>
	</g>
	<path id="XMLID_177_" class="st8" d="M498.2,609.4H544c1.4,0,2.5-1.1,2.5-2.5l0,0c0-1.4-1.1-2.5-2.5-2.5h-45.7
		c-1.4,0-2.5,1.1-2.5,2.5l0,0C495.7,608.3,496.9,609.4,498.2,609.4z"/>
	<path id="XMLID_176_" class="st8" d="M493.2,638.2h45.7c1.4,0,2.5-1.1,2.5-2.5l0,0c0-1.4-1.1-2.5-2.5-2.5h-45.7
		c-1.4,0-2.5,1.1-2.5,2.5l0,0C490.6,637.1,491.8,638.2,493.2,638.2z"/>
	<g id="XMLID_475_">
		<polygon id="XMLID_175_" class="st8" points="483.8,669.8 495.2,669.8 510.8,583.9 499.3,583.9 		"/>
		<polygon id="XMLID_174_" class="st9" points="483.8,669.8 495.2,669.8 510.8,583.9 499.3,583.9 		"/>
		<polygon id="XMLID_173_" class="st9" points="483.8,669.8 492.1,669.8 507.6,583.9 499.3,583.9 		"/>
	</g>
	<g id="XMLID_471_">
		<polygon id="XMLID_172_" class="st8" points="590.1,669.8 578.7,669.8 563.1,583.9 574.5,583.9 		"/>
		<polygon id="XMLID_171_" class="st10" points="590.1,669.8 578.7,669.8 563.1,583.9 574.5,583.9 		"/>
		<polygon id="XMLID_170_" class="st9" points="587,669.8 578.7,669.8 563.1,583.9 571.4,583.9 		"/>
	</g>
	<path id="XMLID_169_" class="st8" d="M570,609.4h-45.7c-1.4,0-2.5-1.1-2.5-2.5l0,0c0-1.4,1.1-2.5,2.5-2.5H570
		c1.4,0,2.5,1.1,2.5,2.5l0,0C572.5,608.3,571.4,609.4,570,609.4z"/>
	<path id="XMLID_168_" class="st8" d="M575.1,638.2h-45.7c-1.4,0-2.5-1.1-2.5-2.5l0,0c0-1.4,1.1-2.5,2.5-2.5h45.7
		c1.4,0,2.5,1.1,2.5,2.5l0,0C577.6,637.1,576.5,638.2,575.1,638.2z"/>
	<path id="XMLID_167_" class="st9" d="M570,609.4h-45.7c-1.4,0-2.5-1.1-2.5-2.5l0,0c0-1.4,1.1-2.5,2.5-2.5H570
		c1.4,0,2.5,1.1,2.5,2.5l0,0C572.5,608.3,571.4,609.4,570,609.4z"/>
	<path id="XMLID_166_" class="st9" d="M575.1,638.2h-45.7c-1.4,0-2.5-1.1-2.5-2.5l0,0c0-1.4,1.1-2.5,2.5-2.5h45.7
		c1.4,0,2.5,1.1,2.5,2.5l0,0C577.6,637.1,576.5,638.2,575.1,638.2z"/>
	<g id="XMLID_463_">
		<polygon id="XMLID_165_" class="st8" points="543.4,669.8 532,669.8 516.4,583.9 527.9,583.9 		"/>
		<polygon id="XMLID_164_" class="st10" points="543.4,669.8 532,669.8 516.4,583.9 527.9,583.9 		"/>
		<polygon id="XMLID_163_" class="st9" points="540.3,669.8 532,669.8 516.4,583.9 524.8,583.9 		"/>
	</g>
	<g id="XMLID_460_">
		<path id="XMLID_162_" class="st8" d="M579.7,588h-83.9c-0.7,0-1.2-0.5-1.2-1.2v-5.8c0-0.7,0.5-1.2,1.2-1.2h83.9
			c0.7,0,1.2,0.5,1.2,1.2v5.8C580.9,587.4,580.3,588,579.7,588z"/>
		<path id="XMLID_161_" class="st9" d="M528.5,588h-32.7c-0.7,0-1.2-0.5-1.2-1.2v-5.8c0-0.7,0.5-1.2,1.2-1.2h32.7
			c0.7,0,1.2,0.5,1.2,1.2v5.8C529.6,587.4,529.1,588,528.5,588z"/>
	</g>
</g>
<g id="XMLID_448_">
	<g id="XMLID_456_">
		<rect id="XMLID_160_" x="208.1" y="600.7" class="st11" width="104.5" height="68"/>
		<rect id="XMLID_159_" x="208.1" y="600.7" class="st12" width="104.5" height="68"/>
	</g>
	<rect id="XMLID_158_" x="211.9" y="613.5" class="st13" width="96.8" height="51.8"/>
	<g id="XMLID_449_">
		<rect id="XMLID_157_" x="219.8" y="621.2" class="st14" width="71.6" height="2.2"/>
		<rect id="XMLID_156_" x="219.8" y="628" class="st14" width="34.4" height="2.2"/>
		<rect id="XMLID_155_" x="219.8" y="634.9" class="st14" width="43.3" height="2.2"/>
		<rect id="XMLID_154_" x="219.8" y="641.7" class="st14" width="15.3" height="2.2"/>
		<rect id="XMLID_153_" x="219.8" y="648.5" class="st14" width="9.9" height="2.2"/>
	</g>
</g>
<g id="XMLID_362_">
	<g id="XMLID_444_">
		<polygon id="XMLID_152_" class="st11" points="441.7,669.8 356.6,669.8 371,556.7 427.3,556.7 		"/>
		<polygon id="XMLID_151_" class="st15" points="441.7,669.8 356.6,669.8 366.5,592.4 371,556.7 427.3,556.7 434,609.4 		"/>
		<polygon id="XMLID_150_" class="st16" points="434,609.4 366.5,592.4 371,556.7 427.3,556.7 		"/>
	</g>
	<g id="XMLID_441_">
		<path id="XMLID_149_" class="st11" d="M599.7,277.9h-8.5h-384h-8.5c-5.7,0-10.3,4.6-10.3,10.3v271.5c0,5.7,4.6,10.3,10.3,10.3h8.5
			h384h8.5c5.7,0,10.3-4.6,10.3-10.3V288.2C609.9,282.5,605.3,277.9,599.7,277.9z"/>
		<path id="XMLID_148_" class="st17" d="M599.7,277.9h-8.5h-384h-8.5c-5.7,0-10.3,4.6-10.3,10.3v271.5c0,5.7,4.6,10.3,10.3,10.3h8.5
			h384h8.5c5.7,0,10.3-4.6,10.3-10.3V288.2C609.9,282.5,605.3,277.9,599.7,277.9z"/>
	</g>
	<rect id="XMLID_147_" x="201.9" y="288" class="st13" width="394.6" height="261.8"/>
	<g id="XMLID_437_">
		<path id="XMLID_146_" class="st11" d="M471.2,661.3h-144c-0.6,0-1,0.5-1,1v6.3c0,0.6,0.5,1,1,1h144c0.6,0,1-0.5,1-1v-6.3
			C472.2,661.8,471.7,661.3,471.2,661.3z"/>
		<path id="XMLID_145_" class="st17" d="M471.2,661.3h-144c-0.6,0-1,0.5-1,1v6.3c0,0.6,0.5,1,1,1h144c0.6,0,1-0.5,1-1v-6.3
			C472.2,661.8,471.7,661.3,471.2,661.3z"/>
	</g>
	<g id="XMLID_376_">
		<rect id="XMLID_144_" x="201.9" y="288.2" class="st18" width="394.6" height="39"/>
		<rect id="XMLID_143_" x="201.9" y="327.7" class="st10" width="169.1" height="222.1"/>
		<rect id="XMLID_129_" x="228.6" y="362.1" class="st19" width="132.3" height="132.3"/>
		<g id="XMLID_377_">
			<g id="XMLID_378_">
				<path id="XMLID_385_" class="st20" d="M241.1,514.6v-3.4l-1.8-0.2c-0.2-1.1-0.7-2.2-1.3-3.1l1.1-1.4l-2.4-2.4l-1.4,1.1
					c-0.9-0.6-2-1.1-3.1-1.3l-0.2-1.8h-3.4l-0.2,1.8c-1.1,0.2-2.2,0.7-3.1,1.3l-1.4-1.1l-2.4,2.4l1.1,1.4c-0.6,0.9-1.1,2-1.3,3.1
					l-1.8,0.2v3.4l1.8,0.2c0.2,1.1,0.7,2.2,1.3,3.1l-1.1,1.4l2.4,2.4l1.4-1.1c0.9,0.6,2,1.1,3.1,1.3l0.2,1.8h3.4l0.2-1.8
					c1.1-0.2,2.2-0.7,3.1-1.3l1.4,1.1l2.4-2.4l-1.1-1.4c0.6-0.9,1.1-2,1.3-3.1L241.1,514.6z M230.4,517.5c-2.5,0-4.6-2.1-4.6-4.6
					s2.1-4.6,4.6-4.6c2.5,0,4.6,2.1,4.6,4.6S233,517.5,230.4,517.5z"/>
				<path id="XMLID_382_" class="st15" d="M255,524.2v-2.7l-1.4-0.1c-0.2-0.9-0.5-1.7-1-2.5l0.9-1.1l-1.9-1.9l-1.1,0.9
					c-0.7-0.5-1.6-0.8-2.5-1l-0.1-1.4h-2.7l-0.1,1.4c-0.9,0.2-1.7,0.5-2.5,1l-1.1-0.9l-1.9,1.9l0.9,1.1c-0.5,0.7-0.8,1.6-1,2.5
					l-1.4,0.1v2.7l1.4,0.1c0.2,0.9,0.5,1.7,1,2.5l-0.9,1.1l1.9,1.9l1.1-0.9c0.7,0.5,1.6,0.8,2.5,1l0.1,1.4h2.7l0.1-1.4
					c0.9-0.2,1.7-0.5,2.5-1l1.1,0.9l1.9-1.9l-0.9-1.1c0.5-0.7,0.8-1.6,1-2.5L255,524.2z M246.6,526.5c-2,0-3.6-1.6-3.6-3.6
					c0-2,1.6-3.6,3.6-3.6c2,0,3.6,1.6,3.6,3.6C250.2,524.9,248.5,526.5,246.6,526.5z"/>
				<path id="XMLID_379_" class="st10" d="M241.1,531.8v-2.2l-1.2-0.1c-0.2-0.8-0.5-1.5-0.9-2.1l0.7-0.9l-1.6-1.6l-0.9,0.7
					c-0.6-0.4-1.3-0.7-2.1-0.9l-0.1-1.2H233l-0.1,1.2c-0.8,0.2-1.5,0.5-2.1,0.9l-0.9-0.7l-1.6,1.6l0.7,0.9c-0.4,0.6-0.7,1.3-0.9,2.1
					l-1.2,0.1l0,2.2l1.2,0.1c0.2,0.8,0.5,1.5,0.9,2.1l-0.7,0.9l1.6,1.6l0.9-0.7c0.6,0.4,1.3,0.7,2.1,0.9l0.1,1.2h2.2l0.1-1.2
					c0.8-0.2,1.5-0.5,2.1-0.9l0.9,0.7l1.6-1.6l-0.7-0.9c0.4-0.6,0.7-1.3,0.9-2.1L241.1,531.8z M234.1,533.7c-1.7,0-3-1.4-3-3
					c0-1.7,1.4-3,3-3c1.7,0,3,1.4,3,3C237.1,532.4,235.8,533.7,234.1,533.7z"/>
			</g>
		</g>
	</g>
	<g id="XMLID_368_">
		<path id="XMLID_106_" class="st8" d="M264.5,365.1l16.6,6.2l-8.7-8.7c-0.7,0.4-1.5,0.3-2-0.3c-0.7-0.7-0.7-1.8,0-2.4
			c0.7-0.7,1.8-0.7,2.4,0c0.6,0.6,0.6,1.4,0.3,2l8.7,8.7l-6.2-16.6l-5.5,1.2l-0.2-2l-1-1l-6.1,6.1l1,1l2,0.2L264.5,365.1z"/>
		<path id="XMLID_105_" class="st9" d="M264.5,365.1l16.6,6.2l-8.7-8.7c-0.7,0.4-1.5,0.3-2-0.3c-0.7-0.7-0.7-1.8,0-2.4
			c0.7-0.7,1.8-0.7,2.4,0c0.6,0.6,0.6,1.4,0.3,2l8.7,8.7l-6.2-16.6l-5.5,1.2l-0.2-2l-1-1l-6.1,6.1l1,1l2,0.2L264.5,365.1z"/>
	</g>
	<g id="XMLID_363_" class="st21">
		<polygon id="XMLID_104_" class="st14" points="259.6,288 201.1,506.5 201.1,288 		"/>
		<polygon id="XMLID_103_" class="st14" points="325.6,288 255.5,549.8 207.2,549.8 277.3,288 		"/>
		<polygon id="XMLID_102_" class="st14" points="395.7,288 325.7,549.8 303.8,549.8 373.9,288 		"/>
		<polygon id="XMLID_101_" class="st14" points="460.4,288 390.3,549.8 382.5,549.8 452.6,288 		"/>
	</g>
</g>
<g id="XMLID_317_">
	<g id="XMLID_358_">
		<path id="XMLID_100_" class="st8" d="M697.7,345.7c5.5,6.4,33.6,60.5,28.2,73.1c-5.4,12.6-50.5-1.9-50.5-1.9l2.7-17.8
			c0,0,17.5,0.6,19.2-1c1.7-1.7-23.7-27-23.7-27L697.7,345.7z"/>
		<g id="XMLID_359_" class="st18">
			<path id="XMLID_99_" class="st14" d="M725.9,418.9c-0.6,1.4-1.8,2.5-3.3,3.3c0,0,0,0,0,0c-0.3,0.1-0.6,0.3-0.9,0.4
				c0,0-0.1,0-0.1,0c-0.3,0.1-0.6,0.2-0.9,0.3c-1.2,0.4-2.5,0.7-3.9,0.8c-0.4,0-0.7,0.1-1.1,0.1c-0.6,0-1.1,0.1-1.7,0.1
				c-0.5,0-1,0-1.5,0c-15.1,0-37-7.1-37-7.1l2.7-17.8c0,0,17.5,0.6,19.2-1c0.4-0.4-0.8-2.2-2.8-4.7c0,0,0,0,0,0
				c-4.9-6.1-14.9-16.2-19-20.4c-1.2-1.2-1.9-1.9-1.9-1.9l24.1-25.4C703.3,352.1,731.4,406.2,725.9,418.9z"/>
		</g>
	</g>
	<path id="XMLID_98_" class="st18" d="M722.7,422.2C722.6,422.2,722.6,422.2,722.7,422.2c-0.3,0.2-0.6,0.3-0.9,0.4c0,0-0.1,0-0.1,0
		c-0.3,0.1-0.6,0.2-0.9,0.3c-1.2,0.4-2.5,0.7-3.9,0.8c-0.4,0-0.7,0.1-1.1,0.1c-0.6,0-1.1,0.1-1.7,0.1c-0.5,0-1,0-1.5,0
		c-15.1,0-37-7.1-37-7.1l2.7-17.8c0,0,19.7,1.7,21.4,0c0,0,0,0,0-0.1c0.3-0.7-1.9-2.9-5.1-5.7c0,0,0,0,0,0
		c-4.9-6.1-14.9-16.2-19-20.4l11.4-12.2l8.7-0.9C695.6,359.9,714.7,390.8,722.7,422.2z"/>
	<g id="XMLID_353_">
		<path id="XMLID_97_" class="st8" d="M641,343.9c-3.1,2.3-4.7,5.5-3.4,7.2l82.2,113.4c1.2,1.7,4.7,1.2,7.9-1
			c3.1-2.3,4.7-5.5,3.4-7.2l-82.2-113.4C647.6,341.2,644.1,341.7,641,343.9z"/>
		<path id="XMLID_96_" class="st17" d="M648.8,342.9l82.2,113.4c1.2,1.7-0.3,4.9-3.4,7.2c-3.1,2.3-6.6,2.7-7.9,1l-82.2-113.4
			c-0.7-0.9-0.5-2.3,0.3-3.8c0.4-0.7,0.9-1.4,1.6-2c0.5-0.5,1-0.9,1.6-1.3C644.1,341.7,647.6,341.2,648.8,342.9z"/>
		<path id="XMLID_95_" class="st22" d="M731.1,456.3c1.2,1.7-0.3,4.9-3.4,7.2c-3.1,2.3-6.6,2.7-7.9,1c-0.7-0.9,1-2.3,2-4.4
			l-83.9-112.7c0.4-0.7,0.9-1.4,1.6-2l82.2,113.4c0.5-0.5,1-0.9,1.6-1.4C726.3,455,729.8,454.6,731.1,456.3z"/>
	</g>
	<g id="XMLID_349_">
		<path id="XMLID_94_" class="st23" d="M630.8,340.8c-2.6,2.8-3.5,6.3-2,7.7L731,444.2c1.5,1.4,4.9,0.3,7.5-2.5
			c2.6-2.8,3.5-6.2,2-7.7l-102.2-95.7C636.8,336.9,633.4,338,630.8,340.8z"/>
		<path id="XMLID_93_" class="st17" d="M638.3,338.3L740.5,434c1.5,1.4,0.6,4.9-2,7.7c-2.6,2.8-6,3.9-7.5,2.5l-102.2-95.7
			c-0.8-0.8-0.9-2.2-0.4-3.8c0.2-0.7,0.6-1.5,1.1-2.3c0.4-0.5,0.8-1.1,1.3-1.6C633.4,338,636.8,336.9,638.3,338.3z"/>
		<path id="XMLID_92_" class="st22" d="M740.5,434c1.5,1.4,0.6,4.9-2,7.7c-2.6,2.8-6,3.9-7.5,2.5c-0.8-0.8,0.6-2.5,1.1-4.7
			l-103.8-94.8c0.2-0.7,0.6-1.5,1.1-2.3l102.2,95.7c0.4-0.6,0.8-1.1,1.3-1.6C735.6,433.7,739,432.6,740.5,434z"/>
	</g>
	<path id="XMLID_91_" class="st24" d="M655.4,646.2l-7.8,0.1c-7.9-37.2-13.5-83.2-17-118c-0.5-5.4-1-10.6-1.5-15.4
		c-0.2-2.3-0.4-4.5-0.6-6.6c-0.9-10.4-1.6-18.7-2-23.8c-0.3-3.7-0.4-5.8-0.4-5.8h28.2l-0.3,7.2l-0.9,23.7l-0.1,2.7l-0.6,15.6
		l-1,26.6C661.1,590.1,655.4,646.2,655.4,646.2z"/>
	<path id="XMLID_90_" class="st24" d="M718.5,644.3l-7.7,1.4c-15.4-38.4-29.8-87.5-39.2-121.9c-1.4-5.3-2.8-10.3-4-14.8
		c-0.1-0.2-0.1-0.5-0.2-0.7c-2.4-9-4.2-16.1-5.3-20.6c-0.9-3.5-1.4-5.5-1.4-5.5l27.8-4.8l1.6,11.7l2.3,17.1l0.5,3.4l1.6,11.7
		l4.2,31.3C714.7,587.9,718.5,644.3,718.5,644.3z"/>
	<path id="XMLID_89_" class="st18" d="M692.5,506.2l-24.8,2.8c-0.1-0.2-0.1-0.5-0.2-0.7c-2.4-9-4.2-16.1-5.3-20.6l28,1.4
		L692.5,506.2z"/>
	<path id="XMLID_88_" class="st18" d="M654,483.9l-0.9,23.7l-0.1,2.7l-24,2.7c-0.2-2.3-0.4-4.5-0.6-6.6c-0.9-10.4-1.6-18.7-2-23.8
		L654,483.9z"/>
	<path id="XMLID_87_" class="st8" d="M632.3,672.1c1.5-1.2,3.1-2.1,4.9-2.7l0,0c0,0,5.3-5.3,7.9-21.1l6.9-1.8
		c2.4-0.6,4.9,0.4,6.3,2.5c0.2,0.3,0.3,0.6,0.4,0.9c0.4,1.7,0.6,3.4,0.7,5.1c0.7,5.4,0.1,17.4,0.1,17.4h-1.3l-0.5-10.9
		c-0.2-3.7-3,0.6-3.8,4.6s-2.5,8.2-10.7,8.4C633.9,674.8,629.9,674.4,632.3,672.1z"/>
	<path id="XMLID_86_" class="st8" d="M658.6,649.1c0.5-3.7,0.6-10.2,0.6-10.2l-15.4,1.7c0,0,1.9,7.3,0.3,12.8
		C651.9,651.5,658.6,649.1,658.6,649.1z"/>
	<path id="XMLID_85_" class="st8" d="M695.1,672.1c1.5-1.2,3.1-2.1,4.9-2.7l0,0c0,0,5.3-5.3,7.9-21.1l6.9-1.8
		c2.4-0.6,4.9,0.4,6.3,2.5c0.2,0.3,0.3,0.6,0.4,0.9c0.4,1.7,0.6,3.4,0.7,5.1c0.7,5.4,0.1,17.4,0.1,17.4h-1.3l-0.5-10.9
		c-0.2-3.7-3,0.6-3.8,4.6s-2.5,8.2-10.7,8.4C696.7,674.8,692.7,674.4,695.1,672.1z"/>
	<path id="XMLID_84_" class="st8" d="M721.4,649.1c0.5-3.7,0.6-10.2,0.6-10.2l-15.4,1.7c0,0,1.9,7.3,0.3,12.8
		C714.7,651.5,721.4,649.1,721.4,649.1z"/>
	<path id="XMLID_83_" class="st25" d="M695.2,498.6l-29.4,3.7l-1.1,0.1l-6-22.1l-1.6,23.7l-31.5-1.6c-14-82.3,9.9-101.7,9.9-101.7
		l42.7,8.6c19.3,32.9,14.7,71,14.7,71L695.2,498.6z"/>
	<g id="XMLID_330_">
		<ellipse id="XMLID_82_" class="st26" cx="651.6" cy="298.2" rx="3.2" ry="5.8"/>
		<path id="XMLID_81_" class="st24" d="M675.9,317.8c-0.1,0.1-0.2,0.2-0.4,0.3c-1.7,1.2-3.7,2.4-6,2.9c-6.3,1.5-10.6,0.6-13.4-2.3
			c0,0,0,0,0,0c-3.9-4.3-4.9-11.9-4.4-21c0.2-4.2,0.8-7.8,2-10.7c0,0,0-0.1,0-0.2c0.1-0.1,0.1-0.3,0.2-0.4c1.7-4,4.6-6.5,9.2-7.6
			c1.6-0.4,3.4-0.6,5.4-0.6C686.3,278.1,689.5,307.6,675.9,317.8z"/>
		<path id="XMLID_80_" class="st18" d="M675.5,318.1c-1.7,1.2-3.7,2.2-6,2.7c-6.3,1.5-10.6,0.4-13.4-2.5c3.1,0.7,7.3,0.9,11.3-0.9
			C670,316.2,672.8,316.8,675.5,318.1z"/>
		<path id="XMLID_79_" class="st24" d="M677.3,334.2c1.1,5.1-5.5,7.1-5.5,7.1c-10.8-4.6-12.8-10.3-12.8-10.3
			c9-4.7,6.4-17.9,6.4-17.9l1.8,0.9l12.8,2.5c0,0-3.6,6.8-4,8.4c0,0,0,0,0,0C673.6,333.1,677.3,334.2,677.3,334.2z"/>
		<path id="XMLID_78_" class="st8" d="M653.7,287c0,0-1,12.5,10.9,17.9c0,0,5.1,13,12.6,13.2c10.2,0.3,19.2-14.3,15.7-29.1
			C688.2,269.7,659.2,268.2,653.7,287z"/>
		<path id="XMLID_77_" class="st24" d="M658.6,301.2c0-2,1.6-5.2,4.6-4.8c3.1,0.5,4.9,8.2-2.8,9.9
			C659.2,306.6,658.6,305.3,658.6,301.2z"/>
		<path id="XMLID_76_" class="st8" d="M675.5,273.7c0,0-11.9-3-18.5,1.8c-7.7,5.6-10.6,11.4-1.5,20.4c0,0,20-6.5,26.7-5.1
			c6.7,1.4,11.4,3.3,11.4,3.3C695,280.8,682.1,271,675.5,273.7z"/>
		<path id="XMLID_75_" class="st8" d="M658.6,298.2c0,0,3.2,14.4-1.8,26.7c0,0,28.3,9.8,38.2,4.5c9.8-5.3,0.8-23.3,0.4-33.6
			c-0.4-10.3-4.9-25.6-19.9-22.2C660.5,277.1,658.6,298.2,658.6,298.2z"/>
		<line id="XMLID_74_" class="st26" x1="648.4" y1="297.3" x2="660.3" y2="297.3"/>
	</g>
	<path id="XMLID_73_" class="st18" d="M665.8,502.4l-1.1,0.1l-6-22.1c0,0,12.9-22.1,8.9-33.6C668.1,447.5,682.1,468.2,665.8,502.4z"
		/>
	<g id="XMLID_326_">
		<path id="XMLID_72_" class="st8" d="M641.6,333.1c0,0,14.2-5.1,35.7,1.1s22.3,15.3,22.3,15.3s-13.6,30.8-15.7,65.7l-55.9-2.1
			C627.9,413.2,621.2,363.9,641.6,333.1z"/>
		<path id="XMLID_71_" class="st27" d="M699.6,349.5c0,0-13.6,30.8-15.7,65.7l-55.9-2.1c0,0-0.9-6.9-1-17.1
			c-0.1-7.1,0.2-15.9,1.6-25c1.9-12.9,5.7-26.7,13.2-38c0,0,14.2-5.1,35.7,1.1C698.8,340.4,699.6,349.5,699.6,349.5z"/>
	</g>
	<path id="XMLID_70_" class="st18" d="M640.8,373.2c0,0-2.3,14.2-14,22.9c-0.1-7.1,0.2-15.9,1.6-25L640.8,373.2z"/>
	<path id="XMLID_69_" class="st24" d="M579,332.1l-7.1-10.5c0,0-1.1-4.5-2.4-5.6c-1.4-1-14.9-6.8-16.5-6.8c-1.6,0-1.6,10.5,0,12.3
		c1.6,1.8,10.2,5.6,12.4,6c2.2,0.4,1.2,0,1.2,0l6.2,12.4L579,332.1z"/>
	<g id="XMLID_321_">
		<path id="XMLID_68_" class="st8" d="M641.6,333.1c0,0-19.6,7.7-43.6,22.5l-22.8-31c0,0-6.1,1.9-8.4,12.6c0,0,11.7,44.5,26.9,48.9
			c15.2,4.4,47.1-12.9,47.1-12.9S650.1,350,641.6,333.1z"/>
		<path id="XMLID_67_" class="st27" d="M641.6,333.1c0,0-19.6,7.7-43.6,22.5l-22.8-31c0,0-6.1,1.9-8.4,12.6c0,0,11.7,44.5,26.9,48.9
			c15.2,4.4,47.1-12.9,47.1-12.9S650.1,350,641.6,333.1z"/>
	</g>
	<g id="XMLID_318_">
		<path id="XMLID_66_" class="st8" d="M656,331.1c0,0,5,35.5,20.7,37c15.7,1.4,22.8-24.8,20.1-28C694.1,336.9,673.9,330.9,656,331.1
			z"/>
		<path id="XMLID_65_" class="st28" d="M656,331.1c0,0,5,35.5,20.7,37c15.7,1.4,22.8-24.8,20.1-28
			C694.1,336.9,673.9,330.9,656,331.1z"/>
	</g>
</g>
<g id="_x3C_Group_x3E__81_">
	<polygon id="XMLID_64_" class="st29" points="96.3,658 107.8,658 108.8,631.3 97.2,631.3 	"/>
	<path id="XMLID_63_" class="st8" d="M109.4,656.7h-14c-0.5,0-0.9,0.3-1,0.8l-2.3,10.3c-0.2,0.9,0.4,1.8,1.3,2c0.1,0,0.2,0,0.4,0
		c4.5-0.1,7.8-0.4,13.5-0.4c3.5,0,14.1,0.4,18.9,0.4c4.8,0,5.5-4.8,3.5-5.2c-8.9-1.9-15.6-4.6-18.4-7.2
		C110.8,656.9,110.1,656.7,109.4,656.7z"/>
	<path id="XMLID_312_" class="st23" d="M110.2,658.3c-0.1,0-0.2-0.1-0.2-0.2c0-0.1,0-0.2,0.1-0.3c0.4-0.3,4.1-2.6,5.4-1.9
		c0.3,0.1,0.5,0.4,0.5,0.8c0.1,0.6-0.1,1.1-0.6,1.5c-0.6,0.4-1.4,0.6-2.2,0.6C112.2,658.7,111.2,658.5,110.2,658.3z M111,657.9
		c1.3,0.5,2.8,0.4,4.1-0.2c0.3-0.2,0.4-0.6,0.4-1c0-0.2-0.1-0.3-0.2-0.3c-0.1-0.1-0.2-0.1-0.4-0.1
		C113.5,656.6,112.2,657.1,111,657.9z"/>
	<path id="XMLID_309_" class="st23" d="M110.1,658.3c-0.1-0.1-0.1-0.1-0.1-0.2c0-0.2,0.3-3.5,1.6-4.6c0.3-0.3,0.7-0.4,1.2-0.4
		c0.4,0,0.8,0.3,0.9,0.7c0.2,1.2-2.1,3.8-3.3,4.4h-0.1C110.2,658.3,110.2,658.3,110.1,658.3z M112,653.9c-0.8,1-1.3,2.3-1.4,3.6
		c1.2-0.9,2.7-2.8,2.5-3.6c0-0.1,0-0.3-0.4-0.3h-0.1C112.4,653.6,112.1,653.7,112,653.9z"/>
	<polygon id="XMLID_58_" class="st18" points="97.2,631.3 108.8,631.3 108.3,645.1 96.7,645.1 	"/>
	<polygon id="XMLID_57_" class="st29" points="155.6,658.9 167.5,660.1 169.7,634.5 157.9,633.2 	"/>
	<path id="XMLID_56_" class="st8" d="M168.8,656.3h-14c-0.5,0-0.9,0.3-1,0.8l-2.3,10.3c-0.2,0.9,0.4,1.8,1.3,2c0.1,0,0.2,0,0.4,0
		c4.5-0.1,7.8-0.4,13.5-0.4c3.5,0,14.1,0.4,18.9,0.4c4.8,0,5.5-4.8,3.5-5.2c-8.9-1.9-15.6-4.6-18.4-7.2
		C170.2,656.6,169.5,656.3,168.8,656.3z"/>
	<path id="XMLID_303_" class="st23" d="M169.6,657.9c-0.1,0-0.2-0.1-0.2-0.2c0-0.1,0-0.2,0.1-0.3c0.4-0.3,4.1-2.6,5.4-1.9
		c0.3,0.1,0.5,0.4,0.5,0.8c0.1,0.6-0.1,1.1-0.6,1.5c-0.6,0.4-1.4,0.6-2.2,0.6C171.6,658.3,170.6,658.2,169.6,657.9z M170.4,657.5
		c1.3,0.5,2.8,0.4,4.1-0.2c0.3-0.2,0.4-0.6,0.4-1c0-0.2-0.1-0.3-0.2-0.3c-0.1-0.1-0.2-0.1-0.4-0.1
		C172.9,656.2,171.6,656.8,170.4,657.5z"/>
	<path id="XMLID_300_" class="st23" d="M169.5,658c-0.1-0.1-0.1-0.1-0.1-0.2c0-0.2,0.3-3.5,1.6-4.6c0.3-0.3,0.7-0.4,1.2-0.4
		c0.4,0,0.8,0.3,0.9,0.7c0.2,1.2-2.1,3.8-3.3,4.4h-0.1C169.6,658,169.5,658,169.5,658z M171.3,653.5c-0.8,1-1.3,2.3-1.4,3.6
		c1.2-0.9,2.7-2.8,2.5-3.6c0-0.1,0-0.3-0.4-0.3H172C171.7,653.3,171.5,653.3,171.3,653.5z"/>
	<polygon id="XMLID_51_" class="st18" points="157.9,633.2 169.7,634.5 168.6,647.7 156.7,646.5 	"/>
	<path id="XMLID_50_" class="st8" d="M102,397.2h61.2c5.8,31.8,24,144.1,11,244.2l-20.7-2.6c0,0,1.9-132.9-16.4-182
		c-2.1,26.3-4.6,54.3-6.8,69.2c-5.3,36.6-16.7,116.7-16.7,116.7H92.5c0,0,4.3-76.7,6.3-112.7C101,491,101.9,405.2,102,397.2z"/>
	<g id="XMLID_296_">
		<polygon id="XMLID_49_" class="st23" points="176.5,646.3 150.8,642.5 151.6,635.4 178.3,638.9 		"/>
	</g>
	<g id="XMLID_294_">
		<polygon id="XMLID_48_" class="st23" points="116.1,642.9 91.2,642.9 91.2,635.5 117,635 		"/>
	</g>
	<path id="XMLID_47_" class="st18" d="M137,456.8c2.7,7.2,4.9,16.3,6.8,26.5c1.7-23.4-5.1-48.2-5.1-48.2L137,456.8z"/>
	<path id="XMLID_46_" class="st23" d="M100.3,407.9l-1.4,7.4c0,0,42.8,5.5,69.4,5.4l-0.9-5.1L100.3,407.9z"/>
	<path id="XMLID_45_" class="st29" d="M187.1,343.9c0,0,14.8,46.7,24.9,49.7c10.1,3.1,35.9-35.5,35.9-35.5s23.1-0.2,24.1-1.8
		c1-1.6-6-17.8-7.7-17.8c-1.7,0-21.8,7.6-22.6,8.8s-23.8,23.3-25,22.7c-1.1-0.6-9.8-28.4-9.8-28.4L187.1,343.9z"/>
	<path id="XMLID_44_" class="st29" d="M250.9,355.7c0.2,0,0.4-0.1,0.6-0.1c-0.1-0.1-0.2-0.1-0.3-0.2
		C251.1,355.5,251,355.6,250.9,355.7z"/>
	<g id="XMLID_287_">
		<path id="XMLID_43_" class="st23" d="M178.7,338.5l1.8,3.3l8.4,15.6l1.7,3.2l23.6-8.2c0,0-9.8-36.7-13.2-40.4L178.7,338.5z"/>
		<path id="XMLID_42_" class="st30" d="M178.7,338.5l1.8,3.3l8.4,15.6l1.7,3.2l23.6-8.2c0,0-9.8-36.7-13.2-40.4L178.7,338.5z"/>
	</g>
	<path id="XMLID_41_" class="st18" d="M180.5,341.8l8.4,15.6c5.2-10.2,3.7-24.2,3.7-24.2L180.5,341.8z"/>
	<g id="XMLID_278_">
		<path id="XMLID_40_" class="st23" d="M201.1,311.9c0,0-12.4-16.2-35.6-17.3c-23.2-1.1-30.4,1.2-38.9,8.8
			c-12.4,11-27.7,106.2-27.7,106.2s32.4,10,69.4,7.6c0,0,0.3-26.4,8.6-44.2C193.2,338.3,201.1,311.9,201.1,311.9z"/>
		<path id="XMLID_281_" class="st30" d="M98.9,409.6c0,0,32.4,10,69.4,7.6c0,0,0-3.3,0.4-8.3c0.2-2.4,0.5-5.1,0.9-8.1
			c0.4-3.1,0.9-6.4,1.6-9.8c0.4-1.8,0.8-3.7,1.3-5.5c1.1-4.4,2.6-8.7,4.4-12.6c1-2.2,2-4.3,3-6.5c1.7-3.7,3.3-7.3,4.7-10.7
			c3.1-7.2,5.8-13.9,8-19.6c1.6-4.1,3-7.9,4.1-11.1c1.3-3.6,2.3-6.5,3-8.7c1-2.9,1.4-4.5,1.4-4.5s-0.8-1.1-2.5-2.7
			c-4.6-4.6-15.6-13.5-32.3-14.5c-0.3,0-0.5,0-0.8-0.1c-17.7-0.8-26.1,0.3-32.8,4.2c-2.1,1.2-4.1,2.7-6.1,4.5
			c-1.4,1.2-2.8,3.5-4.2,6.6c-2.4,5.1-4.8,12.3-7.1,20.6c-0.3,1.2-0.7,2.5-1,3.8c-1.5,5.8-3,11.9-4.4,18.1c-0.4,1.8-0.8,3.5-1.2,5.3
			c-0.6,2.7-1.2,5.4-1.7,8.1c-1.4,6.7-2.7,13.2-3.8,19.1c-1.6,8.4-2.8,15.4-3.6,19.8C99.1,407.9,98.9,409.6,98.9,409.6z
			 M166.9,295.6c1.6,0.1,3.2,0.2,4.6,0.4c6.3,0.8,15.8,5.8,15.5,8.2c-0.3,2.4-3.9,8.4-13.2,6.9c-3.2-0.5-6.3-2-9-3.8
			c-5.1-3.4-8.9-8-9.3-9.5C155.1,296,161.2,295.4,166.9,295.6z"/>
		<path id="XMLID_37_" class="st23" d="M146.9,327.2c0,0-12.3,29.7-14.8,54.3l33.1,4.2c0,0,14.9-40.1,18-52.6
			C183.2,333.1,156.7,330.5,146.9,327.2z"/>
		<polygon id="XMLID_36_" class="st30" points="176.7,334.3 181.4,334.8 178,337.4 		"/>
	</g>
	<path id="XMLID_35_" class="st29" d="M158.7,297.9c2.5,7.2,11.8,10.4,16.7,10.8c6.9,0.6,8.9-4.8,8.9-4.8s-5.6-2.8-5-5.9
		c0.3-1.8,1.2-3.6,2.3-5.3c0.6-0.9,1.2-1.8,1.9-2.6l-8.9-19.2C172.5,279.2,166.4,295.2,158.7,297.9z"/>
	<path id="XMLID_34_" class="st18" d="M174.2,279.8c-4.3,9.3,1.8,15.8,5.1,18.2c0.3-1.8,1.2-3.6,2.3-5.3L174.2,279.8z"/>
	<g id="XMLID_256_">
		<g id="XMLID_273_">
			<path id="XMLID_33_" class="st29" d="M204.2,254.9c0,0,2.9,15.8-5.4,22.1c-8.3,6.3-9.1-23.2-9.1-23.2L204.2,254.9z"/>
			<path id="XMLID_32_" class="st31" d="M204.2,254.9c0,0,2.9,15.8-5.4,22.1c-8.3,6.3-9.1-23.2-9.1-23.2L204.2,254.9z"/>
		</g>
		<path id="XMLID_31_" class="st29" d="M174.7,290.3c4.3,5.8,11,7.1,16.7,5.1c3.7-1.3,7-4,8.9-7.7c0.3-0.5,0.5-1,0.7-1.5
			c3.9-9.8,4.7-33.8-5.7-32.9c-8.6,0.7-17-1.9-21.4,5.5c-1.3,2.1-2,4.5-2.1,6.9C170.8,277.1,169.8,283.7,174.7,290.3z"/>
		<path id="XMLID_30_" class="st8" d="M188.5,271.3c-0.2,0.9,0.2,1.7,0.9,1.8c0.6,0.1,1.2-0.6,1.3-1.5c0.1-0.9-0.3-1.7-0.9-1.8
			C189.2,269.7,188.6,270.4,188.5,271.3z"/>
		<path id="XMLID_29_" class="st8" d="M198.9,272.8c-0.2,0.9,0.3,1.7,0.9,1.8c0.6,0.1,1.2-0.6,1.3-1.5c0.1-0.9-0.3-1.7-0.9-1.8
			C199.6,271.2,199,271.9,198.9,272.8z"/>
		<path id="XMLID_28_" class="st32" d="M195.5,272.8c0.7,3,1.8,5.8,3.3,8.5c-1.4,0.7-3.1,0.8-4.5,0.2L195.5,272.8z"/>
		<path id="XMLID_27_" class="st8" d="M185.7,267.5c0.2,0.1,0.4,0,0.6-0.1c1-1,2.3-1.5,3.7-1.3c0.3,0.1,0.6-0.1,0.6-0.4
			c0.1-0.3-0.1-0.6-0.4-0.6c0,0,0,0,0,0c-1.7-0.3-3.5,0.3-4.7,1.6c-0.2,0.2-0.2,0.5,0,0.8c0,0,0,0,0,0
			C185.6,267.4,185.7,267.4,185.7,267.5z"/>
		<path id="XMLID_26_" class="st8" d="M203.9,269.8c0.1,0.1,0.2,0.1,0.3,0.1c0.3-0.1,0.4-0.4,0.4-0.7c0,0,0,0,0,0
			c-0.5-1.7-1.8-3-3.5-3.6c-0.3-0.1-0.6,0.1-0.7,0.4l0,0c-0.1,0.3,0.1,0.6,0.4,0.7l0,0c1.3,0.5,2.3,1.6,2.7,2.9
			C203.6,269.7,203.7,269.8,203.9,269.8z"/>
		<path id="XMLID_25_" class="st26" d="M187,281.9c0,0,1.9,4.1,5.8,4"/>
		<g id="XMLID_263_">
			<path id="XMLID_24_" class="st29" d="M182.1,252.8l0.1,5.1c-1.7,0.7-2.9,2.5-2.3,4.5c1.2,4.4-1.8,10.7-5.3,13
				c0,0,0.1-1.8-1.5-1.5c-1.6,0.3-2,9.8,0.5,14.6c0,0-5.5-5.1-7.1-15.3c-1.5-9.5-1.3-15.4,0.1-20L182.1,252.8z"/>
			<path id="XMLID_23_" class="st31" d="M182.1,252.8l0.1,5.1c-1.7,0.7-2.9,2.5-2.3,4.5c1.2,4.4-1.8,10.7-5.3,13
				c0,0,0.1-1.8-1.5-1.5c-1.6,0.3-2,9.8,0.5,14.6c0,0-5.5-5.1-7.1-15.3c-1.5-9.5-1.3-15.4,0.1-20L182.1,252.8z"/>
		</g>
		<path id="XMLID_22_" class="st8" d="M165.6,258.9c0,0,6.5,1,16.6-1c15.7-3.1,22.3,2.7,22.3,2.7s3.7-3.2,3.3-7.7
			c-0.5-4.5-6.7-5.3-6.7-5.3s-1.9-5.1-6-6.6c-4.2-1.5-8.3,2.3-8.3,2.3s-5.2-5-11.2-3.6c-7.4,1.7-7.2,8.8-7.2,8.8s-7.1,0.7-6.9,4.4
			S165.6,258.9,165.6,258.9z"/>
		<ellipse id="XMLID_21_" class="st26" cx="189.7" cy="272.1" rx="5.1" ry="5.9"/>
		<ellipse id="XMLID_20_" class="st26" cx="202.5" cy="272.9" rx="5.1" ry="5.9"/>
		<path id="XMLID_19_" class="st26" d="M194.8,272.8c0,0,1.6-1,2.6,0.2"/>
		<path id="XMLID_18_" class="st26" d="M184.6,272.1l-8.9-1.2c-1.2-0.2-2.3,0.2-3.3,0.9l-0.4,0.3"/>
		<path id="XMLID_17_" class="st29" d="M165.5,274.3c0.9,2.7,2.8,5,5.4,6.3c3.4,1.7,5.8-1.2,5.5-4.8c-0.3-3.2-2.5-8-6.2-8.2
			C166.5,267.4,164.5,270.9,165.5,274.3z"/>
	</g>
	<path id="XMLID_16_" class="st18" d="M108.7,357.9c14.7-6.1,26.3-31.3,26.3-31.3l-8.3-5l-11.3,9.1c-0.3,1.2-0.7,2.5-1,3.8
		c-1.5,5.8-3,11.9-4.4,18.1C109.5,354.4,109.1,356.1,108.7,357.9z"/>
	<polygon id="XMLID_15_" class="st23" points="189.6,360.6 214.9,351.3 215.6,353.4 190.3,362.5 	"/>
	<g id="XMLID_238_">
		
			<rect id="XMLID_14_" x="46.4" y="418.5" transform="matrix(0.9877 0.1567 -0.1567 0.9877 70.1878 -7.6465)" class="st11" width="74.3" height="45.9"/>
	</g>
	<path id="XMLID_10_" class="st29" d="M117.8,307.5c0,0-27.7,27.8-31.4,33.2c-3.8,5.4-11,65.3-11,65.3s-1.5,0.5-1.7,1.8
		c-0.1,1.3-0.2,18.1,0,18.9c0.2,0.8,13,8.6,14.9,6.8c1.9-1.9,4.5-20.9,4.5-20.9l-6.7-6.6c0,0,7.8-44.1,12.7-51.2
		c4.9-7.1,25-22.4,25-22.4L117.8,307.5z"/>
	<g id="XMLID_234_">
		<path id="XMLID_9_" class="st23" d="M139.1,296.3c4,8.5,1,26.5-6.5,32.9c-11.2,9.6-24.9,17.8-24.9,17.8l-13.6-17.8
			c0,0,14.4-14.1,23.2-22.2C128,297.1,139.1,296.3,139.1,296.3z"/>
		<path id="XMLID_8_" class="st30" d="M139.1,296.3c4,8.5,1,26.5-6.5,32.9c-11.2,9.6-24.9,17.8-24.9,17.8l-13.6-17.8
			c0,0,14.4-14.1,23.2-22.2C128,297.1,139.1,296.3,139.1,296.3z"/>
	</g>
	<polygon id="XMLID_7_" class="st23" points="94.2,328.1 92.5,330.4 106.7,348.9 108.7,347.5 	"/>
</g>
<path id="XMLID_1_" class="st23" d="M526.6,367H521v-13.8c0-7.5-5.5-13.5-13-13.5s-13,6-13,13.5V367h-5.1
	c-10.3,0-18.9,8.1-18.9,18.4v107.4c0,10.3,8.6,18.2,18.9,18.2h36.7c10.3,0,18.4-7.9,18.4-18.2V385.4C545,375.1,536.9,367,526.6,367z
	"/>
<path id="XMLID_3_" class="st14" d="M302.5,392H299v-8.4c0-4.6-3.4-8.4-8-8.4s-8,3.7-8,8.4v8.4h-3.2c-6.4,0-11.8,5.2-11.8,11.6v66.6
	c0,6.4,5.4,10.9,11.8,10.9h22.7c6.4,0,11.5-4.5,11.5-10.9v-66.6C314,397.2,308.9,392,302.5,392z"/>
</svg>
