<svg id="Layer_1" data-name="Layer 1" xmlns="http://www.w3.org/2000/svg" viewBox="0 0 748.5 586.73"><defs><style>.cls-1{fill:#ebebeb;}.cls-2{fill:#f5f5f5;}.cls-3{fill:#f1f0f0;}.cls-10,.cls-13,.cls-15,.cls-20,.cls-28,.cls-30,.cls-31,.cls-33,.cls-4{fill:#fff;}.cls-27,.cls-34,.cls-35,.cls-36,.cls-37,.cls-5{fill:#e0e0e0;}.cls-6{fill:#5274b8;}.cls-17,.cls-7{fill:#4ea8b0;}.cls-8{fill:none;stroke:#fff;stroke-miterlimit:10;stroke-width:0.5px;}.cls-25,.cls-31,.cls-8{opacity:0.8;}.cls-9{fill:#f7f8f8;}.cls-10,.cls-20,.cls-32{opacity:0.1;}.cls-10{isolation:isolate;}.cls-11{fill:#f0b943;}.cls-12,.cls-33,.cls-37{opacity:0.3;}.cls-13,.cls-35{opacity:0.5;}.cls-14{fill:#263238;}.cls-15,.cls-19,.cls-34{opacity:0.2;}.cls-16{fill:#1a2f36;}.cls-17{opacity:0.47;}.cls-18{fill:#192f36;}.cls-21{fill:#fab176;}.cls-22{fill:#f6893f;}.cls-23{fill:#dd4d65;}.cls-24,.cls-25,.cls-26{fill:#aaabab;}.cls-26,.cls-27{opacity:0.7;}.cls-28{opacity:0.6;}.cls-29{fill:#0a7c80;}.cls-30{opacity:0.9;}.cls-36{opacity:0.4;}.cls-38{fill:#db4d65;}</style></defs><g id="Detailed_Background" data-name="Detailed Background"><rect class="cls-1" y="457.17" width="641.88" height="0.32"/><rect class="cls-2" x="475.62" y="470.64" width="68.13" height="0.32"/><rect class="cls-2" x="349.9" y="476.38" width="75.31" height="0.32"/><rect class="cls-2" x="437.66" y="476.38" width="24.64" height="0.32"/><rect class="cls-2" x="128.98" y="470.64" width="55.45" height="0.32"/><rect class="cls-2" x="102.01" y="468.07" width="19.82" height="0.32"/><rect class="cls-2" x="168.78" y="476.06" width="69.58" height="0.32"/><path class="cls-1" d="M394.69,428.3H146.81a7.34,7.34,0,0,1-7.32-7.33V72.52a7.34,7.34,0,0,1,7.32-7.27H394.69A7.33,7.33,0,0,1,402,72.58h0V421A7.33,7.33,0,0,1,394.69,428.3ZM146.81,65.51a7,7,0,0,0-7,7V421a7,7,0,0,0,7,7H394.69a7,7,0,0,0,7-7V72.52a7,7,0,0,0-7-7Z" transform="translate(-88.65 -53.96)"/><path class="cls-1" d="M672.38,428.3H424.49a7.34,7.34,0,0,1-7.33-7.33V72.52a7.34,7.34,0,0,1,7.33-7.27H672.38a7.34,7.34,0,0,1,7.31,7.27V421A7.34,7.34,0,0,1,672.38,428.3ZM424.49,65.51a7,7,0,0,0-7,7V421a7,7,0,0,0,7,7H672.38a7,7,0,0,0,7-7V72.52a7,7,0,0,0-7-7Z" transform="translate(-88.65 -53.96)"/><polygon class="cls-3" points="100.69 213.41 91.5 213.41 88.94 210.07 103.25 210.07 100.69 213.41"/><path class="cls-3" d="M203.48,226.45a18.74,18.74,0,0,1-6.29,14,12.32,12.32,0,0,0-4.27,9.17V251H176.57v-1.42a12.33,12.33,0,0,0-4.26-9.16,18.74,18.74,0,1,1,31.17-14Z" transform="translate(-88.65 -53.96)"/><rect class="cls-4" x="178.99" y="231.44" width="1.13" height="19.67" transform="translate(-133.28 -13.16) rotate(-11.54)"/><rect class="cls-4" x="180.1" y="240.71" width="19.67" height="1.13" transform="translate(-172.99 325.38) rotate(-78.51)"/><polygon class="cls-4" points="98.37 186.06 96.1 181.95 93.82 186.06 89.56 181.16 90.42 180.42 93.62 184.1 96.1 179.62 98.58 184.1 101.77 180.42 102.63 181.16 98.37 186.06"/><polygon class="cls-3" points="104.28 196.95 104.28 209.99 87.92 210.07 87.92 197.03 104.28 196.95"/><rect class="cls-4" x="176.56" y="263.43" width="16.36" height="1.13" transform="translate(-90.21 -52.86) rotate(-0.34)"/><rect class="cls-4" x="176.56" y="250.39" width="16.36" height="1.13" transform="translate(-90.13 -52.86) rotate(-0.34)"/><polygon class="cls-1" points="492.04 511.33 425.44 511.33 446.86 530.75 515.55 530.75 492.04 511.33"/><polygon class="cls-4" points="416.55 540.75 367.13 514.34 408.34 499.22 456.21 522.85 416.55 540.75"/><polygon class="cls-5" points="376.1 505.31 435.52 505.31 417.56 527.53 351.69 527.53 376.1 505.31"/><circle class="cls-3" cx="538.97" cy="56.03" r="25.1"/><path class="cls-4" d="M627.69,135.65a25.67,25.67,0,0,1,0-51.33v1.13a24.54,24.54,0,0,0,0,49.07Z" transform="translate(-88.65 -53.96)"/><path class="cls-4" d="M627.69,135.65v-1.13a24.54,24.54,0,0,0,0-49.07V84.32a25.67,25.67,0,0,1,0,51.33Z" transform="translate(-88.65 -53.96)"/><path class="cls-4" d="M640.8,110h-1.13c0-8.32-4.22-19.44-12.29-24.62l.61-1C636.4,89.81,640.8,101.37,640.8,110Z" transform="translate(-88.65 -53.96)"/><path class="cls-4" d="M628,134.8l-.61-1c8.07-5.18,12.29-16.31,12.29-24.63h1.13C640.8,117.85,636.4,129.4,628,134.8Z" transform="translate(-88.65 -53.96)"/><path class="cls-4" d="M615.71,110h-1.13c0-8.62,4.4-20.17,12.8-25.57l.61,1C619.93,90.54,615.71,101.67,615.71,110Z" transform="translate(-88.65 -53.96)"/><path class="cls-4" d="M627.38,134.79c-8.4-5.4-12.8-16.95-12.8-25.57h1.13c0,8.32,4.22,19.44,12.28,24.62Z" transform="translate(-88.65 -53.96)"/><rect class="cls-4" x="538.48" y="30.93" width="1.13" height="50.19"/><rect class="cls-4" x="517.8" y="42.09" width="42.49" height="1.13"/><rect class="cls-4" x="513.96" y="55.89" width="50.17" height="1.13"/><rect class="cls-4" x="518.36" y="69.67" width="41.36" height="1.13"/><path class="cls-5" d="M557.82,247.64a147,147,0,0,0-6.36-43l37.76-33.22-23.78-41.18-47.65,16.12a148,148,0,0,0-74.53-43.07L433.36,54H385.82L376,103.26a148,148,0,0,0-74.57,43.07l-47.66-16.12L230,171.39l37.76,33.22a148.88,148.88,0,0,0,0,86.1L230,323.89l23.77,41.19L301.39,349A148.43,148.43,0,0,0,376,392.06l9.86,49.3h47.54l9.9-49.3A148.39,148.39,0,0,0,517.79,349l47.65,16.12,23.78-41.19-37.76-33.18A147.19,147.19,0,0,0,557.82,247.64Zm-148.23,80a77.06,77.06,0,1,1,77.05-77.06A77,77,0,0,1,409.59,327.67Z" transform="translate(-88.65 -53.96)"/><path class="cls-3" d="M634.5,425.56c-4-2.17.9-20.4-4.43-28.36-3.91-5.84-11-9.38-13.61-15.9A15.56,15.56,0,0,1,619.78,365a3.66,3.66,0,0,1,1.33-1,4,4,0,0,1,1.8-.1c3.47.34,7.07.92,10,2.89,3.55,2.42,5.51,6.66,6.13,10.91S638.69,427.87,634.5,425.56Z" transform="translate(-88.65 -53.96)"/><path class="cls-3" d="M636.35,399.91l-.06-1.37a16.3,16.3,0,0,0-.15,2.21Z" transform="translate(-88.65 -53.96)"/><path class="cls-3" d="M648.91,369.57a2.27,2.27,0,0,0-.78-.67,2.55,2.55,0,0,0-1.13-.16,13.15,13.15,0,0,0-6.42,1.26,10,10,0,0,0-4.46,6.52,29.57,29.57,0,0,0-.41,8.09q.28,7,.58,13.93a16.69,16.69,0,0,1,4.36-9.28c3.05-3.22,7.44-5.28,9.44-9.23A9.83,9.83,0,0,0,648.91,369.57Z" transform="translate(-88.65 -53.96)"/><path class="cls-3" d="M642.35,453.71c0-.23,0-.44,0-.67-1.05-14.18-3.69-40.41-16.39-53-2.64-2.63-7.06-4.51-10.87-3.26a9.1,9.1,0,0,0-3.59,2.37c-4.15,4.18-5.37,9.82-5.2,15.18a37,37,0,0,0,6,18.75c5.08,7.92,13,14.34,19.52,21.56s-.52,27.67,9.92,24.79C642.62,479.13,642.39,456.74,642.35,453.71Z" transform="translate(-88.65 -53.96)"/><path class="cls-3" d="M635.9,463.82q.4-19.47.83-38.92c.26-12,1-25.14,10.79-34.35,2.49-2.34,6.26-4.46,9.81-3.49a8.34,8.34,0,0,1,3.4,2c4,3.63,5.38,8.74,5.48,13.66a33.91,33.91,0,0,1-4.58,17.46c-4.28,7.49-11.26,13.75-16.87,20.67s1.78,25.32-7.92,23.18Z" transform="translate(-88.65 -53.96)"/><path class="cls-2" d="M652,512.94h0a46.08,46.08,0,0,1-27.79,0h0l-10.87-49.55h49.54Z" transform="translate(-88.65 -53.96)"/><rect class="cls-4" x="526.78" y="417.94" width="45.17" height="1.02"/></g><g id="Smartphone_Screen" data-name="Smartphone Screen"><g id="_Group_" data-name="&lt;Group&gt;"><path class="cls-6" d="M578.07,400.2h-73.8a11.43,11.43,0,0,1-11.56-12.68l14.05-160.58a14.11,14.11,0,0,1,13.78-12.68h73.79a11.44,11.44,0,0,1,11.57,12.68l-14,160.58A14.11,14.11,0,0,1,578.07,400.2Z" transform="translate(-88.65 -53.96)"/><path class="cls-7" d="M578.07,400.2h-73.8a11.43,11.43,0,0,1-11.56-12.68l14.05-160.58a14.11,14.11,0,0,1,13.78-12.68h73.79a11.44,11.44,0,0,1,11.57,12.68l-14,160.58A14.11,14.11,0,0,1,578.07,400.2Z" transform="translate(-88.65 -53.96)"/><path class="cls-8" d="M548,388.36a6.7,6.7,0,0,1-6.55,6,5.44,5.44,0,0,1-5.51-6,6.71,6.71,0,0,1,6.56-6A5.43,5.43,0,0,1,548,388.36Z" transform="translate(-88.65 -53.96)"/><path class="cls-8" d="M568.18,228.62H544.29a2,2,0,0,1-2-2.24l0-.56a2.49,2.49,0,0,1,2.44-2.24h23.89a2,2,0,0,1,2,2.24l0,.56A2.49,2.49,0,0,1,568.18,228.62Z" transform="translate(-88.65 -53.96)"/><polygon class="cls-9" points="496.84 319.48 411.84 319.48 423.83 182.49 508.82 182.49 496.84 319.48"/><polygon class="cls-10" points="474.77 160.88 433.62 346.24 458.35 346.24 499.1 160.88 474.77 160.88"/><polygon class="cls-10" points="455.53 160.88 414.37 346.24 426.84 346.24 467.59 160.88 455.53 160.88"/><polygon class="cls-11" points="438.86 312.07 417.85 312.07 419.12 297.55 440.13 297.55 438.86 312.07"/><polygon class="cls-11" points="465.52 312.07 444.51 312.07 445.78 297.55 466.79 297.55 465.52 312.07"/><polygon class="cls-11" points="492.18 312.07 471.17 312.07 472.44 297.55 493.45 297.55 492.18 312.07"/><polygon class="cls-6" points="495.42 275.02 421.09 275.02 420.97 276.31 495.31 276.31 495.42 275.02"/><polygon class="cls-11" points="495.42 275.02 421.09 275.02 420.97 276.31 495.31 276.31 495.42 275.02"/><polygon class="cls-11" points="495.85 270.11 489 270.11 489.6 263.26 496.45 263.26 495.85 270.11"/><polygon class="cls-11" points="462.14 270.11 455.29 270.11 455.89 263.26 462.74 263.26 462.14 270.11"/><polygon class="cls-11" points="428.43 270.11 421.57 270.11 422.18 263.26 429.03 263.26 428.43 270.11"/><polygon class="cls-5" points="494.25 288.45 474.75 288.45 475.16 283.74 494.66 283.74 494.25 288.45"/><polygon class="cls-6" points="471.14 255.8 422.86 255.8 423.28 251.02 471.56 251.02 471.14 255.8"/><polygon class="cls-11" points="471.14 255.8 422.86 255.8 423.28 251.02 471.56 251.02 471.14 255.8"/><polygon class="cls-6" points="450.67 192.41 428.41 192.41 428.85 187.33 451.12 187.33 450.67 192.41"/><polygon class="cls-11" points="450.67 192.41 428.41 192.41 428.85 187.33 451.12 187.33 450.67 192.41"/><path class="cls-5" d="M514.27,345.75h0a5.32,5.32,0,0,1-5.39-5.91h0a6.57,6.57,0,0,1,6.42-5.9h0a5.33,5.33,0,0,1,5.39,5.9h0A6.57,6.57,0,0,1,514.27,345.75Z" transform="translate(-88.65 -53.96)"/><polygon class="cls-7" points="497.76 247.17 423.57 247.17 428.06 195.93 502.24 195.93 497.76 247.17"/><path class="cls-12" d="M506.39,231.16h27A12.89,12.89,0,0,0,546,219.58l.46-5.32H520.92a14.55,14.55,0,0,0-14.2,13.06Z" transform="translate(-88.65 -53.96)"/></g></g><g id="Monitor_Screen" data-name="Monitor Screen"><g id="_Group_2" data-name="&lt;Group&gt;"><polygon class="cls-6" points="442.18 160.42 224.42 160.42 236.5 22.38 454.25 22.38 442.18 160.42"/><path class="cls-7" d="M527.83,225.18H313.25a9.94,9.94,0,0,1-10.06-11L315.19,77a12.27,12.27,0,0,1,12-11H541.76a9.94,9.94,0,0,1,10.06,11l-12,137.18A12.27,12.27,0,0,1,527.83,225.18Z" transform="translate(-88.65 -53.96)"/><polygon class="cls-9" points="442.18 160.42 224.42 160.42 236.5 22.38 454.25 22.38 442.18 160.42"/><polygon class="cls-11" points="428.06 62.43 388.08 62.43 390.04 39.94 430.03 39.94 428.06 62.43"/><polygon class="cls-11" points="424.18 106.8 384.19 106.8 386.16 84.31 426.15 84.31 424.18 106.8"/><polygon class="cls-11" points="420.3 151.16 380.31 151.16 382.28 128.67 422.26 128.67 420.3 151.16"/><polygon class="cls-6" points="248.6 133.93 248.49 135.21 363.88 135.21 363.99 133.93 248.6 133.93"/><polygon class="cls-11" points="363.99 133.93 248.6 133.93 248.49 135.21 363.88 135.21 363.99 133.93"/><polygon class="cls-10" points="263.56 12.07 221.02 171.15 235.33 171.15 277.39 12.07 263.56 12.07"/><polygon class="cls-10" points="285.64 12.07 243.1 171.15 271.48 171.15 313.55 12.07 285.64 12.07"/><polygon class="cls-7" points="365.28 119.25 250.03 119.25 257 39.65 372.24 39.65 365.28 119.25"/><path class="cls-5" d="M341.84,204.6h0a5.33,5.33,0,0,1-5.39-5.91h0a6.57,6.57,0,0,1,6.42-5.9h0a5.32,5.32,0,0,1,5.39,5.9h0A6.57,6.57,0,0,1,341.84,204.6Z" transform="translate(-88.65 -53.96)"/><polygon class="cls-6" points="306.8 129.04 249.18 129.04 249.62 123.95 307.24 123.95 306.8 129.04"/><polygon class="cls-11" points="306.8 129.04 249.18 129.04 249.62 123.95 307.24 123.95 306.8 129.04"/><polygon class="cls-5" points="362.75 147.27 340.49 147.27 340.94 142.19 363.2 142.19 362.75 147.27"/><polygon class="cls-11" points="364.42 129.04 359.33 129.04 359.78 123.95 364.87 123.95 364.42 129.04"/><polygon class="cls-11" points="355.8 129.04 350.71 129.04 351.15 123.95 356.24 123.95 355.8 129.04"/><polygon class="cls-11" points="347.17 129.04 342.09 129.04 342.53 123.95 347.62 123.95 347.17 129.04"/><polygon class="cls-13" points="372.67 34.75 286.24 34.75 286.62 30.37 373.06 30.37 372.67 34.75"/><polygon class="cls-6" points="279.41 35.1 257.14 35.1 257.59 30.02 279.85 30.02 279.41 35.1"/><polygon class="cls-11" points="279.41 35.1 257.14 35.1 257.59 30.02 279.85 30.02 279.41 35.1"/></g><rect class="cls-6" x="521.01" y="59.29" width="1.28" height="6.2" transform="translate(366.25 529.54) rotate(-89.52)"/><rect class="cls-6" x="503.43" y="53.25" width="1.28" height="17.99" transform="translate(348.96 511.81) rotate(-89.52)"/></g><g id="Drawing_Table" data-name="Drawing Table"><polygon class="cls-14" points="360.81 197.87 367.75 197.87 354.98 339.31 348.38 339.31 360.81 197.87"/><polygon class="cls-15" points="360.81 197.87 367.75 197.87 354.98 339.31 348.38 339.31 360.81 197.87"/><rect class="cls-16" x="452" y="319.61" width="1.28" height="69.05" transform="translate(-131.09 8.31) rotate(-7.52)"/><polygon class="cls-17" points="351.44 330.93 137.44 330.93 149.15 197.11 363.15 197.11 351.44 330.93"/><polygon class="cls-16" points="184.57 347.75 193.43 347.75 207.9 535.69 201.5 535.69 184.57 347.75"/><polygon class="cls-16" points="397.41 346.46 406.26 346.46 420.74 535.69 414.33 535.69 397.41 346.46"/><rect class="cls-18" x="139.46" y="346.46" width="264.17" height="29.8"/><rect class="cls-19" x="139.49" y="346.69" width="213.72" height="29.8"/><polygon class="cls-16" points="145.29 346.46 136.43 346.46 136.17 535.69 142.57 535.69 145.29 346.46"/><polygon class="cls-16" points="358.13 346.46 349.27 346.46 349.01 535.69 355.4 535.69 358.13 346.46"/><polygon class="cls-15" points="136.43 346.46 136.17 535.69 142.57 535.69 145.29 346.46 136.43 346.46"/><polygon class="cls-20" points="358.13 346.46 349.27 346.46 349.01 535.69 355.4 535.69 358.13 346.46"/><path class="cls-14" d="M217.72,393.27h0c0-4,1.49-7.26,3.33-7.28H498.94c1.84,0,3.33,3.27,3.34,7.28h0c0,4-1.5,7.26-3.34,7.28H221.05C219.21,400.53,217.72,397.28,217.72,393.27Z" transform="translate(-88.65 -53.96)"/><path class="cls-20" d="M217.72,393.27h0c0-4,1.49-7.26,3.33-7.28H498.94c1.84,0,3.33,3.27,3.34,7.28h0c0,4-1.5,7.26-3.34,7.28H221.05C219.21,400.53,217.72,397.28,217.72,393.27Z" transform="translate(-88.65 -53.96)"/><path class="cls-16" d="M430.55,393.27h0c0-4,1.5-7.26,3.34-7.28h65.05c1.84,0,3.33,3.27,3.34,7.28h0c0,4-1.5,7.26-3.34,7.28H433.89C432.05,400.53,430.56,397.28,430.55,393.27Z" transform="translate(-88.65 -53.96)"/><polygon class="cls-4" points="338.05 314.46 273.27 314.46 282.41 210.06 347.18 210.06 338.05 314.46"/><path class="cls-4" d="M427.28,369.06H361.22l9.25-105.68h66.06Zm-64.66-1.29h63.49l9-103.11H371.64Z" transform="translate(-88.65 -53.96)"/><path class="cls-5" d="M383.1,363.76H367.32l1-11.1h15.78ZM368,363.12h14.49l.86-9.82H368.88Z" transform="translate(-88.65 -53.96)"/><path class="cls-5" d="M402.31,363.76H386.53l1-11.1h15.77Zm-15.09-.64h14.5l.85-9.82H388.08Z" transform="translate(-88.65 -53.96)"/><path class="cls-5" d="M421.51,363.76H405.73l1-11.1h15.78Zm-15.08-.64h14.49l.86-9.82H407.29Z" transform="translate(-88.65 -53.96)"/><rect class="cls-5" x="281.32" y="282.94" width="53.54" height="0.64"/><path class="cls-5" d="M406.47,322H371.05l.35-4.09h35.42Zm-34.72-.65h34.13l.24-2.8H372Z" transform="translate(-88.65 -53.96)"/><path class="cls-5" d="M422.88,348H408.19l.36-4h14.69Zm-14-.64h13.4l.25-2.75h-13.4Z" transform="translate(-88.65 -53.96)"/><path class="cls-5" d="M424.26,332.26h-5.58l.49-5.58h5.58Zm-4.88-.65h4.29l.38-4.29h-4.29Z" transform="translate(-88.65 -53.96)"/><path class="cls-5" d="M400,332.26H394.4l.49-5.58h5.58Zm-4.88-.65h4.29l.38-4.29h-4.29Z" transform="translate(-88.65 -53.96)"/><path class="cls-5" d="M375.7,332.26h-5.58l.49-5.58h5.58Zm-4.88-.65h4.3l.37-4.29H371.2Z" transform="translate(-88.65 -53.96)"/><path class="cls-5" d="M392,273.73H375.27l.37-4.31h16.68Zm-16-.64h15.39l.26-3H376.23Z" transform="translate(-88.65 -53.96)"/><path class="cls-5" d="M374,349.15h-1.4a3.51,3.51,0,0,1-2.65-1.14,3.57,3.57,0,0,1-.91-2.76l.12-1.4a4.29,4.29,0,0,1,4.18-3.85h1.41a3.53,3.53,0,0,1,3.56,3.9l-.13,1.41A4.28,4.28,0,0,1,374,349.15Zm-.66-8.51a3.64,3.64,0,0,0-3.54,3.26l-.12,1.41a2.94,2.94,0,0,0,.74,2.27,2.91,2.91,0,0,0,2.18.93H374a3.62,3.62,0,0,0,3.54-3.26l.13-1.4a3,3,0,0,0-.74-2.27,2.93,2.93,0,0,0-2.18-.94Z" transform="translate(-88.65 -53.96)"/><path class="cls-5" d="M425.75,314.45H371.67l0-.35L375,276.9H429l0,.35Zm-53.38-.65h52.79l3.17-36.26H375.55Z" transform="translate(-88.65 -53.96)"/><rect class="cls-5" x="400.03" y="264.52" width="0.64" height="62.3" transform="translate(-163.65 389.16) rotate(-53.68)"/><rect class="cls-5" x="369.1" y="303.94" width="36.13" height="0.64" transform="translate(-191.96 206.59) rotate(-33.07)"/><polygon class="cls-5" points="293.97 309.73 279.75 299.28 280.13 298.76 294.35 309.22 293.97 309.73"/><rect class="cls-5" x="366.12" y="357.89" width="19.15" height="0.64" transform="translate(-223.25 209.06) rotate(-33.07)"/><polygon class="cls-5" points="313.17 309.73 298.95 299.28 299.33 298.76 313.55 309.22 313.17 309.73"/><rect class="cls-5" x="385.32" y="357.89" width="19.15" height="0.64" transform="translate(-220.15 219.62) rotate(-33.08)"/><polygon class="cls-5" points="332.37 309.73 318.15 299.28 318.53 298.76 332.75 309.22 332.37 309.73"/><rect class="cls-5" x="404.53" y="357.89" width="19.15" height="0.64" transform="translate(-217.04 230.1) rotate(-33.08)"/><polygon class="cls-4" points="265.15 291.89 145.44 291.89 152.58 210.31 272.28 210.31 265.15 291.89"/><path class="cls-4" d="M354.38,346.49h-121l7.25-82.86h121Zm-119.59-1.28H353.21l7-80.3H241.81Z" transform="translate(-88.65 -53.96)"/><rect class="cls-5" x="159.37" y="277.37" width="64.98" height="0.64"/><path class="cls-5" d="M314.39,319.49H248.84l0-.35L252.82,274h65.54l0,.35Zm-64.85-.64H313.8l3.86-44.19H253.41Z" transform="translate(-88.65 -53.96)"/><path class="cls-5" d="M251.52,341h-1.77a2.51,2.51,0,0,1-2.55-2.79l.16-1.76a3,3,0,0,1,3-2.74h1.77a2.53,2.53,0,0,1,1.9.82,2.59,2.59,0,0,1,.65,2l-.16,1.77A3,3,0,0,1,251.52,341Zm-1.19-6.65a2.39,2.39,0,0,0-2.33,2.15l-.16,1.77a1.91,1.91,0,0,0,.49,1.48,1.87,1.87,0,0,0,1.42.61h1.77a2.39,2.39,0,0,0,2.33-2.15l.16-1.76a1.89,1.89,0,0,0-1.91-2.1Z" transform="translate(-88.65 -53.96)"/><path class="cls-5" d="M281.23,327.57H248.14l.3-3.51h33.1Zm-32.39-.64h31.8l.2-2.23H249Z" transform="translate(-88.65 -53.96)"/><path class="cls-5" d="M312.63,339.12H299.45l.3-3.51h13.18Zm-12.48-.64H312l.19-2.22H300.34Z" transform="translate(-88.65 -53.96)"/><path class="cls-5" d="M313.68,327.57h-3.51l.31-3.51H314Zm-2.81-.64h2.22l.2-2.23h-2.22Z" transform="translate(-88.65 -53.96)"/><path class="cls-5" d="M308.82,327.57h-3.51l.31-3.51h3.51Zm-2.81-.64h2.22l.2-2.23h-2.22Z" transform="translate(-88.65 -53.96)"/><path class="cls-5" d="M304,327.57h-3.51l.3-3.51h3.51Zm-2.81-.64h2.22l.19-2.23h-2.22Z" transform="translate(-88.65 -53.96)"/><path class="cls-5" d="M318.66,270.62H269.34l.27-3.11h49.32ZM270,270h48l.16-1.83h-48Z" transform="translate(-88.65 -53.96)"/><path class="cls-5" d="M266.14,270.82H253l.31-3.51h13.18Zm-12.48-.64h11.89l.2-2.23H253.86Z" transform="translate(-88.65 -53.96)"/><path class="cls-5" d="M349.63,288.78H326.47l1.16-13.31h23.16Zm-22.46-.64H349l1-12H328.22Z" transform="translate(-88.65 -53.96)"/><path class="cls-5" d="M347.44,313.76H324.28l1.17-13.31h23.16ZM325,313.12h21.87l1.06-12H326Z" transform="translate(-88.65 -53.96)"/><path class="cls-5" d="M345.26,338.74H322.1l1.16-13.31h23.16Zm-22.46-.64h21.87l1.05-12H323.85Z" transform="translate(-88.65 -53.96)"/><rect class="cls-5" x="325.23" y="281.8" width="26.81" height="0.64" transform="translate(-181.81 139.74) rotate(-28.23)"/><polygon class="cls-5" points="260.52 234.77 239.11 222.11 239.44 221.55 260.85 234.22 260.52 234.77"/><rect class="cls-5" x="323.04" y="306.78" width="26.81" height="0.64" transform="translate(-193.75 141.14) rotate(-28.16)"/><rect class="cls-5" x="336.12" y="294.67" width="0.64" height="24.87" transform="translate(-187.83 386.34) rotate(-59.39)"/><path class="cls-5" d="M322.08,339l1.2-13.76,11,6.5,11.65-6.25.3.57-11.31,6.06,10.22,6-.33.56-10.55-6.24Zm1.75-12.69-1,11.57,10.79-5.79Z" transform="translate(-88.65 -53.96)"/><rect class="cls-5" x="242.54" y="296.43" width="82.13" height="0.64" transform="translate(-204.63 148.85) rotate(-33.07)"/><rect class="cls-5" x="283.28" y="258.91" width="0.64" height="75.68" transform="translate(-212.12 295.53) rotate(-53.68)"/></g><path class="cls-21" d="M207.48,364.41l4.93,2a11,11,0,0,1,4.57,3.42l2.26,2.86a5,5,0,0,1-.16,6.41l-2.41,2.74a5,5,0,0,1-7.12.42l-2.3-2.07s-7.07-5-9.15-11.54l1.36-1.36A9.44,9.44,0,0,1,207.48,364.41Z" transform="translate(-88.65 -53.96)"/><path class="cls-21" d="M221,316.68l-1.6,1.06L217.59,319c-1.19.84-2.38,1.71-3.54,2.6-2.32,1.8-4.58,3.67-6.68,5.65A55.66,55.66,0,0,0,196.84,340c-.33.57-.64,1.15-.92,1.73l-.22.43a4,4,0,0,0,.14-.55,2.14,2.14,0,0,0,0-.69c-.13-.39-.14.63.16,1.64a43,43,0,0,0,3.26,7.53c2.8,5.36,6.32,10.87,9.63,16.3l.08.15a4.78,4.78,0,0,1-7,6.26,89.61,89.61,0,0,1-7.78-6.83,90.8,90.8,0,0,1-7.09-7.74,47.84,47.84,0,0,1-6.25-9.7,24.75,24.75,0,0,1-1.27-3.35,16.31,16.31,0,0,1-.71-4.58,14.13,14.13,0,0,1,.33-3.13,14.39,14.39,0,0,1,.52-1.73l.27-.69q.51-1.41,1.11-2.76a63.88,63.88,0,0,1,13-18.63,83.91,83.91,0,0,1,8.17-7.3c1.44-1.12,2.89-2.21,4.41-3.23.76-.51,1.52-1,2.31-1.52l1.21-.73,1.38-.8a9.51,9.51,0,0,1,10,16.16Z" transform="translate(-88.65 -53.96)"/><path class="cls-14" d="M221.14,295.1c-7.95,0-16.65,3.44-27.81,17.27,0,8.26,17.43,19.23,17.43,19.23S239.33,295,221.14,295.1Z" transform="translate(-88.65 -53.96)"/><path class="cls-14" d="M162.12,622.11a1.23,1.23,0,0,1-.42-.07c-1.65-.58-3.2-4.78-3.3-7.11a.37.37,0,0,1,.21-.36.39.39,0,0,1,.41,0c.18.14,4.28,3.5,4.47,5.76a1.61,1.61,0,0,1-.37,1.23A1.33,1.33,0,0,1,162.12,622.11Zm-2.85-6.27c.37,2.21,1.63,5.11,2.68,5.47.15.06.34.07.59-.21a.84.84,0,0,0,.19-.66C162.62,619.12,160.6,617,159.27,615.84Z" transform="translate(-88.65 -53.96)"/><path class="cls-14" d="M164.67,617.12a13,13,0,0,1-6.1-1.89.38.38,0,0,1-.17-.38.38.38,0,0,1,.28-.3c.22-.06,5.35-1.4,7.29-.22a1.6,1.6,0,0,1,.77,1,1.26,1.26,0,0,1-.49,1.4A2.78,2.78,0,0,1,164.67,617.12Zm-4.86-2c2,1,5.09,1.69,6,1,.13-.09.26-.23.17-.6a.82.82,0,0,0-.42-.54C164.43,614.29,161.56,614.7,159.81,615.07Z" transform="translate(-88.65 -53.96)"/><path class="cls-11" d="M144.31,614c2.3-2.8,6.17-6.55,10.15-14.41,0,0,12.62,3.11,10.14,6.75-4.5,6.6-6.69,20.15-.9,27.42,3.31,4.15-1.92,4.84-5.37,3.06-5.5-2.82-5.27-3.87-8.12-8.54-2.44-4-3.41-5.56-6.77-7.27C140.64,619.61,142,616.84,144.31,614Z" transform="translate(-88.65 -53.96)"/><path class="cls-14" d="M251.37,377.1s-18.32,89.24-31.7,127.35c-14.07,40-52.9,101.79-54.39,104.44-5.52-1.47-10.45-3.4-13.73-6.61,0,0,18.23-67,36-110.46,6.74-90.73,21.61-114.72,21.61-114.72Z" transform="translate(-88.65 -53.96)"/><path class="cls-19" d="M223.43,424.84c-.83,17.27-1.4,41-.58,69.9,5.59-18,11.67-42.43,16.78-64.35C236.22,425.84,230.91,423.65,223.43,424.84Z" transform="translate(-88.65 -53.96)"/><path class="cls-21" d="M224.53,267.67c1.93,7.76,3.8,20.42.74,27.16,0,0,11.46.5,26.1,12.19,6.89-10.12-1.09-12.11-1.09-12.11-6.08-1.43-5.78-9.53-5.78-15.3Z" transform="translate(-88.65 -53.96)"/><path class="cls-6" d="M221.65,298.35c-5.71-.63-1.76-11.49,1.21-10.43,7.5,2.67,24.34-.3,29.55,2.57s3.89,8.77,3.89,8.77S227.81,299,221.65,298.35Z" transform="translate(-88.65 -53.96)"/><path class="cls-14" d="M221.65,298.35c-5.71-.63-1.76-11.49,1.21-10.43,7.5,2.67,24.34-.3,29.55,2.57s3.89,8.77,3.89,8.77S227.81,299,221.65,298.35Z" transform="translate(-88.65 -53.96)"/><path class="cls-14" d="M255,254c.18,1,.88,1.78,1.56,1.66s1.08-1.06.89-2.1-.88-1.78-1.56-1.66S254.8,252.93,255,254Z" transform="translate(-88.65 -53.96)"/><path class="cls-14" d="M255.59,252l2.37-1.16S257,253,255.59,252Z" transform="translate(-88.65 -53.96)"/><path class="cls-14" d="M256.37,245.67a.61.61,0,0,0,.06-.46.63.63,0,0,0-.76-.44,6.13,6.13,0,0,0-4.27,3.71.62.62,0,0,0,.39.78.63.63,0,0,0,.79-.39A4.87,4.87,0,0,1,256,246,.61.61,0,0,0,256.37,245.67Z" transform="translate(-88.65 -53.96)"/><path class="cls-22" d="M256.22,256.49s2.25,4.33,4.43,6.31c-1.25,1.44-3.66,1.09-3.66,1.09Z" transform="translate(-88.65 -53.96)"/><path class="cls-21" d="M219.48,253.44c3,12.62,4,18,11.52,23.45,11.25,8.16,25.78,1.72,26.51-11.54.66-11.94-4.4-30.57-17.55-33.47C227,229,216.45,240.82,219.48,253.44Z" transform="translate(-88.65 -53.96)"/><path class="cls-14" d="M243.94,255.76c7.43-9.82,12.28-17.76,8.61-26.45-3.07-7.27-11.54-5.14-12.72-1.51-22.53-1.93-30.62,6.24-26,19.74,3,8.6-8.55,4.14-5.75,15.07,2.15,8.38-5.43,11.57-1.58,16.39,5.55,7,17-2.11,30.08,3.1C247.3,286.37,263.38,279.91,243.94,255.76Z" transform="translate(-88.65 -53.96)"/><path class="cls-21" d="M242.73,257.74a8.32,8.32,0,0,0,5.64,3.89c3,.43,4-2.88,2.77-6-1.09-2.77-3.94-6.33-6.73-5.34S241.05,255.1,242.73,257.74Z" transform="translate(-88.65 -53.96)"/><path class="cls-14" d="M247.13,630.43c-1.9,0-5-1.5-6.44-2.81a.37.37,0,0,1-.11-.4.39.39,0,0,1,.32-.26c.22,0,5.5-.6,7.24.85a1.56,1.56,0,0,1,.62,1.12,1.27,1.27,0,0,1-.69,1.32A2.25,2.25,0,0,1,247.13,630.43ZM242,627.64c1.84,1.28,4.79,2.41,5.78,1.92.15-.07.29-.19.26-.57a.78.78,0,0,0-.33-.59C246.63,627.55,243.73,627.53,242,627.64Z" transform="translate(-88.65 -53.96)"/><path class="cls-14" d="M241,627.72a.37.37,0,0,1-.31-.16.38.38,0,0,1,0-.41c.11-.2,2.76-4.79,4.95-5.35a1.55,1.55,0,0,1,1.27.17,1.25,1.25,0,0,1,.66,1.33c-.3,1.72-4.19,3.94-6.47,4.41ZM246,622.5a.93.93,0,0,0-.27,0c-1.29.33-3,2.66-4,4.17,2.12-.73,4.77-2.45,5-3.55,0-.15,0-.35-.31-.54A.73.73,0,0,0,246,622.5Z" transform="translate(-88.65 -53.96)"/><path class="cls-11" d="M257.23,635.21c-11-.85-18.44-8.42-17.66-16.44.43-4.42-13.7-4.81-13.7-4.81,2.23,13.7-.57,15.66-1.49,19.2s-.7,7.45,2.22,7.52c3.5.09,5.13-.58,9.48-.41,5.09.2,10.59.4,19.62.41C259.32,640.69,262.13,635.59,257.23,635.21Z" transform="translate(-88.65 -53.96)"/><path class="cls-14" d="M270.41,377.1s-1,67.59-6.29,112-23.68,131.54-23.68,131.54c-5.3,1-10.27,1.19-14.65-.14,0,0-5.8-68,3.94-133.82C222.58,417.76,218.1,377.1,218.1,377.1Z" transform="translate(-88.65 -53.96)"/><path class="cls-23" d="M272.91,314.58c-.22,5.22,8,17.29-2.16,24.29,1.91,4.25,3.51,33.08-.34,38.23-5.61,4.13-36,3.33-61.24,0-1.06-10.42,4.68-32-2.35-65.67a13.42,13.42,0,0,1,11.79-16.1c2.12-.22,4.37-.39,6.66-.5,8.94-.44,16.26-.72,24.12,0,2.6.23,5.3.56,7.87.92A18.23,18.23,0,0,1,272.91,314.58Z" transform="translate(-88.65 -53.96)"/><path class="cls-21" d="M303.88,333.28l6-6.38,8.33,11.73s-7,5-13.77,4.79l-.77-1.72A9.46,9.46,0,0,1,303.88,333.28Z" transform="translate(-88.65 -53.96)"/><path class="cls-21" d="M319.53,327.52l2.35,4.43a4.16,4.16,0,0,1-1.69,5.62l-2,1.06-8.33-11.73,4.77-1.42A4.16,4.16,0,0,1,319.53,327.52Z" transform="translate(-88.65 -53.96)"/><path class="cls-21" d="M272.1,310.38l.51,2.61.57,2.75c.41,1.83.81,3.67,1.27,5.49.89,3.64,1.94,7.22,3.08,10.67a71,71,0,0,0,4,9.67,26,26,0,0,0,5,6.95l-2.89-1.43c-.85-.12-1,.14-.56.13a6.29,6.29,0,0,0,2.06-.59,35.65,35.65,0,0,0,5.8-3.39c2-1.39,4.06-3,6.1-4.61s4.1-3.4,6.07-5l.21-.17a4.79,4.79,0,0,1,7.29,5.89,71.23,71.23,0,0,1-10.1,14.57,42.52,42.52,0,0,1-7.33,6.51,24.09,24.09,0,0,1-5.43,2.77,16.69,16.69,0,0,1-3.83.84,15,15,0,0,1-4.85-.35,7.43,7.43,0,0,1-2.56-1.19l-.33-.24a39.51,39.51,0,0,1-10.36-11.55c-1.24-2-2.35-4.07-3.35-6.12s-1.85-4.11-2.67-6.17a114.36,114.36,0,0,1-4-12.44c-.53-2.09-1-4.18-1.45-6.29-.22-1.05-.42-2.11-.61-3.18s-.34-2.08-.51-3.35A9.52,9.52,0,0,1,272,310Z" transform="translate(-88.65 -53.96)"/><path class="cls-14" d="M259.06,296.1c7.91.82,14.24,6.06,18.66,22.79-3.4,4.7-24.83,15-24.83,15S241,294.23,259.06,296.1Z" transform="translate(-88.65 -53.96)"/><rect class="cls-24" x="580.03" y="407.26" width="164.36" height="124.97"/><rect class="cls-25" x="580.03" y="407.26" width="164.36" height="124.97"/><rect class="cls-24" x="523.37" y="407.26" width="67.37" height="124.97"/><rect class="cls-26" x="523.37" y="407.26" width="67.37" height="124.97"/><rect class="cls-5" x="603.7" y="422.23" width="128.17" height="29.64"/><rect class="cls-27" x="603.7" y="422.23" width="128.17" height="29.64"/><rect class="cls-5" x="603.7" y="456.03" width="128.17" height="29.64"/><rect class="cls-27" x="603.7" y="456.03" width="128.17" height="29.64"/><rect class="cls-5" x="603.7" y="489.83" width="128.17" height="29.64"/><rect class="cls-27" x="603.7" y="489.83" width="128.17" height="29.64"/><path class="cls-6" d="M764.85,476.19l-1.08,3.11a5.64,5.64,0,0,1-5.33,3.79h5.94a5.64,5.64,0,0,0,5.33-3.79l1.08-3.11Z" transform="translate(-88.65 -53.96)"/><path class="cls-28" d="M764.85,476.19l-1.08,3.11a5.64,5.64,0,0,1-5.33,3.79h5.94a5.64,5.64,0,0,0,5.33-3.79l1.08-3.11Z" transform="translate(-88.65 -53.96)"/><path class="cls-15" d="M764.85,510l-1.08,3.11a5.64,5.64,0,0,1-5.33,3.79h5.94a5.64,5.64,0,0,0,5.33-3.79l1.08-3.11Z" transform="translate(-88.65 -53.96)"/><path class="cls-29" d="M764.38,550.69h-15.9a5.64,5.64,0,0,1-5.33-3.79l-1.08-3.11h28.72l-1.08,3.11A5.64,5.64,0,0,1,764.38,550.69Z" transform="translate(-88.65 -53.96)"/><path class="cls-15" d="M764.38,550.69h-15.9a5.64,5.64,0,0,1-5.33-3.79l-1.08-3.11h28.72l-1.08,3.11A5.64,5.64,0,0,1,764.38,550.69Z" transform="translate(-88.65 -53.96)"/><path class="cls-7" d="M764.85,543.79l-1.08,3.1a5.64,5.64,0,0,1-5.33,3.8h5.94a5.64,5.64,0,0,0,5.33-3.8l1.08-3.1Z" transform="translate(-88.65 -53.96)"/><path class="cls-28" d="M764.85,543.79l-1.08,3.1a5.64,5.64,0,0,1-5.33,3.8h5.94a5.64,5.64,0,0,0,5.33-3.8l1.08-3.1Z" transform="translate(-88.65 -53.96)"/><path class="cls-29" d="M764.38,516.88h-15.9a5.65,5.65,0,0,1-5.33-3.8L742.07,510h28.72l-1.08,3.11A5.65,5.65,0,0,1,764.38,516.88Z" transform="translate(-88.65 -53.96)"/><path class="cls-15" d="M764.38,516.88h-15.9a5.65,5.65,0,0,1-5.33-3.8L742.07,510h28.72l-1.08,3.11A5.65,5.65,0,0,1,764.38,516.88Z" transform="translate(-88.65 -53.96)"/><path class="cls-7" d="M764.85,510l-1.08,3.11a5.65,5.65,0,0,1-5.33,3.8h5.94a5.65,5.65,0,0,0,5.33-3.8l1.08-3.11Z" transform="translate(-88.65 -53.96)"/><path class="cls-28" d="M764.85,510l-1.08,3.11a5.65,5.65,0,0,1-5.33,3.8h5.94a5.65,5.65,0,0,0,5.33-3.8l1.08-3.11Z" transform="translate(-88.65 -53.96)"/><rect class="cls-6" x="593.8" y="407.26" width="154.34" height="6.76"/><rect class="cls-30" x="593.8" y="407.26" width="154.34" height="6.76"/><rect class="cls-6" x="519.62" y="407.26" width="76.58" height="6.76"/><rect class="cls-31" x="519.62" y="407.26" width="76.58" height="6.76"/><path class="cls-32" d="M659.31,407.08h64.78a0,0,0,0,1,0,0V431.9a6.6,6.6,0,0,1-6.6,6.6H668.85a9.54,9.54,0,0,1-9.54-9.54V407.08A0,0,0,0,1,659.31,407.08Z"/><path class="cls-14" d="M752.59,397.82h.85A1.56,1.56,0,0,0,755,396l-7.49-47.29a2.27,2.27,0,0,0-2.17-1.87H629.56l8.09,51Z" transform="translate(-88.65 -53.96)"/><path class="cls-13" d="M752.59,397.82h.85A1.56,1.56,0,0,0,755,396l-7.49-47.29a2.27,2.27,0,0,0-2.17-1.87H629.56l8.09,51Z" transform="translate(-88.65 -53.96)"/><path class="cls-14" d="M638.07,397.82h0a2.79,2.79,0,0,1-2.66-2.3l-7.35-46.43a1.91,1.91,0,0,1,1.93-2.3h0a2.79,2.79,0,0,1,2.66,2.3L640,395.52A1.92,1.92,0,0,1,638.07,397.82Z" transform="translate(-88.65 -53.96)"/><path class="cls-15" d="M638.07,397.82h0a2.79,2.79,0,0,1-2.66-2.3l-7.35-46.43a1.91,1.91,0,0,1,1.93-2.3h0a2.79,2.79,0,0,1,2.66,2.3L640,395.52A1.92,1.92,0,0,1,638.07,397.82Z" transform="translate(-88.65 -53.96)"/><path class="cls-7" d="M798.18,461.14H649.4l8.5-75.23H796.5a9.1,9.1,0,0,1,9,10.13Z" transform="translate(-88.65 -53.96)"/><path class="cls-15" d="M796.5,385.91H660.32v8.47H805.57A9.11,9.11,0,0,0,796.5,385.91Z" transform="translate(-88.65 -53.96)"/><path class="cls-6" d="M665.52,461.14H624.78V393.53a7.62,7.62,0,0,1,7.62-7.62h31.43a9.1,9.1,0,0,1,9,10.13Z" transform="translate(-88.65 -53.96)"/><path class="cls-29" d="M665.52,461.14H624.78V393.53a7.62,7.62,0,0,1,7.62-7.62h31.43a9.1,9.1,0,0,1,9,10.13Z" transform="translate(-88.65 -53.96)"/><polygon class="cls-14" points="700.13 404.55 702.82 380.75 591.04 380.75 588.35 404.55 700.13 404.55"/><path class="cls-14" d="M633.72,400.73H746.79a1.71,1.71,0,0,1,1.71,1.71v.41a1.71,1.71,0,0,1-1.71,1.71H633.72a0,0,0,0,1,0,0v-3.83A0,0,0,0,1,633.72,400.73Z"/><path class="cls-20" d="M633.72,400.73H746.79a1.71,1.71,0,0,1,1.71,1.71v.41a1.71,1.71,0,0,1-1.71,1.71H633.72a0,0,0,0,1,0,0v-3.83A0,0,0,0,1,633.72,400.73Z"/><path class="cls-14" d="M789.21,454.69h30.55a8.07,8.07,0,0,0-8.07-8.08H790.12Z" transform="translate(-88.65 -53.96)"/><path class="cls-33" d="M789.21,454.69h30.55a8.07,8.07,0,0,0-8.07-8.08H790.12Z" transform="translate(-88.65 -53.96)"/><polygon class="cls-32" points="567.54 331.95 637 331.95 632.29 292.83 562.82 292.83 567.54 331.95"/><path class="cls-5" d="M771.27,454.67a13.15,13.15,0,0,0,13.32-14.88,13.14,13.14,0,0,1,13.31-14.88H734.22a13.15,13.15,0,0,0-13.32,14.88,13.15,13.15,0,0,1-13.32,14.88Z" transform="translate(-88.65 -53.96)"/><path class="cls-27" d="M771.27,454.67a13.15,13.15,0,0,0,13.32-14.88,13.14,13.14,0,0,1,13.31-14.88H734.22a13.15,13.15,0,0,0-13.32,14.88,13.15,13.15,0,0,1-13.32,14.88Z" transform="translate(-88.65 -53.96)"/><path class="cls-6" d="M828.36,481.88a10.91,10.91,0,0,1-10.6-9.59l-3.41-32.5a16.94,16.94,0,0,0-16.45-14.88H734.22a16.93,16.93,0,0,1,16.44,14.88l3.42,32.5a10.9,10.9,0,0,0,10.6,9.59Z" transform="translate(-88.65 -53.96)"/><path class="cls-30" d="M828.36,481.88a10.91,10.91,0,0,1-10.6-9.59l-3.41-32.5a16.94,16.94,0,0,0-16.45-14.88H734.22a16.93,16.93,0,0,1,16.44,14.88l3.42,32.5a10.9,10.9,0,0,0,10.6,9.59Z" transform="translate(-88.65 -53.96)"/><path class="cls-13" d="M828.36,481.88a8.47,8.47,0,0,0,8.58-9.59H773.25a8.47,8.47,0,0,1-8.58,9.59Z" transform="translate(-88.65 -53.96)"/><path class="cls-13" d="M828.36,481.88a8.47,8.47,0,0,0,8.58-9.59H773.25a8.47,8.47,0,0,1-8.58,9.59Z" transform="translate(-88.65 -53.96)"/><path class="cls-14" d="M726.05,454.69h-8.62a8.07,8.07,0,0,0-8.07-8.08h-31l-.91,8.08-.43,3.82h49a1.45,1.45,0,0,0,1.45-1.45v-.92A1.45,1.45,0,0,0,726.05,454.69Z" transform="translate(-88.65 -53.96)"/><path class="cls-33" d="M726.05,454.69h-8.62a8.07,8.07,0,0,0-8.07-8.08h-31l-.91,8.08-.43,3.82h49a1.45,1.45,0,0,0,1.45-1.45v-.92A1.45,1.45,0,0,0,726.05,454.69Z" transform="translate(-88.65 -53.96)"/><rect class="cls-5" x="524.78" y="368" width="45.68" height="39.17"/><rect class="cls-5" x="524.78" y="368" width="6.69" height="39.17"/><rect class="cls-34" x="524.78" y="368" width="6.69" height="39.17"/><rect class="cls-5" x="524.78" y="393.56" width="6.69" height="13.62"/><rect class="cls-5" x="551.54" y="368" width="18.92" height="39.17"/><rect class="cls-27" x="551.54" y="368" width="18.92" height="39.17"/><rect class="cls-5" x="551.54" y="385.33" width="18.92" height="21.84"/><rect class="cls-5" x="544.85" y="368" width="6.69" height="39.17"/><rect class="cls-35" x="544.85" y="368" width="6.69" height="39.17"/><rect class="cls-5" x="544.85" y="385.33" width="6.69" height="21.84"/><rect class="cls-5" x="544.85" y="385.33" width="6.69" height="21.84"/><rect class="cls-5" x="538.16" y="368" width="6.69" height="39.17"/><rect class="cls-36" x="538.16" y="368" width="6.69" height="39.17"/><rect class="cls-5" x="538.16" y="390.16" width="6.69" height="17.02"/><rect class="cls-5" x="538.16" y="390.16" width="6.69" height="17.02"/><rect class="cls-5" x="531.47" y="368" width="6.69" height="39.17"/><rect class="cls-37" x="531.47" y="368" width="6.69" height="39.17"/><rect class="cls-5" x="531.47" y="387.59" width="6.69" height="19.59"/><rect class="cls-5" x="531.47" y="387.59" width="6.69" height="19.59"/><path class="cls-5" d="M638.61,457.21a1.61,1.61,0,0,1-3.22,0c0-.89,1.61-2.88,1.61-2.88S638.61,456.32,638.61,457.21Z" transform="translate(-88.65 -53.96)"/><path class="cls-5" d="M638,457.41a.53.53,0,0,1-.52.53c-.29,0-.11-.24-.11-.53s-.18-.52.11-.52A.53.53,0,0,1,638,457.41Z" transform="translate(-88.65 -53.96)"/><path class="cls-5" d="M631.76,457.21a1.61,1.61,0,1,1-3.22,0c0-.89,1.61-2.88,1.61-2.88S631.76,456.32,631.76,457.21Z" transform="translate(-88.65 -53.96)"/><path class="cls-5" d="M631.13,457.41a.53.53,0,0,1-.53.53c-.28,0-.11-.24-.11-.53s-.17-.52.11-.52A.53.53,0,0,1,631.13,457.41Z" transform="translate(-88.65 -53.96)"/><path class="cls-5" d="M624.47,457.21a1.62,1.62,0,0,1-3.23,0c0-.89,1.62-2.88,1.62-2.88S624.47,456.32,624.47,457.21Z" transform="translate(-88.65 -53.96)"/><path class="cls-5" d="M623.83,457.41a.52.52,0,0,1-.52.53c-.29,0-.11-.24-.11-.53s-.18-.52.11-.52A.52.52,0,0,1,623.83,457.41Z" transform="translate(-88.65 -53.96)"/><path class="cls-5" d="M618.39,457.21a1.62,1.62,0,0,1-3.23,0c0-.89,1.61-2.88,1.61-2.88S618.39,456.32,618.39,457.21Z" transform="translate(-88.65 -53.96)"/><path class="cls-5" d="M617.75,457.41a.52.52,0,0,1-.52.53c-.29,0-.11-.24-.11-.53s-.18-.52.11-.52A.52.52,0,0,1,617.75,457.41Z" transform="translate(-88.65 -53.96)"/><polygon class="cls-6" points="643.33 331.95 573.86 331.95 565.49 279.11 634.96 279.11 643.33 331.95"/><polygon class="cls-5" points="643.33 331.95 573.86 331.95 565.49 279.11 634.96 279.11 643.33 331.95"/><path class="cls-6" d="M689.85,391.36h99.22a9.09,9.09,0,0,0-8.33-5.45H681.51A9.11,9.11,0,0,1,689.85,391.36Z" transform="translate(-88.65 -53.96)"/><path class="cls-7" d="M689.85,391.36h99.22a9.09,9.09,0,0,0-8.33-5.45H681.51A9.11,9.11,0,0,1,689.85,391.36Z" transform="translate(-88.65 -53.96)"/><path class="cls-6" d="M800,448c-6.21-1.24-11.53-3.17-10.78-6s9.72,5.62,10.8,0-13.7-4.41-7.93-8.52c3.19-2.27,3.17-5.82,2.51-8.54h-8.79c-.46,2.26.33,4.72-1.29,5s-2.38-2.5-3.45-5H774.8c.82,3.89,6.76,9,3.48,11.26-4.32,3-12.94-14.45-17.75-6.83s15.42,11.23,13.4,15.44-15.82-5.42-14.82,3.17,17.83,4.8,17.83,4.8l-3.85,6.47,2.29,1.81,2-5.58c2.23-5.37,3.77-1.2,5.56,1.36,5.76,8.25,19.79,3.41,8.27-2.27s-7.2-6.15,2.92-1.79S806.19,449.19,800,448Z" transform="translate(-88.65 -53.96)"/><path class="cls-38" d="M800,448c-6.21-1.24-11.53-3.17-10.78-6s9.72,5.62,10.8,0-13.7-4.41-7.93-8.52c3.19-2.27,3.17-5.82,2.51-8.54h-8.79c-.46,2.26.33,4.72-1.29,5s-2.38-2.5-3.45-5H774.8c.82,3.89,6.76,9,3.48,11.26-4.32,3-12.94-14.45-17.75-6.83s15.42,11.23,13.4,15.44-15.82-5.42-14.82,3.17,17.83,4.8,17.83,4.8l-3.85,6.47,2.29,1.81,2-5.58c2.23-5.37,3.77-1.2,5.56,1.36,5.76,8.25,19.79,3.41,8.27-2.27s-7.2-6.15,2.92-1.79S806.19,449.19,800,448Z" transform="translate(-88.65 -53.96)"/></svg>