<svg xmlns="http://www.w3.org/2000/svg" xmlns:xlink="http://www.w3.org/1999/xlink" viewBox="0 0 880 700"><defs><style>.cls-1{mask:url(#mask);filter:url(#luminosity-noclip-4);}.cls-2,.cls-4,.cls-6{mix-blend-mode:multiply;}.cls-2{fill:url(#linear-gradient);}.cls-3{mask:url(#mask-2);filter:url(#luminosity-noclip-5);}.cls-4{fill:url(#linear-gradient-2);}.cls-5{mask:url(#mask-3);filter:url(#luminosity-noclip-6);}.cls-6{fill:url(#linear-gradient-3);}.cls-7{isolation:isolate;}.cls-8{fill:url(#radial-gradient);}.cls-9{fill:#f0b943;}.cls-10{fill:#fff;}.cls-11{opacity:0.08;mix-blend-mode:darken;fill:url(#linear-gradient-4);}.cls-12{mask:url(#mask-4);}.cls-13{fill:url(#linear-gradient-5);}.cls-14{mask:url(#mask-5);}.cls-15{fill:url(#linear-gradient-6);}.cls-16{mask:url(#mask-6);}.cls-17{fill:url(#linear-gradient-7);}.cls-18{fill:url(#linear-gradient-8);}.cls-19{fill:url(#radial-gradient-2);}.cls-20{fill:#ffd079;}.cls-21{fill:url(#radial-gradient-3);}.cls-22{fill:url(#radial-gradient-4);}.cls-23{fill:url(#radial-gradient-5);}.cls-24{fill:url(#radial-gradient-6);}.cls-25{fill:#ebebeb;}.cls-26{fill:#e0e0e0;}.cls-27{fill:#f5f5f5;}.cls-28{fill:#192f36;}.cls-29{fill:#db4d65;}.cls-30{fill:#efa986;}.cls-31{fill:#608cc9;}.cls-32{fill:#4ea8b0;}.cls-33{fill:#3b4048;}.cls-34{fill:#a77961;}.cls-35{fill:#e64254;}.cls-36{fill:#a42e3c;}.cls-37{fill:#5f5954;}.cls-38{fill:#91887e;}.cls-39{fill:#e1e2e2;}.cls-40{fill:#807167;}.cls-41{filter:url(#luminosity-noclip-3);}.cls-42{filter:url(#luminosity-noclip-2);}.cls-43{filter:url(#luminosity-noclip);}</style><filter id="luminosity-noclip" x="385.05" y="-8542" width="26.19" height="32766" filterUnits="userSpaceOnUse" color-interpolation-filters="sRGB"><feFlood flood-color="#fff" result="bg"/><feBlend in="SourceGraphic" in2="bg"/></filter><mask id="mask" x="385.05" y="-8542" width="26.19" height="32766" maskUnits="userSpaceOnUse"><g class="cls-43"/></mask><linearGradient id="linear-gradient" x1="398.15" y1="296.35" x2="398.15" y2="483.1" gradientTransform="translate(59.4 -46.4) rotate(7.21)" gradientUnits="userSpaceOnUse"><stop offset="0.01"/><stop offset="1" stop-color="#fff"/></linearGradient><filter id="luminosity-noclip-2" x="474.84" y="-8542" width="24.48" height="32766" filterUnits="userSpaceOnUse" color-interpolation-filters="sRGB"><feFlood flood-color="#fff" result="bg"/><feBlend in="SourceGraphic" in2="bg"/></filter><mask id="mask-2" x="474.84" y="-8542" width="24.48" height="32766" maskUnits="userSpaceOnUse"><g class="cls-42"/></mask><linearGradient id="linear-gradient-2" x1="487.08" y1="296.35" x2="487.08" y2="483.1" gradientTransform="translate(1022.62 836.81) rotate(173.37)" xlink:href="#linear-gradient"/><filter id="luminosity-noclip-3" x="387.39" y="-8542" width="110.11" height="32766" filterUnits="userSpaceOnUse" color-interpolation-filters="sRGB"><feFlood flood-color="#fff" result="bg"/><feBlend in="SourceGraphic" in2="bg"/></filter><mask id="mask-3" x="387.39" y="-8542" width="110.11" height="32766" maskUnits="userSpaceOnUse"><g class="cls-41"/></mask><linearGradient id="linear-gradient-3" x1="442.45" y1="296.35" x2="442.45" y2="483.11" gradientTransform="matrix(1, 0, 0, 1, 0, 0)" xlink:href="#linear-gradient"/><radialGradient id="radial-gradient" cx="399.38" cy="203.4" r="296.01" gradientUnits="userSpaceOnUse"><stop offset="0.01" stop-color="#ffef9b"/><stop offset="1" stop-color="#f0b943"/></radialGradient><linearGradient id="linear-gradient-4" x1="260.59" y1="301.34" x2="618.38" y2="301.34" gradientUnits="userSpaceOnUse"><stop offset="0" stop-color="#e0e1e0"/><stop offset="1" stop-color="#f05771"/></linearGradient><filter id="luminosity-noclip-4" x="385.05" y="363.87" width="26.19" height="169.2" filterUnits="userSpaceOnUse" color-interpolation-filters="sRGB"><feFlood flood-color="#fff" result="bg"/><feBlend in="SourceGraphic" in2="bg"/></filter><mask id="mask-4" x="385.05" y="363.87" width="26.19" height="169.2" maskUnits="userSpaceOnUse"><g class="cls-1"><rect class="cls-2" x="395.7" y="363.51" width="4.89" height="169.93" transform="translate(-53.11 53.49) rotate(-7.21)"/></g></mask><linearGradient id="linear-gradient-5" x1="398.15" y1="296.35" x2="398.15" y2="483.1" gradientTransform="translate(59.4 -46.4) rotate(7.21)" gradientUnits="userSpaceOnUse"><stop offset="0.01" stop-color="#ffdd91"/><stop offset="1" stop-color="#fff"/></linearGradient><filter id="luminosity-noclip-5" x="474.84" y="363.34" width="24.48" height="169.36" filterUnits="userSpaceOnUse" color-interpolation-filters="sRGB"><feFlood flood-color="#fff" result="bg"/><feBlend in="SourceGraphic" in2="bg"/></filter><mask id="mask-5" x="474.84" y="363.34" width="24.48" height="169.36" maskUnits="userSpaceOnUse"><g class="cls-3"><rect class="cls-4" x="484.64" y="363.06" width="4.89" height="169.93" transform="translate(919.18 949.27) rotate(-173.37)"/></g></mask><linearGradient id="linear-gradient-6" x1="487.08" y1="296.35" x2="487.08" y2="483.1" gradientTransform="translate(1022.62 836.81) rotate(173.37)" xlink:href="#linear-gradient-5"/><filter id="luminosity-noclip-6" x="387.39" y="366.93" width="110.11" height="23" filterUnits="userSpaceOnUse" color-interpolation-filters="sRGB"><feFlood flood-color="#fff" result="bg"/><feBlend in="SourceGraphic" in2="bg"/></filter><mask id="mask-6" x="387.39" y="366.93" width="110.11" height="23" maskUnits="userSpaceOnUse"><g class="cls-5"><polygon class="cls-6" points="478.23 389.93 459.8 371.68 441.86 389.81 424.04 372.17 406.71 389.68 387.39 370.56 389.76 368.17 406.69 384.92 424.02 367.42 441.83 385.05 459.77 366.93 478.21 385.17 495.12 368.09 497.51 370.46 478.23 389.93"/></g></mask><linearGradient id="linear-gradient-7" x1="442.45" y1="296.35" x2="442.45" y2="483.11" gradientTransform="matrix(1, 0, 0, 1, 0, 0)" xlink:href="#linear-gradient-5"/><linearGradient id="linear-gradient-8" x1="347.57" y1="523.53" x2="529.9" y2="523.53" gradientUnits="userSpaceOnUse"><stop offset="0" stop-color="#59c7db"/><stop offset="1" stop-color="#4ea8b0"/></linearGradient><radialGradient id="radial-gradient-2" cx="-11580.78" cy="568.12" r="121.61" gradientTransform="matrix(-1, 0, 0, 1, -11142.04, 0)" xlink:href="#radial-gradient"/><radialGradient id="radial-gradient-3" cx="259.97" cy="106.93" r="45.47" xlink:href="#radial-gradient"/><radialGradient id="radial-gradient-4" cx="254.52" cy="124.88" r="19.05" xlink:href="#radial-gradient"/><radialGradient id="radial-gradient-5" cx="244.91" cy="159.97" r="11.64" gradientTransform="translate(-28.32 55.5) rotate(-12.23)" xlink:href="#radial-gradient"/><radialGradient id="radial-gradient-6" cx="246.56" cy="152.37" r="16.15" gradientTransform="translate(-26.67 55.67) rotate(-12.23)" xlink:href="#radial-gradient"/></defs><g class="cls-7"><g id="Layer_1" data-name="Layer 1"><path class="cls-8" d="M591,242.46c-.35-71.9-69.35-129.85-154.1-129.43S283.75,172.07,284.11,244A113.25,113.25,0,0,0,297.69,297c.05.1,47.32,91.38,54.38,178.17.2,40.59,39.15,73.31,87,73.07s86.47-33.33,86.28-73.93C531.55,387.46,578,295.66,578,295.66h0A113.38,113.38,0,0,0,591,242.46Z"/><path class="cls-9" d="M635.05,274.43l-5.41-1.08c12.91-65,2-117.51-31.69-152-25.45-26.1-55.22-33-55.51-33l1.19-5.39c1.27.28,31.46,7.19,58.07,34.35C626.2,142.28,651.88,189.85,635.05,274.43Z"/><path class="cls-9" d="M269,356.28c-51.92-98.46-19.46-151.93-18.06-154.16l4.68,2.95c-.33.52-32,53.24,18.27,148.63Z"/><path class="cls-10" d="M505.69,262.13a43,43,0,0,0,2.67-11.67l7.88-3-1.53-9-1.52-9-8.42-.27A43.08,43.08,0,0,0,498.42,219l3.44-7.69L494.39,206l-7.46-5.31-6.14,5.76a43,43,0,0,0-11.67-2.67l-3-7.87-9,1.52-9,1.52-.26,8.43a42.9,42.9,0,0,0-10.15,6.34L430,210.27l-5.31,7.46-5.31,7.46,5.77,6.14A42.6,42.6,0,0,0,422.42,243l-7.87,3,1.52,9,1.52,9,8.43.27a42.76,42.76,0,0,0,6.35,10.14l-3.44,7.69,7.46,5.31,7.47,5.31L450,287a43,43,0,0,0,11.67,2.67l3,7.87,9-1.52,9-1.52.27-8.42a43,43,0,0,0,10.14-6.35l7.69,3.43,5.31-7.46,5.31-7.46ZM452.38,265a22.45,22.45,0,1,1,31.3-5.27A22.45,22.45,0,0,1,452.38,265Z"/><path class="cls-10" d="M423,311.08a26.88,26.88,0,0,0,1.69-7.38l5-1.9-1-5.71-1-5.72-5.33-.16a27.06,27.06,0,0,0-4-6.42l2.17-4.86-4.72-3.36-4.72-3.36-3.89,3.64a27.47,27.47,0,0,0-7.37-1.69l-1.91-5-5.71,1-5.71,1-.17,5.33a27.27,27.27,0,0,0-6.42,4l-4.86-2.17L371.69,283l-3.36,4.72L372,291.6a26.88,26.88,0,0,0-1.69,7.38l-5,1.9,1,5.72,1,5.71,5.33.17a26.73,26.73,0,0,0,4,6.41l-2.17,4.87,4.72,3.35,4.71,3.36,3.89-3.64a27.62,27.62,0,0,0,7.38,1.69l1.9,5,5.71-1,5.71-1,.17-5.33a27.27,27.27,0,0,0,6.42-4l4.86,2.17,3.36-4.72L426.6,315Zm-33.72,1.83A14.2,14.2,0,1,1,409,309.57,14.19,14.19,0,0,1,389.23,312.91Z"/><path class="cls-11" d="M274.6,517.06S189.05,79.66,440.77,85.68s162.1,431.1,162.1,431.1Z"/><g class="cls-12"><rect class="cls-13" x="395.7" y="363.51" width="4.89" height="169.93" transform="translate(-53.11 53.49) rotate(-7.21)"/></g><g class="cls-14"><rect class="cls-15" x="484.64" y="363.06" width="4.89" height="169.93" transform="translate(919.18 949.27) rotate(-173.37)"/></g><g class="cls-16"><polygon class="cls-17" points="478.23 389.93 459.8 371.68 441.86 389.81 424.04 372.17 406.71 389.68 387.39 370.56 389.76 368.17 406.69 384.92 424.02 367.42 441.83 385.05 459.77 366.93 478.21 385.17 495.12 368.09 497.51 370.46 478.23 389.93"/></g><path class="cls-18" d="M500.39,570.31l-122.7.6a29.65,29.65,0,0,1-29.8-29.5l-.32-64.36,182-.9.32,64.36A29.66,29.66,0,0,1,500.39,570.31Z"/><rect class="cls-19" x="274.6" y="516.78" width="328.27" height="102.68"/><polygon class="cls-20" points="658 305.92 656.92 305.55 666.03 279.02 686.38 273.39 693.39 244.31 709.06 237.17 712.33 214.59 713.47 214.76 710.11 237.96 694.37 245.13 687.34 274.31 666.92 279.97 658 305.92"/><path class="cls-10" d="M689.21,271.88a3.07,3.07,0,1,1-4.31-.38A3.06,3.06,0,0,1,689.21,271.88Z"/><path class="cls-20" d="M689.2,276.64a3.64,3.64,0,1,1,.45-5.13A3.65,3.65,0,0,1,689.2,276.64Zm-3.93-4.7a2.49,2.49,0,1,0,3.5.31A2.49,2.49,0,0,0,685.27,271.94Z"/><path class="cls-10" d="M696.31,242.93a3.06,3.06,0,1,1-4.31-.39A3.05,3.05,0,0,1,696.31,242.93Z"/><path class="cls-20" d="M696.3,247.68a3.64,3.64,0,1,1,.45-5.12A3.64,3.64,0,0,1,696.3,247.68Zm-3.93-4.7a2.49,2.49,0,1,0,3.5.31A2.49,2.49,0,0,0,692.37,243Z"/><path class="cls-10" d="M711.74,235.59a3.07,3.07,0,1,1-4.31-.38A3.06,3.06,0,0,1,711.74,235.59Z"/><path class="cls-20" d="M711.73,240.35a3.64,3.64,0,1,1,.46-5.12A3.64,3.64,0,0,1,711.73,240.35Zm-3.93-4.7a2.49,2.49,0,1,0,3.5.31A2.5,2.5,0,0,0,707.8,235.65Z"/><path class="cls-10" d="M668.94,277.79a3.06,3.06,0,1,1-4.32-.38A3.08,3.08,0,0,1,668.94,277.79Z"/><path class="cls-20" d="M668.92,282.55a3.64,3.64,0,1,1,.46-5.13A3.64,3.64,0,0,1,668.92,282.55Zm-3.93-4.7a2.49,2.49,0,1,0,3.51.31A2.49,2.49,0,0,0,665,277.85Z"/><polygon class="cls-20" points="294.61 454.02 295.7 453.65 286.59 427.13 266.23 421.49 259.23 392.41 243.55 385.28 240.29 362.69 239.15 362.86 242.51 386.06 258.24 393.23 265.28 422.42 285.7 428.07 294.61 454.02"/><path class="cls-10" d="M263.4,420a3.06,3.06,0,1,0,4.32-.39A3.06,3.06,0,0,0,263.4,420Z"/><path class="cls-20" d="M263,419.62a3.64,3.64,0,1,1,.46,5.12A3.65,3.65,0,0,1,263,419.62Zm.88.73a2.49,2.49,0,1,0,3.51-.31A2.5,2.5,0,0,0,263.84,420.35Z"/><path class="cls-10" d="M256.3,391a3.06,3.06,0,1,0,4.32-.39A3.07,3.07,0,0,0,256.3,391Z"/><path class="cls-20" d="M255.86,390.66a3.64,3.64,0,1,1,.46,5.13A3.65,3.65,0,0,1,255.86,390.66Zm.88.74a2.49,2.49,0,1,0,3.51-.31A2.49,2.49,0,0,0,256.74,391.4Z"/><path class="cls-10" d="M240.87,383.7a3.06,3.06,0,1,0,4.32-.39A3.05,3.05,0,0,0,240.87,383.7Z"/><path class="cls-20" d="M240.43,383.33a3.64,3.64,0,1,1,.46,5.12A3.65,3.65,0,0,1,240.43,383.33Zm.88.74a2.49,2.49,0,1,0,3.51-.32A2.49,2.49,0,0,0,241.31,384.07Z"/><path class="cls-10" d="M283.68,425.89a3.06,3.06,0,1,0,4.31-.38A3.06,3.06,0,0,0,283.68,425.89Z"/><path class="cls-20" d="M283.24,425.52a3.64,3.64,0,1,1,.45,5.13A3.63,3.63,0,0,1,283.24,425.52Zm.88.74a2.49,2.49,0,1,0,3.5-.31A2.5,2.5,0,0,0,284.12,426.26Z"/><path class="cls-21" d="M243.89,158a18.85,18.85,0,0,1-9.78-6.54,14.12,14.12,0,0,1-2.86-11.65c1.09-8,.34-16.64-.51-22.64A38,38,0,1,1,275,127.83a81.3,81.3,0,0,0-9.25,19.48c-1.81,8.15-11,13.12-20.45,11.06C244.81,158.27,244.35,158.15,243.89,158Zm25.79-98.51a34.84,34.84,0,0,0-36.28,56l.29.34.06.44c.91,6.23,1.75,15.45.56,24l0,.12a11.11,11.11,0,0,0,2.28,9.16,16,16,0,0,0,9.37,5.75c7.84,1.69,15.36-2.23,16.78-8.75v-.06l0-.05a85.3,85.3,0,0,1,9.87-20.71l.26-.42.45-.19a34.84,34.84,0,0,0-3.65-65.65Z"/><polygon class="cls-22" points="239.66 143.91 243.28 102.41 250.26 111.16 256.71 106.44 260.09 112.84 269.38 107.81 256.08 147.35 253.14 146.36 263.92 114.3 258.81 117.07 255.64 111.07 249.69 115.42 245.7 110.42 242.75 144.18 239.66 143.91"/><rect class="cls-23" x="231.45" y="154.54" width="26.92" height="10.85" transform="translate(39.43 -48.24) rotate(12.23)"/><rect class="cls-24" x="228.77" y="143.64" width="35.58" height="17.47" transform="translate(37.86 -48.76) rotate(12.23)"/><path class="cls-25" d="M241.64,529.65c4.84-2.49,10.53-2.82,15.9-1.93,2.88.48,5.89,1.34,7.85,3.51s2.34,6,.08,7.84a7.56,7.56,0,0,1-5,1.25c-4.2-.05-8.86-.79-12.22,1.74-1.92,1.44-3.19,3.84-5.48,4.55a5.41,5.41,0,0,1-6-2.65,9.31,9.31,0,0,1-.67-6.83A10.43,10.43,0,0,1,241.64,529.65Z"/><path class="cls-25" d="M230.57,508.27c3,4.22,8.7,2.82,11.36.25s3.79-6.32,4.82-9.88c2.34-8.14,4.7-16.68,3-25a13.89,13.89,0,0,0-3.19-6.79,7.26,7.26,0,0,0-6.87-2.29c-2.89.77-4.69,3.61-6,6.31a59.44,59.44,0,0,0-5.89,25.54c0,4.11.48,8.42,2.8,11.82"/><path class="cls-25" d="M222.45,514.33c3.21-3.81,3.82-9.37,2.39-14.14s-4.66-8.83-8.38-12.15a45.21,45.21,0,0,0-15-8.85,16,16,0,0,0-6.75-1.14,7.09,7.09,0,0,0-5.66,3.42c-1.57,3-.06,6.66,1.58,9.64a113.6,113.6,0,0,0,9.84,15c3,3.81,6.34,7.56,10.84,9.28s9.17,1.52,11.56-1.6"/><path class="cls-26" d="M230.37,572a10,10,0,0,0,.26-1.92c.14-1.4.31-3.15.51-5.24s.57-4.82,1.18-7.68a59.86,59.86,0,0,1,2.79-9.06,33.47,33.47,0,0,1,4.63-8.21,17.38,17.38,0,0,1,5.85-4.86,16.55,16.55,0,0,1,4.93-1.54,9.34,9.34,0,0,0,1.91-.27,8.05,8.05,0,0,0-1.94,0,15,15,0,0,0-5.14,1.33,17.22,17.22,0,0,0-6.17,4.91,32.57,32.57,0,0,0-4.8,8.37,54.72,54.72,0,0,0-2.77,9.21,64.73,64.73,0,0,0-1,7.78c-.16,2.22-.22,4-.25,5.27A8.46,8.46,0,0,0,230.37,572Z"/><path class="cls-26" d="M230.73,567.94a4.77,4.77,0,0,0,.05-.89c0-.67,0-1.51,0-2.55,0-2.21,0-5.41.11-9.35.2-7.9.88-16.4,2.19-28.38,1.25-11.27,2.92-24.38,4.68-32.9.38-1.94.76-3.69,1.11-5.22s.64-2.85.92-3.91.44-1.83.59-2.48a3.58,3.58,0,0,0,.16-.88,3.6,3.6,0,0,0-.31.84c-.19.64-.44,1.44-.74,2.44s-.66,2.37-1,3.89-.82,3.26-1.23,5.2a288.09,288.09,0,0,0-4.91,30.53c-1.32,12-1.91,22.94-2,30.86,0,4,0,7.16.14,9.37.07,1,.12,1.87.16,2.54A3.38,3.38,0,0,0,230.73,567.94Z"/><path class="cls-26" d="M230.78,546.85a18.61,18.61,0,0,0,0-2.66c-.1-1.71-.33-4.18-.81-7.2a94.86,94.86,0,0,0-2.35-10.5,84.31,84.31,0,0,0-4.39-12.42A66.3,66.3,0,0,0,210.32,494a32.76,32.76,0,0,0-3-2.82c-.47-.39-.88-.78-1.3-1.09l-1.17-.81a18.53,18.53,0,0,0-2.24-1.44c-.13.17,3.17,2.12,7.34,6.55a69.92,69.92,0,0,1,12.57,20,99.5,99.5,0,0,1,4.41,12.31,104.89,104.89,0,0,1,2.49,10.39c.55,3,.87,5.44,1.06,7.14A17.87,17.87,0,0,0,230.78,546.85Z"/><polygon class="cls-26" points="210.4 584.05 212.51 612.99 249.7 612.99 251.81 584.05 210.4 584.05"/><rect class="cls-26" x="206.81" y="572.64" width="49.44" height="11.41"/><polygon class="cls-25" points="206.81 611.88 206.81 615.05 209.13 615.05 255.43 615.05 255.43 611.88 206.81 611.88"/><polygon class="cls-26" points="211.41 620.61 209.13 615.05 253.66 615.05 251 620.61 211.41 620.61"/><path class="cls-27" d="M251.12,593.51a1.5,1.5,0,0,1-.17.26l-.56.74-2.16,2.77-.1.13-.09-.13-5.33-7.36H243l-5.24,7.41-.16.24-.19-.22L231.22,590h.36l-.35.43-5.55,7-.19.23-.17-.24-5.24-7.42h.3l-6.45,7.36-.12.13-.08-.15c-.86-1.43-1.53-2.57-2-3.39l-.51-.91a1.06,1.06,0,0,1-.16-.32s.08.09.21.29l.58.87,2.12,3.33h-.2l6.35-7.45.16-.19.15.2c1.6,2.25,3.38,4.73,5.28,7.39h-.35l5.54-7c.12-.15.24-.29.34-.43l.18-.22.18.22,6.2,7.41h-.35l5.29-7.38.16-.22.15.22c2.1,3,3.88,5.53,5.21,7.44H248l2.25-2.7.61-.7C251,593.58,251.11,593.5,251.12,593.51Z"/><path class="cls-27" d="M252.33,583.86c0,.12-9.32.23-20.81.23s-20.81-.11-20.81-.23,9.31-.24,20.81-.24S252.33,583.73,252.33,583.86Z"/><path class="cls-27" d="M254.21,615.36c0,.13-10.13.23-22.62.23s-22.62-.1-22.62-.23,10.13-.23,22.62-.23S254.21,615.23,254.21,615.36Z"/><line class="cls-28" x1="782.42" y1="519.54" x2="829" y2="323.78"/><path class="cls-28" d="M632.55,641.58a7,7,0,1,0,7-7A7,7,0,0,0,632.55,641.58Z"/><polygon class="cls-28" points="789.39 634.67 787.63 639.64 713.1 616.54 716.67 606.5 789.39 634.67"/><rect class="cls-28" x="710.54" y="523.03" width="8.47" height="89.98" transform="translate(1429.55 1136.04) rotate(180)"/><polygon class="cls-28" points="639.5 634.67 641.27 639.64 715.8 616.54 712.53 605.86 639.5 634.67"/><polygon class="cls-28" points="692.02 639.1 692.02 644.88 715.8 616.54 712.53 605.86 692.02 639.1"/><path class="cls-28" d="M691.43,641.58a7,7,0,1,0,7-7A7,7,0,0,0,691.43,641.58Z"/><rect class="cls-28" x="649.2" y="511.46" width="133.23" height="14.66" transform="translate(1431.62 1037.58) rotate(180)"/><path class="cls-28" d="M713.1,464.69s3.36,13.59-12.46,16.67-35.26,7-35.26,31.43h54.85Z"/><path class="cls-28" d="M782.42,526.12,829,330.36S744.8,317.2,734.76,355,708.24,505.16,688.17,512.1,782.42,526.12,782.42,526.12Z"/><path class="cls-29" d="M648.9,618.52a53.76,53.76,0,0,0-8.22,9.64c-3.89,5.83-14.22,6.14-14.67,14.11s14,8.21,21.65,5.62,8.76-10.38,13.35-12.32,7-3.52,6.65-7.32-2.91-10-2.91-10a31.08,31.08,0,0,1-4.54,1.09A37.49,37.49,0,0,1,648.9,618.52Z"/><path class="cls-29" d="M701,402.66s-2.92,17.33-5.27,28.78h0a68.92,68.92,0,0,1-2.34,9.48c-.68,1.46-6.15,7.33-12.84,14.22-11.76,12.1-27.28,27.33-27.28,27.33L647.24,471S661,454.79,670.38,444c4.32-5,7.7-8.83,8.32-9.38,1.95-1.75,4.22-19,7.41-33.17s9.57-22,9.57-22Z"/><path class="cls-30" d="M680.59,455.14c-11.76,12.1-27.28,27.33-27.28,27.33L647.24,471S661,454.79,670.38,444C673.24,445.41,678.51,448.76,680.59,455.14Z"/><path class="cls-29" d="M755.93,613.78s4,4.41,6.35,7.08,11.4,7.46,11.45,15.4c.06,8.62-6.67,7.86-12.64,7.55s-10.84-4.45-13.36-9.32-9.22-6.16-9.69-10.1,3.1-11,3.1-11Z"/><path class="cls-31" d="M741.91,606.05l-.77,7.33s12.48,5.44,14.79.4l-.54-6.53Z"/><path class="cls-31" d="M649.58,613.22l-.68,5.3a26.23,26.23,0,0,0,15.85-.23l.17-4.73Z"/><path class="cls-29" d="M756.64,480.13c.43,1.54-79.88,0-79.88,0S699,464,700.41,459.64s-5.65-30.24-6.58-38.67c-.74-6.75-2.59-36.94,1.85-41.56,4.66-4.82,21.4-9.87,21.4-9.87l24.41.91a38.36,38.36,0,0,1,6.91,2.18c2.88,1.33,19.35,7.2,22,15.42S754,422.74,754,422.74s0,1.19-.1,3.14h0c-.07,2.6-.18,6.54-.28,10.83-.13,5.55-.24,11.65-.24,16.11C753.37,463.31,756.21,478.58,756.64,480.13Z"/><path class="cls-32" d="M756.64,480.13s10.92,16,11.08,27-4.05,41.32-4.36,47.34-6,56.16-6,56.16-4.36,4.06-17.48-1L736.71,557c-.31-5.09-.31-28.54-3.24-31.93s-20.67-14-23-16-42.64,7.61-46.85,8.71c-10.95,2.84-6,21.87-3.54,30.4,4,14.28,7.58,65.83,7.58,65.83s-7.79,3.31-20.83.51c0,0-25.63-93.08-26.45-102.34s-1.23-24.52,61.92-36.12Z"/><path class="cls-30" d="M723.78,316.5s-21.19-4.77-16.36,21.89,9.94,28.76,22.72,23.24,11.65-22.6,12.29-31S730.53,316.79,723.78,316.5Z"/><path class="cls-30" d="M718.17,376.38s9.38,9.95,24.22.91c0,0-3.32-21.56-1.58-32.06s-19.35,16.27-19.35,16.27c.28.15.46,1.15.5,2.57a28.66,28.66,0,0,1-.21,4.28C721.31,371.84,720.22,375.53,718.17,376.38Z"/><path class="cls-30" d="M735.14,334.86c.28-2.36,4.93-3.22,5.31.31s-2.12,9.72-3.89,9.1S734.76,338.1,735.14,334.86Z"/><path class="cls-33" d="M741.39,344.34s-.54-8.41-3.61-8.67-3.53,3.12-3.53,3.12l-3.11.59s1-7.37-2.09-8.65-19.85,4-22.31,1.89-1.3-17.1,3.14-19.14,16.75-6.63,25.74-.53c0,0,7-.8,8.06,4.86S743.31,340.13,741.39,344.34Z"/><path class="cls-34" d="M721.75,368.35c15.3-4.72,16.45-13.93,16.46-14.08-5,8.66-16.25,9.8-16.25,9.8A28.66,28.66,0,0,1,721.75,368.35Z"/><path class="cls-30" d="M748.65,372.74s-11.21,22.31-29.31,20.87-3.08-23.86-2.26-24.07S735.65,364.91,748.65,372.74Z"/><path class="cls-35" d="M667.58,479s55.45,6.83,89.06,1.13l-64.21-8S692.05,473.75,667.58,479Z"/><path class="cls-30" d="M709.06,469.58l-4.14,2.09s1,6.57,3.2,8.55l4.65-1.18S711.79,471.84,709.06,469.58Z"/><path class="cls-29" d="M773.24,456.14c-.83,1-11.73,5.34-24.06,10.09h0c-16.82,6.48-35.81,12.61-35.81,12.61l-4.31-9.26s19.87-10.8,33.31-18.37c6.34-3.58,11.25-6.44,11.94-7.1,2.16-2.06,2.72-5.36,1.13-11.11s-5.24-32.19-5.65-35.28,1-11.31,8.74-11.72,11.64,1.76,11.64,1.76,1.93.8,3.37,19.53S775.19,453.88,773.24,456.14Z"/><path class="cls-36" d="M753.89,425.88h0c-.07,2.6-.18,6.54-.28,10.83-7.53-18.45-3.18-33.18-3.11-33.43C749.69,408.29,753.83,425.63,753.89,425.88Z"/><path class="cls-36" d="M695.77,431.44h0a68.92,68.92,0,0,1-2.34,9.48c-2.58-12.45-.26-28.38-.26-28.38A158,158,0,0,0,695.77,431.44Z"/><path class="cls-30" d="M749.18,466.23h0C732.36,472.71,712.77,479,712.77,479l-3.71-9.46s19.87-10.8,33.31-18.37C742.37,451.21,747.25,453.58,749.18,466.23Z"/><polygon class="cls-37" points="707.86 479.59 629.03 478.43 668.82 498.64 707.86 479.59"/><polygon class="cls-38" points="668.82 498.64 707.86 483.52 707.86 479.59 665.74 494.79 668.82 498.64"/><path class="cls-30" d="M705.82,471.81s-4.93-.76-8.33-1.55c-2.64-.62-9.19.23-10.85,1.92s-7,13.47-8,14.19.51,2.38,2.28,1.54c0,0,1.62,5.15,5.61,3.23s6.7-6.15,8.79-6.89,14.27-4.48,14.27-4.48S709,470.56,705.82,471.81Z"/><path class="cls-30" d="M687.84,471.41a33.42,33.42,0,0,0-4,2.21c-.82.68-4.17,3.18-5,3.77s1.22,2.27,7.2-.33S687.84,471.41,687.84,471.41Z"/><polygon class="cls-39" points="668.82 498.64 645.38 434.62 569.79 435.85 592.13 494.85 668.82 498.64"/><path class="cls-40" d="M621.2,462.94c2.3,4.61,1.6,9.63-1.56,11.22s-7.6-.87-9.91-5.48-1.61-9.64,1.55-11.22S618.89,458.33,621.2,462.94Z"/></g></g></svg>