<?xml version="1.0" encoding="utf-8"?>
<!-- Generator: Adobe Illustrator 19.0.0, SVG Export Plug-In . SVG Version: 6.00 Build 0)  -->
<svg version="1.1" id="Layer_1" xmlns="http://www.w3.org/2000/svg" xmlns:xlink="http://www.w3.org/1999/xlink" x="0px" y="0px"
	 viewBox="0 0 1980 480" style="enable-background:new 0 0 1980 480;" xml:space="preserve">
<style type="text/css">
	.st0{clip-path:url(#XMLID_4_);fill:#76AADB;}
	.st1{clip-path:url(#XMLID_4_);}
	.st2{fill:none;stroke:#BA007C;stroke-width:0.6;stroke-miterlimit:10;}
	.st3{fill:#FFFFFF;}
	.st4{fill:#CDD3D6;}
	.st5{fill:#E3E7EC;}
	.st6{fill:#BA007C;}
	.st7{fill:#74C8D6;}
	.st8{fill:#FFE9A1;}
	.st9{fill:#9BE0EA;}
	.st10{fill:#34525C;}
	.st11{fill:#DADADA;}
	.st12{fill:#58167D;}
	.st13{fill:#461268;}
	.st14{fill:#76AADB;}
	.st15{fill:#FFD097;}
	.st16{fill:#FF8585;}
	.st17{fill:none;stroke:#211915;stroke-miterlimit:10;}
</style>
<g id="XMLID_2_">
	<defs>
		<rect id="XMLID_1_" width="1980" height="480"/>
	</defs>
	<clipPath id="XMLID_4_">
		<use xlink:href="#XMLID_1_"  style="overflow:visible;"/>
	</clipPath>
	<path id="XMLID_71_" class="st0" d="M838.8,515.2l211.3-206.5c58.9-57.6,153.5-56,210.4,3.5l0,0c60.4,63.1,162,60.5,219-5.6
		L1645,114.9c63-73,177.8-67.3,233.2,11.6L1980,271.4V585L838.8,515.2z"/>
	<g id="XMLID_69_" class="st1">
		<g id="XMLID_330_">
			<g id="XMLID_65_">
				<path id="XMLID_337_" class="st2" d="M1104.2,395.9l0.3-59.5c0,0-2-7.2-7.3-6.9c-5.3,0.4-0.5,9.5,7.1,7"/>
				<path id="XMLID_335_" class="st2" d="M1104.9,336c0,0-0.7-9.4,4.6-11.6c5.3-2.3,5,11.5-4.4,12.6"/>
			</g>
			<g id="XMLID_331_">
				<path id="XMLID_64_" class="st2" d="M1104.4,351.1c0,0-2-7.2-7.3-6.9c-5.3,0.4-0.5,9.5,7.1,7"/>
				<path id="XMLID_20_" class="st2" d="M1104.7,350.7c0,0-0.7-9.4,4.6-11.6c5.3-2.3,5,11.5-4.4,12.6"/>
			</g>
		</g>
		<g id="XMLID_313_">
			<path id="XMLID_325_" class="st3" d="M1145.9,398.9c0,0-16.5-4.4-14-27.5C1131.9,371.4,1147.8,379,1145.9,398.9z"/>
			<path id="XMLID_324_" class="st3" d="M1146,398.9c0,0,16.5-4.2,14.4-27.3C1160.4,371.6,1144.4,379,1146,398.9z"/>
			<path id="XMLID_323_" class="st3" d="M1145.9,388.4c0,0,12.5-11.6-0.5-30.9C1145.3,357.5,1134.9,371.7,1145.9,388.4z"/>
		</g>
		<g id="XMLID_309_">
			<path id="XMLID_312_" class="st3" d="M1034.5,398.9c0,0-17.9-4.8-15.2-29.9C1019.3,369,1036.5,377.3,1034.5,398.9z"/>
			<path id="XMLID_311_" class="st3" d="M1034.6,398.9c0,0,18-4.5,15.6-29.7C1050.2,369.2,1032.9,377.3,1034.6,398.9z"/>
			<path id="XMLID_310_" class="st3" d="M1034.4,387.4c0,0,13.6-12.6-0.6-33.5C1033.9,353.9,1022.6,369.3,1034.4,387.4z"/>
		</g>
		<g id="XMLID_270_">
			<g id="XMLID_274_">
				<path id="XMLID_276_" class="st2" d="M1128.5,396l0.4-81.8c0,0-2.8-9.9-10-9.4c-7.3,0.5-0.6,13,9.8,9.6"/>
				<path id="XMLID_275_" class="st2" d="M1129.3,313.6c0,0-1-12.9,6.3-16c7.3-3.1,6.9,15.8-6.1,17.3"/>
			</g>
			<g id="XMLID_271_">
				<path id="XMLID_273_" class="st2" d="M1128.7,334.4c0,0-2.8-9.9-10-9.4c-7.3,0.5-0.6,13,9.8,9.6"/>
				<path id="XMLID_272_" class="st2" d="M1129.1,333.8c0,0-1-12.9,6.3-16c7.3-3.1,6.9,15.8-6.1,17.3"/>
			</g>
		</g>
	</g>
	<g id="XMLID_16_" class="st1">
		<g id="XMLID_24_">
			<g id="XMLID_292_">
				<g id="XMLID_1024_">
					<polygon id="XMLID_68_" class="st4" points="1693.8,325.1 1268.2,325.1 1268.2,58 1268.2,58 1693.8,58 					"/>
					<rect id="XMLID_6_" x="1268.2" y="83" class="st5" width="141.9" height="242"/>
					<rect id="XMLID_66_" x="1551.9" y="83" class="st5" width="141.9" height="242"/>
					<path id="XMLID_61_" class="st4" d="M1268.2,83h425.6v-9c0,0,0.3-7.3-4.7-11.7c-5.1-4.4-9.6-4.4-10.6-4.4c-1,0-394.2,0-394.2,0
						s-5.7-0.5-11.3,4.6c-5.7,5.3-4.8,13.4-4.8,13.4V83z"/>
					<circle id="XMLID_60_" class="st6" cx="1292.4" cy="70.5" r="4.3"/>
					<circle id="XMLID_57_" class="st7" cx="1317" cy="70.5" r="4.3"/>
					<circle id="XMLID_56_" class="st8" cx="1341.5" cy="70.5" r="4.3"/>
					<path id="XMLID_54_" class="st3" d="M1646.2,77.5h-282.6c-1.1,0-2.1-0.9-2.1-2.1V66c0-1.1,0.9-2.1,2.1-2.1h282.6
						c1.1,0,2.1,0.9,2.1,2.1v9.4C1648.2,76.5,1647.3,77.5,1646.2,77.5z"/>
					<g id="XMLID_42_">
						<rect id="XMLID_53_" x="1285.2" y="220.9" class="st3" width="110.7" height="71.9"/>
						<rect id="XMLID_52_" x="1292.7" y="256.8" class="st6" width="58.8" height="7.8"/>
						<rect id="XMLID_51_" x="1292.7" y="280.4" class="st9" width="90.9" height="7.8"/>
						<rect id="XMLID_50_" x="1292.7" y="269" class="st3" width="50.9" height="7.8"/>
						<rect id="XMLID_46_" x="1292.2" y="227.5" class="st9" width="28" height="25.1"/>
						<rect id="XMLID_43_" x="1325.5" y="227.5" class="st9" width="28" height="25.1"/>
						<rect id="XMLID_45_" x="1358.8" y="227.5" class="st9" width="28" height="25.1"/>
					</g>
					<g id="XMLID_47_">
						<polygon id="XMLID_1006_" class="st3" points="1678.4,169.2 1567.7,169.2 1567.7,169.2 1567.7,97.3 1567.7,97.3 1678.4,97.3 
							1678.4,97.3 1678.4,169.2 						"/>
						<rect id="XMLID_1005_" x="1575.1" y="133.2" class="st6" width="58.8" height="7.8"/>
						<rect id="XMLID_999_" x="1575.1" y="156.8" class="st8" width="90.9" height="7.8"/>
						<rect id="XMLID_955_" x="1575.1" y="145.4" class="st3" width="50.9" height="7.8"/>
						<rect id="XMLID_826_" x="1574.6" y="103.9" class="st6" width="28" height="25.1"/>
						<rect id="XMLID_823_" x="1607.9" y="103.9" class="st9" width="28" height="25.1"/>
						<rect id="XMLID_70_" x="1641.3" y="103.9" class="st10" width="28" height="25.1"/>
					</g>
					<g id="XMLID_115_">
						<g id="XMLID_28_">
							
								<rect id="XMLID_40_" x="1411.9" y="110.8" transform="matrix(0.9922 0.1245 -0.1245 0.9922 33.5913 -181.2172)" class="st3" width="109.9" height="134.8"/>
							
								<rect id="XMLID_39_" x="1422.3" y="166.9" transform="matrix(0.9915 0.13 -0.13 0.9915 34.6576 -189.3412)" class="st11" width="90.9" height="7.8"/>
							
								<rect id="XMLID_35_" x="1420.6" y="178.2" transform="matrix(0.9915 0.13 -0.13 0.9915 35.9071 -185.9422)" class="st11" width="43.4" height="7.8"/>
							
								<rect id="XMLID_37_" x="1418.6" y="195.6" transform="matrix(0.9915 0.13 -0.13 0.9915 38.3583 -188.6111)" class="st9" width="90.9" height="7.8"/>
							
								<rect id="XMLID_44_" x="1416.7" y="210" transform="matrix(0.9915 0.13 -0.13 0.9915 40.2084 -188.2445)" class="st11" width="90.9" height="7.8"/>
							
								<rect id="XMLID_55_" x="1414.9" y="222.2" transform="matrix(0.9915 0.13 -0.13 0.9915 41.6402 -185.7569)" class="st11" width="57.4" height="7.8"/>
							
								<rect id="XMLID_30_" x="1431.2" y="144" transform="matrix(0.9915 0.13 -0.13 0.9915 31.5959 -185.6856)" class="st9" width="12.9" height="10.1"/>
							
								<rect id="XMLID_32_" x="1453.4" y="138.6" transform="matrix(0.9915 0.13 -0.13 0.9915 31.5971 -188.4855)" class="st9" width="12.9" height="18.4"/>
							
								<rect id="XMLID_34_" x="1475.8" y="129" transform="matrix(0.9915 0.13 -0.13 0.9915 31.3481 -191.4288)" class="st6" width="12.9" height="30.9"/>
							
								<rect id="XMLID_48_" x="1497.8" y="126" transform="matrix(0.9915 0.13 -0.13 0.9915 31.5255 -194.2933)" class="st6" width="12.9" height="36.8"/>
						</g>
					</g>
					<g id="XMLID_27_">
						<g id="XMLID_36_">
							<polygon id="XMLID_38_" class="st6" points="1681.3,226.1 1567.1,233.6 1567.1,233.6 1564.4,191.6 1678.5,184.1 							"/>
							
								<rect id="XMLID_41_" x="1576.8" y="196.4" transform="matrix(0.9979 -6.552438e-002 6.552438e-002 0.9979 -9.6384 106.7285)" class="st3" width="90.9" height="7.8"/>
							
								<rect id="XMLID_62_" x="1577.8" y="212" transform="matrix(0.9979 -6.552095e-002 6.552095e-002 0.9979 -10.6905 105.7234)" class="st3" width="57.4" height="7.8"/>
						</g>
					</g>
					<g id="XMLID_1022_">
						<g id="XMLID_74_">
							<polygon id="XMLID_77_" class="st8" points="1383.9,205.5 1275.6,182.6 1294.5,93 1294.5,93 1402.8,115.9 							"/>
							
								<rect id="XMLID_78_" x="1298.2" y="116.6" transform="matrix(0.9784 0.2067 -0.2067 0.9784 53.9292 -275.1212)" class="st6" width="90.9" height="7.8"/>
							
								<rect id="XMLID_80_" x="1295.2" y="130.9" transform="matrix(0.9784 0.2067 -0.2067 0.9784 56.8092 -274.2043)" class="st3" width="90.9" height="7.8"/>
							
								<rect id="XMLID_81_" x="1292.8" y="139.7" transform="matrix(0.9784 0.2067 -0.2067 0.9784 58.0186 -268.1129)" class="st3" width="38.5" height="7.8"/>
							
								<rect id="XMLID_83_" x="1289.2" y="159.3" transform="matrix(0.9784 0.2067 -0.2067 0.9784 62.5576 -272.3354)" class="st3" width="90.9" height="7.8"/>
							
								<rect id="XMLID_84_" x="1286.2" y="173.6" transform="matrix(0.9784 0.2067 -0.2067 0.9784 65.4381 -271.4188)" class="st3" width="90.9" height="7.8"/>
						</g>
					</g>
				</g>
			</g>
		</g>
		<g id="XMLID_135_">
			<circle id="XMLID_204_" class="st6" cx="1468.6" cy="203.6" r="5.3"/>
			<circle id="XMLID_205_" class="st6" cx="1468.4" cy="211.4" r="5.3"/>
			<circle id="XMLID_207_" class="st6" cx="1471.4" cy="215.8" r="5.3"/>
			<circle id="XMLID_210_" class="st6" cx="1495.5" cy="203.6" r="5.3"/>
			<circle id="XMLID_209_" class="st6" cx="1495.7" cy="211.4" r="5.3"/>
			<circle id="XMLID_208_" class="st6" cx="1492.7" cy="215.8" r="5.3"/>
			<g id="XMLID_163_">
				<polygon id="XMLID_192_" class="st6" points="1457.8,418.5 1458.5,432.4 1471.1,432.4 1472.8,419.3 				"/>
				<polygon id="XMLID_188_" class="st12" points="1445.7,329 1457.7,423.1 1472.5,423.1 1487.2,361.6 1501.9,423.1 1514.5,423.1 
					1527.2,321.1 				"/>
				<path id="XMLID_187_" class="st13" d="M1457.8,329.8c0,0-1.4,15.5,0,19.4c1.4,3.9,19.3,8.8,22.2,1.1c2.9-7.7,1.1-16.3,1.1-16.3
					L1457.8,329.8z"/>
				<path id="XMLID_186_" class="st13" d="M1517.1,329.8c0,0,1.4,15.5,0,19.4c-1.4,3.9-19.3,8.8-22.2,1.1
					c-2.9-7.7-1.1-16.3-1.1-16.3L1517.1,329.8z"/>
				<path id="XMLID_184_" class="st14" d="M1463.5,442.1h-9.7l-16.6-0.7c0,0,1.2-5.3,4.6-5.8c3.4-0.5,13.4-3.1,13.4-3.1
					s5.2-5.1,10.5-4.4c2.3,0.3,5.4,0.3,7.6,2.8c2.1,2.4,2.5,10.3,1.5,11.3C1473.9,443.1,1463.5,442.1,1463.5,442.1z"/>
				<path id="XMLID_183_" class="st12" d="M1455.3,432.4c0,0-2.9,4.3,0,10.1h-18c0,0-0.3-7,4.6-7L1455.3,432.4z"/>
				<path id="XMLID_182_" class="st13" d="M1437.3,441.6h19.9c0.7,0,1.3,0.6,1.3,1.3v2.9h-19.1c-1.1,0-2.1-0.9-2.1-2.1V441.6z"/>
				<path id="XMLID_181_" class="st13" d="M1454.8,441.6h20.4c0.4,0,0.8,0.3,0.8,0.8v2.1c0,0.7-0.6,1.3-1.3,1.3h-19.9V441.6z"/>
				<path id="XMLID_180_" class="st14" d="M1441.9,435.6c0,0-1.2,3,1.6,2.7c2.8-0.2,5.9-0.8,6.7,0.5c0.8,1.3,4.8,0.5,4.8,0.5v2.2
					h-17.6C1437.3,441.6,1437.2,435.6,1441.9,435.6z"/>
				<polygon id="XMLID_178_" class="st13" points="1456.3,418.5 1457,424.5 1473.8,424.5 1474.9,417.9 				"/>
				<polygon id="XMLID_176_" class="st6" points="1515.2,418.5 1514.5,432.4 1501.9,432.4 1500.2,419.3 				"/>
				<path id="XMLID_174_" class="st14" d="M1509.4,442.1h9.7l16.6-0.7c0,0-1.2-5.3-4.6-5.8c-3.4-0.5-13.4-3.1-13.4-3.1
					s-5.2-5.1-10.5-4.4c-2.3,0.3-5.4,0.3-7.6,2.8c-2.1,2.4-2.5,10.3-1.5,11.3C1499,443.1,1509.4,442.1,1509.4,442.1z"/>
				<path id="XMLID_173_" class="st12" d="M1517.7,432.4c0,0,2.9,4.3,0,10.1h18c0,0,0.3-7-4.6-7L1517.7,432.4z"/>
				<path id="XMLID_172_" class="st13" d="M1535.7,441.6h-19.9c-0.7,0-1.3,0.6-1.3,1.3v2.9h19.1c1.1,0,2.1-0.9,2.1-2.1V441.6z"/>
				<path id="XMLID_171_" class="st13" d="M1518.1,441.6h-20.4c-0.4,0-0.8,0.3-0.8,0.8v2.1c0,0.7,0.6,1.3,1.3,1.3h19.9V441.6z"/>
				<path id="XMLID_170_" class="st14" d="M1531.1,435.6c0,0,1.2,3-1.6,2.7c-2.8-0.2-5.9-0.8-6.7,0.5c-0.8,1.3-4.8,0.5-4.8,0.5v2.2
					h17.6C1535.7,441.6,1535.8,435.6,1531.1,435.6z"/>
				<polygon id="XMLID_168_" class="st13" points="1516.6,418.5 1516,424.5 1499.1,424.5 1498,417.9 				"/>
				<g id="XMLID_165_">
					<path id="XMLID_167_" class="st15" d="M1579.8,235.5c0,0,3-7.1,5.5-8.2c2.5-1-0.5,4.7-0.5,4.7s9.5-5.6,12.1-5.3
						c2.5,0.2-4.3,4.4-4.3,4.4s5.6-3.1,7.7-2.6c2.1,0.5-6.6,5.1-6.6,5.1s6.9-2.5,8.2-1.8c1.4,0.7-6.4,4.5-6.4,4.5s3.7-0.7,5.5,0.5
						c1.7,1.2-17.3,5.1-17.8,4.3L1579.8,235.5z"/>
					<polygon id="XMLID_166_" class="st15" points="1579.8,235.5 1577.8,236.6 1580.1,242.1 1584.3,241.2 					"/>
				</g>
				<g id="XMLID_153_">
					<path id="XMLID_155_" class="st15" d="M1384.7,235.5c0,0-3-7.1-5.5-8.2c-2.5-1,0.5,4.7,0.5,4.7s-9.5-5.6-12.1-5.3
						c-2.5,0.2,4.3,4.4,4.3,4.4s-5.6-3.1-7.7-2.6c-2.1,0.5,6.6,5.1,6.6,5.1s-6.8-2.5-8.2-1.8c-1.4,0.7,6.4,4.5,6.4,4.5
						s-3.7-0.7-5.5,0.5c-1.7,1.2,17.3,5.1,17.8,4.3L1384.7,235.5z"/>
					<polygon id="XMLID_154_" class="st15" points="1384.7,235.5 1386.6,236.6 1384.3,242.1 1380.1,241.2 					"/>
				</g>
				<path id="XMLID_164_" class="st6" d="M1468.6,196.2c0,0-5.6,9-0.1,18.7c5.4,9.7,20.6,11,25.9,3.2c5.3-7.8-1-22-1-22H1468.6z"/>
				<path id="XMLID_162_" class="st14" d="M1582.5,247.8l-6.3-15.4c-36,17.1-67.7-1.7-76.9-8.2c-0.8-0.7-1.7-1.3-2.6-1.9
					c0,0-0.1,0-0.1,0s0,0,0,0c-4.4-2.9-9.3-4.6-14.9-4.6c-5.5,0-10.3,1.7-14.5,4.6c0,0,0,0,0,0s-0.1,0.1-0.2,0.1
					c-0.4,0.3-0.8,0.6-1.2,0.9c-6.9,5.1-40.2,27.2-78.2,9.1l-7,14.4c0,0,28.3,31.9,63.6,25.5c-4.9,28.2-3.9,56.8-3.9,56.8
					s6-2.5,29.4,10c23.4,12.4,62.7-10,62.7-10s-1.4-28.2-8.5-56.2C1557.1,276.2,1582.5,247.8,1582.5,247.8z"/>
				<g id="XMLID_150_">
					<defs>
						<path id="XMLID_151_" d="M1582.1,247.8l-6.3-15.4c-36,17.1-67.7-1.7-76.9-8.2c-0.8-0.7-1.7-1.3-2.6-1.9c0,0-0.1,0-0.1,0
							s0,0,0,0c-4.4-2.9-9.3-4.6-14.9-4.6c-5.5,0-10.3,1.7-14.5,4.6c0,0,0,0,0,0s-0.1,0.1-0.2,0.1c-0.4,0.3-0.8,0.6-1.2,0.9
							c-6.9,5.1-40.2,27.2-78.2,9.1l-6.3,13.5c0,0,27.6,32.8,62.9,26.4c-4.9,28.2-3.9,56.8-3.9,56.8s6-2.5,29.4,10
							c23.4,12.4,62.7-10,62.7-10s-1.4-28.2-8.5-56.2C1556.8,276.2,1582.1,247.8,1582.1,247.8z"/>
					</defs>
					<clipPath id="XMLID_5_">
						<use xlink:href="#XMLID_151_"  style="overflow:visible;"/>
					</clipPath>
				</g>
				<path id="XMLID_149_" class="st15" d="M1468.6,191.1c0,0-3.7-3.4-5.1,0c-1.4,3.4,1,9.3,2.2,9.6c1.2,0.3,1.5,0,1.5,0l4.4,11.3
					l1.3,8.5c0,0,12.9,5.4,18-0.2l0.4-8.4l4.8-9.3c0,0,3.3,3.3,4.3-1.9c1-5.2-0.3-8.9-2.2-7.2c-1.9,1.7-2.7,0.2-2.7,0.2
					L1468.6,191.1z"/>
				<ellipse id="XMLID_148_" class="st15" cx="1482.3" cy="191.9" rx="15.4" ry="19.5"/>
			</g>
			<path id="XMLID_110_" class="st6" d="M1468.2,177.6c0,0-4.6,11.1,1.4,21.4c6,10.4,2,10.2,6.3,13.5c4.3,3.2,12.3,2.4,14.3,0
				c2-2.4,3.9-7.2,5.1-10.3c1.2-3.1,3.2-10.3,3-14.1c-0.2-3.8,0.3-14.7-8.4-17.9C1481.3,167,1469.8,170.8,1468.2,177.6z"/>
			<circle id="XMLID_73_" class="st6" cx="1466.1" cy="186.6" r="5.3"/>
			<circle id="XMLID_201_" class="st6" cx="1495.8" cy="188.8" r="5.3"/>
			<circle id="XMLID_137_" class="st6" cx="1468.6" cy="176.1" r="6.9"/>
			<circle id="XMLID_138_" class="st6" cx="1475.4" cy="168.2" r="6.9"/>
			<circle id="XMLID_139_" class="st6" cx="1487.3" cy="166.7" r="6.9"/>
			<circle id="XMLID_140_" class="st6" cx="1493.2" cy="175.1" r="6.9"/>
			<circle id="XMLID_145_" class="st6" cx="1495.8" cy="185" r="6.1"/>
		</g>
		<g id="XMLID_246_">
			<polygon id="XMLID_320_" class="st16" points="1261.2,191 1271.5,207 1264,211.6 			"/>
			<path id="XMLID_319_" class="st17" d="M1262,196.1c0,0,3.4-4.1,6.9,0.8c3.5,4.9,0,13.6-4.2,10.4"/>
			<g id="XMLID_316_">
				<path id="XMLID_317_" class="st15" d="M1188.1,309.1c0,0,5.4,5.8,5.3,8.6c-0.1,2.8-4.1-2.4-4.1-2.4s1.1,11.2-0.2,13.5
					c-1.3,2.3-2.3-5.9-2.3-5.9s0.5,6.5-0.9,8.3c-1.4,1.8-1.9-8.3-1.9-8.3s-0.6,7.4-1.8,8.4c-1.3,1-1.4-7.8-1.4-7.8s-0.9,3.8-2.8,4.9
					c-1.9,1.1,2.5-18.2,3.5-18.3L1188.1,309.1z"/>
				<path id="XMLID_318_" class="st6" d="M1220.9,277.6c0,0-24.9,11.7-30.1,31.3l-12.5,1.7c0,0,0-52.9,48.9-74.1
					C1258.5,222.9,1220.9,277.6,1220.9,277.6z"/>
			</g>
			<polygon id="XMLID_314_" class="st15" points="1214.7,385.6 1218.8,418 1233.8,416.1 1237.9,381.5 			"/>
			<polygon id="XMLID_308_" class="st15" points="1252.6,385.6 1256.7,418 1271.7,416.1 1275.8,381.5 			"/>
			<path id="XMLID_305_" class="st12" d="M1206.6,333.1l1.1,15.3c0.3,3.5,0.7,6.9,1.3,10.3l5.6,29.9l23.7-2.3l6.8-24.5l6.3,26.8h25
				l9.9-56.6L1206.6,333.1z"/>
			<path id="XMLID_302_" class="st13" d="M1215.3,330c0,0-1.4,15.8,0,19.8c1.4,4,19.7,9,22.7,1.1c3-7.8,1.2-16.7,1.2-16.7
				L1215.3,330z"/>
			<path id="XMLID_299_" class="st13" d="M1275.9,330c0,0,1.4,15.8,0,19.8c-1.4,4-19.7,9-22.7,1.1c-3-7.8-1.2-16.7-1.2-16.7
				L1275.9,330z"/>
			<polygon id="XMLID_291_" class="st6" points="1218.6,416.8 1220.5,433.9 1232.5,434.4 1233.8,416.1 			"/>
			<polygon id="XMLID_290_" class="st6" points="1256.2,414.9 1258.3,432.7 1269.2,434.4 1272,414.9 			"/>
			<g id="XMLID_285_">
				<path id="XMLID_289_" class="st6" d="M1229.5,438h9.9l16.9-0.6c0,0-1.2-4.2-4.7-4.5c-3.5-0.4-13.7-2.5-13.7-2.5s-5.3-4-10.7-3.4
					c-2.4,0.2-5.5,0.2-7.7,2.2c-2.1,1.9-2.5,8.1-1.6,8.8C1218.8,438.8,1229.5,438,1229.5,438z"/>
				<path id="XMLID_288_" class="st14" d="M1237.9,430.5c0,0,2.9,3.4,0,7.9h18.4c0,0,0.3-5.4-4.7-5.4L1237.9,430.5z"/>
				<path id="XMLID_287_" class="st14" d="M1256.2,437.6h-20.4c-0.7,0-1.3,0.6-1.3,1.3v2h20c0.9,0,1.6-0.7,1.6-1.6V437.6z"/>
				<path id="XMLID_286_" class="st14" d="M1238.3,437.6h-21c-0.3,0-0.6,0.3-0.6,0.6v1.6c0,0.6,0.5,1,1,1h20.6V437.6z"/>
			</g>
			<path id="XMLID_284_" class="st6" d="M1204.7,334.7c0,0-5-101.3,37.9-101.3c42.8,0,49.2,101.3,49.2,101.3s-37.2,21.2-59.3,9.4
				C1210.3,332.3,1204.7,334.7,1204.7,334.7z"/>
			<polygon id="XMLID_283_" class="st3" points="1219.1,420.9 1219.5,424.7 1233.3,423.4 1233.5,419.9 			"/>
			<polygon id="XMLID_282_" class="st3" points="1257,420.9 1257.4,424.7 1270.8,423.6 1271.3,419.9 			"/>
			<g id="XMLID_279_">
				<path id="XMLID_281_" class="st15" d="M1262.8,207.9l1.2,2.9l-7.4,17.7l-2.6,8.4c0,0-13.8,3.5-18.2-3l0.9-8.5l-3.6-14.6l2.3-4.5
					L1262.8,207.9z"/>
				
					<ellipse id="XMLID_280_" transform="matrix(-0.9882 -0.1529 0.1529 -0.9882 2451.4614 601.7831)" class="st15" cx="1248.9" cy="206.6" rx="15.7" ry="19.9"/>
			</g>
			<path id="XMLID_277_" class="st15" d="M1261.3,193.3c0,0,6.6,10.7,5.6,22.9c-1,12.2-11.4,11.7-11.4,11.7L1261.3,193.3z"/>
			<path id="XMLID_269_" class="st12" d="M1263.2,197.1l-27.2-13.3c0,0-11.1,8.1-11.1,17.5s8.2,18.3,8.2,18.3s4.2,6.7,12.8,6.7
				c8.5,0,5-17.6,5-17.6s1-8.5,4.6-5.5c3.6,3,2.9,7.4,2.9,7.4l2.9-3.1C1261.2,207.5,1257.1,198.6,1263.2,197.1z"/>
			<path id="XMLID_268_" class="st12" d="M1263.2,197.1c0,0,3.7-7.8-2-14.1c-5.7-6.3-15.2-11.5-25.2,0.8
				C1226,196,1263.2,197.1,1263.2,197.1z"/>
			<line id="XMLID_266_" class="st17" x1="1268.9" y1="197" x2="1253.5" y2="201.7"/>
			<g id="XMLID_239_">
				<path id="XMLID_245_" class="st6" d="M1268.8,438h9.9l16.9-0.6c0,0-1.2-4.2-4.7-4.5c-3.5-0.4-13.7-2.5-13.7-2.5s-5.3-4-10.7-3.4
					c-2.4,0.2-5.5,0.2-7.7,2.2c-2.1,1.9-2.5,8.1-1.6,8.8C1258.2,438.8,1268.8,438,1268.8,438z"/>
				<path id="XMLID_243_" class="st14" d="M1277.2,430.5c0,0,2.9,3.4,0,7.9h18.4c0,0,0.3-5.4-4.7-5.4L1277.2,430.5z"/>
				<path id="XMLID_242_" class="st14" d="M1295.6,437.6h-20.4c-0.7,0-1.3,0.6-1.3,1.3v2h20c0.9,0,1.6-0.7,1.6-1.6V437.6z"/>
				<path id="XMLID_240_" class="st14" d="M1277.6,437.6h-21c-0.3,0-0.6,0.3-0.6,0.6v1.6c0,0.6,0.5,1,1,1h20.6V437.6z"/>
			</g>
			<g id="XMLID_236_">
				<g id="XMLID_351_">
					<path id="XMLID_353_" class="st15" d="M1319.7,204.5c0,0-1-7.9,0.7-10.1c1.7-2.2,2,4.4,2,4.4s5.7-9.9,8.1-11
						c2.4-1.1-1.6,6.2-1.6,6.2s3.4-5.6,5.6-6.3c2.2-0.7-3.3,7.9-3.3,7.9s4.8-5.8,6.5-5.8c1.6-0.1-3.4,7.3-3.4,7.3s3-2.6,5.2-2.4
						c2.2,0.2-12.8,13.5-13.7,13L1319.7,204.5z"/>
					<polygon id="XMLID_352_" class="st15" points="1319.7,204.5 1317.6,207.7 1323.4,210.3 1326.7,207.2 					"/>
				</g>
				<path id="XMLID_300_" class="st6" d="M1316.5,205.6c-16.8,24.3-45.8,29.9-62.5,31.3c1.9,2,3.7,4.4,6.3,6.3
					c4.3,3.1,1.9,10.4,5.8,14c5.4,4.8,4.1,7.9,10,12.1c39.6-16.2,49-57.7,49-57.7L1316.5,205.6z"/>
			</g>
			<circle id="XMLID_237_" class="st12" cx="1266.1" cy="183.5" r="10"/>
			<circle id="XMLID_303_" class="st12" cx="1262.5" cy="171.1" r="10"/>
			<circle id="XMLID_294_" class="st12" cx="1249.4" cy="165.8" r="10"/>
			<circle id="XMLID_315_" class="st12" cx="1248.9" cy="177.2" r="10"/>
			<circle id="XMLID_295_" class="st12" cx="1234.3" cy="178.8" r="10"/>
			<circle id="XMLID_321_" class="st12" cx="1234.3" cy="168.8" r="10"/>
			<circle id="XMLID_341_" class="st12" cx="1223" cy="184.1" r="10"/>
			<circle id="XMLID_346_" class="st12" cx="1224.3" cy="197.7" r="10"/>
			<circle id="XMLID_297_" class="st12" cx="1227.2" cy="190.5" r="10"/>
		</g>
	</g>
</g>
</svg>
