<?xml version="1.0" encoding="utf-8"?>
<!-- Generator: Adobe Illustrator 19.0.0, SVG Export Plug-In . SVG Version: 6.00 Build 0)  -->
<svg version="1.1" id="Layer_1" xmlns="http://www.w3.org/2000/svg" xmlns:xlink="http://www.w3.org/1999/xlink" x="0px" y="0px"
	 viewBox="0 0 800 800" style="enable-background:new 0 0 800 800;" xml:space="preserve">
<style type="text/css">
	.st0{fill:#ADC548;}
	.st1{fill:#FFFFFF;}
	.st2{fill:#D94D65;}
	.st3{fill:#121B46;}
	.st4{fill:#F1B844;}
	.st5{fill:#DFDFDF;}
	.st6{fill:#ADADAD;}
	.st7{fill:#6DB2E3;}
	.st8{fill:#3CDEBC;}
	.st9{fill:#BCDFFD;}
	.st10{clip-path:url(#XMLID_3_);fill:#FF9F9E;}
	.st11{clip-path:url(#XMLID_3_);fill:#121B46;}
	.st12{clip-path:url(#XMLID_3_);fill:#FFFFFF;}
	.st13{clip-path:url(#XMLID_3_);fill:#F7BB8B;}
	.st14{clip-path:url(#XMLID_3_);fill:#F28766;}
	.st15{clip-path:url(#XMLID_3_);fill:#DFDFDF;}
	.st16{clip-path:url(#XMLID_3_);fill:#28AD92;}
	.st17{clip-path:url(#XMLID_3_);fill:#ADC548;}
	.st18{clip-path:url(#XMLID_3_);fill:#3CDEBC;}
	.st19{clip-path:url(#XMLID_3_);fill:#C4C4C4;}
	.st20{clip-path:url(#XMLID_3_);fill:#919191;}
	.st21{clip-path:url(#XMLID_3_);fill:#EBEBEB;}
	.st22{clip-path:url(#XMLID_3_);fill:#F1B844;}
	.st23{clip-path:url(#XMLID_3_);fill:#EBA771;}
</style>
<g id="XMLID_1_">
	<path id="XMLID_168_" class="st0" d="M525.9,468c16.9-16.5,39.7,37.5,47.6,58.1l15.8-18.1c-11.1-13.2-50.9-64.1-18.2-77.1
		c22.5-8.9,22,52.9,21.2,73.6l21.3-24.5c-5.5-12.7-31.9-77.8,4.6-80.6c24.4-1.9,5,58.4-1.6,77.2l22.7-26
		c8.4-20.3,32.7-73.9,49.2-56.9c23.1,23.9-27,52-45.6,61.3l-21.7,24.8c19.1-11.3,70.2-39.4,73.2-16c4.6,35.8-62.9,24-77.5,21
		l-23.1,26.5c16.1-4.1,83.7-20.2,79.4,5c-6.3,36.3-69.7,3.1-81-3.2l-16.5,18.9c0.1,0.3,0.2,0.5,0.3,0.7
		c18.1,2.7,83.6,14.2,70.1,35.3c-19.3,30.2-62.9-21.1-72.7-33.4l-36.5,41.8l-4.2-3.7l37-42.4C551.3,520.6,502.1,491.2,525.9,468"/>
	<path class="st0" d="M613.2,664.8c-18.6,0-36.7-5.1-43.4-20.4c-14.7-33.7,24.8-63.3,50.5-75.5c9.7-4.6,19.9-8.5,29.7-12.3
		c9-3.4,18.3-7,27.1-11.1c23.5-10.8,44.7-25.7,62.9-44.2c1.1-1.2,2.8-1.5,4.3-0.8c1.5,0.7,2.4,2.1,2.4,3.8
		c-1.1,25.8-2.9,51-13.1,73.9c-7.8,17.4-20.6,33.9-40.3,52.1c-10.2,9.4-24,20.9-40.4,27.4C643,661.6,627.9,664.8,613.2,664.8
		 M678.6,548.9c-9,4.1-18.3,7.7-27.3,11.2c-9.8,3.7-19.9,7.6-29.5,12.2c-24.5,11.6-62.3,39.6-48.7,70.8c11.3,25.8,60,18.7,78.4,11.4
		c15.9-6.3,29.3-17.6,39.3-26.7c19.4-17.8,31.9-34,39.5-50.9c10-22.4,11.8-47.1,12.8-72.6c0-0.1,0-0.2-0.2-0.3
		c-0.2-0.1-0.3,0-0.3,0.1C724.1,522.7,702.6,537.8,678.6,548.9"/>
	<path id="XMLID_165_" class="st0" d="M291.7,564.1c-16.9-16.5-39.7,37.5-47.6,58.1l-15.8-18.1c11.1-13.2,50.9-64.1,18.2-77.1
		c-22.5-8.9-22,52.9-21.2,73.6L204,576.2c5.5-12.7,31.9-77.8-4.6-80.6c-24.4-1.9-5.1,58.4,1.6,77.2l-22.7-26
		c-8.4-20.3-32.7-73.9-49.2-56.9c-23.1,23.9,27,52,45.6,61.3l21.7,24.8c-19.1-11.3-70.2-39.4-73.2-16c-4.6,35.8,62.9,24,77.5,21
		l23.1,26.5c-16.1-4.1-83.7-20.2-79.4,5c6.3,36.3,69.6,3.1,81-3.2l16.5,18.9c-0.1,0.3-0.2,0.5-0.3,0.7
		c-18.1,2.7-83.6,14.2-70.1,35.3c19.3,30.2,62.9-21.1,72.7-33.4l36.5,41.8l4.2-3.7l-37-42.4C266.3,616.8,315.5,587.4,291.7,564.1"/>
	<path id="XMLID_164_" class="st0" d="M230.9,537.5c-4.5-25.6-13.7-50.3-27-72.7c-1-1.7,0.6-3.6,2.4-3.1
		c23.9,7.3,48.1,15.5,67.6,31.1c17.1,13.7,29.5,32.3,39.7,51.7c7.5,14.3,14.1,29.4,16.1,45.4c2.7,22.4-4.2,70.6-32.4,75
		c-35.3,5.6-53.1-39.7-58.2-66.5C235.3,578.2,234.5,557.6,230.9,537.5"/>
	<path id="XMLID_126_" class="st1" d="M202.2,210.6H139c-4.2,0-7.6,3.4-7.6,7.6v40.7c0,4.2,3.4,7.6,7.6,7.6h18.8l5.9,10.3l6.8,11.9
		l6.8-11.9l5.9-10.3h18.8c4.2,0,7.6-3.4,7.6-7.6v-40.7C209.7,214,206.3,210.6,202.2,210.6"/>
	<path id="XMLID_125_" class="st2" d="M158,328.1c-13.2-8.1-21.4,7.7-21.5,7.8c-0.1-0.1-8.3-16-21.5-7.8c-15.2,9.3-0.3,38.9,21.5,46
		v0c0,0,0,0,0,0h0l0,0C158.3,367,173.1,337.5,158,328.1"/>
	<path id="XMLID_124_" class="st1" d="M70.3,242.9c5.5,0.7,11,0.7,16.5,0.1c1.3-0.1,2.7-0.3,3.8-1c1.1-0.7,2-1.9,1.7-3.2
		c1,0,1.8-0.8,2.5-1.5c0.3-0.3,0.6-0.6,0.8-0.9c0.2-0.4,0.2-0.9,0.2-1.4c-0.1-1.5-0.8-2.9-2.1-3.6c1.2-0.3,2.2-1.3,2.5-2.5
		c0.4-1.2,0.1-2.5-0.7-3.5c-0.5-0.6-1.2-0.9-1.9-1.2c0.5-0.5,1.3-0.7,1.7-1.3c0.6-0.8,0.3-2-0.5-2.7c-0.7-0.7-1.8-0.9-2.8-1
		c-1.8-0.2-3.7,0.1-5.5,0.1c-1.8,0.1-3.8-0.3-5.4-1.1c-0.4-2.4,0.2-4.9-0.4-7.3c-0.8-2.9-3.6-5.1-6.5-5.3c-0.6,0-1.2,0-1.6,0.5
		c-0.3,0.3-0.3,0.8-0.3,1.2c0,1.9,0.7,3.8,1.2,5.7c0.4,1.9,0.6,4-0.5,5.6c-0.4,0.6-1,1.1-1.4,1.8c-0.5,0.9-0.4,2-0.7,3.1
		c-0.3,1-1.1,2.1-2.1,2L70.3,242.9z"/>
	<path id="XMLID_123_" class="st3" d="M69.4,244.9h-6.5c-0.5,0-0.9-0.4-0.9-0.9v-22.8c0-0.5,0.4-0.9,0.9-0.9h6.5
		c0.5,0,0.9,0.4,0.9,0.9V244C70.4,244.5,69.9,244.9,69.4,244.9"/>
	<path id="XMLID_122_" class="st1" d="M67,223.4c0,0.6-0.5,1-1,1c-0.6,0-1-0.5-1-1c0-0.6,0.5-1,1-1C66.5,222.4,67,222.8,67,223.4"/>
	<path id="XMLID_121_" class="st4" d="M740.4,279.7h-63.2c-4.2,0-7.6,3.4-7.6,7.6V328c0,4.2,3.4,7.6,7.6,7.6H696l5.9,10.3l6.8,11.9
		l6.8-11.9l5.9-10.3h18.8c4.2,0,7.6-3.4,7.6-7.6v-40.7C748,283.1,744.6,279.7,740.4,279.7"/>
	<path id="XMLID_120_" class="st1" d="M703.8,325.9c5.5,0.7,11,0.7,16.5,0.1c1.3-0.1,2.7-0.3,3.8-1c1.1-0.7,2-1.9,1.7-3.2
		c1,0,1.8-0.8,2.5-1.5c0.3-0.3,0.6-0.6,0.8-0.9c0.2-0.4,0.2-0.9,0.2-1.4c-0.1-1.5-0.8-2.9-2.1-3.6c1.2-0.4,2.2-1.3,2.5-2.5
		c0.4-1.2,0.1-2.5-0.7-3.5c-0.5-0.6-1.2-0.9-1.9-1.2c0.5-0.5,1.3-0.7,1.7-1.3c0.6-0.8,0.3-2-0.5-2.7c-0.7-0.7-1.8-0.9-2.8-1
		c-1.8-0.2-3.7,0.1-5.5,0.1c-1.8,0.1-3.8-0.3-5.4-1.1c-0.4-2.4,0.2-4.9-0.4-7.3c-0.8-2.9-3.6-5.1-6.5-5.3c-0.6,0-1.2,0-1.6,0.5
		c-0.3,0.3-0.3,0.8-0.3,1.2c0,1.9,0.7,3.8,1.2,5.7c0.4,1.9,0.6,4-0.5,5.6c-0.4,0.6-1,1.1-1.4,1.8c-0.5,0.9-0.4,2-0.7,3.1
		c-0.3,1-1.1,2.1-2.1,2L703.8,325.9z"/>
	<path id="XMLID_119_" class="st3" d="M702.9,327.9h-6.5c-0.5,0-0.9-0.4-0.9-0.9v-22.8c0-0.5,0.4-0.9,0.9-0.9h6.5
		c0.5,0,0.9,0.4,0.9,0.9V327C703.8,327.5,703.4,327.9,702.9,327.9"/>
	<path id="XMLID_118_" class="st1" d="M700.4,306.3c0,0.6-0.5,1-1,1c-0.6,0-1-0.5-1-1c0-0.6,0.5-1,1-1
		C700,305.3,700.4,305.8,700.4,306.3"/>
	<path id="XMLID_117_" class="st5" d="M586.7,699.9H287c-18.2,0-33-14.8-33-33v-509c0-18.2,14.8-33,33-33h299.8
		c18.2,0,33,14.8,33,33v509C619.7,685.2,604.9,699.9,586.7,699.9"/>
	<rect id="XMLID_116_" x="394.4" y="138.7" class="st6" width="84.8" height="6.3"/>
	<rect id="XMLID_115_" x="396.6" y="667.9" class="st6" width="80.4" height="16.3"/>
	<rect id="XMLID_114_" x="262.8" y="162" class="st1" width="348.1" height="495.4"/>
	<rect id="XMLID_113_" x="262.8" y="162" class="st3" width="348.1" height="18.9"/>
	<path id="XMLID_112_" class="st7" d="M307.7,513.1c0,7.7-6.3,14-14,14c-7.7,0-14-6.3-14-14c0-7.7,6.3-14,14-14
		C301.4,499.1,307.7,505.4,307.7,513.1"/>
	<path id="XMLID_111_" class="st8" d="M307.7,629.5c0,7.7-6.3,14-14,14c-7.7,0-14-6.3-14-14c0-7.7,6.3-14,14-14
		C301.4,615.6,307.7,621.8,307.7,629.5"/>
	<path id="XMLID_110_" class="st7" d="M346.3,513.1c0,7.7-6.3,14-14,14c-7.7,0-14-6.3-14-14c0-7.7,6.3-14,14-14
		C340.1,499.1,346.3,505.4,346.3,513.1"/>
	<rect id="XMLID_109_" x="354.2" y="502.3" class="st9" width="74.5" height="7.2"/>
	<rect id="XMLID_108_" x="282.2" y="536.2" class="st9" width="309.2" height="7.2"/>
	<rect id="XMLID_107_" x="282.2" y="551" class="st9" width="309.2" height="7.2"/>
	<rect id="XMLID_106_" x="282.2" y="565.8" class="st9" width="74.5" height="7.2"/>
	<rect id="XMLID_105_" x="313.3" y="618.1" class="st9" width="74.5" height="7.2"/>
	<path id="XMLID_104_" class="st2" d="M307.7,247.5c0,7.7-6.3,14-14,14c-7.7,0-14-6.3-14-14c0-7.7,6.3-14,14-14
		C301.4,233.5,307.7,239.7,307.7,247.5"/>
	<rect id="XMLID_103_" x="313.3" y="236" class="st9" width="74.5" height="7.2"/>
	<rect id="XMLID_102_" x="354.2" y="515.8" class="st9" width="120" height="7.2"/>
	<rect id="XMLID_101_" x="262.8" y="266.3" class="st2" width="348.1" height="226.2"/>
</g>
<g>
	<defs>
		<polygon id="XMLID_40_" points="236.4,196.4 196.2,310 262.8,447.9 262.8,492.5 610.9,492.5 610.9,444.8 625.4,187.8 		"/>
	</defs>
	<clipPath id="XMLID_3_">
		<use xlink:href="#XMLID_40_"  style="overflow:visible;"/>
	</clipPath>
	<path class="st10" d="M514.4,512.8c-11.2,0-22.5-5.2-31.4-9.3c-11.6-5.3-19.1-19.8-16.7-32.3c1.7-8.6,8.1-15.9,15.9-18.2
		c0.8-0.2,1.7-0.4,2.5-0.6c1.3-0.3,2.6-0.6,3.8-1c4.3-1.7,7.7-6.1,9.1-11.8c1.2-4.9,0.8-10.2,0.5-15.2l-0.1-0.8
		c-0.5-8.7-0.8-17.9,2.4-26.4c2.9-7.8,10.2-16,19.8-16.7c1.2-0.1,2.3-0.1,3.4,0c1.6,0,3.1,0.1,4.6-0.2c6.9-1.2,11.3-8.4,14.8-14.2
		c3.5-5.8,9.2-13.5,17.4-13.4c5,0.1,9.9,3.6,12.2,8.6c2,4.3,2.1,9.7,0.4,15.1c-0.5,1.5-1.1,3-1.7,4.5c-1.8,4.7-3.6,9.1-1.8,13.2
		c0.8,1.8,2.2,3.3,3.7,4.9c0.5,0.6,1.1,1.1,1.6,1.7c7.3,8.4,8.3,21.9,2.4,31.4c-3.9,6.2-10.3,10.6-16.5,14.8
		c-7.8,5.3-15.1,10.3-17.6,18.7c-1.3,4.4-1,8.9-0.6,13.7c0.3,4.1,0.6,8.3-0.2,12.5c-1.6,8.3-7.9,15.7-16.3,19.1
		C522.3,512.1,518.3,512.8,514.4,512.8 M522.1,382.2c-0.6,0-1.2,0-1.7,0.1c-8.8,0.7-15.5,8.3-18.2,15.5c-3,8.1-2.8,17.1-2.3,25.6
		l0.1,0.8c0.3,5.2,0.7,10.6-0.6,15.8c-1.5,6.3-5.3,11.2-10.2,13.2c-1.3,0.5-2.7,0.8-4,1.1c-0.8,0.2-1.6,0.4-2.4,0.6
		c-7.2,2.1-13,8.8-14.6,16.7c-2.2,11.5,4.9,25.3,15.6,30.2c11.7,5.4,27.8,12.7,41.6,7c7.8-3.2,13.6-10,15.2-17.8
		c0.8-3.9,0.5-8,0.2-12c-0.3-4.7-0.7-9.6,0.7-14.3c2.7-9,10.6-14.5,18.3-19.7c6-4.1,12.2-8.3,15.9-14.2c5.5-8.8,4.6-21.3-2.2-29.1
		c-0.5-0.6-1-1.1-1.5-1.7c-1.5-1.6-3.1-3.3-4-5.4c-2.1-4.8-0.1-9.8,1.8-14.6c0.6-1.4,1.2-2.9,1.6-4.4c1.6-4.9,1.4-9.8-0.3-13.7
		c-2-4.4-6.2-7.4-10.6-7.5c-7.2-0.1-12.4,7.1-15.7,12.5c-3.7,6.1-8.4,13.7-16.1,15.1c-1.7,0.3-3.3,0.3-4.9,0.2
		C523.1,382.2,522.6,382.2,522.1,382.2"/>
	<path class="st10" d="M577.5,341.3c-3.5,0-6.4-2.9-6.4-6.4c0-3.5,2.9-6.4,6.4-6.4c3.5,0,6.4,2.9,6.4,6.4
		C583.9,338.4,581,341.3,577.5,341.3 M577.5,330.4c-2.5,0-4.5,2-4.5,4.5c0,2.5,2,4.5,4.5,4.5c2.5,0,4.5-2,4.5-4.5
		C582,332.4,580,330.4,577.5,330.4"/>
	<path id="XMLID_95_" class="st10" d="M549.5,307.8c0,1.3-1.1,2.4-2.4,2.4s-2.4-1.1-2.4-2.4c0-1.3,1.1-2.4,2.4-2.4
		S549.5,306.5,549.5,307.8"/>
	<path id="XMLID_94_" class="st10" d="M299.2,443.8c0,1.7-1.4,3.1-3.1,3.1c-1.7,0-3.1-1.4-3.1-3.1s1.4-3.1,3.1-3.1
		C297.8,440.7,299.2,442.1,299.2,443.8"/>
	<path class="st10" d="M577,460.5c-3.2,0-5.9-2.6-5.9-5.9c0-3.2,2.6-5.9,5.9-5.9c3.2,0,5.9,2.6,5.9,5.9
		C582.9,457.9,580.3,460.5,577,460.5 M577,450.6c-2.2,0-4,1.8-4,4c0,2.2,1.8,4,4,4c2.2,0,4-1.8,4-4
		C581.1,452.4,579.3,450.6,577,450.6"/>
	<path id="XMLID_91_" class="st11" d="M384.7,442.9c0,0-18.2,30.2-23.6,56.2H484c0,0-9.4-45.2-20.1-55.9L384.7,442.9z"/>
	<path id="XMLID_90_" class="st12" d="M381.7,451.8c3.6-0.2,7.1-0.3,10.7-0.5l10.7-0.3c7.1-0.2,14.3-0.2,21.4-0.2
		c7.1,0,14.3,0,21.4,0.2l10.7,0.3c3.6,0.2,7.1,0.2,10.7,0.5c-3.6,0.2-7.1,0.3-10.7,0.5l-10.7,0.3c-7.1,0.2-14.3,0.2-21.4,0.2
		c-7.1,0-14.3,0-21.4-0.2l-10.7-0.3C388.8,452.1,385.3,452,381.7,451.8"/>
	<path id="XMLID_89_" class="st12" d="M394.2,452.5c-0.4,2.4-1.3,4.6-2.3,6.8c-1,2.2-2.4,4.2-3.9,6.1c-1.6,1.8-3.5,3.5-5.9,4.5
		c-2.3,1.1-5,1.2-7.2,0.4c2.4,0,4.6-0.6,6.6-1.8c1.9-1.1,3.6-2.7,5.1-4.4C389.5,460.7,391.8,456.6,394.2,452.5"/>
	<path id="XMLID_88_" class="st12" d="M430.9,451.5c0.3,6,0.5,12.1,0.6,18.1l0.2,9.1l0.1,9.1l0,0.4l-0.3,0.3
		c-3.3,3.3-6.5,6.7-9.8,9.9l-1.6,1.6l0-2.3c0.1-7.7,0-15.3,0.2-23c0.1-7.7,0.3-15.3,0.7-23c0.4,7.7,0.6,15.3,0.7,23
		c0.2,7.7,0.1,15.3,0.2,23l-1.6-0.7c3.3-3.3,6.6-6.6,9.9-9.8l-0.3,0.6l0.1-9.1l0.2-9.1C430.5,463.6,430.7,457.6,430.9,451.5"/>
	<path id="XMLID_87_" class="st12" d="M458.7,451.8c0.3,2.2,0.6,4.3,1.2,6.3c0.6,2,1.3,4,2.4,5.6c1.1,1.7,2.7,2.9,4.6,3.6
		c1.9,0.8,4,0.9,6.2,1.1c-2.1,0.6-4.4,1-6.7,0.3c-2.3-0.6-4.3-2-5.7-4c-1.3-2-2-4.2-2.3-6.4C458.2,456.2,458.2,453.9,458.7,451.8"/>
	<path id="XMLID_86_" class="st13" d="M526,319l-15.2,0.5c0,0-4.9,22.3-11.6,52c-2.2-3.5-4.3-6.9-6.2-10c-6.8,13.3-15,25.6-24,37.5
		c5.1,8.6,10.9,18,17.5,27.7c0.1,0.1,0.2,0.3,0.3,0.4c11.7,17.3,38.7,10.9,41.5-9.8c0-0.2,0.1-0.5,0.1-0.7
		C532.5,385.6,533.2,351.6,526,319"/>
	<path id="XMLID_85_" class="st14" d="M517.1,296.5c-0.3-3.9-0.9-8.1-1.5-7.9c-1.1,0.2-1.7,3-2.2,6.5
		C514.6,295.5,515.9,295.9,517.1,296.5"/>
	<path id="XMLID_84_" class="st14" d="M523.5,301.4c-0.1-4.2-0.4-12.5-1.8-13.3c-1.1-0.6-2.3,4.7-3.1,9.3
		C520.5,298.5,522.2,299.9,523.5,301.4"/>
	<path id="XMLID_83_" class="st13" d="M534,295.8c-1,0.7-2.7,2.8-4.9,8.5c0,0,1.5-13,0-14.8c-1.2-1.5-4,8.4-5.2,12.6
		c0.7,1,1.3,2,1.6,3.1c0.5,1.7,0.6,3.2,0.4,4.5c1.8,4.9-1.2,10.6-6.4,12.4c-2,0.7-4.1,0.8-6.2,0.5c-1.6,0.5-3.3,0.7-4.9,0.5
		c1.2,2,2.6,4.1,4.3,6.2l10.6-2c0,0,11.6-21.8,11.7-30.9C535.1,295.7,534.5,295.4,534,295.8"/>
	<path id="XMLID_82_" class="st11" d="M497,395c-0.1-4,0.1-7.9,0.3-11.8c0.1-2,0.3-3.9,0.5-5.9c0.2-1.9,0.4-3.9,0.7-5.8l1.5,0.5
		c-1.9,2.9-3.9,5.8-6,8.5c1.4-3.2,3-6.3,4.6-9.4l1.8-3.2l-0.2,3.7c-0.1,2-0.3,3.9-0.5,5.9c-0.2,1.9-0.4,3.9-0.7,5.8
		C498.5,387.3,497.9,391.1,497,395"/>
	<path id="XMLID_81_" class="st15" d="M502.4,290.3l18.2,34.1c0.8,1.5,2.5,2.2,4.1,1.7c3.4-0.9,8.7-3.1,10-7.3
		c2-6.4-14.5-38.2-14.5-38.2L502.4,290.3z"/>
	<path id="XMLID_80_" class="st16" d="M482.8,246.1l-6.1,1.8c-1.9,0.6-3,2.4-2.7,4.3c0.8,5.6,3.3,17.7,10.3,33.9
		c0.8,1.8,2.8,2.7,4.7,2.2l5.4-1.6L482.8,246.1z"/>
	<path id="XMLID_79_" class="st17" d="M513.1,229.6l-29,8.7c-4.3,1.3-4.1,14.4,0.4,29.3c4.5,14.9,11.5,26,15.8,24.7l29-8.7
		L513.1,229.6z"/>
	<path id="XMLID_78_" class="st18" d="M528.9,254.3c4.5,14.9,4.6,28,0.4,29.3c-4.3,1.3-11.3-9.8-15.8-24.7
		c-4.5-14.9-4.6-28-0.4-29.3C517.4,228.4,524.4,239.4,528.9,254.3"/>
	<path id="XMLID_77_" class="st15" d="M567.7,194.8l-53.6,41.4l0.2,3.7c0.7,14,5.2,28,12.8,39.7l66.9,0.4L567.7,194.8z"/>
	<path id="XMLID_76_" class="st19" d="M603.1,230.7c7.1,23.8,4.1,45.7-6.8,48.9c-8.4,2.5-19-6.9-26.7-22.3
		c-2.2-4.5-4.2-9.5-5.8-14.8c-1.4-4.8-2.5-9.6-3.1-14.1c-2.5-17.8,1.2-32.2,9.9-34.8C581.5,190.3,596,206.9,603.1,230.7"/>
	<path id="XMLID_75_" class="st20" d="M581,237.3c4.4,14.8,4.9,28.8,2.1,38.1c-7.5-6.2-14.8-18.2-19.2-33
		c-4.4-14.8-4.9-28.8-2.1-38.1C569.3,210.5,576.6,222.5,581,237.3"/>
	<path id="XMLID_74_" class="st21" d="M581.2,226.7l5.8,19.4l-17.4,11.2c-2.2-4.5-4.2-9.5-5.8-14.8c-1.4-4.8-2.5-9.6-3.1-14.1
		L581.2,226.7z"/>
	<path id="XMLID_73_" class="st17" d="M588.5,235c1.6,5.4,0.9,10.3-1.5,11c-2.4,0.7-5.7-3-7.3-8.4c-1.6-5.4-0.9-10.3,1.5-11
		C583.7,225.9,586.9,229.7,588.5,235"/>
	<path id="XMLID_72_" class="st11" d="M519.5,233c0.7,4.1,1.6,8.2,2.5,12.2c1,4,2,8,3.2,12c1.3,3.9,2.7,7.8,4.4,11.5
		c1.8,3.7,3.8,7.3,6.3,10.6c-3.1-2.8-5.6-6.3-7.7-10c-2-3.7-3.6-7.6-4.9-11.6c-1.3-4-2.2-8.1-2.9-12.3
		C519.9,241.4,519.5,237.2,519.5,233"/>
	<path id="XMLID_71_" class="st11" d="M496.1,286.7c3.8-1.9,7.8-3.3,11.8-4.5c4-1.2,8.1-2.2,12.4-2.7c-3.8,1.9-7.8,3.3-11.8,4.5
		C504.4,285.2,500.3,286.2,496.1,286.7"/>
	<path class="st11" d="M586.1,235.2c0.2,0.9,0.4,1.9,0.5,2.9c0,0.5,0.1,1,0,1.5c0,0.3-0.1,0.5-0.2,0.8c-0.1,0.3-0.3,0.6-0.7,0.7
		c-0.4,0.1-0.8,0-1.1-0.2c-0.3-0.2-0.5-0.3-0.7-0.5c-0.4-0.4-0.7-0.8-1-1.3c-0.5-0.9-0.9-1.9-1.2-2.9c-0.2-1-0.3-2-0.3-3.1
		c0-0.5,0.1-1.1,0.3-1.6c0.1-0.3,0.2-0.5,0.4-0.8c0.2-0.3,0.5-0.6,0.9-0.6c0.4-0.1,0.8,0.1,1,0.3c0.2,0.2,0.4,0.4,0.5,0.6
		c0.3,0.4,0.5,0.9,0.7,1.3C585.6,233.3,585.8,234.3,586.1,235.2 M586.1,235.2c-0.2-0.9-0.6-1.9-1.1-2.7c-0.2-0.4-0.6-0.8-0.9-1.1
		c-0.3-0.3-0.8-0.5-0.9-0.4c-0.1,0.1-0.2,0.4-0.2,0.8c0,0.4,0,0.8,0,1.3c0.1,0.9,0.3,1.8,0.5,2.7c0.2,0.9,0.5,1.8,0.8,2.6
		c0.2,0.4,0.3,0.8,0.6,1.2c0.2,0.4,0.5,0.6,0.6,0.6c0.1,0.1,0.5-0.3,0.6-0.8c0.1-0.4,0.2-0.9,0.3-1.4
		C586.4,237.1,586.3,236.1,586.1,235.2"/>
	<path id="XMLID_68_" class="st11" d="M572.3,195.3c4.3,0.9,8.3,2.9,11.8,5.6c1.7,1.4,3.3,3,4.7,4.7c1.4,1.8,2.5,3.6,3.7,5.5
		c4.5,7.5,8,15.6,10.7,23.9c1.3,4.2,2.2,8.5,2.8,12.8c0.6,4.3,0.7,8.8,0,13.2c-0.7,4.3-2,8.7-4.5,12.4c-1.3,1.8-3,3.4-5.1,4.2
		c-2.1,0.8-4.5,0.8-6.4-0.1c1,0.3,2.1,0.4,3.2,0.4c1.1,0,2.1-0.3,3.1-0.8c1.9-0.9,3.4-2.5,4.5-4.2c2.2-3.6,3.3-7.9,3.8-12.1
		c1.1-8.5-0.6-17.1-3.2-25.3c-2.5-8.2-6-16.2-10.2-23.7c-1.1-1.9-2.1-3.8-3.4-5.5c-1.2-1.7-2.7-3.3-4.3-4.7
		C580.2,198.8,576.4,196.6,572.3,195.3"/>
	<path id="XMLID_67_" class="st13" d="M510,326.4c0,0-6.3-13.8-5.7-17c0.6-3.1,7.8-10.8,11.2-9.6c3.4,1.3-1.8,11-1.8,11
		s8.4,10.2,7.5,15.4C520.3,331.4,510,326.4,510,326.4"/>
	<path id="XMLID_66_" class="st22" d="M448.7,315.3c0,0,27.4,14.5,32.1,20.2c4.7,5.7,17.3,32.4,17.3,32.4l-27.3,36.8
		C470.8,404.6,441.6,361,448.7,315.3"/>
	<path id="XMLID_65_" class="st13" d="M454.1,324.8c-1.2-1.9-1.5-3.9-1.3-5.6c-1.6-1.1-2.9-2.4-4.2-3.9c-0.5-1.7-1.6-6-2.4-10.8
		c-0.7-4.3-1.3-9-0.9-12.7v0c0.2-1.8,0.6-3.4,1.3-4.6l-41.6-23.4c0,0.1,0,0.3,0.1,0.4c0.7,3.9,5.7,34.2,0.5,50.3
		c-3.1,1.4-7,2.5-11.8,2.6c-5.1,0.2-10.2,2-13.9,5.5c-4,3.8-7.6,10.2-7.7,20.9c3.8,0.5,7.6,1.2,11.4,1.9c11.4,2,22.7,4.2,34.1,6.1
		c14.7,2.4,29.7,3,44.6,4.6C461.6,345.1,459.4,333.6,454.1,324.8"/>
	<path id="XMLID_64_" class="st23" d="M446.2,304.5c-22.6,2.9-34.1-24.2-34.5-25.2c4.2,6.6,10.2,10,16.2,11.6
		c7.3,2,14.4,1.3,17.3,0.9c0,0,0.1,0,0.1,0C444.9,295.5,445.4,300.2,446.2,304.5"/>
	<path id="XMLID_63_" class="st22" d="M404.5,314.1c0,0,26.7,29.5,34.6,24.8c7.9-4.7,9.8-22.7,9.8-22.7s26.9,23.4,30.7,30.9
		c3.8,7.5,3.5,22.3-6,45.6c-9.4,23.3-5.9,54.7-5.9,54.7h-86.2c0,0,7.2-15.1,5-32.7c-2.2-17.6-22.9-73.8-22.9-73.8
		S359.5,315,404.5,314.1"/>
	<path id="XMLID_62_" class="st11" d="M403.7,317.2c2.1,2.3,4.2,4.6,6.5,6.8c2.2,2.2,4.4,4.4,6.8,6.4c2.4,2,4.7,4,7.3,5.8
		c2.5,1.8,5.2,3.4,8,4.4c2.8,1.1,5.8,1.4,8.5,0.2c2.7-1.1,4.7-3.4,6.1-6.1c1.4-2.7,2.2-5.7,2.8-8.7c0.6-3,0.9-6.1,1-9.3
		c0.5,6.2,0.1,12.7-2.5,18.6c-1.3,2.9-3.5,5.7-6.7,7.1c-1.6,0.7-3.3,1-5,0.9c-1.7-0.1-3.3-0.5-4.8-1c-3-1.2-5.8-2.8-8.4-4.7
		c-2.6-1.9-5-3.9-7.2-6.2C411.4,327.1,407.3,322.3,403.7,317.2"/>
	<path id="XMLID_61_" class="st11" d="M465.9,352c1.5,4.2,3.5,8,5.5,11.9c2,3.9,3.9,8.1,4.4,12.7c0.5,4.5-0.1,9.1-1.3,13.3
		c-1.2,4.3-2.9,8.4-4.7,12.4c1.2-4.3,2.4-8.5,3.3-12.7c0.9-4.2,1.4-8.6,0.9-12.8c-0.4-4.2-2.1-8.2-3.8-12.3c-0.9-2-1.8-4-2.5-6.1
		C466.8,356.3,466.2,354.2,465.9,352"/>
	<path id="XMLID_60_" class="st11" d="M425.5,401.4c3-1.1,6.3-1.3,9.4-1.1c3.2,0.3,6.3,1.1,9.1,2.6c-3.2-0.1-6.2-0.5-9.3-0.8
		C431.7,401.9,428.7,401.8,425.5,401.4"/>
	<path id="XMLID_59_" class="st13" d="M354.7,393.7c-1.8-1.6-3.5-3.3-5.3-4.9c-8.1-7.7-16.5-15-24.5-22.7c-2.2,2.4-4.5,4.9-6.8,7.5
		c-5.2,5.8-10.5,12.1-15.7,18.7c-6.7,8.4-7,20.3-0.7,29c4.2,5.8,8.6,11.5,13.2,17.2c13.5,16.4,29.1,31.9,46.7,44.7l11-10.4
		c0,0-15.4-27.5-33.9-61.3C344.2,405.4,349.6,399.4,354.7,393.7"/>
	<path id="XMLID_58_" class="st13" d="M361,480.2c0,0,5.8,24,11.8,30.9c0.4,0.4,1,0.3,1.1-0.3c0.3-1.2,0.2-3.9-2-9.6
		c0,0,7.5,10.7,9.8,11.1c2.3,0.4-5.3-14.5-5.3-14.5s9.7,11.1,11.8,10.6c2.1-0.5-7.2-14.3-7.2-14.3s10.7,10.9,11.4,9.9
		c1.9-2.5-12.7-18.1-10.9-19.5c1.6-1.2,6.4,1,8.7,2.5c0.5,0.3,1.1,0.2,1.3-0.3c0.5-1,0.8-2.8-1.5-4.6c-3.5-2.7-11.1-8.5-22.6-10.3
		L361,480.2z"/>
	<path id="XMLID_57_" class="st11" d="M331.6,404.3c1.7,0.7,3.1,1.8,4.3,2.9c1.2,1.2,2.3,2.5,2.9,4.3c-1.7-0.7-3.1-1.8-4.3-2.9
		C333.3,407.3,332.2,406,331.6,404.3"/>
	<path id="XMLID_56_" class="st22" d="M317.4,372.5l31.4,28.9l39.6-40.8c0,0,2.6-42.4-5.9-43.2C369.9,316.3,329.4,355.2,317.4,372.5
		"/>
	<polygon id="XMLID_55_" class="st11" points="375.1,374.2 391.1,359.2 379.5,388.2 	"/>
	<path id="XMLID_54_" class="st13" d="M467.5,253.8c-0.5-12.3-2-24.9-6.2-35.8c-5.4-14-31.1-19.4-48.9-3.9
		c-8.3,7.2-10.1,20.3-9.6,32.3c-0.4-0.2-0.8-0.4-1.1-0.4c-3.6-0.9-7.3,1.8-8.4,5.3c-0.9,2.7-0.3,5.8,1.3,8.2c1.3,2,3.4,3.9,5.6,4.7
		c0.6,0.2,3.1,0.6,4.8,0.5c1.7,7.9,5.7,15.1,11.9,20.3c7.8,6.5,17.8,9.1,27.8,7c7.7-1.6,19.2-6.6,22-14.6c0.7-2.1,0.8-4.4,0.8-6.6
		c0-0.5,0-1,0-1.5C467.7,264.2,467.7,259,467.5,253.8"/>
	<path id="XMLID_53_" class="st23" d="M467.6,269.2c-0.7,0.2-1.3,0.3-2,0.3c-4.4,0-7.9-3.6-7.9-7.9c0-4.4,3.6-7.9,7.9-7.9
		c0.7,0,1.3,0.1,1.9,0.2C467.7,259,467.7,264.2,467.6,269.2"/>
	<path id="XMLID_52_" class="st23" d="M418.1,261.5c0,4.4,3.6,7.9,7.9,7.9c4.4,0,7.9-3.6,7.9-7.9c0-4.4-3.6-7.9-7.9-7.9
		C421.7,253.5,418.1,257.1,418.1,261.5"/>
	<path id="XMLID_51_" class="st11" d="M453.5,246.1c0,2.6,1,4.7,2.3,4.7c1.3,0,2.3-2.1,2.3-4.7c0-2.6-1-4.7-2.3-4.7
		C454.5,241.4,453.5,243.5,453.5,246.1"/>
	<path id="XMLID_50_" class="st11" d="M460.5,239.9c-0.4,0.8-0.9,1.4-1.6,2c-0.6,0.6-1.5,1-2.4,1.2l0,0c-0.5,0.1-0.9-0.2-1-0.6
		c-0.1-0.5,0.2-0.9,0.6-1c0.1,0,0.2,0,0.2,0c1.3,0.1,2.7-0.7,3.7-1.9l0,0c0.1-0.1,0.3-0.1,0.4,0
		C460.5,239.6,460.5,239.8,460.5,239.9"/>
	<path id="XMLID_49_" class="st11" d="M427.6,245.4c1,1.1,2.4,1.9,3.7,1.9c0.5,0,0.9,0.3,0.9,0.8c0,0.5-0.3,0.9-0.8,0.9
		c-0.1,0-0.1,0-0.2,0l0,0c-0.9-0.2-1.8-0.7-2.4-1.2c-0.7-0.6-1.2-1.2-1.6-2c-0.1-0.1,0-0.3,0.1-0.4
		C427.4,245.3,427.5,245.3,427.6,245.4L427.6,245.4z"/>
	<path id="XMLID_48_" class="st11" d="M430.7,247.4c0.8-0.9,1.6-1.4,2.6-1.9c1-0.4,2.1-0.6,3.1-0.5c1.1,0.1,2.1,0.4,3,0.9
		c0.5,0.2,0.9,0.5,1.3,0.8l1.1,0.9c0.2,0.2,0.2,0.5,0.1,0.7c-0.2,0.2-0.5,0.2-0.7,0.1l-0.1,0l-1.1-0.8c-0.4-0.2-0.8-0.4-1.2-0.6
		c-0.8-0.4-1.6-0.5-2.5-0.5c-0.8,0-1.6,0.2-2.4,0.6c-0.7,0.4-1.4,1-1.9,1.5l0,0.1c-0.3,0.4-0.9,0.5-1.3,0.1
		C430.4,248.5,430.3,247.9,430.7,247.4C430.6,247.5,430.7,247.4,430.7,247.4"/>
	<path id="XMLID_47_" class="st11" d="M454.5,260.3c-0.8,1.5-2,2.9-3.5,3.9c-1.4,1-3.3,1.7-5.1,1.7c-1.9,0-3.7-0.7-5.1-1.8
		c-0.7-0.5-1.3-1.2-2-1.8c-0.5-0.7-1.1-1.4-1.5-2.1c0.7,0.5,1.4,1.1,2,1.6c0.7,0.4,1.4,1,2.1,1.3c1.4,0.8,3,1.3,4.5,1.3
		c1.6,0,3.1-0.5,4.6-1.2C451.8,262.5,453.2,261.5,454.5,260.3"/>
	<path id="XMLID_46_" class="st11" d="M448.3,268.6c-0.7,0.6-1.6,0.8-2.4,0.8c-0.9,0-1.8-0.3-2.4-0.8c0.8,0.1,1.6,0.3,2.4,0.3
		C446.6,268.9,447.4,268.8,448.3,268.6"/>
	<path id="XMLID_45_" class="st11" d="M440.1,229.8c-1.1-0.9-2.3-1.3-3.6-1.3c-1.3,0-2.6,0.1-3.8,0.5c-1.2,0.4-2.4,1.1-3.3,1.9
		c-1,0.8-1.7,1.9-2.3,2.9c-0.3,0.5-0.1,1.2,0.4,1.5c0.4,0.2,0.9,0.2,1.3-0.2l0.1-0.1c0.7-0.7,1.5-1.3,2.3-1.8c0.8-0.5,1.6-0.8,2.5-1
		c0.9-0.2,1.8-0.3,2.7-0.3c0.9,0,1.9,0.1,2.9-0.2l0.3-0.1c0.6-0.2,1-0.8,0.8-1.4C440.4,230.1,440.3,229.9,440.1,229.8"/>
	<path id="XMLID_44_" class="st11" d="M451.6,229.8c1.1-0.9,2.3-1.3,3.6-1.3c1.3,0,2.6,0.1,3.8,0.5c1.2,0.4,2.4,1.1,3.3,1.9
		c1,0.8,1.7,1.9,2.3,2.9c0.3,0.5,0.1,1.2-0.4,1.5c-0.4,0.2-0.9,0.2-1.3-0.2l-0.1-0.1c-0.7-0.7-1.5-1.3-2.3-1.8
		c-0.8-0.5-1.6-0.8-2.5-1c-0.9-0.2-1.8-0.3-2.7-0.3c-0.9,0-1.9,0.1-2.9-0.2l-0.3-0.1c-0.6-0.2-1-0.8-0.8-1.4
		C451.3,230.1,451.4,229.9,451.6,229.8"/>
	<path id="XMLID_43_" class="st11" d="M446.4,238.9c0.4,1.8,0.7,3.5,1,5.3c0.3,1.7,0.7,3.5,1.2,5.1c0.1,0.4,0.2,0.8,0.4,1.2
		c0.1,0.3,0.4,0.9,0.4,1.5c0.1,1.2-0.7,2.3-1.6,2.8c-1,0.5-2.1,0.5-3,0.2c-0.9-0.3-1.7-0.8-2.4-1.4c1.6,0.6,3.6,1.1,4.7,0.2
		c0.6-0.4,0.9-1,0.8-1.7c0-0.3-0.1-0.5-0.3-1c-0.2-0.4-0.3-0.9-0.5-1.3c-0.5-1.8-0.8-3.6-0.9-5.4
		C446.1,242.5,446.1,240.7,446.4,238.9"/>
	<path id="XMLID_42_" class="st11" d="M396.2,253.7c0-1.1,0.3-2.3,1.2-3.1c1-0.8,2.5-0.8,3.5-0.3c1.2,0.4,2.1,1.2,2.9,2.1
		c0.8,0.9,1.3,1.9,1.8,3c0.2,0.4,0,0.9-0.4,1c-0.3,0.1-0.6,0-0.9-0.2l-0.1-0.1c-0.8-0.8-1.7-1.6-2.6-1.9c-0.5-0.1-0.8-0.1-1.1,0.1
		c-0.3,0.2-0.6,0.7-0.8,1.2c-0.4,1-0.6,2.2,0.2,2.7c0.9,0.5,2.3,0.4,3.5,0.2c-1.1,0.5-2.4,0.9-3.8,0.5c-0.7-0.2-1.3-1.1-1.3-1.8
		c-0.1-0.7,0-1.4,0.2-2.1c0.2-0.7,0.5-1.3,1.1-1.9c0.7-0.6,1.7-0.7,2.4-0.5c1.5,0.4,2.5,1.3,3.4,2.3l-1.3,0.8
		c-0.7-1.8-1.9-3.7-3.6-4.5c-0.9-0.4-1.9-0.6-2.7-0.2C397,251.7,396.5,252.7,396.2,253.7"/>
	<path id="XMLID_41_" class="st11" d="M463.6,222.1c-1-4.4-2.9-8.5-6-11.9c-6.7-7.3-17.3-9.3-27.1-9.5c-6.6-0.2-13.5,0.3-19.4,3.2
		c-9.4,4.5-15.1,14.2-22,22c-10.3,11.7-24.4,20.1-39.6,23.6c-12.5,2.9-25.4,2.5-38.2,3.7c-12.7,1.1-25.9,4.1-35.7,12.3
		c-7.6,6.4-12.8,15.8-21.7,20.3c-4.9,2.5-10.5,3.3-16,4l-9,1.2c-13.3,1.8-20.8,16.6-13.8,28c0,0.1,0.1,0.2,0.1,0.2
		c4.6,7.4,12,13.1,14.7,21.3c2.5,7.5,0.8,15.8,1.4,23.7c1,12.4,8,24,17.8,31.7c9.8,7.7,22.1,11.9,34.5,13.3
		c4.5,0.5,9.1,0.6,13.7,0.4c-0.6-6,1.1-12.3,5.1-17.2c5.3-6.6,10.6-12.8,15.7-18.7c0.1-0.1,0.2-0.2,0.3-0.3l-0.9-0.9
		c11.9-17.3,52.5-56.2,65.1-55.1c3-0.7,5.9-0.7,8.5-0.1c0.9-0.2,1.8-0.2,2.8-0.3c4.8-0.2,8.6-1.2,11.8-2.6c5-15.6,0.4-44.6-0.5-49.9
		c-1.8,0.2-4.2-0.3-4.8-0.5c-2.2-0.8-4.3-2.7-5.6-4.7c-1.6-2.4-2.2-5.5-1.3-8.2c1-3.2,4.2-5.7,7.6-5.4c1.6,2.7,3.5,5.2,5.7,7.4
		c0.7,0.7,1.5,1.4,2.5,1.3c1.3-0.1,2.1-1.3,2.6-2.4c0.8-1.4,2.1-2.9,2.8-4.3c8.9,0.5,18-3.5,23.7-10.4c1.7-2.1,3.2-4.5,4.6-6.8
		c1.9-3.1,3.8-6.3,5.7-9.4c4.2,4.7,10.9,13.2,17.2,14C465.7,235.1,465.9,228.9,463.6,222.1"/>
</g>
</svg>
