<svg id="b35861a3-fb25-448e-8f1f-af70face9757" data-name="Layer 1" xmlns="http://www.w3.org/2000/svg" xmlns:xlink="http://www.w3.org/1999/xlink" viewBox="0 0 1980 780"><defs><linearGradient id="f4c22354-d3bb-4a6d-a955-7a98a096d3dc" x1="587.59" y1="390" x2="1980" y2="390" gradientUnits="userSpaceOnUse"><stop offset="0" stop-color="#bdc878"/><stop offset="1" stop-color="#aec0c1"/></linearGradient></defs><title>terms and conditions</title><rect width="1980" height="780" fill="#f7f8f8"/><path d="M1980,0V780H588.73c-1.56-29.67-3.12-59.29,7-89.09C627.79,596.17,727.06,573.45,816.19,571c68.7-1.87,163-11.91,212-68.84,34.88-40.54,38.17-108.56,62.64-157.15,37.54-74.54,98.29-135.33,174.59-169.77a367.48,367.48,0,0,1,56.64-20.12q17.49-4.68,35.35-7.73c2.07-.35,4.13-.69,6.2-1q11.84-1.83,23.77-3c25.75-2.51,53.89-5.84,82.25-11.22l3-.58,1.53-.3c2.44-.48,4.89-1,7.33-1.5a473.35,473.35,0,0,0,47.79-12.52C1591,97.38,1646.17,62.89,1670.33,0Z" fill="url(#f4c22354-d3bb-4a6d-a955-7a98a096d3dc)"/><ellipse cx="1430.37" cy="650.7" rx="264.94" ry="17.1" fill="#e1e2e2"/><ellipse cx="1762.67" cy="676.04" rx="105.09" ry="22.75" fill="#e1e2e2"/><path d="M1717.38,658.39c-1.9.83-24.22,7-10.9,9.11,0,0,21.6,2,30.24-4.56,0,0,6.84.12,6.84,4.86,0,0,10.32-.06,2.64-17.1,0,0-17.76,4.92-18.84,4.92S1717.38,658.39,1717.38,658.39Z" fill="#192f35"/><path d="M1443.32,131.29s-1.15-.62-3-1.89c-11.22-7.53-48.44-38.09-27.19-100.9,0,0,88.56,26.17,68,102.79Z" fill="#aec744"/><path d="M1265.71,588s-14.63,31.28-16.79,44.24c0,0,51.75,11.36,84.73-17,8.15-2.44,10.31-48.88,10.31-48.88Z" fill="#aec744"/><path d="M1254.31,489.18s-56.15,1.08-85.31,41.28c0,0,39.55,48.54,96.71,57.52,26,4.08,55.6,0,86.79-20.56l17.38-62.64Z" fill="#889f3b"/><path d="M1306.4,370.84l-2.27.16c-7.05.52-14.76,1-20.51-3.16-8.14-5.83-8.39-18-5.34-27.55,2.39-7.47,6.25-15.71,2.68-22.69s-13-8.76-20.73-7.32-15,5.16-22.8,5.89c-19.34,1.81-41-16.5-59.2-21.53-8.78-2.43-19.49-4.6-27.36,1.44a19.77,19.77,0,0,0-4.25,26c4.73,7.08,22.69,9.33,21.55,19.32-.33,2.87-2.4,5.17-3.85,7.66-4.92,8.44-2,20.52,6.16,25.83,11.67,7.55,31.53,3.19,36.87,16,3.28,7.89-2.13,16.79-1.29,25.29a17.57,17.57,0,0,0,8.65,13.32c14.72,8.4,34.15-7.2,49.7-.45,13.7,6,14.81,26.81,5.24,38.29-5.82,7-14.91,12.71-15.34,21.79-.51,10.59,11.58,17.52,22.17,18.07,8.8.45,19.65-.72,24.37,6.72,1.68,2.65,2.12,5.91,3.61,8.66,2.93,5.41,9.54,8,15.68,7.82s12-2.64,17.59-5.15c4.2-1.89,8.5-3.92,11.59-7.33s4.67-7.74,6.2-12c15.81-44.12,30.54-90.72,23.75-137.1Q1342.82,368.26,1306.4,370.84Z" fill="#aec744"/><path d="M1180.77,325.71c5.07-.54,10.67-1.17,15.5.89,5.12,2.18,7.2,6.88,8.64,11.92,2.24,7.87,3.9,15.4,11.44,19.87,7,4.13,15.33,4.61,22.88,7.15,9.41,3.17,13.4,9.84,17.39,18.43,3.48,7.49,7.59,14.22,15.83,16.93,9.09,3,19.92.94,28,6.67,14.77,10.4,10.19,33.24,12.9,48.59,1.42,8,4.44,16.65,11.22,21.71,7.43,5.53,20.49,3,25.77,11,1.44,2.19,5.66-.49,4.22-2.68-4.86-7.36-14-6.57-21.43-9.19-9.15-3.22-13.15-12.35-14.9-21.23-3.16-16,1.25-36.41-11.41-49.23-6.42-6.51-15.3-7.08-23.86-8.11-5.09-.62-10.21-1.57-14.26-4.94-3.59-3-5.68-7.46-7.62-11.6-3.62-7.71-7.12-14.87-15.17-18.73-7.81-3.74-16.83-3.81-24.64-7.52-10.82-5.14-9.38-16.43-14.32-25.61-5.2-9.68-16.34-9.6-25.93-8.58-2.7.28-3.55,4.58-.3,4.24Z" fill="#889f3b"/><path d="M1224,531.2c20.53,5.64,42.22,4.67,63.32,4.87l67.93.63c2.44,0,4.51-3.71,1.23-3.74l-65.93-.61c-21.35-.2-43.4.95-64.18-4.75-2.17-.6-5.34,2.79-2.37,3.6Z" fill="#aec744"/><path d="M1711.53,568.37s14.63,31.28,16.79,44.24c0,0-51.75,11.36-84.74-17-8.14-2.44-10.3-48.88-10.3-48.88Z" fill="#aec744"/><path d="M1722.93,469.57s56.15,1.08,85.31,41.28c0,0-39.56,48.55-96.71,57.52-26,4.08-55.6,0-86.79-20.56l-17.38-62.64Z" fill="#889f3b"/><path d="M1752.09,508c-20.77,5.7-42.79,4.56-64.13,4.76l-65.94.62c-2.42,0-4.5,3.77-1.23,3.74l67.94-.64c21.1-.2,42.82.79,63.37-4.85,2.6-.72,3.18-4.51,0-3.63Z" fill="#aec744"/><path d="M1303.4,421.13a.24.24,0,0,1,0-.08,40.26,40.26,0,0,0,30.69-22.83c4.74-10.45,6.56-13.87,9.37-25.92,4.42-19,6-41.82,2-60.88-7-32.95-13.39-65.59-19.6-98.68-2.57-13.73-4.78-27.64-4.75-41.65,0-14.49,1.15-40.47,21.61-39.67,15,.59,24.71,19.27,28.31,31.8,4.62,16,6.6,32.72,7.66,49.38,2.46,38.57.09,77.29-2.9,115.83-2.42,31-5.24,62-9.61,92.75-.27,1.94-.67,4.07-2.21,5.26a7.53,7.53,0,0,1-3.51,1.18,174.6,174.6,0,0,1-48.16.74C1308,427.82,1302.4,425.31,1303.4,421.13Z" fill="#4aa8b0"/><path d="M1309.4,283.38a350.43,350.43,0,0,1,3.44,42.68c.64,28.56-13.8,58.06-11.79,86.55,1.75,24.63,25.93,5,34.53-3.93,18.64-19.37,18.33-42.57,15.54-68.35-.55-5.11-7.9-56.95-11.48-56.95Z" fill="#7faaad"/><path d="M1342.73,131.42l107.24.14,166.45.21c13.14,0,27.5-2.09,40.17,2.38,18.55,6.54,20.34,28.77,23.33,45.43,3.79,21.14,7.91,44,4.84,65.52,0,0-9.12,163.2-20.16,216l-33.12,186.24h-304.8S1431.8,191.58,1342.73,131.42Z" fill="#7faaad"/><path d="M1490.84,188.86c9,0,9-14,0-14s-9,14,0,14Z" fill="#e1e2e2"/><path d="M1518.92,188.86c9,0,9-14,0-14s-9,14,0,14Z" fill="#e1e2e2"/><path d="M1549.16,188.86c9,0,9-14,0-14s-9,14,0,14Z" fill="#e1e2e2"/><path d="M1577.24,187.78c9,0,9-14,0-14s-9,14,0,14Z" fill="#e1e2e2"/><line x1="1400.12" y1="207.91" x2="1641.79" y2="207.91" fill="none" stroke="#e1e2e2" stroke-miterlimit="10" stroke-width="9"/><line x1="1400.12" y1="232.88" x2="1641.79" y2="232.88" fill="none" stroke="#e1e2e2" stroke-miterlimit="10" stroke-width="9"/><line x1="1400.12" y1="257.85" x2="1641.79" y2="257.85" fill="none" stroke="#e1e2e2" stroke-miterlimit="10" stroke-width="9"/><line x1="1400.12" y1="282.82" x2="1641.79" y2="282.82" fill="none" stroke="#e1e2e2" stroke-miterlimit="10" stroke-width="9"/><line x1="1398.12" y1="307.8" x2="1639.79" y2="307.8" fill="none" stroke="#e1e2e2" stroke-miterlimit="10" stroke-width="9"/><line x1="1397.12" y1="332.77" x2="1638.79" y2="332.77" fill="none" stroke="#e1e2e2" stroke-miterlimit="10" stroke-width="9"/><line x1="1395.12" y1="357.74" x2="1636.79" y2="357.74" fill="none" stroke="#e1e2e2" stroke-miterlimit="10" stroke-width="9"/><line x1="1392.12" y1="382.71" x2="1633.79" y2="382.71" fill="none" stroke="#e1e2e2" stroke-miterlimit="10" stroke-width="9"/><line x1="1379.73" y1="455.34" x2="1456.28" y2="455.34" fill="none" stroke="#e1e2e2" stroke-miterlimit="10" stroke-width="9"/><line x1="1379.73" y1="476.7" x2="1456.28" y2="476.7" fill="none" stroke="#e1e2e2" stroke-miterlimit="10" stroke-width="9"/><line x1="1379.73" y1="489.24" x2="1423.88" y2="489.24" fill="none" stroke="#e1e2e2" stroke-miterlimit="10" stroke-width="9"/><line x1="1577.24" y1="459.42" x2="1641.79" y2="459.42" fill="none" stroke="#e1e2e2" stroke-miterlimit="10" stroke-width="9"/><line x1="1569.68" y1="476.7" x2="1641.79" y2="476.7" fill="none" stroke="#e1e2e2" stroke-miterlimit="10" stroke-width="9"/><path d="M1554.08,578.22c-3.56-9.53-6.73-22.32-2.85-32.16,2.11-5.34,11-16.12,18.22-13.18,10.56,4.35,4.25,29.21.26,35.58,5.67-9.06,15-14.84,25.14-9.15,5.81,3.25,14.29,14,8.88,20.67-10.94,13.41-12.67-8.91-11.37-14.72,0,0,12.4-24.84,30.5-32.4" fill="none" stroke="#e1e2e2" stroke-miterlimit="10" stroke-width="5"/><path d="M1365.23,572.5c8.36,12.84,23.43,8.7,31.25-2.57l-9,2.57c.42,3.3,1.43,8.18,4.74,9.77,7.87,3.79,15.68-6.94,18.75-12.34l-9,2.57c2.18,4,5.48,9.14,9.91,10.73,3.45,1.24,7.64-.07,10.56-2.08,4-2.74,5.22-7.3,6.12-11.81l-9.31,3.16c.61,4,1.82,8.87,4.71,11.87,7.27,7.56,18.24-4.26,21.78-10.18,6.77-11.32,11.07-24.21,15.22-36.65.68-2-8.39-.16-9.32,2.64-4,12.12-8.16,24.83-14.83,35.82a36.25,36.25,0,0,1-2.82,4.13c-.46.57-2,1.71-2.27,2.35.18-.47,3.19-.6,3.32-1-.08.22-1.14-.4-1.27-.5-3.37-2.73-4.6-8.06-5.22-12.19-.37-2.43-8.91,1.14-9.31,3.17a30.63,30.63,0,0,1-1.49,5.66,8.92,8.92,0,0,1-1.07,2.11q-2.1,2.38,3.74-1.06c-.22-.55-3.67-2.37-4.35-3.09a33.23,33.23,0,0,1-4.8-6.79c-1.34-2.43-8.08.93-9,2.57a41.88,41.88,0,0,1-3.53,5.57,8.77,8.77,0,0,1-1.23,1.42c-1.37,1.22-.33,1,3.1-.66,0-.14-2.12-2.64-2.33-3.13a21.21,21.21,0,0,1-1.48-5.77c-.34-2.67-8.27,1.51-9,2.57-.88,1.27-2.49,4-4,4.61,1.24-.54,0,0-.79-.36a16.13,16.13,0,0,1-4.52-2.45,18.77,18.77,0,0,1-4-4.37c-1.62-2.49-10.5,1.84-9.3,3.69Z" fill="#e1e2e2"/><polygon points="1666.88 269.91 1487.6 452.94 1513.52 482.1 1725.26 297.86 1666.88 269.91" fill="#4aa8b0"/><polygon points="1685.24 291.82 1503.8 472.38 1512.44 482.1 1707.8 313.83 1685.24 291.82" fill="#188487"/><path d="M1655,274.74s30.88,43.56,46.58,44.64l18-16.11,49.14-47.17s50.76-60.56,55.44-69.2c0,0,22-22.32,2.16-40.32,0,0-22.34-4.92-68,34.2C1758.32,180.78,1715.12,211,1655,274.74Z" fill="#00989f"/><polygon points="1488.6 455.34 1459.52 482.1 1444.4 523.14 1495.16 501.54 1512.44 482.1 1488.6 455.34" fill="#e1e2e2"/><line x1="1443.32" y1="519.9" x2="1481.12" y2="482.1" fill="none" stroke="#414042" stroke-miterlimit="10" stroke-width="5"/><path d="M1784.84,675.49c-1.9.83-24.22,7-10.9,9.11,0,0,21.6,2,30.24-4.56,0,0,6.84.12,6.84,4.86,0,0,10.32-.06,2.64-17.1,0,0-17.76,4.92-18.84,4.92S1784.84,675.49,1784.84,675.49Z" fill="#192f35"/><path d="M1704.32,547.16s29.88,93,27,100.18c0,0,3.36,2.4-4.8,5.76,0,0-17.76,7.2-3.84,6.24,0,0,20.16-1.44,23.52-8.64,0,0-7.26-93.18-14.88-96.92l-1.92-14.92h-19.2Z" fill="#f0b943"/><path d="M1769.72,547.16,1790.36,619s16.32,48.48,8.16,49c0,0-29,12,2.28,6.72,0,0,15.8,0,13.48-8.16,0,0-11.44-107.91-15.28-112.76l-11-11.56Z" fill="#f0b943"/><path d="M1741,380.94s.72,13.68-14.76,50.4l-12.4,31.1c-5.75,14.4-13.15,29.23-16.85,44.29a43.61,43.61,0,0,0-1.71,11.73V544s49.69,13,76,9c0,0,23.14,3.24,38.88-3.6,0,0-13.68-16.2-4.68-36,0,0,23.4-82.08-6.12-139Z" fill="#4aa8b0"/><path d="M1733.79,269.91c-2.4,4.26-3.94,9.28-5.79,13.82-2.74,6.69-4.9,16.75-10.31,21.67-8.44,7.68-17.27,15-26,22.25-1.11.93-37.29-31.5-41.33-34.91l-10.44,13,39.6,39.24c5.32,5.26,14,11,21.82,11.64,8.38.72,14.8-6.72,23-7.51s12.78,6.41,15.35,13.15c.49,1.29,1.49,18.71,1.44,18.72l58.32-6.48s-18.62-82.74-26.41-90.87C1759.93,279,1746.93,274,1733.79,269.91Z" fill="#aec744"/><path d="M1714,236.78s-11.16-22,13.68-28.08c0,0,24.84-7.56,31.32,24.12,0,0,1.8,35.09,19.8,25.28,0,0,28.44-6.2,14.76,13.24,0,0-25.73,33-49.65,1.34l-19.83-28.34Z" fill="#192f35"/><path d="M1713,234.78s1.44,9.72,2.52,12.6l-1.26,5,4.5-1.8s3.24,14.76,13.32,11.88c0,0,3.24,5.76-2.16,12.6,0,0,3.24,6.48,15.84-2.16-4.46,3.05-5.14-25.76-6.35-27.63-2.75-4.24-8.48-4.16-12.94-4.59C1723.49,240.42,1713.64,238.84,1713,234.78Z" fill="#f0b943"/><path d="M1639.88,304.26l10.44-11.16s46.08,49.68,56.16,37.08c0,0,40.37-49.88,45.93-48.88a26.34,26.34,0,0,0,16.35,5.1s-15.48,42.7-34.92,53.86c0,0-27,25.56-40,14.4C1693.88,354.66,1657.16,329.82,1639.88,304.26Z" fill="#bac575"/><path d="M1641.46,302.57s-10.57-4.43-7.7-12c1.3-3.43,5.69-9.81,10-9.48,4.79.36,5.47,8.39,6.54,12Z" fill="#f0b943"/><path d="M1612.2,319.36c3.4,6,16.34,4.74,21.06,1.46,0,0,5.18-4-7.06-12.24,0,0,11.16,1.44,1.44-3.6-6.44-3.34-15.56,3.35-16.23,10.11A7.13,7.13,0,0,0,1612.2,319.36Z" fill="#f0b943"/><path d="M1484.21,90.06S1507,65.22,1533,62c0,0,14.59,49-17,69.31l-46.72.89Z" fill="#aec744" opacity="0.46"/><polygon points="1231.64 179.1 1207.33 190 1185.73 174.4 1188.44 147.9 1212.75 136.99 1234.35 152.59 1231.64 179.1" fill="#fff"/><path d="M92.59,278.55V287h26.7v63.72h9V287h26.76v-8.4Z" fill="#231f20"/><path d="M211.48,287v-8.45H163.75v72.12h47.73v-8.4H172.75V315.46h29.63v-8.4H172.75V287Z" fill="#231f20"/><path d="M257.45,318c9.45-2.57,15.08-10,15.08-19.22,0-11.86-9.25-20.16-20.31-20.16H220.08v72.07h9V318.78h18.66l18.61,31.89h10.16Zm-28.37-7.45V287h22.18c6.84,0,12.42,5.28,12.42,11.76,0,7.05-6.18,11.77-12.42,11.77Z" fill="#231f20"/><path d="M350.34,278.6l-30.88,39-30.88-39h-5.23v72.07h9v-56l27.11,34.7,27.11-34.7v56h9V278.6Z" fill="#231f20"/><path d="M375.53,298.66c0-8.14,7.3-11.92,16.65-11.92a37.39,37.39,0,0,1,21.22,6.84l5.18-6.43a46,46,0,0,0-26.5-8.65c-14,.05-25.5,6.89-25.5,20.72,0,26.1,48.33,12.42,48.33,30.22,0,7.45-8.14,12.93-18.91,12.88-7.69,0-16.74-3-24.94-10.51L365.48,338c10.21,8.9,21.12,12.58,30.72,12.63,15.55,0,27.62-9,27.62-21.23C423.82,302.28,375.53,316.77,375.53,298.66Z" fill="#231f20"/><path d="M493.27,278.55h-9l-28.77,72.12h9l5.43-13.58H507.6L513,350.67h9Zm-20.12,50.24,15.59-39.53,15.59,39.53Z" fill="#231f20"/><path d="M581.79,278.6v56.27L536,278.6h-5.23v72.07h9V294.44l45.82,56.23h5.28V278.6Z" fill="#231f20"/><path d="M624.48,278.6h-21v72.07h21c20,0,36.37-16.25,36.37-36C660.85,294.49,644.2,278.6,624.48,278.6Zm0,63.82h-12V286.9h12c15.9,0,27.11,12.92,27.11,27.76C651.59,330.35,639.37,342.42,624.48,342.42Z" fill="#231f20"/><path d="M130.81,466c-15.74,0-27.26-12.78-27.26-27.81,0-15.7,12.12-27.82,27.26-27.82a27.52,27.52,0,0,1,26.3,19.67l8.6-2.62a36.48,36.48,0,1,0-35,46.83c15.94,0,30.38-9.86,35-25.3l-8.6-2.67A27.19,27.19,0,0,1,130.81,466Z" fill="#231f20"/><path d="M209.62,402.15c-19.47,0-36.57,15.08-36.57,36.06a36.08,36.08,0,0,0,36.57,36.06c19.26,0,36.56-14.69,36.56-36.06C246.18,419.15,231.24,402.15,209.62,402.15Zm0,63.87c-15.74,0-27.26-12.83-27.26-27.81,0-15.44,11.72-27.77,27.26-27.77,15.34,0,27.21,12.18,27.21,27.77S225.21,466,209.62,466Z" fill="#231f20"/><path d="M307.49,402.2v56.27L261.72,402.2h-5.23v72.07h8.95V418l45.82,56.23h5.28V402.2Z" fill="#231f20"/><path d="M350.19,402.2h-21v72.07h21c20,0,36.36-16.25,36.36-36C386.55,418.09,369.9,402.2,350.19,402.2Zm0,63.82h-12V410.5h12c15.89,0,27.1,12.92,27.1,27.76C377.29,454,365.07,466,350.19,466Z" fill="#231f20"/><path d="M396.46,402.15v72.12h9V402.15Z" fill="#231f20"/><path d="M414.71,402.15v8.4h26.71v63.72h9V410.55h26.76v-8.4Z" fill="#231f20"/><path d="M485.88,402.15v72.12h9V402.15Z" fill="#231f20"/><path d="M542.31,402.15c-19.47,0-36.57,15.08-36.57,36.06a36.08,36.08,0,0,0,36.57,36.06c19.26,0,36.56-14.69,36.56-36.06C578.87,419.15,563.93,402.15,542.31,402.15Zm0,63.87c-15.75,0-27.26-12.83-27.26-27.81,0-15.44,11.72-27.77,27.26-27.77,15.34,0,27.2,12.18,27.2,27.77S557.9,466,542.31,466Z" fill="#231f20"/><path d="M640.18,402.2v56.27L594.41,402.2h-5.23v72.07h9V418L644,474.27h5.28V402.2Z" fill="#231f20"/><path d="M669.3,422.26c0-8.14,7.29-11.92,16.64-11.92a37.44,37.44,0,0,1,21.23,6.84l5.18-6.43a46.09,46.09,0,0,0-26.51-8.65c-14,0-25.5,6.89-25.5,20.72,0,26.1,48.33,12.42,48.33,30.22,0,7.45-8.14,12.93-18.91,12.88-7.69,0-16.74-3-24.94-10.51l-5.58,6.23c10.21,8.9,21.12,12.58,30.73,12.63,15.54,0,27.61-9,27.61-21.23C717.58,425.88,669.3,440.37,669.3,422.26Z" fill="#231f20"/></svg>