<svg id="Layer_1" data-name="Layer 1" xmlns="http://www.w3.org/2000/svg" xmlns:xlink="http://www.w3.org/1999/xlink" viewBox="0 0 810.56 588.55"><defs><style>.cls-1,.cls-15{fill:#263238;}.cls-2{fill:#455b64;}.cls-3{fill:#f0b943;}.cls-13,.cls-4{opacity:0.8;}.cls-13,.cls-5{fill:#f7f8f8;}.cls-6{fill:url(#linear-gradient);}.cls-7{fill:url(#linear-gradient-2);}.cls-8{fill:url(#linear-gradient-3);}.cls-9{fill:#4ea8b0;}.cls-10,.cls-11,.cls-14,.cls-17{fill:#fff;}.cls-10{opacity:0.65;}.cls-12{fill:#c5d92d;}.cls-14,.cls-15,.cls-16,.cls-17{stroke:#263238;}.cls-14,.cls-15{stroke-linecap:round;stroke-linejoin:round;}.cls-16{fill:none;}.cls-16,.cls-17{stroke-miterlimit:10;stroke-width:4px;}.cls-18{fill:url(#linear-gradient-4);}.cls-19{fill:url(#linear-gradient-5);}.cls-20{fill:url(#linear-gradient-6);}.cls-21{fill:url(#linear-gradient-7);}.cls-22{fill:url(#linear-gradient-8);}.cls-23{fill:#fab176;}.cls-24{opacity:0.2;}.cls-25{fill:#5274b8;}.cls-26{fill:#f6893f;}</style><linearGradient id="linear-gradient" x1="407.22" y1="588.84" x2="398.68" y2="419.89" gradientUnits="userSpaceOnUse"><stop offset="0" stop-color="#192f36"/><stop offset="1" stop-color="#192f36"/></linearGradient><linearGradient id="linear-gradient-2" x1="437.2" y1="555.94" x2="358.69" y2="728.31" xlink:href="#linear-gradient"/><linearGradient id="linear-gradient-3" x1="159.09" y1="309.16" x2="717.4" y2="309.16" xlink:href="#linear-gradient"/><linearGradient id="linear-gradient-4" x1="328.93" y1="308.12" x2="302.51" y2="440.25" gradientTransform="translate(-206.43 193.59) rotate(-28.45)" gradientUnits="userSpaceOnUse"><stop offset="0" stop-color="#db4d65"/><stop offset="1" stop-color="#832739"/></linearGradient><linearGradient id="linear-gradient-5" x1="448.52" y1="302.16" x2="442.48" y2="358.51" xlink:href="#linear-gradient-4"/><linearGradient id="linear-gradient-6" x1="-1932.23" y1="295.86" x2="-2057.84" y2="424.95" gradientTransform="translate(1885.41 -939.74) rotate(-28.45)" gradientUnits="userSpaceOnUse"><stop offset="0" stop-color="#f9ee4a"/><stop offset="1" stop-color="#da3d66"/></linearGradient><linearGradient id="linear-gradient-7" x1="-2008.83" y1="299.63" x2="-2122.19" y2="416.13" gradientTransform="translate(1885.41 -939.74) rotate(-28.45)" gradientUnits="userSpaceOnUse"><stop offset="0" stop-color="#8d50a0"/><stop offset="1" stop-color="#ef4a7b"/></linearGradient><linearGradient id="linear-gradient-8" x1="-2005.9" y1="309.87" x2="-2119.26" y2="426.37" xlink:href="#linear-gradient-7"/></defs><path class="cls-1" d="M152.76,217.41v-7.3L147.4,208l-1.13-7.47,5-3.9-3.41-6.82-6.49,1.79-4.87-4.06,1.46-7.63-7-3.08-3.57,5.36-6.34-.33L118,175.21l-7.47.81-.65,7.46-5.84,2.93-5.52-3.58L93,189l4.22,5.2-2.92,6.17H86.85L86,208l6.33,2.43,1.3,6.66-5.19,4.38,3.16,6.82,6.74-2.11,4.87,4.87-1.62,7,6.65,3.24,3.9-4.87h7.3l2.44,6.17,8.11-1v-6.66l5.68-3.41,5.52,3.74,5.52-5.52-3.41-5.52,2.76-6.33Zm-33.36,6.41a14.94,14.94,0,1,1,14.93-14.93A14.92,14.92,0,0,1,119.4,223.82Z" transform="translate(-29.45 -30.86)"/><path class="cls-1" d="M127.3,208.42c-.06,0,0-.71-.35-1.91a7.83,7.83,0,0,0-2.88-4.22,7.66,7.66,0,0,0-7.28-1.06,7.48,7.48,0,0,0-3.54,2.67,7.61,7.61,0,0,0,0,9,7.71,7.71,0,0,0,10.83,1.62,7.85,7.85,0,0,0,2.88-4.23c.32-1.2.29-1.91.35-1.9a1.91,1.91,0,0,1,0,.5,6,6,0,0,1-.17,1.45,7.84,7.84,0,0,1-2.86,4.47,8,8,0,0,1-3.39,1.55,8.09,8.09,0,0,1-4.27-.33,8,8,0,0,1-3.8-2.82,8.1,8.1,0,0,1,0-9.64,8.06,8.06,0,0,1,3.8-2.83,8.18,8.18,0,0,1,4.27-.32,8.08,8.08,0,0,1,3.39,1.54,7.84,7.84,0,0,1,2.86,4.47,6,6,0,0,1,.17,1.45A2,2,0,0,1,127.3,208.42Z" transform="translate(-29.45 -30.86)"/><path class="cls-1" d="M141.74,197.53a69.65,69.65,0,0,1-7.48,4.07,72.94,72.94,0,0,1-7.72,3.61,68.47,68.47,0,0,1,7.48-4.07A70.59,70.59,0,0,1,141.74,197.53Z" transform="translate(-29.45 -30.86)"/><path class="cls-1" d="M135.09,223.85c-.12.1-2.21-2.31-5.05-5s-5.35-4.68-5.25-4.8a7.43,7.43,0,0,1,1.75,1.14,46.37,46.37,0,0,1,7.32,7A8.18,8.18,0,0,1,135.09,223.85Z" transform="translate(-29.45 -30.86)"/><path class="cls-1" d="M118.66,216.41a27.74,27.74,0,0,1-1.39,6.19,28.16,28.16,0,0,1-2.27,5.93,62,62,0,0,1,1.78-6.08A61.45,61.45,0,0,1,118.66,216.41Z" transform="translate(-29.45 -30.86)"/><path class="cls-1" d="M112.12,211.6a34.89,34.89,0,0,1-5.16,3.16,34,34,0,0,1-5.42,2.71,36.41,36.41,0,0,1,5.17-3.16A35.2,35.2,0,0,1,112.12,211.6Z" transform="translate(-29.45 -30.86)"/><path class="cls-1" d="M123.8,189a32.72,32.72,0,0,1-1,5.78,32.84,32.84,0,0,1-1.54,5.66,32.7,32.7,0,0,1,1-5.77A33.47,33.47,0,0,1,123.8,189Z" transform="translate(-29.45 -30.86)"/><path class="cls-1" d="M113.58,203.36a22.18,22.18,0,0,1-4-2.49A22,22,0,0,1,106,198a20.63,20.63,0,0,1,4,2.48A20.36,20.36,0,0,1,113.58,203.36Z" transform="translate(-29.45 -30.86)"/><path class="cls-1" d="M125.56,208.42a6.16,6.16,0,1,1-6.16-6.16A6.16,6.16,0,0,1,125.56,208.42Z" transform="translate(-29.45 -30.86)"/><path class="cls-2" d="M122,209.94a10.75,10.75,0,0,0-2.11-2.48,10.34,10.34,0,0,0-3-1.24c0-.07.39-.16,1-.09a4.91,4.91,0,0,1,2.29.91,4.82,4.82,0,0,1,1.57,1.91C122,209.53,122,209.92,122,209.94Z" transform="translate(-29.45 -30.86)"/><path class="cls-2" d="M121.61,205.58c.08.14-1.12.8-2.17,2.07s-1.52,2.55-1.67,2.5a5.67,5.67,0,0,1,3.84-4.57Z" transform="translate(-29.45 -30.86)"/><path class="cls-3" d="M119,130.34l-4.94-8.6-7.73,1.14-6.39-8,3.29-8-8.62-5.73-6.44,6.5-8.48-1.49-3.44-10L66,97.26,65.37,106l-7.68,3.9-8.13-5.75-8.25,6,4.29,9.23-4.91,7.4-8.91-.48-2.33,11,8.48,3.26.73,9.25-8.79,5,4.2,9.54,9.1-1.41,6,7-3.15,8.67,8.34,5.89,6.51-7,9,2.44,2.81,9.32,10-.68,1.29-8.37,8.6-4.94,7,5.62,8.9-6.63-4.5-7.84,4.39-7.86,9,.67,2.77-10.24-7.75-4.19-1-9.32ZM84.06,160.45a20.28,20.28,0,1,1,7.49-27.69A20.28,20.28,0,0,1,84.06,160.45Z" transform="translate(-29.45 -30.86)"/><path class="cls-1" d="M83,137a23.94,23.94,0,0,0-1.67-2A10.66,10.66,0,0,0,75,131.87a10.43,10.43,0,0,0-4.81.52,10.55,10.55,0,0,0-4.55,3.16,10.57,10.57,0,0,0-2.39,5.59,10.43,10.43,0,0,0,6.16,10.73,10.62,10.62,0,0,0,6,.76,10.6,10.6,0,0,0,8.41-13.2A26.18,26.18,0,0,0,83,137a8.3,8.3,0,0,1,1.11,2.41,10.81,10.81,0,0,1-3.31,11.24,11,11,0,0,1-5.22,2.48,10,10,0,0,1-3.15.1,10.31,10.31,0,0,1-3.17-.86,10.91,10.91,0,0,1-6.47-11.26,10.55,10.55,0,0,1,.86-3.17,10.15,10.15,0,0,1,1.68-2.67A11,11,0,0,1,70,132a10.86,10.86,0,0,1,5-.48,10.68,10.68,0,0,1,6.37,3.29A8.53,8.53,0,0,1,83,137Z" transform="translate(-29.45 -30.86)"/><path class="cls-1" d="M92.59,114.38c.13.08-2.62,4.47-6.13,9.8s-6.46,9.6-6.58,9.52,2.63-4.47,6.14-9.8S92.47,114.3,92.59,114.38Z" transform="translate(-29.45 -30.86)"/><path class="cls-1" d="M102.56,149.87a17.15,17.15,0,0,1-2.74-.75c-1.67-.51-4-1.18-6.58-1.81s-4.95-1.1-6.67-1.43a19.14,19.14,0,0,1-2.77-.58,12.87,12.87,0,0,1,2.83.22,67.36,67.36,0,0,1,6.74,1.28,66.23,66.23,0,0,1,6.57,2A14.3,14.3,0,0,1,102.56,149.87Z" transform="translate(-29.45 -30.86)"/><path class="cls-1" d="M78.18,152.22a11.9,11.9,0,0,1,.88,2.37c.46,1.49,1,3.57,1.58,5.88s.93,4.44,1.17,6a12,12,0,0,1,.26,2.52,12.68,12.68,0,0,1-.62-2.45c-.33-1.52-.78-3.62-1.32-5.93s-1-4.39-1.43-5.9A13.58,13.58,0,0,1,78.18,152.22Z" transform="translate(-29.45 -30.86)"/><path class="cls-1" d="M67.22,151a63.29,63.29,0,0,1-4,7.17,66.78,66.78,0,0,1-4.46,6.9,63.19,63.19,0,0,1,4-7.17A65.46,65.46,0,0,1,67.22,151Z" transform="translate(-29.45 -30.86)"/><path class="cls-1" d="M65.67,116.41a61.44,61.44,0,0,1,2.59,7.53,60.46,60.46,0,0,1,2.1,7.69,61.13,61.13,0,0,1-2.6-7.53A61.34,61.34,0,0,1,65.67,116.41Z" transform="translate(-29.45 -30.86)"/><path class="cls-1" d="M63.37,140.28a39.44,39.44,0,0,1-6.34-.34,38.12,38.12,0,0,1-6.28-.87,38.7,38.7,0,0,1,6.33.35A38.84,38.84,0,0,1,63.37,140.28Z" transform="translate(-29.45 -30.86)"/><circle class="cls-1" cx="73.64" cy="142.31" r="8.36" transform="translate(-72.7 1.86) rotate(-19.49)"/><path class="cls-2" d="M77.69,142.37a11.8,11.8,0,0,0-4.15-1.58,11.49,11.49,0,0,0-4.4.66c0-.06.38-.4,1.17-.73a7,7,0,0,1,3.28-.45,6.78,6.78,0,0,1,3.11,1.15C77.41,141.9,77.73,142.33,77.69,142.37Z" transform="translate(-29.45 -30.86)"/><path class="cls-2" d="M74.33,137.47a29.24,29.24,0,0,0-1.25,3.89,28.67,28.67,0,0,0-.18,4.09,6.66,6.66,0,0,1-.33-4.18A6.74,6.74,0,0,1,74.33,137.47Z" transform="translate(-29.45 -30.86)"/><path class="cls-1" d="M151.68,154.73l-1.7-2.95-2.65.39-2.2-2.76,1.13-2.74-3-2-2.21,2.22-2.91-.51L137,143l-3.54.37-.2,3-2.63,1.34-2.79-2L125,147.79l1.47,3.17-1.69,2.54-3.06-.16-.8,3.77,2.91,1.12.26,3.18-3,1.73,1.44,3.27,3.12-.48,2.07,2.39-1.08,3,2.86,2,2.24-2.42,3.1.84,1,3.2,3.45-.24.44-2.87,2.95-1.7,2.42,1.93,3-2.27-1.54-2.7,1.51-2.69,3.09.23,1-3.52-2.66-1.44-.35-3.2Zm-12,10.34a7,7,0,1,1,2.57-9.51A7,7,0,0,1,139.68,165.07Z" transform="translate(-29.45 -30.86)"/><path class="cls-1" d="M139.3,157s-.21-.26-.62-.66a3.75,3.75,0,0,0-2.13-1,3.52,3.52,0,0,0-3.07,1.25,3.45,3.45,0,0,0,3.22,5.61,3.51,3.51,0,0,0,2.62-2,3.75,3.75,0,0,0,.23-2.33c-.13-.55-.29-.84-.25-.86a1.78,1.78,0,0,1,.44.81,3.6,3.6,0,0,1-.08,2.52,3.86,3.86,0,0,1-2.88,2.36,3.91,3.91,0,0,1-3.67-6.39,3.83,3.83,0,0,1,3.49-1.3,3.64,3.64,0,0,1,2.22,1.2A1.9,1.9,0,0,1,139.3,157Z" transform="translate(-29.45 -30.86)"/><path class="cls-1" d="M142.61,149.25a15.23,15.23,0,0,1-2,3.46,15.09,15.09,0,0,1-2.4,3.17,15.47,15.47,0,0,1,2-3.46A15.09,15.09,0,0,1,142.61,149.25Z" transform="translate(-29.45 -30.86)"/><path class="cls-1" d="M146,161.44a16.76,16.76,0,0,1-3.24-.72,17.31,17.31,0,0,1-3.2-.85,12.47,12.47,0,0,1,6.44,1.57Z" transform="translate(-29.45 -30.86)"/><path class="cls-1" d="M137.66,162.24A12.69,12.69,0,0,1,139,168a9.94,9.94,0,0,1-.83-2.84A10.22,10.22,0,0,1,137.66,162.24Z" transform="translate(-29.45 -30.86)"/><path class="cls-1" d="M133.9,161.82a8,8,0,0,1-1.23,2.54,7.82,7.82,0,0,1-1.68,2.28,7.75,7.75,0,0,1,1.23-2.54A7.62,7.62,0,0,1,133.9,161.82Z" transform="translate(-29.45 -30.86)"/><path class="cls-1" d="M133.37,150a7.5,7.5,0,0,1,1,2.53,7.82,7.82,0,0,1,.56,2.69,7.29,7.29,0,0,1-1.06-2.53A7.4,7.4,0,0,1,133.37,150Z" transform="translate(-29.45 -30.86)"/><path class="cls-1" d="M132.58,158.14a4.61,4.61,0,0,1-2.19.05,4.86,4.86,0,0,1-2.15-.46,9.38,9.38,0,0,1,4.34.41Z" transform="translate(-29.45 -30.86)"/><path class="cls-1" d="M138.59,157.41a2.87,2.87,0,1,1-3.92-1.06A2.87,2.87,0,0,1,138.59,157.41Z" transform="translate(-29.45 -30.86)"/><path class="cls-2" d="M137.49,158.86c-.1.11-.66-.29-1.44-.37s-1.42.18-1.49,0,.55-.67,1.54-.57S137.61,158.78,137.49,158.86Z" transform="translate(-29.45 -30.86)"/><path class="cls-2" d="M136.34,157.18c.12.08-.14.64-.26,1.36s-.09,1.34-.23,1.38-.44-.62-.28-1.47S136.23,157.09,136.34,157.18Z" transform="translate(-29.45 -30.86)"/><g class="cls-4"><path class="cls-5" d="M840,358.94V339.17l-14.49-5.71-3.08-20.21,13.62-10.54-9.23-18.45-17.57,4.83-13.18-11,4-20.64-18.89-8.35-9.66,14.5-17.14-.88-8.34-18-20.21,2.2-1.75,20.2L708.23,275l-14.93-9.67-14.94,16.7,11.42,14.05-7.9,16.69H661.67l-2.2,20.65,17.14,6.59,3.51,18-14.06,11.86,8.57,18.45,18.23-5.71L706,395.84l-4.4,18.88,18,8.79,10.55-13.18H750L756.55,427l22-2.63v-18l15.38-9.23,14.93,10.11,14.94-14.94-9.23-14.93L822,360.26Zm-90.27,17.35a40.42,40.42,0,1,1,40.41-40.41A40.41,40.41,0,0,1,749.74,376.29Z" transform="translate(-29.45 -30.86)"/><path class="cls-5" d="M771.11,334.6c-.16,0-.07-1.9-.93-5.15A21.28,21.28,0,0,0,762.37,318a20.87,20.87,0,0,0-19.69-2.87,20.52,20.52,0,0,0-9.59,7.24,20.64,20.64,0,0,0,0,24.45,20.59,20.59,0,0,0,9.59,7.24,20.84,20.84,0,0,0,19.69-2.88,21.25,21.25,0,0,0,7.81-11.44c.86-3.24.77-5.16.93-5.15a4.69,4.69,0,0,1,.08,1.37,17.41,17.41,0,0,1-.48,3.92A21.29,21.29,0,0,1,763,352a21.58,21.58,0,0,1-9.18,4.18,22,22,0,0,1-11.56-.88A21.73,21.73,0,0,1,732,347.64a21.9,21.9,0,0,1,0-26.08A21.9,21.9,0,0,1,753.79,313a21.47,21.47,0,0,1,9.18,4.18,21.23,21.23,0,0,1,7.74,12.1,17.27,17.27,0,0,1,.48,3.91A4.69,4.69,0,0,1,771.11,334.6Z" transform="translate(-29.45 -30.86)"/><path class="cls-5" d="M810.2,305.15c.17.35-8.9,5.28-20.25,11s-20.72,10.1-20.89,9.75,8.89-5.27,20.25-11S810,304.8,810.2,305.15Z" transform="translate(-29.45 -30.86)"/><path class="cls-5" d="M792.2,376.36c-.33.27-6-6.24-13.68-13.54s-14.45-12.65-14.2-13c.11-.15,1.95,1,4.76,3.1a119.27,119.27,0,0,1,10.41,8.86,123.36,123.36,0,0,1,9.38,10C791.1,374.46,792.34,376.24,792.2,376.36Z" transform="translate(-29.45 -30.86)"/><path class="cls-5" d="M747.74,356.23c.37.08-1,7.67-3.75,16.76s-5.8,16.17-6.15,16,2.08-7.41,4.8-16.45S747.35,356.14,747.74,356.23Z" transform="translate(-29.45 -30.86)"/><path class="cls-5" d="M730,343.21c.19.34-6.06,4.18-14,8.57s-14.47,7.66-14.65,7.32,6.06-4.17,14-8.56S729.85,342.87,730,343.21Z" transform="translate(-29.45 -30.86)"/><path class="cls-5" d="M761.66,281.93c.38.09-.88,7.09-2.81,15.64S755,313,754.66,312.89s.88-7.08,2.81-15.63S761.28,281.84,761.66,281.93Z" transform="translate(-29.45 -30.86)"/><path class="cls-5" d="M734,320.9c-.22.32-5-2.69-10.71-6.73s-10.13-7.56-9.9-7.87,5,2.69,10.71,6.72S734.23,320.59,734,320.9Z" transform="translate(-29.45 -30.86)"/><path class="cls-5" d="M766.41,334.6a16.67,16.67,0,1,1-16.67-16.66A16.67,16.67,0,0,1,766.41,334.6Z" transform="translate(-29.45 -30.86)"/><path class="cls-5" d="M756.66,338.72c-.38.17-1.74-3.84-5.71-6.7s-8.17-3-8.13-3.37c0-.18,1-.42,2.76-.23A13.41,13.41,0,0,1,756,336C756.74,337.6,756.83,338.67,756.66,338.72Z" transform="translate(-29.45 -30.86)"/><path class="cls-5" d="M755.73,326.93c.2.37-3.05,2.17-5.89,5.6s-4.1,6.89-4.5,6.76.31-4,3.43-7.67S755.63,326.58,755.73,326.93Z" transform="translate(-29.45 -30.86)"/><path class="cls-5" d="M748.69,123.33l-13.36-23.28-20.94,3.08L697.11,81.41,706,59.78,682.68,44.29,665.25,61.87l-22.94-4-9.31-27L605.11,33.8l-1.58,23.61L582.75,68l-22-15.57L538.44,68.64l11.6,25-13.28,20-24.12-1.28-6.31,29.76,23,8.83,2,25-23.8,13.67,11.37,25.8,24.63-3.83,16.32,18.84-8.53,23.47,22.56,15.94,17.61-19.06,24.43,6.61,7.6,25.22,27.15-1.83,3.5-22.65,23.28-13.37L696.44,260,720.53,242l-12.18-21.21,11.87-21.26,24.42,1.8,7.49-27.69-21-11.35-2.78-25.23Zm-94.57,81.48a54.88,54.88,0,1,1,20.26-74.93A54.9,54.9,0,0,1,654.12,204.81Z" transform="translate(-29.45 -30.86)"/><path class="cls-5" d="M651.1,141.26c-.16.11-1.32-2.23-4.52-5.5a28.88,28.88,0,0,0-17-8.31,28.44,28.44,0,0,0-25.32,10,28.45,28.45,0,0,0-6.48,15.14,28.24,28.24,0,0,0,16.68,29,28.4,28.4,0,0,0,16.33,2,28.59,28.59,0,0,0,13.58-6.31,28.29,28.29,0,0,0,7.79-10.54,28.86,28.86,0,0,0,1.39-18.85c-1.21-4.41-2.64-6.59-2.47-6.67a22.54,22.54,0,0,1,3,6.52,29.27,29.27,0,0,1-9,30.43,29.63,29.63,0,0,1-14.11,6.7,29.61,29.61,0,0,1-17.12-2,29.49,29.49,0,0,1-17.49-30.47,29.68,29.68,0,0,1,6.85-15.81,29.61,29.61,0,0,1,12.9-8.81,29.29,29.29,0,0,1,30.8,7.61A22.43,22.43,0,0,1,651.1,141.26Z" transform="translate(-29.45 -30.86)"/><path class="cls-5" d="M677.21,80.14c.32.21-7.12,12.09-16.62,26.52s-17.46,26-17.79,25.75,7.11-12.08,16.62-26.52S676.88,79.93,677.21,80.14Z" transform="translate(-29.45 -30.86)"/><path class="cls-5" d="M704.16,176.18c-.07.2-2.87-.68-7.4-2S686,171,679,169.24s-13.41-3-18.06-3.85-7.54-1.39-7.51-1.59,3,0,7.67.6a180.89,180.89,0,0,1,36,8.79C701.54,174.81,704.23,176,704.16,176.18Z" transform="translate(-29.45 -30.86)"/><path class="cls-5" d="M638.19,182.53c.18-.05,1.12,2.39,2.38,6.42s2.83,9.64,4.29,15.92,2.53,12,3.17,16.18.87,6.77.69,6.8-.79-2.51-1.67-6.62-2.11-9.79-3.56-16-2.86-11.88-3.88-16S638,182.59,638.19,182.53Z" transform="translate(-29.45 -30.86)"/><path class="cls-5" d="M608.55,179.17c.33.21-4.54,8.89-10.88,19.4s-11.75,18.87-12.08,18.67,4.54-8.88,10.88-19.4S608.21,179,608.55,179.17Z" transform="translate(-29.45 -30.86)"/><path class="cls-5" d="M604.34,85.62c.37-.12,3.52,9,7,20.39s6,20.69,5.67,20.81-3.51-9-7-20.4S604,85.73,604.34,85.62Z" transform="translate(-29.45 -30.86)"/><path class="cls-5" d="M598.13,150.22c0,.39-7.72,0-17.15-.93s-17.05-1.95-17-2.33,7.71,0,17.15.93S598.17,149.83,598.13,150.22Z" transform="translate(-29.45 -30.86)"/><circle class="cls-5" cx="625.93" cy="155.71" r="22.64" transform="translate(-45.54 186.87) rotate(-19.49)"/><path class="cls-5" d="M636.86,155.88c-.22.37-4.52-3.58-11.22-4.28s-11.74,2.18-11.89,1.78c-.09-.15,1-1.08,3.15-2a18.56,18.56,0,0,1,17.31,1.87C636.11,154.61,637,155.76,636.86,155.88Z" transform="translate(-29.45 -30.86)"/><path class="cls-5" d="M627.79,142.62c.37.22-2.36,4.51-3.4,10.53s0,11-.48,11.06-2.08-5-.9-11.31S627.55,142.37,627.79,142.62Z" transform="translate(-29.45 -30.86)"/><path class="cls-5" d="M837.09,189.33l-4.59-8-7.19,1-5.93-7.45,3.06-7.43-8-5.31-6,6-7.87-1.38-3.2-9.27-9.57,1-.54,8.11-7.14,3.62L772.57,165l-7.66,5.58,4,8.58L764.33,186l-8.28-.44-2.16,10.21,7.88,3,.68,8.59-8.17,4.69,3.9,8.86,8.46-1.32,5.6,6.47-2.93,8.06,7.75,5.47,6-6.54,8.39,2.26L794.1,244l9.32-.63,1.2-7.77,8-4.59,6.54,5.22,8.27-6.17-4.18-7.28,4.07-7.3,8.39.62,2.57-9.5-7.2-3.9-1-8.66Zm-32.47,28a18.84,18.84,0,1,1,7-25.72A18.85,18.85,0,0,1,804.62,217.3Z" transform="translate(-29.45 -30.86)"/><path class="cls-5" d="M803.58,195.48c-.1.07-.56-.7-1.67-1.76a10,10,0,0,0-5.75-2.65,9.36,9.36,0,1,0,7.5,13.05,10,10,0,0,0,.6-6.3c-.35-1.5-.79-2.28-.68-2.34a4.75,4.75,0,0,1,1.21,2.19,9.9,9.9,0,0,1-.22,6.83,10.4,10.4,0,0,1-7.8,6.39,10.57,10.57,0,0,1-9.92-17.29,10.41,10.41,0,0,1,9.44-3.52,9.91,9.91,0,0,1,6,3.26A4.82,4.82,0,0,1,803.58,195.48Z" transform="translate(-29.45 -30.86)"/><path class="cls-5" d="M812.55,174.5c.32.22-2.06,4.41-5.32,9.36s-6.17,8.8-6.49,8.59,2-4.41,5.31-9.36S812.22,174.29,812.55,174.5Z" transform="translate(-29.45 -30.86)"/><path class="cls-5" d="M821.8,207.47c-.14.38-4-.78-8.76-1.93s-8.71-1.92-8.67-2.32,4.13-.25,9,.95S821.94,207.12,821.8,207.47Z" transform="translate(-29.45 -30.86)"/><path class="cls-5" d="M799.15,209.65c.37-.11,1.74,3.23,2.75,7.56s1.25,7.94.87,8-1.25-3.41-2.25-7.68S798.78,209.77,799.15,209.65Z" transform="translate(-29.45 -30.86)"/><path class="cls-5" d="M789,208.5c.33.2-1.16,3.29-3.34,6.9s-4.21,6.37-4.54,6.17,1.16-3.29,3.33-6.9S788.64,208.3,789,208.5Z" transform="translate(-29.45 -30.86)"/><path class="cls-5" d="M787.53,176.38c.38-.11,1.65,3,2.86,6.87s1.87,7.16,1.5,7.27-1.65-3-2.85-6.86S787.16,176.5,787.53,176.38Z" transform="translate(-29.45 -30.86)"/><path class="cls-5" d="M785.4,198.56c0,.39-2.69.45-5.93.14s-5.83-.87-5.8-1.26,2.7-.45,5.93-.14S785.44,198.17,785.4,198.56Z" transform="translate(-29.45 -30.86)"/><path class="cls-5" d="M801.68,196.57a7.77,7.77,0,1,1-10.61-2.87A7.77,7.77,0,0,1,801.68,196.57Z" transform="translate(-29.45 -30.86)"/><path class="cls-5" d="M798.7,200.5c-.27.3-1.79-.8-3.91-1s-3.82.5-4,.15,1.49-1.83,4.19-1.55S799,200.28,798.7,200.5Z" transform="translate(-29.45 -30.86)"/><path class="cls-5" d="M795.59,196c.32.23-.38,1.75-.72,3.7s-.23,3.61-.62,3.71-1.18-1.66-.76-4S795.3,195.71,795.59,196Z" transform="translate(-29.45 -30.86)"/></g><polygon class="cls-6" points="335.91 397.04 321.74 524.14 486.16 524.14 464.74 397.04 335.91 397.04"/><path class="cls-7" d="M551,581H310.38c-6.53,0-11.44-4.65-10.18-9.65l3.09-12.21c.93-3.68,5-6.37,9.77-6.52l232-7.24c5-.16,9.46,2.5,10.55,6.32l5.56,19.45C562.6,576.2,557.67,581,551,581Z" transform="translate(-29.45 -30.86)"/><path class="cls-8" d="M159.09,153.71v291.1a44.16,44.16,0,0,0,43,44.14c106.32,2.75,380.17,9.39,481.38,7.9a32.49,32.49,0,0,0,32-31.57c2-67.62,5.12-230.24-6.61-305.74a33.45,33.45,0,0,0-32-28.3c-89.09-2.85-385.27-11.9-486.44-9.62A32.1,32.1,0,0,0,159.09,153.71Z" transform="translate(-29.45 -30.86)"/><path class="cls-9" d="M177.36,152.29V428.86a25.58,25.58,0,0,0,25.2,25.58l466.38,7a24.89,24.89,0,0,0,25.27-24.8l.94-274.09a18.21,18.21,0,0,0-17.76-18.28L197.57,132.57A19.73,19.73,0,0,0,177.36,152.29Z" transform="translate(-29.45 -30.86)"/><path class="cls-10" d="M698.46,472.68h0L177.35,462.14a.73.73,0,0,1,0-1.45l521.1,10.55a.72.72,0,0,1,0,1.44Z" transform="translate(-29.45 -30.86)"/><path class="cls-11" d="M439.92,555.86a.72.72,0,0,1,0-1.44l9.95-.15h0a.73.73,0,0,1,0,1.45l-9.94.14Z" transform="translate(-29.45 -30.86)"/><path class="cls-11" d="M309.11,574.21H309a.72.72,0,0,1-.59-.83l1.41-8.88a9.85,9.85,0,0,1,9.6-8.31l105.44-1.54a.75.75,0,0,1,.73.71.71.71,0,0,1-.71.73l-105.44,1.54a8.41,8.41,0,0,0-8.19,7.09l-1.42,8.89A.73.73,0,0,1,309.11,574.21Z" transform="translate(-29.45 -30.86)"/><path class="cls-12" d="M429.3,159.35s38.34,15.52,70.3,15.52,31.95-20.09,66.65-22.82,55.69,39.25,60.26,93.12-11.87,127.82-74,164.34-165.25,61.17-237.38,21-112.3-116.86-87.65-195.38,97.7-98.61,129.65-94.95S429.3,159.35,429.3,159.35Z" transform="translate(-29.45 -30.86)"/><path class="cls-13" d="M429.3,159.35s38.34,15.52,70.3,15.52,31.95-20.09,66.65-22.82,55.69,39.25,60.26,93.12-11.87,127.82-74,164.34-165.25,61.17-237.38,21-112.3-116.86-87.65-195.38,97.7-98.61,129.65-94.95S429.3,159.35,429.3,159.35Z" transform="translate(-29.45 -30.86)"/><rect class="cls-11" x="268.3" y="181.3" width="15.17" height="15.17"/><rect class="cls-11" x="289.06" y="181.3" width="15.17" height="15.17"/><rect class="cls-11" x="268.3" y="202.86" width="15.17" height="15.17"/><rect class="cls-11" x="289.06" y="202.86" width="15.17" height="15.17"/><rect class="cls-11" x="268.3" y="224.41" width="15.17" height="15.17"/><rect class="cls-11" x="289.06" y="224.41" width="15.17" height="15.17"/><rect class="cls-11" x="268.3" y="245.96" width="15.17" height="15.17"/><rect class="cls-11" x="289.06" y="245.96" width="15.17" height="15.17"/><rect class="cls-11" x="268.3" y="267.51" width="15.17" height="15.17"/><rect class="cls-11" x="289.06" y="267.51" width="15.17" height="15.17"/><rect class="cls-11" x="268.3" y="289.06" width="15.17" height="15.17"/><rect class="cls-11" x="289.06" y="289.06" width="15.17" height="15.17"/><rect class="cls-11" x="268.3" y="310.62" width="15.17" height="15.17"/><rect class="cls-11" x="289.06" y="310.62" width="15.17" height="15.17"/><path class="cls-11" d="M492.77,221.73v43h60.88v-43Zm58.48,40.59H495.17V224.13h56.08Z" transform="translate(-29.45 -30.86)"/><rect class="cls-11" x="469.34" y="199.19" width="8.94" height="8.94"/><rect class="cls-11" x="489.29" y="199.19" width="8.94" height="8.94"/><rect class="cls-11" x="509.24" y="199.19" width="8.94" height="8.94"/><rect class="cls-11" x="469.34" y="215.7" width="8.94" height="8.94"/><rect class="cls-11" x="489.29" y="215.7" width="8.94" height="8.94"/><rect class="cls-11" x="509.24" y="215.7" width="8.94" height="8.94"/><path class="cls-11" d="M514.1,254.06v43H575v-43Zm58.48,40.59H516.5V256.46h56.08Z" transform="translate(-29.45 -30.86)"/><rect class="cls-11" x="490.67" y="231.53" width="8.94" height="8.94"/><rect class="cls-11" x="510.62" y="231.53" width="8.94" height="8.94"/><rect class="cls-11" x="530.57" y="231.53" width="8.94" height="8.94"/><rect class="cls-11" x="490.67" y="248.04" width="8.94" height="8.94"/><rect class="cls-11" x="510.62" y="248.04" width="8.94" height="8.94"/><rect class="cls-11" x="530.57" y="248.04" width="8.94" height="8.94"/><rect class="cls-11" x="378.53" y="342.03" width="20.41" height="20.41"/><path class="cls-11" d="M439.79,403.23H417v-22.8h22.81Zm-20.41-2.4h18v-18h-18Z" transform="translate(-29.45 -30.86)"/><circle class="cls-3" cx="394.4" cy="251.33" r="60.22"/><path class="cls-14" d="M423.27,292v21.28h-18l-11.09-25.55,25.23-59.27h3.91v52.38a5.65,5.65,0,0,0,0,11.16Zm6.09-63.54h-3.91V281a5.65,5.65,0,0,1,0,11v21.36H443.5l11.09-25.55Z" transform="translate(-29.45 -30.86)"/><rect class="cls-15" x="376.05" y="285.3" width="37.9" height="12.81"/><path class="cls-15" d="M429.8,286.45a5.65,5.65,0,0,1-4.35,5.5v21.36H443.5l11.09-25.55-7.3-17.15a173.83,173.83,0,0,1-18.45,12.7A5.65,5.65,0,0,1,429.8,286.45Z" transform="translate(-29.45 -30.86)"/><path class="cls-15" d="M405.22,313.31h18V292a5.65,5.65,0,0,1-4.24-3.17c-7.46,4-14.46,7.2-20.24,9.64Z" transform="translate(-29.45 -30.86)"/><path class="cls-16" d="M510.19,282.18a86.34,86.34,0,1,0-172.68,0" transform="translate(-29.45 -30.86)"/><line class="cls-16" x1="341.43" y1="164.99" x2="447.38" y2="164.99"/><circle class="cls-17" cx="394.4" cy="164.99" r="5.7"/><circle class="cls-17" cx="342.12" cy="164.99" r="5.7"/><circle class="cls-17" cx="446.64" cy="164.99" r="5.7"/><circle class="cls-3" cx="517.12" cy="298.71" r="26.11" transform="translate(-89.2 422.29) rotate(-45)"/><path class="cls-1" d="M512.74,319.19a1.18,1.18,0,0,1-1.19-1.11l-2.5-35.48a1.19,1.19,0,0,1,2.1-.86l22.44,26.63a1.19,1.19,0,0,1-1.82,1.54l-20.08-23.82,2.24,31.82a1.2,1.2,0,0,1-1.11,1.28Z" transform="translate(-29.45 -30.86)"/><circle class="cls-3" cx="475.22" cy="365.82" r="26.11" transform="translate(-135.23 483.63) rotate(-51.94)"/><path class="cls-14" d="M490,365.54l7.48-7.48,6.34,6.35-5.08,12.88-29.71,12-1.38-1.37,18.42-18.42a2.81,2.81,0,0,0,3.93-3.93Zm-24.49,20.2,1.38,1.38,18.45-18.45a2.8,2.8,0,0,1,3.86-3.86l7.51-7.51L490.37,351,477.49,356Z" transform="translate(-29.45 -30.86)"/><rect class="cls-15" x="490.9" y="351.21" width="18.85" height="6.37" transform="translate(574.07 927.92) rotate(-135)"/><path class="cls-1" d="M464.28,391a1.34,1.34,0,0,1-.35-.05c-.11,0-11.19-3.54-10-13.93.57-4.86,3.07-7.72,5.49-10.49,2.57-2.94,5-5.72,5.17-11,.32-9.61-7.5-11.75-7.83-11.83a1.2,1.2,0,0,1,.59-2.32c.1,0,10,2.66,9.63,14.23-.2,6.1-3,9.34-5.77,12.47-2.27,2.6-4.43,5.06-4.91,9.19-1,8.39,7.93,11.25,8.31,11.37a1.19,1.19,0,0,1-.35,2.33Z" transform="translate(-29.45 -30.86)"/><circle class="cls-3" cx="370.56" cy="366.89" r="26.11" transform="translate(-102.94 62.65) rotate(-13.1)"/><path class="cls-14" d="M382.75,366l7.48-7.48,6.35,6.35-5.08,12.88-29.71,12-1.38-1.38,18.42-18.42a2.8,2.8,0,0,0,3.92-3.92Zm-24.48,20.2,1.38,1.38,18.44-18.45a2.81,2.81,0,0,1,3.87-3.87l7.51-7.51-6.35-6.34-12.88,5.08Z" transform="translate(-29.45 -30.86)"/><rect class="cls-15" x="383.65" y="351.67" width="18.85" height="6.37" transform="translate(390.65 852.86) rotate(-135)"/><rect class="cls-1" x="319.6" y="323.45" width="3.18" height="23.09"/><rect class="cls-1" x="349.05" y="354.31" width="3.18" height="23.09" transform="translate(687.04 -15.64) rotate(90)"/><circle class="cls-3" cx="326.32" cy="297.11" r="26.11" transform="translate(-107.59 442.8) rotate(-65.9)"/><path class="cls-14" d="M337.38,294l7.48-7.49,6.34,6.35-5.08,12.89-29.71,12L315,316.32l18.42-18.42a2.81,2.81,0,0,0,3.93-3.92Zm-24.49,20.2,1.38,1.37,18.45-18.44a2.81,2.81,0,0,1,3.86-3.87l7.51-7.51-6.34-6.35-12.89,5.09Z" transform="translate(-29.45 -30.86)"/><rect class="cls-15" x="338.27" y="279.64" width="18.85" height="6.37" transform="translate(364.12 697.82) rotate(-135)"/><rect class="cls-1" x="303.67" y="282.28" width="3.18" height="23.09" transform="translate(569.64 -42.29) rotate(90)"/><path class="cls-18" d="M173.91,420.19,300,280.08l20.69,18.47L195.49,440.19A8.29,8.29,0,0,1,185,441.77c-3.53-2.15-7.92-6.1-12-13.37A7.11,7.11,0,0,1,173.91,420.19Z" transform="translate(-29.45 -30.86)"/><path class="cls-19" d="M345,248l-20.13,14.33c1.63,3,4.68,6.27,10.36,8.89l11.57-21.64A1.23,1.23,0,0,0,345,248Z" transform="translate(-29.45 -30.86)"/><path class="cls-20" d="M300,280.08a34.19,34.19,0,0,0,20.69,18.47l14.63-27.35c-5.68-2.62-8.73-5.93-10.36-8.89Z" transform="translate(-29.45 -30.86)"/><path class="cls-21" d="M179.65,426.18a.52.52,0,0,1-.59-.07.52.52,0,0,1,0-.74L299.79,291.65a.52.52,0,0,1,.78.7L179.79,426.07A.38.38,0,0,1,179.65,426.18Z" transform="translate(-29.45 -30.86)"/><path class="cls-22" d="M187.11,433.79a.52.52,0,0,1-.64-.81L307.25,299.26a.51.51,0,0,1,.73,0,.52.52,0,0,1,0,.74L187.25,433.68Z" transform="translate(-29.45 -30.86)"/><path class="cls-23" d="M128.58,416.31l3.62,1.46a8.19,8.19,0,0,1,3.36,2.51l1.66,2.11a3.68,3.68,0,0,1-.12,4.71l-1.76,2a3.7,3.7,0,0,1-5.24.31l-1.69-1.52s-5.2-3.66-6.73-8.48l1-1A7,7,0,0,1,128.58,416.31Z" transform="translate(-29.45 -30.86)"/><path class="cls-23" d="M138.5,381.23l-1.18.77-1.31.91c-.87.62-1.75,1.25-2.6,1.91-1.71,1.33-3.37,2.7-4.92,4.15a40.68,40.68,0,0,0-7.73,9.43c-.25.42-.47.84-.68,1.27l-.16.32a4.11,4.11,0,0,0,.1-.41,1.24,1.24,0,0,0,0-.5c-.09-.29-.1.46.12,1.2a31.15,31.15,0,0,0,2.4,5.54c2.06,3.94,4.64,8,7.07,12l.07.1a3.52,3.52,0,0,1-5.16,4.61,70.27,70.27,0,0,1-10.93-10.71,35.18,35.18,0,0,1-4.59-7.13,19.21,19.21,0,0,1-.94-2.46,12.37,12.37,0,0,1-.52-3.37,9.88,9.88,0,0,1,.25-2.3,10.38,10.38,0,0,1,.38-1.27l.19-.51c.25-.69.53-1.37.82-2A46.72,46.72,0,0,1,118.74,379a59.51,59.51,0,0,1,6-5.37c1.06-.83,2.13-1.62,3.24-2.38.56-.37,1.12-.75,1.7-1.11l.89-.54,1-.59A7,7,0,0,1,139,380.93Z" transform="translate(-29.45 -30.86)"/><path class="cls-1" d="M138.62,365.36c-5.85,0-12.24,2.53-20.44,12.7,0,6.07,12.81,14.14,12.81,14.14S152,365.28,138.62,365.36Z" transform="translate(-29.45 -30.86)"/><path class="cls-1" d="M95.23,605.75a.89.89,0,0,1-.31-.06c-1.21-.42-2.35-3.51-2.42-5.22a.26.26,0,0,1,.15-.26.29.29,0,0,1,.31,0c.12.1,3.14,2.57,3.28,4.24a1.19,1.19,0,0,1-.27.9A1,1,0,0,1,95.23,605.75Zm-2.09-4.61c.27,1.63,1.2,3.75,2,4,.11,0,.25.05.43-.15a.63.63,0,0,0,.14-.49C95.6,603.55,94.11,602,93.14,601.14Z" transform="translate(-29.45 -30.86)"/><path class="cls-1" d="M97.11,602.08a9.6,9.6,0,0,1-4.49-1.39.28.28,0,0,1,.09-.5c.16-.05,3.93-1,5.35-.16a1.12,1.12,0,0,1,.57.75.92.92,0,0,1-.36,1A2.06,2.06,0,0,1,97.11,602.08Zm-3.57-1.51c1.47.74,3.74,1.24,4.41.78.1-.07.19-.18.13-.45a.62.62,0,0,0-.31-.39C96.94,600,94.83,600.3,93.54,600.57Z" transform="translate(-29.45 -30.86)"/><path class="cls-9" d="M82.14,599.8a47.12,47.12,0,0,0,7.46-10.59s9.28,2.28,7.46,5C93.75,599,92.14,609,96.4,614.33c2.43,3-1.42,3.55-4,2.25-4-2.08-3.87-2.85-6-6.28-1.8-2.94-2.51-4.09-5-5.34C79.44,603.91,80.44,601.87,82.14,599.8Z" transform="translate(-29.45 -30.86)"/><path class="cls-1" d="M160.84,425.64s-13.46,65.6-23.3,93.62c-10.34,29.42-38.89,74.82-40,76.77-4-1.08-7.67-2.5-10.08-4.86,0,0,13.4-49.25,26.46-81.2,5-66.69,15.89-84.33,15.89-84.33Z" transform="translate(-29.45 -30.86)"/><path class="cls-24" d="M140.3,460.74c-.61,12.69-1,30.14-.43,51.38,4.11-13.24,8.58-31.19,12.34-47.3C149.7,461.47,145.8,459.86,140.3,460.74Z" transform="translate(-29.45 -30.86)"/><path class="cls-23" d="M141.11,345.2c1.42,5.7,2.8,15,.55,20,0,0,8.42.37,19.18,9,5.07-7.45-.8-8.91-.8-8.91-4.47-1.05-4.25-7-4.25-11.25Z" transform="translate(-29.45 -30.86)"/><path class="cls-25" d="M139,367.75c-4.2-.46-1.3-8.44.88-7.67,5.52,2,17.9-.22,21.73,1.89s2.86,6.45,2.86,6.45S143.52,368.25,139,367.75Z" transform="translate(-29.45 -30.86)"/><path class="cls-1" d="M139,367.75c-4.2-.46-1.3-8.44.88-7.67,5.52,2,17.9-.22,21.73,1.89s2.86,6.45,2.86,6.45S143.52,368.25,139,367.75Z" transform="translate(-29.45 -30.86)"/><path class="cls-1" d="M163.5,335.13c.13.76.65,1.31,1.15,1.22s.79-.78.66-1.54-.65-1.31-1.15-1.22S163.36,334.36,163.5,335.13Z" transform="translate(-29.45 -30.86)"/><path class="cls-1" d="M164,333.67l1.74-.86S165,334.41,164,333.67Z" transform="translate(-29.45 -30.86)"/><path class="cls-1" d="M164.52,329a.49.49,0,0,0,0-.34.45.45,0,0,0-.56-.32,4.52,4.52,0,0,0-3.14,2.72.44.44,0,0,0,.29.57.46.46,0,0,0,.58-.28,3.56,3.56,0,0,1,2.51-2.13A.52.52,0,0,0,164.52,329Z" transform="translate(-29.45 -30.86)"/><path class="cls-26" d="M164.4,337a20.71,20.71,0,0,0,3.27,4.64,3.36,3.36,0,0,1-2.7.8Z" transform="translate(-29.45 -30.86)"/><path class="cls-23" d="M137.4,334.74c2.22,9.27,3,13.25,8.47,17.24,8.27,6,18.95,1.26,19.49-8.49.48-8.77-3.24-22.47-12.9-24.6S135.17,325.46,137.4,334.74Z" transform="translate(-29.45 -30.86)"/><path class="cls-1" d="M155.38,336.44c5.46-7.22,9-13.05,6.33-19.44-2.25-5.34-8.48-3.78-9.35-1.11-16.57-1.42-22.51,4.58-19.09,14.51,2.17,6.33-6.29,3.05-4.23,11.08,1.58,6.16-4,8.51-1.16,12,4.08,5.11,12.5-1.56,22.11,2.28C157.85,358.94,169.67,354.2,155.38,336.44Z" transform="translate(-29.45 -30.86)"/><path class="cls-23" d="M154.49,337.9a6.13,6.13,0,0,0,4.15,2.86c2.17.32,2.92-2.12,2-4.38-.8-2-2.9-4.65-4.94-3.93S153.26,336,154.49,337.9Z" transform="translate(-29.45 -30.86)"/><path class="cls-1" d="M157.72,611.86A9,9,0,0,1,153,609.8a.29.29,0,0,1-.08-.29.28.28,0,0,1,.24-.2c.16,0,4-.44,5.32.62a1.18,1.18,0,0,1,.45.83.93.93,0,0,1-.5,1A1.65,1.65,0,0,1,157.72,611.86Zm-3.81-2.05c1.36,1,3.53,1.78,4.26,1.41.1-.05.21-.14.19-.41a.59.59,0,0,0-.25-.44C157.36,609.74,155.23,609.73,153.91,609.81Z" transform="translate(-29.45 -30.86)"/><path class="cls-1" d="M153.18,609.87a.28.28,0,0,1-.23-.11.31.31,0,0,1,0-.31c.09-.14,2-3.52,3.64-3.93a1.17,1.17,0,0,1,.94.12.92.92,0,0,1,.48,1c-.22,1.27-3.08,2.89-4.75,3.25Zm3.73-3.83-.2,0c-1,.24-2.21,2-2.92,3.07,1.56-.54,3.51-1.8,3.65-2.61,0-.11,0-.25-.23-.4A.52.52,0,0,0,156.91,606Z" transform="translate(-29.45 -30.86)"/><path class="cls-9" d="M165.15,615.38c-8.1-.63-13.56-6.19-13-12.09.31-3.24-10.07-3.54-10.07-3.54,1.64,10.08-.42,11.52-1.1,14.12s-.51,5.48,1.64,5.53c2.57.07,3.77-.43,7-.3,3.74.14,7.78.29,14.43.3C166.68,619.41,168.75,615.65,165.15,615.38Z" transform="translate(-29.45 -30.86)"/><path class="cls-1" d="M174.84,425.64s-.71,49.68-4.63,82.33-17.4,96.69-17.4,96.69a22.56,22.56,0,0,1-10.77-.09s-4.26-50,2.89-98.37c-5.25-50.67-8.54-80.56-8.54-80.56Z" transform="translate(-29.45 -30.86)"/><path class="cls-3" d="M176.68,379.68c-.17,3.84,5.89,12.71-1.59,17.86,1.4,3.12,2.58,24.31-.25,28.1-4.13,3-26.48,2.45-45,0-.78-7.66,3.44-23.53-1.73-48.28a9.87,9.87,0,0,1,8.67-11.83c1.56-.16,3.21-.29,4.9-.37a123.3,123.3,0,0,1,17.73,0c1.91.18,3.89.42,5.78.68A13.4,13.4,0,0,1,176.68,379.68Z" transform="translate(-29.45 -30.86)"/><path class="cls-23" d="M199.44,393.43l4.42-4.69,6.12,8.62s-5.16,3.67-10.12,3.52l-.56-1.26A6.93,6.93,0,0,1,199.44,393.43Z" transform="translate(-29.45 -30.86)"/><path class="cls-23" d="M211,389.19l1.73,3.26a3.07,3.07,0,0,1-1.25,4.13l-1.45.78-6.12-8.62,3.5-1.05A3.08,3.08,0,0,1,211,389.19Z" transform="translate(-29.45 -30.86)"/><path class="cls-23" d="M176.08,376.6l.37,1.91.42,2c.31,1.35.6,2.7.94,4,.65,2.68,1.42,5.31,2.26,7.85a52.91,52.91,0,0,0,3,7.1,19.3,19.3,0,0,0,3.66,5.11l-2.12-1.05c-.63-.08-.74.11-.41.09a4.24,4.24,0,0,0,1.51-.43,25.05,25.05,0,0,0,4.26-2.49c1.49-1,3-2.19,4.48-3.39s3-2.5,4.47-3.69l.15-.13a3.53,3.53,0,0,1,5.37,4.34,51,51,0,0,1-3.36,5.54,49.86,49.86,0,0,1-4.07,5.17,31.5,31.5,0,0,1-5.39,4.78,17.65,17.65,0,0,1-4,2,12.14,12.14,0,0,1-2.82.61,10.8,10.8,0,0,1-3.56-.25,5.74,5.74,0,0,1-1.89-.87l-.24-.18a29,29,0,0,1-7.61-8.49q-1.36-2.24-2.46-4.5t-2-4.54a82.9,82.9,0,0,1-2.94-9.14c-.39-1.54-.76-3.07-1.07-4.62-.15-.78-.31-1.56-.44-2.34s-.25-1.53-.38-2.47a7,7,0,0,1,13.8-2.31Z" transform="translate(-29.45 -30.86)"/><path class="cls-1" d="M166.49,366.1c5.82.6,10.47,4.46,13.72,16.75-2.5,3.46-18.25,11-18.25,11S153.19,364.72,166.49,366.1Z" transform="translate(-29.45 -30.86)"/></svg>