<?xml version="1.0" encoding="utf-8"?>
<!-- Generator: Adobe Illustrator 19.0.0, SVG Export Plug-In . SVG Version: 6.00 Build 0)  -->
<svg version="1.1" id="Layer_1" xmlns="http://www.w3.org/2000/svg" xmlns:xlink="http://www.w3.org/1999/xlink" x="0px" y="0px"
	 viewBox="0 0 800 800" style="enable-background:new 0 0 800 800;" xml:space="preserve">
<style type="text/css">
	.st0{fill:#EBEBEB;}
	.st1{fill:#E6E6E6;}
	.st2{fill:#EFEFEF;}
	.st3{fill:#F9F9F9;}
	.st4{fill:#FFFFFF;}
	.st5{opacity:0.4;}
	.st6{clip-path:url(#XMLID_279_);fill:#E6E6E6;}
	.st7{clip-path:url(#XMLID_280_);fill:#E6E6E6;}
	.st8{clip-path:url(#XMLID_281_);fill:#E6E6E6;}
	.st9{clip-path:url(#XMLID_282_);fill:#E6E6E6;}
	.st10{clip-path:url(#XMLID_283_);fill:#E6E6E6;}
	.st11{clip-path:url(#XMLID_284_);fill:#E6E6E6;}
	.st12{fill:#F4F4F4;}
	.st13{opacity:0.7;}
	.st14{clip-path:url(#XMLID_285_);fill:#E6E6E6;}
	.st15{clip-path:url(#XMLID_286_);fill:#E6E6E6;}
	.st16{opacity:0.6;}
	.st17{clip-path:url(#XMLID_287_);fill:#007CFF;}
	.st18{clip-path:url(#XMLID_288_);fill:#007CFF;}
	.st19{fill:#DB4C65;}
	.st20{opacity:0.5;}
	.st21{clip-path:url(#XMLID_289_);fill:#F9F9F9;}
	.st22{clip-path:url(#XMLID_290_);fill:#007CFF;}
	.st23{opacity:0.2;}
	.st24{clip-path:url(#XMLID_291_);}
	.st25{clip-path:url(#XMLID_292_);}
	.st26{clip-path:url(#XMLID_295_);}
	.st27{opacity:0.1;}
	.st28{clip-path:url(#XMLID_296_);}
	.st29{clip-path:url(#XMLID_297_);}
	.st30{clip-path:url(#XMLID_298_);}
	.st31{clip-path:url(#XMLID_299_);fill:#F9F9F9;}
	.st32{fill:#50A6B1;}
	.st33{fill:#FFC3BD;}
	.st34{fill:#007CFF;}
	.st35{clip-path:url(#XMLID_300_);}
	.st36{fill:#1A2E35;}
	.st37{fill:#FF847F;}
	.st38{clip-path:url(#XMLID_301_);}
	.st39{clip-path:url(#XMLID_302_);}
	.st40{clip-path:url(#XMLID_303_);}
	.st41{fill:#1C2E35;}
	.st42{clip-path:url(#XMLID_304_);}
	.st43{fill:#ADC548;}
	.st44{fill:#D94D65;}
	.st45{fill:#375A64;}
	.st46{fill:#BE654E;}
	.st47{fill:#FFBE9C;}
	.st48{fill:#C68876;}
	.st49{clip-path:url(#XMLID_305_);fill:#FFFFFF;}
	.st50{clip-path:url(#XMLID_306_);fill:#FFFFFF;}
	.st51{clip-path:url(#XMLID_307_);fill:#FFFFFF;}
	.st52{fill:#F0B844;}
</style>
<g id="XMLID_277_">
	<rect id="XMLID_275_" x="1.9" y="583.7" class="st0" width="777.7" height="0.4"/>
	<rect id="XMLID_274_" x="650.1" y="608.7" class="st0" width="51.5" height="0.4"/>
	<rect id="XMLID_273_" x="503.5" y="612.9" class="st0" width="13.5" height="0.4"/>
	<rect id="XMLID_272_" x="618.7" y="594.3" class="st0" width="29.8" height="0.4"/>
	<rect id="XMLID_271_" x="83.4" y="596.9" class="st0" width="67.2" height="0.4"/>
	<rect id="XMLID_270_" x="164.5" y="596.9" class="st0" width="9.8" height="0.4"/>
	<rect id="XMLID_269_" x="206.3" y="603.5" class="st0" width="145.7" height="0.4"/>
	<g id="XMLID_538_">
		<path id="XMLID_617_" class="st0" d="M370.5,514.3H70.2c-4.9,0-8.9-4-8.9-8.9V83.3c0-4.9,4-8.9,8.9-8.9h300.3c4.9,0,8.9,4,8.9,8.9
			v422.2C379.4,510.3,375.4,514.3,370.5,514.3 M70.2,74.8c-4.7,0-8.5,3.8-8.5,8.5v422.2c0,4.7,3.8,8.5,8.5,8.5h300.3
			c4.7,0,8.5-3.8,8.5-8.5V83.3c0-4.7-3.8-8.5-8.5-8.5H70.2z"/>
		<path id="XMLID_614_" class="st0" d="M706.9,514.3H406.6c-4.9,0-8.9-4-8.9-8.9V83.3c0-4.9,4-8.9,8.9-8.9h300.3
			c4.9,0,8.9,4,8.9,8.9v422.2C715.8,510.3,711.8,514.3,706.9,514.3 M406.6,74.8c-4.7,0-8.5,3.8-8.5,8.5v422.2c0,4.7,3.8,8.5,8.5,8.5
			h300.3c4.7,0,8.5-3.8,8.5-8.5V83.3c0-4.7-3.8-8.5-8.5-8.5H406.6z"/>
		<rect id="XMLID_264_" x="127.4" y="119.2" class="st1" width="345.8" height="220.7"/>
		<rect id="XMLID_263_" x="131.4" y="119.2" class="st2" width="350.3" height="220.7"/>
		<rect id="XMLID_262_" x="127.4" y="339.9" class="st1" width="345.8" height="15.7"/>
		<path id="XMLID_261_" class="st2" d="M487.9,339.9H153.3c-4.3,0-7.9,3.5-7.9,7.9c0,4.3,3.5,7.9,7.9,7.9h334.6
			c4.3,0,7.9-3.5,7.9-7.9C495.8,343.5,492.3,339.9,487.9,339.9"/>
		<rect id="XMLID_260_" x="143.2" y="131.1" class="st3" width="326.6" height="197"/>
		<polygon id="XMLID_259_" class="st4" points="165.9,328.1 235.4,131.1 268.2,131.1 198.7,328.1 		"/>
		<path id="XMLID_258_" class="st2" d="M148.7,261.2c0.5,0,0.8-0.4,0.8-0.8V138.8c0-0.5-0.4-0.8-0.8-0.8s-0.8,0.4-0.8,0.8v121.6
			C147.8,260.9,148.2,261.2,148.7,261.2"/>
		<polygon id="XMLID_257_" class="st4" points="205.7,328.1 275.3,131.1 288.1,131.1 218.5,328.1 		"/>
		<polygon id="XMLID_256_" class="st4" points="276.1,328.1 345.7,131.1 378.5,131.1 309,328.1 		"/>
		<polygon id="XMLID_255_" class="st4" points="363.4,328.1 432.9,131.1 445.7,131.1 376.2,328.1 		"/>
		<rect id="XMLID_254_" x="468.3" y="131.1" class="st1" width="1.5" height="197"/>
		<g id="XMLID_599_" class="st5">
			<g id="XMLID_600_">
				<defs>
					<rect id="XMLID_252_" x="137.6" y="135.7" width="346.9" height="15"/>
				</defs>
				<clipPath id="XMLID_279_">
					<use xlink:href="#XMLID_252_"  style="overflow:visible;"/>
				</clipPath>
				<polygon id="XMLID_253_" class="st6" points="484.5,150.7 138.7,150.7 137.6,135.7 483.4,135.7 				"/>
			</g>
		</g>
		<g id="XMLID_595_" class="st5">
			<g id="XMLID_596_">
				<defs>
					<rect id="XMLID_250_" x="137.6" y="146.7" width="346.9" height="15"/>
				</defs>
				<clipPath id="XMLID_280_">
					<use xlink:href="#XMLID_250_"  style="overflow:visible;"/>
				</clipPath>
				<polygon id="XMLID_251_" class="st7" points="484.5,161.7 138.7,161.7 137.6,146.7 483.4,146.7 				"/>
			</g>
		</g>
		<g id="XMLID_591_" class="st5">
			<g id="XMLID_592_">
				<defs>
					<rect id="XMLID_248_" x="137.6" y="159.9" width="346.9" height="15"/>
				</defs>
				<clipPath id="XMLID_281_">
					<use xlink:href="#XMLID_248_"  style="overflow:visible;"/>
				</clipPath>
				<polygon id="XMLID_249_" class="st8" points="484.5,174.9 138.7,174.9 137.6,159.9 483.4,159.9 				"/>
			</g>
		</g>
		<g id="XMLID_587_" class="st5">
			<g id="XMLID_588_">
				<defs>
					<rect id="XMLID_246_" x="137.6" y="174.5" width="346.9" height="15"/>
				</defs>
				<clipPath id="XMLID_282_">
					<use xlink:href="#XMLID_246_"  style="overflow:visible;"/>
				</clipPath>
				<polygon id="XMLID_247_" class="st9" points="484.5,189.5 138.7,189.5 137.6,174.5 483.4,174.5 				"/>
			</g>
		</g>
		<g id="XMLID_583_" class="st5">
			<g id="XMLID_584_">
				<defs>
					<rect id="XMLID_244_" x="137.6" y="192.1" width="346.9" height="15"/>
				</defs>
				<clipPath id="XMLID_283_">
					<use xlink:href="#XMLID_244_"  style="overflow:visible;"/>
				</clipPath>
				<polygon id="XMLID_245_" class="st10" points="484.5,207.1 138.7,207.1 137.6,192.1 483.4,192.1 				"/>
			</g>
		</g>
		<g id="XMLID_579_" class="st5">
			<g id="XMLID_580_">
				<defs>
					<rect id="XMLID_242_" x="137.6" y="211.9" width="346.9" height="15"/>
				</defs>
				<clipPath id="XMLID_284_">
					<use xlink:href="#XMLID_242_"  style="overflow:visible;"/>
				</clipPath>
				<polygon id="XMLID_243_" class="st11" points="484.5,226.9 138.7,226.9 137.6,211.9 483.4,211.9 				"/>
			</g>
		</g>
		<rect id="XMLID_241_" x="644.8" y="401.5" class="st1" width="49.7" height="182.2"/>
		<polygon id="XMLID_240_" class="st2" points="685.7,583.7 694.4,583.7 694.4,558.9 676.6,558.9 		"/>
		<rect id="XMLID_239_" x="431.5" y="401.5" class="st1" width="49.7" height="182.2"/>
		<rect id="XMLID_238_" x="473.5" y="401.5" class="st2" width="220.9" height="167"/>
		<path id="XMLID_572_" class="st1" d="M664.8,455.5H503.2c-13.1,0-23.7-10.6-23.7-23.7c0-13.1,10.6-23.7,23.7-23.7h38.5
			c6.3,0,12.3,2.5,16.8,7c4.7,4.7,10.2,7.2,15.7,7.2h19.6c4.1,0,8-1.3,11.8-3.9c1.3-0.9,2.6-2,3.8-3.1c4.7-4.6,10.7-7.2,17-7.2h38.5
			c13.1,0,23.7,10.6,23.7,23.7v0C688.5,444.9,677.9,455.5,664.8,455.5 M503.2,409.7c-12.2,0-22.1,9.9-22.1,22.1
			c0,12.2,9.9,22.1,22.1,22.1h161.6c12.2,0,22.1-9.9,22.1-22.1v0c0-12.2-9.9-22.1-22.1-22.1h-38.5c-5.8,0-11.4,2.4-15.8,6.7
			c-1.3,1.3-2.6,2.4-4,3.3c-4,2.8-8.3,4.2-12.7,4.2h-19.6c-6,0-11.8-2.7-16.9-7.7c-4.2-4.2-9.7-6.5-15.6-6.5H503.2z"/>
		<polygon id="XMLID_235_" class="st2" points="482.2,583.7 473.5,583.7 473.5,558.9 491.4,558.9 		"/>
		<path id="XMLID_568_" class="st1" d="M664.8,508.7H503.2c-13.1,0-23.7-10.6-23.7-23.7c0-13.1,10.6-23.7,23.7-23.7h38.5
			c6.3,0,12.3,2.5,16.8,7c4.7,4.7,10.2,7.2,15.7,7.2h19.6c4.1,0,8-1.3,11.8-3.9c1.3-0.9,2.5-2,3.7-3.1c4.7-4.6,10.7-7.2,17-7.2h38.5
			c13.1,0,23.7,10.6,23.7,23.7v0C688.5,498.1,677.9,508.7,664.8,508.7 M503.2,462.9c-12.2,0-22.1,9.9-22.1,22.1
			c0,12.2,9.9,22.1,22.1,22.1h161.6c12.2,0,22.1-9.9,22.1-22.1v0c0-12.2-9.9-22.1-22.1-22.1h-38.5c-5.8,0-11.4,2.4-15.8,6.7
			c-1.3,1.2-2.6,2.4-4,3.3c-4,2.8-8.3,4.2-12.7,4.2h-19.6c-6,0-11.8-2.7-16.9-7.7c-4.2-4.2-9.7-6.5-15.6-6.5H503.2z"/>
		<path id="XMLID_565_" class="st1" d="M664.8,561.9H503.2c-13.1,0-23.7-10.6-23.7-23.7c0-13.1,10.6-23.7,23.7-23.7h38.5
			c6.3,0,12.3,2.5,16.8,7c4.7,4.7,10.2,7.2,15.7,7.2h19.6c4.1,0,8-1.3,11.8-3.9c1.3-0.9,2.6-2,3.8-3.1c4.7-4.6,10.7-7.2,17-7.2h38.5
			c13.1,0,23.7,10.6,23.7,23.7C688.5,551.2,677.9,561.9,664.8,561.9 M503.2,516.1c-12.2,0-22.1,9.9-22.1,22.1
			c0,12.2,9.9,22.1,22.1,22.1h161.6c12.2,0,22.1-9.9,22.1-22.1c0-12.2-9.9-22.1-22.1-22.1h-38.5c-5.8,0-11.4,2.4-15.8,6.7
			c-1.3,1.2-2.6,2.4-4,3.3c-4,2.8-8.3,4.2-12.7,4.2h-19.6c-6,0-11.8-2.7-16.9-7.7c-4.2-4.2-9.7-6.5-15.6-6.5H503.2z"/>
		<rect id="XMLID_230_" x="541" y="154.2" class="st1" width="118.7" height="158.8"/>
		<rect id="XMLID_229_" x="543.2" y="154.2" class="st2" width="124.8" height="158.8"/>
		<path id="XMLID_228_" class="st1" d="M553.7,294.8V172.4c0-4.3,3.5-7.8,7.8-7.8h88.4c4.3,0,7.8,3.5,7.8,7.8v122.4
			c0,4.3-3.5,7.8-7.8,7.8h-88.4C557.1,302.5,553.7,299,553.7,294.8"/>
		<path id="XMLID_227_" class="st4" d="M553.7,294.8V172.4c0-4.3,3.5-7.8,7.8-7.8H648c4.3,0,7.8,3.5,7.8,7.8v122.4
			c0,4.3-3.5,7.8-7.8,7.8h-86.5C557.1,302.5,553.7,299,553.7,294.8"/>
		<path id="XMLID_557_" class="st2" d="M623.2,211.1l-17.8-24.6c-0.4-0.5-1-0.5-1.3,0l-17.8,24.6c-9,12.4-9,32.6,0,45l17.8,24.6
			c0.4,0.5,1,0.5,1.3,0l17.8-24.6C632.1,243.7,632.1,223.5,623.2,211.1 M587.6,212.9v41.3C579.3,242.8,579.3,224.3,587.6,212.9
			 M621.8,212.9c8.2,11.4,8.2,29.9,0,41.3V212.9z"/>
		<polygon id="XMLID_223_" class="st2" points="242.9,398.9 109.4,398.9 117.7,583.7 251.2,583.7 		"/>
		<polygon id="XMLID_222_" class="st12" points="244.8,398.9 111.3,398.9 119.7,583.7 253.1,583.7 		"/>
		<rect id="XMLID_221_" x="175.1" y="524.7" class="st2" width="49.3" height="59"/>
		<rect id="XMLID_220_" x="224.3" y="524.7" class="st12" width="180" height="59"/>
		<g id="XMLID_549_" class="st13">
			<g id="XMLID_550_">
				<defs>
					<rect id="XMLID_218_" x="175.1" y="532.2" width="229.8" height="4"/>
				</defs>
				<clipPath id="XMLID_285_">
					<use xlink:href="#XMLID_218_"  style="overflow:visible;"/>
				</clipPath>
				<rect id="XMLID_219_" x="175.1" y="532.2" class="st14" width="229.8" height="4"/>
			</g>
		</g>
		<rect id="XMLID_217_" x="172.4" y="522.2" class="st2" width="52" height="11.7"/>
		<rect id="XMLID_216_" x="224.3" y="522.2" class="st12" width="182.7" height="11.7"/>
		<rect id="XMLID_215_" x="191.4" y="460.4" class="st1" width="74.8" height="61.8"/>
		<rect id="XMLID_214_" x="266.3" y="460.4" class="st2" width="91.4" height="61.8"/>
		<g id="XMLID_541_" class="st13">
			<g id="XMLID_542_">
				<defs>
					<rect id="XMLID_212_" x="191.4" y="471.9" width="167" height="6.2"/>
				</defs>
				<clipPath id="XMLID_286_">
					<use xlink:href="#XMLID_212_"  style="overflow:visible;"/>
				</clipPath>
				<rect id="XMLID_213_" x="191.4" y="471.9" class="st15" width="167" height="6.2"/>
			</g>
		</g>
		<rect id="XMLID_211_" x="187.3" y="446.2" class="st1" width="79" height="28.3"/>
		<rect id="XMLID_210_" x="266.3" y="446.2" class="st2" width="95.6" height="28.3"/>
	</g>
	<g id="XMLID_536_">
		<path id="XMLID_209_" class="st12" d="M692.2,636.3c0,9.7-135,17.6-301.6,17.6S89.1,646,89.1,636.3c0-9.7,135-17.6,301.6-17.6
			S692.2,626.6,692.2,636.3"/>
	</g>
	<g id="XMLID_435_">
		<g id="XMLID_532_" class="st16">
			<g id="XMLID_533_">
				<defs>
					<rect id="XMLID_207_" x="156.2" y="234.4" width="4.2" height="14.6"/>
				</defs>
				<clipPath id="XMLID_287_">
					<use xlink:href="#XMLID_207_"  style="overflow:visible;"/>
				</clipPath>
				<path id="XMLID_208_" class="st17" d="M158.7,249c-0.9-4.8-1.7-9.5-2.6-14.3l1.6-0.3c0.9,4.7,1.7,9.5,2.6,14.3L158.7,249z"/>
			</g>
		</g>
		<g id="XMLID_528_" class="st16">
			<g id="XMLID_529_">
				<defs>
					<rect id="XMLID_205_" x="159.9" y="254.9" width="3.1" height="8.6"/>
				</defs>
				<clipPath id="XMLID_288_">
					<use xlink:href="#XMLID_205_"  style="overflow:visible;"/>
				</clipPath>
				
					<rect id="XMLID_206_" x="157.2" y="258.4" transform="matrix(0.1801 0.9837 -0.9837 0.1801 387.3428 53.7441)" class="st18" width="8.5" height="1.6"/>
			</g>
		</g>
		<path id="XMLID_204_" class="st19" d="M586.6,426.3c-130.5,1.1-260.9,2.2-391.4,3.3c-14.9-76.7-21.9-146.2-34.7-223.1
			c131.1,3.5,255.2-0.3,386.3,3.2C559.1,282,572.3,354.2,586.6,426.3"/>
		<path id="XMLID_524_" class="st3" d="M197.4,427.2c-0.2,0-0.4-0.1-0.4-0.3c-8.5-43.8-14.5-86.3-20.2-127.4
			c-4.1-29.1-8.3-59.2-13.4-90c0-0.1,0-0.2,0.1-0.3c0.1-0.1,0.2-0.1,0.3-0.1h0l380.7,3c0.2,0,0.4,0.1,0.4,0.3
			c11.9,70.1,25,141.1,38.8,211.1c0,0.1,0,0.2-0.1,0.3c-0.1,0.1-0.2,0.2-0.3,0.2L197.4,427.2L197.4,427.2z M164.3,209.8
			c5.1,30.6,9.3,60.6,13.3,89.6c5.7,41,11.7,83.4,20.1,127l385-3.2C569,353.4,556,282.7,544.1,212.8L164.3,209.8z"/>
		<g id="XMLID_520_" class="st20">
			<g id="XMLID_521_">
				<defs>
					<rect id="XMLID_200_" x="441.1" y="237.2" width="119.6" height="158"/>
				</defs>
				<clipPath id="XMLID_289_">
					<use xlink:href="#XMLID_200_"  style="overflow:visible;"/>
				</clipPath>
				<path id="XMLID_201_" class="st21" d="M471.5,395.3c-10.7-52.6-20.8-105.3-30.4-158c29.8,0.4,59.7,0.7,89.5,1.1
					c9.5,52,19.5,103.9,30.1,155.8C530.9,394.5,501.2,394.9,471.5,395.3"/>
			</g>
		</g>
		
			<rect id="XMLID_199_" x="454.6" y="248.2" transform="matrix(0.9999 1.076265e-002 -1.076265e-002 0.9999 2.7069 -5.0632)" class="st3" width="34.4" height="1.6"/>
		
			<rect id="XMLID_198_" x="455.4" y="252.5" transform="matrix(0.9999 1.008381e-002 -1.008381e-002 0.9999 2.5781 -4.7122)" class="st3" width="26.4" height="1.6"/>
		<g id="XMLID_514_" class="st13">
			<g id="XMLID_515_">
				<defs>
					<rect id="XMLID_196_" x="513.4" y="247.2" width="8.3" height="9.1"/>
				</defs>
				<clipPath id="XMLID_290_">
					<use xlink:href="#XMLID_196_"  style="overflow:visible;"/>
				</clipPath>
				<path id="XMLID_197_" class="st22" d="M513.5,251.7c-0.5-2.5,1-4.5,3.2-4.5c2.2,0,4.4,2.1,4.9,4.6c0.5,2.5-1,4.5-3.2,4.5
					C516.1,256.3,513.9,254.2,513.5,251.7"/>
			</g>
		</g>
		<path id="XMLID_195_" class="st19" d="M511.8,251.7c-0.7-3.6,1.4-6.4,4.6-6.4c3.2,0,6.3,3,6.9,6.5c0.7,3.6-1.4,6.4-4.6,6.4
			C515.5,258.2,512.4,255.2,511.8,251.7"/>
		<path id="XMLID_194_" class="st19" d="M463.6,296.5c-2.2-11.4-4.3-22.8-6.4-34.1c22.1,0.2,44.3,0.4,66.4,0.6
			c2.1,11.3,4.2,22.5,6.4,33.8C507.9,296.7,485.7,296.6,463.6,296.5"/>
		<path id="XMLID_509_" class="st3" d="M520.9,265.1c0.7,0,1.3,0.6,1.5,1.4c1.7,8.9,3.3,17.9,5,26.8c0.1,0.3,0,0.7-0.2,0.9
			c-0.2,0.2-0.4,0.4-0.7,0.4c-20.1-0.1-40.1-0.1-60.2-0.2c-0.7,0-1.3-0.6-1.5-1.4c-1.7-9-3.4-18-5.1-27c-0.1-0.3,0-0.7,0.2-0.9
			c0.2-0.2,0.4-0.4,0.7-0.4C480.7,264.8,500.8,265,520.9,265.1 M520.8,264.4c-20.1-0.2-40.1-0.3-60.2-0.5c-1,0-1.6,0.9-1.4,2
			c1.7,9,3.4,18,5.1,27c0.2,1.1,1.2,2,2.2,2c20.1,0.1,40.1,0.1,60.2,0.2c1,0,1.6-0.9,1.4-2c-1.7-8.9-3.4-17.8-5-26.8
			C522.7,265.3,521.8,264.4,520.8,264.4L520.8,264.4"/>
		<g id="XMLID_505_" class="st23">
			<g id="XMLID_506_">
				<defs>
					<rect id="XMLID_190_" x="485.9" y="277.1" width="11.2" height="12.3"/>
				</defs>
				<clipPath id="XMLID_291_">
					<use xlink:href="#XMLID_190_"  style="overflow:visible;"/>
				</clipPath>
				<path id="XMLID_191_" class="st24" d="M486,283.2c-0.6-3.4,1.3-6.1,4.3-6.1c3,0,6,2.8,6.6,6.2c0.6,3.4-1.3,6.1-4.3,6.1
					C489.6,289.4,486.7,286.6,486,283.2"/>
			</g>
		</g>
		<g id="XMLID_501_" class="st23">
			<g id="XMLID_502_">
				<defs>
					<rect id="XMLID_188_" x="469.2" y="270.2" width="11.2" height="12.3"/>
				</defs>
				<clipPath id="XMLID_292_">
					<use xlink:href="#XMLID_188_"  style="overflow:visible;"/>
				</clipPath>
				<path id="XMLID_189_" class="st25" d="M469.3,276.3c-0.6-3.4,1.3-6.2,4.3-6.1c3,0,6,2.8,6.6,6.2c0.6,3.4-1.3,6.1-4.3,6.1
					C472.9,282.5,470,279.7,469.3,276.3"/>
			</g>
		</g>
		<g id="XMLID_497_" class="st23">
			<g id="XMLID_498_">
				<defs>
					<rect id="XMLID_186_" x="497.8" y="269.1" width="11.2" height="12.3"/>
				</defs>
				<clipPath id="XMLID_295_">
					<use xlink:href="#XMLID_186_"  style="overflow:visible;"/>
				</clipPath>
				<path id="XMLID_187_" class="st26" d="M498,275.2c-0.6-3.4,1.3-6.1,4.3-6.1c3,0,6,2.8,6.6,6.2c0.6,3.4-1.3,6.1-4.3,6.1
					C501.6,281.4,498.6,278.6,498,275.2"/>
			</g>
		</g>
		<path id="XMLID_185_" class="st19" d="M479.7,379c-3.9-19.2-7.6-38.5-11.4-57.7c22.1,0,44.2,0,66.4-0.1c3.7,19,7.4,38.1,11.3,57.1
			C523.9,378.6,501.8,378.8,479.7,379"/>
		<g id="XMLID_492_" class="st27">
			<g id="XMLID_493_">
				<defs>
					<rect id="XMLID_183_" x="475.9" y="335" width="58.4" height="10.2"/>
				</defs>
				<clipPath id="XMLID_296_">
					<use xlink:href="#XMLID_183_"  style="overflow:visible;"/>
				</clipPath>
				<path id="XMLID_184_" class="st28" d="M477.9,345.1c-0.7-3.3-1.3-6.7-2-10c18.8-0.1,37.7-0.1,56.5-0.2c0.6,3.3,1.3,6.6,1.9,9.9
					C515.6,345,496.7,345.1,477.9,345.1"/>
			</g>
		</g>
		<g id="XMLID_488_" class="st27">
			<g id="XMLID_489_">
				<defs>
					<rect id="XMLID_181_" x="481.4" y="362.6" width="58.4" height="10.4"/>
				</defs>
				<clipPath id="XMLID_297_">
					<use xlink:href="#XMLID_181_"  style="overflow:visible;"/>
				</clipPath>
				<path id="XMLID_182_" class="st29" d="M483.4,373c-0.7-3.3-1.3-6.7-2-10c18.8-0.1,37.6-0.3,56.5-0.4c0.7,3.3,1.3,6.6,2,9.9
					C521,372.6,502.2,372.8,483.4,373"/>
			</g>
		</g>
		<g id="XMLID_484_" class="st27">
			<g id="XMLID_485_">
				<defs>
					<rect id="XMLID_179_" x="478.7" y="348.8" width="58.5" height="10.3"/>
				</defs>
				<clipPath id="XMLID_298_">
					<use xlink:href="#XMLID_179_"  style="overflow:visible;"/>
				</clipPath>
				<path id="XMLID_180_" class="st30" d="M480.6,359.1c-0.7-3.3-1.3-6.7-2-10c18.8-0.1,37.7-0.2,56.5-0.3c0.7,3.3,1.3,6.6,2,9.9
					C518.3,358.8,499.5,358.9,480.6,359.1"/>
			</g>
		</g>
		
			<rect id="XMLID_178_" x="465" y="303.3" transform="matrix(1 1.969383e-003 -1.969383e-003 1 0.5999 -0.9595)" class="st3" width="45" height="1.6"/>
		<rect id="XMLID_177_" x="466.2" y="309.7" class="st3" width="35.4" height="1.6"/>
		<path id="XMLID_479_" class="st3" d="M342.9,397.7l-0.1-0.7c-10.8-53.4-21.1-107.7-30.8-161.3l-0.2-1l91.2,1.1l0.1,0.7
			c9.6,52.8,19.9,106.3,30.5,159l0.2,1L342.9,397.7z M313.7,236.5c9.6,53.1,19.9,106.7,30.5,159.6l87.5-1.1
			c-10.5-52.2-20.7-105.1-30.2-157.4L313.7,236.5z"/>
		
			<rect id="XMLID_174_" x="325.8" y="244.3" transform="matrix(0.9999 1.112651e-002 -1.112651e-002 0.9999 2.7485 -3.7082)" class="st3" width="17.8" height="1.6"/>
		
			<rect id="XMLID_173_" x="326.6" y="248.7" transform="matrix(0.9999 1.039395e-002 -1.039395e-002 0.9999 2.6112 -3.4515)" class="st3" width="13.6" height="1.6"/>
		<path id="XMLID_474_" class="st3" d="M390.1,255.9C390.1,255.9,390.1,255.9,390.1,255.9c-2.7,0-5.2-2.4-5.7-5.4
			c-0.3-1.6,0.1-3.1,1-4.2c0.8-0.9,1.9-1.4,3.1-1.4c2.6,0,5.1,2.4,5.7,5.4c0.3,1.6-0.1,3.1-0.9,4.2
			C392.4,255.4,391.3,255.9,390.1,255.9 M386,250.2c0.4,2.2,2.3,4,4.1,4c0,0,0,0,0,0c0.7,0,1.3-0.3,1.8-0.8c0.6-0.7,0.8-1.7,0.6-2.8
			c-0.4-2.2-2.3-4-4.1-4c-0.7,0-1.3,0.3-1.8,0.8C386,248.1,385.8,249.1,386,250.2z"/>
		<path id="XMLID_471_" class="st3" d="M402.8,297.2l-68.1-0.2l-0.1-0.7c-2.2-11.6-4.4-23.2-6.5-34.8l-0.2-1l68.1,0.6l0.1,0.7
			c2.1,11.5,4.3,23,6.4,34.5L402.8,297.2z M336.1,295.3l64.7,0.2c-2.1-10.9-4.1-21.9-6.1-32.8l-64.8-0.6
			C331.9,273.2,334,284.3,336.1,295.3"/>
		<path id="XMLID_168_" class="st3" d="M335.8,296.8l-0.8-1.4c19.8-11.5,40-23,60-34.3l0.8,1.4C375.8,273.9,355.6,285.4,335.8,296.8
			"/>
		<path id="XMLID_167_" class="st3" d="M401.5,297.1c-24.2-11.5-48.8-23.3-72.9-35l0.7-1.5c24.1,11.7,48.7,23.5,72.9,35L401.5,297.1
			z"/>
		<path id="XMLID_466_" class="st3" d="M351.1,381.1l-0.1-0.7c-3.9-19.5-7.8-39.3-11.5-58.9l-0.2-1l68-0.1l0.1,0.7
			c3.7,19.4,7.6,39,11.4,58.3l0.2,1L351.1,381.1z M341.2,322.2c3.7,19,7.4,38.3,11.2,57.2l64.6-0.6c-3.7-18.7-7.5-37.8-11.1-56.6
			L341.2,322.2z"/>
		<path id="XMLID_164_" class="st3" d="M352.3,380.8l-1.2-1.1c18-19.7,36.5-39.5,54.8-58.9l1.2,1.1
			C388.8,341.4,370.4,361.2,352.3,380.8"/>
		<path id="XMLID_163_" class="st3" d="M417.5,380.3c-25.9-19.1-52.1-38.7-77.8-58.2l1-1.3c25.7,19.5,51.9,39.1,77.8,58.2
			L417.5,380.3z"/>
		
			<rect id="XMLID_162_" x="336.9" y="303.1" transform="matrix(1 1.935628e-003 -1.935628e-003 1 0.5889 -0.695)" class="st3" width="45" height="1.6"/>
		<rect id="XMLID_161_" x="338.1" y="309.6" class="st3" width="35.4" height="1.6"/>
		<g id="XMLID_442_" class="st16">
			<g id="XMLID_443_">
				<defs>
					<rect id="XMLID_143_" x="184" y="231.3" width="124.4" height="167.5"/>
				</defs>
				<clipPath id="XMLID_299_">
					<use xlink:href="#XMLID_143_"  style="overflow:visible;"/>
				</clipPath>
				<path id="XMLID_160_" class="st31" d="M185.2,233.2c7.9,43.1,16.2,86.1,24.8,129.2c2.4,11.8,4.8,23.6,7.2,35.4
					c0.3,1.4,2.1,1.4,1.9,0c-8.8-43-17.3-86-25.4-129c-2.2-11.8-4.4-23.6-6.6-35.4C186.8,231.8,184.9,231.8,185.2,233.2"/>
				<path id="XMLID_159_" class="st31" d="M214.8,395.7c24.1-0.4,48.3-0.6,72.4-0.6c6.8,0,13.6,0,20.5,0c1.2,0,0.9-2.2-0.3-2.2
					c-24.2-0.1-48.4,0-72.5,0.3c-6.8,0.1-13.6,0.2-20.4,0.3C213.2,393.6,213.6,395.8,214.8,395.7L214.8,395.7"/>
				<path id="XMLID_158_" class="st31" d="M307.2,394.6c-8.7-42.4-17.1-84.8-25.1-127.3c-2.2-11.7-4.4-23.3-6.5-35
					c-0.3-1.4-2.1-1.4-1.9,0c7.9,42.5,16,85,24.6,127.4c2.3,11.6,4.7,23.3,7.1,34.9C305.6,396,307.5,396,307.2,394.6"/>
				<path id="XMLID_157_" class="st31" d="M278,234.3c-24.2-0.2-48.4-0.6-72.7-1.2c-6.8-0.2-13.7-0.3-20.5-0.5
					c-1.2,0-0.9,2.2,0.3,2.2c24.3,0.7,48.5,1.2,72.7,1.5c6.8,0.1,13.7,0.1,20.5,0.2C279.4,236.5,279.2,234.4,278,234.3"/>
				<path id="XMLID_156_" class="st31" d="M211.5,309.3c14.2-0.3,28.4-0.6,42.5-0.9c3.8-0.1,7.5-0.2,11.3-0.2c1.2,0,0.9-2.2-0.3-2.2
					c-14.6,0.3-29.2,0.6-43.8,1c-3.3,0.1-6.7,0.1-10,0.2C210,307.2,210.3,309.4,211.5,309.3"/>
				<path id="XMLID_155_" class="st31" d="M200,248.8c8.1-0.1,16.3-0.2,24.4-0.3c1.2,0,0.9-2.2-0.3-2.2c-8.1,0.1-16.3,0.2-24.4,0.3
					C198.5,246.7,198.8,248.9,200,248.8"/>
				<path id="XMLID_154_" class="st31" d="M225.8,383.7c19,0.4,37.8-1.1,56.7-1.5c4.6-0.1,9.2-0.2,13.9-0.1c1.2,0,0.9-2.1-0.3-2.2
					c-19-0.4-37.8,1.1-56.8,1.5c-4.6,0.1-9.2,0.2-13.9,0.1C224.3,381.5,224.6,383.7,225.8,383.7L225.8,383.7"/>
				<path id="XMLID_153_" class="st31" d="M214.8,326.5c22.9-0.6,45.9-1,68.8-1.7c-0.4-0.4-0.7-0.7-1.1-1.1
					c3.9,19.2,8,38.5,11.5,57.7c0.3,1.4,2.1,1.4,1.9,0c-3.5-19.2-7.6-38.5-11.5-57.7c-0.1-0.6-0.6-1.1-1.1-1.1
					c-22.9,0.7-45.9,1.1-68.8,1.7C213.3,324.3,213.6,326.5,214.8,326.5"/>
				<path id="XMLID_152_" class="st31" d="M226.3,383.6c15.2-15.3,30-31.1,45.1-46.4c4.2-4.2,8.4-8.4,12.6-12.5
					c0.8-0.8-0.3-2.7-1.2-1.9c-15.6,15-30.5,30.9-45.6,46.5c-4,4.2-8.1,8.3-12.1,12.4C224.2,382.5,225.4,384.4,226.3,383.6"/>
				<path id="XMLID_151_" class="st31" d="M295.5,381.6c-21.5-14.1-42.3-30-63.5-45.1c-5.8-4.1-11.5-8.1-17.4-12
					c-1.1-0.8-1.8,1.2-0.7,1.9c21.7,14.5,42.6,30.5,64,45.6c5.6,3.9,11.2,7.8,16.9,11.5C295.9,384.2,296.6,382.3,295.5,381.6"/>
				<path id="XMLID_150_" class="st31" d="M213.7,323.3c3.3,19.8,6.8,39.6,11,59.3c0.3,1.4,2.2,1.4,1.9,0
					c-4.2-19.7-7.7-39.5-11-59.3C215.4,321.9,213.5,321.9,213.7,323.3"/>
				<path id="XMLID_149_" class="st31" d="M209,298.5c19,0.2,37.9-0.7,56.8-0.9c4.6-0.1,9.2-0.1,13.9,0c1.2,0,0.9-2.2-0.3-2.2
					c-19-0.3-37.9,0.6-56.8,0.9c-4.6,0.1-9.2,0.1-13.9,0C207.5,296.3,207.8,298.5,209,298.5L209,298.5"/>
				<path id="XMLID_148_" class="st31" d="M202.7,263.2c23-0.4,45.9-0.6,68.9-1c-0.4-0.4-0.7-0.7-1.1-1.1
					c2.3,11.9,4.9,23.8,6.8,35.6c0.2,1.4,2.1,1.4,1.9,0c-1.9-11.9-4.5-23.8-6.8-35.6c-0.1-0.6-0.5-1.1-1.1-1.1
					c-22.9,0.4-45.9,0.7-68.9,1C201.2,261,201.5,263.2,202.7,263.2L202.7,263.2"/>
				<path id="XMLID_147_" class="st31" d="M209.4,298.4c16.4-9.4,32.6-19.2,48.9-28.7c4.5-2.6,9.1-5.2,13.6-7.7
					c1-0.6-0.2-2.5-1.2-1.9c-16.7,9.2-33,19.1-49.4,28.7c-4.4,2.6-8.7,5.1-13.1,7.6C207.2,297.1,208.4,299,209.4,298.4"/>
				<path id="XMLID_146_" class="st31" d="M278.4,296.3c-20-8.6-39.8-18.6-59.7-27.8c-5.5-2.5-10.9-5.1-16.4-7.5
					c-1.2-0.5-1.4,1.6-0.2,2.1c20.2,8.8,40.1,18.9,60.2,28.1c5.3,2.4,10.6,4.9,16,7.1C279.4,298.9,279.6,296.8,278.4,296.3"/>
				<path id="XMLID_145_" class="st31" d="M201.8,260.8c1.7,12.2,3.6,24.5,6.1,36.6c0.3,1.4,2.2,1.4,1.9,0
					c-2.6-12.2-4.4-24.4-6.1-36.6C203.4,259.4,201.6,259.4,201.8,260.8"/>
				<path id="XMLID_144_" class="st31" d="M261.9,241.2c-2,0-3.7,1.6-3.9,3.9c-0.2,2.4,1,5.1,2.9,6.6c1.8,1.4,4.2,1.2,5.6-0.1
					c1.4-1.2,2.2-3.3,1.9-5.5c-0.3-1.5-1.1-2.6-2.3-3.4c-1.1-0.7-2.5-1.4-3.6-1c-0.5,0.2-0.7,0.7-0.5,1.3c0.2,0.5,0.8,1,1.3,0.8
					c0.5-0.2,1.4,0.3,1.9,0.7c0.6,0.3,1.1,0.7,1.2,1.4c0.4,1.4-0.2,2.8-1,3.7c-0.8,0.8-2.2,1.3-3.4,0.6c-1.3-0.7-2.2-2.5-2.3-4
					c-0.1-1.6,0.9-2.9,2.3-2.9C263.4,243.4,263.1,241.2,261.9,241.2"/>
			</g>
		</g>
		<path id="XMLID_142_" class="st3" d="M309.9,218.1c-5.8-0.1-10.3,4.9-10.4,11.5c-0.1,6.8,3.9,14.8,9.8,18c5.7,3.1,12,1,15.5-3.5
			c3.3-4.1,5.1-11.9,1.5-17.7c-4.4-6.9-13-7.5-18-4c-1,0.7,0.2,2.6,1.2,1.9c3.7-2.7,10.3-2.9,14.2,1.6c4,4.5,3,11.4,0.4,15.4
			c-2.6,4-7.2,6.4-12,5.2c-5.4-1.4-9.7-8-10.5-13.9c-1-6.7,2.7-12.5,8.6-12.4C311.4,220.2,311.1,218.1,309.9,218.1L309.9,218.1"/>
		<path id="XMLID_141_" class="st3" d="M398.1,351.9c6.2,10.1,17.8,14.7,26.7,10.9c9.2-3.9,15.5-15.8,13.2-27.8
			c-2.2-11.6-12.1-21-21.9-24.4c-9.1-3.1-21.3-1.6-24.8,8.3c-4.1,11.5,4.5,26.6,14.5,32.9c1.1,0.7,1.8-1.1,0.7-1.9
			c-4.3-2.7-7.8-6.5-10.4-11.2c-2.5-4.5-4.4-9.8-3.9-14.6c1-11.1,12-14.3,21-12.2c8.9,2,17.8,9,21.7,18.8
			c4.5,11.1-0.2,23.3-7.9,28.5c-8.4,5.7-20.7,2.4-27.3-8.4C398.8,349.6,397.4,350.7,398.1,351.9"/>
		<path id="XMLID_140_" class="st3" d="M296.5,306.2c3.9-0.7,8-1,12.1-0.7c1.2,0.1,0.9-2.1-0.3-2.2c-4.3-0.3-8.5,0-12.6,0.8
			c-0.5,0.1-0.7,0.8-0.5,1.3C295.5,306,296,306.3,296.5,306.2"/>
		<path id="XMLID_139_" class="st3" d="M305.3,299.8c4.7,1.8,9.3,3.9,13.9,6.3c-0.1-0.6-0.2-1.2-0.3-1.9c-2.9,1.6-5.8,3.1-8.7,4.7
			c-0.4,0.2-0.4,1-0.1,1.5c0.3,0.6,0.9,0.6,1.3,0.4c2.9-1.6,5.8-3.1,8.7-4.7c0.6-0.3,0.4-1.5-0.3-1.9c-4.7-2.5-9.5-4.7-14.3-6.6
			C304.3,297.2,304.1,299.3,305.3,299.8L305.3,299.8"/>
		<path id="XMLID_138_" class="st3" d="M423.2,306.4c3.9-0.7,8-1,12.1-0.7c1.2,0.1,0.9-2.1-0.3-2.1c-4.3-0.3-8.5,0-12.6,0.8
			c-0.5,0.1-0.7,0.8-0.5,1.3C422.2,306.2,422.7,306.5,423.2,306.4"/>
		<path id="XMLID_137_" class="st3" d="M432,300.1c4.7,1.8,9.3,3.9,13.8,6.2c-0.1-0.6-0.2-1.2-0.3-1.8c-2.9,1.5-5.8,3.1-8.8,4.6
			c-0.4,0.2-0.4,1-0.1,1.5c0.3,0.5,0.9,0.6,1.3,0.4c2.9-1.5,5.8-3.1,8.8-4.6c0.6-0.3,0.4-1.5-0.3-1.8c-4.7-2.4-9.5-4.6-14.3-6.4
			C431,297.6,430.8,299.6,432,300.1"/>
	</g>
	<g id="XMLID_278_">
		<path id="XMLID_432_" class="st32" d="M673.2,592.6c0.1,0,0.3,0.1,0.5,0.1c1.6-0.1,3.4-2.5,4.4-4c0.1-0.1,0.1-0.2,0-0.3
			c-0.1-0.1-0.2-0.1-0.3-0.1c-0.5,0.1-5.1,1.1-5.7,2.7c-0.1,0.3-0.1,0.7,0.2,1C672.5,592.3,672.8,592.5,673.2,592.6 M677.1,589
			c-1.3,1.9-2.6,3.1-3.5,3.1c-0.4,0-0.7-0.2-0.9-0.5c-0.1-0.2-0.1-0.3-0.1-0.4C672.9,590.3,675.3,589.5,677.1,589"/>
		<path id="XMLID_429_" class="st32" d="M673.8,588.7c1.4,0.4,3.2,0.4,4,0.1c0.1,0,0.2-0.1,0.2-0.2c0-0.1,0-0.2-0.1-0.3
			c-0.1-0.1-2.6-2.7-4.5-2.6c-0.5,0-0.9,0.2-1.2,0.6c-0.5,0.6-0.3,1.1-0.1,1.3C672.4,588.2,673.1,588.5,673.8,588.7 M677.1,588.3
			c-1.5,0.2-4-0.2-4.5-1c-0.1-0.1-0.1-0.3,0.1-0.6c0.2-0.3,0.5-0.4,0.8-0.4C674.6,586.3,676.3,587.5,677.1,588.3"/>
		<path id="XMLID_426_" class="st32" d="M600.1,624c1.4,0,2.9-0.2,4-0.5c0.1,0,0.2-0.1,0.2-0.3c0-0.1,0-0.3-0.2-0.3
			c-0.6-0.3-5.8-2.9-7.3-2c-0.3,0.2-0.5,0.4-0.5,0.8c0,0.6,0.2,1.1,0.6,1.5C597.7,623.8,598.9,624,600.1,624 M603.2,623.1
			c-2.8,0.5-4.9,0.3-5.7-0.4c-0.3-0.2-0.4-0.6-0.4-1c0-0.2,0.1-0.3,0.2-0.3C598.1,621,601,622.1,603.2,623.1"/>
		<path id="XMLID_423_" class="st32" d="M604.1,623.6c0.1,0,0.1,0,0.2-0.1c0.1-0.1,0.1-0.2,0.1-0.3c0-0.2-0.6-5.8-3.7-5.4
			c-0.8,0.1-1.1,0.5-1.1,0.8c-0.2,1.4,2.9,4.2,4.4,4.9C604,623.5,604.1,623.6,604.1,623.6 M600.9,618.4c1.8,0,2.6,3,2.8,4.3
			c-1.6-1-3.7-3.1-3.6-4c0-0.1,0-0.3,0.6-0.3C600.8,618.4,600.9,618.4,600.9,618.4"/>
		<path id="XMLID_128_" class="st33" d="M648,266.9c1.1,1.5,1.9,2.8,2.8,4.2c0.9,1.4,1.7,2.8,2.5,4.2c1.6,2.8,3.1,5.7,4.5,8.6
			c2.8,5.8,5.3,11.8,7.4,17.9c0.5,1.5,1,3.1,1.5,4.6l0.2,0.6c0.1,0.3,0.2,0.6,0.2,0.9c0.1,0.6,0.3,1.3,0.3,2c0.1,1.4,0,3-0.5,4.5
			c-1,3.1-3.2,5.2-5.1,6.4c-1.9,1.3-3.8,2-5.6,2.5c-3.6,1-7,1.4-10.3,1.5c-1.7,0.1-3.3,0-4.9,0c-1.7-0.1-3.2-0.2-4.9-0.4l0.1-6.5
			c2.9-0.4,5.9-1,8.7-1.6c2.8-0.7,5.6-1.5,7.9-2.5c1.1-0.5,2.1-1.1,2.7-1.7c0.6-0.6,0.6-0.9,0.5-0.9c-0.1,0-0.1,0-0.1-0.1l-0.4-0.9
			c-0.6-1.4-1.1-2.8-1.7-4.2c-2.3-5.5-4.9-11-7.6-16.3c-1.4-2.7-2.9-5.2-4.4-7.8c-0.7-1.3-1.5-2.6-2.3-3.8c-0.8-1.2-1.6-2.6-2.3-3.6
			L648,266.9z"/>
		<path id="XMLID_127_" class="st34" d="M639.3,255.1c8.8,1.5,15.4,17.1,15.4,17.1l-14.5,22.4c0,0-14.2-15-12.8-28
			C628.2,258.1,630.6,253.6,639.3,255.1"/>
		<path id="XMLID_126_" class="st32" d="M639.3,255.1c8.8,1.5,15.4,17.1,15.4,17.1l-14.5,22.4c0,0-14.2-15-12.8-28
			C628.2,258.1,630.6,253.6,639.3,255.1"/>
		<g id="XMLID_416_" class="st23">
			<g id="XMLID_417_">
				<defs>
					<rect id="XMLID_124_" x="628.9" y="270.9" width="8.2" height="19.9"/>
				</defs>
				<clipPath id="XMLID_300_">
					<use xlink:href="#XMLID_124_"  style="overflow:visible;"/>
				</clipPath>
				<path id="XMLID_125_" class="st35" d="M635.1,271.9c2.1,4.2,2.1,14.4,2,19c-2.6-3.3-6.1-8.4-8.2-14
					C631.1,272.7,633.7,269.2,635.1,271.9"/>
			</g>
		</g>
		<path id="XMLID_123_" class="st33" d="M639.4,318.8l-5.9-9.6l-5.1,8.8c0,0,4.4,6.9,9.7,6.5L639.4,318.8z"/>
		<polygon id="XMLID_122_" class="st33" points="623.7,305.1 617.5,308.7 628.3,318.1 633.5,309.2 		"/>
		<path id="XMLID_121_" class="st36" d="M580.7,219.4c0.2,1-0.1,1.9-0.8,2.1c-0.7,0.2-1.4-0.5-1.6-1.5c-0.2-1,0.1-1.9,0.8-2.1
			C579.8,217.7,580.5,218.4,580.7,219.4"/>
		<path id="XMLID_120_" class="st36" d="M579.4,217.8l-2.6-0.1C576.9,217.8,578.5,219.3,579.4,217.8"/>
		<path id="XMLID_119_" class="st37" d="M580.1,220.6c0,0-0.8,4.7-2.2,7.3c1.6,0.9,3.7-0.2,3.7-0.2L580.1,220.6z"/>
		<path id="XMLID_118_" class="st36" d="M578,215.3c0.2,0,0.4-0.2,0.5-0.4c1-2.5,3.1-3.1,3.2-3.1c0.3-0.1,0.5-0.4,0.4-0.7
			c-0.1-0.3-0.4-0.5-0.7-0.4c-0.1,0-2.8,0.7-4.1,3.8c-0.1,0.3,0,0.7,0.3,0.8C577.9,215.3,577.9,215.3,578,215.3"/>
		<path id="XMLID_117_" class="st33" d="M613.6,227.5c-1.2,7.7-2.1,21.6,3.5,26.2c0,0-1.7,7.8-15.9,8.8c-15.6,1.1-7.8-7.1-7.8-7.1
			c8.4-2.6,7.9-8.8,6.2-14.6L613.6,227.5z"/>
		<path id="XMLID_116_" class="st33" d="M573.9,280.3c-0.9,1.9-1.7,3.4-2.6,5c-0.9,1.6-1.8,3.2-2.8,4.8c-1.9,3.1-4,6.2-6.1,9.2
			c-4.3,5.9-9,11.6-14.4,16.8l-2,1.9l-0.5,0.5l-0.9,0.8c-0.6,0.5-1.4,1-2.2,1.4c-1.6,0.8-3.5,1.3-5.3,1.2c-1.8-0.1-3.3-0.5-4.6-1
			c-2.5-1.1-4.3-2.5-5.9-4c-1.6-1.4-2.9-3-4.1-4.5c-4.8-6.1-8.1-12.5-11-19.4l5.7-3c3.9,5.5,8.2,11.2,12.7,15.7
			c1.1,1.1,2.3,2.2,3.4,3c1.1,0.8,2.3,1.5,3,1.7c0.4,0.1,0.6,0.1,0.6,0c0,0-0.2-0.1-0.2-0.1c0,0,0,0,0-0.1c0-0.1,0-0.1,0.1-0.1
			l0.4-0.5l1.7-1.9c4.5-5,8.6-10.4,12.4-16c1.9-2.8,3.7-5.7,5.5-8.6c0.9-1.4,1.7-2.9,2.6-4.4c0.8-1.4,1.7-3,2.4-4.3L573.9,280.3z"/>
		<path id="XMLID_115_" class="st33" d="M518,291.4l-1-10.3l-9.8,5.4c0,0,1.6,7.9,6.8,9.4L518,291.4z"/>
		<polygon id="XMLID_114_" class="st33" points="510.4,276.2 502.5,276.4 507.3,286.4 517.1,281 		"/>
		<polygon id="XMLID_113_" class="st33" points="618.5,622.6 605.7,623.6 601.9,594.2 614.7,593.3 		"/>
		<polygon id="XMLID_112_" class="st33" points="691.9,582.3 680.9,589.1 662.1,566.4 673.1,559.5 		"/>
		<path id="XMLID_111_" class="st36" d="M677.5,586.7l10.4-10.3c0.4-0.4,0.9-0.4,1.3-0.1l9.1,6.8c0.9,0.7,1,2.2,0.1,3.1
			c-3.7,3.5-5.6,5-10.2,9.5c-2.8,2.8-6.6,7.1-10.5,11c-3.8,3.8-7.8,0.3-6.5-1.6c5.7-8.7,4.8-11.9,5.3-16.3
			C676.6,588,677,587.3,677.5,586.7"/>
		<path id="XMLID_110_" class="st36" d="M604.9,621.8h14.4c0.5,0,1,0.4,1,0.9l1.9,11.4c0.2,1.2-0.8,2.3-2,2.3
			c-5-0.1-7.4-0.4-13.8-0.4c-3.9,0-11.9,0.4-17.3,0.4c-5.3,0-5.8-5.3-3.6-5.8c10-2.2,13.8-5.1,17.1-8
			C603.4,622,604.1,621.8,604.9,621.8"/>
		<g id="XMLID_398_" class="st23">
			<g id="XMLID_399_">
				<defs>
					<rect id="XMLID_108_" x="601.9" y="593.3" width="14.8" height="17.3"/>
				</defs>
				<clipPath id="XMLID_301_">
					<use xlink:href="#XMLID_108_"  style="overflow:visible;"/>
				</clipPath>
				<polygon id="XMLID_109_" class="st38" points="601.9,594.2 604,610.6 616.7,609.1 614.7,593.3 				"/>
			</g>
		</g>
		<g id="XMLID_394_" class="st23">
			<g id="XMLID_395_">
				<defs>
					<rect id="XMLID_106_" x="662.1" y="559.5" width="19" height="16.3"/>
				</defs>
				<clipPath id="XMLID_302_">
					<use xlink:href="#XMLID_106_"  style="overflow:visible;"/>
				</clipPath>
				<polygon id="XMLID_107_" class="st39" points="673.1,559.5 662.1,566.4 669.9,575.8 681.1,569.2 				"/>
			</g>
		</g>
		<path id="XMLID_105_" class="st34" d="M633.5,332.8c-10.1,0.7-31.4,2.2-52.1,3.7c-15.5-73.8-9.5-75.3-9.5-75.3s5.5-2.2,12.2-4
			c0.3-0.1,0.5-0.1,0.7-0.2c3.4-0.8,4.1-0.9,8.6-1.6c7.7-0.9,14.9-1.5,23.7-1.7c0.6,0,1.1,0,1.7,0c1.6,0,3.2,0,4.7,0.1
			c1,0,2,0.1,3,0.1c1.1,0.1,2.3,0.1,3.3,0.2c5.6,0.4,9.6,1,9.6,1C631.1,298.9,631.7,311.9,633.5,332.8"/>
		<path id="XMLID_104_" class="st32" d="M633.5,332.8c-10.1,0.7-31.4,2.2-52.1,3.7c-15.5-73.8-9.5-75.3-9.5-75.3s5.5-2.2,12.2-4
			c0.3-0.1,0.5-0.1,0.7-0.2c3.4-0.8,4.1-0.9,8.6-1.6c7.7-0.9,14.9-1.5,23.7-1.7c0.6,0,1.1,0,1.7,0c1.6,0,3.2,0,4.7,0.1
			c1,0,2,0.1,3,0.1c1.1,0.1,2.3,0.1,3.3,0.2c5.6,0.4,9.6,1,9.6,1C631.1,298.9,631.7,311.9,633.5,332.8"/>
		<g id="XMLID_388_" class="st23">
			<g id="XMLID_389_">
				<defs>
					<rect id="XMLID_102_" x="572" y="278.4" width="9.9" height="22.5"/>
				</defs>
				<clipPath id="XMLID_303_">
					<use xlink:href="#XMLID_102_"  style="overflow:visible;"/>
				</clipPath>
				<path id="XMLID_103_" class="st40" d="M577.2,278.6l4.7-0.2c-0.7,6.1-4.3,16.2-7.3,22.5c-1.1-6.7-1.9-12.3-2.5-16.9L577.2,278.6
					z"/>
			</g>
		</g>
		<path id="XMLID_101_" class="st34" d="M573.7,260.5c-7.8,1.5-15.1,15.7-17.9,21.9l12.5,18.9c0,0,17.6-19.7,16.1-26.7
			C582.9,267.4,577.5,259.8,573.7,260.5"/>
		<path id="XMLID_100_" class="st32" d="M573.7,260.5c-7.8,1.5-15.1,15.7-17.9,21.9l12.5,18.9c0,0,17.6-19.7,16.1-26.7
			C582.9,267.4,577.5,259.8,573.7,260.5"/>
		<path id="XMLID_99_" class="st33" d="M613.8,208.3c1.9,12.5,3,17.8-1.9,25.6c-7.3,11.8-23.2,11.9-28.8,0.3
			c-5.1-10.4-7.3-29.1,3.7-37C597.8,189.5,611.9,195.8,613.8,208.3"/>
		<path id="XMLID_98_" class="st36" d="M586.7,220.2c-3.4,7.7-10.1,19.1-3.9,26c0,0-0.1-1.9,0.9-2.4c0.8,1.7,29.2,7.3,35.1-2
			c0.2,1.6,0,2.2,0,2.2s6.1-3.5,4-11c-2.7-9.6,0.4-30.6-10.4-37.1C602.8,190.2,577.2,186.2,586.7,220.2"/>
		<path id="XMLID_97_" class="st36" d="M593.8,193.3c-8.3-2.8-15.6,3-16.9,14.1c3.4,4.5,10,4.8,10,4.8L593.8,193.3z"/>
		<path id="XMLID_96_" class="st33" d="M588.4,217.3c-0.1,2.3-1.3,4.7-2.7,6.4c-2.1,2.5-4.4,1.7-4.8-0.8c-0.4-2.2,0.3-6.2,2.9-7.9
			C586.3,213.2,588.5,214.6,588.4,217.3"/>
		<path id="XMLID_95_" class="st41" d="M595.1,335.6c0,0,3.2,19.5,7.1,45.2c2.6,17.1,5.6,37,8.3,55.7c1.5,10.7,2.9,21,4.1,30.2
			c6.7,52,50.5,107.8,50.5,107.8l16-9.2c0,0-25.8-48.8-32.5-97.4c-13.6-98.7,2.5-113.1-15.2-134.9L595.1,335.6z"/>
		<g id="XMLID_377_" class="st23">
			<g id="XMLID_378_">
				<defs>
					<rect id="XMLID_93_" x="598.6" y="352.7" width="17.5" height="83.7"/>
				</defs>
				<clipPath id="XMLID_304_">
					<use xlink:href="#XMLID_93_"  style="overflow:visible;"/>
				</clipPath>
				<path id="XMLID_94_" class="st42" d="M598.6,353.1c1,7.5,2.3,17,3.6,27.7c2.6,17.1,5.6,37,8.3,55.7c4.9-22.8,11.2-65.1-4.2-80.4
					C603.3,353,600.7,352.2,598.6,353.1"/>
			</g>
		</g>
		<polygon id="XMLID_92_" class="st34" points="663.6,575.9 683.6,564.4 679.4,556.7 657,569.8 		"/>
		<polygon id="XMLID_91_" class="st32" points="663.6,575.9 683.6,564.4 679.4,556.7 657,569.8 		"/>
		<path id="XMLID_90_" class="st41" d="M582.1,336.6c0,0-15.3,100.1-12.8,138.9c2.6,40.3,31.7,131,31.7,131l18.4-2.4
			c0,0-17.9-88.1-18.1-127.8c-0.2-43.3,21.3-142.5,21.3-142.5L582.1,336.6z"/>
		<polygon id="XMLID_89_" class="st34" points="597.1,607.6 623.4,604.2 622.7,594.4 594.5,599.2 		"/>
		<polygon id="XMLID_88_" class="st32" points="597.1,607.6 623.4,604.2 622.7,594.4 594.5,599.2 		"/>
		<path id="XMLID_87_" class="st36" d="M634.1,329.8l2.6,4.5c0.2,0.3-0.2,0.7-0.8,0.8l-54.7,3.9c-0.5,0-0.9-0.2-0.9-0.5l-0.7-4.6
			c0-0.3,0.3-0.6,0.9-0.7l52.8-3.8C633.7,329.4,634,329.5,634.1,329.8"/>
		<path id="XMLID_86_" class="st32" d="M627.3,336.1l1.4-0.1c0.3,0,0.5-0.2,0.5-0.4l-0.9-6c0-0.2-0.3-0.3-0.6-0.3l-1.4,0.1
			c-0.3,0-0.5,0.2-0.5,0.4l0.9,6C626.8,336,627,336.1,627.3,336.1"/>
		<path id="XMLID_85_" class="st32" d="M591.6,338.7l1.4-0.1c0.3,0,0.5-0.2,0.5-0.4l-0.9-6c0-0.2-0.3-0.3-0.6-0.3l-1.4,0.1
			c-0.3,0-0.5,0.2-0.5,0.4l0.9,6C591.1,338.6,591.3,338.8,591.6,338.7"/>
		<path id="XMLID_84_" class="st43" d="M172.1,578.9c-5.3-2.7-11.6-3-17.5-2c-3.2,0.5-6.5,1.5-8.6,3.9c-2.1,2.4-2.5,6.6,0,8.6
			c1.5,1.2,3.5,1.4,5.4,1.3c4.6-0.1,9.7-0.9,13.4,1.8c2.1,1.6,3.5,4.2,6,5c2.5,0.7,5.2-0.7,6.5-3s1.3-5,0.7-7.5
			C178.2,587.1,177.5,581.7,172.1,578.9"/>
		<path id="XMLID_83_" class="st43" d="M184.2,555.4c-3.2,4.7-9.5,3.2-12.5,0.4c-2.9-2.8-4.2-6.9-5.4-10.8
			c-2.6-8.9-5.3-18.3-3.4-27.4c0.6-2.7,1.6-5.4,3.5-7.5s4.8-3.2,7.5-2.6c3.2,0.8,5.2,3.9,6.6,6.9c4.3,8.7,6.5,18.3,6.6,28
			C187.2,546.9,186.7,551.6,184.2,555.4"/>
		<path id="XMLID_82_" class="st43" d="M193.1,562c-3.5-4.2-4.3-10.3-2.7-15.5c1.5-5.2,5-9.7,9.1-13.4c4.8-4.3,10.4-7.7,16.4-9.8
			c2.4-0.9,4.9-1.5,7.4-1.3c2.5,0.2,5.1,1.5,6.2,3.7c1.8,3.3,0.1,7.3-1.7,10.6c-3.1,5.8-6.7,11.3-10.7,16.5
			c-3.2,4.2-6.9,8.3-11.8,10.3c-4.9,1.9-10.1,1.7-12.7-1.7"/>
		<path id="XMLID_81_" class="st36" d="M184.8,625.3c-0.1,0-0.2-0.7-0.3-2.1c-0.2-1.5-0.4-3.5-0.6-5.7c-0.3-2.4-0.7-5.3-1.3-8.4
			c-0.7-3.1-1.8-6.5-3.1-9.9c-1.4-3.4-3.1-6.5-5.1-9c-2-2.5-4.3-4.3-6.5-5.3c-2.2-1-4.1-1.5-5.4-1.7c-1.3-0.1-2.1-0.2-2.1-0.3
			c0-0.1,0.8-0.1,2.1,0c1.4,0.1,3.4,0.4,5.6,1.4c2.3,1,4.7,2.8,6.8,5.3c2.1,2.5,3.9,5.7,5.3,9.1c1.4,3.5,2.4,6.9,3.1,10.1
			c0.7,3.2,1,6.1,1.2,8.5c0.2,2.4,0.3,4.4,0.3,5.8C184.9,624.5,184.9,625.3,184.8,625.3"/>
		<path id="XMLID_80_" class="st36" d="M184.4,620.9c0,0-0.1-0.3-0.1-1c0-0.7,0-1.7,0-2.8c0-2.4,0-5.9-0.2-10.3
			c-0.3-8.7-1.1-20.6-2.6-33.8c-1.5-13.1-3.5-25-5.3-33.4c-0.4-2.1-0.9-4-1.3-5.7c-0.4-1.7-0.7-3.1-1-4.3c-0.3-1.1-0.5-2-0.7-2.7
			c-0.1-0.6-0.2-1-0.2-1c0,0,0.1,0.3,0.3,0.9c0.2,0.7,0.5,1.6,0.8,2.7c0.4,1.2,0.7,2.6,1.2,4.3c0.4,1.7,0.9,3.6,1.4,5.7
			c2,8.5,4.1,20.3,5.6,33.5c1.5,13.2,2.3,25.2,2.4,33.8c0.1,4.3,0,7.9-0.1,10.3c-0.1,1.1-0.1,2.1-0.2,2.8
			C184.5,620.5,184.4,620.9,184.4,620.9"/>
		<path id="XMLID_79_" class="st36" d="M184.2,597.7c-0.1,0-0.1-1,0-2.9c0.1-1.9,0.3-4.6,0.8-7.9c0.5-3.3,1.3-7.3,2.5-11.5
			c1.1-4.3,2.7-8.9,4.7-13.7c3.9-9.5,9.3-17.3,14-22.1c1.1-1.3,2.3-2.2,3.3-3.1c0.5-0.4,1-0.9,1.4-1.2c0.5-0.3,0.9-0.6,1.3-0.9
			c1.5-1.1,2.4-1.6,2.4-1.6c0.1,0.2-3.5,2.3-8,7.2c-4.5,4.9-9.8,12.6-13.7,22c-2,4.7-3.6,9.3-4.8,13.5c-1.2,4.2-2,8.1-2.7,11.4
			c-0.6,3.3-0.9,6-1.1,7.8C184.4,596.7,184.3,597.7,184.2,597.7"/>
		<path id="XMLID_78_" class="st36" d="M726.4,590.2c0,0,0.1-0.3,0.3-0.7c0.2-0.5,0.6-1.2,1-2.1c0.8-1.8,1.9-4.6,2.8-8.2
			c1.9-7.3,2.5-18.5-0.2-31.7c-1.3-6.6-3.4-13.8-5.9-21.3c-2.5-7.6-5.4-15.6-7.7-24.3c-2.3-8.7-4.2-18-3.8-27.9
			c0.4-9.9,3.3-19.7,6.5-29.5c3.2-9.8,6.5-19.4,7.5-29.1c1.1-9.6-0.9-19.1-5.3-26.8c-4.3-7.8-9.6-14.5-13.6-21.5
			c-4.1-6.9-6.6-14-8.2-20.6c-3-13.3-2-24.6-0.5-32c1.6-7.4,3.3-11.3,3.3-11.3c0,0-0.1,0.3-0.2,0.7c-0.2,0.5-0.4,1.3-0.7,2.2
			c-0.6,1.9-1.3,4.7-2.1,8.5c-1.3,7.4-2.3,18.6,0.8,31.7c1.6,6.5,4.2,13.6,8.2,20.4c4,6.9,9.4,13.5,13.7,21.5
			c4.5,7.8,6.6,17.6,5.5,27.4c-1,9.8-4.3,19.5-7.5,29.3c-3.2,9.8-6.1,19.5-6.5,29.2c-0.4,9.7,1.4,19,3.7,27.6
			c2.3,8.6,5.2,16.7,7.6,24.2c2.5,7.6,4.5,14.8,5.8,21.4c2.7,13.4,1.9,24.6-0.1,32c-1,3.7-2.1,6.4-3,8.2c-0.4,0.9-0.8,1.5-1.1,2
			C726.6,589.9,726.4,590.2,726.4,590.2"/>
		<path id="XMLID_77_" class="st43" d="M713.3,373.9c0,0-8.1-26,6.5-41.2c0.5-0.5,1.4-0.3,1.5,0.4
			C722.1,337.4,723.1,350.5,713.3,373.9"/>
		<path id="XMLID_76_" class="st36" d="M718.2,341.4c0.1,0-0.1,1.9-0.5,4.8c-0.5,3.3-1.2,7.2-1.9,11.5c-0.7,4.3-1.3,8.2-1.8,11.5
			c-0.4,2.9-0.7,4.8-0.9,4.7c-0.1,0-0.1-1.9,0.1-4.8c0.3-3,0.8-7.1,1.5-11.5c0.7-4.5,1.5-8.5,2.2-11.4
			C717.6,343.1,718,341.3,718.2,341.4"/>
		<path id="XMLID_75_" class="st43" d="M722.9,435.2c0,0,5-26.8,25-33.4c0.7-0.2,1.4,0.4,1.2,1.1
			C747.7,407.1,742.4,419.1,722.9,435.2"/>
		<path id="XMLID_74_" class="st36" d="M742.4,408.7c0.1,0.1-1,1.6-2.7,4c-2,2.7-4.4,5.8-7,9.3c-2.6,3.5-5,6.6-7,9.3
			c-1.8,2.4-2.9,3.9-3,3.8c-0.1-0.1,0.8-1.7,2.4-4.2c1.6-2.5,4-5.9,6.8-9.5c2.7-3.6,5.3-6.8,7.2-9.1
			C741,410,742.3,408.6,742.4,408.7"/>
		<path id="XMLID_73_" class="st43" d="M717.5,502.4c0,0-3-27.1,14.2-39.2c0.6-0.4,1.4,0,1.4,0.7C733,468.3,731.5,481.3,717.5,502.4
			"/>
		<path id="XMLID_72_" class="st36" d="M728.4,471.4c0.1,0.1-0.4,1.8-1.5,4.6c-1.2,3.1-2.5,6.8-4,10.9c-1.5,4.1-2.8,7.8-4,10.9
			c-1,2.8-1.6,4.5-1.7,4.5c-0.1,0,0.2-1.8,1.1-4.7c0.8-2.9,2.1-6.8,3.7-11c1.6-4.3,3.1-8.1,4.3-10.8
			C727.5,473,728.3,471.3,728.4,471.4"/>
		<path id="XMLID_71_" class="st43" d="M732.5,570c0,0-2-27.2,15.6-38.7c0.6-0.4,1.4,0,1.4,0.8C749.3,536.4,747.3,549.4,732.5,570"
			/>
		<path id="XMLID_70_" class="st36" d="M744.6,539.4c0.1,0.1-0.5,1.8-1.6,4.5c-1.3,3.1-2.8,6.7-4.4,10.8c-1.6,4-3.1,7.7-4.4,10.8
			c-1.1,2.8-1.8,4.5-1.9,4.4c-0.1,0,0.3-1.8,1.2-4.7c0.9-2.8,2.4-6.7,4.1-10.9c1.7-4.2,3.4-8,4.7-10.7
			C743.6,540.9,744.5,539.3,744.6,539.4"/>
		<path id="XMLID_69_" class="st43" d="M701.6,351.1c0,0-24.1-12.6-24.6-33.7c0-0.7,0.8-1.2,1.4-0.8
			C682,319.1,691.9,327.6,701.6,351.1"/>
		<path id="XMLID_68_" class="st36" d="M682,324.6c0.1-0.1,1.2,1.4,3,3.8c2,2.7,4.3,5.9,6.8,9.4c2.6,3.5,4.9,6.7,6.8,9.4
			c1.8,2.4,2.9,3.9,2.8,4c-0.1,0.1-1.4-1.2-3.3-3.5c-1.9-2.3-4.4-5.5-7.1-9.2c-2.7-3.7-5-7.1-6.6-9.6
			C682.8,326.3,681.9,324.7,682,324.6"/>
		<path id="XMLID_67_" class="st43" d="M727.6,406.9c0,0-24.9-11.1-26.6-32.1c-0.1-0.7,0.7-1.2,1.4-0.9
			C706,376.2,716.5,384.1,727.6,406.9"/>
		<path id="XMLID_66_" class="st36" d="M706.4,381.7c0.1-0.1,1.3,1.3,3.2,3.6c2.1,2.6,4.6,5.6,7.4,9c2.8,3.3,5.3,6.4,7.4,9
			c1.9,2.3,3.1,3.7,3,3.8c-0.1,0.1-1.5-1.1-3.5-3.3c-2-2.2-4.8-5.3-7.6-8.8c-2.9-3.5-5.4-6.8-7.1-9.2
			C707.3,383.3,706.3,381.8,706.4,381.7"/>
		<path id="XMLID_65_" class="st43" d="M713.2,469.2c0,0-17.1-21.2-9.1-40.7c0.3-0.7,1.2-0.8,1.6-0.1
			C708.1,432,713.8,443.8,713.2,469.2"/>
		<path id="XMLID_64_" class="st36" d="M705.9,437.1c0.1,0,0.6,1.8,1.2,4.7c0.7,3.3,1.5,7.1,2.5,11.4c0.9,4.2,1.8,8.1,2.5,11.3
			c0.7,2.9,1.1,4.7,0.9,4.7c-0.1,0-0.8-1.7-1.6-4.6c-0.8-2.9-1.8-6.9-2.8-11.3c-1-4.4-1.7-8.5-2.2-11.4
			C705.9,439,705.7,437.1,705.9,437.1"/>
		<path id="XMLID_63_" class="st43" d="M730.2,542.5c0,0-24.7-11.5-26.1-32.6c0-0.7,0.7-1.2,1.4-0.8
			C709.1,511.4,719.5,519.5,730.2,542.5"/>
		<path id="XMLID_62_" class="st36" d="M709.4,516.9c0.1-0.1,1.3,1.3,3.2,3.6c2.1,2.6,4.5,5.7,7.2,9.1c2.7,3.4,5.2,6.5,7.2,9.1
			c1.9,2.3,3,3.7,2.9,3.8c-0.1,0.1-1.5-1.2-3.5-3.4c-2-2.2-4.7-5.3-7.5-8.9c-2.8-3.6-5.3-6.9-7-9.3
			C710.3,518.5,709.3,517,709.4,516.9"/>
		<path id="XMLID_61_" class="st36" d="M779.3,435.4c0,0,0,0.2,0,0.6c0,0.5,0,1,0,1.7c-0.1,1.6-0.2,3.8-0.3,6.6
			c-0.3,5.8-0.8,13.9-1.3,23.6l0,0l0,0c-1.8,9.9-6.8,20.8-13.5,31.4c-4.9,7.8-10.1,14.9-14.6,21.5c-4.5,6.6-8.3,12.7-10.9,18.1
			c-2.7,5.4-4.2,10-5.1,13.3c-0.4,1.6-0.8,2.9-0.9,3.8c-0.2,0.9-0.3,1.3-0.4,1.3c0,0,0-0.5,0.2-1.4c0.1-0.9,0.4-2.2,0.8-3.8
			c0.8-3.3,2.3-8,4.9-13.5c2.6-5.5,6.4-11.7,10.8-18.3c4.4-6.7,9.6-13.8,14.5-21.5c6.7-10.6,11.7-21.3,13.5-31l0,0.1
			c0.7-9.7,1.2-17.8,1.7-23.6c0.2-2.8,0.4-5,0.5-6.6c0.1-0.7,0.1-1.3,0.2-1.7C779.2,435.6,779.3,435.4,779.3,435.4"/>
		<path id="XMLID_60_" class="st43" d="M764.6,497.3c0,0,10.5-25.2-2.7-41.6c-0.5-0.6-1.4-0.4-1.6,0.3
			C759.2,460.2,757,473.1,764.6,497.3"/>
		<path id="XMLID_59_" class="st36" d="M762.7,464.5c0.1,0,0.5,1.8,0.8,4.8s0.8,7,1.1,11.6c0.3,4.5,0.5,8.7,0.5,11.6
			c0,3-0.2,4.8-0.3,4.8c-0.1,0-0.2-1.8-0.4-4.8c-0.2-3.3-0.5-7.3-0.8-11.6c-0.3-4.3-0.6-8.2-0.8-11.6
			C762.6,466.3,762.6,464.5,762.7,464.5"/>
		<path id="XMLID_58_" class="st43" d="M732.2,557.9c0,0,8.4-25.9-6.1-41.3c-0.5-0.5-1.4-0.3-1.5,0.4
			C723.8,521.4,722.7,534.4,732.2,557.9"/>
		<path id="XMLID_57_" class="st36" d="M727.7,525.3c0.1,0,0.6,1.8,1.2,4.7c0.6,2.9,1.4,7,2,11.5c0.7,4.5,1.2,8.6,1.4,11.6
			c0.2,3,0.2,4.8,0.1,4.8c-0.1,0-0.4-1.8-0.8-4.8c-0.5-3.3-1.1-7.2-1.7-11.5c-0.7-4.3-1.2-8.2-1.7-11.5
			C727.8,527.2,727.5,525.4,727.7,525.3"/>
		<path id="XMLID_56_" class="st44" d="M777.9,466.6c0,0,22.3-15.6,20.1-36.6c-0.1-0.7-0.9-1.1-1.5-0.6
			C793.2,432.3,784.5,442.1,777.9,466.6"/>
		<path id="XMLID_55_" class="st43" d="M777.9,466.6c0,0,22.3-15.6,20.1-36.6c-0.1-0.7-0.9-1.1-1.5-0.6
			C793.2,432.3,784.5,442.1,777.9,466.6"/>
		<path id="XMLID_54_" class="st36" d="M793.9,437.8c0.1,0.1-0.6,1.8-1.9,4.5s-3.1,6.4-5.3,10.4c-2.2,4-4.2,7.6-5.8,10.1
			c-1.6,2.5-2.7,4-2.8,3.9c-0.1-0.1,0.8-1.7,2.2-4.3c1.6-2.9,3.5-6.4,5.6-10.2c2.1-3.8,3.9-7.3,5.5-10.2
			C792.9,439.4,793.8,437.8,793.9,437.8"/>
		<path id="XMLID_53_" class="st44" d="M741.2,532.2c0,0,26.9-4.2,34.1-24c0.3-0.7-0.4-1.4-1.1-1.2
			C770.1,508.2,757.9,513.2,741.2,532.2"/>
		<path id="XMLID_52_" class="st43" d="M741.2,532.2c0,0,26.9-4.2,34.1-24c0.3-0.7-0.4-1.4-1.1-1.2
			C770.1,508.2,757.9,513.2,741.2,532.2"/>
		<path id="XMLID_51_" class="st36" d="M768.3,513.5c0.1,0.1-1.3,1.3-3.6,3.2c-2.3,1.9-5.6,4.3-9.3,7c-3.7,2.6-7.1,4.9-9.7,6.5
			c-2.5,1.6-4.2,2.4-4.3,2.3c-0.1-0.1,1.4-1.2,3.9-2.9c2.7-1.9,5.9-4.2,9.5-6.7c3.5-2.5,6.7-4.8,9.5-6.7
			C766.7,514.4,768.2,513.4,768.3,513.5"/>
		<polygon id="XMLID_50_" class="st45" points="709.4,581.8 717.1,632.4 747.9,632.4 758.3,581.8 		"/>
		<path id="XMLID_49_" class="st36" d="M753.8,601.3c0,0-0.1,0.1-0.3,0.2c-0.2,0.1-0.4,0.3-0.8,0.5c-0.7,0.4-1.9,0.8-3.4,1
			c-1.6,0.2-3.5,0.2-5.7-0.5c-2.1-0.7-4.4-2.1-6.1-4.4c-0.8-1.2-1.3-2.6-1.4-4.2c-0.1-1.6,0.5-3.4,2.1-4.4c1.6-0.9,3.7-0.6,5.2,0.4
			c1.6,1,2.5,2.8,3,4.7c0.4,1.8,0.5,3.8,0.4,5.7c-0.1,1.9-0.5,3.9-1.3,5.8c-0.7,1.9-1.9,3.7-3.6,5.1c-1.6,1.4-3.7,2.4-5.9,2.5
			c-2.2,0.1-4.4-0.7-6.2-1.8c-1.8-1.1-3.3-2.6-4.6-4.2c-1.3-1.6-2.2-3.5-2.3-5.6c-0.1-2,0.6-4.1,2.2-5.4c1.6-1.3,3.9-1.2,5.5-0.3
			c1.6,0.8,2.9,2.4,3.2,4.1c0.6,3.5-1.4,6.6-3.9,8c-2.5,1.4-5.3,1.5-7.4,1.1c-2.2-0.4-4-1.3-5.3-2.1c-1.3-0.8-2.3-1.5-3-2
			c-0.6-0.5-1-0.8-1-0.8c0,0,0.4,0.2,1.1,0.7c0.7,0.5,1.7,1.1,3,1.9c1.4,0.7,3.1,1.5,5.2,1.9c2.1,0.4,4.7,0.3,7.1-1.1
			c2.3-1.3,4.1-4.3,3.5-7.4c-0.3-1.5-1.3-2.9-2.8-3.6c-1.4-0.8-3.3-0.8-4.6,0.3c-1.3,1.1-2,2.9-1.9,4.7c0.1,1.8,1,3.6,2.2,5.1
			c1.2,1.5,2.7,2.9,4.4,4c1.7,1.1,3.7,1.8,5.7,1.7c2-0.1,3.9-1,5.4-2.3c1.5-1.3,2.6-3,3.4-4.8c0.7-1.8,1.1-3.7,1.2-5.6
			c0.1-1.9,0.1-3.8-0.3-5.5c-0.4-1.7-1.2-3.3-2.6-4.2c-1.3-0.9-3.1-1.2-4.4-0.4c-1.3,0.7-1.9,2.3-1.8,3.7c0.1,1.4,0.6,2.8,1.3,3.9
			c1.5,2.2,3.7,3.6,5.7,4.3c2,0.7,4,0.8,5.5,0.7C752.3,602.3,753.8,601.2,753.8,601.3"/>
		<path id="XMLID_48_" class="st41" d="M282.3,268.8l-6.3-18.5l0.6-10.5l8.1,8l12.2,34.4c0.8,2.4-0.5,4.9-2.9,5.7
			c-2.2,0.7-4.5-0.5-5.4-2.6L282.3,268.8z"/>
		<path id="XMLID_47_" class="st36" d="M293.1,283.4c-0.1,0-0.9-1.9-2.1-5c-1.2-3.3-2.8-7.5-4.5-12.2c-1.7-4.6-3.2-8.8-4.5-12.2
			c-0.5-1.4-1-2.6-1.4-3.7c-0.3-0.9-0.6-1.3-0.5-1.4c0.1-0.1,1.2,1.7,2.5,4.8c1.3,3.1,3,7.3,4.7,12.1c1.7,4.8,3.2,9.1,4.3,12.3
			C292.6,281.4,293.2,283.3,293.1,283.4"/>
		<polygon id="XMLID_46_" class="st36" points="276.6,239.8 276.2,246.5 281.4,244.5 		"/>
		<path id="XMLID_45_" class="st36" d="M284.4,247.7c0.1,0.2-1.8,1-4.1,1.7c-2.3,0.7-4.2,1.1-4.3,0.9c-0.1-0.2,1.8-1,4.1-1.7
			C282.4,247.9,284.3,247.5,284.4,247.7"/>
		<path id="XMLID_44_" class="st46" d="M295.6,270.4l1.6-5.5c0.4-1.3-0.4-2.6-1.7-2.9l-5.9-1.3c0,0-1,1.3-0.4,2.4
			c0.6,1.1,4.6,2.1,4.6,2.1l-0.5,5.5L295.6,270.4z"/>
		<path id="XMLID_43_" class="st47" d="M162.1,349.9L162.1,349.9c7.9,0.6,14.7-5.5,15.1-13.4c0.3-7.6,0.5-15.3,0.5-15.3
			s11.5-1.1,12.4-12.5c0.8-11.4,0.5-37.8,0.5-37.8c-12.9-6.5-28.3-5.5-40.2,2.6l-1.8,1.2l0.6,61.4
			C149.3,343.3,154.9,349.3,162.1,349.9"/>
		<polygon id="XMLID_42_" class="st48" points="182.4,558.1 216.6,715.8 242.4,715.2 219.9,564.4 		"/>
		<polygon id="XMLID_41_" class="st48" points="119.3,552.8 111,706.7 136.4,712.9 155.4,556 		"/>
		<polygon id="XMLID_40_" class="st36" points="223.6,564.8 209.7,446.3 127.5,444.7 117.9,555 		"/>
		<path id="XMLID_39_" class="st41" d="M197.4,476c0,0.2-13.3,2-29.7,3.9c-16.4,1.9-29.7,3.3-29.8,3.1c0-0.2,13.2-2,29.7-3.9
			C184.1,477.1,197.4,475.7,197.4,476"/>
		<path id="XMLID_38_" class="st44" d="M245.9,717.8l-0.1-2.9l-29.2,0.8l0.3,9.5l1.8,0.1c8,0.2,40.9,0.5,46.2-1.2
			C270.8,722.3,245.9,717.8,245.9,717.8"/>
		<g id="XMLID_318_" class="st16">
			<g id="XMLID_319_">
				<defs>
					<rect id="XMLID_36_" x="216.6" y="717.3" width="10.7" height="7.6"/>
				</defs>
				<clipPath id="XMLID_305_">
					<use xlink:href="#XMLID_36_"  style="overflow:visible;"/>
				</clipPath>
				<path id="XMLID_37_" class="st49" d="M227.4,724.8c-0.5-2.2-1.9-4.3-3.9-5.7c-2-1.4-4.4-2-6.9-1.8l0.2,7.6L227.4,724.8z"/>
			</g>
		</g>
		<g id="XMLID_314_" class="st16">
			<g id="XMLID_315_">
				<defs>
					<rect id="XMLID_34_" x="216.9" y="720.4" width="49" height="5.2"/>
				</defs>
				<clipPath id="XMLID_306_">
					<use xlink:href="#XMLID_34_"  style="overflow:visible;"/>
				</clipPath>
				<path id="XMLID_35_" class="st50" d="M258.1,720.4c0,0,8.7,2.1,7.7,3.4c-1,1.4-34.2,2.2-48.9,1.4l0-0.6l38.7-0.7
					C255.6,724,256.4,720.5,258.1,720.4"/>
			</g>
		</g>
		<path id="XMLID_33_" class="st36" d="M216.4,724.7c0,0,0.2,0,0.5,0c0.4,0,0.9,0,1.4,0c1.4,0,3.2,0,5.3,0.1c4.5,0,10.6,0,17.5-0.2
			c6.8-0.2,13-0.5,17.4-0.7c2.1-0.1,3.8-0.2,5.3-0.3c0.5,0,1-0.1,1.4-0.1c0.3,0,0.5-0.1,0.5-0.1c0,0-0.2,0-0.5,0
			c-0.4,0-0.9,0-1.4,0.1c-1.4,0.1-3.2,0.1-5.3,0.2c-4.5,0.2-10.6,0.4-17.4,0.6c-6.8,0.2-13,0.2-17.4,0.3c-2.1,0-3.9,0-5.3,0
			c-0.5,0-1,0-1.4,0C216.6,724.7,216.4,724.7,216.4,724.7"/>
		<path id="XMLID_32_" class="st36" d="M255.6,724.4c0.1,0,0.2-1.2,0.9-2.4c0.7-1.2,1.8-1.8,1.7-1.9c0-0.1-1.3,0.5-2,1.8
			C255.4,723.2,255.5,724.4,255.6,724.4"/>
		<path id="XMLID_31_" class="st36" d="M246.9,720.6c0.1,0,0.5-0.4,0.9-1.1c0.4-0.6,0.7-1.2,0.6-1.2c-0.1,0-0.5,0.4-0.9,1.1
			C247.1,720,246.8,720.5,246.9,720.6"/>
		<path id="XMLID_30_" class="st36" d="M244.5,719.5c0.1,0.1,0.5-0.2,1-0.7c0.5-0.4,0.8-0.8,0.8-0.9c-0.1-0.1-0.5,0.2-1,0.7
			C244.8,719,244.5,719.4,244.5,719.5"/>
		<path id="XMLID_29_" class="st36" d="M243,717c0,0.1,0.7,0.2,1.5,0.1s1.5-0.1,1.5-0.2c0-0.1-0.7-0.2-1.5-0.1
			C243.6,716.8,243,716.9,243,717"/>
		<path id="XMLID_28_" class="st36" d="M242.4,715.2c0,0.1,0.7,0.4,1.7,0.4c1,0,1.8-0.2,1.7-0.3c0-0.1-0.8,0-1.7-0.1
			C243.2,715.2,242.4,715.1,242.4,715.2"/>
		<path id="XMLID_27_" class="st36" d="M247.8,718.2c0,0,0.7,0.1,1.9-0.1c0.6-0.1,1.3-0.2,2-0.5c0.4-0.1,0.7-0.2,1.1-0.5
			c0.2-0.1,0.4-0.3,0.4-0.6c0.1-0.3-0.1-0.6-0.3-0.7c-1.8-0.8-3.6,0.2-4.2,1c-0.4,0.4-0.5,0.9-0.6,1.2c-0.1,0.3-0.1,0.5,0,0.5
			c0.1,0,0.1-0.7,0.8-1.5c0.3-0.4,0.9-0.8,1.6-1c0.7-0.2,1.6-0.3,2.2,0.1c0.3,0.2,0.2,0.5-0.1,0.7c-0.3,0.2-0.7,0.3-1,0.4
			c-0.7,0.2-1.4,0.4-1.9,0.5C248.5,718.1,247.8,718.1,247.8,718.2"/>
		<path id="XMLID_26_" class="st36" d="M248.3,718.3c0,0,0.3-0.4,0.2-1.2c-0.1-0.4-0.2-0.8-0.5-1.3c-0.3-0.4-0.8-0.9-1.6-0.8
			c-0.4,0.1-0.6,0.5-0.6,0.8c0,0.3,0.2,0.6,0.3,0.8c0.3,0.4,0.6,0.8,0.9,1c0.6,0.5,1.1,0.7,1.1,0.7c0,0-0.4-0.3-0.9-0.8
			c-0.3-0.3-0.6-0.6-0.8-1c-0.3-0.4-0.5-1,0-1.1c0.5-0.1,1,0.4,1.3,0.7c0.3,0.4,0.5,0.8,0.6,1.1
			C248.4,717.8,248.2,718.3,248.3,718.3"/>
		<path id="XMLID_25_" class="st36" d="M216.8,717.3c0,0.1,0.8-0.1,2.1,0c1.3,0.1,3.1,0.5,4.7,1.7c1.6,1.1,2.6,2.6,3,3.8
			c0.5,1.1,0.5,1.9,0.6,1.9c0,0,0-0.2,0-0.5c0-0.3-0.1-0.9-0.4-1.4c-0.4-1.2-1.4-2.8-3.1-4c-1.7-1.2-3.6-1.6-4.9-1.6
			c-0.7,0-1.2,0-1.6,0.1C217,717.2,216.8,717.3,216.8,717.3"/>
		<path id="XMLID_24_" class="st36" d="M231,722.1c0,0.1,1.9,0.3,4.3,0.3c2.4,0,4.3-0.3,4.2-0.4c0-0.1-1.9,0.1-4.2,0.1
			C232.9,722.1,231,722,231,722.1"/>
		<path id="XMLID_23_" class="st36" d="M225.3,722.2c-0.1,0.1,0.2,0.4,0.4,0.8c0.2,0.4,0.3,0.8,0.4,0.7c0.1,0,0.1-0.4-0.1-0.9
			C225.7,722.4,225.3,722.1,225.3,722.2"/>
		<path id="XMLID_22_" class="st36" d="M223,719.8c-0.1,0.1,0.1,0.3,0.4,0.6c0.3,0.3,0.6,0.4,0.7,0.4c0.1-0.1-0.1-0.3-0.4-0.6
			C223.4,719.9,223.1,719.7,223,719.8"/>
		<path id="XMLID_21_" class="st36" d="M219.9,718.7c0,0.1,0.4,0.1,0.8,0.2c0.4,0.1,0.7,0.3,0.8,0.3c0.1-0.1-0.2-0.4-0.7-0.6
			C220.3,718.5,219.9,718.6,219.9,718.7"/>
		<path id="XMLID_20_" class="st36" d="M217.7,718.2c0,0.1,0.1,0.2,0.4,0.3c0.2,0.1,0.5,0.1,0.5,0c0-0.1-0.1-0.2-0.4-0.3
			C218,718.2,217.8,718.2,217.7,718.2"/>
		<polygon id="XMLID_19_" class="st44" points="110.2,705.4 105.9,724.4 135.1,724.4 136.4,712.1 		"/>
		<path id="XMLID_18_" class="st36" d="M135.7,721.7c0,0.1-1.6,0.2-4.3,0.2c-2.6,0-6.3,0-10.3-0.2c-3.9-0.2-7.4-0.3-10.2-0.4
			c-2.6-0.1-4.2-0.2-4.2-0.3c0-0.1,1.6-0.2,4.3-0.2c2.6,0,6.3,0.1,10.3,0.2c3.9,0.2,7.4,0.3,10.2,0.4
			C134.1,721.5,135.7,721.6,135.7,721.7"/>
		<path id="XMLID_17_" class="st36" d="M123.4,709.1c0.2,0,0.2,2.8,0,6.2c-0.2,3.4-0.6,6.1-0.8,6.1c-0.2,0-0.2-2.8,0-6.2
			C122.8,711.9,123.1,709.1,123.4,709.1"/>
		<g id="XMLID_293_" class="st16">
			<g id="XMLID_294_">
				<defs>
					<rect id="XMLID_15_" x="105.9" y="721" width="29.5" height="3.5"/>
				</defs>
				<clipPath id="XMLID_307_">
					<use xlink:href="#XMLID_15_"  style="overflow:visible;"/>
				</clipPath>
				<polyline id="XMLID_16_" class="st51" points="105.9,724.4 135.1,724.4 135.4,721.7 106.5,721 105.9,724.1 				"/>
			</g>
		</g>
		<path id="XMLID_14_" class="st48" d="M296.3,264.5l-14,5.2c-0.2-4.3-3.1-8.7-3.1-6.6c0,2.1-1,13.1-1,13.1L255.9,315
			c-3.1,6.2-8.7,9.7-12.7,10.4l-18.2,3.9l5.1,24.1l25.4-6.3c6.6-1.6,12-6.3,14.6-12.5l21.1-50.6c0,0,2.5-5.8,3.6-10
			C296,269.6,296.3,264.5,296.3,264.5"/>
		<path id="XMLID_13_" class="st52" d="M99.3,383.9c0,0,21.2-43.2,22.8-44.5c10.1-8.3,23-7.5,23-7.5l35.3,0.3c0,0,27.8-3.5,44-6.2
			l7.1,33.2l-31.1,7.5l-2.9,37.7l6.9,28.7c1.5,3.4,2.8,6.9,3.9,10.5l1,3.3l-81.8,0.9c-0.3-9.6,10.7-33.2,10.7-33.2l-6-37.1
			l-2.9,14.2L99.3,383.9z"/>
		<path id="XMLID_12_" class="st3" d="M199.1,375.9c0,0.1-1.5-0.6-4.3,0c-1.4,0.3-2.9,1-4.6,2.1c-1.7,1.1-3.3,2.6-5.3,4.3
			c-1.9,1.6-4.3,3.3-7.3,4c-3,0.7-6.3,0.3-9.5-0.9c-3.2-1.2-6.2-3.2-9-5.6c-2.8-2.4-5.3-5.2-8.1-7.8c-2.8-2.6-5.7-5-9-6.5
			c-3.2-1.6-6.6-2.6-9.9-3c-6.6-0.9-12.6,0.6-17.1,2.8c-4.5,2.2-7.6,5-9.5,7c-0.9,1-1.6,1.9-2.1,2.5c-0.4,0.6-0.7,0.9-0.7,0.9
			c0,0,0.2-0.4,0.6-1c0.4-0.6,1.1-1.5,2-2.6c1.9-2.1,4.9-5,9.5-7.3c4.5-2.3,10.7-3.9,17.4-3c3.4,0.4,6.8,1.4,10.1,3
			c3.3,1.6,6.4,4,9.2,6.7c2.8,2.7,5.4,5.4,8.1,7.8c2.7,2.4,5.6,4.3,8.7,5.5c3.1,1.2,6.3,1.6,9.1,1c2.9-0.6,5.1-2.2,7.1-3.8
			c2-1.6,3.7-3.1,5.4-4.2c1.7-1.1,3.4-1.7,4.8-2c1.4-0.3,2.5-0.2,3.3,0C198.7,375.7,199.1,375.9,199.1,375.9"/>
		<path id="XMLID_11_" class="st3" d="M197.5,410.2c0,0.1-0.9,0.1-2.6,0.5c-1.6,0.4-3.9,1.3-6.4,2.9c-2.6,1.6-5.4,3.8-8.7,6
			c-3.4,2.1-7.6,3.9-12.2,4.6c-4.6,0.7-9.1,0.5-13.1-0.4c-4-0.8-7.3-2.3-10-3.8c-1.4-0.7-2.4-1.6-3.4-2.3c-0.9-0.8-1.7-1.4-2.3-2
			c-1.2-1.2-1.8-1.9-1.8-2c0.2-0.2,2.5,2.9,7.8,5.7c2.6,1.4,6,2.8,9.8,3.6c3.9,0.8,8.3,1,12.8,0.3c4.5-0.7,8.6-2.4,11.9-4.5
			c3.3-2.1,6.2-4.3,8.8-5.9c2.6-1.6,5-2.4,6.7-2.7c0.8-0.1,1.5-0.2,2-0.2C197.3,410.2,197.5,410.2,197.5,410.2"/>
		<path id="XMLID_10_" class="st3" d="M209.3,337c0-0.1,1-0.6,2.9-0.8c1.9-0.3,4.5-0.2,7.3,0.6c2.8,0.8,5,2.2,6.4,3.5
			c1.4,1.2,2.1,2.2,2,2.3c-0.1,0.1-0.9-0.7-2.4-1.8c-1.5-1.1-3.7-2.4-6.3-3.2c-2.7-0.8-5.2-0.9-7-0.8
			C210.4,336.9,209.3,337.2,209.3,337"/>
		<path id="XMLID_9_" class="st3" d="M158.4,444.7c0-0.2,2.6-0.1,6.5-1.6c1.9-0.7,4.2-1.8,6.6-3.2c2.4-1.4,5-2.9,7.8-4.6
			c2.8-1.6,5.6-2.9,8.3-3.7c2.7-0.8,5.2-1.1,7.3-1.2c2.1-0.1,3.8,0.1,5,0.3c1.2,0.2,1.8,0.4,1.8,0.4c0,0.2-2.6-0.4-6.7-0.2
			c-2.1,0.1-4.5,0.5-7.1,1.3c-2.6,0.9-5.3,2.1-8.1,3.7c-2.8,1.6-5.4,3.2-7.8,4.5c-2.4,1.3-4.7,2.4-6.7,3c-1,0.4-1.9,0.5-2.8,0.7
			c-0.8,0.1-1.5,0.2-2.1,0.3C159,444.8,158.4,444.8,158.4,444.7"/>
		<path id="XMLID_8_" class="st48" d="M296.3,264.5V261c0-0.9-0.6-1.7-1.5-2l-6.6-2.3c0,0-1,1.3-0.4,2.4c0.6,1.1,4.6,2.1,4.6,2.1
			l-0.5,5.5L296.3,264.5z"/>
		<path id="XMLID_7_" class="st48" d="M102.8,384.8c0,0-12.4,22.8-3.5,31.4c8.4,8.2,38.1-5.8,38.1-5.8l-3-18.4l-14.9,5.3l3.4-7.3
			L102.8,384.8z"/>
		<path id="XMLID_6_" class="st36" d="M185.8,260.2c20.4,3.8,10.1,30,14.5,38.7c1.6,3.2,4.6,5.7,6.9,8.6c2.3,2.9,3.9,6.5,2.5,9.8
			c-1.2,2.8-4.6,5.2-4.1,8.1c0.3,1.6,1.6,2.8,2.6,4.2c2.4,3.3,2.7,7.6,1.4,11.3c-1.3,3.8-4.2,7-7.6,9.7c-9.9,7.7-25.2,10-37.7,5.7
			c-3.7-1.3-7.5-3.1-11.4-2.6c-2.4,0.3-4.5,1.6-6.8,2.4c-8.8,3.1-19.7-1.3-23.8-8.6c-4.1-7.3-1.8-16.4,4.2-22.7
			c4.3-4.5,10.8-8.3,11.2-14.1c0.4-5.7-5.4-11.4-2.7-16.6c1.7-3.4,6.4-5.1,8.1-8.5c1.8-3.5-0.3-7.5-0.4-11.4
			c-0.1-5.2,3.4-9.9,7.3-13.9c5-5,11.3-9.5,19-10.3C176.7,249.3,185.3,253.7,185.8,260.2"/>
		<path id="XMLID_5_" class="st41" d="M175,359.1c0-0.1,1.7,0.1,4.5-0.9c1.4-0.5,3-1.4,4.5-2.8c1.5-1.4,2.9-3.5,3.6-6
			c0.7-2.5,0.7-5.5-0.4-8.4c-0.5-1.5-1.2-2.9-1.8-4.5c-0.6-1.6-1.2-3.3-1.3-5.1c-0.1-1.8,0.5-3.8,1.7-5.3c1.1-1.5,2.6-2.8,4.2-4
			c1.5-1.2,3-2.4,4.3-3.9c1.2-1.5,2-3.3,1.8-5.3c-0.2-1.9-1.3-3.6-2.6-5.1c-1.2-1.5-2.6-3-3.7-4.6c-1.1-1.6-1.9-3.5-2-5.4
			c-0.1-1.9,0.3-3.8,0.7-5.5c1-3.4,2.4-6.5,3.1-9.5c0.8-3,1.1-5.9,0.8-8.6c-0.4-5.3-3.3-9-5.6-10.7c-2.4-1.7-4.2-1.8-4.1-1.9
			c0,0,0.1,0,0.3,0c0.2,0,0.5,0.1,0.9,0.2c0.8,0.2,1.9,0.6,3.1,1.5c2.5,1.7,5.5,5.4,6,10.9c0.3,2.7,0,5.7-0.8,8.8
			c-0.7,3.1-2,6.2-3,9.6c-0.5,1.7-0.8,3.4-0.7,5.2c0.1,1.8,0.8,3.5,1.9,5c1.1,1.5,2.4,3,3.7,4.5c1.3,1.5,2.5,3.4,2.7,5.5
			c0.3,2.2-0.7,4.3-2,5.9c-1.3,1.6-2.9,2.8-4.4,4c-1.5,1.2-3,2.4-4,3.8c-1.1,1.4-1.6,3.1-1.5,4.8c0.2,3.4,2,6.4,3,9.4
			c1.1,3,1.1,6.2,0.4,8.8c-0.8,2.6-2.2,4.7-3.8,6.2c-1.6,1.4-3.3,2.3-4.7,2.8c-1.4,0.5-2.6,0.6-3.4,0.7c-0.4,0-0.7,0-0.9,0
			C175.1,359.1,175,359.1,175,359.1"/>
		<path id="XMLID_4_" class="st41" d="M143.9,282.7c0,0-0.1-0.8-0.2-2.4c0-1.5-0.1-3.7,0.3-6.5c0.4-2.7,1.2-6,3.2-9.1
			c2-3.1,5-5.9,8.7-7.9c7.5-4,15.9-3.9,20.8-1.4c2.5,1.2,4.1,3,4.8,4.3c0.4,0.7,0.5,1.3,0.6,1.7c0.1,0.4,0.1,0.6,0.1,0.6
			c-0.1,0-0.2-0.8-1-2.1c-0.8-1.3-2.3-2.9-4.8-4c-4.8-2.3-13-2.3-20.2,1.6c-3.6,1.9-6.6,4.6-8.5,7.6c-1.9,3-2.8,6.1-3.2,8.8
			c-0.4,2.7-0.5,4.9-0.5,6.4C143.9,281.9,143.9,282.7,143.9,282.7"/>
		<path id="XMLID_3_" class="st41" d="M178.3,265.9c0,0.1-1.5-0.6-4,0.1c-2.4,0.6-5.9,3-7.5,7.4c-0.8,2.2-1.1,4.7-1.2,7.5
			c-0.1,2.7,0.1,5.7-0.1,8.8c-0.2,3.1-0.6,6.5-2.4,9.6c-1.7,3.1-5,5.1-6.2,8.3c-0.6,1.6-0.5,3.4-0.2,5c0.4,1.7,1,3.3,1.5,4.9
			c0.5,1.6,0.9,3.3,0.8,5c-0.1,1.7-0.6,3.3-1.4,4.7c-1.5,2.8-3.5,5.1-5.1,7.3c-1.6,2.2-2.9,4.5-3.3,6.7c-0.4,2.3,0.1,4.4,0.8,6.1
			c0.7,1.7,1.5,3.1,2.2,4.2c0.7,1.1,1.3,1.9,1.7,2.5c0.4,0.6,0.6,0.9,0.6,0.9c0,0-0.3-0.3-0.7-0.8c-0.4-0.5-1.1-1.3-1.8-2.4
			c-0.7-1.1-1.6-2.5-2.4-4.2c-0.7-1.7-1.3-3.9-0.9-6.3c0.3-2.4,1.7-4.8,3.3-7c1.6-2.3,3.6-4.5,5-7.2c0.7-1.4,1.2-2.8,1.2-4.4
			c0.1-1.6-0.3-3.2-0.8-4.8c-0.5-1.6-1.1-3.2-1.5-5c-0.4-1.7-0.5-3.7,0.2-5.5c0.7-1.8,1.9-3.2,3.1-4.4c1.2-1.3,2.4-2.5,3.2-3.9
			c1.6-2.9,2.1-6.2,2.3-9.2c0.2-3.1,0-6,0.2-8.8c0.1-2.8,0.5-5.4,1.4-7.6c1.7-4.6,5.4-6.9,7.9-7.5c1.3-0.3,2.4-0.2,3.1-0.1
			c0.3,0.1,0.6,0.2,0.8,0.2C178.3,265.9,178.3,265.9,178.3,265.9"/>
		<polygon id="XMLID_2_" class="st46" points="119.2,555.1 119,558.1 154,568 155.1,558.4 		"/>
		<polygon id="XMLID_1_" class="st46" points="183.2,561.6 184.2,566.3 221.1,572.4 219.9,564.4 		"/>
	</g>
</g>
</svg>
