<?xml version="1.0" encoding="utf-8"?>
<!-- Generator: Adobe Illustrator 24.2.1, SVG Export Plug-In . SVG Version: 6.00 Build 0)  -->
<svg version="1.1" id="Layer_1" xmlns="http://www.w3.org/2000/svg" xmlns:xlink="http://www.w3.org/1999/xlink" x="0px" y="0px"
	 viewBox="0 0 8250 3250" style="enable-background:new 0 0 8250 3250;" xml:space="preserve">
<style type="text/css">
	.st0{fill:#FFFFFF;}
	.st1{fill:#F5F5F5;}
	.st2{fill:#E0E0E0;}
	.st3{fill:#455B64;}
	.st4{fill:#263238;}
	.st5{fill:#EBEBEB;}
	.st6{fill:#FAFBFB;}
	.st7{fill:#4BAAB2;}
	.st8{fill:#E7515B;}
	.st9{fill:#338D8E;}
	.st10{clip-path:url(#SVGID_2_);}
	.st11{fill:#F3BB45;}
</style>
<rect class="st0" width="8250" height="3250"/>
<g>
	<g>
		<g>
			<g>
				<g>
					<path class="st1" d="M5930.3,2509.11c-267.72-174.91-337.74-512.86-336.87-818.62c0.14-51.04-7.13-104.61,15.73-150.11
						c22.88-45.48,78.51-77.81,124.82-57.75c38.42,16.65,56.29,60.18,78.6,95.94c29.69,47.59,72.92,86.39,123.13,110.49
						c32.99,15.84,73.48,24.89,104.98,6.22c43.22-25.63,46.52-86.55,44.63-137.26c-3.54-94.5-7.06-188.99-10.59-283.47
						c-1.89-50.69-3.65-102.47,10.62-151.09c14.27-48.62,47.73-94.41,95.55-109.43c47.83-15.01,108.34,10.95,120.07,60.27
						c4.88,20.52,1.34,42.1,3.4,63.1c2.06,21.01,12.59,43.99,32.77,49.24c20.43,5.32,40.27-9.69,54.96-25.01
						c50.75-52.83,84.21-119.89,115.36-186.52c31.15-66.63,61.28-134.78,107.03-192.1c45.75-57.32,110.07-103.62,182.56-109.99
						c72.5-6.37,151.27,36.05,171.84,106.77c20.63,70.92-18.82,144.75-62.41,204.03c-64.66,87.95-141.95,166.36-228.68,231.98
						c-15.63,11.84-32.58,24.64-38.1,43.61c-9.97,34.15,23.11,66.73,56.84,76.8c38.19,11.41,79.08,6.21,118.76,9.64
						c39.68,3.43,83.06,19.53,99.18,56.44c22.38,51.18-19.27,106.86-60.82,143.77c-83.19,73.91-178.97,133.23-281.82,174.58
						c-36.88,14.81-75.76,28.01-105.03,55.15c-29.27,27.16-46,73.29-26.72,108.44c19.3,35.2,66.3,45.17,105.15,36.7
						c38.83-8.45,73.15-30.76,109.95-45.96c68.87-28.47,159.01-26.47,205.52,32.37c30.57,38.68,34.87,93.72,21.49,141.37
						c-13.36,47.65-42.19,89.24-72.98,127.72c-107.61,134.51-247.31,244.46-407.24,305.54
						C6242.1,2543.03,6092.78,2562.87,5930.3,2509.11"/>
				</g>
			</g>
		</g>
	</g>
	<g>
		<g>
			<g>
				<g>
					<g>
						<path class="st2" d="M6003.19,2315.18c40.16-155.54,98.32-322.39,165.15-494.81c16.86-43.04,33.53-85.57,49.95-127.48
							c16.49-41.8,32.84-83.26,51.34-122.82c36.66-79.3,77.95-152.74,119.33-221.23c41.36-68.53,83.1-132.06,122.56-191.17
							c39.61-59.05,77.57-113.4,114.27-161.45c73.13-96.43,141.2-167.07,189.91-213.66c24.31-23.39,43.76-40.9,57.11-52.6
							c6.43-5.56,11.46-9.92,15.26-13.21c3.47-2.93,5.3-4.37,5.41-4.25c0.12,0.12-1.5,1.81-4.77,4.97
							c-3.64,3.46-8.49,8.05-14.64,13.9c-12.92,12.15-31.96,30.08-55.86,53.83c-47.85,47.34-114.93,118.43-187.18,215.08
							c-36.27,48.17-73.82,102.61-113.09,161.77c-39.16,59.27-80.6,122.85-121.66,191.32c-41.06,68.44-82.02,141.71-118.37,220.62
							c-18.34,39.37-34.5,80.47-51.01,122.39c-16.4,41.89-33.04,84.41-49.89,127.43c-66.76,172.29-125.02,338.64-165.53,493.6"/>
					</g>
				</g>
			</g>
		</g>
	</g>
	<g>
		<g>
			<g>
				<g>
					<g>
						<path class="st2" d="M6272.29,1569.62c-0.62,0.12-2.59-7.53-5.63-21.48c-3.1-13.93-6.92-34.22-11.26-59.37
							c-8.74-50.27-18.44-120.1-28.85-197.12c-10.41-77.07-21.07-146.56-30.55-196.55c-4.67-25.01-8.65-45.22-11.59-59.15
							c-2.86-13.96-4.14-21.76-3.52-21.93c0.62-0.16,3.09,7.33,7.04,21.06c4.02,13.69,9.01,33.75,14.51,58.67
							c11.18,49.83,22.93,119.46,33.34,196.59c10.08,76.04,19.18,144.83,26.14,197.38c3.29,23.73,6.09,43.72,8.33,59.76
							C6272.15,1561.62,6272.93,1569.51,6272.29,1569.62z"/>
					</g>
				</g>
			</g>
		</g>
	</g>
	<g>
		<g>
			<g>
				<g>
					<g>
						<path class="st2" d="M6920.45,1427.5c0.04,0.65-9.2,2.01-25.91,3.92c-16.68,2.01-40.84,4.79-70.56,9.18
							c-59.51,8.3-141.32,22.65-230.88,42.43c-89.56,19.95-169.83,41.44-227.44,58.67c-28.89,8.41-52.07,15.85-68.12,20.89
							c-16.04,5.11-25.01,7.64-25.25,7.03c-0.22-0.62,8.36-4.32,24.06-10.51c15.73-6.11,38.66-14.53,67.37-23.8
							c57.28-18.91,137.57-41.5,227.39-61.52c89.83-19.82,172.13-33.19,232.04-39.81c29.93-3.55,54.26-5.34,71.1-6.21
							C6911.09,1426.98,6920.4,1426.84,6920.45,1427.5z"/>
					</g>
				</g>
			</g>
		</g>
	</g>
	<g>
		<g>
			<g>
				<g>
					<g>
						<path class="st2" d="M6010.83,2302.93c-0.29,0.14-1.9-2.54-4.72-7.81c-3.21-6.29-7.13-13.95-11.88-23.24
							c-10.23-20.22-24.27-49.88-41.13-86.74c-33.78-73.71-77.23-176.99-123.64-291.61c-46.44-114.67-88.88-218.22-121.06-292.52
							c-15.76-36.12-28.74-65.82-38.38-87.91c-4.13-9.59-7.53-17.49-10.31-23.98c-2.26-5.52-3.32-8.49-3.02-8.65
							c0.3-0.12,1.9,2.56,4.72,7.83c3.21,6.28,7.13,13.94,11.88,23.22c10.23,20.23,24.27,49.88,41.13,86.74
							c33.78,73.71,77.23,176.99,123.66,291.66c46.42,114.63,88.86,218.17,121.05,292.49c15.78,36.1,28.74,65.82,38.38,87.89
							c4.13,9.59,7.53,17.51,10.31,23.99C6010.07,2299.83,6011.13,2302.79,6010.83,2302.93z"/>
					</g>
				</g>
			</g>
		</g>
	</g>
	<g>
		<g>
			<g>
				<g>
					<g>
						<path class="st2" d="M6868.5,1996.77c0.09,0.31-2.84,1.61-8.49,3.81c-6.7,2.48-14.93,5.52-24.9,9.22
							c-23,8.26-54.06,19.4-91.84,32.95c-77.54,27.85-184.19,67.52-301.98,111.53c-117.83,44.04-224.95,82.77-303.09,109.01
							c-39.07,13.13-70.78,23.44-92.84,30.11c-10.2,3.02-18.61,5.5-25.45,7.54c-5.85,1.62-8.98,2.32-9.07,2.01
							c-0.09-0.31,2.84-1.61,8.49-3.83c6.69-2.46,14.92-5.5,24.9-9.2c23.01-8.26,54.04-19.39,91.82-32.95
							c77.54-27.83,184.21-67.52,302.04-111.54c117.79-44.02,224.9-82.75,303.04-108.99c39.07-13.14,70.78-23.44,92.85-30.12
							c10.2-3.02,18.6-5.52,25.45-7.54C6865.27,1997.15,6868.38,1996.46,6868.5,1996.77z"/>
					</g>
				</g>
			</g>
		</g>
	</g>
</g>
<g>
	<g>
		<path class="st1" d="M3010.03,291.33c0,0-117.79,44.64,11.26,295.47c129.05,250.83,218.28,374.93,218.28,374.93
			s22.94,58.25-26.13,67.48c-49.07,9.23-157.25-7.65-178.92,52.51c-22.48,62.39,22.99,121.03,114.94,172.29
			c91.95,51.26,289.29,170.96,307.09,181.85c17.48,10.69,35.06,37.78,2.64,49.42c-32.42,11.65-275.53,37.85-256.19,152.46
			c19.34,114.61,298.97,215.32,329.32,226.92c30.36,11.6,37.65,24.42,35.23,41.07c-2.41,16.65-84.96,17.76-153.8,28.04
			c-68.84,10.29-146.86,34.28-130.16,99.47c16.7,65.19,182.59,201.71,584.43,239.72l187.35,5.42l101.41-158.61
			c196.34-352.66,177.83-566.71,133.57-617.4s-108.23,0-155.71,50.9c-47.48,50.9-95.15,118.29-110.24,110.85
			c-15.09-7.44-21.53-20.72-13.88-52.3c7.64-31.58,83.08-319.06-0.41-399.93c-83.49-80.87-242.82,104.62-270.78,124.73
			c-27.96,20.12-40.32-9.71-39.23-30.18c1.11-20.84,14.28-251.27,24.13-356.08c9.86-104.81-12.7-175.49-76.85-192.32
			c-61.86-16.23-109.24,82.48-144.64,117.69c-35.41,35.21-70.41-16.7-70.41-16.7s-51.7-143.84-185.29-392.28
			c-133.58-248.45-239.34-174.36-239.34-174.36"/>
	</g>
	<g>
		<g>
			<path class="st2" d="M4065.22,2322.42c-97.39-182.85-265.02-510.74-410.4-791.5c-145.33-280.67-277.15-534.66-373.6-717.98
				c-48.24-91.45-87.31-165.54-114.45-216.99c-13.41-25.46-23.86-45.31-31.08-59.03c-3.41-6.62-6.05-11.74-7.95-15.42
				c-1.76-3.49-2.53-5.35-2.53-5.35s1.12,1.67,3.06,5.07c2.02,3.62,4.83,8.65,8.46,15.15c7.44,13.59,18.22,33.27,32.04,58.51
				c27.77,50.84,67.43,124.69,116.09,216.13c97.39,182.85,229.79,436.56,375.12,717.23c145.38,280.76,312.42,608.93,408.87,792.25"
				/>
		</g>
	</g>
	<g>
		<g>
			<path class="st2" d="M3184.9,1111.43c0.14-0.38,4.79,0.92,13.08,3.6c8.31,2.64,20.2,6.81,34.85,12.09
				c29.28,10.63,69.34,26.34,113.23,44.47c43.22,18.04,82.3,34.35,112.19,46.83c13.51,5.54,24.9,10.21,34.07,13.97
				c8.06,3.26,12.46,5.25,12.33,5.63c-0.13,0.38-4.79-0.88-13.11-3.5c-8.3-2.67-20.2-6.83-34.8-12.27
				c-29.18-10.92-69.02-27.15-112.9-45.28c-43.32-17.72-82.51-33.75-112.48-46.01c-13.54-5.47-24.97-10.09-34.16-13.8
				C3189.14,1113.83,3184.76,1111.81,3184.9,1111.43z"/>
		</g>
	</g>
	<g>
		<g>
			<path class="st2" d="M3517.41,1226c-1.51-0.55,27.24-84.56,64.21-187.63c36.98-103.11,68.18-186.23,69.69-185.68
				c1.51,0.54-27.23,84.54-64.21,187.65C3550.12,1143.4,3518.92,1226.54,3517.41,1226z"/>
		</g>
	</g>
	<g>
		<g>
			<path class="st2" d="M3721.18,1667.15c-0.32-0.25,2.4-4.37,7.57-11.59c5.92-8.16,13.31-18.35,22.09-30.44
				c18.61-25.72,44.17-61.36,70.92-101.7c26.85-40.3,49.88-77.62,66.34-104.77c7.76-12.77,14.29-23.53,19.53-32.15
				c4.65-7.57,7.39-11.67,7.74-11.47c0.35,0.2-1.72,4.66-5.77,12.59c-4.06,7.92-10.13,19.26-17.95,33.11
				c-15.57,27.73-38.12,65.5-65.04,105.92c-26.83,40.46-52.99,75.82-72.47,100.95c-9.8,12.53-17.84,22.58-23.59,29.36
				C3724.81,1663.75,3721.5,1667.39,3721.18,1667.15z"/>
		</g>
	</g>
	<g>
		<g>
			<path class="st2" d="M3397.62,1629.72c0.04-0.4,4.59-0.32,12.8,0.17c9.43,0.72,21.02,1.6,34.68,2.63
				c29.26,2.47,69.63,6.29,114.19,10.87c44.57,4.58,84.88,9.05,114.03,12.57c13.59,1.76,25.11,3.26,34.49,4.47
				c8.13,1.19,12.61,2.03,12.57,2.43c-0.04,0.4-4.59,0.32-12.8-0.18c-9.43-0.72-21.01-1.59-34.68-2.63
				c-29.26-2.47-69.63-6.29-114.21-10.87c-44.56-4.58-84.86-9.04-114.01-12.57c-13.59-1.76-25.11-3.26-34.49-4.48
				C3402.05,1630.96,3397.58,1630.12,3397.62,1629.72z"/>
		</g>
	</g>
	<g>
		<g>
			<path class="st2" d="M3528.04,2042.03c0.04-0.4,5.87-0.24,16.37,0.39c11.58,0.84,26.52,1.92,44.45,3.21
				c37.51,2.96,89.3,7.46,146.46,12.78c57.18,5.32,108.91,10.47,146.32,14.48c17.87,2.04,32.75,3.74,44.28,5.05
				c10.44,1.32,16.2,2.24,16.16,2.64c-0.04,0.4-5.86,0.24-16.37-0.39c-11.58-0.84-26.52-1.91-44.45-3.21
				c-37.51-2.96-89.3-7.46-146.48-12.78c-57.16-5.32-108.89-10.46-146.3-14.47c-17.86-2.04-32.74-3.73-44.28-5.05
				C3533.76,2043.35,3528,2042.43,3528.04,2042.03z"/>
		</g>
	</g>
	<g>
		<g>
			<path class="st2" d="M3932.45,2076.86c-0.33-0.23,2.97-5.54,9.21-14.93c6.87-10.22,15.82-23.54,26.62-39.6
				c22.43-33.46,53.24-79.8,85.81-131.91c32.65-52.08,60.96-99.99,81.22-134.81c9.74-16.72,17.83-30.6,24.02-41.23
				c5.71-9.72,9.04-15,9.39-14.81c0.35,0.19-2.3,5.84-7.41,15.9c-5.1,10.06-12.72,24.49-22.43,42.17
				c-19.36,35.38-47.16,83.71-79.87,135.88c-32.62,52.2-64.02,98.26-87.35,131.16c-11.71,16.42-21.31,29.61-28.16,38.58
				C3936.7,2072.24,3932.78,2077.09,3932.45,2076.86z"/>
		</g>
	</g>
</g>
<g>
	<g>
		<g>
			<g>
				<g>
					<g>
						<g>
							<g>
								<g>
									<g>
										<path class="st3" d="M6067.1,2515.19H3878.76c-8.05,0-14.57-6.52-14.57-14.57V1063.36c0-8.05,6.52-14.57,14.57-14.57
											H6067.1c8.04,0,14.57,6.52,14.57,14.57v1437.26C6081.67,2508.67,6075.14,2515.19,6067.1,2515.19z"/>
									</g>
								</g>
							</g>
						</g>
						<g>
							<g>
								<g>
									<g>
										<path class="st3" d="M6162.2,2548.79H3795.32c-9.83,0-17.8-7.97-17.8-17.8v-110.51h2402.47v110.51
											C6179.99,2540.82,6172.03,2548.79,6162.2,2548.79z"/>
									</g>
								</g>
							</g>
						</g>
						<g>
							<g>
								<g>
									<g>
										<rect x="3923.71" y="1107.05" class="st4" width="2092.23" height="1238.35"/>
									</g>
								</g>
							</g>
						</g>
						<g>
							<g>
								<g>
									<g>
										<polygon class="st4" points="4754.33,2406.73 4784.14,2454.15 5203.64,2454.15 5231.33,2406.73 										"/>
									</g>
								</g>
							</g>
						</g>
					</g>
					<g>
						<g>
							<g>
								<g>
									<g>
										<g>
											<g>
												<g>
													<path class="st5" d="M5973.88,2341.44h-2003.8c-1.81,0-3.27-1.47-3.27-3.27V1152.25c0-1.81,1.47-3.27,3.27-3.27h2003.8
														c1.81,0,3.27,1.47,3.27,3.27v1185.92C5977.15,2339.97,5975.69,2341.44,5973.88,2341.44z"/>
												</g>
											</g>
										</g>
									</g>
								</g>
								<g>
									<g>
										<g>
											<g>
												<g>
													<polygon class="st6" points="5975,2343.18 3964.65,2343.18 3966.81,1238.09 5975,1238.09 													"/>
												</g>
											</g>
										</g>
									</g>
								</g>
								<g>
									<g>
										<g>
											<g>
												<g>
													<path class="st4" d="M4131.69,1195.03c0,8.87-7.19,16.06-16.06,16.06s-16.05-7.19-16.05-16.06
														c0-8.87,7.19-16.05,16.05-16.05S4131.69,1186.16,4131.69,1195.03z"/>
												</g>
											</g>
										</g>
									</g>
								</g>
								<g>
									<g>
										<g>
											<g>
												<g>
													<path class="st4" d="M4034.38,1195.03c0,8.87-7.19,16.06-16.06,16.06c-8.86,0-16.06-7.19-16.06-16.06
														c0-8.87,7.19-16.05,16.06-16.05C4027.19,1178.97,4034.38,1186.16,4034.38,1195.03z"/>
												</g>
											</g>
										</g>
									</g>
								</g>
								<g>
									<g>
										<g>
											<g>
												<g>
													<path class="st4" d="M4081.09,1195.03c0,8.87-7.19,16.06-16.06,16.06c-8.87,0-16.06-7.19-16.06-16.06
														c0-8.87,7.19-16.05,16.06-16.05C4073.9,1178.97,4081.09,1186.16,4081.09,1195.03z"/>
												</g>
											</g>
										</g>
									</g>
								</g>
							</g>
						</g>
					</g>
					<g>
						<g>
							<g>
								<g>
									<path class="st4" d="M6062.61,2406.73c0,0.79-492.17,1.44-1099.16,1.44c-607.2,0-1099.26-0.64-1099.26-1.44
										c0-0.79,492.07-1.44,1099.26-1.44C5570.44,2405.3,6062.61,2405.94,6062.61,2406.73z"/>
								</g>
							</g>
						</g>
					</g>
				</g>
			</g>
		</g>
	</g>
	<g>
		<path class="st2" d="M5228.61,2127.51c0,0.9-120.57,1.63-269.27,1.63c-148.75,0-269.3-0.73-269.3-1.63s120.55-1.63,269.3-1.63
			C5108.04,2125.88,5228.61,2126.61,5228.61,2127.51z"/>
	</g>
	<g>
		<g>
			<g>
				<g>
					<rect x="4013.3" y="1844.31" class="st1" width="599.91" height="450.91"/>
				</g>
			</g>
		</g>
		<g>
			<g>
				<g>
					<polygon class="st2" points="4013.5,2295.48 4222.78,2015.02 4352.73,2190.25 4440.68,2096.43 4613.41,2294.95 					"/>
				</g>
			</g>
		</g>
		<g>
			<g>
				<g>
					<g>
						<g>
							<path class="st2" d="M4407.65,1980.52c0.02,26.09-21.11,47.25-47.19,47.28c-26.09,0.02-47.26-21.11-47.28-47.19
								c-0.02-26.09,21.1-47.26,47.19-47.28C4386.45,1933.3,4407.62,1954.43,4407.65,1980.52z"/>
						</g>
					</g>
				</g>
			</g>
		</g>
	</g>
	<g>
		<g>
			<g>
				<g>
					<rect x="5307.71" y="1844.97" class="st1" width="599.91" height="450.91"/>
				</g>
			</g>
		</g>
		<g>
			<g>
				<g>
					<polygon class="st2" points="5307.91,2296.15 5517.2,2015.68 5647.15,2190.92 5735.1,2097.1 5907.82,2295.61 					"/>
				</g>
			</g>
		</g>
		<g>
			<g>
				<g>
					<g>
						<g>
							<path class="st2" d="M5702.06,1981.18c0.02,26.09-21.11,47.26-47.19,47.28c-26.09,0.02-47.26-21.1-47.28-47.19
								c-0.02-26.09,21.1-47.26,47.19-47.28C5680.87,1933.97,5702.03,1955.09,5702.06,1981.18z"/>
						</g>
					</g>
				</g>
			</g>
		</g>
	</g>
	<g>
		<g>
			<path class="st2" d="M5812.7,1755.36c0-0.45,6.43-0.86,16.81-1.15c10.39-0.3,24.74-0.48,40.59-0.48
				c6.16,0.03,12.1,0.05,17.64,0.08l-1.55,1.55c0.11-11.57,0.31-21.51,0.58-28.56c0.27-7.05,0.6-11.21,0.97-11.21
				s0.7,4.16,0.97,11.21c0.27,7.05,0.48,16.99,0.58,28.56l0.01,1.54l-1.56,0.01c-5.54,0.02-11.48,0.05-17.64,0.08
				c-15.85,0-30.2-0.18-40.59-0.48S5812.7,1755.81,5812.7,1755.36z"/>
		</g>
		<g>
			<path class="st2" d="M5662.61,1755.36c0-0.9,16.8-1.63,37.52-1.63c20.73,0,37.52,0.73,37.52,1.63c0,0.9-16.8,1.63-37.52,1.63
				C5679.41,1756.99,5662.61,1756.26,5662.61,1755.36z"/>
		</g>
		<g>
			<path class="st2" d="M5512.53,1755.36c0-0.9,16.8-1.63,37.52-1.63c20.73,0,37.52,0.73,37.52,1.63c0,0.9-16.8,1.63-37.52,1.63
				C5529.33,1756.99,5512.53,1756.26,5512.53,1755.36z"/>
		</g>
		<g>
			<path class="st2" d="M5362.44,1755.36c0-0.9,16.8-1.63,37.52-1.63c20.73,0,37.52,0.73,37.52,1.63c0,0.9-16.8,1.63-37.52,1.63
				C5379.24,1756.99,5362.44,1756.26,5362.44,1755.36z"/>
		</g>
		<g>
			<path class="st2" d="M5212.35,1755.36c0-0.9,16.8-1.63,37.52-1.63c20.73,0,37.52,0.73,37.52,1.63c0,0.9-16.8,1.63-37.52,1.63
				C5229.16,1756.99,5212.35,1756.26,5212.35,1755.36z"/>
		</g>
		<g>
			<path class="st2" d="M5062.27,1755.36c0-0.9,16.8-1.63,37.52-1.63c20.73,0,37.52,0.73,37.52,1.63c0,0.9-16.8,1.63-37.52,1.63
				C5079.07,1756.99,5062.27,1756.26,5062.27,1755.36z"/>
		</g>
		<g>
			<path class="st2" d="M4912.18,1755.36c0-0.9,16.8-1.63,37.52-1.63c20.73,0,37.52,0.73,37.52,1.63c0,0.9-16.8,1.63-37.52,1.63
				C4928.98,1756.99,4912.18,1756.26,4912.18,1755.36z"/>
		</g>
		<g>
			<path class="st2" d="M4762.1,1755.36c0-0.9,16.8-1.63,37.52-1.63c20.73,0,37.52,0.73,37.52,1.63c0,0.9-16.8,1.63-37.52,1.63
				C4778.9,1756.99,4762.1,1756.26,4762.1,1755.36z"/>
		</g>
		<g>
			<path class="st2" d="M4612.01,1755.36c0-0.9,16.8-1.63,37.52-1.63c20.73,0,37.52,0.73,37.52,1.63c0,0.9-16.8,1.63-37.52,1.63
				C4628.81,1756.99,4612.01,1756.26,4612.01,1755.36z"/>
		</g>
		<g>
			<path class="st2" d="M4461.92,1755.36c0-0.9,16.8-1.63,37.52-1.63c20.73,0,37.52,0.73,37.52,1.63c0,0.9-16.8,1.63-37.52,1.63
				C4478.72,1756.99,4461.92,1756.26,4461.92,1755.36z"/>
		</g>
		<g>
			<path class="st2" d="M4311.84,1755.36c0-0.9,16.8-1.63,37.52-1.63c20.73,0,37.52,0.73,37.52,1.63c0,0.9-16.8,1.63-37.52,1.63
				C4328.64,1756.99,4311.84,1756.26,4311.84,1755.36z"/>
		</g>
		<g>
			<path class="st2" d="M4161.75,1755.36c0-0.9,16.8-1.63,37.52-1.63c20.73,0,37.52,0.73,37.52,1.63c0,0.9-16.8,1.63-37.52,1.63
				C4178.55,1756.99,4161.75,1756.26,4161.75,1755.36z"/>
		</g>
		<g>
			<path class="st2" d="M4011.75,1755.27c0,0,0.03,0,0.04,0.09l-0.04-0.04c0.41-0.88,17.02-1.59,37.43-1.59
				c20.73,0,37.52,0.73,37.52,1.63c0,0.9-16.8,1.63-37.52,1.63c-20.41,0-37.02-0.71-37.43-1.59l-0.04-0.04
				C4011.73,1755.27,4011.75,1755.27,4011.75,1755.27z"/>
		</g>
		<g>
			<path class="st2" d="M4011.75,1605.18c0.9,0,1.63,16.8,1.63,37.52c0,20.73-0.73,37.52-1.63,37.52c-0.9,0-1.63-16.8-1.63-37.52
				C4010.13,1621.98,4010.85,1605.18,4011.75,1605.18z"/>
		</g>
		<g>
			<path class="st2" d="M4011.75,1455.1c0.9,0,1.63,16.8,1.63,37.52c0,20.73-0.73,37.52-1.63,37.52c-0.9,0-1.63-16.8-1.63-37.52
				C4010.13,1471.9,4010.85,1455.1,4011.75,1455.1z"/>
		</g>
		<g>
			<path class="st2" d="M4011.75,1305.01c0.9,0,1.63,16.8,1.63,37.52c0,20.73-0.73,37.52-1.63,37.52c-0.9,0-1.63-16.8-1.63-37.52
				C4010.13,1321.81,4010.85,1305.01,4011.75,1305.01z"/>
		</g>
		<g>
			<path class="st2" d="M4141.96,1285.13c0,0.9-16.8,1.63-37.52,1.63c-20.73,0-37.52-0.73-37.52-1.63s16.8-1.63,37.52-1.63
				C4125.16,1283.5,4141.96,1284.23,4141.96,1285.13z"/>
		</g>
		<g>
			<path class="st2" d="M4292.04,1285.13c0,0.9-16.8,1.63-37.52,1.63c-20.73,0-37.52-0.73-37.52-1.63s16.8-1.63,37.52-1.63
				C4275.24,1283.5,4292.04,1284.23,4292.04,1285.13z"/>
		</g>
		<g>
			<path class="st2" d="M4442.13,1285.13c0,0.9-16.8,1.63-37.52,1.63c-20.73,0-37.52-0.73-37.52-1.63s16.8-1.63,37.52-1.63
				C4425.33,1283.5,4442.13,1284.23,4442.13,1285.13z"/>
		</g>
		<g>
			<path class="st2" d="M4592.22,1285.13c0,0.9-16.8,1.63-37.52,1.63c-20.73,0-37.52-0.73-37.52-1.63s16.8-1.63,37.52-1.63
				C4575.42,1283.5,4592.22,1284.23,4592.22,1285.13z"/>
		</g>
		<g>
			<path class="st2" d="M4742.3,1285.13c0,0.9-16.8,1.63-37.52,1.63c-20.73,0-37.52-0.73-37.52-1.63s16.8-1.63,37.52-1.63
				C4725.5,1283.5,4742.3,1284.23,4742.3,1285.13z"/>
		</g>
		<g>
			<path class="st2" d="M4892.39,1285.13c0,0.9-16.8,1.63-37.52,1.63c-20.73,0-37.52-0.73-37.52-1.63s16.8-1.63,37.52-1.63
				C4875.59,1283.5,4892.39,1284.23,4892.39,1285.13z"/>
		</g>
		<g>
			<path class="st2" d="M5042.48,1285.13c0,0.9-16.8,1.63-37.52,1.63c-20.73,0-37.52-0.73-37.52-1.63s16.8-1.63,37.52-1.63
				C5025.67,1283.5,5042.48,1284.23,5042.48,1285.13z"/>
		</g>
		<g>
			<path class="st2" d="M5192.56,1285.13c0,0.9-16.8,1.63-37.52,1.63c-20.73,0-37.52-0.73-37.52-1.63s16.8-1.63,37.52-1.63
				C5175.76,1283.5,5192.56,1284.23,5192.56,1285.13z"/>
		</g>
		<g>
			<path class="st2" d="M5342.65,1285.13c0,0.9-16.8,1.63-37.52,1.63c-20.73,0-37.52-0.73-37.52-1.63s16.8-1.63,37.52-1.63
				C5325.85,1283.5,5342.65,1284.23,5342.65,1285.13z"/>
		</g>
		<g>
			<path class="st2" d="M5492.73,1285.13c0,0.9-16.8,1.63-37.52,1.63c-20.73,0-37.52-0.73-37.52-1.63s16.8-1.63,37.52-1.63
				C5475.93,1283.5,5492.73,1284.23,5492.73,1285.13z"/>
		</g>
		<g>
			<path class="st2" d="M5642.82,1285.13c0,0.9-16.8,1.63-37.52,1.63c-20.73,0-37.52-0.73-37.52-1.63s16.8-1.63,37.52-1.63
				C5626.02,1283.5,5642.82,1284.23,5642.82,1285.13z"/>
		</g>
		<g>
			<path class="st2" d="M5792.91,1285.13c0,0.9-16.8,1.63-37.52,1.63c-20.73,0-37.52-0.73-37.52-1.63s16.8-1.63,37.52-1.63
				C5776.11,1283.5,5792.91,1284.23,5792.91,1285.13z"/>
		</g>
		<g>
			<path class="st2" d="M5887.74,1340.38c-0.9,0-1.63-16.8-1.63-37.52c0.07-6.25,0.13-12.14,0.2-17.73l1.43,1.43
				c-11.82-0.28-19.79-0.81-19.79-1.43s7.97-1.16,19.79-1.43l1.42-0.03l0.02,1.47c0.06,5.59,0.13,11.48,0.19,17.73
				C5889.37,1323.58,5888.64,1340.38,5887.74,1340.38z"/>
		</g>
		<g>
			<path class="st2" d="M5887.74,1490.46c-0.9,0-1.63-16.8-1.63-37.52c0-20.73,0.73-37.52,1.63-37.52c0.9,0,1.63,16.8,1.63,37.52
				C5889.37,1473.66,5888.64,1490.46,5887.74,1490.46z"/>
		</g>
		<g>
			<path class="st2" d="M5887.74,1640.55c-0.9,0-1.63-16.8-1.63-37.52c0-20.73,0.73-37.52,1.63-37.52c0.9,0,1.63,16.8,1.63,37.52
				C5889.37,1623.75,5888.64,1640.55,5887.74,1640.55z"/>
		</g>
	</g>
	<g>
		<path class="st2" d="M5228.61,2279.56c0,0.9-120.57,1.63-269.27,1.63c-148.75,0-269.3-0.73-269.3-1.63
			c0-0.9,120.55-1.63,269.3-1.63C5108.04,2277.93,5228.61,2278.66,5228.61,2279.56z"/>
	</g>
	<g>
		<path class="st2" d="M5228.61,2209.99c0,0.9-120.57,1.63-269.27,1.63c-148.75,0-269.3-0.73-269.3-1.63
			c0-0.9,120.55-1.63,269.3-1.63C5108.04,2208.36,5228.61,2209.09,5228.61,2209.99z"/>
	</g>
</g>
<g>
	<g>
		<g>
			<g>
				<g>
					
						<rect x="5120.12" y="1721.97" transform="matrix(0.9968 -0.0801 0.0801 0.9968 -135.097 470.7224)" class="st0" width="1360.25" height="394.89"/>
					<g>
						<path class="st4" d="M6494,2061.75c-0.47-5.7-11.97-145.5-32.38-393.56l0.81,0.69c-314.7,25.39-805.6,65-1355.76,109.39
							l-0.08,0.01l1.1-1.3c10.91,135.88,21.52,268.13,31.6,393.63l-1.26-1.07c388.59-31.01,727.42-58.04,969.14-77.33
							C6348.88,2073.18,6488.31,2062.2,6494,2061.75c0,0-2.21,0.23-6.61,0.61c-4.44,0.37-11,0.93-19.61,1.65
							c-17.33,1.43-42.91,3.53-76.01,6.26c-66.36,5.41-162.89,13.28-283.7,23.13c-241.9,19.57-580.98,47.01-969.86,78.47l-1.17,0.09
							l-0.09-1.17c-10.09-125.49-20.73-257.75-31.66-393.62l-0.1-1.2l1.2-0.1l0.08-0.01c550.2-44.03,1041.12-83.31,1355.84-108.49
							l0.76-0.06l0.06,0.75C6482.59,1916.21,6493.56,2056.06,6494,2061.75z"/>
					</g>
				</g>
				<g>
					<g>
						<g>
							<g>
								
									<rect x="5153.03" y="1797.25" transform="matrix(0.9975 -0.071 0.071 0.9975 -125.4334 385.8284)" class="st7" width="428.17" height="321.82"/>
							</g>
						</g>
					</g>
					<g>
						<g>
							<g>
								<g>
									<g>
										<path class="st2" d="M6103.77,2061.62c0.06,0.66-12.27,2.24-27.53,3.53c-2.6-2.19-0.72-0.62-1.3-1.11l0-0.01l0-0.02
											l0-0.04l-0.01-0.09l-0.02-0.18l-0.03-0.36l-0.06-0.71l-0.11-1.4c-0.07-0.93-0.14-1.84-0.21-2.75
											c-0.12-1.77-0.25-3.49-0.37-5.19c-0.17-3.03-0.33-5.96-0.48-8.8c-0.21-5.02-0.17-8.14,0.17-8.16
											c0.33-0.03,0.89,3.04,1.53,8.02c0.32,2.83,0.66,5.75,1,8.76c0.17,1.7,0.33,3.42,0.51,5.18c0.08,0.91,0.17,1.82,0.25,2.74
											l0.12,1.4l0.06,0.71l0.03,0.36l0.02,0.18l0.01,0.09l0,0.04l0,0.02l0,0.01c-0.58-0.49,1.3,1.1-1.3-1.09
											C6091.3,2061.47,6103.71,2060.96,6103.77,2061.62z"/>
									</g>
									<g>
										<path class="st2" d="M6229.19,2051.03c0.06,0.66-13.94,2.38-31.25,3.85c-17.32,1.46-31.4,2.11-31.46,1.45
											c-0.06-0.66,13.94-2.38,31.26-3.85C6215.05,2051.02,6229.14,2050.37,6229.19,2051.03z"/>
									</g>
									<g>
										<path class="st2" d="M6354.61,2040.44c0.06,0.66-13.94,2.38-31.25,3.85c-17.32,1.46-31.4,2.11-31.46,1.45
											c-0.06-0.66,13.94-2.38,31.26-3.85C6340.47,2040.43,6354.56,2039.78,6354.61,2040.44z"/>
									</g>
									<g>
										<path class="st2" d="M6442.62,2005.18c0.66-0.06,2.24,12.27,3.53,27.53c-2.19,2.6-0.61,0.72-1.11,1.3l-0.01,0l-0.02,0
											l-0.04,0l-0.09,0.01l-0.18,0.02l-0.36,0.03l-0.71,0.06l-1.4,0.11c-0.92,0.07-1.84,0.14-2.75,0.21
											c-1.77,0.13-3.49,0.25-5.19,0.37c-3.03,0.17-5.96,0.33-8.8,0.48c-5.02,0.21-8.14,0.17-8.16-0.16
											c-0.03-0.33,3.04-0.89,8.02-1.53c2.83-0.32,5.75-0.66,8.76-1c1.7-0.17,3.42-0.34,5.18-0.51c0.9-0.08,1.82-0.17,2.74-0.25
											l1.4-0.12l0.71-0.06l0.36-0.03l0.18-0.02l0.09-0.01l0.04,0l0.02,0l0.01,0c-0.49,0.58,1.1-1.3-1.09,1.3
											C6442.47,2017.65,6441.96,2005.24,6442.62,2005.18z"/>
									</g>
									<g>
										<path class="st2" d="M6433.88,1901.73c0.66-0.06,2.18,11.48,3.38,25.76c1.21,14.29,1.65,25.91,0.98,25.96
											c-0.66,0.06-2.18-11.48-3.38-25.76C6433.66,1913.41,6433.22,1901.79,6433.88,1901.73z"/>
									</g>
									<g>
										<path class="st2" d="M6425.15,1798.28c0.66-0.06,2.18,11.48,3.38,25.76c1.21,14.29,1.65,25.91,0.98,25.97
											c-0.66,0.06-2.18-11.48-3.38-25.76C6424.93,1809.96,6424.49,1798.34,6425.15,1798.28z"/>
									</g>
									<g>
										<path class="st2" d="M6390.82,1721.26c-0.06-0.66,12.27-2.24,27.53-3.53c2.6,2.2,0.72,0.62,1.3,1.11l0,0.01l0,0.02l0,0.04
											l0.01,0.09l0.02,0.18l0.03,0.36l0.06,0.71l0.11,1.4c0.07,0.93,0.14,1.84,0.21,2.75c0.13,1.77,0.25,3.49,0.37,5.19
											c0.17,3.03,0.33,5.96,0.48,8.8c0.21,5.02,0.17,8.14-0.17,8.16c-0.33,0.03-0.89-3.04-1.53-8.02
											c-0.32-2.83-0.65-5.75-1-8.76c-0.17-1.7-0.34-3.42-0.51-5.18c-0.08-0.91-0.17-1.82-0.25-2.74l-0.12-1.4l-0.06-0.71
											l-0.03-0.36l-0.02-0.18l-0.01-0.09l0-0.04l0-0.02l0-0.01c0.58,0.49-1.3-1.1,1.3,1.09
											C6403.29,1721.41,6390.88,1721.92,6390.82,1721.26z"/>
									</g>
									<g>
										<path class="st2" d="M6265.4,1731.85c-0.06-0.66,13.94-2.39,31.25-3.85c17.32-1.46,31.4-2.11,31.46-1.45
											c0.06,0.66-13.94,2.38-31.26,3.85C6279.54,1731.86,6265.45,1732.51,6265.4,1731.85z"/>
									</g>
									<g>
										<path class="st2" d="M6139.98,1742.44c-0.06-0.66,13.94-2.38,31.25-3.85c17.32-1.46,31.4-2.11,31.46-1.45
											c0.06,0.66-13.94,2.38-31.26,3.85C6154.12,1742.46,6140.03,1743.1,6139.98,1742.44z"/>
									</g>
									<g>
										<path class="st2" d="M6051.97,1777.7c-0.66,0.06-2.24-12.27-3.53-27.53c2.19-2.6,0.61-0.72,1.11-1.3l0.01,0l0.02,0l0.04,0
											l0.09-0.01l0.18-0.01l0.36-0.03l0.71-0.06l1.4-0.11c0.92-0.07,1.84-0.14,2.75-0.21c1.77-0.13,3.49-0.25,5.19-0.37
											c3.03-0.17,5.96-0.33,8.8-0.48c5.02-0.21,8.14-0.17,8.16,0.16c0.03,0.33-3.04,0.89-8.02,1.53c-2.83,0.32-5.75,0.65-8.76,1
											c-1.7,0.17-3.42,0.34-5.18,0.51c-0.9,0.08-1.82,0.17-2.74,0.25l-1.4,0.12l-0.71,0.06l-0.36,0.03l-0.18,0.02l-0.09,0.01
											l-0.04,0l-0.02,0l-0.01,0c0.49-0.58-1.1,1.3,1.09-1.3C6052.12,1765.23,6052.63,1777.65,6051.97,1777.7z"/>
									</g>
									<g>
										<path class="st2" d="M6060.7,1881.15c-0.66,0.06-2.18-11.48-3.38-25.76c-1.21-14.29-1.65-25.91-0.98-25.96
											c0.66-0.06,2.18,11.48,3.38,25.76C6060.92,1869.47,6061.36,1881.09,6060.7,1881.15z"/>
									</g>
									<g>
										<path class="st2" d="M6069.44,1984.6c-0.66,0.06-2.18-11.48-3.38-25.76c-1.21-14.29-1.65-25.91-0.98-25.96
											c0.66-0.06,2.18,11.48,3.38,25.76C6069.66,1972.92,6070.1,1984.54,6069.44,1984.6z"/>
									</g>
								</g>
							</g>
						</g>
					</g>
					<g>
						<g>
							<g>
								<polygon class="st8" points="5164.99,2133.86 5299.96,1923.71 5401.25,2041.97 5459.17,1970.78 5592.08,2103.47 								"/>
							</g>
						</g>
					</g>
					<g>
						<g>
							<g>
								<g>
									<g>
										<path class="st8" d="M5429.85,1889.9c1.32,18.57-12.66,34.7-31.24,36.02c-18.57,1.32-34.7-12.66-36.02-31.24
											c-1.32-18.57,12.66-34.7,31.24-36.02C5412.4,1857.34,5428.53,1871.33,5429.85,1889.9z"/>
									</g>
								</g>
							</g>
						</g>
					</g>
					<g>
						<g>
							<g>
								<polygon class="st9" points="5164.99,2133.86 5299.96,1923.71 5401.25,2041.97 5459.17,1970.78 5592.08,2103.47 								"/>
							</g>
						</g>
					</g>
					<g>
						<g>
							<g>
								<g>
									<g>
										<path class="st3" d="M5429.85,1889.9c1.32,18.57-12.66,34.7-31.24,36.02c-18.57,1.32-34.7-12.66-36.02-31.24
											c-1.32-18.57,12.66-34.7,31.24-36.02C5412.4,1857.34,5428.53,1871.33,5429.85,1889.9z"/>
									</g>
								</g>
							</g>
						</g>
					</g>
				</g>
				<g>
					<g>
						<path class="st4" d="M6014.53,1837.77c0.06,0.66-82.97,8.87-185.43,18.32c-102.49,9.46-185.6,16.59-185.67,15.93
							c-0.06-0.66,82.95-8.86,185.44-18.33C5931.34,1844.24,6014.47,1837.11,6014.53,1837.77z"/>
					</g>
					<g>
						<path class="st4" d="M6025.27,1899.52c0.06,0.66-83.89,8.95-187.49,18.51c-103.63,9.57-187.67,16.78-187.73,16.12
							c-0.06-0.66,83.87-8.95,187.51-18.52C5941.16,1906.08,6025.21,1898.86,6025.27,1899.52z"/>
					</g>
					<g>
						<path class="st4" d="M6036.01,1961.28c0.06,0.66-84.79,9.03-189.5,18.7c-104.74,9.67-189.67,16.97-189.73,16.3
							c-0.06-0.66,84.77-9.03,189.51-18.7C5951,1967.91,6035.95,1960.61,6036.01,1961.28z"/>
					</g>
					<g>
						<path class="st4" d="M6038.23,2022.5c0.06,0.66-84.89,9.04-189.72,18.72c-104.87,9.68-189.9,16.99-189.96,16.33
							c-0.06-0.66,84.87-9.04,189.74-18.72C5953.12,2029.15,6038.17,2021.84,6038.23,2022.5z"/>
					</g>
					
						<rect x="5635.46" y="1804.74" transform="matrix(0.9968 -0.0801 0.0801 0.9968 -126.7485 465.0247)" class="st9" width="195.98" height="15.55"/>
				</g>
			</g>
			<g>
				<g>
					<path class="st2" d="M6251.64,1939.75c-0.66,0.06-3.18-22.74-5.61-50.91c-2.44-28.18-3.88-51.07-3.22-51.13
						c0.66-0.06,3.18,22.74,5.62,50.92C6250.86,1916.81,6252.3,1939.7,6251.64,1939.75z"/>
				</g>
				<g>
					<path class="st2" d="M6294.36,1886.29c0.04,0.66-21.9,2.59-48.99,4.31c-27.11,1.72-49.11,2.57-49.15,1.91
						c-0.04-0.66,21.89-2.59,49-4.31C6272.31,1886.48,6294.32,1885.63,6294.36,1886.29z"/>
				</g>
			</g>
		</g>
		<g>
			<path class="st4" d="M6462.38,1668.13c0,0-1.11-0.36-3.25-1.16c-2.19-0.84-5.35-2.04-9.46-3.62c-8.37-3.25-20.62-8.01-36.4-14.15
				c-31.68-12.42-77.52-30.4-134.44-52.72c-113.9-44.89-272.09-107.25-449.56-177.2l0.97-0.04c-18.11,8.99-37.4,18.57-56.89,28.24
				c-184.06,91.19-350.67,173.73-471.33,233.51c-60.32,29.75-109.14,53.84-142.95,70.52c-16.86,8.26-29.96,14.67-38.92,19.06
				c-4.42,2.13-7.8,3.77-10.15,4.9c-2.29,1.09-3.49,1.6-3.49,1.6s1.13-0.65,3.39-1.82c2.32-1.18,5.67-2.89,10.04-5.12
				c8.91-4.48,21.95-11.04,38.72-19.47c33.73-16.84,82.44-41.16,142.61-71.2c120.58-59.94,287.08-142.71,471.02-234.14
				c19.49-9.67,38.78-19.24,56.9-28.23l0.48-0.24l0.5,0.2c177.35,70.23,335.45,132.84,449.28,177.91
				c56.81,22.61,102.55,40.82,134.17,53.41c15.72,6.31,27.91,11.2,36.24,14.55c4.08,1.67,7.21,2.94,9.38,3.83
				C6461.32,1667.63,6462.38,1668.13,6462.38,1668.13z"/>
		</g>
	</g>
	<g>
		<path class="st4" d="M6186.3,1022.43c-7.09-15.55-25.44-22.42-40.99-15.33c-6.94,3.16-12.14,8.58-15.15,14.99l-48.31,3.99
			l48.83,96.25l30.58-56.29c3.27-0.33,6.55-1.17,9.71-2.61C6186.52,1056.34,6193.39,1037.99,6186.3,1022.43z"/>
	</g>
	<path class="st4" d="M5907.55,882.98l31.52-13.44l-76.03-19.15c-4.73-7.38-12.53-12.72-21.89-13.99
		c-16.93-2.3-32.53,9.57-34.82,26.51c-2.3,16.94,9.57,32.53,26.51,34.82c8.53,1.16,16.72-1.29,23.04-6.16l72.21,44.17
		L5907.55,882.98z"/>
	<g>
		<path class="st4" d="M6516.01,1827.86l-0.19-0.64l-521.63-972.51l-2.94-5.5l-82.21,37.45l393.46,1037.01l0.23,0.62L6537,2296.78
			l4.74-0.7l5.4-0.8l4.25-0.63l-48.46-77.06l28.3-72.97l75.02,27.77l33.04,109.3l3.93-0.58l5-0.74l4.38-0.65L6516.01,1827.86z
			 M6549.73,1985.44l-93.64-24.06l54.32-106.04L6549.73,1985.44z M6447.82,1959.26l-115.17-29.59l169.99-77.44L6447.82,1959.26z
			 M6491.31,1809.7l-119.64-33.06l49.08-98.49L6491.31,1809.7z M6363.49,1774.38l-105.33-29.11l155.03-70.63L6363.49,1774.38z
			 M6406.05,1650.74l-110.25-38.43l39.31-93.82L6406.05,1650.74z M6287.92,1609.56l-96.84-33.76l137.17-62.49L6287.92,1609.56z
			 M6319.51,1489.39l-100.36-43.35l29.72-88.36L6319.51,1489.39z M6211.48,1442.74l-85.93-37.12l116.23-52.95L6211.48,1442.74z
			 M6234.47,1330.85l-0.58,0.26l-90.27-48.8l20.07-83.41L6234.47,1330.85z M6145.6,1165.17l-78.74-52.88l10.43-74.47L6145.6,1165.17
			z M6059.18,1107.13l-63.3-42.51l73.97-33.7L6059.18,1107.13z M5992.12,879.01l66.84,124.62l-68.75-57.91L5992.12,879.01z
			 M5979.34,1034.41l-48.49-127.8l50.92,42.89L5979.34,1034.41z M5982.07,938.87l-54.58-45.98l56.64-25.8L5982.07,938.87z
			 M5989.9,956.35l66.13,55.71l-68.62,31.26L5989.9,956.35z M5994.17,1073.49l63.73,42.8l-12.8,91.41L5994.17,1073.49z
			 M6065.58,1121.45l76.57,51.42l-89.48,40.76L6065.58,1121.45z M6156.98,1191.26l-20.92,86.96l-77.73-42.02L6156.98,1191.26z
			 M6059.79,1246.45l74.25,40.14l-22.9,95.19L6059.79,1246.45z M6141.61,1290.68l82.79,44.75l-105.08,47.87L6141.61,1290.68z
			 M6123.25,1413.7l85.57,36.96l-33.62,99.96L6123.25,1413.7z M6216.48,1453.96l95.91,41.42l-129.71,59.09L6216.48,1453.96z
			 M6187.64,1583.41l97.06,33.84l-44.2,105.49L6187.64,1583.41z M6292.58,1620l105.01,36.61l-148.74,67.76L6292.58,1620z
			 M6251.65,1752.11l108.06,29.86l-54.92,110.21L6251.65,1752.11z M6367.88,1784.23l117.44,32.45l-172.85,78.75L6367.88,1784.23z
			 M6326.21,1936.61l117.73,30.24l-44.31,86.5L6326.21,1936.61z M6452.2,1968.97l96.21,24.72l-142.01,64.7L6452.2,1968.97z
			 M6497.41,2208.82l-62.89-99.99l88.9,32.91L6497.41,2208.82z M6526.43,2133.98l-99.18-36.72l-2.41-3.84l138.47-63.08l1.45,4.8
			L6526.43,2133.98z M6534.23,2136.87l34.43-88.79l34.56,114.33L6534.23,2136.87z"/>
		<g>
			<path class="st4" d="M5828.92,1314.86c0,0-0.1-2.79-0.14-8.21c-0.03-5.47-0.08-13.52-0.14-24.04
				c-0.06-21.15-0.15-52.19-0.26-91.96c-0.1-79.64-0.24-194.22-0.41-334.15l0-0.86l0.85-0.09c45.58-4.79,94.78-9.96,146.41-15.39
				l0.53-0.06l0.36,0.4c111.36,124.47,241.97,270.45,381.02,425.87c216.6,242.43,412.65,461.86,554.59,620.74
				c70.85,79.48,128.19,143.8,167.86,188.29c19.76,22.24,35.1,39.52,45.54,51.27c5.17,5.86,9.11,10.33,11.8,13.37
				c2.65,3.02,3.96,4.61,3.96,4.61s-1.43-1.48-4.14-4.45c-2.73-3.01-6.73-7.43-11.98-13.22c-10.52-11.69-25.98-28.86-45.88-50.97
				c-39.8-44.37-97.33-108.52-168.43-187.78c-142.08-158.75-338.31-378.02-555.12-620.27c-138.97-155.49-269.5-301.55-380.79-426.07
				l0.89,0.34c-51.64,5.36-100.84,10.46-146.43,15.19l0.85-0.95c-0.17,139.93-0.31,254.51-0.41,334.15
				c-0.11,39.77-0.2,70.81-0.26,91.96c-0.06,10.52-0.11,18.57-0.14,24.04C5829.01,1312.07,5828.92,1314.86,5828.92,1314.86z"/>
		</g>
		<g>
			<path class="st4" d="M5838.72,1234.44h-22.61c-0.21,0-0.38-0.17-0.38-0.38v-49.36c0-0.21,0.17-0.38,0.38-0.38h22.61
				c0.21,0,0.38,0.17,0.38,0.38v49.36C5839.11,1234.27,5838.93,1234.44,5838.72,1234.44z"/>
			<path class="st4" d="M5867.08,1242.21h-76.77c-4.72,0-8.55-3.83-8.55-8.55l0,0c0-4.72,3.83-8.55,8.55-8.55h76.77
				c4.72,0,8.55,3.83,8.55,8.55l0,0C5875.63,1238.38,5871.8,1242.21,5867.08,1242.21z"/>
			<path class="st4" d="M5834.3,1379.54l-0.29-10.95l-11.27,4.8c-0.44,4.03-0.5,8.11-0.19,12.15c0.05,0.66,0.12,1.33,0.44,1.9
				c0.55,0.99,1.69,1.45,2.73,1.89c4.84,2.06,9.33,5.44,11.62,10.17c2.29,4.73,2.68,15.01-7.64,18.66
				c-9.08,3.21-17.13-5.3-17.24-9.24c-0.05-1.87-0.02-4.55-2.61-4.8c-3.76-0.37-5.37,5.09-5.26,7.96
				c0.61,16.6,16.2,21.87,22.84,22.1c4.48,0.16,9.05-0.56,12.91-2.79c6.25-3.6,10.9-10.02,12.13-17.13
				C5856.22,1392.65,5833.11,1380.93,5834.3,1379.54z"/>
			<path class="st2" d="M5843.96,1374.11l49.06-118.08c4.44-10.68-3.41-22.44-14.98-22.44h-49.06h-49.06
				c-11.56,0-19.41,11.76-14.98,22.44l49.06,118.08C5819.55,1387.44,5838.43,1387.44,5843.96,1374.11z"/>
			<g>
				<path class="st7" d="M5784.92,1241.96l-12.68,12.68c0.12,0.48,0.02,0.97,0.22,1.44l4.15,9.98l24.1-24.1H5784.92z"/>
				<polygon class="st7" points="5832.3,1241.96 5816.51,1241.96 5781.25,1277.22 5785.88,1288.38 				"/>
				<polygon class="st7" points="5866.02,1302.98 5877.24,1275.97 5809.06,1344.16 5813.69,1355.31 				"/>
				<path class="st7" d="M5854.8,1330l-36.47,36.47l1.24,2.97c1.16,2.79,3.29,4.73,5.93,5.65l18.08-18.08L5854.8,1330z"/>
				<polygon class="st7" points="5863.88,1241.96 5848.09,1241.96 5790.52,1299.53 5795.15,1310.69 				"/>
				<path class="st7" d="M5886.26,1251.17c-0.16-1.63-0.72-3.22-1.68-4.66c-1.35-2.03-3.38-3.17-5.61-3.83l-79.17,79.17l4.63,11.16
					L5886.26,1251.17z"/>
			</g>
		</g>
		<g>
			<path class="st4" d="M7187.14,2169.01h-106.81v-47.17c0-1.46,1.18-2.64,2.64-2.64h101.53c1.46,0,2.64,1.18,2.64,2.64V2169.01z"/>
			<g>
				<path class="st4" d="M6893.6,2156.63h-17.51v-104.15c0-4.62,0.72-9.21,2.14-13.61l8.79-27.26c0.17-0.53,0.89-0.6,1.16-0.12
					l10.34,18.26l-2.73,8.46c-1.45,4.51-2.2,9.21-2.2,13.95V2156.63z"/>
			</g>
			<path class="st7" d="M7325.29,2175.6c-5.01-12.02-15.77-20.66-28.59-22.95l-438.13-0.21v-72.96c0-9.8-7.94-17.74-17.74-17.74
				h-211.68c-7.71,0-14.53,4.97-16.89,12.31l-6.32,20.06h23.55c5.51,0,10.66,2.39,14.13,6.55c3.48,4.16,4.83,9.56,3.72,14.82
				l-22.67,107.42c-1.74,8.23-9.25,14.2-17.86,14.2h-44.99c-0.56,6.83-0.22,13.73,1.23,20.49l2.5,10.73l-115.92,22.8
				c-1.89,0.37-3.38,1.83-3.79,3.71l-10.9,29.3c-0.64,1.14-1.16,2.58-1.57,4.21l-0.06,0.15h0.01c-2.35,9.69-0.62,25.87,5.22,25.87
				h124.19l-5.44,6.1l-6.99,21.8h788.99C7339.48,2311.58,7337.61,2205.19,7325.29,2175.6z M6778.55,2108.96l-11.67,105.5
				c-0.15,1.34-0.35,2.67-0.61,3.98c-4.24,21.51-24.21,36.32-46.13,36.3l-52.02-0.06c-10.21-0.01-17.81-9.45-15.64-19.43
				l24.48-126.91c1.7-8.24,9.02-14.22,17.42-14.22h70.88c3.8,0,7.43,1.62,9.96,4.45
				C6777.76,2101.39,6778.97,2105.18,6778.55,2108.96z"/>
			<g>
				<path class="st3" d="M6972.52,2434.85l-335.71,4.7c-2.18,0-6.05-6.47-6.05-8.65v-37.48c0-2.18,1.77-3.95,3.95-3.95h337.81
					c2.18,0,3.95,1.77,3.95,3.95v37.48C6976.47,2433.08,6974.7,2434.85,6972.52,2434.85z"/>
			</g>
			<g>
				<defs>
					<path id="SVGID_1_" d="M6778.55,2108.93l-11.67,105.5c-0.15,1.34-0.35,2.67-0.61,3.98c-4.24,21.51-24.21,36.32-46.13,36.3
						l-52.02-0.06c-10.21-0.01-17.81-9.45-15.64-19.43l24.48-126.91c1.7-8.24,9.02-14.22,17.42-14.22h70.88
						c3.8,0,7.43,1.62,9.96,4.45C6777.76,2101.37,6778.97,2105.16,6778.55,2108.93z"/>
				</defs>
				<use xlink:href="#SVGID_1_"  style="overflow:visible;fill:#E7515B;"/>
				<clipPath id="SVGID_2_">
					<use xlink:href="#SVGID_1_"  style="overflow:visible;"/>
				</clipPath>
				<g class="st10">
					<g>
						<path class="st8" d="M7339.59,2391.39c0.19-3.25-0.16-6.95-1.09-8.46h-787.06c-0.92,1.51-1.28,5.21-1.09,8.46H7339.59z"/>
						<g>
							<defs>
								<path id="SVGID_3_" d="M6612.25,2074.02l-47.39,147.2c-3.78,11.75-4.41,24.28-1.81,36.35l20.27,94.1h128.45h146.79v-272.21
									c0-9.8-7.94-17.74-17.74-17.74h-211.68C6621.44,2061.72,6614.61,2066.69,6612.25,2074.02z"/>
							</defs>
							<use xlink:href="#SVGID_3_"  style="overflow:visible;fill:#E7515B;"/>
							<clipPath id="SVGID_4_">
								<use xlink:href="#SVGID_3_"  style="overflow:visible;"/>
							</clipPath>
						</g>
					</g>
				</g>
			</g>
			<path class="st3" d="M6668.12,2254.67c-10.21-0.01-17.81-9.45-15.64-19.43l24.48-126.91c1.7-8.24,9.02-14.21,17.42-14.21h70.88
				c3.8,0,7.43,1.62,9.97,4.45c2.53,2.83,3.75,6.62,3.33,10.39l-11.67,105.5c-0.15,1.34-0.35,2.67-0.61,3.98
				c-4.24,21.51-24.21,36.32-46.13,36.3L6668.12,2254.67z"/>
			<path class="st3" d="M6561.84,2237.31c0.44-5.18,1.49-10.29,3.12-15.22l41.13-127.77h23.55c5.51,0,10.66,2.39,14.13,6.55
				c3.48,4.16,4.84,9.56,3.73,14.82l-22.67,107.42c-1.74,8.23-9.25,14.2-17.86,14.2H6561.84z"/>
			<path class="st4" d="M7339.96,2403.11h-788.61c-6.03,0-6.03-21.85,0-21.85h788.61
				C7345.99,2381.27,7345.99,2403.11,7339.96,2403.11z"/>
			<g>
				<path class="st4" d="M6859.25,2158.05c0.04,0,0.07,0.4,0.08,1.17c0,0.91-0.01,2.04-0.01,3.42c-0.07,3.2-0.16,7.59-0.28,13.14
					c-0.36,11.61-0.86,28.06-1.48,48.3c-0.71,20.45-1.56,44.71-2.5,71.63c-0.25,6.74-0.51,13.65-0.77,20.71
					c-0.35,7.02-0.9,14.64-4.63,21.45c-3.65,6.88-10.73,11.51-18.15,13.64c-7.48,2.23-15.34,2.69-23.16,2.73
					c-62.19-1.17-118.48-2.23-159.46-3c-20.25-0.5-36.7-0.91-48.31-1.2c-5.55-0.19-9.94-0.34-13.13-0.45
					c-1.38-0.07-2.5-0.13-3.41-0.18c-0.77-0.05-1.16-0.1-1.16-0.14c0-0.04,0.4-0.08,1.17-0.1c0.91-0.02,2.03-0.04,3.42-0.06
					c3.2,0,7.59,0,13.14,0c11.61,0.1,28.07,0.25,48.32,0.43c40.97,0.59,97.25,1.4,159.42,2.29c7.71-0.04,15.38-0.51,22.47-2.61
					c7.06-2.03,13.45-6.25,16.78-12.49c3.43-6.18,4.04-13.46,4.4-20.41c0.29-7.05,0.57-13.95,0.85-20.69
					c1.13-26.91,2.16-51.16,3.02-71.61c0.94-20.23,1.7-36.67,2.24-48.28c0.31-5.55,0.55-9.93,0.73-13.12
					c0.1-1.38,0.18-2.5,0.25-3.41C6859.15,2158.44,6859.21,2158.04,6859.25,2158.05z"/>
			</g>
			<g>
				<path class="st4" d="M6634.52,2352.77c-0.67,0-1.2-23.12-1.2-51.64c0-28.53,0.54-51.64,1.2-51.64c0.66,0,1.2,23.12,1.2,51.64
					C6635.72,2329.65,6635.18,2352.77,6634.52,2352.77z"/>
			</g>
			<g>
				<path class="st4" d="M6675.78,2062.58c0.16,0.03-0.15,2.68-0.86,7.46c-0.7,4.78-1.84,11.68-3.35,20.18
					c-3.01,17.01-7.59,40.43-13.34,66.15c-5.77,25.73-11.61,48.87-16.15,65.53c-2.26,8.33-4.17,15.06-5.58,19.68
					c-1.4,4.62-2.24,7.16-2.4,7.12c-0.16-0.04,0.38-2.66,1.5-7.36c1.24-5.1,2.87-11.79,4.83-19.86
					c4.11-16.76,9.69-39.94,15.45-65.63c5.75-25.69,10.59-49.03,14.02-65.94c1.67-8.14,3.05-14.89,4.1-20.03
					C6674.99,2065.15,6675.61,2062.55,6675.78,2062.58z"/>
			</g>
			<g>
				<path class="st8" d="M6767.07,2296.66c-0.05-0.25,1.85-0.06,4.31-1.77c1.17-0.88,2.41-2.29,2.95-4.27
					c0.45-1.93,0.45-4.57-0.83-6.68c-1.27-2.17-3.85-3.77-6.86-3.59c-3.32,0.04-6.81,0.07-10.47,0.11
					c-7.44,0.03-15.51,0.06-23.98,0.09c-3.72-0.07-6.91,3.11-7.06,6.58c-0.5,3.68,1.64,6.96,4.72,8.02
					c0.75,0.26,1.54,0.41,2.32,0.42c0.9,0.01,1.78,0.02,2.65,0.03c1.74,0.02,3.43,0.04,5.08,0.06c3.23,0.05,6.27,0.1,9.12,0.15
					c5.58,0.11,10.09,0.24,13.2,0.38C6765.35,2296.34,6767.07,2296.5,6767.07,2296.66c0,0.17-1.72,0.32-4.84,0.47
					c-3.12,0.14-7.63,0.27-13.2,0.38c-2.85,0.05-5.89,0.1-9.12,0.15c-1.65,0.02-3.34,0.04-5.08,0.06c-0.88,0.01-1.76,0.02-2.66,0.02
					c-1.01,0-2.04-0.17-3.04-0.5c-4.06-1.19-6.97-5.88-6.35-10.27c0.16-4.64,4.43-8.92,9.42-8.83c8.47,0.03,16.54,0.07,23.98,0.09
					c3.65,0.04,7.15,0.08,10.47,0.11c3.62-0.13,6.94,2.02,8.34,4.74c0.75,1.34,1.08,2.81,1.1,4.18c0.03,1.26-0.07,2.61-0.47,3.74
					c-0.77,2.3-2.33,3.81-3.72,4.66c-1.43,0.84-2.71,1.08-3.55,1.13C6767.51,2296.85,6767.07,2296.73,6767.07,2296.66z"/>
			</g>
			<g>
				<g>
					<path class="st4" d="M7288.07,2183.28c0,0.66-32.23,1.2-71.99,1.2c-39.77,0-71.99-0.54-71.99-1.2s32.23-1.2,71.99-1.2
						C7255.84,2182.07,7288.07,2182.61,7288.07,2183.28z"/>
				</g>
				<g>
					<path class="st4" d="M7288.07,2197.61c0,0.66-32.23,1.2-71.99,1.2c-39.77,0-71.99-0.54-71.99-1.2c0-0.66,32.23-1.2,71.99-1.2
						C7255.84,2196.4,7288.07,2196.94,7288.07,2197.61z"/>
				</g>
				<g>
					<path class="st4" d="M7288.07,2211.94c0,0.67-32.23,1.2-71.99,1.2c-39.77,0-71.99-0.54-71.99-1.2c0-0.66,32.23-1.2,71.99-1.2
						C7255.84,2210.73,7288.07,2211.27,7288.07,2211.94z"/>
				</g>
				<g>
					<path class="st4" d="M7288.07,2226.27c0,0.67-32.23,1.2-71.99,1.2c-39.77,0-71.99-0.54-71.99-1.2c0-0.66,32.23-1.2,71.99-1.2
						C7255.84,2225.06,7288.07,2225.6,7288.07,2226.27z"/>
				</g>
				<g>
					<path class="st4" d="M7288.07,2240.6c0,0.66-32.23,1.2-71.99,1.2c-39.77,0-71.99-0.54-71.99-1.2s32.23-1.2,71.99-1.2
						C7255.84,2239.39,7288.07,2239.93,7288.07,2240.6z"/>
				</g>
				<g>
					<path class="st4" d="M7288.07,2254.93c0,0.66-32.23,1.2-71.99,1.2c-39.77,0-71.99-0.54-71.99-1.2s32.23-1.2,71.99-1.2
						C7255.84,2253.72,7288.07,2254.26,7288.07,2254.93z"/>
				</g>
				<g>
					<path class="st4" d="M7288.07,2269.26c0,0.66-32.23,1.2-71.99,1.2c-39.77,0-71.99-0.54-71.99-1.2c0-0.66,32.23-1.2,71.99-1.2
						C7255.84,2268.05,7288.07,2268.59,7288.07,2269.26z"/>
				</g>
			</g>
			<path class="st4" d="M6470.62,2609.61c-43.22,0-79.58-41.68-79.58-84.9s38.03-79.68,81.26-79.68l696.08-31.47
				c35.98-1.63,70.52,16.82,87.31,48.68c8.85,16.79,13.48,38.14,7.76,64.51c-18.23,84.11-88.32,83.07-115.5,81.25
				C7120.77,2606.18,6470.62,2609.61,6470.62,2609.61z"/>
			<circle class="st3" cx="6470.62" cy="2524.18" r="65.02"/>
			<circle class="st3" cx="7163.99" cy="2510.97" r="84.1"/>
			<g>
				<path class="st3" d="M7173.39,2429.52c0,0.04-0.61,0.14-1.8,0.28c-1.31,0.15-3.07,0.34-5.31,0.59
					c-4.81,0.48-11.67,1.17-20.45,2.05c-17.76,1.76-43.49,4.05-75.3,6.66c-63.61,5.23-151.6,11.28-248.9,15.58
					c-97.34,4.27-185.52,5.98-249.35,6.36c-31.91,0.2-57.74,0.18-75.59-0.01c-8.82-0.11-15.72-0.19-20.55-0.25
					c-2.25-0.05-4.02-0.09-5.34-0.13c-1.2-0.04-1.82-0.08-1.82-0.12c0-0.04,0.62-0.08,1.82-0.12c1.32-0.03,3.09-0.07,5.34-0.11
					c4.83-0.05,11.73-0.12,20.55-0.2c17.98-0.18,43.76-0.43,75.57-0.75c63.81-0.82,151.96-2.8,249.26-7.06
					c97.27-4.3,185.24-10.08,248.87-14.87c31.71-2.48,57.42-4.49,75.35-5.89c8.79-0.69,15.67-1.23,20.49-1.6
					c2.25-0.15,4.02-0.27,5.33-0.36C7172.77,2429.49,7173.39,2429.48,7173.39,2429.52z"/>
			</g>
			<g>
				<path class="st3" d="M7146.64,2587.11c0,0.67-151.37,1.2-338.05,1.2c-186.75,0-338.08-0.54-338.08-1.2
					c0-0.66,151.34-1.2,338.08-1.2C6995.27,2585.91,7146.64,2586.44,7146.64,2587.11z"/>
			</g>
			<g>
				<path class="st8" d="M6586.56,2350.51c-0.35,0.07-1.95-6.24-4.8-16.37c-2.81-10.14-6.93-24.09-11.1-39.63
					c-4.2-15.53-7.36-29.82-8.69-40.33c-0.64-5.26-0.81-9.56-0.74-12.53c0.22-2.98,0.42-4.59,0.58-4.58
					c0.4,0.03-0.01,6.53,1.84,16.87c1.75,10.34,5.14,24.45,9.33,39.95c4.16,15.5,8.02,29.55,10.42,39.82
					c1.21,5.13,2.11,9.31,2.6,12.22C6586.52,2348.85,6586.73,2350.48,6586.56,2350.51z"/>
			</g>
			<g>
				<path class="st6" d="M7117.67,2562.9c-0.07,0.11-1.87-0.9-4.81-3.18c-2.95-2.27-6.89-6.04-10.84-11.43
					c-3.97-5.37-7.75-12.54-10.13-21.09c-2.39-8.53-3.18-18.51-1.28-28.64c2.04-10.1,6.51-19.06,11.93-26.07
					c5.42-7.04,11.61-12.26,17.3-15.76c5.69-3.51,10.75-5.53,14.34-6.53c3.58-1.01,5.63-1.27,5.65-1.15
					c0.2,0.53-8.15,1.85-19.06,9.1c-5.43,3.58-11.32,8.78-16.46,15.67c-5.14,6.85-9.38,15.51-11.34,25.19
					c-1.81,9.71-1.14,19.32,1.06,27.6c2.18,8.31,5.69,15.34,9.38,20.69C7110.82,2558.13,7118.06,2562.48,7117.67,2562.9z"/>
			</g>
			<g>
				<g>
					<path class="st0" d="M6752.32,2167.71c0.39,0.54-15.78,12.91-36.12,27.63c-20.34,14.73-37.14,26.22-37.53,25.68
						c-0.39-0.54,15.78-12.91,36.12-27.63C6735.13,2178.67,6751.93,2167.17,6752.32,2167.71z"/>
				</g>
				<g>
					<path class="st0" d="M6757.87,2148.09c0.38,0.54-13.71,11.06-31.47,23.48c-17.77,12.42-32.47,22.05-32.85,21.51
						c-0.38-0.54,13.71-11.05,31.48-23.48C6742.78,2157.17,6757.49,2147.54,6757.87,2148.09z"/>
				</g>
				<g>
					<path class="st0" d="M6622.35,2178.4c0.38,0.55-6.78,6.19-15.99,12.6c-9.21,6.41-16.98,11.17-17.36,10.62
						c-0.38-0.55,6.78-6.19,15.99-12.6C6614.2,2182.61,6621.97,2177.86,6622.35,2178.4z"/>
				</g>
				<g>
					<path class="st0" d="M6631.67,2160.03c0.41,0.53-7.76,7.54-18.24,15.67c-10.48,8.13-19.31,14.29-19.72,13.77
						c-0.41-0.53,7.76-7.54,18.24-15.67C6622.43,2165.67,6631.26,2159.51,6631.67,2160.03z"/>
				</g>
				<g>
					<path class="st8" d="M6776.76,2272.43c0,0.66-11.56,1.2-25.83,1.2c-14.27,0-25.83-0.54-25.83-1.2s11.56-1.2,25.83-1.2
						C6765.2,2271.23,6776.76,2271.77,6776.76,2272.43z"/>
				</g>
			</g>
			<g>
				<path class="st6" d="M6457.69,2579.36c-0.02,0.12-2.08-0.14-5.67-1.22c-3.59-1.05-8.64-3.21-14.21-6.98
					c-5.57-3.75-11.52-9.35-16.43-16.82c-4.91-7.43-8.6-16.86-9.41-27.21c-0.65-10.36,1.68-20.22,5.51-28.27
					c3.82-8.08,8.92-14.46,13.91-18.96c4.99-4.51,9.68-7.36,13.09-8.9c3.4-1.56,5.4-2.11,5.44-2c0.29,0.51-7.89,2.98-17.36,12.14
					c-4.71,4.52-9.49,10.8-13.07,18.65c-3.58,7.81-5.73,17.28-5.12,27.17c0.78,9.87,4.23,18.95,8.87,26.18
					c4.63,7.27,10.25,12.82,15.55,16.63C6449.45,2577.51,6457.91,2578.81,6457.69,2579.36z"/>
			</g>
			<g>
				<path class="st0" d="M6556.3,2322.82c0,0.66-25.07,1.2-55.99,1.2c-30.93,0-55.99-0.54-55.99-1.2s25.06-1.2,55.99-1.2
					C6531.23,2321.62,6556.3,2322.16,6556.3,2322.82z"/>
			</g>
		</g>
	</g>
	<path class="st7" d="M6051.54,953.49l-42.16-90.52c-13.04-27.99-46.3-40.11-74.29-27.08h0c-27.99,13.04-40.11,46.3-27.07,74.29
		l42.17,90.52c0.79,1.69,2.8,2.42,4.49,1.64l95.24-44.36C6051.59,957.19,6052.32,955.18,6051.54,953.49z"/>
</g>
<g>
	<rect x="3175.17" y="1736.62" class="st4" width="35.93" height="969.04"/>
	<g>
		<g>
			<g>
				<circle class="st11" cx="3193.13" cy="1562.32" r="208.91"/>
			</g>
		</g>
		<g>
			<path class="st0" d="M3381.17,1559.76c-0.06,0-0.18-1.03-0.34-3.04c-0.15-2.17-0.36-5.13-0.63-8.92
				c-0.13-1.98-0.27-4.16-0.42-6.57c-0.26-2.4-0.79-5.01-1.22-7.84c-0.91-5.66-1.78-12.23-3.96-19.37
				c-3.34-14.5-10.16-31.62-20.88-49.77c-10.81-18.07-26.39-36.94-47.6-52.94c-21.13-15.86-47.8-29.34-78.57-34.78
				c-30.56-5.25-65.06-4.29-97.91,8.19c-8.36,2.68-16.22,6.81-24.3,10.69c-3.93,2.14-7.71,4.62-11.6,6.94
				c-3.97,2.21-7.6,4.97-11.24,7.75c-7.57,5.2-14.19,11.71-21.13,17.97c-6.26,6.94-12.85,13.72-18.25,21.6
				c-11.09,15.4-20.76,32.5-26.62,51.31c-6.07,18.7-9.34,38.55-9.61,58.76c0.27,20.21,3.53,40.08,9.6,58.78
				c5.85,18.82,15.54,35.93,26.62,51.33c5.4,7.87,11.98,14.67,18.25,21.6c6.94,6.27,13.56,12.77,21.13,17.97
				c3.64,2.78,7.27,5.54,11.24,7.75c3.9,2.31,7.67,4.8,11.6,6.94c8.08,3.88,15.94,8.01,24.3,10.69
				c32.86,12.49,67.36,13.44,97.93,8.19c30.77-5.44,57.44-18.93,78.57-34.79c21.2-16.01,36.78-34.88,47.59-52.95
				c10.72-18.15,17.54-35.27,20.88-49.76c2.18-7.14,3.05-13.71,3.96-19.37c0.43-2.83,0.96-5.44,1.22-7.84
				c0.15-2.4,0.29-4.59,0.42-6.56c0.27-3.79,0.48-6.75,0.63-8.92C3381,1560.79,3381.11,1559.76,3381.17,1559.76s0.07,1.03,0.03,3.05
				c-0.07,2.18-0.16,5.15-0.27,8.96c-0.07,1.99-0.16,4.19-0.25,6.61c-0.21,2.42-0.67,5.05-1.05,7.9
				c-0.81,5.71-1.57,12.34-3.66,19.56c-3.16,14.66-9.83,32.02-20.51,50.45c-10.76,18.36-26.39,37.58-47.78,53.94
				c-21.32,16.21-48.32,30.04-79.57,35.7c-31.03,5.47-66.12,4.61-99.61-8.01c-8.52-2.71-16.53-6.89-24.77-10.83
				c-4.01-2.17-7.86-4.69-11.83-7.04c-4.04-2.25-7.75-5.05-11.47-7.87c-7.72-5.29-14.48-11.9-21.55-18.27
				c-6.4-7.05-13.11-13.97-18.63-21.98c-11.32-15.68-21.19-33.12-27.18-52.29c-6.2-19.06-9.53-39.32-9.8-59.91
				c0.27-20.59,3.61-40.84,9.81-59.89c5.99-19.17,15.86-36.6,27.18-52.28c5.52-8.01,12.23-14.92,18.63-21.97
				c7.07-6.38,13.83-12.98,21.55-18.27c3.71-2.83,7.42-5.62,11.46-7.87c3.97-2.35,7.82-4.87,11.83-7.03
				c8.23-3.94,16.25-8.12,24.76-10.83c33.49-12.61,68.57-13.47,99.6-8.01c31.25,5.66,58.25,19.49,79.57,35.7
				c21.39,16.36,37.02,35.58,47.78,53.94c10.68,18.44,17.36,35.8,20.51,50.46c2.09,7.22,2.85,13.85,3.66,19.56
				c0.38,2.86,0.85,5.48,1.05,7.91c0.09,2.42,0.17,4.62,0.25,6.61c0.12,3.81,0.21,6.78,0.27,8.96
				C3381.24,1558.72,3381.23,1559.76,3381.17,1559.76z"/>
		</g>
		<rect x="3084.36" y="1536.2" class="st6" width="217.54" height="45.39"/>
	</g>
</g>
<g>
	<g>
		<g>
			<g>
				<rect x="2917.03" y="2049.13" class="st2" width="35.65" height="655.28"/>
			</g>
			<path class="st11" d="M2970.88,2026.71c0,19.84-16.08,35.93-35.93,35.93c-19.84,0-35.93-16.08-35.93-35.93
				c0-19.84,16.08-35.93,35.93-35.93C2954.8,1990.78,2970.88,2006.86,2970.88,2026.71z"/>
		</g>
		<g>
			<g>
				<rect x="3625.39" y="2049.13" class="st2" width="35.65" height="655.28"/>
			</g>
			<path class="st11" d="M3679.24,2026.71c0,19.84-16.08,35.93-35.93,35.93c-19.84,0-35.93-16.08-35.93-35.93
				c0-19.84,16.08-35.93,35.93-35.93C3663.15,1990.78,3679.24,2006.86,3679.24,2026.71z"/>
		</g>
		<g>
			<rect x="2815.28" y="2112.36" class="st11" width="913.25" height="163.4"/>
			<polygon class="st1" points="2918.62,2112.36 2917.03,2115.07 2823.21,2275.76 2815.28,2275.76 2815.28,2112.36 			"/>
			<polygon class="st1" points="3149.45,2112.36 3053.94,2275.76 2929.16,2275.76 2967.11,2210.85 3024.66,2112.36 			"/>
			<polygon class="st1" points="3380.19,2112.36 3284.68,2275.76 3159.89,2275.76 3255.4,2112.36 			"/>
			<polygon class="st1" points="3610.91,2112.4 3515.38,2275.76 3390.61,2275.76 3486.14,2112.4 			"/>
			<polygon class="st1" points="3728.53,2112.4 3728.53,2275.76 3621.35,2275.76 3716.88,2112.4 			"/>
		</g>
		<g>
			<rect x="2815.28" y="2364.8" class="st11" width="913.25" height="163.4"/>
			<polygon class="st1" points="2918.62,2364.8 2917.03,2367.5 2823.21,2528.2 2815.28,2528.2 2815.28,2364.8 			"/>
			<polygon class="st1" points="3149.45,2364.8 3053.94,2528.2 2929.16,2528.2 2967.11,2463.28 3024.66,2364.8 			"/>
			<polygon class="st1" points="3380.19,2364.8 3284.68,2528.2 3159.89,2528.2 3255.4,2364.8 			"/>
			<polygon class="st1" points="3610.91,2364.83 3515.38,2528.2 3390.61,2528.2 3486.14,2364.83 			"/>
			<polygon class="st1" points="3728.53,2364.83 3728.53,2528.2 3621.35,2528.2 3716.88,2364.83 			"/>
		</g>
	</g>
	<g>
		<path class="st4" d="M3728.53,2275.76c0,0-0.06-0.98-0.09-2.82c-0.02-1.93-0.06-4.63-0.1-8.17c-0.05-7.28-0.13-17.9-0.23-31.76
			c-0.12-27.82-0.3-68.54-0.53-120.65l0.95,0.95c-187.23,0.18-526.39,0.49-913.2,0.86h-0.05l1.81-1.81
			c-0.01,55.97-0.01,110.95-0.02,163.4l-1.78-1.78c258.58,0.31,486.63,0.59,650.15,0.79c81.82,0.22,147.47,0.4,192.79,0.52
			c22.6,0.1,40.1,0.19,52.08,0.24c5.89,0.05,10.4,0.09,13.55,0.12C3726.91,2275.68,3728.53,2275.76,3728.53,2275.76
			s-1.47,0.08-4.45,0.12c-3.1,0.03-7.53,0.07-13.32,0.12c-11.89,0.06-29.26,0.14-51.68,0.24c-45.22,0.12-110.73,0.3-192.37,0.52
			c-163.84,0.2-392.34,0.47-651.42,0.79l-1.79,0l0-1.79c-0.01-52.45-0.01-107.43-0.02-163.4v-1.81h1.81h0.05
			c386.81,0.36,725.97,0.68,913.2,0.86l0.95,0l0,0.95c-0.23,52.36-0.41,93.26-0.53,121.21c-0.1,13.77-0.18,24.32-0.23,31.54
			c-0.04,3.47-0.07,6.12-0.1,8.01C3728.6,2274.91,3728.53,2275.76,3728.53,2275.76z"/>
	</g>
	<g>
		<path class="st4" d="M3728.53,2528.2c0,0-0.06-0.98-0.09-2.82c-0.02-1.93-0.06-4.63-0.1-8.17c-0.05-7.28-0.13-17.9-0.23-31.76
			c-0.12-27.81-0.3-68.53-0.53-120.65l0.95,0.95c-187.23,0.18-526.39,0.49-913.2,0.86h-0.05l1.81-1.81
			c-0.01,55.97-0.01,110.95-0.02,163.4l-1.78-1.78c258.58,0.31,486.63,0.59,650.15,0.79c81.82,0.22,147.47,0.4,192.79,0.52
			c22.6,0.1,40.1,0.19,52.08,0.24c5.89,0.05,10.4,0.09,13.55,0.12C3726.91,2528.12,3728.53,2528.2,3728.53,2528.2
			s-1.47,0.08-4.45,0.12c-3.1,0.03-7.53,0.07-13.32,0.12c-11.89,0.06-29.26,0.14-51.68,0.24c-45.22,0.12-110.73,0.3-192.37,0.52
			c-163.84,0.2-392.34,0.47-651.42,0.79l-1.79,0l0-1.79c-0.01-52.45-0.01-107.42-0.02-163.4v-1.81h1.81h0.05
			c386.81,0.36,725.97,0.68,913.2,0.86l0.95,0l0,0.95c-0.23,52.36-0.41,93.26-0.53,121.21c-0.1,13.77-0.18,24.32-0.23,31.54
			c-0.04,3.47-0.07,6.12-0.1,8.01C3728.6,2527.34,3728.53,2528.2,3728.53,2528.2z"/>
	</g>
</g>
<g>
	<g>
		<path d="M290.2,2299.32h-31.19v84.82h-20.98v-84.82h-30.77v-16.99h82.93V2299.32z"/>
		<path d="M320.55,2316.74c2.52-3.03,5.46-5.4,8.85-7.1c3.38-1.7,7.17-2.55,11.36-2.55c3.73,0,7.13,0.52,10.21,1.57
			s5.71,2.75,7.9,5.1c2.19,2.35,3.88,5.4,5.07,9.13c1.19,3.73,1.78,8.25,1.78,13.57v47.69h-20.21v-47.83c0-2.42-0.27-4.45-0.8-6.08
			c-0.54-1.63-1.32-2.95-2.34-3.95c-1.03-1-2.3-1.71-3.81-2.13c-1.52-0.42-3.23-0.63-5.14-0.63c-3.17,0-5.8,0.62-7.9,1.85
			c-2.1,1.24-3.75,2.9-4.96,5v53.77h-20.21v-107.4h20.21V2316.74z"/>
		<path d="M380.83,2288.91c0-3.03,1.01-5.52,3.04-7.48s4.79-2.94,8.29-2.94c1.72,0,3.29,0.26,4.69,0.77
			c1.4,0.51,2.59,1.24,3.57,2.17c0.98,0.93,1.74,2.04,2.27,3.32c0.54,1.28,0.8,2.67,0.8,4.16c0,1.54-0.27,2.95-0.8,4.23
			c-0.54,1.28-1.29,2.39-2.27,3.32s-2.17,1.66-3.57,2.17c-1.4,0.51-2.96,0.77-4.69,0.77c-1.73,0-3.29-0.26-4.69-0.77
			c-1.4-0.51-2.59-1.23-3.57-2.17c-0.98-0.93-1.74-2.04-2.27-3.32C381.1,2291.85,380.83,2290.44,380.83,2288.91z M402.29,2384.14
			h-20.28v-75.66h20.28V2384.14z"/>
		<path d="M459.91,2363.23c0-1.07-0.21-2.05-0.63-2.94c-0.42-0.88-1.21-1.71-2.38-2.48c-1.17-0.77-2.75-1.5-4.75-2.2
			c-2-0.7-4.59-1.38-7.76-2.03c-3.87-0.84-7.45-1.89-10.73-3.15c-3.29-1.26-6.13-2.82-8.53-4.68c-2.4-1.86-4.28-4.03-5.63-6.5
			c-1.35-2.47-2.03-5.34-2.03-8.6c0-3.17,0.69-6.18,2.06-9.02c1.37-2.84,3.36-5.35,5.94-7.52c2.59-2.17,5.76-3.88,9.51-5.14
			c3.75-1.26,7.98-1.89,12.69-1.89c4.9,0,9.3,0.61,13.22,1.82c3.92,1.21,7.24,2.9,9.96,5.07c2.73,2.17,4.82,4.74,6.29,7.73
			c1.47,2.98,2.2,6.25,2.2,9.79h-20.21c0-2.89-0.93-5.28-2.8-7.17c-1.87-1.89-4.78-2.83-8.74-2.83c-3.4,0-6.04,0.77-7.9,2.31
			c-1.87,1.54-2.8,3.5-2.8,5.87c0,1.12,0.24,2.11,0.73,2.97c0.49,0.86,1.28,1.66,2.38,2.38c1.09,0.72,2.54,1.39,4.34,1.99
			c1.79,0.61,4,1.17,6.61,1.68c4.1,0.79,7.9,1.77,11.4,2.94c3.5,1.17,6.51,2.67,9.06,4.51c2.54,1.84,4.53,4.08,5.98,6.71
			c1.44,2.63,2.17,5.82,2.17,9.54c0,3.36-0.75,6.45-2.24,9.27c-1.49,2.82-3.63,5.26-6.4,7.31c-2.77,2.05-6.12,3.66-10.03,4.83
			c-3.92,1.16-8.3,1.75-13.15,1.75c-5.31,0-10-0.75-14.06-2.24c-4.06-1.49-7.47-3.45-10.24-5.87c-2.77-2.42-4.86-5.15-6.26-8.18
			c-1.4-3.03-2.1-6.08-2.1-9.16h19.16c0.09,1.96,0.52,3.65,1.29,5.07s1.78,2.58,3.04,3.46c1.26,0.89,2.71,1.54,4.37,1.96
			c1.65,0.42,3.39,0.63,5.21,0.63c3.87,0,6.79-0.73,8.78-2.2C458.92,2367.54,459.91,2365.61,459.91,2363.23z"/>
		<path d="M608.85,2354.77l13.71-72.44h20.91l-22.59,101.81h-21.12l-16.57-68.11l-16.57,68.11H545.5l-22.59-101.81h20.91l13.77,72.3
			l16.78-72.3h17.76L608.85,2354.77z"/>
		<path d="M686.12,2385.54c-5.87,0-11.13-0.96-15.77-2.87c-4.64-1.91-8.58-4.52-11.82-7.83c-3.24-3.31-5.71-7.19-7.41-11.64
			c-1.7-4.45-2.55-9.22-2.55-14.3v-2.73c0-5.73,0.83-10.99,2.48-15.77c1.65-4.78,4.01-8.89,7.06-12.34
			c3.05-3.45,6.76-6.14,11.12-8.08c4.36-1.93,9.24-2.9,14.65-2.9c5.45,0,10.25,0.9,14.4,2.69c4.15,1.79,7.63,4.31,10.45,7.55
			c2.82,3.24,4.94,7.14,6.36,11.71c1.42,4.57,2.13,9.65,2.13,15.24v8.6h-48.18c0.33,2.47,0.99,4.71,1.99,6.71
			c1,2,2.28,3.72,3.85,5.14c1.56,1.42,3.39,2.53,5.49,3.32c2.1,0.79,4.45,1.19,7.06,1.19c3.68,0,7.09-0.69,10.21-2.06
			c3.12-1.37,5.8-3.51,8.04-6.4l9.93,11.12c-1.21,1.73-2.73,3.4-4.54,5.04c-1.82,1.63-3.96,3.09-6.43,4.37
			c-2.47,1.28-5.26,2.31-8.36,3.08C693.19,2385.16,689.8,2385.54,686.12,2385.54z M683.81,2323.45c-2.19,0-4.11,0.38-5.77,1.15
			c-1.66,0.77-3.08,1.84-4.27,3.22c-1.19,1.38-2.16,3.02-2.9,4.93c-0.75,1.91-1.28,4.03-1.61,6.36h28.11v-1.61
			c-0.05-2-0.34-3.87-0.87-5.59c-0.54-1.72-1.35-3.22-2.45-4.47c-1.1-1.26-2.49-2.24-4.2-2.94
			C688.16,2323.8,686.14,2323.45,683.81,2323.45z"/>
		<path d="M796.88,2347.01c0,5.69-0.61,10.88-1.82,15.59c-1.21,4.71-3.04,8.76-5.49,12.17c-2.45,3.4-5.51,6.05-9.19,7.94
			c-3.68,1.89-8,2.83-12.94,2.83c-4.38,0-8.17-0.83-11.36-2.48c-3.19-1.65-5.96-3.97-8.29-6.96l-0.91,8.04H728.7v-107.4h20.21v38.53
			c2.24-2.61,4.86-4.63,7.87-6.05c3.01-1.42,6.51-2.13,10.52-2.13c4.94,0,9.27,0.96,12.97,2.87c3.71,1.91,6.79,4.57,9.27,7.97
			c2.47,3.4,4.31,7.46,5.52,12.17c1.21,4.71,1.82,9.86,1.82,15.45V2347.01z M776.67,2345.54c0-2.98-0.21-5.81-0.63-8.5
			c-0.42-2.68-1.18-5.02-2.27-7.03c-1.1-2-2.58-3.59-4.44-4.75c-1.86-1.17-4.24-1.75-7.13-1.75c-3.4,0-6.18,0.69-8.32,2.06
			c-2.14,1.38-3.8,3.32-4.96,5.84v29.86c1.17,2.52,2.82,4.47,4.96,5.87c2.14,1.4,4.96,2.1,8.46,2.1c2.84,0,5.19-0.56,7.03-1.68
			c1.84-1.12,3.31-2.66,4.41-4.62c1.09-1.96,1.85-4.3,2.27-7.03c0.42-2.73,0.63-5.7,0.63-8.92V2345.54z"/>
		<path d="M867.29,2348.27v35.87h-20.98v-101.81h39.72c6.01,0,11.39,0.84,16.12,2.52c4.73,1.68,8.74,4.02,12.03,7.03
			s5.79,6.57,7.52,10.7c1.72,4.13,2.59,8.61,2.59,13.46c0,4.94-0.86,9.39-2.59,13.36c-1.73,3.96-4.23,7.34-7.52,10.14
			s-7.3,4.95-12.03,6.47c-4.73,1.52-10.1,2.27-16.12,2.27H867.29z M867.29,2331.28h18.74c2.98,0,5.56-0.37,7.73-1.12
			c2.17-0.75,3.94-1.78,5.31-3.11c1.37-1.33,2.39-2.92,3.04-4.79c0.65-1.86,0.98-3.89,0.98-6.08c0-2.19-0.33-4.3-0.98-6.33
			c-0.65-2.03-1.67-3.82-3.04-5.38c-1.38-1.56-3.15-2.81-5.31-3.74c-2.17-0.93-4.74-1.4-7.73-1.4h-18.74V2331.28z"/>
		<path d="M980.43,2384.14c-0.93-1.82-1.61-4.08-2.03-6.78c-2.05,2.29-4.63,4.22-7.73,5.8c-3.1,1.58-6.89,2.38-11.36,2.38
			c-3.64,0-7.03-0.56-10.17-1.68c-3.15-1.12-5.87-2.68-8.18-4.68c-2.31-2-4.11-4.39-5.42-7.17c-1.31-2.77-1.96-5.82-1.96-9.13
			c0-3.96,0.73-7.48,2.2-10.56c1.47-3.08,3.67-5.69,6.61-7.83c2.94-2.14,6.58-3.78,10.94-4.89c4.36-1.12,9.43-1.68,15.21-1.68h9.02
			v-4.33c0-3.5-0.9-6.29-2.69-8.39c-1.79-2.1-4.63-3.15-8.5-3.15c-3.4,0-6.07,0.82-8.01,2.45c-1.93,1.63-2.9,3.87-2.9,6.71h-20.21
			c0-3.26,0.76-6.36,2.27-9.3c1.51-2.94,3.67-5.5,6.47-7.69c2.8-2.19,6.18-3.93,10.14-5.21c3.96-1.28,8.39-1.92,13.29-1.92
			c4.38,0,8.44,0.56,12.17,1.68c3.73,1.12,6.95,2.79,9.65,5c2.7,2.21,4.81,4.99,6.33,8.32c1.51,3.33,2.27,7.21,2.27,11.64v32.03
			c0,2.14,0.07,4.07,0.21,5.77c0.14,1.7,0.33,3.24,0.56,4.62c0.23,1.38,0.54,2.61,0.91,3.71c0.37,1.1,0.81,2.13,1.33,3.11v1.19
			H980.43z M963.72,2370.09c1.72,0,3.32-0.21,4.79-0.63c1.47-0.42,2.79-0.97,3.95-1.64c1.17-0.67,2.18-1.46,3.04-2.34
			c0.86-0.88,1.55-1.79,2.06-2.73v-13.01h-8.32c-2.66,0-4.96,0.29-6.92,0.87c-1.96,0.58-3.57,1.4-4.83,2.45
			c-1.26,1.05-2.19,2.29-2.8,3.71c-0.61,1.42-0.91,2.97-0.91,4.65c0,2.52,0.89,4.59,2.66,6.22
			C958.22,2369.27,960.64,2370.09,963.72,2370.09z"/>
		<path d="M1010.43,2345.75c0-5.73,0.71-10.98,2.13-15.73c1.42-4.75,3.45-8.83,6.08-12.24c2.63-3.4,5.84-6.04,9.61-7.9
			c3.78-1.86,8.04-2.8,12.8-2.8c4.43,0,8.22,0.75,11.36,2.24c3.15,1.49,5.81,3.59,8.01,6.29l0.84-7.13h18.32v73.07
			c0,5.17-0.89,9.77-2.66,13.78c-1.77,4.01-4.25,7.4-7.45,10.17c-3.19,2.77-7.02,4.87-11.47,6.29c-4.45,1.42-9.38,2.13-14.79,2.13
			c-2.33,0-4.8-0.23-7.41-0.7c-2.61-0.47-5.19-1.19-7.73-2.17c-2.54-0.98-4.95-2.21-7.24-3.71c-2.28-1.49-4.22-3.26-5.8-5.31
			l8.95-12.31c2.38,2.66,5.09,4.73,8.15,6.22c3.05,1.49,6.44,2.24,10.17,2.24c5.36,0,9.53-1.43,12.52-4.3
			c2.98-2.87,4.48-6.93,4.48-12.2v-4.06c-2.24,2.52-4.87,4.46-7.9,5.84c-3.03,1.37-6.53,2.06-10.49,2.06
			c-4.71,0-8.94-0.97-12.69-2.9c-3.75-1.93-6.95-4.6-9.58-8.01c-2.63-3.4-4.66-7.45-6.08-12.13c-1.42-4.69-2.13-9.78-2.13-15.28
			V2345.75z M1030.64,2347.22c0,3.08,0.3,5.94,0.91,8.6c0.61,2.66,1.55,4.98,2.83,6.96c1.28,1.98,2.89,3.54,4.82,4.68
			c1.93,1.14,4.23,1.71,6.89,1.71c3.22,0,5.91-0.61,8.08-1.82c2.17-1.21,3.88-2.91,5.14-5.1v-31.82c-1.31-2.24-3.02-3.95-5.14-5.14
			c-2.12-1.19-4.77-1.78-7.94-1.78c-2.66,0-4.95,0.57-6.89,1.71c-1.94,1.14-3.56,2.72-4.86,4.72c-1.31,2-2.27,4.36-2.9,7.06
			c-0.63,2.7-0.94,5.62-0.94,8.74V2347.22z"/>
		<path d="M1129.93,2385.54c-5.87,0-11.13-0.96-15.77-2.87c-4.64-1.91-8.58-4.52-11.82-7.83c-3.24-3.31-5.71-7.19-7.41-11.64
			c-1.7-4.45-2.55-9.22-2.55-14.3v-2.73c0-5.73,0.83-10.99,2.48-15.77c1.65-4.78,4.01-8.89,7.06-12.34
			c3.05-3.45,6.76-6.14,11.12-8.08c4.36-1.93,9.24-2.9,14.65-2.9c5.45,0,10.25,0.9,14.4,2.69c4.15,1.79,7.63,4.31,10.45,7.55
			c2.82,3.24,4.94,7.14,6.36,11.71c1.42,4.57,2.13,9.65,2.13,15.24v8.6h-48.18c0.33,2.47,0.99,4.71,1.99,6.71
			c1,2,2.28,3.72,3.85,5.14c1.56,1.42,3.39,2.53,5.49,3.32c2.1,0.79,4.45,1.19,7.06,1.19c3.68,0,7.09-0.69,10.21-2.06
			c3.12-1.37,5.8-3.51,8.04-6.4l9.93,11.12c-1.21,1.73-2.73,3.4-4.54,5.04c-1.82,1.63-3.96,3.09-6.43,4.37
			c-2.47,1.28-5.26,2.31-8.36,3.08C1137,2385.16,1133.61,2385.54,1129.93,2385.54z M1127.62,2323.45c-2.19,0-4.11,0.38-5.77,1.15
			c-1.66,0.77-3.08,1.84-4.27,3.22c-1.19,1.38-2.16,3.02-2.9,4.93c-0.75,1.91-1.28,4.03-1.61,6.36h28.11v-1.61
			c-0.05-2-0.34-3.87-0.87-5.59c-0.54-1.72-1.35-3.22-2.45-4.47c-1.1-1.26-2.49-2.24-4.2-2.94
			C1131.97,2323.8,1129.95,2323.45,1127.62,2323.45z"/>
		<path d="M1208.04,2288.91c0-3.03,1.01-5.52,3.04-7.48s4.79-2.94,8.29-2.94c1.72,0,3.29,0.26,4.69,0.77
			c1.4,0.51,2.59,1.24,3.57,2.17c0.98,0.93,1.74,2.04,2.27,3.32c0.54,1.28,0.8,2.67,0.8,4.16c0,1.54-0.27,2.95-0.8,4.23
			c-0.54,1.28-1.29,2.39-2.27,3.32s-2.17,1.66-3.57,2.17c-1.4,0.51-2.96,0.77-4.69,0.77c-1.73,0-3.29-0.26-4.69-0.77
			c-1.4-0.51-2.59-1.23-3.57-2.17c-0.98-0.93-1.74-2.04-2.27-3.32C1208.3,2291.85,1208.04,2290.44,1208.04,2288.91z M1229.5,2384.14
			h-20.28v-75.66h20.28V2384.14z"/>
		<path d="M1287.12,2363.23c0-1.07-0.21-2.05-0.63-2.94c-0.42-0.88-1.21-1.71-2.38-2.48c-1.17-0.77-2.75-1.5-4.75-2.2
			c-2-0.7-4.59-1.38-7.76-2.03c-3.87-0.84-7.45-1.89-10.73-3.15c-3.29-1.26-6.13-2.82-8.53-4.68c-2.4-1.86-4.28-4.03-5.63-6.5
			c-1.35-2.47-2.03-5.34-2.03-8.6c0-3.17,0.69-6.18,2.06-9.02c1.37-2.84,3.36-5.35,5.94-7.52c2.59-2.17,5.76-3.88,9.51-5.14
			c3.75-1.26,7.98-1.89,12.69-1.89c4.9,0,9.3,0.61,13.22,1.82c3.92,1.21,7.24,2.9,9.96,5.07c2.73,2.17,4.82,4.74,6.29,7.73
			c1.47,2.98,2.2,6.25,2.2,9.79h-20.21c0-2.89-0.93-5.28-2.8-7.17c-1.87-1.89-4.78-2.83-8.74-2.83c-3.4,0-6.04,0.77-7.9,2.31
			c-1.87,1.54-2.8,3.5-2.8,5.87c0,1.12,0.24,2.11,0.73,2.97c0.49,0.86,1.28,1.66,2.38,2.38c1.09,0.72,2.54,1.39,4.34,1.99
			c1.79,0.61,4,1.17,6.61,1.68c4.1,0.79,7.9,1.77,11.4,2.94c3.5,1.17,6.51,2.67,9.06,4.51c2.54,1.84,4.53,4.08,5.98,6.71
			c1.44,2.63,2.17,5.82,2.17,9.54c0,3.36-0.75,6.45-2.24,9.27c-1.49,2.82-3.63,5.26-6.4,7.31c-2.77,2.05-6.12,3.66-10.03,4.83
			c-3.92,1.16-8.3,1.75-13.15,1.75c-5.31,0-10-0.75-14.06-2.24c-4.06-1.49-7.47-3.45-10.24-5.87c-2.77-2.42-4.86-5.15-6.26-8.18
			c-1.4-3.03-2.1-6.08-2.1-9.16h19.16c0.09,1.96,0.52,3.65,1.29,5.07s1.78,2.58,3.04,3.46c1.26,0.89,2.71,1.54,4.37,1.96
			c1.65,0.42,3.39,0.63,5.21,0.63c3.87,0,6.79-0.73,8.78-2.2C1286.13,2367.54,1287.12,2365.61,1287.12,2363.23z"/>
	</g>
</g>
<g>
	<path class="st11" d="M349.39,2523.71v120.09c0,10.5-1.75,19.77-5.25,27.8c-3.5,8.04-8.33,14.77-14.5,20.18
		c-6.17,5.42-13.52,9.5-22.06,12.25c-8.54,2.75-17.85,4.12-27.93,4.12c-10.17,0-19.52-1.37-28.06-4.12
		c-8.54-2.75-15.89-6.83-22.06-12.25c-6.17-5.42-10.98-12.14-14.43-20.18c-3.46-8.04-5.19-17.31-5.19-27.8v-120.09h37.49v120.09
		c0,11.91,2.85,20.6,8.56,26.06c5.71,5.46,13.6,8.18,23.68,8.18c10.16,0,18.06-2.73,23.68-8.18c5.62-5.46,8.44-14.14,8.44-26.06
		v-120.09H349.39z"/>
	<path class="st11" d="M411,2570.45l1.12,15.62c4.67-5.83,10.29-10.31,16.87-13.43c6.58-3.12,13.91-4.69,21.99-4.69
		c6.41,0,12.25,0.9,17.5,2.69c5.25,1.79,9.75,4.73,13.5,8.81c3.75,4.08,6.64,9.42,8.69,16c2.04,6.58,3.06,14.66,3.06,24.24v85.98
		h-36.12v-86.23c0-4.33-0.48-7.91-1.44-10.75c-0.96-2.83-2.35-5.08-4.19-6.75c-1.83-1.67-4.08-2.85-6.75-3.56
		c-2.67-0.71-5.75-1.06-9.25-1.06c-5.33,0-9.89,1.17-13.68,3.5c-3.79,2.33-6.85,5.5-9.19,9.5v95.35h-36.12v-135.21H411z"/>
	<path class="st11" d="M515.47,2637.05c0-10.25,1.19-19.62,3.56-28.12c2.37-8.5,5.81-15.79,10.31-21.87
		c4.5-6.08,10.04-10.79,16.62-14.12c6.58-3.33,14.08-5,22.49-5c6.91,0,13.06,1.29,18.43,3.87c5.37,2.58,10.1,6.21,14.18,10.87
		v-68.98h36.24v191.95H604.7l-1.75-14.37c-4.25,5.33-9.21,9.48-14.87,12.43c-5.67,2.96-12.29,4.44-19.87,4.44
		c-8.33,0-15.77-1.73-22.31-5.19c-6.54-3.46-12.06-8.23-16.56-14.31c-4.5-6.08-7.94-13.31-10.31-21.68
		c-2.37-8.37-3.56-17.47-3.56-27.3V2637.05z M551.59,2639.68c0,5.5,0.46,10.62,1.37,15.37c0.92,4.75,2.39,8.89,4.44,12.43
		c2.04,3.54,4.71,6.33,8,8.37c3.29,2.04,7.31,3.06,12.06,3.06c5.83,0,10.68-1.25,14.56-3.75c3.87-2.5,6.89-5.96,9.06-10.37v-53.36
		c-2.17-4.5-5.19-7.98-9.06-10.44c-3.87-2.46-8.64-3.69-14.31-3.69c-4.75,0-8.79,1.02-12.12,3.06c-3.33,2.04-6.02,4.85-8.06,8.43
		c-2.04,3.58-3.54,7.79-4.5,12.62c-0.96,4.83-1.44,10.04-1.44,15.62V2639.68z"/>
	<path class="st11" d="M727.54,2708.16c-10.5,0-19.89-1.71-28.18-5.12c-8.29-3.42-15.33-8.08-21.12-14
		c-5.79-5.91-10.21-12.85-13.25-20.81c-3.04-7.96-4.56-16.47-4.56-25.56v-4.87c0-10.25,1.48-19.64,4.44-28.18
		c2.96-8.54,7.16-15.89,12.62-22.06c5.46-6.16,12.08-10.98,19.87-14.43c7.79-3.46,16.52-5.19,26.18-5.19
		c9.75,0,18.33,1.61,25.74,4.81c7.41,3.21,13.64,7.71,18.68,13.5c5.04,5.79,8.83,12.77,11.37,20.93c2.54,8.17,3.81,17.25,3.81,27.24
		v15.37h-86.1c0.58,4.42,1.77,8.42,3.56,12c1.79,3.58,4.08,6.64,6.87,9.18c2.79,2.54,6.06,4.52,9.81,5.94
		c3.75,1.42,7.95,2.12,12.62,2.12c6.58,0,12.66-1.23,18.25-3.69c5.58-2.46,10.37-6.27,14.37-11.43l17.75,19.87
		c-2.17,3.08-4.87,6.08-8.12,9c-3.25,2.92-7.08,5.52-11.5,7.81c-4.42,2.29-9.39,4.12-14.93,5.5
		C740.18,2707.47,734.12,2708.16,727.54,2708.16z M723.42,2597.19c-3.92,0-7.35,0.69-10.31,2.06c-2.96,1.38-5.5,3.29-7.62,5.75
		c-2.12,2.46-3.85,5.4-5.19,8.81c-1.33,3.42-2.29,7.21-2.87,11.37h50.24v-2.87c-0.08-3.58-0.61-6.91-1.56-10
		c-0.96-3.08-2.42-5.75-4.37-8c-1.96-2.25-4.46-4-7.5-5.25C731.18,2597.81,727.58,2597.19,723.42,2597.19z"/>
	<path class="st11" d="M879.63,2604.31c-1.83-0.25-3.98-0.48-6.44-0.69c-2.46-0.21-4.65-0.31-6.56-0.31
		c-7.08,0-12.81,1.19-17.18,3.56c-4.37,2.37-7.6,5.81-9.69,10.31v88.48h-36.12v-135.21h34.12l1,16.12
		c3.42-5.83,7.62-10.39,12.62-13.68c5-3.29,10.83-4.94,17.5-4.94c1.92,0,3.94,0.17,6.06,0.5c2.12,0.33,3.85,0.71,5.19,1.13
		L879.63,2604.31z"/>
	<path class="st11" d="M967.23,2642.3h-70.36v-29.12h70.36V2642.3z"/>
	<path class="st11" d="M1141.43,2645.05c-0.67,9.25-2.75,17.75-6.25,25.49c-3.5,7.75-8.33,14.39-14.5,19.93
		c-6.17,5.54-13.64,9.87-22.43,13c-8.79,3.12-18.81,4.69-30.05,4.69c-11.67,0-22.14-2.02-31.43-6.06
		c-9.29-4.04-17.16-9.85-23.62-17.43c-6.46-7.58-11.41-16.77-14.87-27.56c-3.46-10.79-5.19-22.89-5.19-36.3v-12
		c0-13.41,1.79-25.53,5.37-36.37c3.58-10.83,8.64-20.04,15.18-27.62c6.54-7.58,14.47-13.41,23.81-17.5
		c9.33-4.08,19.75-6.12,31.24-6.12c11.33,0,21.35,1.6,30.05,4.81c8.71,3.21,16.1,7.67,22.18,13.37c6.08,5.71,10.83,12.5,14.25,20.37
		c3.42,7.87,5.58,16.43,6.5,25.68h-37.49c-0.42-5.42-1.35-10.21-2.81-14.37c-1.46-4.16-3.56-7.66-6.31-10.5
		c-2.75-2.83-6.29-4.98-10.62-6.44c-4.33-1.46-9.58-2.19-15.75-2.19c-12.66,0-22.1,4.6-28.3,13.81c-6.21,9.21-9.31,23.47-9.31,42.8
		v12.25c0,9.42,0.69,17.66,2.06,24.74c1.37,7.08,3.54,13,6.5,17.75c2.96,4.75,6.79,8.31,11.5,10.69c4.71,2.37,10.39,3.56,17.06,3.56
		c5.91,0,11.02-0.67,15.31-2c4.29-1.33,7.87-3.35,10.75-6.06c2.87-2.71,5.1-6.1,6.69-10.19c1.58-4.08,2.58-8.83,3-14.25H1141.43z"/>
	<path class="st11" d="M1158.05,2636.8c0-9.83,1.42-18.95,4.25-27.37c2.83-8.41,6.96-15.68,12.37-21.81
		c5.41-6.12,12.1-10.93,20.06-14.43c7.96-3.5,17.02-5.25,27.18-5.25c10.25,0,19.37,1.75,27.37,5.25c8,3.5,14.72,8.31,20.18,14.43
		c5.46,6.12,9.6,13.39,12.43,21.81c2.83,8.42,4.25,17.54,4.25,27.37v2.62c0,9.92-1.42,19.06-4.25,27.43
		c-2.83,8.37-6.98,15.62-12.43,21.75c-5.46,6.12-12.14,10.92-20.06,14.37c-7.92,3.46-17,5.19-27.24,5.19
		c-10.25,0-19.35-1.73-27.31-5.19c-7.96-3.46-14.66-8.25-20.12-14.37c-5.46-6.12-9.6-13.37-12.43-21.75
		c-2.83-8.37-4.25-17.51-4.25-27.43V2636.8z M1194.17,2639.43c0,5.5,0.5,10.67,1.5,15.5c1,4.83,2.6,9.02,4.81,12.56
		c2.21,3.54,5.08,6.35,8.62,8.44c3.54,2.08,7.89,3.12,13.06,3.12c5,0,9.27-1.04,12.81-3.12c3.54-2.08,6.44-4.89,8.69-8.44
		c2.25-3.54,3.87-7.73,4.87-12.56c1-4.83,1.5-10,1.5-15.5v-2.62c0-5.33-0.5-10.39-1.5-15.18c-1-4.79-2.62-9-4.87-12.62
		c-2.25-3.62-5.17-6.5-8.75-8.62c-3.58-2.13-7.92-3.19-13-3.19c-5,0-9.27,1.06-12.81,3.19c-3.54,2.12-6.42,5-8.62,8.62
		c-2.21,3.62-3.81,7.83-4.81,12.62c-1,4.79-1.5,9.85-1.5,15.18V2639.43z"/>
	<path class="st11" d="M1341.63,2570.45l1.12,15.62c4.67-5.83,10.29-10.31,16.87-13.43c6.58-3.12,13.91-4.69,21.99-4.69
		c6.41,0,12.25,0.9,17.5,2.69c5.25,1.79,9.75,4.73,13.5,8.81c3.75,4.08,6.64,9.42,8.69,16c2.04,6.58,3.06,14.66,3.06,24.24v85.98
		h-36.12v-86.23c0-4.33-0.48-7.91-1.44-10.75c-0.96-2.83-2.35-5.08-4.19-6.75c-1.83-1.67-4.08-2.85-6.75-3.56
		c-2.67-0.71-5.75-1.06-9.25-1.06c-5.33,0-9.89,1.17-13.68,3.5c-3.79,2.33-6.85,5.5-9.19,9.5v95.35h-36.12v-135.21H1341.63z"/>
	<path class="st11" d="M1524.96,2668.29c0-1.92-0.38-3.67-1.12-5.25c-0.75-1.58-2.17-3.06-4.25-4.44c-2.08-1.38-4.92-2.69-8.5-3.94
		c-3.58-1.25-8.21-2.46-13.87-3.62c-6.92-1.5-13.31-3.37-19.18-5.62c-5.87-2.25-10.96-5.04-15.25-8.37
		c-4.29-3.33-7.64-7.21-10.06-11.62c-2.42-4.42-3.62-9.54-3.62-15.37c0-5.66,1.23-11.04,3.69-16.12c2.46-5.08,6-9.56,10.62-13.43
		c4.62-3.87,10.29-6.94,17-9.19c6.71-2.25,14.27-3.37,22.68-3.37c8.75,0,16.62,1.08,23.62,3.25c7,2.17,12.93,5.19,17.81,9.06
		c4.87,3.87,8.62,8.48,11.25,13.81c2.62,5.33,3.94,11.17,3.94,17.5h-36.12c0-5.17-1.67-9.44-5-12.81
		c-3.33-3.37-8.54-5.06-15.62-5.06c-6.08,0-10.79,1.38-14.12,4.12c-3.33,2.75-5,6.25-5,10.5c0,2,0.44,3.77,1.31,5.31
		c0.87,1.54,2.29,2.96,4.25,4.25c1.96,1.29,4.54,2.48,7.75,3.56c3.21,1.08,7.14,2.08,11.81,3c7.33,1.42,14.12,3.17,20.37,5.25
		c6.25,2.08,11.64,4.77,16.18,8.06c4.54,3.29,8.1,7.29,10.68,12c2.58,4.71,3.87,10.39,3.87,17.06c0,6-1.33,11.52-4,16.56
		c-2.67,5.04-6.48,9.39-11.43,13.06c-4.96,3.67-10.93,6.54-17.93,8.62c-7,2.08-14.83,3.12-23.49,3.12c-9.5,0-17.87-1.33-25.12-4
		c-7.25-2.67-13.35-6.16-18.31-10.5c-4.96-4.33-8.69-9.2-11.18-14.62c-2.5-5.41-3.75-10.87-3.75-16.37h34.24
		c0.17,3.5,0.94,6.52,2.31,9.06c1.37,2.54,3.19,4.6,5.44,6.19c2.25,1.58,4.85,2.75,7.81,3.5c2.96,0.75,6.06,1.12,9.31,1.12
		c6.91,0,12.14-1.31,15.68-3.94C1523.19,2675.98,1524.96,2672.54,1524.96,2668.29z"/>
	<path class="st11" d="M1626.55,2537.21v33.24h23.12v26.49h-23.12v67.48c0,2.83,0.29,5.17,0.88,7c0.58,1.83,1.46,3.27,2.62,4.31
		c1.17,1.04,2.6,1.75,4.31,2.12c1.71,0.38,3.73,0.56,6.06,0.56c2.17,0,4.14-0.08,5.94-0.25c1.79-0.17,3.35-0.37,4.69-0.62v27.37
		c-3,0.92-6.27,1.69-9.81,2.31c-3.54,0.62-7.56,0.94-12.06,0.94c-5.92,0-11.25-0.73-16-2.19c-4.75-1.46-8.81-3.77-12.18-6.94
		c-3.37-3.17-5.98-7.29-7.81-12.37c-1.83-5.08-2.75-11.2-2.75-18.37v-71.36h-19.75v-26.49h19.75v-33.24H1626.55z"/>
	<path class="st11" d="M1745.77,2604.31c-1.83-0.25-3.98-0.48-6.44-0.69c-2.46-0.21-4.65-0.31-6.56-0.31
		c-7.08,0-12.81,1.19-17.18,3.56c-4.37,2.37-7.6,5.81-9.69,10.31v88.48h-36.12v-135.21h34.12l1,16.12
		c3.42-5.83,7.62-10.39,12.62-13.68c5-3.29,10.83-4.94,17.5-4.94c1.92,0,3.94,0.17,6.06,0.5c2.12,0.33,3.85,0.71,5.19,1.13
		L1745.77,2604.31z"/>
	<path class="st11" d="M1844.12,2691.91c-4.25,5.17-9.42,9.17-15.5,12c-6.08,2.83-13.25,4.25-21.49,4.25
		c-6.67,0-12.75-0.94-18.25-2.81c-5.5-1.87-10.23-4.83-14.18-8.87c-3.96-4.04-7.02-9.25-9.19-15.62
		c-2.17-6.37-3.25-14.02-3.25-22.93v-87.48h36.12v87.73c0,3.75,0.48,6.96,1.44,9.62c0.96,2.67,2.29,4.81,4,6.44
		c1.71,1.63,3.73,2.81,6.06,3.56c2.33,0.75,4.92,1.12,7.75,1.12c6.5,0,11.79-1.12,15.87-3.37c4.08-2.25,7.21-5.37,9.37-9.37v-95.72
		h36.24v135.21h-33.99L1844.12,2691.91z"/>
	<path class="st11" d="M1962.59,2679.04c3.33,0,6.37-0.48,9.12-1.44c2.75-0.96,5.12-2.31,7.12-4.06c2-1.75,3.56-3.85,4.69-6.31
		c1.12-2.46,1.73-5.23,1.81-8.31h33.87c-0.08,7.17-1.58,13.77-4.5,19.81c-2.92,6.04-6.87,11.25-11.87,15.62
		c-5,4.37-10.89,7.77-17.68,10.18c-6.79,2.42-14.1,3.62-21.93,3.62c-10.5,0-19.66-1.77-27.49-5.31c-7.83-3.54-14.33-8.37-19.5-14.5
		c-5.17-6.12-9.04-13.33-11.62-21.62c-2.58-8.29-3.87-17.22-3.87-26.8v-3.5c0-9.58,1.29-18.54,3.87-26.87
		c2.58-8.33,6.46-15.58,11.62-21.74c5.16-6.16,11.64-11.02,19.43-14.56c7.79-3.54,16.89-5.31,27.31-5.31
		c8.33,0,15.93,1.23,22.81,3.69c6.87,2.46,12.77,5.98,17.68,10.56c4.92,4.58,8.75,10.14,11.5,16.68c2.75,6.54,4.17,13.85,4.25,21.93
		h-33.87c-0.08-3.25-0.65-6.31-1.69-9.18c-1.04-2.88-2.52-5.37-4.44-7.5c-1.92-2.13-4.29-3.81-7.12-5.06
		c-2.83-1.25-6.08-1.88-9.75-1.88c-5.25,0-9.54,1.08-12.87,3.25c-3.33,2.17-5.94,5.06-7.81,8.68c-1.87,3.62-3.15,7.81-3.81,12.56
		c-0.67,4.75-1,9.67-1,14.75v3.5c0,5.17,0.33,10.12,1,14.87c0.67,4.75,1.94,8.92,3.81,12.5c1.87,3.58,4.48,6.44,7.81,8.56
		C1952.8,2677.98,1957.17,2679.04,1962.59,2679.04z"/>
	<path class="st11" d="M2083.06,2537.21v33.24h23.12v26.49h-23.12v67.48c0,2.83,0.29,5.17,0.88,7c0.58,1.83,1.46,3.27,2.62,4.31
		c1.17,1.04,2.6,1.75,4.31,2.12c1.71,0.38,3.73,0.56,6.06,0.56c2.17,0,4.14-0.08,5.94-0.25c1.79-0.17,3.35-0.37,4.69-0.62v27.37
		c-3,0.92-6.27,1.69-9.81,2.31c-3.54,0.62-7.56,0.94-12.06,0.94c-5.92,0-11.25-0.73-16-2.19c-4.75-1.46-8.81-3.77-12.18-6.94
		c-3.37-3.17-5.98-7.29-7.81-12.37c-1.83-5.08-2.75-11.2-2.75-18.37v-71.36h-19.75v-26.49h19.75v-33.24H2083.06z"/>
	<path class="st11" d="M2126.05,2535.46c0-5.41,1.81-9.87,5.44-13.37s8.56-5.25,14.81-5.25c3.08,0,5.87,0.46,8.37,1.38
		c2.5,0.92,4.62,2.21,6.37,3.87c1.75,1.67,3.1,3.65,4.06,5.94c0.96,2.29,1.44,4.77,1.44,7.44c0,2.75-0.48,5.27-1.44,7.56
		c-0.96,2.29-2.31,4.27-4.06,5.94c-1.75,1.67-3.87,2.96-6.37,3.87c-2.5,0.92-5.29,1.38-8.37,1.38c-3.08,0-5.87-0.46-8.37-1.38
		c-2.5-0.92-4.62-2.21-6.37-3.87c-1.75-1.67-3.1-3.64-4.06-5.94C2126.53,2540.73,2126.05,2538.2,2126.05,2535.46z M2164.41,2705.66
		h-36.24v-135.21h36.24V2705.66z"/>
	<path class="st11" d="M2188.53,2636.8c0-9.83,1.42-18.95,4.25-27.37c2.83-8.41,6.96-15.68,12.37-21.81
		c5.41-6.12,12.1-10.93,20.06-14.43c7.96-3.5,17.02-5.25,27.18-5.25c10.25,0,19.37,1.75,27.37,5.25c8,3.5,14.72,8.31,20.18,14.43
		c5.46,6.12,9.6,13.39,12.43,21.81c2.83,8.42,4.25,17.54,4.25,27.37v2.62c0,9.92-1.42,19.06-4.25,27.43
		c-2.83,8.37-6.98,15.62-12.43,21.75c-5.46,6.12-12.14,10.92-20.06,14.37c-7.92,3.46-17,5.19-27.24,5.19
		c-10.25,0-19.35-1.73-27.31-5.19c-7.96-3.46-14.66-8.25-20.12-14.37c-5.46-6.12-9.6-13.37-12.43-21.75
		c-2.83-8.37-4.25-17.51-4.25-27.43V2636.8z M2224.65,2639.43c0,5.5,0.5,10.67,1.5,15.5c1,4.83,2.6,9.02,4.81,12.56
		c2.21,3.54,5.08,6.35,8.62,8.44c3.54,2.08,7.89,3.12,13.06,3.12c5,0,9.27-1.04,12.81-3.12c3.54-2.08,6.44-4.89,8.69-8.44
		c2.25-3.54,3.87-7.73,4.87-12.56c1-4.83,1.5-10,1.5-15.5v-2.62c0-5.33-0.5-10.39-1.5-15.18c-1-4.79-2.62-9-4.87-12.62
		c-2.25-3.62-5.17-6.5-8.75-8.62c-3.58-2.13-7.92-3.19-13-3.19c-5,0-9.27,1.06-12.81,3.19c-3.54,2.12-6.42,5-8.62,8.62
		c-2.21,3.62-3.81,7.83-4.81,12.62c-1,4.79-1.5,9.85-1.5,15.18V2639.43z"/>
	<path class="st11" d="M2372.11,2570.45l1.12,15.62c4.67-5.83,10.29-10.31,16.87-13.43c6.58-3.12,13.91-4.69,21.99-4.69
		c6.41,0,12.25,0.9,17.5,2.69c5.25,1.79,9.75,4.73,13.5,8.81c3.75,4.08,6.64,9.42,8.69,16c2.04,6.58,3.06,14.66,3.06,24.24v85.98
		h-36.12v-86.23c0-4.33-0.48-7.91-1.44-10.75c-0.96-2.83-2.35-5.08-4.19-6.75c-1.83-1.67-4.08-2.85-6.75-3.56
		c-2.67-0.71-5.75-1.06-9.25-1.06c-5.33,0-9.89,1.17-13.68,3.5c-3.79,2.33-6.85,5.5-9.19,9.5v95.35h-36.12v-135.21H2372.11z"/>
</g>
</svg>
